<?xml version="1.0" encoding="utf-8"?>
<svg width="909.0188" height="476.513" xmlns="http://www.w3.org/2000/svg">
  <defs>
    <clipPath id="a">
      <path d="M2265.73 3429.25c-37.64 29.42-72.98 1.67-84.63-8.11-4.94 7.53-39.65 61.06-85.34 28.41-41.19-29.42 32.62-157.4 65.92-169.07l3.4-1.59c32.45 1.47 143.22 117.08 100.65 150.36z"/>
    </clipPath>
  </defs>
  <path fill="none" stroke="#ef2f2c" stroke-width="15.9949" d="M-4766.11 3766.43c-57.08 5.17-145.56-37.61-176.94-85.57-31.4-47.95-119.87-90.75-176.95-85.58" transform="matrix(-.10156 -.0301 .03488 -.10014 -87.23 656.997)"/>
  <path fill="none" stroke="#a4262c" stroke-width="15.3912" d="M-4768.64 2978.51c-51.66-2.95-121.18-54.45-139.04-103.02-17.85-48.56-87.38-100.06-139.03-103.02" transform="matrix(-.10876 -.02102 .02985 -.10705 -87.23 656.997)"/>
  <path fill="none" stroke="#ef2f2c" stroke-width="15.6658" d="M-4773.7 3304.17c-51.21 2.24-123.15-42.37-143.9-89.24-20.74-46.87-92.68-91.49-143.89-89.25" transform="matrix(-.10553 -.02514 .03214 -.10386 -87.23 656.997)"/>
  <path fill="none" stroke="#a4262c" stroke-width="17.5942" d="M-4768.05 3638.36c-55.65 6.21-135.42-38.11-159.57-88.65-24.12-50.52-103.91-94.84-159.55-88.63" transform="matrix(-.10235 -.02912 .03434 -.10086 -87.23 656.997)"/>
  <path fill="none" stroke="#ef2f2c" stroke-width="17.1436" d="M-4823.86 3777.62c-49.69 13.98-125.32-16.66-151.25-61.28-25.95-44.63-101.56-75.28-151.25-61.29" transform="matrix(-.10235 -.02912 .03434 -.10086 -87.23 656.997)"/>
  <path fill="none" stroke="#a4262c" stroke-width="18.5985" d="M-4747.12 4401.6c-48.37 21.9-126.37-.3-155.96-44.38-29.61-44.09-107.6-66.29-155.98-44.39" transform="matrix(-.0961 -.03664 .03854 -.09538 -87.23 656.997)"/>
  <path fill="none" stroke="#a4262c" stroke-width="17.8409" d="M-4828.93 3303.93c-53.61 8.18-129.24-33.21-151.25-82.77-22.02-49.57-97.64-90.96-151.25-82.78" transform="matrix(-.10713 -.0231 .031 -.10543 -87.23 656.997)"/>
  <path fill="#a4262c" d="M298.43 167.9013c-28.3747-13.0946-50.9733-36.932-65.624-64.1666-3.0347-5.6427-28.5267 24.7666-15.976 36.5026 28.7733 26.904 66.9413 42.7267 107.5627 43.396 4.1466.068 8.2946.02 12.44-.088-8.048-3.024-33.2587-13.2693-38.4027-15.644"/>
  <path fill="#25285b" d="M127.8847 149.364s-8.452-67.2893 12.316-82.6427c20.772-15.3506 41.5386-6.32 47.86 3.612 6.3226 9.9347 17.16 27.9107 3.6133 88.9094 0 0-53.532 22.1893-63.7893-9.8787"/>
  <path fill="#25285b" d="M111.81 145.8773c8.592 1.6294 42.6533 8.5427 48.1907 16.76 0 0 31.1746-19.6893 46.584-17.1226l34.244 8.444s34.2453 102.6106 53.936 275.24c0 0 1.7106 9.9666-81.332 15.1026 0 0-38.5254-.856-43.6627 6.848h-15.4093s-20.548-11.1266-44.5174-6.848c-23.9706 4.2787-75.3364-2.5666-79.6176-9.4173-4.2822-6.8507 19.6883-167.8 19.6883-167.8s5.304-109.4373 36.8147-114.676c13.784-2.2933 23.8253-6.7693 25.0813-6.5307"/>
  <path fill="#fff" d="M112.2993 148.624c6.5907 1.2653 13.1307 2.7307 19.6347 4.3787 8.128 2.0586 21.0973 4.528 26.7987 11.3693.6346.7587 1.9213 1.3893 2.86.8013 12.4866-7.816 31.8453-20.2746 47.0773-16.52 7.7013 1.8987 15.4013 3.7987 23.1013 5.6974 2.9387.724 5.8774 1.448 8.816 2.1746 1.8174.448-2.4373-3.9306-1.5786-1.2853 7.9946 24.64 14.1493 49.9307 19.9853 75.1493 13.7427 59.384 23.7387 119.6227 31.2693 180.0894.6507 5.2133 2.2507 14.7186 2.136 17.7986.0187-.4853.1854-.5386-.1866-.0773-1.6214 2.0067-5.2107 2.9453-7.4894 3.708-19.9666 6.7013-42.5333 7.5173-63.3173 9.0547-16.3893 1.2093-34.604-1.268-50.06 5.2293-3.32 1.3973-1.8053 2.2133-5.3947 2.2133H154.302c-1.748 0-5.0427-2.1613-6.7533-2.82-5.9067-2.2666-12.128-3.5746-18.368-4.4826-12.6654-1.844-25.3747 1.6493-38.0694 1.7813-13.02.1333-26.116-1.2213-38.9493-3.332-3.4907-.5733-19.5805-2.8947-19.9967-5.836-.639-4.5413.1635-9.576.512-14.108 4.2558-55.4347 15.7807-110.0587 20.618-165.376 2.004-22.9453 5.2467-46.1013 12.1427-68.1307 2.9427-9.3933 6.848-19.0106 13.732-26.228 4.4267-4.644 10.4693-4.9893 16.408-6.3093 5.692-1.2653 11.5187-4.3747 17.3013-4.948 2.9347-.2907.5014-5.7373-2.1386-5.476-8.6347.8547-19.384 4.6267-27.648 7.2027-5.708 1.78-9.84 6.8973-12.9947 11.6826-9.6107 14.5907-13.1747 33.508-16.2813 50.3814-3.7854 20.548-4.4707 41.3453-7.4867 61.944-5.0683 34.6133-9.9324 69.264-14.1933 103.988-1.8766 15.296-3.811 30.6573-4.6443 46.052-.4797 8.856.0844 13.4133 9.1765 16.7333 19.745 7.2133 43.689 8.004 64.451 7 15.322-.7387 28.768-2.952 43.869 1.7907 7.138 2.2413 10.037 3.98 17.564 3.98 2.61 0 5.698.4666 8.285-.008 2.521-.46 5.568-3.416 8.473-4.1974 9.754-2.6226 20.526-2.6106 30.561-2.6693 21.668-.128 43.962-2.5387 65.245-6.684 6.469-1.2613 16.288-2.5933 21.094-7.8293.514-.5587.954-1.5.917-2.2814-.752-16.5973-4.008-33.4733-6.285-49.924-7.74-55.956-17.968-111.6333-31.314-166.5306-4.19-17.22-8.728-34.3667-13.826-51.3414-3.074-10.228-3.846-10.84-14.916-13.5693-8.718-2.1507-17.752-5.3693-26.702-6.2987-11.691-1.212-25.028 6.2547-35.004 11.444-3.577 1.8614-7.087 3.8747-10.517 5.996 2.08-1.2853 1.277-.888-1.576-2.8733-2.036-1.4147-4.435-2.4133-6.678-3.4147-12.179-5.4266-25.969-8.0786-38.993-10.5813-3.232-.6213-1.547 5.0067.977 5.492"/>
  <path fill="#fff" d="M159.8633 451.8933l-1.1506-305.7866 4.8506-.0787 1.152 305.788-4.852.0773"/>
  <path fill="#231f20" d="M232.0473 141.692c7.9974 0 3.8867-7.4547-2.2506-7.4547-7.9974 0-3.8867 7.4547 2.2506 7.4547"/>
  <path fill="#25285b" d="M254.1713 165.5653c-.104.0094-26.4546 1.796-24.016 37.7534 2.444 36.028 28.0894 175.1026 28.0894 175.1026s36.0786 4.192 60.9813-17.164l-46.404-175.652s-2.6667-15.2746-18.6507-20.04"/>
  <path fill="#fff" d="M255.25 164.084c-42.164 3.5587-23.628 68.3987-19.612 93.96 6.332 40.304 13.428 80.5013 20.8213 120.6213.1867 1.0054 1.5 1.164 2.3107 1.2507 22.5093 2.4253 46.6867-3.9053 64.2947-18.1227.2333-.2093.348-.468.348-.78-9.3547-35.3973-18.7054-70.796-28.056-106.1933-5.288-20.016-10.5747-40.0347-15.8627-60.0493-3.5827-13.556-7.2613-25.0334-22.0973-30.4267-1.736-.6307-7.1774 1.3053-4.0507 2.4427 13.1813 4.7906 16.4973 14.5386 19.6187 26.3586 3.5506 13.4374 7.1013 26.8747 10.6493 40.3094 9.3707 35.472 18.7413 70.94 28.112 106.4106 1.3467 5.1014 2.696 10.2014 4.0427 15.3054 1.644 6.2266 2.78 5.2386-3.2374 9.548-11.7133 8.388-26.6346 11.596-40.7613 12.4346-3.4533.2054-6.928.124-10.376-.1133-2.416-.164 1.2827 2.4813.8013-.136-6.1653-33.5867-12.0733-67.2267-17.62-100.92-3.5146-21.3627-7.0306-42.7707-9.4386-64.292-1.7654-15.772-1.0067-42.8413 20.356-44.644 3.5773-.3027 3.3386-3.2667-.2427-2.964"/>
  <path fill="#231f20" d="M234.75 123.4587v.9066c0 1.2454-.044 23.9587.2387 23.9587.2826 0 .2386-22.7133.2386-23.9587v-2.7613c0-1.2453.044-23.9587-.2386-23.9587-.2827 0-.2387 22.7134-.2387 23.9587v.2587c0 1.2453-.044 23.9586.2387 23.9586.2826 0 .2386-22.7133.2386-23.9586v-.2587c0-1.2453.044-23.9587-.2386-23.9587-.2827 0-.2387 22.7134-.2387 23.9587v2.7613c0 1.2454-.044 23.9587.2387 23.9587.2826 0 .2386-22.7133.2386-23.9587v-.9066c0-1.244.044-23.9587-.2386-23.9587-.2827 0-.2387 22.7147-.2387 23.9587m125.3747 74.452c5.1893-24.492 20.468-67.5174 20.468-67.5174l1.2746-5.3626"/>
  <path fill="none" stroke="#fff" stroke-width="2.3958" d="M360.1247 197.9107c5.1893-24.492 20.468-67.5174 20.468-67.5174l1.2746-5.3626"/>
  <path fill="#fff" d="M142.8473 234.116c3.4534 0 6.2547-2.8 6.2547-6.2533 0-3.4547-2.8013-6.2547-6.2547-6.2547-3.4546 0-6.2546 2.8-6.2546 6.2547 0 3.4533 2.8 6.2533 6.2546 6.2533m37.9707 0c3.4547 0 6.2547-2.8 6.2547-6.2533 0-3.4547-2.8-6.2547-6.2547-6.2547-3.4533 0-6.2533 2.8-6.2533 6.2547 0 3.4533 2.8 6.2533 6.2533 6.2533m-38.5053 30.568c3.4546 0 6.2546-2.8013 6.2546-6.2547 0-3.4546-2.8-6.2546-6.2546-6.2546-3.4534 0-6.2547 2.8-6.2547 6.2546 0 3.4534 2.8013 6.2547 6.2547 6.2547m37.972 0c3.4546 0 6.2546-2.8013 6.2546-6.2547 0-3.4546-2.8-6.2546-6.2546-6.2546-3.4547 0-6.2547 2.8-6.2547 6.2546 0 3.4534 2.8 6.2547 6.2547 6.2547"/>
  <text fill="#ed212a" style="white-space: pre;" transform="translate(409.178 378.217) scale(1.33333)" font-weight="500" font-size="85.1957" font-family="Futura">
    <tspan x="0" y="0">ONDON</tspan>
  </text>
  <text fill="#25285b" style="white-space: pre;" transform="translate(427.937 260.107) scale(1.33333)" font-weight="500" font-size="71.2651" font-family="Futura">
    <tspan x="0" y="0">WRAP UP</tspan>
  </text>
  <path fill="#ed212a" d="M269.2007 179.92c-.4214-6.2907-4.3334-13.504-7.016-18.8893-2.0227-4.0587-7.9627-18.1747-13.4854-19.0907-30.448-5.0573-92.0413-1.688-91.9213-1.7853-15.152.5506-30.3307.728-45.48.5306-9.4453-.1226-19.344-.0813-29.284-.4653-1.864-.072-3.1693 2.2467-3.9853 5.7333-3.472 7.7627-10.6894 24.4894-9.6707 27.24.852 2.2987 20.332 5.284 22.8893 5.8347.044.016.0907.0173.136.0267 41.1707 8.8213 83.3347 2.916 125.2334 2.28 2.584-.4494 37.628-2.2227 52.584-1.4147"/>
  <path fill="#fff" d="M216.0633 199.06c-5.452-4.26-10.5693-.2427-12.2586 1.1747-.716-1.0907-5.7427-8.8427-12.36-4.1147-5.9667 4.2627 4.724 22.7987 9.548 24.4893l.492.2294c4.7-.2134 20.744-16.9587 14.5786-21.7787"/>
  <path fill="none" stroke="#fff" stroke-width="6.7758" stroke-miterlimit="10" d="M216.0633 199.06c-5.452-4.26-10.5693-.2427-12.2586 1.1747-.716-1.0907-5.7427-8.8427-12.36-4.1147-5.9667 4.2627 4.724 22.7987 9.548 24.4893l.492.2294c4.7-.2134 20.744-16.9587 14.5786-21.7787z"/>
  <path fill="#25285b" d="M216.0633 199.06c-5.452-4.26-10.5693-.2427-12.2586 1.1747-.716-1.0907-5.7427-8.8427-12.36-4.1147-5.9667 4.2627 4.724 22.7987 9.548 24.4893l.492.2294c4.7-.2134 20.744-16.9587 14.5786-21.7787"/>
  <path fill="none" stroke="#25285b" stroke-width="1.2008" stroke-miterlimit="10" d="M216.0633 199.06c-5.452-4.26-10.5693-.2427-12.2586 1.1747-.716-1.0907-5.7427-8.8427-12.36-4.1147-5.9667 4.2627 4.724 22.7987 9.548 24.4893l.492.2294c4.7-.2134 20.744-16.9587 14.5786-21.7787z"/>
  <g clip-path="url(#a)" transform="matrix(.13333 0 0 -.13333 -87.23 656.997)">
    <path fill="#fff" d="M2018.47 3510.38c123.71-21.81 247.41-43.62 371.12-65.44-13.68-77.58-27.36-155.16-41.04-232.75-123.91 21.85-247.84 43.7-371.75 65.55 13.57 76.95 27.14 153.9 40.7 230.84.1.91.21 1.82.97 1.8zm134.49-98.67c1.9-1.69 3.7-4.39 6.45-4.42 4.35 24.65 8.69 49.31 13.04 73.96-40.67 6.74-82.74 15.47-122.54 20.96 33.83-29.61 69.99-61.13 103.05-90.5zm28.72 65.95c-5.36-30.4-10.72-60.79-16.08-91.19l-161.97 28.56c-1.91-10.84-3.82-21.68-5.73-32.51 53.99-9.52 107.98-19.04 161.96-28.56-5.47-31.04-10.94-62.07-16.41-93.11 10.2-1.8 20.41-3.59 30.61-5.39 5.82 30.53 10.24 63.06 16.94 92.34 53.77-9.48 107.55-18.96 161.32-28.44 1.92 10.84 3.83 21.68 5.74 32.52-53.7 9.9-109.4 18.41-161.86 29.19 5.48 31.04 10.95 62.07 16.42 93.1l-29.97 5.28c-.76.03-.87-.88-.97-1.79zm39.87-5.06c-5.8-24.18-9.32-51.61-14.25-77.04 41.45 15.72 89.11 34.42 131.32 51.14 2.64 1.05 7.77 1.93 6.63 4.08-41.24 7.28-82.47 14.55-123.7 21.82zm140.92-24.85c-51.25-20.19-102.75-40.04-153.97-60.29 15.8-4.88 22.78.25 33.69 4.58 39.34 15.58 76.58 29.87 114.31 44.27 6.14 2.34 13.23 4.59 18.09 9.3-4.04.71-8.08 1.43-12.12 2.14zm-344.67 47.63c30.82-26.43 62.58-54.26 93.44-81.57 8.12-7.18 13.79-14.73 27.88-13.47-40.33 34.74-80.24 69.77-119.52 105.24l-1.8-10.2zm-12.93-73.34c35.36-5.79 72.12-13.59 106.6-18.13-32.43 27.22-63.41 55.46-95.13 83.18-3.82-21.68-7.65-43.36-11.47-65.05zm363.53-.32c-33.47-13.65-71.02-26-103.74-40.23-1.37-.58-4.95-.71-4.5-3.14 33.16-5.85 66.31-11.7 99.47-17.54 3.17 20.48 8.35 42.36 10.27 61.96-.16-.84-1.22-.38-1.5-1.05zm-33.85-169.58c1.44-1.26 2.7-4.34 5.29-3.56 3.75 21.26 7.5 42.51 11.25 63.76-35.36 5.8-72.12 13.6-106.6 18.14 29.69-25.32 61.29-53.11 90.06-78.34zm-337.58 121.33c-4.44-18.94-8.6-42.53-10.91-61.85 33.49 14.53 71.8 26.74 105.24 41.27 1.33.58 5 .76 4.5 3.16-32.95 5.8-65.89 11.61-98.83 17.42zm133.68-24.88c-37.13-13.14-75.65-29.11-112.19-43.34-12.66-4.94-25.54-9.28-36.98-15.84 4.47-.78 8.93-1.57 13.39-2.36 50.65 20.26 101.85 39.73 152.58 59.89-4.71 1.09-13.95 2.65-16.8 1.65zm147.11-68.03c17.34-15.28 36.11-30.2 52.48-45.41 1.85-1.72 3.1-5.33 6.34-5.07.49 2.77.98 5.53 1.47 8.3-30.08 27.12-62.37 54.8-93.34 82.2-8.11 7.18-13.78 14.73-27.86 13.46 20.6-16.95 40.51-35.49 60.91-53.48zm-200.37 30.73c-19.87-7.88-40.48-16.27-59.41-23.71-2.71-1.06-7.94-1.3-6.53-3.45 41.24-7.27 82.47-14.54 123.71-21.81 4.46 25.29 8.91 50.58 13.38 75.88-.06.52.2 1.26-.41 1.38-22.01-9.93-47.02-18.89-70.74-28.29zm106.23-57.52c40.46-6.69 82.32-15.39 121.9-20.84-36.8 31.43-72.7 63.49-108.74 95.45-4.39-24.87-8.77-49.74-13.16-74.61"/>
    <path fill="#25285b" d="M2049.91 3502.21c39.8-5.49 81.87-14.22 122.54-20.96-4.35-24.65-8.69-49.31-13.04-73.96-2.75.03-4.55 2.73-6.45 4.42-33.06 29.37-69.22 60.89-103.05 90.5m295.34-51.43c1.14-2.15-3.99-3.03-6.63-4.08-42.21-16.72-89.87-35.42-131.32-51.14 4.93 25.43 8.45 52.86 14.25 77.04 41.23-7.27 82.46-14.54 123.7-21.82"/>
    <path fill="#ed212a" d="M2374.59 3445.61c-4.86-4.71-11.95-6.96-18.09-9.3-37.73-14.4-74.97-28.69-114.31-44.27-10.91-4.33-17.89-9.46-33.69-4.58 51.22 20.25 102.72 40.1 153.97 60.29 4.04-.71 8.08-1.43 12.12-2.14m-354.99 59.97c39.28-35.47 79.19-70.5 119.52-105.24-14.09-1.26-19.76 6.29-27.88 13.47-30.86 27.31-62.62 55.14-93.44 81.57l1.8 10.2"/>
    <path fill="#25285b" d="M2016.34 3487.09c31.72-27.72 62.7-55.96 95.13-83.18-34.48 4.54-71.24 12.34-106.6 18.13 3.82 21.69 7.65 43.37 11.47 65.05m353.56-64.32c-1.92-19.6-7.1-41.48-10.27-61.96-33.16 5.84-66.31 11.69-99.47 17.54-.45 2.43 3.13 2.56 4.5 3.14 32.72 14.23 70.27 26.58 103.74 40.23.28.67 1.34.21 1.5 1.05m-125.41-92.29c34.48-4.54 71.24-12.34 106.6-18.14-3.75-21.25-7.5-42.5-11.25-63.76-2.59-.78-3.85 2.3-5.29 3.56-28.77 25.23-60.37 53.02-90.06 78.34m-148.69 25.57c.5-2.4-3.17-2.58-4.5-3.16-33.44-14.53-71.75-26.74-105.24-41.27 2.31 19.32 6.47 42.91 10.91 61.85 32.94-5.81 65.88-11.62 98.83-17.42"/>
    <path fill="#ed212a" d="M2147.45 3346.94c-50.73-20.16-101.93-39.63-152.58-59.89-4.46.79-8.92 1.58-13.39 2.36 11.44 6.56 24.32 10.9 36.98 15.84 36.54 14.23 75.06 30.2 112.19 43.34 2.85 1 12.09-.56 16.8-1.65m69.4-12.9c14.08 1.27 19.75-6.28 27.86-13.46 30.97-27.4 63.26-55.08 93.34-82.2-.49-2.77-.98-5.53-1.47-8.3-3.24-.26-4.49 3.35-6.34 5.07-16.37 15.21-35.14 30.13-52.48 45.41-20.4 17.99-40.31 36.53-60.91 53.48"/>
    <path fill="#25285b" d="M2148.13 3339.58c.61-.12.35-.86.41-1.38-4.47-25.3-8.92-50.59-13.38-75.88-41.24 7.27-82.47 14.54-123.71 21.81-1.41 2.15 3.82 2.39 6.53 3.45 18.93 7.44 39.54 15.83 59.41 23.71 23.72 9.4 48.73 18.36 70.74 28.29m48.65-11.2c36.04-31.96 71.94-64.02 108.74-95.45-39.58 5.45-81.44 14.15-121.9 20.84 4.39 24.87 8.77 49.74 13.16 74.61"/>
    <path fill="#fff" d="M2207.36 3379.11l-12.33 2.17 16.79 95.24 12.33-2.18-16.79-95.23m-40.82 7.2l-12.33 2.17 16.79 95.24 12.34-2.18-16.8-95.23"/>
    <path fill="#fff" d="M2364.52 3350.52l-169.22 29.84 2.18 12.33 169.21-29.84-2.17-12.33m-7.82-44.32l-169.21 29.84 2.17 12.32 169.22-29.83-2.18-12.33m-198.34 34.97l-169.21 29.84 2.17 12.33 169.22-29.84-2.18-12.33m6.87 44.49l-169.21 29.84 2.17 12.33 169.22-29.84-2.18-12.33"/>
    <path fill="#ed212a" d="M2182.65 3479.45l29.97-5.28c-5.47-31.03-10.94-62.06-16.42-93.1 52.46-10.78 108.16-19.29 161.86-29.19-1.91-10.84-3.82-21.68-5.74-32.52-53.77 9.48-107.55 18.96-161.32 28.44-6.7-29.28-11.12-61.81-16.94-92.34-10.2 1.8-20.41 3.59-30.61 5.39 5.47 31.04 10.94 62.07 16.41 93.11-53.98 9.52-107.97 19.04-161.96 28.56 1.91 10.83 3.82 21.67 5.73 32.51l161.97-28.56c5.36 30.4 10.72 60.79 16.08 91.19.1.91.21 1.82.97 1.79"/>
  </g>
  <path fill="none" stroke="#25285b" stroke-width="1.2008" stroke-miterlimit="10" d="M214.8598 199.775c-5.0186-3.9225-9.7304-.2226-11.2837 1.0814-.658-1.004-5.286-8.141-11.378-3.788-5.492 3.9227 4.349 20.9862 8.789 22.5422l.454.212c4.327-.196 19.096-15.6103 13.42-20.0475z"/>
  <path fill="#a4262c" d="M415.6188 156.3748c1.9652-1.036 3.9252-2.0866 5.853-3.2172 21.3676-12.5237 44.1337-40.3283 50.2282-51.82 6.096-11.493 12.9024-29.7073 12.9024-29.7073s-.7453-.108-2.0786-.1293c-6.3332.4373-17.7823 5.8118-17.7823 5.8118-28.4833 13.4144-41.5976 46.9482-49.1227 79.062"/>
  <path fill="#a4262c" d="M542.069 410.9912c-61.5412-19.533-102.6188-5.48-123.6796 3.3052-5.936 2.4773-13.4944 5.464-13.7117 5.5425-13.677 6.371-31.6685 12.813-50.1574 13.926 1.3906.658 51.3734 21.079 70.6076 17.443 7.126-1.347 14.912-3.505 23.135-6.836 40.303-16.323 70.555-5.684 73.022-4.763l20.783-28.619"/>
  <path fill="#ed212a" d="M475.6226 68.621c.0667-.0186-39.115-6.3238-52.8294-2.332-12.6543 3.6827-22.3154 15.3237-29.5685 25.6648-13.9437 19.8902-23.1248 43.403-30.246 67.1276-14.357 6.36-29.8712 10.633-45.9908 12.7584 8.863 3.6626 17.719 7.0585 26.742 9.6744 4.482-.3733 8.955-.82 13.401-1.4346-.807 3.0972-1.6 6.1905-2.37 9.2504-8.385 33.3685-13.288 67.761-16.944 101.9188-4.9 45.7602-5.824 96.3616 14.795 138.594 14.749-.6228 29.464-4.9693 41.853-10.0012l-3.296-9.0944c-9.136-30.9686-9.453-64.6398-7.275-96.6723 2.269-33.392 20.108-127.039 24.014-140.41.644-3.419 1.346-6.956 2.117-10.563 7.149-33.855 19.743-71.244 49.426-87.569.503-.207 1.193-.532 2.12-1.007 8.057-4.119 14.379-4.996 16.707-5.183.629-.051.183-.196.183-.196l-2.843-.528"/>
  <path fill="#fff" d="M143.4216 184.2568h-.0014c-20.342 0-36.983-1.5346-52.3707-4.832-.0506-.0065-.1133-.0185-.1786-.036-.462-.096-1.402-.2625-2.65-.4825-17.074-3.02-20.525-4.4506-21.166-6.1812-.33-.885-1.326-3.574 9.651-28.132 1.053-4.405 2.792-6.638 5.169-6.638l.136.003c7.109.275 14.238.331 21.132.386 2.736.022 5.444.044 8.116.078 3.984.054 7.968.079 11.955.079 11.094 0 22.35-.204 33.458-.608l.982-.036.001.004c.276-.01.61-.025 1.001-.042 5.477-.232 22.148-.936 40.623-.936 21.657 0 38.336.947 49.579 2.815 5.088.844 9.65 9.667 13.529 17.871.365.773.677 1.435.929 1.939l.774 1.544c2.664 5.292 5.977 11.876 6.378 17.85l.1 1.503-1.503-.081c-2.531-.136-5.804-.207-9.729-.207-16.791 0-40.547 1.255-42.554 1.604l-.207.02c-11.026.167-22.266.71-33.134 1.235-13.129.632-26.707 1.287-40.025 1.287zm-51.8614-7.4465l.0747.0134c15.172 3.2506 31.636 4.7665 51.785 4.7665 13.254 0 26.799-.6533 39.899-1.2853 10.858-.523 22.086-1.066 33.127-1.235 2.986-.439 26.628-1.626 42.895-1.626 3.209 0 5.993.046 8.305.137-.768-5.074-3.609-10.72-5.933-15.336l-.78-1.555c-.259-.516-.579-1.195-.954-1.989-2.22-4.695-7.419-15.692-11.555-16.379-11.099-1.844-27.633-2.779-49.143-2.779-18.419 0-35.047.704-40.51.933-1.163.049-1.859.078-2.018.078h-.067c-11.113.402-22.374.606-33.473.606-3.999 0-7.996-.026-11.991-.079-2.668-.035-5.372-.056-8.103-.078-6.915-.055-14.065-.112-21.216-.388-.727 0-1.823 1.233-2.635 4.705l-.082.241c-7.488 16.741-9.8708 24.47-9.656 26.123 1.2305 1.016 7.6703 2.558 19.15 4.589 1.332.236 2.328.413 2.788.512l.085.018"/>
  <path fill="#25285b" d="M119.1608 144.4938c-8.521-33.1792-17.6075-92.3417 23.5835-106.9106 14.4156-5.0946 30.1445-2.776 43.223 4.6945 10.2436 5.8492 13.5422 14.5476 16.8408 25.186 7.983 25.7594 2.752 53.3814-2.771 80.4994-4.301 21.113 28.026 30.102 32.343 8.915 6.984-34.286 12.459-68.135 1.584-102.1-12.976-40.523-52.423-58.961-93.362-51.348-69.346 12.895-67.412 96.914-53.784 149.98 5.377 20.938 37.724 12.049 32.343-8.915"/>
  <path fill="#25285b" d="M119.1608 144.4938c-8.521-33.1792-17.6075-92.3417 23.5835-106.9106 14.4156-5.0946 30.1445-2.776 43.223 4.6945 10.2436 5.8492 13.5422 14.5476 16.8408 25.186 7.983 25.7594 2.752 53.3814-2.771 80.4994-4.301 21.113 28.026 30.102 32.343 8.915 6.984-34.286 12.459-68.135 1.584-102.1-12.976-40.523-52.423-58.961-93.362-51.348-69.346 12.895-67.412 96.914-53.784 149.98 5.377 20.938 37.724 12.049 32.343-8.915"/>
  <path fill="#fff" d="M218.4837 171.4825c-6.1132 0-12.281-2.9-16.0943-7.5705-3.5426-4.3332-4.8452-9.9038-3.6692-15.6823 5.1292-25.1847 10.9424-53.7293 2.8252-79.91-3.3185-10.7184-6.413-18.7342-16.0702-24.2487-13.185-7.5318-28.662-9.2598-41.8936-4.58-39.507 13.977-31.0726 71.8916-22.5288 105.1695 1.8813 7.325-.548 12.501-2.9146 15.5543-3.6546 4.7118-9.8118 7.637-16.0703 7.637h-.003c-8.356-.0026-14.86-5.1144-16.973-13.3462-4.696-18.2902-18.01-81.122 7.862-121.681 10.684-16.7502 26.679-27.21 47.544-31.09C146.628.5962 152.809.0162 158.869.0162c36.979 0 66.633 20.8782 77.3927 54.488 11.0182 34.41 5.5583 68.5437-1.5388 103.3948-1.708 8.3798-7.93 13.5837-16.24 13.5837zm-59.38-138.2312c9.6172 0 19.353 2.6586 28.1608 7.6878 10.7824 6.158 14.277 15.171 17.729 26.314 8.389 27.062 2.477 56.088-2.736 81.696-1.228 6.023.9132 10.22 2.924 12.683 3.1464 3.852 8.2437 6.245 13.3022 6.245 6.5918 0 11.341-3.997 12.7023-10.695 7.0012-34.366 12.393-67.994 1.6413-101.577-10.265-32.062-38.6043-51.98-73.958-51.98-5.8386 0-11.7998.559-17.713 1.659-19.8408 3.689-35.035 13.609-45.1602 29.484-25.09 39.335-12.014 100.908-7.409 118.844 1.71 6.661 6.747 10.637 13.479 10.637h.003c5.168 0 10.235-2.391 13.221-6.243 1.872-2.415 3.79-6.536 2.27-12.445-8.849-34.474-17.393-94.535 24.821-109.467 5.329-1.884 10.956-2.84 16.725-2.84"/>
  <path fill="#25285b" d="M73.8286 169.7732c-.1013-.032-25.39-7.6425-35.778 26.8686-10.4032 34.5792-35.398 173.769-35.398 173.769s32.2867 16.633 63.1136 5.416L84.2217 195.095s2.8853-15.2356-10.393-25.322"/>
  <path fill="#fff" d="M73.422 167.7066c-40.218-11.4997-45.868 59.2305-50.9198 83.766-8.055 39.1082-15.4184 78.366-22.4797 117.6623-.241 1.338 1.339 2.566 2.352 3.074 19.8058 9.957 43.9308 12.653 65.029 5.796.464-.151.9346-.331.9933-.903 3.7185-36.423 7.437-72.842 11.1584-109.266 2.1026-20.596 4.2052-41.19 6.309-61.787 1.4654-14.371 1.808-26.569-10.4503-37.17-2.226-1.926-6.214-.847-3.172 1.782 13.973 12.087 8.55 30.998 6.909 47.072-2.667 26.103-5.333 52.206-7.997 78.311-2.304 22.549-4.607 45.097-6.909 67.646-.283 2.772-.567 5.542-.848 8.313-.426 4.171-2.899 2.853-7.32 3.968-17.004 4.284-37.576.466-53.147-7.364.784 1.024 1.567 2.049 2.351 3.074 6.116-34.034 12.531-68.018 19.293-101.93 4.236-21.23 8.486-42.505 13.815-63.493 4.062-16.013 14.743-40.459 35.843-34.423 3.781 1.08 1.526-3.464-.812-4.133"/>
</svg>