<svg version="1" xmlns="http://www.w3.org/2000/svg" width="1210.667" height="1210.667" viewBox="0 0 908.000000 908.000000"><path d="M431.5 8.1c-20 1.9-42.8 8-57.7 15.5-35.4 17.8-60.8 51.9-72.2 97-12.2 48-10.8 110.4 3.9 174.6 3.9 17 5.8 21.1 11.9 26.5 17.4 15.3 49.5 1.4 49.6-21.6 0-2.9-1.6-12-3.5-20.2-8.3-35.5-11-57.5-11-90.4.1-28.8 1.2-38 6.7-55.5 8.9-27.9 23.3-45.8 46.5-57.4 23.9-11.9 55.2-13.1 81.7-3.2C516 84.2 529.1 98.1 539 128c7.4 22.4 10.1 39.9 10.1 66.5 0 26.5-2.9 50-11.1 92-1.7 8.2-3 16.6-3 18.6 0 14 11.9 27 27.3 29.8 12.9 2.4 24.5-3.4 29.2-14.5.7-1.8 2.7-10.2 4.4-18.6 9.7-49 13.9-88 12.8-118.3-3-75.1-27.8-125-76.7-154.3C511.5 17 489.5 10.3 462.5 8c-13.6-1.1-18.2-1.1-31 .1z"/><path d="M443.6 118.6c-14.4 3.2-30.4 11.9-38.1 20.7-10.6 12.1-17.2 33.1-20.5 65.2-1.2 11.3-1.4 57.4-.4 66.7l.7 6.1 27.1-.7c14.9-.4 37.5-1.1 50.1-1.6 12.7-.5 31.4-1 41.6-1h18.6l1.1-8.3c2.8-20.5 3.4-31.7 2.9-52.5-.6-23.9-2.2-34.2-7.8-49.7-3.7-10.2-11.4-23.4-17.2-29.3-13.1-13.5-37.9-20.2-58.1-15.6zM478.5 280.1c-11 .4-39.5 1-63.3 1.4l-43.4.8.7 3.1c.3 1.7 1 5.6 1.6 8.7 3.2 19.3-10.9 37.2-32.2 40.9-16.1 2.8-31.2-4.6-37.9-18.4-1.5-3.3-5.5-18.4-8.6-32.4-.8-3.8-2.7-2-5.6 5.4-1.4 3.8-5.8 14.7-9.7 24.2-3.9 9.5-7.1 17.9-7.1 18.8 0 .8 1.3 1.7 3.3 2.1 2.2.4 5.4 2.9 10.2 7.7l7 7 17 3.3c21 4 39.8 6.8 57.5 8.4 19.5 1.8 84 1.6 126-.4 19.5-.9 46.8-2.2 60.5-2.7 13.8-.6 33.1-1.5 43-2 9.9-.5 29.4-1 43.3-1 20.2 0 25.2-.3 25.2-1.3 0-3.4-5.6-16.9-14.4-34.9-9.5-19.3-16.6-30.6-20.5-32.7-1.8-1-23.1-4.4-23.7-3.8-.1.1-1.8 8.4-3.7 18.4-5.1 26.2-8.5 32.6-20.5 38.5-5.9 2.9-7.6 3.3-15.2 3.3-17.2 0-31.4-9.2-37.6-24.3-3.5-8.5-3.2-18.4 1.1-37l.5-2.2-16.7.2c-9.3.1-25.8.5-36.8.9zM254 344.2c-19.2 6.7-34.6 28.4-44.4 62.4-9.9 34.6-32 142-57.1 277.9-5.2 28-9.7 51.8-9.9 52.8-.5 2.2 3.3 4.2 16.3 8.7 16.4 5.6 29.8 8 48.1 8.7 14.9.5 18 .3 31.9-2.1 8.5-1.5 16-3.1 16.7-3.7.7-.6 1.5-2.2 1.8-3.7.3-1.5 7.8-73.1 16.6-159.2s16.7-161.7 17.5-168c2.7-19.2 3-36.2 1.1-45.9-2-9.8-6.2-19-11.6-25.2l-3.8-4.4-8.3-.3c-6.7-.2-9.8.2-14.9 2z"/><path d="M299.5 361.9c5.4 13.2 5.7 26.2 1.5 67.8-3.1 30.5-8.2 80.2-12.5 122.8-1.4 13.2-6.6 64-11.6 113s-9.4 89.3-9.7 89.7c-1.2 1.2-16.3 4.8-26.2 6.3-5.2.8-15.6 1.5-23.1 1.5h-13.6l-2.1 18.3c-3 24.7-7.2 71.3-7.2 78.6 0 3.3.3 6.7.6 7.6 1 2.5 8 5.1 21.1 7.9 41.3 8.7 91.8 12 123.3 8.1 19.4-2.4 37.3-3 48.6-1.5 13.8 1.7 30.8 6.1 40.6 10.6 6.9 3.2 9.4 3.8 14.8 3.9h6.5l-.2-64.5c-.2-35.5-.6-154.4-.9-264.3l-.6-199.7h-30.7c-43.8 0-66.6-1.9-101.6-8.6-9.9-1.9-18.3-3.4-18.7-3.4-.3 0 .4 2.6 1.7 5.9zM422 444.5c11.6 6 7.8 23.5-5.2 23.5-12.9 0-17.2-18.4-5.5-23.5 4.2-1.8 7.1-1.8 10.7 0zm-1.7 60.9c4.6 1.9 6.8 4.8 7.4 9.7 1.4 9.9-8.8 17.1-17.7 12.6-3.2-1.6-7-7.3-7-10.6 0-4 3.3-9.2 7.1-11.3 4-2.2 5.9-2.2 10.2-.4zM618 360.9l-11.5.6-2.2 7.9c-3.1 10.7-4.7 27.7-3.8 41.1 2 34 20 148 46.7 297l8.3 46 11.4.3c18.3.4 42.6-3.4 59.5-9.5 16.2-5.8 37.1-18.4 38.2-23 .4-1.3-.3-5.7-1.4-9.6-1.2-4-15-56-30.7-115.7-48.5-183.8-58.3-220.2-61-227.6-2.4-6.4-3-7.2-5.7-7.8-3.4-.7-30.4-.5-47.8.3z"/><path d="M563.5 363.1c-7.1.4-32.6 1.5-56.5 2.4-23.9.9-44.6 1.9-45.9 2.1l-2.3.5.6 256.7c.4 141.2.9 260.2 1.2 264.5l.6 7.8 2.9-.6c1.6-.4 5.5-1.9 8.6-3.5 14-7 31.8-9.5 71.8-10.4 36.9-.9 84.9-4.5 109-8.2 20.9-3.3 48.3-10.2 56.6-14.4 6.2-3.2 6.3-3.5 4.5-17.2-6.1-46.6-10.7-80.7-11.1-82.8l-.6-2.6-8.2 1.2c-18.4 2.7-46.9 2.6-49.7-.2-1.6-1.6-23.5-124.6-37.5-210.9-3-18.2-7.6-45.4-10.4-60.5-6.3-34.8-7.9-46.5-9-65.6-1.4-23.1.1-38.6 5.5-57.2.6-2.2.5-2.2-8.2-2-4.9 0-14.7.5-21.9.9zM527.2 383c2 .6 5.8 2.5 8.5 4.4 4.6 3.2 4.9 3.2 8.3 1.8 4.8-1.9 13.2-1.7 18.3.6 8.4 3.7 12.1 11.2 9.7 19.8-3.8 13.5-22.8 34.5-34.3 37.9-3.7 1.1-4.7 1-7.7-.5-7.4-3.8-16.5-15.8-22.2-29.4-4.1-9.5-4.9-21.5-1.9-26.3 2.3-3.6 5.5-6 10.9-7.9 4.6-1.6 5.7-1.7 10.4-.4zM498 444.5c4.4 2.3 7 6.2 7 10.7 0 10.1-10.3 16-18.8 10.8-8.2-5-7.6-17.8 1.1-21.5 4.2-1.8 7.1-1.8 10.7 0zm-1.5 60.9c6.5 2.8 9.4 11.5 5.9 17.6-3.6 6-12.6 8-17.8 3.9-7.8-6.1-6.8-17.7 1.7-21.4 4.1-1.8 6-1.8 10.2-.1z"/><path d="M516 389.8c-2.2 1-4.2 3.2-5.4 5.6-1.7 3.6-1.8 4.6-.7 10 2.5 12.6 14.7 32.7 22.3 36.7 6.5 3.5 30.3-19.8 33.9-33.3 1.6-5.8.6-9.1-3.4-12.3-5.3-4-11.5-4.3-18.2-1l-5.6 2.7-3.6-3.7c-6.2-6.4-12.8-8-19.3-4.7zm9.5 9.8l6.4 5.5.7-3.6c.5-2.9.9-3.3 2.1-2.4 1 .9 1.2 2.4.7 5.8-.3 2.5-.9 4.9-1.3 5.3-.4.4-4.9 0-10.1-1-7.7-1.4-9.6-2.1-9.8-3.6-.3-1.4 0-1.7 1.2-1.3.9.4 1.6.2 1.6-.4 0-.5-.7-1.2-1.5-1.5-.8-.4-1.5-1.2-1.5-2 0-.9 1.7-.1 4.6 2.1 6.7 5.1 7.8 4.2 1.6-1.3-4.3-3.8-5.1-4.9-4.1-6 2-1.9 2.7-1.6 9.4 4.4zm22 .9c-.3 1.4-.7 3.6-1 5-.3 1.4-.4 2.5-.2 2.5s3.2-1.1 6.7-2.5 7-2.5 7.7-2.5c2.8 0 .2 1.8-5.9 4-4 1.5-5.6 2.5-4.4 2.8 1 .2 3.8-.4 6.3-1.3 2.4-.9 4.6-1.5 4.9-1.2.9.8-2.4 7.7-3.7 7.7-2.6 0-14.4-2.3-15.1-2.9-.3-.3-.2-3.1.4-6.1 1.4-7.6 1.5-8 3.3-8 1.1 0 1.4.7 1 2.5zm-21.2 17.8c3.2.7 5.8 1.7 5.9 2.2 0 .6-.5 4.1-1.2 7.8-.8 4.6-1.5 6.6-2.2 5.9-.7-.7-.7-2.6 0-5.7 1-4.5.9-4.7-1.2-4.2-1.1.2-2.9.8-3.8 1.2-2.6 1.1-2.2-1 .5-2.3 2.1-1 2-1.1-1-1.1-2.1-.1-3.6-.8-4.3-2-1.9-3.6-1.6-3.7 7.3-1.8zm22 4.2c2 .3 3.7.9 3.7 1.4 0 .4-1.3 2-2.8 3.5-2.6 2.4-3 2.5-4.2 1.1-2-2.4-2.8-1.8-3.5 2.5-.6 3.6-2 5.8-3.1 4.8-.3-.4 1.2-10 2.2-13.6.2-.7 1.2-1.1 2.1-.9 1 .3 3.5.8 5.6 1.2z"/></svg>