<?xml version="1.0" encoding="UTF-8" standalone="no"?>
<svg
   xmlns:dc="http://purl.org/dc/elements/1.1/"
   xmlns:cc="http://creativecommons.org/ns#"
   xmlns:rdf="http://www.w3.org/1999/02/22-rdf-syntax-ns#"
   xmlns:svg="http://www.w3.org/2000/svg"
   xmlns="http://www.w3.org/2000/svg"
   viewBox="0 0 755.90668 604.71997"
   height="604.71997"
   width="755.90668"
   xml:space="preserve"
   id="svg2"
   version="1.1"><metadata
     id="metadata8"><rdf:RDF><cc:Work
         rdf:about=""><dc:format>image/svg+xml</dc:format><dc:type
           rdf:resource="http://purl.org/dc/dcmitype/StillImage" /></cc:Work></rdf:RDF></metadata><defs
     id="defs6" /><g
     transform="matrix(1.3333333,0,0,-1.3333333,0,604.72)"
     id="g10"><g
       transform="scale(0.1)"
       id="g12"><g
         transform="scale(10)"
         id="g14"><text
           id="text18"
           style="font-variant:normal;font-weight:500;font-size:70px;font-family:Futura;-inkscape-font-specification:Futura-Medium;writing-mode:lr-tb;fill:#24295a;fill-opacity:1;fill-rule:nonzero;stroke:none"
           transform="matrix(1,0,0,-1,125.754,62.223)"><tspan
             id="tspan16"
             y="0"
             x="0 76.569305 123.8647 178.23531 219.53799 244.6396 298.65622">WRAP UP</tspan></text>
<text
           id="text22"
           style="font-variant:normal;font-weight:500;font-size:35px;font-family:Futura;-inkscape-font-specification:Futura-Medium;writing-mode:lr-tb;fill:#24295a;fill-opacity:1;fill-rule:nonzero;stroke:none"
           transform="matrix(1,0,0,-1,248.115,22.223)"><tspan
             id="tspan20"
             y="0"
             x="0 21.777287 47.64991 66.067909">BATH</tspan></text>
</g><path
         id="path24"
         style="fill:#ee2536;fill-opacity:1;fill-rule:nonzero;stroke:none"
         d="m 1897.86,3274.56 c -35.18,40.22 -49.95,126.91 -29.85,175.01 17.96,42.95 4.19,123.38 -27.28,159.38 l 11.29,9.87 c 35.17,-40.23 49.95,-126.93 29.84,-175.03 -17.96,-42.95 -4.18,-123.37 27.29,-159.36 l -11.29,-9.87" /><path
         id="path26"
         style="fill:#ee2536;fill-opacity:1;fill-rule:nonzero;stroke:none"
         d="m 1984.31,3460.94 -12.96,7.56 c 21.13,36.26 13.47,106.06 -15.2,138.31 l 11.21,9.96 c 32.86,-36.95 41.24,-114.14 16.95,-155.83" /><path
         id="path28"
         style="fill:#a12032;fill-opacity:1;fill-rule:nonzero;stroke:none"
         d="m 1911.07,3368.52 c -6.57,36.21 -2.19,72.08 11.74,95.95 22.82,39.14 13.76,113.69 -17.95,147.71 l 10.98,10.22 c 36.14,-38.77 46.01,-120.75 19.92,-165.49 -11.99,-20.56 -15.79,-53.4 -9.92,-85.71 l -14.77,-2.68" /><path
         id="path30"
         style="fill:#ee2536;fill-opacity:1;fill-rule:nonzero;stroke:none"
         d="m 1811.76,3269.35 c -39.21,30.46 -57.46,102.98 -36.84,146.39 17.68,37.23 1.28,101.9 -32.49,128.14 l 9.2,11.84 c 39.22,-30.47 57.46,-102.99 36.84,-146.41 -17.68,-37.22 -1.28,-101.88 32.49,-128.12 l -9.2,-11.84" /><path
         id="path32"
         style="fill:#a12032;fill-opacity:1;fill-rule:nonzero;stroke:none"
         d="m 1765.93,3246.31 c -40.82,27.72 -60.54,98.05 -39.82,141.98 17.63,37.39 0.13,99.56 -34.66,123.18 l 8.41,12.42 c 40.81,-27.72 60.54,-98.04 39.83,-142 -17.64,-37.37 -0.15,-99.54 34.66,-123.17 l -8.42,-12.41" /><path
         id="path34"
         style="fill:#a12032;fill-opacity:1;fill-rule:nonzero;stroke:none"
         d="m 1854.47,3276.03 c -40.28,35.08 -55.02,113.69 -29.76,158.69 21.85,38.88 8.47,109.56 -26.5,140.03 l 9.84,11.3 c 40.29,-35.08 55.02,-113.69 29.75,-158.68 -21.85,-38.89 -8.46,-109.57 26.51,-140.04 l -9.84,-11.3" /><path
         id="path36"
         style="fill:#a12032;fill-opacity:1;fill-rule:nonzero;stroke:none"
         d="m 2023.16,3649.8 -11.76,-9.31 c 26.74,-33.81 31.42,-103.54 10.18,-141.01 l 21.17,11.44 c 14.14,43.73 6.76,105.56 -19.59,138.88" /><path
         id="path38"
         style="fill:#ffffff;fill-opacity:1;fill-rule:nonzero;stroke:none"
         d="m 2242.33,3198.96 v 0 l 0.37,-0.12 z" /><path
         id="path40"
         style="fill:#ee2536;fill-opacity:1;fill-rule:nonzero;stroke:none"
         d="m 3293.84,4100.48 c 4.32,61.45 -45.02,152.89 -99.6,184.61 l -7.53,-12.97 c 49.58,-28.81 96.1,-114.89 92.17,-170.58 -0.47,-6.64 -0.19,-13.67 0.54,-20.88 4.93,2.66 9.71,5.25 14.38,7.79 -0.2,4.13 -0.22,8.16 0.04,12.03" /><path
         id="path42"
         style="fill:#a12032;fill-opacity:1;fill-rule:nonzero;stroke:none"
         d="m 3445.76,4168.03 c -1.91,13.13 -2.06,25.79 0.14,37.04 11.27,57.37 -28.09,143.24 -79.48,173.35 l -7.59,-12.94 c 45.88,-26.89 82.4,-106.39 72.36,-157.53 -2.82,-14.36 -2.46,-30.5 0.45,-47.1 9.04,5.48 12.92,7.83 12.92,7.83 0,0 0.48,-0.26 1.2,-0.65" /><path
         id="path44"
         style="fill:#ee2536;fill-opacity:1;fill-rule:nonzero;stroke:none"
         d="m 3393.38,4161.29 c 11.41,55.74 -27.1,138.81 -77.77,167.69 l -7.43,-13.02 c 45.05,-25.69 80.62,-102.23 70.51,-151.66 -1.96,-9.55 -2.35,-19.93 -1.57,-30.67 5.16,2.8 10.05,5.45 14.55,7.89 -0.1,6.92 0.45,13.56 1.71,19.77" /><path
         id="path46"
         style="fill:#a12032;fill-opacity:1;fill-rule:nonzero;stroke:none"
         d="m 3347.38,4134.67 c 12.25,59.85 -29.76,147.72 -84.8,177.42 l -7.12,-13.2 c 49.17,-26.53 88.14,-107.88 77.22,-161.2 -1.87,-9.15 -2.34,-19.01 -1.82,-29.16 5.12,2.78 10.05,5.45 14.78,8.01 0.07,6.28 0.56,12.4 1.74,18.13" /><path
         id="path48"
         style="fill:#ee2536;fill-opacity:1;fill-rule:nonzero;stroke:none"
         d="m 3173.66,4032.9 c 6.63,56.23 -41.11,130.28 -96.37,149.49 l -4.91,-14.17 c 48.59,-16.89 92.19,-84.29 86.38,-133.56 -0.75,-6.26 -0.71,-12.77 -0.16,-19.37 4.93,2.66 9.78,5.29 14.56,7.87 -0.03,3.3 0.13,6.57 0.5,9.74" /><path
         id="path50"
         style="fill:#a12032;fill-opacity:1;fill-rule:nonzero;stroke:none"
         d="m 3011.17,4105.88 -4.03,-14.45 c 43.63,-12.1 83.22,-64.59 87.13,-110.91 4.84,2.61 9.49,5.12 14.19,7.66 -7.3,50.78 -49.52,104.44 -97.29,117.7" /><path
         id="path52"
         style="fill:#a12032;fill-opacity:1;fill-rule:nonzero;stroke:none"
         d="m 3235.27,4065.33 c 11.24,59.78 -34.88,141.99 -93.13,165.97 l -5.71,-13.87 c 51.57,-21.24 94.02,-96.6 84.1,-149.32 -2.85,-15.16 -1.98,-31.75 1.81,-48.48 4.7,2.54 9.32,5.04 13.84,7.48 -2.59,13.3 -3.14,26.35 -0.91,38.22" /><path
         id="path54"
         style="fill:#a12032;fill-opacity:1;fill-rule:nonzero;stroke:none"
         d="m 1718.59,3335.83 c 27.06,14.61 220.46,119.08 324.04,174.72 -407.58,-703.89 -21.57,-1400.17 314.3,-1452.98 -114.6,-104.31 -311.22,-174.71 -455.26,-126.79 -210.22,63.52 -639.87,697.41 -183.08,1405.05" /><path
         id="path56"
         style="fill:#ee2536;fill-opacity:1;fill-rule:nonzero;stroke:none"
         d="m 2720.38,2200.17 c 674.92,745.22 404.09,1385.88 135.09,1452.23 -36.53,3.24 -178.76,32.87 -471.84,-194.21 470.27,205.01 400.89,-684.85 288.1,-1000.59 -169.83,-461.75 -542.27,-549.65 -542.27,-549.65 0,0 227.47,-14.13 590.92,292.22" /><path
         id="path58"
         style="fill:#a12032;fill-opacity:1;fill-rule:nonzero;stroke:none"
         d="m 2589.97,3433.55 c 0,0 -160.73,-362.7 51.99,-980.85 -104.55,-268.64 -279.94,-392.17 -279.94,-392.17 0,0 -312.21,645.22 -101.67,1185.78 9.88,23.04 119.4,293.63 329.62,187.24" /><path
         id="path60"
         style="fill:#a12032;fill-opacity:1;fill-rule:nonzero;stroke:none"
         d="m 2738.57,2185.86 c 0,0 284.61,-643.03 643.07,-608.47 -111.12,-90.86 -566.35,-428.44 -973.59,382.47 202.85,100.12 330.52,226 330.52,226" /><path
         id="path62"
         style="fill:#ee2536;fill-opacity:1;fill-rule:nonzero;stroke:none"
         d="m 3446.57,4170.05 c -0.69,0.43 -1.17,0.71 -1.17,0.71 0,0 -3.99,-2.17 -13.26,-7.23 -8.58,-4.67 -21.67,-11.79 -40.47,-22.01 -4.5,-2.44 -9.39,-5.09 -14.54,-7.89 -9.35,-5.08 -19.82,-10.76 -31.49,-17.09 -4.73,-2.56 -9.66,-5.23 -14.78,-8.01 -11.34,-6.15 -23.66,-12.83 -37.06,-20.08 -4.67,-2.54 -9.45,-5.13 -14.38,-7.79 -14.01,-7.59 -29.15,-15.78 -45.35,-24.55 -4.51,-2.45 -9.14,-4.95 -13.83,-7.48 -14.8,-8.01 -30.48,-16.49 -47.08,-25.47 -4.77,-2.58 -9.63,-5.21 -14.56,-7.87 -15.89,-8.6 -32.6,-17.63 -50.14,-27.11 -4.7,-2.54 -9.35,-5.05 -14.19,-7.66 -0.19,-0.11 -0.37,-0.21 -0.56,-0.31 0.2,-0.18 0.41,-0.35 0.61,-0.53 5.07,-4.23 10.03,-8.49 15.03,-12.73 1092.84,-929.65 513.36,-2371.5 152.07,-2506.43 661.55,245.12 811.68,675.75 858,1045 157.45,1183.46 -641.31,1645.26 -672.85,1664.53" /></g></g></svg>