<svg xmlns="http://www.w3.org/2000/svg" height="96.707" width="706.667"><path d="M68.915 52.826l-5.31-12.435c-.717-1.722-1.53-4.066-1.577-4.066h-.049c-.047 0-.86 2.344-1.578 4.066l-5.309 12.435zm1.483 3.493h-16.79l-3.73 8.752h-4.21L60.21 31.59h3.587l14.541 33.481h-4.21l-3.73-8.752M104.702 61.389c6.982 0 13.009-4.88 13.009-12.867 0-8.131-6.027-13.25-13.297-13.25H94.226V61.39zm-.288-29.799c9.567 0 17.315 6.887 17.315 16.932 0 9.9-7.652 16.55-17.027 16.55H90.304V31.59h14.11M149.43 61.389c6.985 0 13.011-4.88 13.011-12.867 0-8.131-6.026-13.25-13.297-13.25h-10.188V61.39zm-.286-29.799c9.567 0 17.315 6.887 17.315 16.932 0 9.9-7.652 16.55-17.028 16.55h-14.396V31.59h14.109M179.764 65.071V31.59h3.923v33.481h-3.923M217.745 40.87c-.717-4.066-4.209-6.506-8.37-6.506-4.4 0-7.51 2.105-7.51 5.453 0 3.683 4.64 4.83 9.088 6.17 4.688 1.387 11.05 3.492 11.05 9.997 0 5.643-4.879 9.758-12.244 9.758-7.176 0-11.72-4.21-12.772-9.855l3.778-1.003c.479 3.873 3.684 7.317 9.136 7.317 4.975 0 7.988-2.63 7.988-6.122 0-4.88-5.788-5.883-10.522-7.366-3.827-1.195-9.471-2.917-9.471-8.705 0-5.214 4.927-9.088 11.623-9.088 6.074 0 10.857 3.587 11.957 8.945l-3.73 1.004M249.135 61.915c7.557 0 13.345-5.548 13.345-13.584 0-8.132-5.788-13.584-13.345-13.584-7.606 0-13.346 5.452-13.346 13.584 0 8.036 5.74 13.584 13.346 13.584zm0-30.995c9.614 0 17.41 7.318 17.41 17.41 0 10.093-7.796 17.412-17.41 17.412s-17.363-7.32-17.363-17.411c0-10.093 7.75-17.41 17.363-17.41M305.925 31.59v33.481h-3.684l-14.874-20.04c-2.871-3.97-4.975-7.032-5.023-7.032h-.048c-.048 0 .096 4.161.096 9.519V65.07h-3.923V31.59h3.683l14.876 19.993c2.535 3.396 4.975 6.888 5.023 6.888h.046c.05 0-.094-4.496-.094-9.28V31.59h3.922M364.333 61.389v3.682h-21.858V31.59h3.921v29.799h17.937M400.875 61.389v3.682H378.25V31.59h22.337v3.683h-18.415v10.331h14.78v3.492h-14.78v12.293h18.702M438.143 61.389v3.682h-22.624V31.59h22.337v3.683h-18.415v10.331h14.78v3.492h-14.78v12.293h18.702M499.184 60.097c-1.577 1.961-5.787 5.645-12.244 5.645-9.613 0-17.363-7.32-17.363-17.411 0-10.093 7.75-17.41 17.363-17.41 6.888.143 12.244 3.539 15.21 8.8l-3.97 1.004c-2.296-3.682-6.553-5.978-11.24-5.978-7.653 0-13.345 5.5-13.345 13.584 0 8.13 5.884 13.584 13.488 13.584 6.553 0 10.858-3.876 12.149-6.745V51.01h-10.235v-3.252h13.631v17.362h-3.444c0-3.922.048-4.974.048-5.022h-.048M529.033 49.096c5.359 0 8.132-2.917 8.132-6.936 0-4.256-3.013-6.887-8.132-6.887h-6.648v13.823zm8.898 15.975l-7.558-12.532c-.526.049-1.148.049-1.722.049h-6.266V65.07h-3.922V31.59h10.188c7.845 0 12.532 4.113 12.532 10.57 0 4.784-2.535 8.18-6.983 9.614l8.132 13.297h-4.401M568.652 61.915c7.557 0 13.345-5.548 13.345-13.584 0-8.132-5.788-13.584-13.345-13.584-7.605 0-13.345 5.452-13.345 13.584 0 8.036 5.74 13.584 13.345 13.584zm0-30.995c9.613 0 17.41 7.318 17.41 17.41 0 10.093-7.797 17.412-17.41 17.412-9.615 0-17.364-7.32-17.364-17.411 0-10.093 7.75-17.41 17.364-17.41M625.01 31.59V51.2c0 9.471-5.022 14.588-13.775 14.588-8.754 0-13.727-5.117-13.727-14.588V31.59h3.921v19.658c0 7.271 3.35 10.858 9.806 10.858 6.505 0 9.853-3.587 9.853-10.858V31.59h3.921M649.795 49.287c5.5 0 8.514-2.678 8.514-7.03 0-4.497-3.252-6.984-8.514-6.984h-6.266v14.014zm.096-17.697c7.748 0 12.436 4.018 12.436 10.666 0 6.65-4.688 10.714-12.436 10.714h-6.362V65.07h-3.921V31.59h10.283" fill="#231f20"/><path d="M10.667 48.354H0V.002h51.002v10.667H10.667v37.685M695.996 48.354h10.667v48.352H655.66V86.04h40.336V48.354" fill="#fee702"/></svg>