<?xml version="1.0" encoding="UTF-8" standalone="no"?>
<svg
   xmlns:dc="http://purl.org/dc/elements/1.1/"
   xmlns:cc="http://creativecommons.org/ns#"
   xmlns:rdf="http://www.w3.org/1999/02/22-rdf-syntax-ns#"
   xmlns:svg="http://www.w3.org/2000/svg"
   xmlns="http://www.w3.org/2000/svg"
   viewBox="0 0 141.39999 65.946671"
   height="65.946671"
   width="141.39999"
   xml:space="preserve"
   id="svg2"
   version="1.1"><metadata
     id="metadata8"><rdf:RDF><cc:Work
         rdf:about=""><dc:format>image/svg+xml</dc:format><dc:type
           rdf:resource="http://purl.org/dc/dcmitype/StillImage" /></cc:Work></rdf:RDF></metadata><defs
     id="defs6" /><g
     transform="matrix(1.3333333,0,0,-1.3333333,0,65.946667)"
     id="g10"><g
       transform="scale(0.1)"
       id="g12"><path
         id="path14"
         style="fill:#3581ae;fill-opacity:1;fill-rule:nonzero;stroke:none"
         d="m 430.871,275.637 h 33.25 c 13.168,0 22.313,4.687 22.313,17.859 0,14.051 -9.825,18.731 -22.313,18.731 h -33.25 z m 0,63.363 h 32.145 c 7.136,0 16.953,3.793 16.953,15.172 0,11.613 -8.262,15.418 -16.953,15.418 h -32.145 z m -41.5,62.715 h 74.527 c 27.446,0.449 57.571,-6.703 57.571,-39.957 0,-14.266 -8.473,-25.867 -20.973,-32.121 16.953,-4.903 27.442,-19.641 27.442,-37.711 0,-37.942 -27.899,-49.524 -62.024,-49.524 h -76.543 v 159.313" /><path
         id="path16"
         style="fill:#3581ae;fill-opacity:1;fill-rule:nonzero;stroke:none"
         d="m 539.465,358.207 h 36.812 v -20.309 h 0.45 c 5.582,14.715 18.527,22.528 34.816,22.528 2.898,0 6.02,-0.238 8.91,-0.875 v -34.598 c -4.902,1.344 -9.367,2.227 -14.488,2.227 -18.742,0 -28.57,-12.946 -28.57,-27.434 v -57.344 h -37.93 v 115.805" /><path
         id="path18"
         style="fill:#3581ae;fill-opacity:1;fill-rule:nonzero;stroke:none"
         d="m 632.559,358.203 h 37.918 V 242.398 h -37.918 z m 37.929,14.5 H 632.57 v 29.004 h 37.918 v -29.004" /><path
         id="path20"
         style="fill:#3581ae;fill-opacity:1;fill-rule:nonzero;stroke:none"
         d="m 762.867,333.652 h -23.429 v -52.664 c 0,-9.152 5.347,-11.133 13.605,-11.133 3.125,0 6.48,0.438 9.824,0.438 v -27.898 c -6.922,-0.235 -13.844,-1.129 -20.758,-1.129 -32.343,0 -40.601,9.375 -40.601,40.851 v 51.535 h -19.192 v 24.551 h 19.192 v 35.024 h 37.93 v -35.024 h 23.429 v -24.551" /><path
         id="path22"
         style="fill:#3581ae;fill-opacity:1;fill-rule:nonzero;stroke:none"
         d="m 774.707,358.203 h 37.93 V 242.398 h -37.93 z m 37.93,14.5 h -37.93 v 29.004 h 37.93 v -29.004" /><path
         id="path24"
         style="fill:#3581ae;fill-opacity:1;fill-rule:nonzero;stroke:none"
         d="m 860.629,280.539 c 0,-5.785 2.461,-10.027 6.246,-12.922 3.566,-2.687 8.68,-4.019 14.063,-4.019 7.359,0 17.824,3.121 17.824,12.265 0,8.918 -11.813,10.707 -18.508,12.274 -23.867,6.008 -53.766,6.703 -53.766,37.941 0,27.883 30.114,35.469 52.871,35.469 25.442,0 51.996,-7.363 53.348,-37.484 h -35.023 c 0,4.914 -1.821,8.035 -4.946,10.039 -3.097,2.011 -7.347,2.894 -12.039,2.894 -6.25,0 -16.277,-0.656 -16.277,-8.711 0,-10.914 25.433,-12.926 42.82,-16.719 23.449,-4.687 29.473,-21.652 29.473,-31.238 0,-31.015 -29.473,-41.277 -55.567,-41.277 -27.433,0 -55.562,9.152 -56.671,41.488 h 36.152" /><path
         id="path26"
         style="fill:#3581ae;fill-opacity:1;fill-rule:nonzero;stroke:none"
         d="m 945.141,401.711 h 37.961 v -59.359 h 0.425 c 5.797,11.816 21.423,19.187 35.243,19.187 38.61,0 41.75,-28.105 41.75,-44.844 v -74.297 h -37.95 v 56.012 c 0,15.82 1.78,31.891 -18.96,31.891 -14.286,0 -20.508,-12.051 -20.508,-24.762 v -63.141 h -37.961 v 159.313" /><path
         id="path28"
         style="fill:#3581ae;fill-opacity:1;fill-rule:nonzero;stroke:none"
         d="m 389.387,212.434 h 41.488 V 88.8242 h 74.316 V 53.1211 H 389.387 V 212.434" /><path
         id="path30"
         style="fill:#3581ae;fill-opacity:1;fill-rule:nonzero;stroke:none"
         d="m 570.805,73.1875 c 18.066,0 24.097,10.2734 23.207,34.1485 -5.364,-3.344 -15.176,-4.027 -23.446,-6.231 -8.468,-2.0152 -15.605,-5.5933 -15.605,-14.7456 0,-9.3672 7.352,-13.1719 15.844,-13.1719 m -49.086,60.0275 c 0.668,15.164 7.797,25 18.058,31.019 10.27,5.809 23.664,8.036 36.825,8.036 27.445,0 54.007,-6.032 54.007,-38.821 V 82.7852 c 0,-9.8086 0,-20.5079 4.442,-29.6602 h -38.133 c -1.34,3.5586 -1.801,7.1289 -2.246,10.9219 -9.805,-10.25 -24.317,-14.2774 -38.156,-14.2774 -22.086,0 -39.485,11.1563 -39.485,35.0196 0,37.7189 41.063,34.8199 67.367,40.1719 6.489,1.34 10.059,3.578 10.059,10.707 0,8.703 -10.504,12.051 -18.305,12.051 -10.484,0 -17.179,-4.668 -18.964,-14.504 h -35.469" /><path
         id="path32"
         style="fill:#3581ae;fill-opacity:1;fill-rule:nonzero;stroke:none"
         d="m 646.887,168.93 h 36.816 v -15.844 h 0.434 c 6.914,11.824 22.547,19.18 36.375,19.18 38.601,0 41.734,-28.11 41.734,-44.848 V 53.125 h -37.941 v 55.988 c 0,15.844 1.8,31.903 -18.953,31.903 -14.301,0 -20.532,-12.039 -20.532,-24.75 V 53.125 H 646.887 V 168.93" /><path
         id="path34"
         style="fill:#3581ae;fill-opacity:1;fill-rule:nonzero;stroke:none"
         d="m 813.113,112.25 c 0,-15.8359 5.797,-33.4687 23.184,-33.4687 18.539,0 22.558,17.6328 22.558,32.3357 0,16.754 -6.023,32.137 -22.558,32.137 -17.387,0 -23.184,-16.281 -23.184,-31.004 m 82.34,-59.1289 h -36.152 v 13.3867 h -0.446 C 851.5,55.5781 840.313,49.7813 826.941,49.7813 c -36.375,0 -51.757,31.2148 -51.757,63.7967 0,30.133 16.066,58.688 48.847,58.688 14.301,0 25.242,-5.348 33.032,-15.832 h 0.46 v 56 h 37.93 V 53.1211" /><path
         id="path36"
         style="fill:#3581ae;fill-opacity:1;fill-rule:nonzero;stroke:none"
         d="m 335.465,92.8438 c -15.75,-4.8243 -35.758,-12.4532 -69.235,-23.2969 7.305,27.9375 11.379,68.0471 8.836,110.8201 -14.691,2.082 -30.515,6.028 -37.847,9.117 3.183,-65.804 -10.656,-130.9293 -15.055,-133.3317 0,0 -52.684,-18.0976 -112.973,-14.5664 C 73.7266,43.6602 34.9336,53.8555 2.0625,77.7695 L 0,38.793 C 10.25,29.8242 59.1563,0.046875 111.441,0.046875 174.258,-0.976563 227.289,15.5195 278.629,32.7148 c 37.187,12.461 56.836,19.7891 56.836,19.7891 0,0 0,13.0508 0,40.3399" /><path
         id="path38"
         style="fill:#3581ae;fill-opacity:1;fill-rule:nonzero;stroke:none"
         d="M 28.1055,156.949 C 21.6523,151.57 15.5977,144.496 11.1953,135.48 5.14453,123.082 3.40625,106.324 2.91406,97.0703 30.8281,78.3945 76.0195,60.5195 127.594,60.5664 99.5781,73.1992 58.4336,101.672 28.1055,156.949" /><path
         id="path40"
         style="fill:#3581ae;fill-opacity:1;fill-rule:nonzero;stroke:none"
         d="m 154.32,62.0039 c 0,0 22.106,1.9336 47.078,8.0195 -46.082,8.9805 -112.4566,49.2816 -149.3902,99.6216 -0.1328,-0.04 -0.2734,-0.079 -0.4023,-0.114 -4.8516,-1.308 -10.5547,-3.718 -16.2969,-7.343 C 51.1289,136.094 83.3789,94.7188 154.32,62.0039" /><path
         id="path42"
         style="fill:#3581ae;fill-opacity:1;fill-rule:nonzero;stroke:none"
         d="m 290.031,111.188 c 0.824,0 16.946,14.687 32.864,41.371 -7.45,9.644 -17.895,17.98 -30.497,23.113 1.407,-20.344 1.575,-39.766 -2.367,-64.484" /><path
         id="path44"
         style="fill:#3581ae;fill-opacity:1;fill-rule:nonzero;stroke:none"
         d="m 288.34,96.0078 c 9.578,3.2031 30.734,10.2892 47.125,15.2852 0,2.758 0,5.602 0,8.555 0,4.664 -0.914,9.297 -2.356,13.722 -0.98,3.016 -2.226,5.946 -3.679,8.762 -10.715,-17.223 -24.184,-33.469 -41.09,-46.3242" /><path
         id="path46"
         style="fill:#3581ae;fill-opacity:1;fill-rule:nonzero;stroke:none"
         d="m 213.117,89.7891 c 0.817,2.2578 1.371,4.6132 1.871,6.957 0.696,3.2659 1.25,6.5629 1.746,9.8629 0.606,4.016 1.118,8.047 1.571,12.082 0.511,4.536 0.953,9.075 1.34,13.622 0.406,4.82 0.753,9.648 1.046,14.476 0.293,4.883 0.528,9.766 0.7,14.652 0.164,4.715 0.265,9.43 0.293,14.145 0.023,4.316 -0.02,8.637 -0.168,12.953 -0.34,9.852 -1.993,19.699 0.902,29.402 1.742,5.836 4.508,11.438 8.227,16.27 3.66,4.746 9.105,9.336 15.355,9.703 17.648,1.043 37.77,-5.711 42.277,3.129 4.25,8.344 1.047,13.77 0.325,16.43 -2.168,5.277 3.738,8.586 3.738,8.586 4.637,3.89 -0.891,8.062 -0.891,8.062 9.641,2.848 4.489,8.524 4.489,8.524 -1.954,2.507 -2.168,8.921 -2.168,8.921 0,0 3.652,2.821 9.25,5.981 3.23,1.82 4.386,5.902 -0.836,11.129 -14.344,15.605 -17.993,23.254 -17.993,23.254 -0.859,1.722 -0.656,3.695 0.961,4.656 1.621,0.961 2.051,1.105 2.172,2.426 1.668,21.07 -8.941,40.621 -16.605,50.371 2.465,1.887 5.027,1.754 5.027,1.754 -6.668,7.207 -13.996,12.101 -23.609,16.676 21.121,14.214 25.051,41.027 25.051,41.027 3.835,19.289 22.375,33.269 22.375,33.269 -48.715,6.34 -71.958,-3.543 -71.958,-3.543 -1.363,5.196 2.211,10.079 2.211,10.079 -52.726,-7.637 -65.367,-26.02 -65.961,-26.766 -3.003,3.238 -4.664,9.215 -4.664,9.215 -20.687,-23.11 -27.898,-40.231 -31.449,-50.699 -3.265,2.101 -6.226,5.574 -6.226,5.574 -11.684,-30.485 -11.832,-49.992 -11.164,-60.739 -3.985,0.469 -8.383,3.09 -8.383,3.09 1.82,-28.707 7.273,-46.375 12.023,-56.668 -3.765,-0.636 -7.215,0.762 -7.215,0.762 2.723,-6.672 5.661,-13.262 8.907,-19.695 2.589,-5.125 5.371,-10.156 8.445,-15.008 2.371,-3.734 4.91,-7.367 7.726,-10.781 0.872,-1.055 1.762,-2.09 2.696,-3.09 1.801,-1.918 3.832,-3.555 5.715,-5.383 3.859,-3.746 5.343,-9.398 5.675,-14.656 3.09,-40.297 -40.035,-62.192 -70.6168,-73.008 C 137.09,111.723 206.336,90.4688 213.117,89.7891" /></g></g></svg>