<svg xmlns="http://www.w3.org/2000/svg" viewBox="0 0 141.39999 65.946671" height="65.947" width="141.4"><g fill="#3581ae"><path d="M57.45 29.195h4.433c1.756 0 2.975-.625 2.975-2.381 0-1.874-1.31-2.498-2.975-2.498h-4.434zm0-8.448h4.285c.952 0 2.26-.506 2.26-2.023 0-1.549-1.1-2.056-2.26-2.056H57.45zm-5.534-8.362h9.937c3.66-.06 7.676.893 7.676 5.327 0 1.902-1.13 3.45-2.796 4.283 2.26.654 3.659 2.619 3.659 5.028 0 5.06-3.72 6.603-8.27 6.603H51.916V12.385M71.929 18.186h4.908v2.708h.06c.744-1.962 2.47-3.004 4.642-3.004.386 0 .803.032 1.188.117v4.613c-.654-.18-1.249-.297-1.932-.297-2.499 0-3.809 1.726-3.809 3.658v7.645h-5.057v-15.44M84.341 18.186h5.056v15.44H84.34zm5.057-1.933h-5.055v-3.867h5.055v3.867M101.716 21.46h-3.124v7.022c0 1.22.713 1.484 1.814 1.484.416 0 .864-.058 1.31-.058v3.72c-.923.03-1.846.15-2.768.15-4.313 0-5.414-1.25-5.414-5.447V21.46h-2.559v-3.274h2.56v-4.67h5.057v4.67h3.124v3.274M103.294 18.186h5.058v15.44h-5.058zm5.058-1.933h-5.058v-3.867h5.058v3.867M114.75 28.541c0 .772.329 1.337.833 1.723.476.359 1.158.536 1.875.536.982 0 2.377-.416 2.377-1.635 0-1.19-1.575-1.428-2.468-1.637-3.182-.8-7.169-.893-7.169-5.058 0-3.718 4.016-4.73 7.05-4.73 3.392 0 6.933.982 7.113 4.998h-4.67c0-.655-.243-1.071-.66-1.338-.412-.268-.979-.386-1.604-.386-.834 0-2.17.087-2.17 1.161 0 1.456 3.39 1.724 5.709 2.23 3.126.624 3.93 2.886 3.93 4.165 0 4.135-3.93 5.503-7.41 5.503-3.657 0-7.408-1.22-7.556-5.532h4.82M126.019 12.385h5.061V20.3h.057c.773-1.576 2.856-2.559 4.699-2.559 5.148 0 5.567 3.748 5.567 5.98v9.906h-5.06v-7.468c0-2.11.237-4.252-2.528-4.252-1.905 0-2.735 1.606-2.735 3.301v8.419h-5.061V12.385M51.918 37.622h5.532v16.481h9.909v4.76h-15.44v-21.24M76.107 56.188c2.41 0 3.213-1.37 3.095-4.553-.716.446-2.024.537-3.127.831-1.129.269-2.08.746-2.08 1.966 0 1.249.98 1.756 2.112 1.756m-6.544-8.003c.089-2.022 1.04-3.334 2.407-4.136 1.37-.775 3.155-1.072 4.91-1.072 3.66 0 7.201.805 7.201 5.176v6.756c0 1.307 0 2.734.592 3.954H79.59c-.179-.474-.24-.95-.3-1.456-1.307 1.367-3.242 1.904-5.087 1.904-2.945 0-5.265-1.488-5.265-4.67 0-5.029 5.476-4.642 8.983-5.356.865-.178 1.34-.477 1.34-1.427 0-1.16-1.4-1.607-2.44-1.607-1.398 0-2.29.622-2.528 1.934h-4.73M86.252 43.423h4.908v2.112h.058c.922-1.576 3.007-2.557 4.85-2.557 5.147 0 5.565 3.748 5.565 5.98v9.905h-5.059v-7.465c0-2.112.24-4.253-2.527-4.253-1.907 0-2.738 1.605-2.738 3.3v8.418h-5.057v-15.44M108.415 50.98c0 2.111.773 4.462 3.091 4.462 2.472 0 3.008-2.35 3.008-4.31 0-2.235-.803-4.286-3.008-4.286-2.318 0-3.09 2.17-3.09 4.134m10.978 7.884h-4.82v-1.785h-.06c-.98 1.457-2.472 2.23-4.255 2.23-4.85 0-6.901-4.162-6.901-8.506 0-4.018 2.142-7.825 6.513-7.825 1.907 0 3.365.713 4.404 2.11h.061v-7.466h5.058v21.242M44.729 53.567c-2.1.644-4.768 1.66-9.232 3.107.974-3.725 1.518-9.073 1.178-14.776-1.958-.278-4.068-.804-5.046-1.216.425 8.774-1.42 17.457-2.007 17.778 0 0-7.025 2.413-15.063 1.942-4.729-.277-9.901-1.636-14.284-4.825L0 60.774c1.367 1.196 7.888 5.166 14.859 5.166 8.375.137 15.446-2.063 22.292-4.355 4.958-1.662 7.578-2.639 7.578-2.639v-5.379"/><path d="M3.747 45.02a8.677 8.677 0 0 0-2.254 2.863C.686 49.536.454 51.77.389 53.004c3.721 2.49 9.747 4.873 16.624 4.867-3.736-1.684-9.222-5.48-13.266-12.85"/><path d="M20.576 57.68s2.947-.258 6.277-1.07C20.71 55.413 11.86 50.04 6.934 43.327l-.053.016a8.13 8.13 0 0 0-2.173.979c2.11 3.479 6.41 8.995 15.868 13.357M38.67 51.122c.11 0 2.26-1.959 4.383-5.517a9.864 9.864 0 0 0-4.067-3.081c.188 2.712.21 5.302-.315 8.598M38.445 53.146c1.277-.427 4.098-1.372 6.284-2.038v-1.141a5.93 5.93 0 0 0-.314-1.83 7.828 7.828 0 0 0-.491-1.168c-1.429 2.296-3.225 4.463-5.479 6.177M28.416 53.975c.109-.301.182-.615.25-.928.092-.435.166-.875.232-1.315.08-.535.149-1.073.21-1.61.067-.606.126-1.21.178-1.817a82.647 82.647 0 0 0 .233-3.884c.022-.628.035-1.257.039-1.886a43.623 43.623 0 0 0-.023-1.727c-.045-1.313-.265-2.626.12-3.92a6.718 6.718 0 0 1 1.098-2.17c.488-.632 1.214-1.244 2.047-1.293 2.353-.14 5.036.761 5.637-.417.567-1.113.14-1.836.043-2.191-.289-.704.499-1.145.499-1.145.618-.519-.12-1.075-.12-1.075 1.286-.38.6-1.136.6-1.136-.261-.335-.29-1.19-.29-1.19s.487-.376 1.234-.797c.43-.243.584-.787-.112-1.484-1.912-2.08-2.399-3.1-2.399-3.1-.114-.23-.087-.493.128-.621.216-.129.274-.148.29-.324.222-2.81-1.192-5.416-2.214-6.716.329-.252.67-.234.67-.234-.889-.96-1.866-1.613-3.148-2.223 2.816-1.896 3.34-5.47 3.34-5.47.512-2.573 2.984-4.437 2.984-4.437-6.496-.845-9.595.473-9.595.473-.181-.693.295-1.344.295-1.344-7.03 1.018-8.715 3.47-8.795 3.569-.4-.432-.622-1.229-.622-1.229-2.758 3.081-3.72 5.364-4.193 6.76-.435-.28-.83-.743-.83-.743-1.558 4.064-1.577 6.665-1.488 8.098-.532-.062-1.118-.412-1.118-.412.243 3.828.97 6.184 1.603 7.556-.502.085-.962-.102-.962-.102.363.89.755 1.769 1.188 2.626.345.684.716 1.355 1.126 2.002.316.497.654.982 1.03 1.437.116.14.235.279.36.412.24.256.51.474.761.718.515.5.713 1.253.757 1.954.412 5.373-5.338 8.292-9.416 9.734 8.236 8.676 17.468 11.51 18.373 11.6"/></g></svg>