<svg xmlns="http://www.w3.org/2000/svg" viewBox="0 0 283.46667 147.67999" height="147.68" width="283.467"><path d="M0-.001V147.68h283.465V-.001H0" fill="#000001"/><path d="M69.62 89.679c0 1.561 1.107 2.837 2.633 2.837.98 0 1.606-.4 2.29-1.038l.9.912c-.831.867-1.742 1.413-3.236 1.413-2.324 0-4.056-1.834-4.056-4.124 0-2.269 1.698-4.124 4.113-4.124 1.47 0 2.36.511 3.122 1.241l-.9 1.036c-.638-.591-1.322-.991-2.233-.991-1.526 0-2.632 1.276-2.632 2.838m11.319-4.006h1.406l.005 7.975h-1.41v-7.975m9.001 1.298h-2.529v-1.298h6.472v1.298h-2.53v6.677h-1.413v-6.677m37.108-1.298h5.937v1.298h-4.513v2.154h3.867v1.299h-3.867v3.224h-1.425v-7.975m39.947 0h1.299l4.273 5.514v-5.514h1.377v7.975h-1.172l-4.398-5.673v5.673h-1.379v-7.975m18.227 4.011c0-1.56-1.094-2.713-2.768-2.713H180.9v5.379h1.554c1.674 0 2.768-1.106 2.768-2.666zm1.47-.023c0 2.24-1.732 3.987-4.238 3.987h-2.975v-7.975h2.975c2.506 0 4.238 1.748 4.238 3.988m-85.342-.456l2.272-3.532h1.607l-3.168 4.797v3.178h-1.428V90.47l-3.153-4.797h1.607l2.263 3.532m16.418 3.311c-1.49 0-2.698-1.27-2.698-2.838 0-1.567 1.208-2.837 2.698-2.837 1.489 0 2.697 1.27 2.697 2.837 0 1.568-1.208 2.838-2.697 2.838zm0-6.96c-2.3 0-4.165 1.845-4.165 4.123 0 2.278 1.864 4.124 4.165 4.124 2.3 0 4.165-1.846 4.165-4.124 0-2.278-1.865-4.124-4.165-4.124m27.361 6.795h4.191v1.298h-5.617v-7.975h1.425v6.677m12.503.173c-1.49 0-2.699-1.269-2.699-2.837 0-1.566 1.208-2.838 2.699-2.838 1.49 0 2.696 1.272 2.696 2.838 0 1.568-1.207 2.837-2.696 2.837zm0-6.96c-2.3 0-4.165 1.847-4.165 4.124 0 2.277 1.865 4.124 4.165 4.124s4.165-1.847 4.165-4.124c0-2.277-1.865-4.125-4.165-4.125m47.441.102h1.298l4.273 5.515v-5.515h1.38v7.977h-1.173l-4.399-5.674v5.674h-1.379v-7.977m-9.365 6.852c-1.49 0-2.696-1.27-2.696-2.837 0-1.568 1.207-2.838 2.696-2.838 1.49 0 2.699 1.27 2.699 2.838 0 1.567-1.208 2.837-2.699 2.837zm0-6.96c-2.299 0-4.165 1.846-4.165 4.123 0 2.278 1.866 4.124 4.165 4.124 2.301 0 4.167-1.846 4.167-4.124 0-2.277-1.866-4.124-4.167-4.124" fill="#a7a5a6"/><path d="M224.695 56.5h-7.871v-2.223h18.25V56.5h-7.869v19.757h-2.51V56.5m-39.835 1.621c-3.144-3.332-6.65-4.281-9.77-4.228-6.398.109-11.191 5.145-11.191 11.372 0 6.28 5.01 11.372 11.19 11.372 6.184 0 11.192-5.091 11.192-11.372v-1.3h-11.184v2.213s8.598-.008 8.596.001c-.454 4.567-4.126 8.168-8.589 8.168-4.77 0-8.635-4.063-8.635-9.08 0-5.015 3.746-8.982 8.635-9.082 4.395-.089 6.856 2.4 8.16 3.8.583-.682 1.185-1.397 1.596-1.864M37.1 74.034h-8.73v-7.849h8.73c3.462 0 4.603 2.353 4.603 3.92 0 1.57-1.167 3.929-4.603 3.929zM28.369 56.5h7.795c3.144 0 4.18 2.236 4.18 3.728 0 1.493-1.06 3.737-4.18 3.737h-7.795zm11.12 8.238c1.607-.566 3.36-2.272 3.36-4.8 0-3.446-2.713-5.672-6.685-5.66l-10.247-.002v21.98h11.185c4.21.012 7.113-2.351 7.113-5.984 0-2.665-1.651-4.71-4.726-5.534m16.031-.771V56.5h7.795c3.143 0 4.18 2.237 4.18 3.728 0 1.492-1.06 3.738-4.18 3.738zm9.787 1.998C67.945 65.248 70 63.41 70 60.23c0-3.73-2.714-5.963-6.685-5.952H53.067v21.98h2.49V66.185h7.111l5.723 10.072h2.784s-5.014-8.747-5.868-10.292m23.717 8.385c-4.77 0-8.635-4.064-8.635-9.08s3.866-9.082 8.635-9.082c4.77 0 8.636 4.066 8.636 9.082 0 5.016-3.866 9.08-8.636 9.08zm-.012-20.454c-6.182 0-11.193 5.09-11.193 11.371 0 6.281 5.01 11.373 11.193 11.373 6.182 0 11.216-5.092 11.216-11.373 0-6.28-5.034-11.371-11.216-11.371m23.011 14.344l5.585-9.864 5.584 9.863zm5.585-14.384l-12.782 22.4h2.67l3.28-5.806h13.664l3.279 5.807h2.67l-12.78-22.401m27.772 20.178h-5.946V56.5h5.946c5.556 0 9.106 3.897 9.106 8.767 0 4.868-3.55 8.767-9.106 8.767zm0-19.757h-8.397v21.98h8.397c6.907 0 11.646-4.803 11.646-10.99 0-6.19-4.739-10.99-11.646-10.99m52.655 13.96l5.585-9.863 5.584 9.863zm5.585-14.384L190.84 76.254h2.67l3.28-5.806h13.664l3.278 5.806h2.672l-12.782-22.4m53.559.423l-15.688-.001v21.98h16.055v-2.222h-13.603v-7.849h11.247v-2.22h-11.247V56.5h13.236v-2.223" fill="#fff"/></svg>