<svg xmlns="http://www.w3.org/2000/svg" height="73.307" width="745.333"><path d="M701.612 72.494h43.721V56.547h-27.828V44.42h21.868V28.877h-21.868V16.76h27.828V.815h-43.721zm-66.3 0h15.908V16.76h16.99V.815h-49.798V16.76h16.9zm-75.535-24.229l6.655-14.939 6.657 14.94zm-28.125 24.229h16.695l5.069-11.109h26.035l5.068 11.109h16.709L566.432.004zm-52.88.812c11.933 0 22.06-3.638 29.025-11.713V29.08H482.15l-6.76 15.147h17.006v9.997c-3.484 2.514-7.858 3.525-13.623 3.525-11.432 0-20.076-9.586-20.076-21.096 0-11.507 8.644-21.106 20.076-21.106 7.559 0 12.23 2.53 16.5 7.987l12.023-9.998C500.444 4.957 490.899.004 478.772.004c-19.881 0-36.087 16.46-36.087 36.65 0 20.191 16.206 36.652 36.087 36.652m-124.341-.812h24.744c19.881 0 35.892-16.047 35.892-35.84 0-19.79-16.011-35.84-35.892-35.84H354.43zm15.905-14.744V15.548h8.839c11.83 0 19.881 9.599 19.881 21.106 0 11.51-8.05 21.096-19.881 21.096zm-85.88-9.485l6.668-14.939 6.657 14.94zm-28.125 24.229h16.693l5.07-11.109h26.047l5.071 11.109h16.695L291.124.004zm-55.863.812c19.881 0 36.084-16.46 36.084-36.652 0-20.19-16.203-36.65-36.084-36.65-19.865 0-36.07 16.46-36.07 36.65 0 20.191 16.205 36.652 36.07 36.652m0-15.556c-11.43 0-20.073-9.586-20.073-21.096 0-11.507 8.644-21.106 20.073-21.106 11.43 0 20.088 9.599 20.088 21.106 0 11.51-8.657 21.096-20.088 21.096m-97.995-27.957V15.548h8.94c4.284 0 7.355 3.24 7.355 7.174s-3.071 7.07-7.355 7.07zm22.06 42.7h18.991L120.559 42.1c8.154-3.225 13.624-11.005 13.624-19.984 0-11.715-9.443-21.3-20.977-21.3h-26.64v71.679h15.907V43.415h.193zm-108.628-42.7V15.548h8.839c4.283 0 7.353 3.24 7.353 7.174s-3.07 7.07-7.353 7.07zm0 27.865V43.415H29.62c4.27 0 7.353 3.24 7.353 7.172 0 3.936-3.084 7.07-7.353 7.07zM0 72.494h31.104c11.935 0 21.378-9.494 21.378-21.299 0-7.677-3.973-13.534-9.946-16.759 3.082-3.136 4.979-7.276 4.979-12.32C47.514 10.4 38.071.814 26.537.814H0v71.679" fill="#231f20"/></svg>