<?xml version="1.0" encoding="UTF-8" standalone="no"?>
<svg
   xmlns:dc="http://purl.org/dc/elements/1.1/"
   xmlns:cc="http://creativecommons.org/ns#"
   xmlns:rdf="http://www.w3.org/1999/02/22-rdf-syntax-ns#"
   xmlns:svg="http://www.w3.org/2000/svg"
   xmlns="http://www.w3.org/2000/svg"
   viewBox="0 0 283.46667 147.67999"
   height="147.67999"
   width="283.46667"
   xml:space="preserve"
   id="svg2"
   version="1.1"><metadata
     id="metadata8"><rdf:RDF><cc:Work
         rdf:about=""><dc:format>image/svg+xml</dc:format><dc:type
           rdf:resource="http://purl.org/dc/dcmitype/StillImage" /></cc:Work></rdf:RDF></metadata><defs
     id="defs6" /><g
     transform="matrix(1.3333333,0,0,-1.3333333,0,147.68)"
     id="g10"><g
       transform="scale(0.1)"
       id="g12"><path
         id="path14"
         style="fill:#000001;fill-opacity:1;fill-rule:nonzero;stroke:none"
         d="M 0,1107.61 V 0 H 2125.99 V 1107.61 H 0" /><path
         id="path16"
         style="fill:#a7a5a6;fill-opacity:1;fill-rule:nonzero;stroke:none"
         d="m 522.156,435.008 c 0,-11.711 8.293,-21.281 19.739,-21.281 7.351,0 12.05,3 17.183,7.785 l 6.75,-6.84 c -6.238,-6.496 -13.074,-10.598 -24.273,-10.598 -17.434,0 -30.422,13.762 -30.422,30.934 0,17.015 12.734,30.933 30.847,30.933 11.028,0 17.7,-3.839 23.418,-9.312 l -6.746,-7.77 c -4.789,4.434 -9.922,7.434 -16.757,7.434 -11.446,0 -19.739,-9.57 -19.739,-21.285" /><path
         id="path18"
         style="fill:#a7a5a6;fill-opacity:1;fill-rule:nonzero;stroke:none"
         d="m 607.051,465.055 h 10.547 l 0.031,-59.817 h -10.578 v 59.817" /><path
         id="path20"
         style="fill:#a7a5a6;fill-opacity:1;fill-rule:nonzero;stroke:none"
         d="m 674.563,455.316 h -18.965 v 9.739 h 48.539 v -9.739 H 685.16 v -50.078 h -10.597 v 50.078" /><path
         id="path22"
         style="fill:#a7a5a6;fill-opacity:1;fill-rule:nonzero;stroke:none"
         d="m 952.871,465.055 h 44.531 v -9.739 h -33.847 v -16.152 h 29.004 v -9.742 h -29.004 v -24.184 h -10.684 v 59.817" /><path
         id="path24"
         style="fill:#a7a5a6;fill-opacity:1;fill-rule:nonzero;stroke:none"
         d="m 1252.47,465.055 h 9.74 l 32.05,-41.36 v 41.36 h 10.33 v -59.817 h -8.79 l -32.99,42.551 v -42.551 h -10.34 v 59.817" /><path
         id="path26"
         style="fill:#a7a5a6;fill-opacity:1;fill-rule:nonzero;stroke:none"
         d="m 1389.17,434.973 c 0,11.703 -8.2,20.343 -20.76,20.343 h -11.65 v -40.339 h 11.65 c 12.56,0 20.76,8.296 20.76,19.996 z m 11.03,0.172 c 0,-16.797 -12.99,-29.907 -31.79,-29.907 h -22.31 v 59.817 h 22.31 c 18.8,0 31.79,-13.11 31.79,-29.91" /><path
         id="path28"
         style="fill:#a7a5a6;fill-opacity:1;fill-rule:nonzero;stroke:none"
         d="m 760.133,438.563 17.039,26.492 h 12.051 l -23.758,-35.977 v -23.84 h -10.707 v 23.84 l -23.649,35.977 h 12.051 l 16.973,-26.492" /><path
         id="path30"
         style="fill:#a7a5a6;fill-opacity:1;fill-rule:nonzero;stroke:none"
         d="m 883.266,413.727 c -11.172,0 -20.231,9.531 -20.231,21.285 0,11.754 9.059,21.281 20.231,21.281 11.168,0 20.23,-9.527 20.23,-21.281 0,-11.754 -9.062,-21.285 -20.23,-21.285 z m 0,52.207 c -17.254,0 -31.235,-13.84 -31.235,-30.926 0,-17.086 13.981,-30.934 31.235,-30.934 17.254,0 31.238,13.848 31.238,30.934 0,17.086 -13.984,30.926 -31.238,30.926" /><path
         id="path32"
         style="fill:#a7a5a6;fill-opacity:1;fill-rule:nonzero;stroke:none"
         d="m 1088.47,414.977 h 31.44 v -9.739 h -42.13 v 59.817 h 10.69 v -50.078" /><path
         id="path34"
         style="fill:#a7a5a6;fill-opacity:1;fill-rule:nonzero;stroke:none"
         d="m 1182.24,413.676 c -11.18,0 -20.24,9.519 -20.24,21.277 0,11.75 9.06,21.285 20.24,21.285 11.17,0 20.22,-9.535 20.22,-21.285 0,-11.758 -9.05,-21.277 -20.22,-21.277 z m 0,52.207 c -17.25,0 -31.24,-13.856 -31.24,-30.938 0,-17.078 13.99,-30.929 31.24,-30.929 17.25,0 31.24,13.851 31.24,30.929 0,17.082 -13.99,30.938 -31.24,30.938" /><path
         id="path36"
         style="fill:#a7a5a6;fill-opacity:1;fill-rule:nonzero;stroke:none"
         d="m 1538.05,465.121 h 9.73 l 32.05,-41.367 v 41.367 h 10.35 v -59.832 h -8.8 l -32.99,42.555 v -42.555 h -10.34 v 59.832" /><path
         id="path38"
         style="fill:#a7a5a6;fill-opacity:1;fill-rule:nonzero;stroke:none"
         d="m 1467.81,413.727 c -11.17,0 -20.22,9.531 -20.22,21.281 0,11.758 9.05,21.285 20.22,21.285 11.18,0 20.24,-9.527 20.24,-21.285 0,-11.75 -9.06,-21.281 -20.24,-21.281 z m 0,52.207 c -17.24,0 -31.24,-13.852 -31.24,-30.93 0,-17.082 14,-30.93 31.24,-30.93 17.26,0 31.25,13.848 31.25,30.93 0,17.078 -13.99,30.93 -31.25,30.93" /><path
         id="path40"
         style="fill:#ffffff;fill-opacity:1;fill-rule:nonzero;stroke:none"
         d="m 1685.21,683.852 h -59.03 v 16.668 h 136.88 v -16.668 h -59.02 V 535.676 h -18.83 v 148.176" /><path
         id="path42"
         style="fill:#ffffff;fill-opacity:1;fill-rule:nonzero;stroke:none"
         d="m 1386.45,671.691 c -23.58,24.993 -49.88,32.11 -73.28,31.715 -47.98,-0.82 -83.93,-38.593 -83.93,-85.293 0,-47.105 37.58,-85.293 83.93,-85.293 46.38,0 83.94,38.188 83.94,85.293 0,3.184 0,9.746 0,9.746 l -83.88,0.004 v -16.601 c 0,0 64.48,0.062 64.47,-0.008 -3.41,-34.25 -30.95,-61.258 -64.42,-61.258 -35.78,0 -64.76,30.477 -64.76,68.098 0,37.617 28.09,67.367 64.76,68.117 32.96,0.668 51.42,-18 61.2,-28.504 4.37,5.117 8.89,10.484 11.97,13.984" /><path
         id="path44"
         style="fill:#ffffff;fill-opacity:1;fill-rule:nonzero;stroke:none"
         d="m 278.254,552.348 h -65.488 v 58.863 h 65.488 c 25.969,0 34.527,-17.645 34.527,-29.402 0,-11.774 -8.75,-29.461 -34.527,-29.461 z m -65.496,131.504 h 58.465 c 23.582,0 31.343,-16.774 31.343,-27.965 0,-11.192 -7.941,-28.028 -31.343,-28.028 h -58.465 z m 83.402,-61.786 c 12.055,4.247 25.207,17.039 25.207,35.993 0,25.851 -20.351,42.543 -50.144,42.461 l -76.852,0.011 V 535.676 h 83.883 c 31.574,-0.086 53.348,17.64 53.348,44.883 0,19.988 -12.383,35.324 -35.442,41.507" /><path
         id="path46"
         style="fill:#ffffff;fill-opacity:1;fill-rule:nonzero;stroke:none"
         d="m 416.395,627.848 v 55.992 h 58.468 c 23.575,0 31.348,-16.774 31.348,-27.961 0,-11.188 -7.949,-28.031 -31.348,-28.031 z m 73.406,-14.989 c 19.785,5.379 35.199,19.176 35.199,43.02 0,27.973 -20.352,44.723 -50.137,44.641 H 398.004 V 535.668 l 18.672,0.008 v 75.535 h 53.336 l 42.918,-75.535 h 20.883 c 0,0 -37.602,65.597 -44.012,77.183" /><path
         id="path48"
         style="fill:#ffffff;fill-opacity:1;fill-rule:nonzero;stroke:none"
         d="m 667.68,549.973 c -35.77,0 -64.766,30.48 -64.766,68.101 0,37.621 28.996,68.114 64.766,68.114 35.773,0 64.769,-30.493 64.769,-68.114 0,-37.621 -28.996,-68.101 -64.769,-68.101 z m -0.09,153.41 c -46.367,0 -83.945,-38.184 -83.945,-85.289 0,-47.106 37.578,-85.293 83.945,-85.293 46.363,0 84.121,38.187 84.121,85.293 0,47.105 -37.758,85.289 -84.121,85.289" /><path
         id="path50"
         style="fill:#ffffff;fill-opacity:1;fill-rule:nonzero;stroke:none"
         d="m 840.172,595.805 41.891,73.972 41.878,-73.972 z M 882.063,703.68 786.195,535.676 h 20.028 l 24.597,43.547 h 102.477 l 24.594,-43.547 h 20.031 L 882.063,703.68" /><path
         id="path52"
         style="fill:#ffffff;fill-opacity:1;fill-rule:nonzero;stroke:none"
         d="m 1090.36,552.348 h -44.6 v 131.504 h 44.6 c 41.67,0 68.29,-29.231 68.29,-65.754 0,-36.508 -26.62,-65.75 -68.29,-65.75 z m 0,148.172 h -62.98 V 535.676 h 62.98 c 51.8,0 87.34,36.019 87.34,82.422 0,46.418 -35.54,82.422 -87.34,82.422" /><path
         id="path54"
         style="fill:#ffffff;fill-opacity:1;fill-rule:nonzero;stroke:none"
         d="m 1485.27,595.824 41.89,73.973 41.88,-73.973 z m 41.89,107.875 -95.87,-168.004 h 20.03 l 24.6,43.547 h 102.48 l 24.58,-43.547 h 20.04 l -95.86,168.004" /><path
         id="path56"
         style="fill:#ffffff;fill-opacity:1;fill-rule:nonzero;stroke:none"
         d="m 1928.86,700.52 -117.66,0.011 V 535.676 h 120.41 v 16.672 h -102.02 v 58.863 h 84.35 v 16.648 h -84.35 v 55.993 h 99.27 v 16.668" /></g></g></svg>