<?xml version="1.0" encoding="UTF-8" standalone="no"?>
<svg
   xmlns:dc="http://purl.org/dc/elements/1.1/"
   xmlns:cc="http://creativecommons.org/ns#"
   xmlns:rdf="http://www.w3.org/1999/02/22-rdf-syntax-ns#"
   xmlns:svg="http://www.w3.org/2000/svg"
   xmlns="http://www.w3.org/2000/svg"
   viewBox="0 0 523.46667 207.88"
   height="207.88"
   width="523.46667"
   xml:space="preserve"
   id="svg2"
   version="1.1"><metadata
     id="metadata8"><rdf:RDF><cc:Work
         rdf:about=""><dc:format>image/svg+xml</dc:format><dc:type
           rdf:resource="http://purl.org/dc/dcmitype/StillImage" /></cc:Work></rdf:RDF></metadata><defs
     id="defs6" /><g
     transform="matrix(1.3333333,0,0,-1.3333333,0,207.88)"
     id="g10"><g
       transform="scale(0.1)"
       id="g12"><path
         id="path14"
         style="fill:#231f20;fill-opacity:1;fill-rule:nonzero;stroke:none"
         d="M 3925.98,0 H 0 V 1559.06 H 3925.98 V 0" /><path
         id="path16"
         style="fill:#ffffff;fill-opacity:1;fill-rule:nonzero;stroke:none"
         d="m 1462.35,487.301 h -84.79 v 598.609 h 84.79 V 487.301" /><path
         id="path18"
         style="fill:#ffffff;fill-opacity:1;fill-rule:nonzero;stroke:none"
         d="m 1619.29,487.301 h -84.99 v 598.609 h 84.99 V 487.301" /><path
         id="path20"
         style="fill:#ffffff;fill-opacity:1;fill-rule:nonzero;stroke:none"
         d="m 951.129,706.988 c 0,-82.949 66.871,-153.707 150.851,-153.707 83.92,0 150.9,70.758 150.9,153.707 0,83.957 -66.98,153.723 -150.9,153.723 -83.98,0 -150.851,-69.766 -150.851,-153.723 z m 386.581,0 c 0,-132.906 -103.77,-234.75 -235.73,-234.75 -131.906,0 -235.597,101.844 -235.597,234.75 0,132.93 103.691,234.774 235.597,234.774 131.96,0 235.73,-101.844 235.73,-234.774" /><path
         id="path22"
         style="fill:#ffffff;fill-opacity:1;fill-rule:nonzero;stroke:none"
         d="m 872.613,541.09 -53.066,60.351 c -27.383,-29.433 -66.016,-48.16 -109.152,-48.16 -83.973,0 -148.672,70.758 -148.672,153.707 0,83.957 64.699,153.723 148.672,153.723 43.918,0 83.175,-19.129 110.636,-49.371 l 51.582,58.648 4.364,4.965 c -42.383,41.633 -100.985,66.809 -166.582,66.809 -131.903,0 -235.594,-101.844 -235.594,-234.774 0,-132.906 103.691,-234.75 235.594,-234.75 64.882,0 122.91,24.653 165.187,65.492 l -2.969,3.36" /><path
         id="path24"
         style="fill:#ffffff;fill-opacity:1;fill-rule:nonzero;stroke:none"
         d="m 2538.36,541.09 -53.06,60.351 c -27.38,-29.433 -66.01,-48.16 -109.15,-48.16 -83.98,0 -148.68,70.758 -148.68,153.707 0,83.957 64.7,153.723 148.68,153.723 43.92,0 83.17,-19.129 110.64,-49.371 l 51.57,58.648 4.37,4.965 c -42.38,41.633 -100.99,66.809 -166.58,66.809 -131.91,0 -235.6,-101.844 -235.6,-234.774 0,-132.906 103.69,-234.75 235.6,-234.75 64.89,0 122.92,24.653 165.18,65.492 l -2.97,3.36" /><path
         id="path26"
         style="fill:#ffffff;fill-opacity:1;fill-rule:nonzero;stroke:none"
         d="m 2713.82,913.148 v 172.622 h -84.77 V 913.141 h -60.63 v -83.039 h 60.63 V 487.301 h 84.77 v 342.808 h 83.03 v 83.039 h -83.03" /><path
         id="path28"
         style="fill:#ffffff;fill-opacity:1;fill-rule:nonzero;stroke:none"
         d="m 1751.16,754.684 c 10.25,63.132 65.37,110.3 137.14,110.3 67.91,0 116.59,-44.347 126.99,-110.3 z m 137.14,187.078 c -139.51,0 -229,-101.848 -229,-237.606 0,-130.074 95.79,-231.656 227.71,-231.918 73.83,-0.148 138.53,19.321 201.99,93.461 l -59.87,50.606 c -22.28,-27.871 -61.1,-69.125 -141.19,-68.657 -80.65,0.461 -137.7,67.321 -141.36,140.688 h 355.8 c 5.39,170.852 -99.66,253.426 -214.08,253.426" /><path
         id="path30"
         style="fill:#f3683d;fill-opacity:1;fill-rule:nonzero;stroke:none"
         d="M 3024.91,1086.82 2853.86,915.785 h 426.15 V 487.301 l 171.17,170.605 v 428.914 h -426.27" /><path
         id="path32"
         style="fill:#ffffff;fill-opacity:1;fill-rule:nonzero;stroke:none"
         d="m 3236.99,723.063 h -149.62 v 149.625 h -83.88 V 723.063 h -149.63 v -83.887 h 149.63 V 489.57 h 83.88 v 149.606 h 149.62 v 83.887" /></g></g></svg>