<svg xmlns="http://www.w3.org/2000/svg" viewBox="0 0 523.46667 207.88" height="207.88" width="523.467"><path d="M523.464 207.88H0V.005h523.464V207.88" fill="#231f20"/><path d="M194.98 142.907h-11.305V63.092h11.305v79.815m20.925 0h-11.332V63.092h11.332v79.815m-89.088-29.292c0 11.06 8.916 20.494 20.114 20.494 11.189 0 20.12-9.434 20.12-20.494 0-11.194-8.931-20.496-20.12-20.496-11.198 0-20.114 9.302-20.114 20.496zm51.544 0c0 17.72-13.836 31.3-31.43 31.3-17.588 0-31.413-13.58-31.413-31.3 0-17.724 13.825-31.303 31.413-31.303 17.594 0 31.43 13.579 31.43 31.303" fill="#fff"/><path d="M116.348 135.735l-7.075-8.047c-3.651 3.924-8.802 6.421-14.554 6.421-11.196 0-19.823-9.434-19.823-20.494 0-11.194 8.627-20.496 19.823-20.496 5.856 0 11.09 2.55 14.752 6.582l6.877-7.82.582-.661c-5.65-5.551-13.464-8.908-22.21-8.908-17.588 0-31.413 13.579-31.413 31.303 0 17.72 13.825 31.3 31.412 31.3 8.651 0 16.388-3.287 22.025-8.732l-.396-.448m222.1 0l-7.075-8.047c-3.65 3.924-8.801 6.421-14.553 6.421-11.197 0-19.824-9.434-19.824-20.494 0-11.194 8.627-20.496 19.824-20.496 5.856 0 11.09 2.55 14.752 6.582l6.876-7.82.583-.661c-5.651-5.551-13.466-8.908-22.211-8.908-17.588 0-31.413 13.579-31.413 31.303 0 17.72 13.825 31.3 31.413 31.3 8.652 0 16.39-3.287 22.024-8.732l-.396-.448m23.395-49.608V63.11H350.54v23.017h-8.084V97.2h8.084v45.707h11.303V97.199h11.07V86.127h-11.07m-128.355 21.128c1.367-8.417 8.716-14.706 18.285-14.706 9.055 0 15.546 5.913 16.932 14.706zm18.285-24.943c-18.601 0-30.533 13.58-30.533 31.68 0 17.344 12.772 30.888 30.361 30.923 9.844.02 18.471-2.576 26.932-12.462l-7.982-6.747c-2.971 3.716-8.147 9.217-18.826 9.154-10.753-.061-18.36-8.976-18.848-18.758h47.44c.719-22.78-13.288-33.79-28.544-33.79" fill="#fff"/><path d="M403.321 62.97l-22.806 22.805h56.82v57.132l22.822-22.748V62.971h-56.836" fill="#f3683d"/><path d="M431.599 111.472h-19.95v-19.95h-11.184v19.95h-19.95v11.185h19.95v19.947h11.184v-19.947h19.95v-11.185" fill="#fff"/></svg>