<?xml version="1.0" encoding="UTF-8" standalone="no"?>
<svg
   xmlns:dc="http://purl.org/dc/elements/1.1/"
   xmlns:cc="http://creativecommons.org/ns#"
   xmlns:rdf="http://www.w3.org/1999/02/22-rdf-syntax-ns#"
   xmlns:svg="http://www.w3.org/2000/svg"
   xmlns="http://www.w3.org/2000/svg"
   viewBox="0 0 523.56 345.69333"
   height="345.69333"
   width="523.56"
   xml:space="preserve"
   id="svg2"
   version="1.1"><metadata
     id="metadata8"><rdf:RDF><cc:Work
         rdf:about=""><dc:format>image/svg+xml</dc:format><dc:type
           rdf:resource="http://purl.org/dc/dcmitype/StillImage" /></cc:Work></rdf:RDF></metadata><defs
     id="defs6" /><g
     transform="matrix(1.3333333,0,0,-1.3333333,0,345.69333)"
     id="g10"><g
       transform="scale(0.1)"
       id="g12"><path
         id="path14"
         style="fill:#e41c2a;fill-opacity:1;fill-rule:nonzero;stroke:none"
         d="M 367.258,94.4414 404.055,183.73 440.977,94.4414 Z M 389.031,228.301 295.332,4.28125 h 34.773 l 24.75,60.05855 h 98.563 L 478.254,4.28125 H 513.02 L 419.578,228.301 h -30.547" /><path
         id="path16"
         style="fill:#e41c2a;fill-opacity:1;fill-rule:nonzero;stroke:none"
         d="M 1075.54,56.1602 1016.96,228.301 H 987.703 L 929.695,56.332 878.191,228.301 h -34.07 L 913.66,4.28125 h 30.235 L 1002.35,175.469 1060.48,4.28125 h 30.56 l 68.95,224.01975 h -34.06 L 1075.54,56.1602" /><path
         id="path18"
         style="fill:#e41c2a;fill-opacity:1;fill-rule:nonzero;stroke:none"
         d="m 582.93,228.301 v -30.539 h 71.843 V 4.28125 h 31.973 V 197.762 h 76.567 l -9.172,30.539 H 582.93" /><path
         id="path20"
         style="fill:#e41c2a;fill-opacity:1;fill-rule:nonzero;stroke:none"
         d="m 1273.82,4.28125 h 31.97 V 228.301 h -31.97 V 4.28125" /><path
         id="path22"
         style="fill:#e41c2a;fill-opacity:1;fill-rule:nonzero;stroke:none"
         d="m 1710.17,4.28125 h 31.91 V 228.301 h -31.91 V 4.28125" /><path
         id="path24"
         style="fill:#e41c2a;fill-opacity:1;fill-rule:nonzero;stroke:none"
         d="m 2606.67,228.301 h -36.77 l -56.19,-84.469 -55.82,84.469 h -37.58 L 2495.46,117.109 2418.61,4.28125 h 37.07 l 57.56,86.66015 57.2,-86.66015 h 37.68 l -76.66,113.37875 75.21,110.641" /><path
         id="path26"
         style="fill:#e41c2a;fill-opacity:1;fill-rule:nonzero;stroke:none"
         d="m 3609.92,132.352 c -32.95,13.808 -46.35,22.847 -46.35,39.878 0,21.602 21.13,29.239 39.22,29.239 15.74,0 34.72,-6.168 56.62,-22.008 v 37.32 c -10.61,6.719 -31.15,15.84 -56.08,15.84 -35.99,0 -72.63,-19.141 -72.63,-61.851 0,-38.008 29.76,-51.61 61.62,-65.098 35.16,-14.8829 46.78,-24.8517 46.78,-40.922 0,-23.1094 -22.33,-33.5898 -43.17,-33.5898 -17.38,0 -38.77,7.75 -56.23,22.8906 l -12.38,-29.6719 c 5.74,-6.5195 34.37,-24.3593687 67.66,-24.3593687 38.2,0 77.16,22.7421687 77.16,66.1601687 0,36.2113 -26.79,51.3403 -62.22,66.1723" /><path
         id="path28"
         style="fill:#e41c2a;fill-opacity:1;fill-rule:nonzero;stroke:none"
         d="m 3864.51,132.352 c -32.97,13.808 -46.35,22.847 -46.35,39.878 0,21.602 21.11,29.239 39.22,29.239 15.74,0 34.72,-6.168 56.6,-22.008 v 37.32 c -10.57,6.719 -31.13,15.84 -56.06,15.84 -35.99,0 -72.65,-19.141 -72.65,-61.851 0,-38.008 29.78,-51.61 61.64,-65.098 35.16,-14.8829 46.76,-24.8517 46.76,-40.922 0,-23.1094 -22.31,-33.5898 -43.17,-33.5898 -17.36,0 -38.77,7.75 -56.17,22.8906 l -12.42,-29.6719 c 5.74,-6.5195 34.35,-24.3593687 67.69,-24.3593687 38.15,0 77.11,22.7421687 77.11,66.1601687 0,36.2113 -26.79,51.3403 -62.2,66.1723" /><path
         id="path30"
         style="fill:#e41c2a;fill-opacity:1;fill-rule:nonzero;stroke:none"
         d="m 1883.54,228.48 h -41.38 L 1745.44,119.281 1845.59,4.30078 h 43.99 l -104.8,115.14022 98.76,109.039" /><path
         id="path32"
         style="fill:#e41c2a;fill-opacity:1;fill-rule:nonzero;stroke:none"
         d="M 91.3477,95.5703 H 155.398 V 39.6289 c -12.117,-5.207 -23.445,-8.1992 -42.144,-8.1992 -46.586,0.2695 -80.3712,36.0391 -80.3712,85.0823 0,48.097 34.5117,84.386 80.3712,84.386 18.086,0 37.144,-4.566 58.16,-15.898 l 12.277,29.5 c -22.246,12.93 -46.613,18.121 -69.277,18.121 C 49.1914,232.621 0,182.539 0,116.16 0,49.9805 48.7031,0.0195313 113.254,0.0195313 c 25.816,0 49.898,6.1992187 73.766,19.4999687 V 125.84 H 103.914 L 91.3477,95.5703" /><path
         id="path34"
         style="fill:#e41c2a;fill-opacity:1;fill-rule:nonzero;stroke:none"
         d="M 1412.67,116.289 C 1412.67,41.0391 1471.58,0 1527.06,0 c 28.5,0 48.5,8.03125 63.34,16.7813 v 35.4101 c -24.06,-14.6094 -41.21,-21.3516 -63.94,-21.3516 -50.71,0 -80.91,43.6016 -80.91,85.4492 0,41.859 30.2,85.43 80.91,85.43 22.73,0 39.88,-6.75 63.94,-21.328 v 35.429 c -14.84,8.731 -34.84,16.801 -63.34,16.801 -55.48,0 -114.39,-41.09 -114.39,-116.332" /><path
         id="path36"
         style="fill:#e41c2a;fill-opacity:1;fill-rule:nonzero;stroke:none"
         d="m 2791.67,114.93 h -32.91 v 82.832 h 32.91 c 33.38,0 47.56,-14.442 47.56,-41.43 0,-26.992 -14.18,-41.402 -47.56,-41.402 z m -1.42,113.371 h -63.48 V 4.28125 h 31.99 V 84.3789 h 31.49 c 51.78,0 81.58,26.7031 81.58,71.9531 0,45.258 -29.8,71.969 -81.58,71.969" /><path
         id="path38"
         style="fill:#e41c2a;fill-opacity:1;fill-rule:nonzero;stroke:none"
         d="m 3303.41,103.719 h 92.91 v 30.273 h -92.91 v 63.77 h 108.26 v 30.539 H 3271.4 V 4.28125 h 135.35 l 9.53,30.57035 h -112.87 v 68.8674" /><path
         id="path40"
         style="fill:#e41c2a;fill-opacity:1;fill-rule:nonzero;stroke:none"
         d="m 2198.57,103.719 h 92.91 v 30.273 h -92.91 v 63.77 h 108.24 v 30.539 H 2166.58 V 4.28125 h 135.31 l 9.55,30.57035 h -112.87 v 68.8674" /><path
         id="path42"
         style="fill:#e41c2a;fill-opacity:1;fill-rule:nonzero;stroke:none"
         d="m 3023.8,114.93 v 82.832 h 32.93 c 33.32,0 47.54,-14.442 47.54,-41.43 0,-26.992 -14.22,-41.402 -47.54,-41.402 z m 65.98,-25.7503 c 30.31,9.6094 47.05,33.1913 47.05,67.1523 0,45.258 -29.8,71.969 -81.58,71.969 h -63.42 V 4.28125 h 31.97 V 84.3789 h 31.45 c 0.08,0 0.1,0 0.16,0 L 3109.1,4.28125 h 37.54 l -56.86,84.89845" /><path
         id="path44"
         style="fill:#e41c2a;fill-opacity:1;fill-rule:nonzero;stroke:none"
         d="M 812.117,2592.68 C 426.16,2546.21 137.078,2157.64 137.078,1678.19 c 0,-479.46 289.082,-868.03 675.039,-914.51 -232.73,113.789 -330.633,529.92 -330.633,914.51 0,384.57 97.903,800.7 330.633,914.49" /><path
         id="path46"
         style="fill:#e41c2a;fill-opacity:1;fill-rule:nonzero;stroke:none"
         d="m 1579.91,2048.19 h 60.08 v 539.94 h -498.84 c 205.01,-74.77 384.77,-227.05 438.76,-539.94" /><path
         id="path48"
         style="fill:#e41c2a;fill-opacity:1;fill-rule:nonzero;stroke:none"
         d="m 1176.82,1534.75 h 52.04 c 101.71,0 159.35,-51.86 159.35,-161.97 v -132.56 c 0,-253.868 -51.58,-410.118 -247.06,-476.54 231.76,28.39 442.71,140.461 553.16,278.02 v 554.47 h -517.49 v -61.42" /><path
         id="path50"
         style="fill:#e41c2a;fill-opacity:1;fill-rule:nonzero;stroke:none"
         d="m 3599.21,829.539 c -119.96,0 -183.55,55.031 -243.3,155.313 L 2400.54,2588.13 h -491.47 v -61.43 h 35.16 c 119.98,0 183.58,-54.91 243.34,-155.18 L 3142.89,768.23 h 491.48 v 61.309 h -35.16" /><path
         id="path52"
         style="fill:#e41c2a;fill-opacity:1;fill-rule:nonzero;stroke:none"
         d="M 3207.83,2364.75 V 2185.8 c 112.54,156.8 270.64,321.83 431.83,402.33 h -643.3 v -61.41 h 52.03 c 101.72,0 159.44,-51.87 159.44,-161.97" /><path
         id="path54"
         style="fill:#e41c2a;fill-opacity:1;fill-rule:nonzero;stroke:none"
         d="m 2343.55,991.59 v 178.96 C 2231.01,1013.73 2072.91,848.699 1911.71,768.23 h 643.3 v 61.399 h -51.99 c -101.74,0 -159.47,51.859 -159.47,161.961" /></g></g></svg>