<svg xmlns="http://www.w3.org/2000/svg" viewBox="0 0 523.56 345.69333" height="345.693" width="523.56"><g fill="#e41c2a"><path d="M48.968 333.101l4.906-11.905 4.923 11.905zm2.903-17.848l-12.493 29.87h4.636l3.3-8.008h13.142l3.311 8.007h4.636l-12.46-29.869h-4.072M143.405 338.205l-7.81-22.952h-3.901l-7.735 22.93-6.867-22.93h-4.543l9.272 29.87h4.032l7.794-22.826 7.75 22.825h4.075l9.193-29.869h-4.541l-6.719 22.952M77.724 315.253v4.072h9.58v25.797h4.262v-25.797h10.21l-1.224-4.072H77.724M169.843 345.122h4.262v-29.869h-4.262v29.87M228.023 345.122h4.254v-29.869h-4.254v29.87M347.556 315.253h-4.903l-7.492 11.263-7.442-11.263h-5.011l10.02 14.826-10.247 15.043h4.943l7.675-11.554 7.626 11.554h5.024l-10.221-15.117 10.028-14.752M481.323 328.046c-4.394-1.84-6.18-3.046-6.18-5.317 0-2.88 2.817-3.898 5.229-3.898 2.099 0 4.63.822 7.55 2.934v-4.976c-1.415-.896-4.154-2.112-7.478-2.112-4.799 0-9.684 2.552-9.684 8.247 0 5.068 3.968 6.881 8.216 8.68 4.688 1.984 6.237 3.313 6.237 5.456 0 3.081-2.977 4.479-5.756 4.479-2.317 0-5.169-1.034-7.497-3.052l-1.65 3.956c.765.87 4.582 3.248 9.02 3.248 5.094 0 10.289-3.033 10.289-8.822 0-4.828-3.572-6.845-8.296-8.823M515.268 328.046c-4.396-1.84-6.18-3.046-6.18-5.317 0-2.88 2.815-3.898 5.23-3.898 2.098 0 4.629.822 7.546 2.934v-4.976c-1.41-.896-4.15-2.112-7.475-2.112-4.798 0-9.686 2.552-9.686 8.247 0 5.068 3.97 6.881 8.218 8.68 4.688 1.984 6.235 3.313 6.235 5.456 0 3.081-2.975 4.479-5.756 4.479-2.315 0-5.17-1.034-7.49-3.052l-1.655 3.956c.765.87 4.58 3.248 9.025 3.248 5.087 0 10.281-3.033 10.281-8.822 0-4.828-3.572-6.845-8.293-8.823M251.139 315.23h-5.518l-12.896 14.56 13.354 15.33h5.865l-13.973-15.352 13.168-14.539M12.18 332.95h8.54v7.46c-1.616.694-3.126 1.093-5.62 1.093-6.21-.036-10.716-4.806-10.716-11.345 0-6.413 4.602-11.251 10.717-11.251 2.411 0 4.952.609 7.754 2.12l1.637-3.934c-2.966-1.724-6.215-2.416-9.237-2.416C6.56 314.677 0 321.355 0 330.205c0 8.824 6.494 15.486 15.1 15.486 3.443 0 6.654-.827 9.836-2.6v-14.176h-11.08l-1.676 4.036M188.356 330.188c0 10.033 7.855 15.505 15.252 15.505 3.8 0 6.467-1.07 8.445-2.237v-4.722c-3.208 1.948-5.494 2.847-8.525 2.847-6.761 0-10.788-5.813-10.788-11.393 0-5.581 4.027-11.39 10.788-11.39 3.03 0 5.317.9 8.525 2.843v-4.724c-1.978-1.164-4.645-2.24-8.445-2.24-7.397 0-15.252 5.479-15.252 15.511M372.223 330.37h-4.388v-11.045h4.388c4.45 0 6.341 1.926 6.341 5.524 0 3.599-1.89 5.52-6.341 5.52zm-.19-15.117h-8.464v29.87h4.266v-10.68h4.198c6.904 0 10.878-3.56 10.878-9.594 0-6.034-3.974-9.596-10.878-9.596M440.455 331.864h12.388v-4.036h-12.388v-8.503h14.434v-4.072h-18.702v29.87h18.046l1.271-4.077h-15.05v-9.182M293.143 331.864h12.388v-4.036h-12.388v-8.503h14.432v-4.072h-18.698v29.87h18.042l1.273-4.077h-15.05v-9.182M403.173 330.37v-11.045h4.391c4.443 0 6.339 1.926 6.339 5.524 0 3.599-1.896 5.52-6.339 5.52zm8.798 3.433c4.041-1.282 6.273-4.426 6.273-8.954 0-6.034-3.973-9.596-10.877-9.596h-8.456v29.87h4.262v-10.68h4.215l7.159 10.68h5.005l-7.581-11.32M108.282.003c-51.46 6.196-90.005 58.005-90.005 121.932 0 63.928 38.544 115.737 90.005 121.934-31.03-15.172-44.084-70.656-44.084-121.934 0-51.276 13.054-106.76 44.084-121.932M210.655 72.601h8.01V.61h-66.512c27.335 9.97 51.303 30.274 58.502 71.992M156.91 141.06h6.938c13.561 0 21.247 6.915 21.247 21.596v17.675c0 33.849-6.878 54.682-32.942 63.538 30.902-3.785 59.028-18.728 73.755-37.069v-73.93h-68.999v8.19M479.895 235.088c-15.995 0-24.474-7.337-32.44-20.708L320.072.61h-65.53V8.8h4.689c15.997 0 24.477 7.321 32.445 20.69l127.376 213.773h65.53v-8.175h-4.687M427.71 30.393v23.86c15.006-20.906 36.086-42.91 57.578-53.644h-85.773v8.188h6.937c13.563 0 21.259 6.916 21.259 21.596M312.473 213.481V189.62c-15.005 20.91-36.085 42.913-57.578 53.643h85.773v-8.187h-6.932c-13.565 0-21.263-6.914-21.263-21.595"/></g></svg>