<?xml version="1.0" encoding="UTF-8" standalone="no"?>
<svg
   xmlns:dc="http://purl.org/dc/elements/1.1/"
   xmlns:cc="http://creativecommons.org/ns#"
   xmlns:rdf="http://www.w3.org/1999/02/22-rdf-syntax-ns#"
   xmlns:svg="http://www.w3.org/2000/svg"
   xmlns="http://www.w3.org/2000/svg"
   viewBox="0 0 529.1333 179.36"
   height="179.36"
   width="529.1333"
   xml:space="preserve"
   id="svg2"
   version="1.1"><metadata
     id="metadata8"><rdf:RDF><cc:Work
         rdf:about=""><dc:format>image/svg+xml</dc:format><dc:type
           rdf:resource="http://purl.org/dc/dcmitype/StillImage" /></cc:Work></rdf:RDF></metadata><defs
     id="defs6" /><g
     transform="matrix(1.3333333,0,0,-1.3333333,0,179.36)"
     id="g10"><g
       transform="scale(0.1)"
       id="g12"><path
         id="path14"
         style="fill:#351858;fill-opacity:1;fill-rule:nonzero;stroke:none"
         d="m 257.418,695.352 c 7.664,-18.516 30.324,-33.661 50.363,-33.653 l 3635.669,0.559 c 20.04,0.008 30.15,15.152 22.49,33.672 l -254.87,615.64 c -7.67,18.51 -30.32,33.66 -50.36,33.65 H 25.1328 C 5.09375,1345.21 -5.11328,1329.5 2.55078,1310.99 L 257.418,695.352" /><path
         id="path16"
         style="fill:#ffffff;fill-opacity:1;fill-rule:nonzero;stroke:none"
         d="m 743.035,921.246 c -15.59,-13.812 -52.129,-52.574 -136.773,-52.574 -85.106,0 -159.953,56.137 -159.953,158.618 0,102.47 74.847,158.16 160.839,158.16 81.536,0 116.735,-42.77 126.536,-53.47 l -47.672,-41.43 c -12.926,14.26 -36.981,35.2 -78.864,35.2 -49.457,0 -87.773,-36.09 -87.773,-98.46 0,-62.384 39.211,-98.47 89.109,-98.47 49.899,0 64.157,19.598 64.157,19.598 v 45.449 h -64.598 v 54.803 H 743.035 V 921.246" /><path
         id="path18"
         style="fill:#ffffff;fill-opacity:1;fill-rule:nonzero;stroke:none"
         d="m 933.266,1027.73 h -3.121 c -4.008,2.23 -13.364,5.34 -25.836,5.34 -16.039,0 -27.629,-8.91 -32.969,-16.04 -5.348,-7.13 -11.141,-21.382 -11.141,-45.885 V 873.57 H 788.91 v 219.65 h 71.289 l -0.441,-31.18 h 0.887 c 12.476,24.05 30.746,35.19 54.355,35.19 14.703,0 22.281,-4.01 22.281,-4.01 l -4.015,-65.49" /><path
         id="path20"
         style="fill:#ffffff;fill-opacity:1;fill-rule:nonzero;stroke:none"
         d="m 1103.9,1006.79 c -0.44,20.05 -15.15,44.1 -44.99,44.1 -29.41,0 -44.56,-23.16 -45.45,-44.1 z m 65.5,-40.548 h -156.39 c 3.12,-31.633 27.18,-45.89 56.14,-45.89 28.51,0 53.47,12.476 65.95,20.937 l 28.06,-36.976 c -7.13,-5.348 -36.09,-35.641 -104.25,-35.641 -67.726,0 -117.187,41.879 -117.187,114.504 0,72.624 53.468,114.054 118.507,114.054 65.06,0 110.06,-43.21 110.06,-107.371 0,-10.695 -0.89,-23.617 -0.89,-23.617" /><path
         id="path22"
         style="fill:#ffffff;fill-opacity:1;fill-rule:nonzero;stroke:none"
         d="m 1329.35,970.254 -35.2,-2.231 c -21.85,-0.89 -34.76,-10.246 -34.76,-26.734 0,-16.93 13.81,-27.172 33.42,-27.172 19.16,0 32.07,12.477 36.54,20.043 z m 70.83,-96.684 h -68.17 l -1.34,23.168 c -9.35,-9.355 -27.17,-28.066 -62.81,-28.066 -38.77,0 -79.76,20.937 -79.76,69.945 0,49.012 45,65.503 85.55,67.283 l 55.24,2.23 v 4.9 c 0,23.16 -16.48,35.19 -44.99,35.19 -28.07,0 -56.15,-12.47 -67.28,-19.6 l -18.71,46.34 c 18.71,9.35 53.01,22.27 94,22.27 41,0 64.61,-9.35 81.98,-25.39 16.94,-16.04 26.29,-37.43 26.29,-74.406 V 873.57" /><path
         id="path24"
         style="fill:#ffffff;fill-opacity:1;fill-rule:nonzero;stroke:none"
         d="m 1575.27,1038.87 h -48.57 v -78.866 c 0,-18.715 2.68,-23.168 6.24,-27.176 3.12,-3.566 7.57,-5.348 16.93,-5.348 11.14,0 21.38,4.008 21.38,4.008 l 3.56,-55.687 c -5.34,-1.344 -24.94,-7.129 -50.78,-7.129 -25.4,0 -42.33,7.57 -53.47,20.492 -11.14,12.922 -15.59,31.188 -15.59,64.602 v 85.104 h -31.19 v 53.9 h 31.19 v 59.71 h 71.73 v -59.71 h 48.57 v -53.9" /><path
         id="path26"
         style="fill:#ffffff;fill-opacity:1;fill-rule:nonzero;stroke:none"
         d="m 1974,873.57 h -73.95 l -135,208.52 c 0,0 1.34,-36.99 1.34,-69.51 V 873.57 h -70.4 v 307.42 h 77.08 l 131.87,-206.728 c 0,0 -1.33,34.758 -1.33,67.278 v 139.45 H 1974 V 873.57" /><path
         id="path28"
         style="fill:#ffffff;fill-opacity:1;fill-rule:nonzero;stroke:none"
         d="m 2125.92,1041.09 c -31.63,0 -49.89,-24.5 -49.89,-57.027 0,-32.52 18.26,-57.028 49.89,-57.028 31.19,0 49.91,24.508 49.91,57.028 0,32.527 -18.72,57.027 -49.91,57.027 z m 0,-172.418 c -69.5,0 -122.08,43.215 -122.08,114.058 0,70.84 52.58,114.5 122.08,114.5 69.51,0 121.63,-43.66 121.63,-114.5 0,-70.843 -52.12,-114.058 -121.63,-114.058" /><path
         id="path30"
         style="fill:#ffffff;fill-opacity:1;fill-rule:nonzero;stroke:none"
         d="m 2426.66,1027.73 h -3.13 c -4,2.23 -13.36,5.34 -25.84,5.34 -16.03,0 -27.63,-8.91 -32.97,-16.04 -5.35,-7.13 -11.13,-21.382 -11.13,-45.885 V 873.57 h -71.29 v 219.65 h 71.29 l -0.45,-31.18 h 0.89 c 12.47,24.05 30.75,35.19 54.35,35.19 14.71,0 22.29,-4.01 22.29,-4.01 l -4.01,-65.49" /><path
         id="path32"
         style="fill:#ffffff;fill-opacity:1;fill-rule:nonzero;stroke:none"
         d="m 2603.52,1038.87 h -48.55 v -78.866 c 0,-18.715 2.66,-23.168 6.23,-27.176 3.11,-3.566 7.57,-5.348 16.93,-5.348 11.13,0 21.39,4.008 21.39,4.008 l 3.56,-55.687 c -5.35,-1.344 -24.95,-7.129 -50.8,-7.129 -25.39,0 -42.31,7.57 -53.46,20.492 -11.14,12.922 -15.59,31.188 -15.59,64.602 v 85.104 h -31.19 v 53.9 h 31.19 v 59.71 h 71.74 v -59.71 h 48.55 v -53.9" /><path
         id="path34"
         style="fill:#ffffff;fill-opacity:1;fill-rule:nonzero;stroke:none"
         d="m 2849.46,873.57 h -71.74 v 115.395 c 0,26.735 -3.56,49.905 -33.42,49.905 -29.84,0 -39.2,-24.96 -39.2,-57.479 V 873.57 h -71.29 v 307.42 h 71.29 v -73.06 c 0,-22.28 -0.45,-46.34 -0.45,-46.34 11.15,19.6 32.08,35.64 64.6,35.64 63.71,0 80.21,-40.54 80.21,-94.01 V 873.57" /><path
         id="path36"
         style="fill:#ffffff;fill-opacity:1;fill-rule:nonzero;stroke:none"
         d="m 3034.78,1006.79 c -0.44,20.05 -15.15,44.1 -44.99,44.1 -29.41,0 -44.56,-23.16 -45.45,-44.1 z m 65.5,-40.548 h -156.39 c 3.13,-31.633 27.18,-45.89 56.13,-45.89 28.52,0 53.47,12.476 65.95,20.937 l 28.07,-36.976 c -7.13,-5.348 -36.09,-35.641 -104.25,-35.641 -67.72,0 -117.19,41.879 -117.19,114.504 0,72.624 53.47,114.054 118.52,114.054 65.05,0 110.05,-43.21 110.05,-107.371 0,-10.695 -0.89,-23.617 -0.89,-23.617" /><path
         id="path38"
         style="fill:#ffffff;fill-opacity:1;fill-rule:nonzero;stroke:none"
         d="m 3278.49,1027.73 h -3.12 c -4.01,2.23 -13.37,5.34 -25.84,5.34 -16.04,0 -27.63,-8.91 -32.97,-16.04 -5.35,-7.13 -11.14,-21.382 -11.14,-45.885 V 873.57 h -71.28 v 219.65 h 71.28 l -0.44,-31.18 h 0.88 c 12.47,24.05 30.75,35.19 54.36,35.19 14.71,0 22.28,-4.01 22.28,-4.01 l -4.01,-65.49" /><path
         id="path40"
         style="fill:#ffffff;fill-opacity:1;fill-rule:nonzero;stroke:none"
         d="m 3522.18,873.57 h -71.28 v 114.504 c 0,28.956 -4.45,50.796 -33.86,50.796 -30.75,0 -39.21,-24.96 -39.21,-56.589 V 873.57 h -71.28 v 219.65 h 71.28 l -0.44,-31.63 h 0.89 c 12.03,19.6 32.08,35.64 63.71,35.64 63.72,0 80.19,-40.99 80.19,-94.01 V 873.57" /><path
         id="path42"
         style="fill:#36aee8;fill-opacity:1;fill-rule:nonzero;stroke:none"
         d="m 1945.57,607.039 h -0.84 c -20.03,0 -29.83,-15.008 -21.77,-33.348 L 2165.33,22.6289 c 8.06,-18.33984 29.94,-27.39843 48.6,-20.09765 L 3336.49,440.891 1945.57,607.039" /><path
         id="path44"
         style="fill:#0f65a6;fill-opacity:1;fill-rule:nonzero;stroke:none"
         d="M 3725.54,607.039 H 1945.57 l 1390.92,-166.148 391.56,152.898 c 18.65,7.285 17.53,13.25 -2.51,13.25" /></g></g></svg>