<svg xmlns="http://www.w3.org/2000/svg" viewBox="0 0 529.1333 179.36" height="179.36" width="529.133"><path d="M34.322 86.646c1.022 2.47 4.044 4.489 6.715 4.487l484.756-.074c2.672-.001 4.02-2.02 2.999-4.49L494.809 4.484c-1.022-2.468-4.042-4.488-6.714-4.487H3.35C.679 0-.682 2.093.341 4.561l33.981 82.085" fill="#351858"/><path d="M99.071 56.527c-2.078 1.842-6.95 7.01-18.236 7.01-11.348 0-21.327-7.485-21.327-21.149 0-13.663 9.98-21.088 21.445-21.088 10.872 0 15.565 5.703 16.872 7.13l-6.357 5.523c-1.723-1.901-4.93-4.693-10.515-4.693-6.594 0-11.703 4.812-11.703 13.128 0 8.318 5.228 13.13 11.881 13.13 6.653 0 8.554-2.614 8.554-2.614v-6.06h-8.613v-7.307h18v16.99M124.435 42.33h-.416c-.534-.298-1.782-.713-3.444-.713-2.139 0-3.684 1.188-4.396 2.139-.713.95-1.486 2.85-1.486 6.118v13.01h-9.505V33.597h9.505l-.059 4.158h.119c1.663-3.207 4.1-4.692 7.247-4.692 1.96 0 2.97.534 2.97.534l-.535 8.732M147.187 45.121c-.059-2.673-2.02-5.88-5.999-5.88-3.921 0-5.941 3.088-6.06 5.88zm8.733 5.407h-20.852c.416 4.217 3.624 6.118 7.485 6.118 3.802 0 7.13-1.663 8.794-2.791l3.741 4.93c-.95.713-4.812 4.752-13.9 4.752-9.03 0-15.625-5.584-15.625-15.267s7.13-15.207 15.801-15.207c8.675 0 14.675 5.761 14.675 14.316 0 1.426-.119 3.149-.119 3.149M177.247 49.993l-4.694.297c-2.913.119-4.634 1.366-4.634 3.565 0 2.257 1.841 3.623 4.456 3.623 2.554 0 4.276-1.664 4.872-2.673zm9.444 12.891h-9.09l-.178-3.09c-1.247 1.248-3.623 3.743-8.375 3.743-5.17 0-10.635-2.792-10.635-9.326 0-6.535 6-8.734 11.407-8.971l7.365-.297v-.654c0-3.088-2.197-4.692-5.998-4.692-3.743 0-7.487 1.663-8.971 2.614l-2.495-6.179c2.495-1.247 7.068-2.97 12.534-2.97 5.466 0 8.614 1.247 10.93 3.386 2.259 2.139 3.506 4.99 3.506 9.92v16.516M210.036 40.844h-6.476v10.515c0 2.496.357 3.09.832 3.624.416.475 1.01.713 2.257.713 1.486 0 2.851-.534 2.851-.534l.475 7.425c-.712.179-3.326.95-6.771.95-3.387 0-5.644-1.01-7.13-2.732-1.485-1.723-2.078-4.159-2.078-8.614V40.844h-4.159v-7.187h4.159v-7.961h9.564v7.961h6.476v7.187M263.2 62.884h-9.86l-18-27.803s.179 4.932.179 9.268v18.535h-9.387v-40.99h10.277l17.583 27.564s-.177-4.634-.177-8.97V21.895h9.385v40.989M283.456 40.548c-4.217 0-6.652 3.267-6.652 7.604 0 4.336 2.435 7.603 6.652 7.603 4.159 0 6.655-3.267 6.655-7.603 0-4.337-2.496-7.604-6.655-7.604zm0 22.99c-9.267 0-16.277-5.763-16.277-15.209 0-9.445 7.01-15.266 16.277-15.266 9.268 0 16.217 5.821 16.217 15.266 0 9.446-6.949 15.208-16.217 15.208M323.555 42.33h-.418c-.533-.298-1.781-.713-3.445-.713-2.137 0-3.684 1.188-4.396 2.139-.713.95-1.484 2.85-1.484 6.118v13.01h-9.505V33.597h9.505l-.06 4.158h.119c1.662-3.207 4.1-4.692 7.246-4.692 1.962 0 2.972.534 2.972.534l-.534 8.732M347.136 40.844h-6.473v10.515c0 2.496.354 3.09.83 3.624.415.475 1.01.713 2.258.713 1.484 0 2.852-.534 2.852-.534l.474 7.425c-.713.179-3.326.95-6.773.95-3.385 0-5.641-1.01-7.128-2.732-1.485-1.723-2.079-4.159-2.079-8.614V40.844h-4.158v-7.187h4.158v-7.961h9.566v7.961h6.473v7.187M379.928 62.884h-9.565V47.498c0-3.565-.475-6.654-4.456-6.654-3.979 0-5.227 3.328-5.227 7.664v14.376h-9.505v-40.99h9.505v9.742c0 2.97-.06 6.179-.06 6.179 1.487-2.614 4.277-4.752 8.613-4.752 8.495 0 10.695 5.405 10.695 12.534v17.287M404.637 45.121c-.058-2.673-2.02-5.88-5.998-5.88-3.922 0-5.942 3.088-6.06 5.88zm8.734 5.407h-20.852c.417 4.217 3.624 6.118 7.484 6.118 3.802 0 7.129-1.663 8.793-2.791l3.743 4.93c-.951.713-4.812 4.752-13.9 4.752-9.03 0-15.626-5.584-15.626-15.267s7.13-15.207 15.803-15.207c8.673 0 14.673 5.761 14.673 14.316 0 1.426-.118 3.149-.118 3.149M437.132 42.33h-.416c-.535-.298-1.783-.713-3.445-.713-2.139 0-3.684 1.188-4.396 2.139-.714.95-1.486 2.85-1.486 6.118v13.01h-9.504V33.597h9.504l-.058 4.158h.117c1.663-3.207 4.1-4.692 7.248-4.692 1.961 0 2.97.534 2.97.534l-.534 8.732M469.624 62.884h-9.504V47.617c0-3.861-.593-6.773-4.515-6.773-4.1 0-5.228 3.328-5.228 7.545v14.495h-9.504V33.597h9.504l-.058 4.218h.118c1.604-2.614 4.278-4.752 8.495-4.752 8.496 0 10.692 5.465 10.692 12.534v17.287" fill="#fff"/><path d="M259.41 98.421h-.113c-2.67 0-3.977 2.002-2.902 4.447l32.316 73.475c1.074 2.445 3.992 3.653 6.48 2.68l149.674-58.448L259.41 98.42" fill="#36aee8"/><path d="M496.739 98.421h-237.33l185.456 22.154 52.208-20.387c2.487-.971 2.338-1.767-.334-1.767" fill="#0f65a6"/></svg>