<svg viewBox="-11.272000312805176 -151.2519989013672 1234.7230224609375 360.5069885253906" width="359.763" height="103.066" xmlns="http://www.w3.org/2000/svg"><defs><clipPath id="a"><path d="M1469.16 2275.69c-3.89 8.24-6.32 13.59-8.91 18.86-45.06 91.86-155.85 128.26-244.46 78.67-79.39-44.42-107.65-122.45-95.79-214.8 9.13-71.02 42.81-131.14 85.32-186.64 68.32-89.21 152.85-160.36 244.39-223.63 13.98-9.66 27.07-9.73 40.36.53 39.93 30.84 81.31 59.97 119.43 92.96 74.81 64.76 141.47 136.78 183.76 228.77 25.47 55.4 34.32 113.14 24.01 173.18-13.11 76.41-78.2 139.38-152.83 149.93-78.62 11.11-151.76-28.92-187.41-102.54-2.07-4.26-4.33-8.43-7.87-15.29z"/></clipPath><clipPath id="b"><path d="M1469.16 2275.69c3.54 6.86 5.8 11.03 7.87 15.29 35.65 73.62 108.79 113.65 187.41 102.54 74.63-10.55 139.72-73.52 152.83-149.93 10.31-60.04 1.46-117.78-24.01-173.18-42.29-91.99-108.95-164.01-183.76-228.77-38.12-32.99-79.5-62.12-119.43-92.96-13.29-10.26-26.38-10.19-40.36-.53-91.54 63.27-176.07 134.42-244.39 223.63-42.51 55.5-76.19 115.62-85.32 186.64-11.86 92.35 16.4 170.38 95.79 214.8 88.61 49.59 199.4 13.19 244.46-78.67 2.59-5.27 5.02-10.62 8.91-18.86z"/></clipPath></defs><text transform="matrix(1.3333333,0,0,-1.3333333,-5.6360724,365.98437) scale(0.1,0.1) matrix(1.814838,0,0,1.814838,-2374.7561,-1907.833) matrix(13.18029, 0, 0, 13.18029, 2677.143799, 1659.795532) matrix(1,0,0,-1,70.3895,17.9992)" style="line-height:61.7055px" fill="#ed212a" font-family="BentonSans" font-size="38.566" white-space="pre">LONDON</text><text transform="matrix(1.3333333,0,0,-1.3333333,-5.6360724,365.98437) scale(0.1,0.1) matrix(1.814838,0,0,1.814838,-2374.7561,-1907.833) matrix(13.18029,0,0,13.18029,2876.762,1697.8844) matrix(1,0,0,-1,6.43398,59.9129)" font-weight="400" font-size="56" font-family="Georgia" white-space="pre" fill="#25285b"><tspan y="0" x="0">Hands</tspan></text><text transform="matrix(1.3333333,0,0,-1.3333333,-5.6360724,365.98437) scale(0.1,0.1) matrix(1.814838,0,0,1.814838,-2374.7561,-1907.833) matrix(13.18029,0,0,13.18029,2876.762,1697.8844) matrix(1, 0, 0, -1, 0, 0)" x="184.286" y="-61.771" font-weight="400" font-size="56" font-family="Georgia" white-space="pre" fill="#ed212a"><tspan y="-61.771" x="184.286" word-spacing="0">On</tspan></text><g><path d="M199.537-132.88c0 8.159 11.2 13.874 17.564 6.524 12.015-13.866-17.564-24.896-17.564-6.524M201.543-113.806c6.797-7.72-9.794-13.664-9.54-3.514.128 4.875 6.37 7.115 9.54 3.514M137.3-110.797c3.328 14 26.664.528 14.553-9.533-7.254-6.039-16.742.312-14.553 9.533" fill="#ed212a"/><path d="M132.281-112.301c-12.48-11.832-29.656 6.872-18.57 18.568 11.716 12.365 31.189-6.605 18.57-18.568M141.316-74.66c13.319 13.16 30.081-8.012 18.57-19.072-12.047-11.576-30.713 7.076-18.57 19.072" fill="#ed212a"/><path d="M93.134-55.588c16.96-.209 25.182-21.47 13.052-33.122-3.59-3.444-8.108-5.588-13.555-5.524-23.61.28-25.665 38.965.503 38.646" fill="#25285b"/><path d="M93.134-55.588c16.96-.209 25.182-21.47 13.052-33.122-3.59-3.444-8.108-5.588-13.555-5.524-23.61.28-25.665 38.965.503 38.646z" fill="none" stroke="#fff" stroke-width="4.2572269"/><path d="M272.343-60.214c-2.191-10.996-18.462-16.323-27.607-7.528-2.495 2.405-3.844 4.868-4.512 8.03-5.276 24.724 37.692 27.556 32.119-.502" fill="#25285b"/><path d="M261.327-28.573c-1.484-7.459-12.52-11.067-18.723-5.104-1.693 1.63-2.603 3.296-3.061 5.447-3.576 16.762 25.564 18.685 21.784-.343M55.492-29.992c3.258-1.196 6.408-3.346 9.036-6.02 14.86-15.164 4.347-39.532-13.052-42.16-19.454-2.94-31.723 12.696-29.61 28.606 1.788 13.472 16.253 25.957 33.626 19.574" fill="#25285b"/><path d="M55.492-29.992c3.258-1.196 6.408-3.346 9.036-6.02 14.86-15.164 4.347-39.532-13.052-42.16-19.454-2.94-31.723 12.696-29.61 28.606 1.788 13.472 16.253 25.957 33.626 19.574z" fill="none" stroke="#fff" stroke-width="4.2572269"/><path d="M310.44-66.576c.223 5.9 7.96 9.8 12.835 4.811 1.374-1.405 2.24-3.003 2.246-5.135.032-9.66-15.464-9.882-15.081.324M256.159-80.412c.222 5.899 7.96 9.8 12.836 4.811 1.374-1.405 2.24-3.003 2.246-5.135.032-9.661-15.465-9.882-15.082.324M282.501-64.181c.223 5.9 7.962 9.801 12.836 4.81 1.374-1.405 2.24-3.002 2.246-5.134.032-9.661-15.464-9.883-15.082.324M289.336-88.346c.267 7.006 9.45 11.638 15.241 5.714 1.636-1.668 2.66-3.57 2.667-6.096.044-11.474-18.36-11.736-17.908.382M101.163-52.073c-2.284.413-3.716 1.215-6.026 3.512-6.79 6.772-3.303 19.117 4.015 21.58 20.638 6.943 25.233-29.267 2.011-25.092" fill="#25285b"/><path d="M101.163-52.073c-2.284.413-3.716 1.215-6.026 3.512-6.79 6.772-3.303 19.117 4.015 21.58 20.638 6.943 25.233-29.267 2.011-25.092z" fill="none" stroke="#fff" stroke-width="4.2572269"/><path d="M200.036-27.48c9.577.108 14.421-11.76 8.032-18.569-14.415-15.376-29.37 18.321-8.032 18.57M26.384-25.976c-.618-18.856-32.863-7.438-19.576 7.53 6.733 7.578 19.9 2.449 19.576-7.53" fill="#ed212a"/><path d="M250.73-2.385c.107-3.215-.84-5.187-3.011-7.027-5.442-4.62-12.963-1.749-14.56 3.514-4.106 13.548 17.13 16.374 17.57 3.513" fill="#25285b"/><path d="M250.73-2.385c.107-3.215-.84-5.187-3.011-7.027-5.442-4.62-12.963-1.749-14.56 3.514-4.106 13.548 17.13 16.374 17.57 3.513z" fill="none" stroke="#fff" stroke-width="4.2572269"/><path d="M13.332 21.203c14.325-.165 18.8-17.844 10.539-26.099-5.378-5.384-14.694-6.032-21.077 0C-7.248 4.594.738 21.348 13.332 21.203M153.863 1.126c.202 4.952 7.585 7.949 11.046 3.513 7.39-9.488-11.505-14.643-11.046-3.513M26.384 35.256C22.343 26.902 7.61 22.86-.72 30.74c-10.552 9.972-2.355 27.313 8.031 29.108 14.427 2.501 25.347-11.608 19.073-24.59M347.077-5.21c-1.934-3.991-8.966-5.919-12.944-2.158-5.033 4.767-1.12 13.04 3.838 13.899 6.885 1.19 12.097-5.543 9.106-11.741" fill="#ed212a"/><path d="M63.021 63.863c-1.235-14.37-19.161-22.28-31.12-12.55-10.372 8.451-7.496 27.422 4.52 32.125 11.327 4.436 28.026-2.978 26.6-19.575M320.492 65.871c.101 3.577 1.279 6.141 4.015 9.037 10.749 11.366 29.229-1.954 22.585-16.062-6.007-12.766-26.995-7.083-26.6 7.025M81.09 91.97c6.484-7.211.426-16.616-7.529-16.559-13.071.09-11.957 19.9 0 20.07 2.966.046 5.638-1.418 7.529-3.511" fill="#ed212a"/><path d="M280.844 110.54c16.343-14.725-6.873-41.134-23.59-25.092-15.063 14.446 6.593 40.404 23.59 25.092" fill="#25285b"/><path d="M280.844 110.54c16.343-14.725-6.873-41.134-23.59-25.092-15.063 14.446 6.593 40.404 23.59 25.092z" fill="none" stroke="#fff" stroke-width="4.2572269"/><path d="M44.95 102.51c-12.454 12.161-2.64 35.821 17.571 32.124 4.092-.751 9.972-4.487 12.543-9.54 10.36-20.326-15.998-36.363-30.114-22.584" fill="#25285b"/><path d="M44.95 102.51c-12.454 12.161-2.64 35.821 17.571 32.124 4.092-.751 9.972-4.487 12.543-9.54 10.36-20.326-15.998-36.363-30.114-22.584z" fill="none" stroke="#fff" stroke-width="4.2572269"/><path d="M105.681 121.582c-.324-9.368-12.072-14.828-19.575-8.032-2.386 2.164-2.991 3.412-3.513 6.021-3.15 15.839 23.712 19.855 23.088 2.01" fill="#25285b"/><path d="M105.681 121.582c-.324-9.368-12.072-14.828-19.575-8.032-2.386 2.164-2.991 3.412-3.513 6.021-3.15 15.839 23.712 19.855 23.088 2.01z" fill="none" stroke="#fff" stroke-width="4.2572269"/><path d="M268.797 126.6c-2.908-2.838-5.46-4.22-9.036-5.021-28.752-6.415-32.513 38.85-4.518 38.647 16.22-.114 26.257-21.23 13.554-33.626M113.712 133.124c-16.756-.534-26.99 13.848-25.093 28.11 2.73 20.58 28.917 26.046 41.658 13.045 15.45-15.763 2.698-40.537-16.565-41.155M159.384-129.366c8.095-2.062 6.619-17.934-5.02-15.56-10.17 2.081-5.352 18.201 5.02 15.56M183.977-144.924c-8.718 1.731-5.001 15.368 3.01 14.554 7.866-.802 9.394-17.018-3.01-14.554M127.765-119.328c16.934-.28 13.452-27.6-3.513-23.088-5.543 1.47-8.642 4.951-8.534 11.544.115 6.886 5.855 11.646 12.047 11.544" fill="#ed212a"/><path d="M234.668-97.746c27.384 2.889 25.468-39.296-1.005-35.631-20.052 2.773-18.59 33.563 1.005 35.63" fill="#25285b"/><path d="M234.668-97.746c27.384 2.889 25.468-39.296-1.005-35.631-20.052 2.773-18.59 33.563 1.005 35.63z" fill="none" stroke="#fff" stroke-width="4.2572269"/><path d="M170.928-130.37c-13.65 2.958-11.397 24.596 3.01 24.596 17.418 0 15.089-28.523-3.01-24.596" fill="#ed212a"/><path d="M92.633-101.26c17.195.204 19.257-29.464-1.509-27.606-16.717 1.502-14.763 27.409 1.51 27.606" fill="#25285b"/><path d="M92.633-101.26c17.195.204 19.257-29.464-1.509-27.606-16.717 1.502-14.763 27.409 1.51 27.606z" fill="none" stroke="#fff" stroke-width="4.2572269"/><path d="M281.345-97.746c3.519-9.966-3.741-19.894-15.057-18.067-3.416.547-6.675 3.061-8.03 5.013-11.609 16.815 17.157 29.854 23.087 13.054" fill="#25285b"/><path d="M200.54-84.194c16.253 1.838 18.716-24.279 1.508-24.094-15.425.172-14.732 22.591-1.508 24.094" fill="#ed212a"/><path d="M59.005-83.694c10.073 3.532 19.874-5.18 16.062-16.062-1.775-5.053-8.114-8.553-14.554-7.026-11.13 2.641-11.957 19.422-1.508 23.088" fill="#25285b"/><path d="M59.005-83.694c10.073 3.532 19.874-5.18 16.062-16.062-1.775-5.053-8.114-8.553-14.554-7.026-11.13 2.641-11.957 19.422-1.508 23.088z" fill="none" stroke="#fff" stroke-width="4.2572269"/><path d="M200.036-80.682c-15.407 1.897-13.497 26.562 2.513 26.098 17.24-.496 16.114-28.389-2.513-26.098M150.853-63.116c-4.761 1.132-7.522 4.384-8.534 6.523-4.932 10.475 2.749 18.29 10.042 19.072 20.619 2.233 17.844-30.19-1.508-25.595" fill="#ed212a"/><path d="M305.436-54.082c-15.725.986-13.212 25.442 2.507 24.093 13.969-1.203 13.969-25.124-2.507-24.093" fill="#25285b"/><path d="M305.436-54.082c-15.725.986-13.212 25.442 2.507 24.093 13.969-1.203 13.969-25.124-2.507-24.093z" fill="none" stroke="#fff" stroke-width="4.2572269"/><path d="M75.066-32.501C58.01-31.896 57.845-4.576 76.07-4.894c16.724-.292 17.793-28.274-1.005-27.607" fill="#25285b"/><path d="M75.066-32.501C58.01-31.896 57.845-4.576 76.07-4.894c16.724-.292 17.793-28.274-1.005-27.607z" fill="none" stroke="#fff" stroke-width="4.2572269"/><path d="M332.12-19.701c13.873 0 12.123-22.681-2.513-19.073-11.24 3.405-6.803 19.073 2.513 19.073M156.375-30.492c-3.998.483-6.644 4.028-7.027 5.022-5.708 14.566 21.396 18.314 17.061.998-.852-3.41-4.645-6.676-10.034-6.02M38.5-27.565c-3.996.483-6.644 4.028-7.026 5.021-5.708 14.567 21.396 18.315 17.062.999-.853-3.41-4.646-6.676-10.036-6.02M323.001 3.638c5.32-17.254-7.72-31.502-25.596-29.108-12.421 1.66-19.326 11.76-19.072 22.584.599 25.054 37.852 28.644 44.668 6.524M198.032-24.97c-4.092.413-7.07 4.186-7.528 6.02-4.443 17.729 23.05 14.28 17.061-.999-.37-.961-3.22-5.657-9.533-5.021" fill="#ed212a"/><path d="M122.748-4.396c1.043-9.646-5.963-16.889-16.063-15.558-13.217 1.749-15.527 21.178-3.01 26.097 8.42 3.316 17.959-.26 19.073-10.539" fill="#25285b"/><path d="M122.748-4.396c1.043-9.646-5.963-16.889-16.063-15.558-13.217 1.749-15.527 21.178-3.01 26.097 8.42 3.316 17.959-.26 19.073-10.539z" fill="none" stroke="#fff" stroke-width="4.2572269"/><path d="M69.544 12.671C71.95-.839 60.883-11.944 47.461-9.412 38.813-7.782 32.481.783 32.405 8.655c-.23 22.535 33.46 24.692 37.14 4.016M197.027-1.381c-7.714.77-4.767 12.097 1.508 11.544 6.592-.592 6.968-12.397-1.508-11.544M84.603 3.636c-7.166.726-12.009 6.81-12.047 13.55-.09 16.577 26.74 19.536 27.606 1.005.414-8.955-5.766-15.541-15.559-14.555" fill="#ed212a"/><path d="M234.168 13.172c-3.15.471-5.175 2.718-5.021 6.523.337 8.145 12.79 7.7 12.549-.503-.103-3.513-1.941-6.853-7.528-6.02" fill="#25285b"/><path d="M234.168 13.172c-3.15.471-5.175 2.718-5.021 6.523.337 8.145 12.79 7.7 12.549-.503-.103-3.513-1.941-6.853-7.528-6.02z" fill="none" stroke="#fff" stroke-width="4.2572269"/><path d="M337.559 14.678c-4.232.77-6.052 4.493-6.523 6.02-4.544 14.662 18.57 18.174 18.57 3.52 0-6.072-4.43-10.927-12.047-9.54" fill="#25285b"/><path d="M337.559 14.678c-4.232.77-6.052 4.493-6.523 6.02-4.544 14.662 18.57 18.174 18.57 3.52 0-6.072-4.43-10.927-12.047-9.54z" fill="none" stroke="#fff" stroke-width="4.2572269"/><path d="M276.828 39.772c13.816 1.286 16.444-21.974-1.51-20.072-10.715 2.814-8.806 19.111 1.51 20.072M308.448 21.706c-4.257 1.444-7.973 3.296-10.036 6.02-12.224 16.15 10.807 36.374 25.093 22.082 11.264-11.264.675-31.825-15.057-28.102M93.637 33.75c-8.998 1.54-8.794 15.776-.503 17.564 13.746 2.965 15.636-20.16.503-17.564M273.817 47.302c-15.934.916-14.954 24.442-1.005 26.097 17.832 2.113 20.467-27.217 1.005-26.097M115.217 49.811c-12.633 1.565-7.466 20.619 4.518 17.57 8.336-2.126 7.75-19.091-4.518-17.57M312.964 69.384c-.37-6.07-4.99-9.042-11.041-8.03-5.34.897-7.134 4.237-7.026 9.036.243 10.722 18.83 11.608 18.067-1.006M7.308 65.37c-9.45 1.33-8.21 15.413-1 17.068 13.593 3.105 14.962-19.028 1-17.068M301.421 90.464c1.547-5.23-1.088-9.354-7.025-8.533-3.176.439-4.817 2.933-5.021 5.523-.668 8.572 10.373 8.656 12.046 3.01" fill="#ed212a"/><path d="M316.981 84.442c-14.376 3.118-14.796 24.99-2.012 29.108 25.684 8.273 27.359-34.6 2.012-29.108" fill="#25285b"/><path d="M316.981 84.442c-14.376 3.118-14.796 24.99-2.012 29.108 25.684 8.273 27.359-34.6 2.012-29.108z" fill="none" stroke="#fff" stroke-width="4.2572269"/><path d="M20.861 87.956c-6.873 1.082-12.721 9.119-10.036 17.564 1.177 3.723 5.149 6.886 6.524 7.528 21.363 10.016 27.377-28.841 3.512-25.092" fill="#25285b"/><path d="M20.861 87.956c-6.873 1.082-12.721 9.119-10.036 17.564 1.177 3.723 5.149 6.886 6.524 7.528 21.363 10.016 27.377-28.841 3.512-25.092z" fill="none" stroke="#fff" stroke-width="4.2572269"/><path d="M289.877 135.134c-5.974 1.31-10.34 6.114-10.041 13.548.477 11.76 15.221 17.017 23.093 8.533 8.783-9.47-.158-24.908-13.052-22.081" fill="#25285b"/><path d="M289.877 135.134c-5.974 1.31-10.34 6.114-10.041 13.548.477 11.76 15.221 17.017 23.093 8.533 8.783-9.47-.158-24.908-13.052-22.081z" fill="none" stroke="#fff" stroke-width="4.2572269"/><path d="M42.443 137.642c-8.89 2.342-7.147 16.648 1.508 17.565 13.389 1.419 12.766-21.325-1.508-17.565" fill="#25285b"/><path d="M42.443 137.642c-8.89 2.342-7.147 16.648 1.508 17.565 13.389 1.419 12.766-21.325-1.508-17.565z" fill="none" stroke="#fff" stroke-width="4.2572269"/><path d="M68.04 145.672c-17.297 1.228-15.255 27.963 1.501 27.607 16.33-.35 18.608-29.032-1.502-27.607" fill="#25285b"/><path d="M68.04 145.672c-17.297 1.228-15.255 27.963 1.501 27.607 16.33-.35 18.608-29.032-1.502-27.607z" fill="none" stroke="#fff" stroke-width="4.2572269"/><path d="M268.797 162.736c-9.068 1.127-9.418 15.554-1.508 17.571 14.096 3.583 16.394-19.416 1.508-17.57M236.676 168.76c-14.643 1.343-18.11 23.522-5.02 29.108 24.43 10.431 30.527-31.449 5.02-29.108M84.603 173.779c-3.29.553-5.498 3.45-6.027 4.519-6.192 12.593 17.43 19.562 17.068 4.016-.121-5.352-4.118-9.699-11.041-8.535M132.783 179.3c-13.816 2.018-12.855 23.731-.503 26.099 20.121 3.856 22.877-28.855.503-26.099" fill="#ed212a"/><path d="M190.252 62.146c.472-.915.773-1.471 1.05-2.039 4.753-9.815 14.505-15.153 24.987-13.672 9.95 1.407 18.63 9.803 20.378 19.99 1.374 8.006.194 15.705-3.202 23.091-5.638 12.266-14.526 21.868-24.501 30.503-5.083 4.4-10.6 8.284-15.924 12.395-1.772 1.368-3.517 1.358-5.381.07-12.206-8.436-23.476-17.922-32.586-29.817-5.668-7.4-10.158-15.416-11.376-24.885-1.581-12.314 2.187-22.716 12.772-28.64 11.815-6.612 26.587-1.759 32.595 10.49.345.703.67 1.415 1.188 2.514" fill="#25285b"/><path d="M190.252 62.146c.472-.915.773-1.471 1.05-2.039 4.753-9.815 14.505-15.153 24.987-13.672 9.95 1.407 18.63 9.803 20.378 19.99 1.374 8.006.194 15.705-3.202 23.091-5.638 12.266-14.526 21.868-24.501 30.503-5.083 4.4-10.6 8.284-15.924 12.395-1.772 1.368-3.517 1.358-5.381.07-12.206-8.436-23.476-17.922-32.586-29.817-5.668-7.4-10.158-15.416-11.376-24.885-1.581-12.314 2.187-22.716 12.772-28.64 11.815-6.612 26.587-1.759 32.595 10.49.345.703.67 1.415 1.188 2.514z" fill="none" stroke="#25285b" stroke-width="4.95760939" stroke-miterlimit="10"/><g clip-path="url(#a)" transform="matrix(1.3333333,0,0,-1.3333333,-5.6360724,365.98437) scale(0.1,0.1)"><g clip-path="url(#b)"><path d="M870.602 2447.99H2112.5v-778.88H868.473v772.44c-.176 3.06-.356 6.08 2.129 6.44m492.928-243.27c7.14-4.39 14.55-12.16 23.47-10.69v247.52c-135.86-1.42-277.39 2.84-409.695-2.13 126.755-76.71 262.125-158.3 386.225-234.7m55.46 230.49V2130H876.992v-108.79h541.998v-311.55h102.44c1.42 102.45-2.84 210.57 2.13 309.42h539.87v108.84c-179.96 1.42-365.59-2.89-542 2.08v311.55h-100.27c-2.53-.35-2.35-3.32-2.17-6.34m132.3 6.34c-4.97-81.77-.71-172.81-2.13-258.17 125.47 74.76 269.49 162.69 396.87 241.14 7.99 4.92 24.18 10.69 19.21 17.03zm471.58 0c-154.79-94.86-310.57-188.74-465.19-283.77 54.08-6.79 73.78 13.84 106.71 34.16 118.77 73.07 231.46 140.73 345.66 209.1 18.59 11.1 40.29 22.46 53.38 40.51zm-1145.878-42.63c115.133-68.15 234.168-140.3 349.968-211.28 30.44-18.64 53.16-39.89 98.14-27.73-150.76 89.66-300.32 180.53-448.108 273.12zm0-245.4c118.106 1.42 241.848-2.84 356.358 2.13-120.81 69.79-237.498 143.7-356.358 215.49zM2057 2360.49c-100.81-63.44-215.59-125.03-313.64-189.94-4.13-2.66-15.66-5.14-12.82-12.77h332.89c-1.47 68.28 2.84 142.24-2.13 206.97-.04-2.84-3.77-1.95-4.3-4.26m-12.83-569.72c5.42-3.29 11.27-12.56 19.26-8.52v213.36c-118.11-1.42-241.85 2.84-356.36-2.13 110.87-65.17 229.33-137.31 337.1-202.71M879.168 1991.35c-3.598-64.02-3.598-142.99 0-206.97 100.355 66.28 217.712 127.87 317.892 194.15 3.99 2.62 15.8 5.33 12.82 12.82zm448.072-4.26c-112.97-63.89-228.85-137.76-339.287-204.84-38.242-23.29-77.555-44.77-110.961-72.59h44.813c152.795 94.73 307.825 187.23 460.935 281.69-15.93.85-46.81.63-55.5-4.26m516.39-136.6c65-39.67 134.48-77.34 196.28-117.36 7.01-4.52 13.13-15.53 23.52-12.82v27.78c-113.14 70.81-233.78 142.15-349.98 213.36-30.43 18.68-53.15 39.93-98.14 27.73 76.58-43.21 151.83-91.97 228.32-138.69m-667.91-14.91c-59.94-36.96-122.06-76-179.204-110.96-8.161-5.02-25.02-8.75-19.211-14.96h413.955v253.96c-.49 1.65-.09 4.22-2.13 4.26-65.76-44.85-141.76-88.24-213.41-132.3m377.7-125.92c135.15 1.47 275.97-2.84 407.56 2.13-137.41 80.97-272.28 164.47-407.56 247.53v-249.66" fill="#fff"/><path d="M977.305 2439.44c132.305 4.97 273.835.71 409.685 2.13v-247.53c-8.91-1.47-16.32 6.3-23.47 10.69-124.09 76.36-259.46 157.99-386.215 234.71M1965.25 2441.56c4.92-6.34-11.23-12.11-19.21-17.04-127.38-78.44-271.4-166.42-396.91-241.13 1.46 85.36-2.85 176.4 2.17 258.17h413.95" fill="#25285b"/><path d="M2063.41 2441.56c-13.09-18.06-34.79-29.41-53.37-40.55-114.21-68.33-226.9-135.99-345.63-209.11-32.96-20.27-52.67-40.9-106.75-34.11 154.62 95.03 310.44 188.91 465.2 283.77h40.55M877.016 2433.03c147.784-92.6 297.354-183.47 448.114-273.13-44.99-12.16-67.75 9.09-98.19 27.73-115.8 70.99-234.792 143.13-349.924 211.28v34.12" fill="#ed212a"/><path d="M877.016 2371.16c118.816-71.83 235.504-145.75 356.314-215.5-114.47-5.01-238.256-.7-356.314-2.17v217.67M2061.28 2364.77c4.97-64.74.71-138.7 2.13-206.98h-332.89c-2.84 7.63 8.7 10.07 12.82 12.78 98.05 64.86 212.83 126.49 313.68 189.94.53 2.3 4.22 1.42 4.26 4.26M1707.06 1993.47c114.52 4.97 238.26.71 356.36 2.13v-213.36c-7.98-4.04-13.84 5.28-19.21 8.52-107.81 65.44-226.27 137.54-337.15 202.71M1209.88 1991.34c2.97-7.49-8.83-10.16-12.82-12.82-100.19-66.28-217.537-127.87-317.896-194.15-3.594 64.02-3.594 142.95 0 206.97h330.716" fill="#25285b"/><path d="M1382.73 1991.34c-153.12-94.45-308.14-186.96-460.894-281.69h-44.813c33.364 27.87 72.676 49.3 110.965 72.59 110.382 67.08 226.272 140.96 339.282 204.85 8.65 4.88 39.53 5.1 55.46 4.25M1615.33 1989.2c44.98 12.15 67.7-9.05 98.14-27.73 116.2-71.21 236.83-142.6 349.92-213.37v-27.77c-10.33-2.71-16.46 8.3-23.47 12.82-61.8 39.98-131.28 77.69-196.28 117.35-76.53 46.68-151.74 95.48-228.31 138.7" fill="#ed212a"/><path d="M1389.13 1967.87c2.04-.05 1.64-2.62 2.13-4.26v-253.92H977.309c-5.856 6.17 11.004 9.94 19.211 14.91 57.15 34.96 119.26 74.05 179.2 110.96 71.66 44.1 147.66 87.49 213.41 132.31M1553.44 1959.33c135.27-83.1 270.11-166.6 407.56-247.53-131.6-4.97-272.42-.71-407.56-2.13v249.66" fill="#25285b"/><path d="M1558.74 2130.03h-41.26v318.7h41.26v-318.7M1422.17 2130.03h-41.26v318.7h41.26v-318.7" fill="#fff"/><path d="M2085.16 2127.19H1518.9v41.27h566.26v-41.27M2085.16 1978.87H1518.9v41.26h566.26v-41.26M1421.42 1978.87H855.199v41.26h566.221v-41.26M1418.27 2127.19H852.004v41.27h566.266v-41.27" fill="#fff"/><path d="M1421.15 2441.56h100.27v-311.55c176.4-4.97 362.04-.71 541.99-2.13v-108.83h-539.86c-4.97-98.85-.71-206.98-2.13-309.38h-102.4v311.55h-542v108.79h542v305.16c-.22 3.02-.36 6.04 2.13 6.39" fill="#ed212a"/></g></g></g></svg>