<?xml version="1.0" encoding="utf-8"?>
<svg id="svg2" version="1.1" viewBox="-11.272000312805176 -151.2519989013672 1234.7230224609375 360.5069885253906" width="359.76346" height="103.06557" xmlns="http://www.w3.org/2000/svg">
  <defs id="defs6">
    <clipPath id="clipPath222" clipPathUnits="userSpaceOnUse">
      <path id="path220" d="m 1469.16,2275.69 c -3.89,8.24 -6.32,13.59 -8.91,18.86 -45.06,91.86 -155.85,128.26 -244.46,78.67 -79.39,-44.42 -107.65,-122.45 -95.79,-214.8 9.13,-71.02 42.81,-131.14 85.32,-186.64 68.32,-89.21 152.85,-160.36 244.39,-223.63 13.98,-9.66 27.07,-9.73 40.36,0.53 39.93,30.84 81.31,59.97 119.43,92.96 74.81,64.76 141.47,136.78 183.76,228.77 25.47,55.4 34.32,113.14 24.01,173.18 -13.11,76.41 -78.2,139.38 -152.83,149.93 -78.62,11.11 -151.76,-28.92 -187.41,-102.54 -2.07,-4.26 -4.33,-8.43 -7.87,-15.29 z"/>
    </clipPath>
    <clipPath id="clipPath228" clipPathUnits="userSpaceOnUse">
      <path id="path226" d="m 1469.16,2275.69 c 3.54,6.86 5.8,11.03 7.87,15.29 35.65,73.62 108.79,113.65 187.41,102.54 74.63,-10.55 139.72,-73.52 152.83,-149.93 10.31,-60.04 1.46,-117.78 -24.01,-173.18 -42.29,-91.99 -108.95,-164.01 -183.76,-228.77 -38.12,-32.99 -79.5,-62.12 -119.43,-92.96 -13.29,-10.26 -26.38,-10.19 -40.36,-0.53 -91.54,63.27 -176.07,134.42 -244.39,223.63 -42.51,55.5 -76.19,115.62 -85.32,186.64 -11.86,92.35 16.4,170.38 95.79,214.8 88.61,49.59 199.4,13.19 244.46,-78.67 2.59,-5.27 5.02,-10.62 8.91,-18.86 z"/>
    </clipPath>
  </defs>
  <g transform="matrix(1.3333333,0,0,-1.3333333,-5.6360724,365.98437)" id="g10">
    <g transform="scale(0.1,0.1)" id="g12">
      <g transform="matrix(1.814838,0,0,1.814838,-2374.7561,-1907.833)" id="g11">
        <g transform="matrix(13.18029, 0, 0, 13.18029, 2677.143799, 1659.795532)" id="g14">
          <text id="text18" transform="matrix(1,0,0,-1,70.3895,17.9992)" style="fill: rgb(237, 33, 42); font-family: BentonSans; font-size: 38.5659px; line-height: 61.7055px; white-space: pre;">LONDON
</text>
        </g>
        <g transform="matrix(13.18029,0,0,13.18029,2876.762,1697.8844)" id="g20">
          <text id="text24" style="font-weight:normal;font-size:56px;font-family:Georgia;writing-mode:lr-tb;white-space:pre;fill:#25285b;fill-opacity:1;fill-rule:nonzero;stroke:none" transform="matrix(1,0,0,-1,6.43398,59.9129)"><tspan id="tspan22" y="0" x="0">Hands</tspan></text>
        </g>
        <g transform="matrix(13.18029,0,0,13.18029,2876.762,1697.8844)" id="g26">
          <text id="text30" style="font-weight:normal;font-size:56px;font-family:Georgia;writing-mode:lr-tb;white-space:pre;fill:#ed212a;fill-opacity:1;fill-rule:nonzero;stroke:none" transform="matrix(1, 0, 0, -1, 0, 0)" x="184.286" y="-61.771"><tspan id="tspan28" y="-61.771" x="184.286" style="word-spacing: 0px;" transform="">On</tspan></text>
        </g>
      </g>
      <g id="g22">
        <path id="path32" style="fill:#ed212a;fill-opacity:1;fill-rule:nonzero;stroke:none" d="m 1538.8,3741.48 c 0,-61.19 84,-104.05 131.73,-48.93 90.11,104 -131.73,186.72 -131.73,48.93"/>
        <path id="path34" style="fill:#ed212a;fill-opacity:1;fill-rule:nonzero;stroke:none" d="m 1553.84,3598.43 c 50.98,57.9 -73.45,102.48 -71.54,26.35 0.95,-36.56 47.77,-53.36 71.54,-26.35"/>
        <path id="path36" style="fill:#ed212a;fill-opacity:1;fill-rule:nonzero;stroke:none" d="m 1072.02,3575.86 c 24.96,-105 199.98,-3.96 109.15,71.5 -54.41,45.29 -125.57,-2.34 -109.15,-71.5"/>
        <path id="path38" style="fill:#ed212a;fill-opacity:1;fill-rule:nonzero;stroke:none" d="m 1034.38,3587.14 c -93.603,88.74 -222.419,-51.54 -139.278,-139.26 87.871,-92.74 233.918,49.54 139.278,139.26"/>
        <path id="path40" style="fill:#ed212a;fill-opacity:1;fill-rule:nonzero;stroke:none" d="m 1102.14,3304.83 c 99.89,-98.7 225.61,60.09 139.27,143.04 -90.35,86.82 -230.34,-53.07 -139.27,-143.04"/>
        <path id="path42" style="fill:#25285b;fill-opacity:1;fill-rule:nonzero;stroke:none" d="m 740.773,3161.79 c 127.2,1.57 188.864,161.03 97.891,248.42 -26.918,25.83 -60.805,41.91 -101.66,41.43 -177.07,-2.1 -192.492,-292.24 3.769,-289.85"/>
        <path id="path44" style="fill:none;stroke:#ffffff;stroke-width:31.93040085;stroke-linecap:butt;stroke-linejoin:miter;stroke-miterlimit:4;stroke-dasharray:none;stroke-opacity:1" d="m 740.773,3161.79 c 127.2,1.57 188.864,161.03 97.891,248.42 -26.918,25.83 -60.805,41.91 -101.66,41.43 -177.07,-2.1 -192.492,-292.24 3.769,-289.85 z"/>
        <path id="path46" style="fill:#25285b;fill-opacity:1;fill-rule:nonzero;stroke:none" d="m 2084.84,3196.49 c -16.43,82.47 -138.46,122.42 -207.05,56.46 -18.71,-18.04 -28.83,-36.51 -33.84,-60.23 -39.57,-185.43 282.69,-206.67 240.89,3.77"/>
        <path id="path48" style="fill:#25285b;fill-opacity:1;fill-rule:nonzero;stroke:none" d="m 2002.22,2959.18 c -11.13,55.94 -93.89,83 -140.42,38.28 -12.7,-12.22 -19.52,-24.72 -22.96,-40.85 -26.82,-125.72 191.73,-140.14 163.38,2.57"/>
        <path id="path50" style="fill:#25285b;fill-opacity:1;fill-rule:nonzero;stroke:none" d="m 458.461,2969.82 c 24.437,8.97 48.062,25.1 67.773,45.15 111.446,113.73 32.598,296.49 -97.89,316.2 -145.906,22.05 -237.926,-95.22 -222.082,-214.54 13.41,-101.04 121.898,-194.68 252.199,-146.81"/>
        <path id="path52" style="fill:none;stroke:#ffffff;stroke-width:31.93040085;stroke-linecap:butt;stroke-linejoin:miter;stroke-miterlimit:4;stroke-dasharray:none;stroke-opacity:1" d="m 458.461,2969.82 c 24.437,8.97 48.062,25.1 67.773,45.15 111.446,113.73 32.598,296.49 -97.89,316.2 -145.906,22.05 -237.926,-95.22 -222.082,-214.54 13.41,-101.04 121.898,-194.68 252.199,-146.81 z"/>
        <path id="path54" style="fill:#25285b;fill-opacity:1;fill-rule:nonzero;stroke:none" d="m 2370.57,3244.2 c 1.67,-44.25 59.7,-73.5 96.26,-36.08 10.31,10.54 16.8,22.52 16.85,38.51 0.24,72.45 -115.98,74.12 -113.11,-2.43"/>
        <path id="path56" style="fill:#25285b;fill-opacity:1;fill-rule:nonzero;stroke:none" d="m 1963.46,3347.97 c 1.67,-44.24 59.71,-73.5 96.27,-36.08 10.31,10.54 16.8,22.52 16.85,38.51 0.24,72.46 -115.99,74.12 -113.12,-2.43"/>
        <path id="path58" style="fill:#25285b;fill-opacity:1;fill-rule:nonzero;stroke:none" d="m 2161.03,3226.24 c 1.67,-44.25 59.71,-73.51 96.27,-36.08 10.3,10.54 16.8,22.52 16.84,38.51 0.24,72.46 -115.98,74.12 -113.11,-2.43"/>
        <path id="path60" style="fill:#25285b;fill-opacity:1;fill-rule:nonzero;stroke:none" d="m 2212.29,3407.48 c 2,-52.55 70.88,-87.29 114.31,-42.86 12.27,12.51 19.95,26.78 20,45.72 0.33,86.06 -137.7,88.02 -134.31,-2.86"/>
        <path id="path62" style="fill:#25285b;fill-opacity:1;fill-rule:nonzero;stroke:none" d="m 800.996,3135.43 c -17.133,-3.1 -27.875,-9.11 -45.199,-26.34 -50.926,-50.79 -24.77,-143.38 30.117,-161.85 154.781,-52.07 189.246,219.5 15.082,188.19"/>
        <path id="path64" style="fill:none;stroke:#ffffff;stroke-width:31.93040085;stroke-linecap:butt;stroke-linejoin:miter;stroke-miterlimit:4;stroke-dasharray:none;stroke-opacity:1" d="m 800.996,3135.43 c -17.133,-3.1 -27.875,-9.11 -45.199,-26.34 -50.926,-50.79 -24.77,-143.38 30.117,-161.85 154.781,-52.07 189.246,219.5 15.082,188.19 z"/>
        <path id="path66" style="fill:#ed212a;fill-opacity:1;fill-rule:nonzero;stroke:none" d="m 1542.54,2950.98 c 71.83,-0.81 108.16,88.2 60.24,139.27 -108.11,115.32 -220.27,-137.41 -60.24,-139.27"/>
        <path id="path68" style="fill:#ed212a;fill-opacity:1;fill-rule:nonzero;stroke:none" d="m 240.148,2939.7 c -4.632,141.42 -246.472,55.79 -146.816,-56.47 50.496,-56.84 149.246,-18.37 146.816,56.47"/>
        <path id="path70" style="fill:#25285b;fill-opacity:1;fill-rule:nonzero;stroke:none" d="m 1922.74,2762.77 c 0.81,24.11 -6.3,38.9 -22.58,52.7 -40.81,34.65 -97.22,13.12 -109.2,-26.35 -30.79,-101.61 128.48,-122.81 131.78,-26.35"/>
        <path id="path72" style="fill:none;stroke:#ffffff;stroke-width:31.93040085;stroke-linecap:butt;stroke-linejoin:miter;stroke-miterlimit:4;stroke-dasharray:none;stroke-opacity:1" d="m 1922.74,2762.77 c 0.81,24.11 -6.3,38.9 -22.58,52.7 -40.81,34.65 -97.22,13.12 -109.2,-26.35 -30.79,-101.61 128.48,-122.81 131.78,-26.35 z"/>
        <path id="path74" style="fill:#ed212a;fill-opacity:1;fill-rule:nonzero;stroke:none" d="m 142.262,2585.86 c 107.437,1.24 140.992,133.83 79.039,195.74 -40.332,40.38 -110.203,45.24 -158.078,0 -75.313,-71.17 -15.414,-196.83 79.039,-195.74"/>
        <path id="path76" style="fill:#ed212a;fill-opacity:1;fill-rule:nonzero;stroke:none" d="m 1196.24,2736.44 c 1.52,-37.14 56.89,-59.62 82.85,-26.35 55.42,71.16 -86.29,109.82 -82.85,26.35"/>
        <path id="path78" style="fill:#ed212a;fill-opacity:1;fill-rule:nonzero;stroke:none" d="m 240.148,2480.46 c -30.308,62.66 -140.8,92.97 -203.277,33.88 -79.137,-74.79 -17.66,-204.85 60.234,-218.31 108.2,-18.76 190.098,87.06 143.043,184.43"/>
        <path id="path80" style="fill:#ed212a;fill-opacity:1;fill-rule:nonzero;stroke:none" d="m 2645.35,2783.96 c -14.51,29.93 -67.25,44.39 -97.08,16.18 -37.75,-35.75 -8.4,-97.8 28.78,-104.24 51.64,-8.92 90.73,41.57 68.3,88.06"/>
        <path id="path82" style="fill:#ed212a;fill-opacity:1;fill-rule:nonzero;stroke:none" d="m 514.93,2265.91 c -9.262,107.77 -143.711,167.1 -233.395,94.12 -77.797,-63.38 -56.226,-205.66 33.887,-240.93 84.957,-33.27 210.199,22.33 199.508,146.81"/>
        <path id="path84" style="fill:#ed212a;fill-opacity:1;fill-rule:nonzero;stroke:none" d="m 2445.96,2250.85 c 0.76,-26.83 9.59,-46.06 30.11,-67.78 80.62,-85.24 219.22,14.66 169.39,120.47 -45.05,95.74 -202.46,53.12 -199.5,-52.69"/>
        <path id="path86" style="fill:#ed212a;fill-opacity:1;fill-rule:nonzero;stroke:none" d="m 650.445,2055.11 c 48.633,54.08 3.196,124.62 -56.465,124.19 -98.035,-0.67 -89.679,-149.25 0,-150.53 22.243,-0.34 42.286,10.64 56.465,26.34"/>
        <path id="path88" style="fill:#25285b;fill-opacity:1;fill-rule:nonzero;stroke:none" d="m 2148.6,1915.83 c 122.57,110.44 -51.55,308.51 -176.93,188.19 -112.97,-108.34 49.45,-303.03 176.93,-188.19"/>
        <path id="path90" style="fill:none;stroke:#ffffff;stroke-width:31.93040085;stroke-linecap:butt;stroke-linejoin:miter;stroke-miterlimit:4;stroke-dasharray:none;stroke-opacity:1" d="m 2148.6,1915.83 c 122.57,110.44 -51.55,308.51 -176.93,188.19 -112.97,-108.34 49.45,-303.03 176.93,-188.19 z"/>
        <path id="path92" style="fill:#25285b;fill-opacity:1;fill-rule:nonzero;stroke:none" d="m 379.398,1976.06 c -93.406,-91.21 -19.808,-268.66 131.782,-240.93 30.687,5.63 74.785,33.65 94.07,71.55 77.703,152.44 -119.988,272.72 -225.852,169.38"/>
        <path id="path94" style="fill:none;stroke:#ffffff;stroke-width:31.93040085;stroke-linecap:butt;stroke-linejoin:miter;stroke-miterlimit:4;stroke-dasharray:none;stroke-opacity:1" d="m 379.398,1976.06 c -93.406,-91.21 -19.808,-268.66 131.782,-240.93 30.687,5.63 74.785,33.65 94.07,71.55 77.703,152.44 -119.988,272.72 -225.852,169.38 z"/>
        <path id="path96" style="fill:#25285b;fill-opacity:1;fill-rule:nonzero;stroke:none" d="m 834.879,1833.02 c -2.434,70.26 -90.539,111.21 -146.813,60.24 -17.898,-16.23 -22.433,-25.59 -26.347,-45.16 -23.625,-118.79 177.836,-148.91 173.16,-15.08"/>
        <path id="path98" style="fill:none;stroke:#ffffff;stroke-width:31.93040085;stroke-linecap:butt;stroke-linejoin:miter;stroke-miterlimit:4;stroke-dasharray:none;stroke-opacity:1" d="m 834.879,1833.02 c -2.434,70.26 -90.539,111.21 -146.813,60.24 -17.898,-16.23 -22.433,-25.59 -26.347,-45.16 -23.625,-118.79 177.836,-148.91 173.16,-15.08 z"/>
        <path id="path100" style="fill:#ed212a;fill-opacity:1;fill-rule:nonzero;stroke:none" d="m 2058.25,1795.38 c -21.81,21.29 -40.95,31.65 -67.77,37.66 -215.64,48.11 -243.85,-291.38 -33.89,-289.85 121.66,0.85 196.93,159.22 101.66,252.19"/>
        <path id="path102" style="fill:#ed212a;fill-opacity:1;fill-rule:nonzero;stroke:none" d="m 895.109,1746.45 c -125.671,4.01 -202.418,-103.86 -188.195,-210.82 20.477,-154.35 216.879,-195.35 312.436,-97.84 115.88,118.22 20.23,304.03 -124.241,308.66"/>
        <path id="path104" style="fill:#ed212a;fill-opacity:1;fill-rule:nonzero;stroke:none" d="m 1237.65,3715.13 c 60.71,15.46 49.64,134.5 -37.65,116.7 -76.28,-15.61 -40.14,-136.51 37.65,-116.7"/>
        <path id="path106" style="fill:#ed212a;fill-opacity:1;fill-rule:nonzero;stroke:none" d="m 1422.1,3831.81 c -65.39,-12.98 -37.51,-115.26 22.58,-109.15 58.99,6.01 70.45,127.63 -22.58,109.15"/>
        <path id="path108" style="fill:#ed212a;fill-opacity:1;fill-rule:nonzero;stroke:none" d="m 1000.51,3639.84 c 127,2.1 100.89,207 -26.35,173.16 -41.574,-11.02 -64.816,-37.13 -64.004,-86.58 0.86,-51.64 43.91,-87.34 90.354,-86.58"/>
        <path id="path110" style="fill:#25285b;fill-opacity:1;fill-rule:nonzero;stroke:none" d="m 1802.28,3477.98 c 205.38,-21.67 191.01,294.72 -7.54,267.23 -150.39,-20.8 -139.42,-251.72 7.54,-267.23"/>
        <path id="path112" style="fill:none;stroke:#ffffff;stroke-width:31.93040085;stroke-linecap:butt;stroke-linejoin:miter;stroke-miterlimit:4;stroke-dasharray:none;stroke-opacity:1" d="m 1802.28,3477.98 c 205.38,-21.67 191.01,294.72 -7.54,267.23 -150.39,-20.8 -139.42,-251.72 7.54,-267.23 z"/>
        <path id="path114" style="fill:#ed212a;fill-opacity:1;fill-rule:nonzero;stroke:none" d="m 1324.23,3722.66 c -102.38,-22.19 -85.48,-184.47 22.57,-184.47 130.64,0 113.17,213.92 -22.57,184.47"/>
        <path id="path116" style="fill:#25285b;fill-opacity:1;fill-rule:nonzero;stroke:none" d="m 737.02,3504.33 c 128.96,-1.53 144.425,220.98 -11.317,207.05 -125.379,-11.27 -110.726,-205.57 11.317,-207.05"/>
        <path id="path118" style="fill:none;stroke:#ffffff;stroke-width:31.93040085;stroke-linecap:butt;stroke-linejoin:miter;stroke-miterlimit:4;stroke-dasharray:none;stroke-opacity:1" d="m 737.02,3504.33 c 128.96,-1.53 144.425,220.98 -11.317,207.05 -125.379,-11.27 -110.726,-205.57 11.317,-207.05 z"/>
        <path id="path120" style="fill:#25285b;fill-opacity:1;fill-rule:nonzero;stroke:none" d="m 2152.36,3477.98 c 26.39,74.74 -28.06,149.2 -112.93,135.5 -25.62,-4.1 -50.06,-22.96 -60.23,-37.6 -87.06,-126.11 128.68,-223.9 173.16,-97.9"/>
        <path id="path122" style="fill:#ed212a;fill-opacity:1;fill-rule:nonzero;stroke:none" d="m 1546.32,3376.34 c 121.9,-13.79 140.37,182.09 11.31,180.7 -115.69,-1.29 -110.49,-169.43 -11.31,-180.7"/>
        <path id="path124" style="fill:#25285b;fill-opacity:1;fill-rule:nonzero;stroke:none" d="m 484.809,3372.59 c 75.55,-26.49 149.054,38.85 120.464,120.46 -13.316,37.9 -60.855,64.15 -109.152,52.7 -83.48,-19.81 -89.683,-145.67 -11.312,-173.16"/>
        <path id="path126" style="fill:none;stroke:#ffffff;stroke-width:31.93040085;stroke-linecap:butt;stroke-linejoin:miter;stroke-miterlimit:4;stroke-dasharray:none;stroke-opacity:1" d="m 484.809,3372.59 c 75.55,-26.49 149.054,38.85 120.464,120.46 -13.316,37.9 -60.855,64.15 -109.152,52.7 -83.48,-19.81 -89.683,-145.67 -11.312,-173.16 z"/>
        <path id="path128" style="fill:#ed212a;fill-opacity:1;fill-rule:nonzero;stroke:none" d="m 1542.54,3350 c -115.55,-14.23 -101.23,-199.22 18.85,-195.74 129.3,3.72 120.85,212.92 -18.85,195.74"/>
        <path id="path130" style="fill:#ed212a;fill-opacity:1;fill-rule:nonzero;stroke:none" d="m 1173.67,3218.25 c -35.71,-8.49 -56.42,-32.88 -64.01,-48.92 -36.99,-78.56 20.62,-137.17 75.32,-143.04 154.64,-16.75 133.83,226.42 -11.31,191.96"/>
        <path id="path132" style="fill:#25285b;fill-opacity:1;fill-rule:nonzero;stroke:none" d="m 2333.04,3150.5 c -117.94,-7.4 -99.09,-190.82 18.8,-180.7 104.77,9.02 104.77,188.43 -18.8,180.7"/>
        <path id="path134" style="fill:none;stroke:#ffffff;stroke-width:31.93040085;stroke-linecap:butt;stroke-linejoin:miter;stroke-miterlimit:4;stroke-dasharray:none;stroke-opacity:1" d="m 2333.04,3150.5 c -117.94,-7.4 -99.09,-190.82 18.8,-180.7 104.77,9.02 104.77,188.43 -18.8,180.7 z"/>
        <path id="path136" style="fill:#25285b;fill-opacity:1;fill-rule:nonzero;stroke:none" d="m 605.262,2988.64 c -127.918,-4.54 -129.157,-209.44 7.539,-207.05 125.429,2.19 133.449,212.05 -7.539,207.05"/>
        <path id="path138" style="fill:none;stroke:#ffffff;stroke-width:31.93040085;stroke-linecap:butt;stroke-linejoin:miter;stroke-miterlimit:4;stroke-dasharray:none;stroke-opacity:1" d="m 605.262,2988.64 c -127.918,-4.54 -129.157,-209.44 7.539,-207.05 125.429,2.19 133.449,212.05 -7.539,207.05 z"/>
        <path id="path140" style="fill:#ed212a;fill-opacity:1;fill-rule:nonzero;stroke:none" d="m 2533.17,2892.64 c 104.05,0 90.92,170.11 -18.85,143.05 -84.29,-25.54 -51.02,-143.05 18.85,-143.05"/>
        <path id="path142" style="fill:#ed212a;fill-opacity:1;fill-rule:nonzero;stroke:none" d="m 1215.08,2973.57 c -29.98,-3.62 -49.83,-30.21 -52.7,-37.66 -42.81,-109.25 160.47,-137.36 127.96,-7.49 -6.39,25.58 -34.84,50.07 -75.26,45.15"/>
        <path id="path144" style="fill:#ed212a;fill-opacity:1;fill-rule:nonzero;stroke:none" d="m 331.023,2951.62 c -29.976,-3.62 -49.832,-30.21 -52.695,-37.66 -42.812,-109.25 160.465,-137.36 127.961,-7.49 -6.394,25.58 -34.844,50.07 -75.266,45.15"/>
        <path id="path146" style="fill:#ed212a;fill-opacity:1;fill-rule:nonzero;stroke:none" d="m 2464.78,2717.6 c 39.9,129.4 -57.9,236.26 -191.97,218.31 -93.16,-12.45 -144.95,-88.2 -143.04,-169.38 4.49,-187.91 283.89,-214.83 335.01,-48.93"/>
        <path id="path148" style="fill:#ed212a;fill-opacity:1;fill-rule:nonzero;stroke:none" d="m 1527.51,2932.16 c -30.69,-3.1 -53.03,-31.4 -56.46,-45.15 -33.32,-132.97 172.87,-107.1 127.96,7.49 -2.77,7.21 -24.15,42.43 -71.5,37.66"/>
        <path id="path150" style="fill:#25285b;fill-opacity:1;fill-rule:nonzero;stroke:none" d="m 962.879,2777.85 c 7.824,72.35 -44.723,126.67 -120.469,116.69 -99.129,-13.12 -116.457,-158.84 -22.574,-195.73 63.144,-24.87 134.687,1.95 143.043,79.04"/>
        <path id="path152" style="fill:none;stroke:#ffffff;stroke-width:31.93040085;stroke-linecap:butt;stroke-linejoin:miter;stroke-miterlimit:4;stroke-dasharray:none;stroke-opacity:1" d="m 962.879,2777.85 c 7.824,72.35 -44.723,126.67 -120.469,116.69 -99.129,-13.12 -116.457,-158.84 -22.574,-195.73 63.144,-24.87 134.687,1.95 143.043,79.04 z"/>
        <path id="path154" style="fill:#ed212a;fill-opacity:1;fill-rule:nonzero;stroke:none" d="m 563.852,2649.85 c 18.039,101.33 -64.961,184.61 -165.622,165.62 -64.863,-12.22 -112.351,-76.46 -112.925,-135.5 -1.719,-169.01 250.957,-185.19 278.547,-30.12"/>
        <path id="path156" style="fill:#ed212a;fill-opacity:1;fill-rule:nonzero;stroke:none" d="m 1519.97,2755.24 c -57.85,-5.77 -35.75,-90.73 11.31,-86.58 49.44,4.44 52.26,92.98 -11.31,86.58"/>
        <path id="path158" style="fill:#ed212a;fill-opacity:1;fill-rule:nonzero;stroke:none" d="m 676.793,2717.61 c -53.746,-5.44 -90.066,-51.07 -90.352,-101.62 -0.671,-124.33 200.555,-146.52 207.043,-7.54 3.106,67.16 -43.242,116.56 -116.691,109.16"/>
        <path id="path160" style="fill:#25285b;fill-opacity:1;fill-rule:nonzero;stroke:none" d="m 1798.53,2646.09 c -23.63,-3.53 -38.81,-20.38 -37.66,-48.92 2.53,-61.09 95.93,-57.75 94.12,3.77 -0.77,26.35 -14.56,51.4 -56.46,45.15"/>
        <path id="path162" style="fill:none;stroke:#ffffff;stroke-width:31.93040085;stroke-linecap:butt;stroke-linejoin:miter;stroke-miterlimit:4;stroke-dasharray:none;stroke-opacity:1" d="m 1798.53,2646.09 c -23.63,-3.53 -38.81,-20.38 -37.66,-48.92 2.53,-61.09 95.93,-57.75 94.12,3.77 -0.77,26.35 -14.56,51.4 -56.46,45.15 z"/>
        <path id="path164" style="fill:#25285b;fill-opacity:1;fill-rule:nonzero;stroke:none" d="m 2573.96,2634.8 c -31.74,-5.78 -45.39,-33.7 -48.92,-45.15 -34.08,-109.97 139.27,-136.31 139.27,-26.4 0,45.54 -33.22,81.95 -90.35,71.55"/>
        <path id="path166" style="fill:none;stroke:#ffffff;stroke-width:31.93040085;stroke-linecap:butt;stroke-linejoin:miter;stroke-miterlimit:4;stroke-dasharray:none;stroke-opacity:1" d="m 2573.96,2634.8 c -31.74,-5.78 -45.39,-33.7 -48.92,-45.15 -34.08,-109.97 139.27,-136.31 139.27,-26.4 0,45.54 -33.22,81.95 -90.35,71.55 z"/>
        <path id="path168" style="fill:#ed212a;fill-opacity:1;fill-rule:nonzero;stroke:none" d="m 2118.48,2446.59 c 103.62,-9.64 123.33,164.81 -11.32,150.54 -80.37,-21.1 -66.05,-143.33 11.32,-150.54"/>
        <path id="path170" style="fill:#ed212a;fill-opacity:1;fill-rule:nonzero;stroke:none" d="m 2355.63,2582.09 c -31.93,-10.83 -59.8,-24.72 -75.27,-45.15 -91.68,-121.13 81.05,-272.81 188.2,-165.62 84.48,84.48 5.06,238.69 -112.93,210.77"/>
        <path id="path172" style="fill:#ed212a;fill-opacity:1;fill-rule:nonzero;stroke:none" d="m 744.551,2491.76 c -67.488,-11.55 -65.961,-118.32 -3.774,-131.73 103.094,-22.24 117.27,151.2 3.774,131.73"/>
        <path id="path174" style="fill:#ed212a;fill-opacity:1;fill-rule:nonzero;stroke:none" d="m 2095.9,2390.12 c -119.51,-6.87 -112.16,-183.32 -7.54,-195.73 133.74,-15.85 153.5,204.13 7.54,195.73"/>
        <path id="path176" style="fill:#ed212a;fill-opacity:1;fill-rule:nonzero;stroke:none" d="m 906.395,2371.3 c -94.743,-11.74 -55.989,-154.64 33.886,-131.77 62.519,15.94 58.133,143.18 -33.886,131.77"/>
        <path id="path178" style="fill:#ed212a;fill-opacity:1;fill-rule:nonzero;stroke:none" d="m 2389.5,2224.5 c -2.77,45.53 -37.42,67.82 -82.81,60.23 -40.04,-6.73 -53.5,-31.78 -52.69,-67.77 1.82,-80.42 141.23,-87.06 135.5,7.54"/>
        <path id="path180" style="fill:#ed212a;fill-opacity:1;fill-rule:nonzero;stroke:none" d="m 97.082,2254.61 c -70.879,-9.98 -61.574,-115.6 -7.496,-128.01 101.945,-23.29 112.211,142.71 7.496,128.01"/>
        <path id="path182" style="fill:#ed212a;fill-opacity:1;fill-rule:nonzero;stroke:none" d="m 2302.93,2066.4 c 11.6,39.23 -8.16,70.16 -52.69,64 -23.82,-3.29 -36.13,-22 -37.66,-41.42 -5.01,-64.29 77.8,-64.92 90.35,-22.58"/>
        <path id="path184" style="fill:#25285b;fill-opacity:1;fill-rule:nonzero;stroke:none" d="m 2419.63,2111.57 c -107.82,-23.39 -110.97,-187.43 -15.09,-218.31 192.63,-62.05 205.19,259.5 15.09,218.31"/>
        <path id="path186" style="fill:none;stroke:#ffffff;stroke-width:31.93040085;stroke-linecap:butt;stroke-linejoin:miter;stroke-miterlimit:4;stroke-dasharray:none;stroke-opacity:1" d="m 2419.63,2111.57 c -107.82,-23.39 -110.97,-187.43 -15.09,-218.31 192.63,-62.05 205.19,259.5 15.09,218.31 z"/>
        <path id="path188" style="fill:#25285b;fill-opacity:1;fill-rule:nonzero;stroke:none" d="m 198.73,2085.21 c -51.546,-8.11 -95.41,-68.39 -75.269,-131.73 8.828,-27.92 38.613,-51.64 48.926,-56.46 160.222,-75.12 205.328,216.31 26.343,188.19"/>
        <path id="path190" style="fill:none;stroke:#ffffff;stroke-width:31.93040085;stroke-linecap:butt;stroke-linejoin:miter;stroke-miterlimit:4;stroke-dasharray:none;stroke-opacity:1" d="m 198.73,2085.21 c -51.546,-8.11 -95.41,-68.39 -75.269,-131.73 8.828,-27.92 38.613,-51.64 48.926,-56.46 160.222,-75.12 205.328,216.31 26.343,188.19 z"/>
        <path id="path192" style="fill:#25285b;fill-opacity:1;fill-rule:nonzero;stroke:none" d="m 2216.35,1731.38 c -44.81,-9.83 -77.55,-45.86 -75.31,-101.61 3.58,-88.2 114.16,-127.63 173.2,-64 65.87,71.02 -1.19,186.81 -97.89,165.61"/>
        <path id="path194" style="fill:none;stroke:#ffffff;stroke-width:31.93040085;stroke-linecap:butt;stroke-linejoin:miter;stroke-miterlimit:4;stroke-dasharray:none;stroke-opacity:1" d="m 2216.35,1731.38 c -44.81,-9.83 -77.55,-45.86 -75.31,-101.61 3.58,-88.2 114.16,-127.63 173.2,-64 65.87,71.02 -1.19,186.81 -97.89,165.61 z"/>
        <path id="path196" style="fill:#25285b;fill-opacity:1;fill-rule:nonzero;stroke:none" d="m 360.594,1712.57 c -66.68,-17.57 -53.602,-124.86 11.308,-131.74 100.418,-10.64 95.746,159.94 -11.308,131.74"/>
        <path id="path198" style="fill:none;stroke:#ffffff;stroke-width:31.93040085;stroke-linecap:butt;stroke-linejoin:miter;stroke-miterlimit:4;stroke-dasharray:none;stroke-opacity:1" d="m 360.594,1712.57 c -66.68,-17.57 -53.602,-124.86 11.308,-131.74 100.418,-10.64 95.746,159.94 -11.308,131.74 z"/>
        <path id="path200" style="fill:#25285b;fill-opacity:1;fill-rule:nonzero;stroke:none" d="m 552.566,1652.34 c -129.726,-9.21 -114.406,-209.72 11.262,-207.05 122.473,2.63 139.559,217.74 -11.262,207.05"/>
        <path id="path202" style="fill:none;stroke:#ffffff;stroke-width:31.93040085;stroke-linecap:butt;stroke-linejoin:miter;stroke-miterlimit:4;stroke-dasharray:none;stroke-opacity:1" d="m 552.566,1652.34 c -129.726,-9.21 -114.406,-209.72 11.262,-207.05 122.473,2.63 139.559,217.74 -11.262,207.05 z"/>
        <path id="path204" style="fill:#ed212a;fill-opacity:1;fill-rule:nonzero;stroke:none" d="m 2058.25,1524.36 c -68.01,-8.45 -70.64,-116.65 -11.31,-131.78 105.72,-26.87 122.95,145.62 11.31,131.78"/>
        <path id="path206" style="fill:#ed212a;fill-opacity:1;fill-rule:nonzero;stroke:none" d="m 1817.34,1479.18 c -109.82,-10.07 -135.83,-176.41 -37.65,-218.31 183.23,-78.23 228.95,235.87 37.65,218.31"/>
        <path id="path208" style="fill:#ed212a;fill-opacity:1;fill-rule:nonzero;stroke:none" d="m 676.793,1441.54 c -24.68,-4.15 -41.238,-25.87 -45.203,-33.89 -46.442,-94.45 130.73,-146.72 128.012,-30.12 -0.911,40.14 -30.883,72.74 -82.809,64.01"/>
        <path id="path210" style="fill:#ed212a;fill-opacity:1;fill-rule:nonzero;stroke:none" d="m 1038.14,1400.13 c -103.62,-15.13 -96.413,-177.98 -3.77,-195.74 150.91,-28.92 171.58,216.41 3.77,195.74"/>
        <path id="path212" style="fill:#25285b;fill-opacity:1;fill-rule:nonzero;stroke:none" d="m 1469.16,2278.79 c 3.54,6.86 5.8,11.03 7.87,15.29 35.65,73.61 108.79,113.65 187.41,102.54 74.63,-10.55 139.72,-73.52 152.83,-149.93 10.31,-60.04 1.46,-117.78 -24.01,-173.18 -42.29,-91.99 -108.95,-164.01 -183.76,-228.77 -38.12,-33 -79.5,-62.13 -119.43,-92.96 -13.29,-10.26 -26.38,-10.19 -40.36,-0.53 -91.54,63.27 -176.07,134.42 -244.39,223.63 -42.51,55.5 -76.19,115.62 -85.32,186.64 -11.86,92.35 16.4,170.37 95.79,214.8 88.61,49.59 199.4,13.19 244.46,-78.68 2.59,-5.27 5.02,-10.61 8.91,-18.85"/>
        <path id="path214" style="fill:none;stroke:#25285b;stroke-width:37.1833992;stroke-linecap:butt;stroke-linejoin:miter;stroke-miterlimit:10;stroke-dasharray:none;stroke-opacity:1" d="m 1469.16,2278.79 c 3.54,6.86 5.8,11.03 7.87,15.29 35.65,73.61 108.79,113.65 187.41,102.54 74.63,-10.55 139.72,-73.52 152.83,-149.93 10.31,-60.04 1.46,-117.78 -24.01,-173.18 -42.29,-91.99 -108.95,-164.01 -183.76,-228.77 -38.12,-33 -79.5,-62.13 -119.43,-92.96 -13.29,-10.26 -26.38,-10.19 -40.36,-0.53 -91.54,63.27 -176.07,134.42 -244.39,223.63 -42.51,55.5 -76.19,115.62 -85.32,186.64 -11.86,92.35 16.4,170.37 95.79,214.8 88.61,49.59 199.4,13.19 244.46,-78.68 2.59,-5.27 5.02,-10.61 8.91,-18.85 z"/>
        <g id="g216">
          <g clip-path="url(#clipPath222)" id="g218">
            <g clip-path="url(#clipPath228)" id="g224">
              <path id="path230" style="fill:#ffffff;fill-opacity:1;fill-rule:nonzero;stroke:none" d="m 870.602,2447.99 1241.898,0 0,-778.88 -1244.027,0 0,772.44 c -0.176,3.06 -0.356,6.08 2.129,6.44 m 492.928,-243.27 c 7.14,-4.39 14.55,-12.16 23.47,-10.69 l 0,247.52 c -135.86,-1.42 -277.39,2.84 -409.695,-2.13 126.755,-76.71 262.125,-158.3 386.225,-234.7 m 55.46,230.49 0,-305.21 -541.998,0 0,-108.79 541.998,0 0,-311.55 102.44,0 c 1.42,102.45 -2.84,210.57 2.13,309.42 l 539.87,0 0,108.84 c -179.96,1.42 -365.59,-2.89 -542,2.08 l 0,311.55 -100.27,0 c -2.53,-0.35 -2.35,-3.32 -2.17,-6.34 m 132.3,6.34 c -4.97,-81.77 -0.71,-172.81 -2.13,-258.17 125.47,74.76 269.49,162.69 396.87,241.14 7.99,4.92 24.18,10.69 19.21,17.03 z m 471.58,0 c -154.79,-94.86 -310.57,-188.74 -465.19,-283.77 54.08,-6.79 73.78,13.84 106.71,34.16 118.77,73.07 231.46,140.73 345.66,209.1 18.59,11.1 40.29,22.46 53.38,40.51 z M 876.992,2398.92 c 115.133,-68.15 234.168,-140.3 349.968,-211.28 30.44,-18.64 53.16,-39.89 98.14,-27.73 -150.76,89.66 -300.32,180.53 -448.108,273.12 z m 0,-245.4 c 118.106,1.42 241.848,-2.84 356.358,2.13 -120.81,69.79 -237.498,143.7 -356.358,215.49 z M 2057,2360.49 c -100.81,-63.44 -215.59,-125.03 -313.64,-189.94 -4.13,-2.66 -15.66,-5.14 -12.82,-12.77 l 332.89,0 c -1.47,68.28 2.84,142.24 -2.13,206.97 -0.04,-2.84 -3.77,-1.95 -4.3,-4.26 m -12.83,-569.72 c 5.42,-3.29 11.27,-12.56 19.26,-8.52 l 0,213.36 c -118.11,-1.42 -241.85,2.84 -356.36,-2.13 110.87,-65.17 229.33,-137.31 337.1,-202.71 M 879.168,1991.35 c -3.598,-64.02 -3.598,-142.99 0,-206.97 100.355,66.28 217.712,127.87 317.892,194.15 3.99,2.62 15.8,5.33 12.82,12.82 z m 448.072,-4.26 c -112.97,-63.89 -228.85,-137.76 -339.287,-204.84 -38.242,-23.29 -77.555,-44.77 -110.961,-72.59 l 44.813,0 c 152.795,94.73 307.825,187.23 460.935,281.69 -15.93,0.85 -46.81,0.63 -55.5,-4.26 m 516.39,-136.6 c 65,-39.67 134.48,-77.34 196.28,-117.36 7.01,-4.52 13.13,-15.53 23.52,-12.82 l 0,27.78 c -113.14,70.81 -233.78,142.15 -349.98,213.36 -30.43,18.68 -53.15,39.93 -98.14,27.73 76.58,-43.21 151.83,-91.97 228.32,-138.69 m -667.91,-14.91 c -59.94,-36.96 -122.06,-76 -179.204,-110.96 -8.161,-5.02 -25.02,-8.75 -19.211,-14.96 l 413.955,0 0,253.96 c -0.49,1.65 -0.09,4.22 -2.13,4.26 -65.76,-44.85 -141.76,-88.24 -213.41,-132.3 m 377.7,-125.92 c 135.15,1.47 275.97,-2.84 407.56,2.13 -137.41,80.97 -272.28,164.47 -407.56,247.53 l 0,-249.66"/>
              <path id="path232" style="fill:#25285b;fill-opacity:1;fill-rule:nonzero;stroke:none" d="m 977.305,2439.44 c 132.305,4.97 273.835,0.71 409.685,2.13 l 0,-247.53 c -8.91,-1.47 -16.32,6.3 -23.47,10.69 -124.09,76.36 -259.46,157.99 -386.215,234.71"/>
              <path id="path234" style="fill:#25285b;fill-opacity:1;fill-rule:nonzero;stroke:none" d="m 1965.25,2441.56 c 4.92,-6.34 -11.23,-12.11 -19.21,-17.04 -127.38,-78.44 -271.4,-166.42 -396.91,-241.13 1.46,85.36 -2.85,176.4 2.17,258.17 l 413.95,0"/>
              <path id="path236" style="fill:#ed212a;fill-opacity:1;fill-rule:nonzero;stroke:none" d="m 2063.41,2441.56 c -13.09,-18.06 -34.79,-29.41 -53.37,-40.55 -114.21,-68.33 -226.9,-135.99 -345.63,-209.11 -32.96,-20.27 -52.67,-40.9 -106.75,-34.11 154.62,95.03 310.44,188.91 465.2,283.77 l 40.55,0"/>
              <path id="path238" style="fill:#ed212a;fill-opacity:1;fill-rule:nonzero;stroke:none" d="m 877.016,2433.03 c 147.784,-92.6 297.354,-183.47 448.114,-273.13 -44.99,-12.16 -67.75,9.09 -98.19,27.73 -115.8,70.99 -234.792,143.13 -349.924,211.28 l 0,34.12"/>
              <path id="path240" style="fill:#25285b;fill-opacity:1;fill-rule:nonzero;stroke:none" d="m 877.016,2371.16 c 118.816,-71.83 235.504,-145.75 356.314,-215.5 -114.47,-5.01 -238.256,-0.7 -356.314,-2.17 l 0,217.67"/>
              <path id="path242" style="fill:#25285b;fill-opacity:1;fill-rule:nonzero;stroke:none" d="m 2061.28,2364.77 c 4.97,-64.74 0.71,-138.7 2.13,-206.98 l -332.89,0 c -2.84,7.63 8.7,10.07 12.82,12.78 98.05,64.86 212.83,126.49 313.68,189.94 0.53,2.3 4.22,1.42 4.26,4.26"/>
              <path id="path244" style="fill:#25285b;fill-opacity:1;fill-rule:nonzero;stroke:none" d="m 1707.06,1993.47 c 114.52,4.97 238.26,0.71 356.36,2.13 l 0,-213.36 c -7.98,-4.04 -13.84,5.28 -19.21,8.52 -107.81,65.44 -226.27,137.54 -337.15,202.71"/>
              <path id="path246" style="fill:#25285b;fill-opacity:1;fill-rule:nonzero;stroke:none" d="m 1209.88,1991.34 c 2.97,-7.49 -8.83,-10.16 -12.82,-12.82 -100.19,-66.28 -217.537,-127.87 -317.896,-194.15 -3.594,64.02 -3.594,142.95 0,206.97 l 330.716,0"/>
              <path id="path248" style="fill:#ed212a;fill-opacity:1;fill-rule:nonzero;stroke:none" d="m 1382.73,1991.34 c -153.12,-94.45 -308.14,-186.96 -460.894,-281.69 l -44.813,0 c 33.364,27.87 72.676,49.3 110.965,72.59 110.382,67.08 226.272,140.96 339.282,204.85 8.65,4.88 39.53,5.1 55.46,4.25"/>
              <path id="path250" style="fill:#ed212a;fill-opacity:1;fill-rule:nonzero;stroke:none" d="m 1615.33,1989.2 c 44.98,12.15 67.7,-9.05 98.14,-27.73 116.2,-71.21 236.83,-142.6 349.92,-213.37 l 0,-27.77 c -10.33,-2.71 -16.46,8.3 -23.47,12.82 -61.8,39.98 -131.28,77.69 -196.28,117.35 -76.53,46.68 -151.74,95.48 -228.31,138.7"/>
              <path id="path252" style="fill:#25285b;fill-opacity:1;fill-rule:nonzero;stroke:none" d="m 1389.13,1967.87 c 2.04,-0.05 1.64,-2.62 2.13,-4.26 l 0,-253.92 -413.951,0 c -5.856,6.17 11.004,9.94 19.211,14.91 57.15,34.96 119.26,74.05 179.2,110.96 71.66,44.1 147.66,87.49 213.41,132.31"/>
              <path id="path254" style="fill:#25285b;fill-opacity:1;fill-rule:nonzero;stroke:none" d="m 1553.44,1959.33 c 135.27,-83.1 270.11,-166.6 407.56,-247.53 -131.6,-4.97 -272.42,-0.71 -407.56,-2.13 l 0,249.66"/>
              <path id="path256" style="fill:#ffffff;fill-opacity:1;fill-rule:nonzero;stroke:none" d="m 1558.74,2130.03 -41.26,0 0,318.7 41.26,0 0,-318.7"/>
              <path id="path258" style="fill:#ffffff;fill-opacity:1;fill-rule:nonzero;stroke:none" d="m 1422.17,2130.03 -41.26,0 0,318.7 41.26,0 0,-318.7"/>
              <path id="path260" style="fill:#ffffff;fill-opacity:1;fill-rule:nonzero;stroke:none" d="m 2085.16,2127.19 -566.26,0 0,41.27 566.26,0 0,-41.27"/>
              <path id="path262" style="fill:#ffffff;fill-opacity:1;fill-rule:nonzero;stroke:none" d="m 2085.16,1978.87 -566.26,0 0,41.26 566.26,0 0,-41.26"/>
              <path id="path264" style="fill:#ffffff;fill-opacity:1;fill-rule:nonzero;stroke:none" d="m 1421.42,1978.87 -566.221,0 0,41.26 566.221,0 0,-41.26"/>
              <path id="path266" style="fill:#ffffff;fill-opacity:1;fill-rule:nonzero;stroke:none" d="m 1418.27,2127.19 -566.266,0 0,41.27 566.266,0 0,-41.27"/>
              <path id="path268" style="fill:#ed212a;fill-opacity:1;fill-rule:nonzero;stroke:none" d="m 1421.15,2441.56 100.27,0 0,-311.55 c 176.4,-4.97 362.04,-0.71 541.99,-2.13 l 0,-108.83 -539.86,0 c -4.97,-98.85 -0.71,-206.98 -2.13,-309.38 l -102.4,0 0,311.55 -542,0 0,108.79 542,0 0,305.16 c -0.22,3.02 -0.36,6.04 2.13,6.39"/>
            </g>
          </g>
        </g>
      </g>
    </g>
  </g>
</svg>