<?xml version="1.0" encoding="utf-8"?>
<svg viewBox="330.7120056152344 25.381999969482422 1261.6600341796875 369.32501220703125" width="1261.6600341796875" height="369.32501220703125" xmlns="http://www.w3.org/2000/svg">
  <g transform="matrix(1.3333332538604736, 0, 0, -1.3333332538604736, 2.842170943040401e-14, 394.70666503906244)" id="g10">
    <g transform="scale(0.1)" id="g12">
      <path id="path14" style="fill:#5d2590;fill-opacity:1;fill-rule:nonzero;stroke:none" d="M 3952.3,164.82 C 4016.49,128.34 4075.76,92.0703 4125.72,39.0781 4110.34,25.4922 4096.37,13.1406 4081.64,0.109375 4031.59,52.6289 3974.58,93.4297 3913.32,128.84 c -13.35,7.711 -23.55,7.281 -36.59,-0.32 C 3816.17,93.1992 3759.41,53.1211 3709.19,0 c -14.18,12.5586 -28.12,24.8984 -44.04,38.9883 49,52.5508 108.54,89.2307 173.68,125.9337 -14.6,6.738 -25.71,13.578 -37.77,17.137 -66.04,19.531 -132.44,37.902 -198.44,57.582 -12.96,3.871 -17.86,-1.743 -25.83,-10.309 -29.08,-31.281 -57.16,-64.371 -90.45,-90.684 -54.22,-42.8472 -117.44,-39.898 -181.55,-25.207 25.06,65.309 88.02,147.719 193.4,150.547 -8.34,3.961 -12.63,6.274 -17.12,8.094 -26.73,10.859 -54.02,20.52 -80.08,32.789 -15.33,7.231 -25,7.418 -37.69,-6.152 -30.21,-32.278 -67.31,-55.84 -108.59,-71.559 -57.55,-21.93 -112.95,-11.051 -167.52,13.078 37.94,72.754 112.69,112.512 214.48,112.633 -38.17,24.758 -73.04,47.379 -109.19,70.828 -56.92,-38.769 -117.18,-72.769 -190.08,-65.898 -38.91,3.679 -74.29,20.078 -109.39,45.32 68.65,60.32 139.17,104.059 234.23,69.309 -31.49,28.949 -62.67,58.261 -94.91,86.359 -3.83,3.34 -13.81,1.383 -20.31,-0.41 -36.49,-10.047 -72.18,-24.367 -109.26,-30.52 -66.87,-11.109 -119.96,19.7 -169.21,65.911 35.8,25.492 73.41,41.82 115.04,50.519 43.18,9.043 81.94,-2.5 120.91,-20.609 -26.44,34.039 -52.48,68.379 -79.85,101.64 -3.07,3.711 -14.2,3 -20.78,1.262 -42.81,-11.312 -85.98,-14.5 -129.77,-7.891 -57.16,8.629 -95.42,44.52 -128.97,88.028 59.99,43.812 150.36,39.902 232.75,-11.91 -13.71,24.793 -25.21,45.113 -36.24,65.679 -9.65,17.973 -14.54,42.512 -29.38,52.481 -13.43,9.031 -37.47,2.082 -56.82,2.57 -84.83,2.172 -151.19,35.231 -190.05,114.051 -1.22,2.48 -2,5.19 -4.02,10.49 38.63,12.83 77.47,12.58 116.27,8.4 40.33,-4.35 72.45,-25.19 101.25,-53.902 -10.16,33.792 -21.63,67.282 -30,101.502 -4.62,18.89 -13,24.18 -32.37,26.61 -117.83,14.72 -168.37,59.42 -197.06,150.41 -0.6,1.88 -0.57,3.97 -1.17,8.62 82.02,1.9 157.18,-8.08 204.95,-93.48 -6.41,48.97 -11.46,91.3 -18.1,133.38 -0.81,5.15 -9.51,10.23 -15.6,13.16 -32.81,15.75 -67.88,27.74 -98.54,46.85 -45.77,28.55 -75.66,91.88 -71.8,143.07 78.48,-11.59 148.23,-34.26 178.46,-119.51 1.95,0.81 3.9,1.63 5.85,2.44 0,29.78 -4.37,60.39 1.06,89.15 7.5,39.7 -5.82,58.28 -41.52,76.32 -62.95,31.81 -103.88,83.56 -106.59,158.38 -0.42,11.62 -0.06,23.28 -0.06,38.01 79.66,-25.82 143.25,-61.9 160.06,-150.38 2.38,11.31 4.61,22.65 7.17,33.92 7.02,30.86 13.04,62.02 21.77,92.39 4.34,15.14 -0.06,21.75 -11.8,30.77 -21.09,16.21 -40.96,34.46 -59.17,53.88 -43.41,46.32 -50.14,102.1 -38.06,161.88 0.41,2.03 1.33,4.02 2.3,5.86 0.62,1.19 1.78,2.1 4.18,4.83 70.74,-38.19 127.26,-85.75 123.84,-177.85 1.81,3.74 3.85,7.4 5.42,11.25 15.92,39.1 31.22,78.48 47.99,117.21 5.2,12.02 3.45,18.38 -4.76,29.03 -23.04,29.85 -46.43,60.31 -63.44,93.71 -20.82,40.89 -13.74,98.28 10,139.81 63.19,-28.5 99.13,-102.46 95.44,-191.65 0.9,3.14 1.14,6.66 2.78,9.33 23.67,38.34 47.91,76.32 70.86,115.07 3.14,5.29 2.17,15.23 -0.57,21.37 -13.43,30.03 -30.74,58.57 -41.74,89.4 -19.22,53.91 -0.08,101.87 30.64,150.4 51.7,-57.68 87.37,-116.67 59.97,-185.74 31.09,27.41 68.51,60.41 104.63,92.27 -55.17,113.66 -41.84,192.57 23.25,248.41 42.86,-67.09 63.28,-135.02 15.22,-208.12 40.68,29.83 81.57,59.38 121.71,89.94 3.57,2.73 3.55,12.11 2.88,18.15 -3.18,28.57 -9.32,56.95 -10.43,85.57 -2.32,59.86 28.77,102.39 77.31,137.49 17.59,-35.7 24.5,-71.92 23.6,-110.28 -0.94,-40.13 -23.98,-69.2 -46.16,-100.09 30.6,16.33 59.88,36.33 92.16,48.05 39.56,14.37 54.58,34.13 51.01,79.06 -5.47,68.74 23.9,124.73 87.47,158.6 4.15,2.22 8.69,3.71 15.24,6.46 18.36,-79.79 11.45,-149.47 -62.26,-200.08 32.01,12.38 64.75,15.9 90.37,42.61 44.72,46.61 106.38,51.4 160.1,18.89 -38.29,-47.89 -103.53,-79.46 -168.43,-52.71 -9.66,3.97 -23.28,3.38 -33.46,0.02 -26.34,-8.69 -51.78,-20.11 -77.23,-33.02 39.82,-1.53 80.25,7.05 116.82,-14.69 34.74,-20.63 59.97,-49.9 80.81,-86.14 -102.79,-35.98 -169.27,13.66 -227.93,91 -49.1,-28.28 -97.84,-56.35 -146.58,-84.41 0.33,-2.73 0.66,-5.46 0.99,-8.19 87.88,36.71 152.56,2.73 208.25,-62.3 -68.43,-43.41 -147.07,-40.49 -242.36,47.69 -43.97,-35.72 -88.41,-71.85 -132.86,-107.97 0.44,-2.46 0.89,-4.9 1.34,-7.35 82,50.8 153.32,29.79 220.5,-26.49 -66.06,-60.33 -145.9,-62.85 -252.97,6.03 -37.53,-43.73 -75.52,-87.99 -113.51,-132.24 1.26,-2.52 2.53,-5.04 3.79,-7.55 73.56,67.21 149.62,58.58 228.34,12.93 -51.86,-64.2 -117.72,-77.75 -192.9,-59.62 -16.35,3.94 -31.85,11.35 -48.2,15.23 -5.5,1.31 -15.63,-1.37 -18.19,-5.56 -26.35,-43.21 -51.57,-87.11 -75.27,-134.62 63.78,72.36 139.52,69.51 222.51,41.74 -33.12,-52.11 -73.46,-89.36 -135.66,-92.16 -30.68,-1.39 -61.6,2.68 -92.43,3.44 -6.45,0.15 -17.28,-1.71 -18.84,-5.58 -18.42,-45.46 -35.45,-91.48 -50.27,-140.22 51.57,79.03 126.08,86.45 211.47,73.88 -21.17,-49.24 -46.76,-91.96 -97.25,-108.21 -36.3,-11.68 -75.33,-15.54 -113.44,-20.56 -12.21,-1.61 -18.93,-2.69 -21.36,-16.29 -8.24,-46.14 -17.68,-92.07 -23.53,-140.73 37.65,88.6 110.61,111.03 196.3,112.74 -8.74,-84.19 -62.79,-149.62 -202.9,-170.38 0,-51.4 0,-103.3 0,-155.18 22.48,95.56 92.72,130.7 181.54,148.84 -2.89,-54.32 -13.73,-102.55 -53.49,-139.55 -31.39,-29.22 -68.4,-49.23 -108.73,-63.55 -5.43,-1.92 -13.88,-8.61 -13.38,-11.97 6.69,-44.87 14.73,-89.52 26.1,-134.74 6.75,97.91 70.94,142.95 151.45,175.07 22.99,-100.88 -21.65,-175.53 -137.52,-238.82 15.66,-43.83 31.52,-88.23 47.37,-132.65 2.07,0.16 4.14,0.328 6.21,0.481 -2.01,42.769 0,84.429 26.54,120.299 25.11,33.93 56.4,60.44 92.97,81.63 32.44,-82.15 23.8,-168.66 -95.91,-265.058 22.51,-38.32 45.27,-77.082 68.04,-115.832 1.97,0.41 3.93,0.832 5.89,1.242 -27.86,95.559 20.4,159.84 86.68,219.878 29.46,-56.069 44.56,-112.222 19.66,-170.241 -15.07,-35.11 -38.97,-66.387 -58.22,-99.778 -3.09,-5.359 -5.88,-15.429 -3.16,-18.89 24.66,-31.481 50.58,-61.969 79.02,-91.621 -13.35,41.09 -21.33,81.332 -7.53,123.308 13.15,40.043 33.53,75.5 61.25,107.461 65.84,-80.64 76.02,-161.211 1.86,-289.461 31.84,-27.109 64.22,-54.668 96.61,-82.226 1.91,0.476 3.83,0.937 5.75,1.418 -57.17,83.242 -30.85,161.09 10.06,239.789 99.5,-82.321 94.28,-182.457 53.62,-290.887 37.84,-22.434 75.13,-44.531 112.4,-66.641 2.11,0.95 4.22,1.899 6.33,2.848 -76.54,73.293 -65.42,157.59 -36.63,247.109 66.63,-40.41 109.88,-93.359 112.12,-171.91 0.94,-32.898 -3.42,-65.929 -4.76,-98.918 -0.21,-5.218 1.45,-14.058 4.57,-15.289 37.03,-14.562 74.51,-27.992 112.54,-39.75 -73.11,77.141 -99.5,164.188 -71.08,242.149 51.41,-21.2 96.91,-49.879 122.42,-101.239 24.51,-49.351 31.58,-103.132 31.47,-158.73 89.94,-17.609 175.6,-44.449 258.35,-80.742 5.94,-2.61 15.36,-0.899 21.87,1.863 77.36,32.797 156.67,59.469 239.22,75.52 14.03,2.718 15.53,9.117 16.6,21.128 2.68,30.04 5.32,60.34 11.6,89.77 16.69,78.148 69.24,123.922 143.53,153.199 12.63,-92.949 9.92,-178.211 -75.67,-239.14 1.72,-1.649 3.45,-3.297 5.17,-4.95 36.04,13.27 72.25,26.141 107.9,40.383 3.8,1.52 6.29,11.008 6.22,16.778 -0.42,39.878 -5.03,80.011 -1.95,119.57 5.43,69.609 50.78,113.07 108.02,150.57 17.28,-43.191 23.33,-85.68 21.9,-129.558 -1.51,-46.34 -23.56,-83.18 -55.23,-115.614 1.29,-1.578 2.58,-3.148 3.86,-4.718 37.34,21.921 74.66,43.839 112.67,66.152 -41.01,108.457 -45.91,208.469 53.12,290.828 22.2,-37.82 36.61,-76.93 42.08,-119.34 5.55,-43.121 -6.09,-82.051 -30.79,-117.89 1.61,-1.168 3.23,-2.34 4.85,-3.5 32.1,27.089 64.2,54.179 96.92,81.8 -57.51,97.7 -80.04,193.328 1.79,289.578 27.91,-32.519 48.06,-67.316 60.78,-106.668 13.15,-40.75 7.79,-80.289 -8.86,-119.429 2.04,-0.942 4.09,-1.903 6.13,-2.852 27.3,32.102 54.59,64.199 82.24,96.711 -74.12,84.211 -110.98,172.93 -50.58,278.64 54.88,-37.968 117.34,-115.511 87.2,-221.109 6.18,6.969 10.06,10.207 12.5,14.289 17.35,29 33.86,58.532 51.82,87.149 8.59,13.691 6.81,20.672 -5.31,32.781 -26.7,26.641 -52.73,54.969 -73.51,86.28 -33.97,51.2 -26.51,107.02 -8.77,165.56 76.75,-48.43 135.14,-104.25 119.51,-204.98 2.12,-0.059 4.24,-0.129 6.36,-0.2 5.78,14.399 11.97,28.649 17.25,43.23 8.85,24.47 16.49,49.41 25.88,73.67 5.09,13.15 0.99,18.59 -10.06,26.84 -31.36,23.45 -63.38,47.04 -90.22,75.26 -34.37,36.17 -45.73,100.93 -32.36,153.73 38.85,-14.11 73.4,-33.94 103.25,-62.42 31.5,-30.06 42.16,-68.7 45.75,-110.58 2.25,-0.09 4.49,-0.18 6.74,-0.27 8.63,45.88 17.26,91.76 26.15,139 -101.16,34.26 -177.98,87.1 -177.68,208.39 43.38,-8.09 81.48,-22.1 116.06,-46.58 36.22,-25.62 48.76,-65.03 65.63,-103.29 0,49.01 0.46,98.01 -0.78,146.98 -0.1,4.53 -10.41,10.54 -17.03,12.87 -33.01,11.61 -67.78,19.21 -99.32,33.83 -54.59,25.31 -77.03,75.01 -90.12,130.74 61.1,5.26 154.5,-10.1 198.5,-107.3 0,6.15 0.91,12.48 -0.16,18.45 -7.11,39.48 -15.01,78.83 -21.88,118.35 -2.4,13.82 -8.93,16.67 -22.65,17.35 -27.93,1.41 -56.3,3.96 -83.39,10.55 -63.06,15.33 -101.61,52.59 -125.4,118.68 40.41,5.98 79.31,6.66 118.61,-3.54 40.93,-10.62 65.75,-40.97 89.83,-72.73 1.68,1.02 3.36,2.02 5.03,3.03 -17.62,46.44 -34.81,93.06 -53.59,139.05 -1.64,4.03 -14.12,6.45 -20.72,5.19 -39.36,-7.48 -78.6,-7.78 -117.51,1.04 -49.33,11.19 -80.78,44.97 -108.04,87.41 39.52,16.29 78.19,20.48 117.83,17.33 42.35,-3.38 71.58,-30.42 100.49,-57.81 1.57,1.05 3.13,2.11 4.69,3.17 -26.64,46.87 -53.29,93.75 -80.69,141.97 -59.4,-24.04 -117.72,-39.36 -178.48,-18.4 -30.47,10.52 -54.7,31.17 -75.91,55.66 68.82,42.01 142.3,61.93 228.07,-8.5 1.41,1.19 2.83,2.39 4.24,3.58 -37.83,44.33 -75.64,88.67 -113.77,133.36 -85.05,-53.84 -167.94,-78.7 -253.39,-8.28 56.71,60.45 121.28,69.64 221.75,35.91 -44.29,36.16 -88.58,72.33 -132.41,108.13 -99.32,-91.41 -177.89,-88.6 -242.58,-48.04 55.97,66.55 121.46,99.48 209.51,62.21 0.46,2.48 0.93,4.96 1.38,7.44 -48.91,28.35 -97.83,56.69 -148.12,85.84 -36.54,-47.8 -75.56,-90.77 -135.22,-100.61 -29.38,-4.84 -60.64,1.78 -95.28,3.41 46.17,85.32 108.9,123.29 201.97,101.65 -0.15,2.43 -0.32,4.86 -0.47,7.3 -30.88,12.22 -61.66,24.69 -92.75,36.34 -3.81,1.43 -9.71,-0.58 -13.89,-2.57 -67.6,-32.14 -133.68,0.89 -174.68,49.63 51.18,31.89 113.74,27.92 158.63,-16.94 26.38,-26.35 58.74,-32.75 92.47,-44.1 -73.1,50.59 -81.46,119.81 -62.1,200.26 55.48,-25.76 92.09,-63.85 99.68,-123.81 3.41,-26.96 1.35,-54.58 2.67,-81.85 0.28,-5.81 2.85,-14.48 7.06,-16.67 45.29,-23.65 91.11,-46.27 141.77,-71.66 -30.63,35.03 -56.57,68.55 -51.98,113.07 3.4,32.91 11.89,65.3 19.02,102.72 48.19,-36.36 81.8,-73.44 81.21,-129.51 -0.35,-32.78 -6.76,-65.47 -9.54,-98.28 -0.53,-6.3 1.04,-15.77 5.29,-19.02 38.55,-29.43 77.91,-57.8 120.17,-87.11 -48.35,73.31 -27.67,140.42 15.59,208.63 35.55,-36.45 62.03,-75.67 56.24,-125.92 -4.2,-36.44 -17.83,-71.75 -26.57,-107.74 -1.54,-6.31 -2.45,-16.52 1.07,-19.72 34.92,-31.72 70.85,-62.35 103.78,-97.02 -16.44,32.39 -23.47,70.13 -5.55,106.11 15.11,30.31 34.54,58.46 53.98,90.74 49.41,-67.13 52.02,-131.38 18.72,-198.16 -7.82,-15.69 -18.33,-30.01 -26.74,-45.43 -2.59,-4.73 -5.14,-12.75 -2.93,-16.31 25.87,-41.76 52.65,-82.96 81.27,-125.53 -19.11,86.43 26.68,141.63 90.07,191.96 22.41,-47.09 33.05,-94.7 11.52,-141.05 -16.28,-35.05 -43.03,-65.2 -64.67,-97.83 -3.67,-5.54 -8.79,-14.03 -6.97,-18.69 17.97,-45.69 37.27,-90.84 58.49,-138 -6.28,92.65 50.23,140.42 124.7,180.27 11.59,-52.29 14.04,-100.15 -13.8,-145.24 -21.43,-34.69 -49.85,-62.63 -83.11,-86.15 -5.31,-3.76 -10.7,-13.67 -9.51,-19.37 9.42,-45.36 20.44,-90.4 32.5,-142.16 12.91,95.56 76.88,132.62 156.17,157.81 3.62,-54.37 -1.46,-105.28 -40.44,-143.08 -27.84,-27 -62.06,-47.77 -94.86,-69.11 -11.16,-7.27 -15.3,-12.43 -13.99,-26.06 3.21,-32.92 3.92,-66.08 5.49,-99.15 0.34,-7.29 0.05,-14.62 2.36,-23.02 32.3,82.33 101.64,103.79 181.52,116.76 -4.78,-55.56 -18.85,-104.45 -63.1,-135.34 -32.31,-22.57 -70.27,-37.45 -106.69,-53.53 -11.57,-5.11 -18.14,-8.94 -19.63,-22.44 -4.39,-39.71 -10.37,-79.26 -16.7,-126.1 47.37,85.36 122.7,95.61 206.39,93.86 -15.47,-53.47 -38.64,-98.74 -87.81,-125.63 -36.88,-20.16 -76.58,-31.37 -118.58,-35.27 -7.29,-0.67 -18.3,-6.17 -20.27,-11.93 -12.87,-37.87 -23.73,-76.4 -37.49,-122.179 63.21,76.049 140.04,69.309 221.22,55.219 -32.4,-70.438 -81.79,-114.098 -157.47,-122.418 -27.15,-2.981 -54.76,-1.5 -82.12,-2.993 -5.83,-0.308 -14.3,-3.05 -16.7,-7.371 -20.04,-36.238 -38.93,-73.097 -57.6,-111.508 33.16,24.95 68.85,41.829 111.41,40.36 40.7,-1.399 79.07,-10.949 118.76,-28.641 -37.35,-50.527 -80.64,-89.879 -144.82,-92.16 -38.21,-1.359 -76.85,5.191 -115.01,10.25 -12.63,1.68 -19.87,1.133 -28.04,-10 -23.23,-31.699 -48.24,-62.098 -72.05,-95.008 38.05,18.457 76.53,30.629 119.56,21.867 41.49,-8.449 78.53,-25.519 115.81,-49.769 -48.49,-47.16 -101.96,-77.617 -169.46,-66.719 -37.06,5.988 -72.76,20.328 -109.17,30.531 -6.05,1.7 -15.27,4.5 -18.56,1.649 -32.63,-28.43 -64.33,-57.942 -96.26,-89.051 94.55,35.461 165.33,-7.16 231.91,-66.707 -77,-60.051 -167.84,-72.422 -297.34,19.227 -35.27,-22.618 -70.66,-45.309 -106.05,-67.989 42.77,2.649 83.29,-2.449 120.25,-25.769 36.16,-22.813 66.49,-51.301 92.12,-88.629 -54.04,-24.371 -107.33,-35.121 -162.99,-16.051 -46.03,15.777 -85.64,42.738 -119.14,77.949 -8.38,8.809 -14.62,9.641 -25.29,4.942 -33.17,-14.614 -66.88,-27.992 -100.79,-43.442 99.04,-3.871 148.39,-70.269 192.28,-148.82 -41.83,-13.32 -81.94,-15.9687 -122.02,-6.129 -66.08,16.238 -111.04,61.688 -149.47,114.328 -9.9,13.551 -17.72,18.821 -35.71,14.961 -74.55,-16.058 -147.46,-36.73 -217.22,-67.84 -3.01,-1.34 -5.87,-3.011 -12.13,-6.25"/>
      <g transform="scale(10)" id="g16">
        <text id="text20" style="font-variant-ligatures: normal; font-variant-caps: normal; font-weight: normal; font-size: 107.642px; font-family: &quot;Rock Salt&quot;; writing-mode: lr-tb; fill: rgb(93, 37, 144); fill-opacity: 1; fill-rule: nonzero; stroke: none; white-space: pre;" transform="matrix(1,0,0,-1,334.241,120.486)"><tspan id="tspan18" y="0" x="0">25</tspan></text>
        <text id="text24" style="font-variant-ligatures: normal; font-variant-caps: normal; font-size: 40.7272px; font-family: Museo; writing-mode: lr-tb; fill: rgb(93, 37, 144); fill-opacity: 1; fill-rule: nonzero; stroke: none; white-space: pre;" transform="matrix(1,0,0,-1,338.82811,89.0821)"><tspan id="tspan22" y="0" x="0">years</tspan></text>
        <text id="text28" style="font-variant-ligatures: normal; font-variant-caps: normal; font-weight: normal; font-size: 113.52px; font-family: Museo500; writing-mode: lr-tb; fill: rgb(93, 37, 144); fill-opacity: 1; fill-rule: nonzero; stroke: none; white-space: pre;" transform="matrix(1,0,0,-1,560.74811,100.5469)"><tspan id="tspan26" y="0" x="0">human appeal</tspan></text>
      </g>
    </g>
  </g>
</svg>