<svg xmlns="http://www.w3.org/2000/svg" viewBox="330.71201 25.382 1492.412 369.32532" width="1492.412" height="369.325"><g fill="#5d2590"><path d="M526.58 372.731c8.559 4.864 16.461 9.7 23.123 16.766-2.051 1.811-3.914 3.458-5.878 5.196-6.673-7.003-14.274-12.443-22.442-17.164-1.78-1.028-3.14-.971-4.879.042-8.075 4.71-15.643 10.054-22.339 17.136l-5.872-5.198c6.534-7.007 14.472-11.898 23.158-16.791-1.947-.899-3.428-1.81-5.036-2.285-8.806-2.604-17.659-5.054-26.459-7.678-1.728-.516-2.381.233-3.444 1.375-3.877 4.17-7.621 8.583-12.06 12.09-7.23 5.714-15.659 5.32-24.207 3.362 3.342-8.708 11.736-19.696 25.787-20.073-1.112-.528-1.684-.837-2.283-1.08-3.564-1.447-7.202-2.735-10.677-4.371-2.044-.964-3.333-.99-5.025.82-4.028 4.304-8.975 7.445-14.479 9.541-7.673 2.924-15.06 1.474-22.336-1.743 5.059-9.7 15.025-15.002 28.597-15.018l-14.558-9.444c-7.59 5.17-15.624 9.703-25.344 8.787-5.188-.491-9.906-2.678-14.586-6.043 9.154-8.043 18.556-13.875 31.231-9.241-4.199-3.86-8.356-7.768-12.655-11.515-.51-.445-1.841-.184-2.708.055-4.865 1.34-9.624 3.249-14.568 4.07-8.916 1.48-15.994-2.628-22.561-8.789 4.773-3.399 9.788-5.576 15.339-6.736 5.757-1.206 10.925.333 16.121 2.748-3.525-4.539-6.997-9.117-10.647-13.552-.409-.495-1.893-.4-2.77-.168-5.708 1.508-11.464 1.933-17.303 1.052-7.621-1.15-12.723-5.936-17.196-11.737 7.999-5.842 20.048-5.32 31.033 1.588-1.828-3.306-3.361-6.015-4.832-8.757-1.286-2.397-1.938-5.669-3.917-6.998-1.79-1.204-4.996-.277-7.576-.343-11.31-.29-20.159-4.697-25.34-15.206-.163-.331-.267-.692-.536-1.399 5.15-1.71 10.33-1.677 15.503-1.12 5.377.58 9.66 3.359 13.5 7.187-1.355-4.506-2.884-8.971-4-13.534-.616-2.518-1.734-3.224-4.316-3.548-15.711-1.962-22.45-7.922-26.275-20.054-.08-.251-.076-.53-.156-1.15 10.936-.253 20.957 1.078 27.327 12.464-.855-6.529-1.528-12.173-2.414-17.784-.108-.686-1.268-1.364-2.08-1.754-4.374-2.1-9.05-3.699-13.138-6.247-6.103-3.807-10.088-12.25-9.574-19.076 10.464 1.545 19.764 4.568 23.795 15.935l.78-.326c0-3.97-.583-8.052.141-11.886 1-5.294-.776-7.771-5.536-10.176-8.393-4.242-13.85-11.142-14.212-21.118-.056-1.549-.008-3.104-.008-5.068 10.622 3.443 19.1 8.254 21.342 20.051.317-1.508.614-3.02.956-4.523.936-4.114 1.738-8.269 2.902-12.318.579-2.019-.008-2.9-1.573-4.103a66.109 66.109 0 0 1-7.89-7.184c-5.787-6.176-6.685-13.613-5.074-21.584.055-.27.177-.536.307-.781.082-.159.237-.28.557-.644 9.432 5.092 16.968 11.433 16.512 23.713.241-.499.513-.987.723-1.5 2.122-5.213 4.162-10.464 6.398-15.628.694-1.603.46-2.45-.634-3.87-3.072-3.98-6.191-8.042-8.459-12.495-2.776-5.452-1.832-13.104 1.333-18.642 8.426 3.8 13.218 13.662 12.726 25.554.12-.419.152-.888.37-1.244 3.156-5.112 6.388-10.176 9.448-15.343.419-.705.29-2.03-.076-2.85-1.79-4.003-4.098-7.809-5.565-11.92-2.563-7.187-.01-13.582 4.085-20.053 6.894 7.691 11.65 15.556 7.996 24.766l13.951-12.303c-7.356-15.155-5.579-25.676 3.1-33.121 5.715 8.945 8.437 18.002 2.03 27.749 5.423-3.977 10.875-7.917 16.227-11.992.476-.364.474-1.615.384-2.42-.424-3.81-1.242-7.593-1.39-11.41-.31-7.98 3.836-13.651 10.308-18.331 2.345 4.76 3.266 9.589 3.146 14.704-.125 5.35-3.197 9.226-6.154 13.345 4.08-2.177 7.984-4.844 12.288-6.407 5.274-1.916 7.277-4.55 6.801-10.541-.73-9.165 3.187-16.63 11.663-21.147.553-.296 1.158-.494 2.032-.861 2.448 10.639 1.526 19.93-8.302 26.677 4.268-1.65 8.634-2.12 12.05-5.681 5.962-6.215 14.184-6.853 21.346-2.519-5.105 6.386-13.804 10.595-22.457 7.028-1.288-.529-3.104-.45-4.461-.002-3.512 1.158-6.904 2.681-10.298 4.402 5.31.204 10.7-.94 15.576 1.959 4.632 2.75 7.996 6.653 10.775 11.485-13.705 4.798-22.57-1.821-30.39-12.133l-19.545 11.255.132 1.092c11.718-4.895 20.342-.364 27.767 8.306-9.124 5.788-19.61 5.399-32.315-6.358-5.862 4.762-11.788 9.58-17.714 14.396.058.328.118.653.178.98 10.934-6.774 20.443-3.972 29.4 3.532-8.808 8.044-19.453 8.38-33.729-.804l-15.135 17.632.506 1.006c9.808-8.961 19.949-7.81 30.445-1.724-6.915 8.56-15.696 10.367-25.72 7.95-2.18-.526-4.247-1.514-6.427-2.031-.733-.175-2.084.183-2.425.741-3.513 5.762-6.876 11.615-10.036 17.95 8.504-9.648 18.603-9.268 29.668-5.566-4.416 6.948-9.795 11.915-18.088 12.288-4.09.186-8.213-.357-12.324-.458-.86-.02-2.304.228-2.512.744-2.456 6.061-4.727 12.197-6.703 18.696 6.876-10.538 16.811-11.527 28.196-9.851-2.822 6.565-6.234 12.261-12.966 14.428-4.84 1.557-10.044 2.072-15.126 2.741-1.628.215-2.524.359-2.848 2.172-1.098 6.152-2.357 12.276-3.137 18.764 5.02-11.813 14.748-14.804 26.173-15.032-1.165 11.226-8.372 19.95-27.053 22.718v20.69c2.997-12.741 12.363-17.426 24.205-19.845-.385 7.243-1.83 13.673-7.132 18.607-4.185 3.896-9.12 6.564-14.497 8.473-.724.256-1.85 1.148-1.784 1.596.892 5.983 1.964 11.936 3.48 17.965.9-13.054 9.459-19.06 20.193-23.342 3.066 13.45-2.886 23.404-18.336 31.842 2.088 5.844 4.203 11.764 6.316 17.687.276-.021.552-.044.828-.064-.268-5.703 0-11.257 3.539-16.04 3.348-4.524 7.52-8.059 12.396-10.884 4.325 10.953 3.173 22.488-12.788 35.341 3.001 5.11 6.036 10.278 9.072 15.444.263-.054.524-.11.785-.165-3.714-12.741 2.72-21.312 11.558-29.317 3.928 7.476 5.941 14.963 2.621 22.698-2.01 4.682-5.196 8.852-7.763 13.304-.412.715-.784 2.057-.421 2.519 3.288 4.197 6.744 8.262 10.536 12.216-1.78-5.479-2.844-10.844-1.004-16.441 1.753-5.34 4.47-10.067 8.167-14.328 8.778 10.752 10.136 21.495.248 38.595 4.245 3.614 8.562 7.289 12.881 10.963l.767-.189c-7.623-11.099-4.114-21.479 1.341-31.972 13.267 10.976 12.57 24.328 7.15 38.785 5.045 2.991 10.017 5.938 14.986 8.886l.844-.38c-10.205-9.773-8.723-21.012-4.884-32.948 8.884 5.388 14.65 12.448 14.95 22.921.125 4.387-.457 8.79-.635 13.19-.028.695.193 1.874.609 2.038 4.937 1.941 9.935 3.732 15.005 5.3-9.748-10.286-13.266-21.892-9.477-32.287 6.855 2.827 12.921 6.65 16.323 13.499 3.268 6.58 4.21 13.75 4.196 21.164a163.484 163.484 0 0 1 34.446 10.765c.792.348 2.048.12 2.916-.248 10.315-4.373 20.89-7.93 31.896-10.07 1.871-.362 2.071-1.215 2.214-2.816.357-4.006.709-8.046 1.546-11.97 2.226-10.42 9.232-16.523 19.138-20.426 1.684 12.393 1.322 23.761-10.09 31.885l.69.66c4.805-1.77 9.633-3.485 14.386-5.384.507-.203.839-1.468.83-2.237-.056-5.317-.671-10.668-.26-15.943.724-9.281 6.77-15.076 14.402-20.076 2.304 5.759 3.111 11.424 2.92 17.274-.201 6.18-3.141 11.091-7.364 15.416l.515.629c4.979-2.923 9.955-5.846 15.023-8.82-5.468-14.462-6.122-27.796 7.082-38.778 2.96 5.043 4.882 10.258 5.611 15.912.74 5.75-.812 10.94-4.105 15.719.214.156.43.312.646.467l12.923-10.907c-7.668-13.027-10.672-25.777.239-38.61 3.721 4.335 6.408 8.975 8.104 14.222 1.753 5.433 1.038 10.705-1.182 15.924.272.125.546.254.818.38l10.965-12.895c-9.883-11.228-14.797-23.057-6.744-37.152 7.317 5.063 15.645 15.402 11.627 29.482.824-.93 1.341-1.361 1.666-1.906 2.314-3.866 4.515-7.804 6.91-11.62 1.145-1.825.908-2.756-.708-4.37-3.56-3.552-7.031-7.33-9.802-11.504-4.529-6.827-3.534-14.27-1.169-22.075 10.233 6.457 18.019 13.9 15.935 27.33l.848.027c.77-1.92 1.596-3.82 2.3-5.764 1.18-3.262 2.198-6.588 3.45-9.822.679-1.754.132-2.479-1.341-3.579-4.181-3.127-8.45-6.272-12.03-10.035-4.582-4.822-6.097-13.457-4.314-20.497 5.18 1.881 9.787 4.525 13.767 8.323 4.2 4.008 5.621 9.16 6.1 14.744l.898.036a218310 218310 0 0 1 3.487-18.534c-13.488-4.568-23.73-11.613-23.69-27.785 5.783 1.079 10.863 2.947 15.474 6.21 4.83 3.417 6.501 8.671 8.75 13.773 0-6.535.062-13.068-.103-19.598-.014-.604-1.388-1.405-2.271-1.716-4.401-1.548-9.037-2.561-13.243-4.51-7.278-3.375-10.27-10.002-12.016-17.432 8.147-.702 20.6 1.346 26.467 14.306 0-.82.121-1.664-.021-2.46-.948-5.264-2.002-10.51-2.918-15.78-.32-1.842-1.19-2.222-3.02-2.313-3.724-.188-7.506-.528-11.118-1.407-8.408-2.044-13.548-7.012-16.72-15.824 5.388-.797 10.574-.888 15.814.472 5.458 1.416 8.767 5.463 11.978 9.698l.67-.404c-2.349-6.192-4.641-12.408-7.145-18.54-.219-.538-1.883-.86-2.763-.692-5.248.997-10.48 1.037-15.668-.139-6.577-1.492-10.77-5.996-14.405-11.655 5.27-2.172 10.425-2.73 15.71-2.31 5.647.45 9.545 4.056 13.4 7.708.209-.14.417-.282.625-.423-3.552-6.25-7.106-12.5-10.759-18.93-7.92 3.206-15.696 5.249-23.797 2.454-4.063-1.403-7.294-4.156-10.122-7.421 9.176-5.602 18.974-8.258 30.41 1.133l.565-.477c-5.044-5.911-10.085-11.823-15.17-17.782-11.34 7.179-22.391 10.494-33.785 1.104 7.562-8.06 16.171-9.285 29.567-4.788l-17.655-14.417c-13.242 12.188-23.718 11.813-32.344 6.405 7.463-8.873 16.195-13.264 27.935-8.294.061-.331.124-.662.184-.992l-19.75-11.446c-4.871 6.374-10.074 12.103-18.029 13.415-3.917.645-8.085-.237-12.704-.455 6.156-11.376 14.52-16.438 26.93-13.553-.02-.324-.043-.648-.063-.973-4.117-1.63-8.221-3.292-12.367-4.846-.508-.19-1.294.078-1.852.343-9.013 4.285-17.824-.119-23.29-6.617 6.824-4.252 15.165-3.723 21.15 2.258 3.518 3.514 7.832 4.367 12.33 5.88-9.747-6.745-10.862-15.974-8.28-26.701 7.397 3.435 12.278 8.513 13.29 16.508.455 3.595.18 7.277.356 10.913.038.775.38 1.931.942 2.223 6.038 3.153 12.148 6.17 18.902 9.555-4.084-4.671-7.542-9.14-6.93-15.076.453-4.388 1.585-8.707 2.536-13.696 6.425 4.848 10.906 9.792 10.828 17.268-.047 4.37-.902 8.729-1.272 13.104-.071.84.138 2.102.705 2.536 5.14 3.924 10.388 7.706 16.023 11.614-6.447-9.774-3.69-18.722 2.078-27.817 4.74 4.86 8.271 10.09 7.499 16.79-.56 4.858-2.377 9.566-3.543 14.365-.205.841-.326 2.202.143 2.629 4.656 4.23 9.447 8.313 13.837 12.936-2.192-4.319-3.129-9.35-.74-14.148 2.015-4.041 4.606-7.795 7.198-12.099 6.588 8.951 6.936 17.518 2.496 26.422-1.043 2.092-2.444 4.001-3.566 6.057-.345.63-.685 1.7-.39 2.175 3.449 5.568 7.02 11.061 10.836 16.737-2.548-11.524 3.557-18.884 12.009-25.595 2.988 6.279 4.407 12.627 1.536 18.807-2.17 4.673-5.737 8.693-8.623 13.044-.489.739-1.172 1.87-.929 2.492 2.396 6.092 4.97 12.112 7.799 18.4-.838-12.353 6.697-18.723 16.626-24.036 1.546 6.972 1.872 13.353-1.84 19.365-2.857 4.626-6.646 8.351-11.081 11.487-.708.501-1.427 1.823-1.268 2.583 1.256 6.048 2.725 12.053 4.333 18.954 1.722-12.741 10.251-17.682 20.823-21.041.483 7.25-.195 14.037-5.392 19.077-3.712 3.6-8.275 6.37-12.648 9.215-1.488.97-2.04 1.657-1.865 3.475.428 4.389.522 8.81.732 13.22.045.972.006 1.949.314 3.069 4.307-10.977 13.552-13.839 24.203-15.568-.637 7.408-2.513 13.927-8.413 18.045-4.308 3.01-9.37 4.994-14.226 7.138-1.542.681-2.418 1.192-2.617 2.992-.585 5.294-1.383 10.568-2.227 16.813 6.316-11.381 16.36-12.748 27.519-12.515-2.063 7.13-5.152 13.166-11.708 16.751-4.917 2.688-10.21 4.183-15.81 4.703-.973.089-2.44.822-2.703 1.59-1.716 5.05-3.164 10.187-4.999 16.29 8.428-10.139 18.672-9.24 29.496-7.362-4.32 9.392-10.905 15.213-20.996 16.323-3.62.397-7.301.2-10.95.399-.777.04-1.906.406-2.226.983-2.672 4.831-5.19 9.746-7.68 14.867 4.421-3.326 9.18-5.577 14.855-5.381 5.426.187 10.542 1.46 15.834 3.819-4.98 6.737-10.752 11.984-19.309 12.288-5.095.181-10.247-.692-15.335-1.367-1.684-.224-2.649-.15-3.738 1.333-3.098 4.227-6.432 8.28-9.607 12.668 5.073-2.46 10.204-4.084 15.941-2.915 5.532 1.126 10.471 3.402 15.442 6.635-6.466 6.288-13.595 10.35-22.595 8.896-4.941-.798-9.701-2.71-14.556-4.07-.807-.227-2.036-.6-2.475-.22-4.35 3.79-8.577 7.725-12.834 11.873 12.606-4.728 22.044.955 30.921 8.894-10.267 8.007-22.379 9.657-39.645-2.563a56105.56 56105.56 0 0 1-14.14 9.065c5.702-.353 11.105.327 16.033 3.436 4.821 3.042 8.865 6.84 12.283 11.817-7.206 3.25-14.311 4.683-21.732 2.14-6.138-2.103-11.419-5.698-15.886-10.393-1.117-1.175-1.949-1.285-3.372-.659-4.422 1.949-8.917 3.732-13.438 5.792 13.205.516 19.785 9.37 25.637 19.843-5.577 1.776-10.925 2.13-16.27.817-8.81-2.165-14.805-8.225-19.929-15.244-1.32-1.806-2.362-2.509-4.761-1.994-9.94 2.14-19.661 4.897-28.963 9.045-.401.179-.782.401-1.617.833"/><g white-space="pre"><g font-weight="400" font-size="107.642" font-family="Rock Salt"><path d="M472.803 222.146h49.406v11.913h-66.436v-11.913q8.06-8.34 21.935-22.356 13.946-14.085 17.52-18.15 6.798-7.639 9.46-12.895 2.734-5.326 2.734-10.442 0-8.339-5.887-13.595-5.816-5.256-15.207-5.256-6.658 0-14.086 2.313-7.358 2.312-15.768 7.008v-14.297q8.55-3.433 15.978-5.185 7.429-1.752 13.596-1.752 16.258 0 25.929 8.129 9.67 8.129 9.67 21.724 0 6.448-2.452 12.264-2.383 5.747-8.76 13.596-1.752 2.032-11.142 11.773-9.391 9.671-26.49 27.12zM552.132 129.43h55.573v11.914h-42.608v25.65q3.084-1.052 6.167-1.542 3.084-.561 6.167-.561 17.52 0 27.752 9.6 10.231 9.602 10.231 26 0 16.89-10.512 26.28-10.512 9.32-29.643 9.32-6.588 0-13.456-1.12-6.797-1.122-14.086-3.364V217.38q6.308 3.434 13.035 5.116 6.728 1.682 14.226 1.682 12.124 0 19.202-6.377 7.078-6.377 7.078-17.31 0-10.932-7.078-17.31-7.078-6.377-19.202-6.377-5.676 0-11.353 1.262-5.606 1.261-11.493 3.924v-52.56z"/></g><g font-size="40.727" font-family="Museo"><path d="M468.85 278.689q-2.067 5.303-4.03 6.92-1.961 1.618-5.25 1.618h-3.897v-4.084h2.864q2.015 0 3.128-.954 1.114-.955 2.466-4.508l.875-2.227-12.011-29.22h5.17l9.28 23.228 9.28-23.228h5.171l-13.045 32.455zM514.033 259.863v2.386H491.6q.318 5.038 3.023 7.69 2.73 2.625 7.583 2.625 2.81 0 5.436-.69 2.651-.689 5.25-2.068v4.614q-2.625 1.113-5.383 1.697-2.758.583-5.595.583-7.106 0-11.269-4.136-4.136-4.137-4.136-11.19 0-7.291 3.924-11.56 3.951-4.296 10.633-4.296 5.992 0 9.466 3.872 3.5 3.844 3.5 10.473zm-4.88-1.432q-.052-4.004-2.253-6.39-2.174-2.386-5.78-2.386-4.083 0-6.55 2.307-2.439 2.306-2.81 6.496l17.394-.027zM535.43 261.003q-5.912 0-8.193 1.352-2.28 1.353-2.28 4.614 0 2.599 1.697 4.136 1.723 1.512 4.667 1.512 4.056 0 6.496-2.864 2.466-2.89 2.466-7.663v-1.087h-4.853zm9.731-2.015v16.943h-4.878v-4.507q-1.67 2.704-4.163 4.003-2.493 1.273-6.099 1.273-4.56 0-7.265-2.545-2.678-2.572-2.678-6.868 0-5.011 3.341-7.557 3.367-2.545 10.023-2.545h6.84v-.477q0-3.368-2.227-5.197-2.2-1.856-6.204-1.856-2.546 0-4.958.61-2.413.61-4.64 1.83v-4.508q2.677-1.035 5.196-1.538 2.52-.53 4.906-.53 6.443 0 9.625 3.34 3.181 3.341 3.181 10.129zM572.552 250.795q-.822-.477-1.804-.69-.954-.238-2.12-.238-4.137 0-6.364 2.704-2.201 2.678-2.201 7.716v15.644h-4.905v-29.697h4.905v4.614q1.538-2.705 4.004-4.004 2.466-1.326 5.992-1.326.504 0 1.114.08.61.053 1.352.186l.027 5.01zM596.654 247.11v4.613q-2.068-1.06-4.296-1.591-2.227-.53-4.613-.53-3.633 0-5.462 1.113-1.803 1.114-1.803 3.341 0 1.697 1.299 2.678 1.299.955 5.223 1.83l1.67.371q5.198 1.114 7.372 3.155 2.2 2.015 2.2 5.648 0 4.136-3.287 6.55-3.262 2.412-8.989 2.412-2.386 0-4.985-.477-2.572-.45-5.435-1.379v-5.038q2.704 1.406 5.33 2.121 2.624.69 5.196.69 3.447 0 5.303-1.167 1.856-1.193 1.856-3.34 0-1.99-1.352-3.05-1.326-1.06-5.86-2.042l-1.697-.397q-4.534-.955-6.549-2.917-2.015-1.989-2.015-5.436 0-4.189 2.97-6.47 2.97-2.28 8.431-2.28 2.705 0 5.091.398 2.387.398 4.402 1.193z"/></g><g font-weight="400" font-size="113.52" font-family="Museo500"><path d="M830.341 210.684v49.96h-13.598v-49.516q0-11.751-4.582-17.59-4.583-5.839-13.747-5.839-11.012 0-17.368 7.021-6.356 7.022-6.356 19.142v46.783h-13.673V145.647h13.673v45.082q4.878-7.464 11.456-11.16 6.651-3.695 15.298-3.695 14.264 0 21.58 8.87 7.317 8.794 7.317 25.94zM856.209 227.978V177.87h13.598v49.59q0 11.752 4.583 17.664 4.582 5.84 13.746 5.84 11.012 0 17.368-7.022 6.43-7.021 6.43-19.142v-46.93h13.599v82.775h-13.6v-12.712q-4.95 7.538-11.528 11.234-6.504 3.621-15.151 3.621-14.264 0-21.655-8.869-7.39-8.868-7.39-25.94zM1018.137 193.76q5.1-9.165 12.195-13.525 7.095-4.36 16.703-4.36 12.933 0 19.954 9.09 7.021 9.016 7.021 25.72v49.96h-13.672v-49.517q0-11.9-4.213-17.664-4.213-5.765-12.86-5.765-10.568 0-16.702 7.021-6.135 7.022-6.135 19.142v46.783h-13.672v-49.517q0-11.973-4.213-17.664-4.213-5.765-13.008-5.765-10.42 0-16.555 7.095-6.134 7.021-6.134 19.068v46.783h-13.672V177.87h13.672v12.86q4.656-7.613 11.16-11.234 6.504-3.622 15.447-3.622 9.016 0 15.298 4.583 6.356 4.582 9.386 13.303zM1138.53 219.036q-16.48 0-22.837 3.769-6.355 3.769-6.355 12.86 0 7.242 4.73 11.529 4.803 4.213 13.007 4.213 11.308 0 18.107-7.982 6.873-8.056 6.873-21.36v-3.03h-13.525zm27.124-5.617v47.226h-13.599V248.08q-4.656 7.538-11.603 11.16-6.947 3.547-16.998 3.547-12.712 0-20.25-7.095-7.465-7.169-7.465-19.142 0-13.968 9.312-21.063 9.386-7.095 27.937-7.095h19.067v-1.33q0-9.386-6.208-14.486-6.134-5.173-17.294-5.173-7.095 0-13.82 1.7-6.726 1.7-12.934 5.1v-12.565q7.465-2.882 14.486-4.287 7.02-1.478 13.672-1.478 17.96 0 26.828 9.313 8.87 9.312 8.87 28.232zM1262.84 210.684v49.96h-13.598v-49.516q0-11.751-4.582-17.59t-13.747-5.839q-11.012 0-17.368 7.021-6.356 7.022-6.356 19.142v46.783h-13.672V177.87h13.672v12.86q4.878-7.465 11.456-11.16 6.651-3.696 15.298-3.696 14.264 0 21.581 8.87 7.317 8.794 7.317 25.94zM1375.917 219.036q-16.48 0-22.837 3.769-6.356 3.769-6.356 12.86 0 7.242 4.73 11.529 4.804 4.213 13.008 4.213 11.308 0 18.107-7.982 6.873-8.056 6.873-21.36v-3.03h-13.525zm27.124-5.617v47.226h-13.599V248.08q-4.656 7.538-11.603 11.16-6.947 3.547-16.999 3.547-12.711 0-20.25-7.095-7.464-7.169-7.464-19.142 0-13.968 9.312-21.063 9.386-7.095 27.936-7.095h19.068v-1.33q0-9.386-6.208-14.486-6.134-5.173-17.294-5.173-7.095 0-13.82 1.7-6.726 1.7-12.934 5.1v-12.565q7.464-2.882 14.486-4.287 7.02-1.478 13.672-1.478 17.96 0 26.828 9.313 8.869 9.312 8.869 28.232zM1444.576 248.229v43.9h-13.672v-114.26h13.672v12.565q4.287-7.39 10.79-10.938 6.578-3.622 15.669-3.622 15.077 0 24.463 11.973 9.46 11.973 9.46 31.484 0 19.511-9.46 31.484-9.386 11.973-24.463 11.973-9.09 0-15.668-3.547-6.504-3.622-10.79-11.012zm46.266-28.898q0-15.003-6.209-23.502-6.134-8.573-16.924-8.573t-16.999 8.573q-6.134 8.5-6.134 23.502 0 15.003 6.134 23.576 6.209 8.5 16.999 8.5t16.924-8.5q6.209-8.573 6.209-23.576zM1540.654 248.229v43.9h-13.672v-114.26h13.672v12.565q4.287-7.39 10.79-10.938 6.578-3.622 15.669-3.622 15.077 0 24.463 11.973 9.46 11.973 9.46 31.484 0 19.511-9.46 31.484-9.386 11.973-24.463 11.973-9.09 0-15.668-3.547-6.504-3.622-10.79-11.012zm46.266-28.898q0-15.003-6.208-23.502-6.135-8.573-16.925-8.573-10.79 0-16.998 8.573-6.135 8.5-6.135 23.502 0 15.003 6.135 23.576 6.208 8.5 16.998 8.5 10.79 0 16.925-8.5 6.208-8.573 6.208-23.576zM1694.38 215.858v6.651h-62.525q.887 14.042 8.425 21.433 7.612 7.317 21.137 7.317 7.834 0 15.151-1.922 7.39-1.921 14.633-5.765v12.86q-7.316 3.104-15.003 4.73-7.686 1.626-15.594 1.626-19.807 0-31.41-11.53-11.53-11.529-11.53-31.188 0-20.324 10.939-32.223 11.012-11.973 29.636-11.973 16.703 0 26.385 10.79 9.755 10.717 9.755 29.194zm-13.6-3.991q-.147-11.16-6.281-17.812-6.06-6.651-16.112-6.651-11.382 0-18.255 6.43-6.8 6.43-7.834 18.107l48.483-.074zM1754.022 219.036q-16.481 0-22.837 3.769-6.356 3.769-6.356 12.86 0 7.242 4.73 11.529 4.804 4.213 13.007 4.213 11.308 0 18.107-7.982 6.874-8.056 6.874-21.36v-3.03h-13.525zm27.123-5.617v47.226h-13.598V248.08q-4.657 7.538-11.604 11.16-6.947 3.547-16.998 3.547-12.712 0-20.25-7.095-7.465-7.169-7.465-19.142 0-13.968 9.312-21.063 9.386-7.095 27.937-7.095h19.068v-1.33q0-9.386-6.209-14.486-6.134-5.173-17.294-5.173-7.095 0-13.82 1.7-6.726 1.7-12.934 5.1v-12.565q7.465-2.882 14.486-4.287 7.021-1.478 13.673-1.478 17.959 0 26.828 9.313 8.868 9.312 8.868 28.232zM1809.525 145.647h13.6v114.998h-13.6V145.647z"/></g></g></g></svg>