<?xml version="1.0" encoding="UTF-8" standalone="no"?>
<svg
   xmlns:dc="http://purl.org/dc/elements/1.1/"
   xmlns:cc="http://creativecommons.org/ns#"
   xmlns:rdf="http://www.w3.org/1999/02/22-rdf-syntax-ns#"
   xmlns:svg="http://www.w3.org/2000/svg"
   xmlns="http://www.w3.org/2000/svg"
   xmlns:sodipodi="http://sodipodi.sourceforge.net/DTD/sodipodi-0.dtd"
   xmlns:inkscape="http://www.inkscape.org/namespaces/inkscape"
   viewBox="330.71201 25.382 1492.412 369.32532"
   width="1492.412"
   height="369.32532"
   id="svg2"
   version="1.1"
   inkscape:version="0.91 r13725"
   sodipodi:docname="human_appeal.svg">
  <metadata
     id="metadata18">
    <rdf:RDF>
      <cc:Work
         rdf:about="">
        <dc:format>image/svg+xml</dc:format>
        <dc:type
           rdf:resource="http://purl.org/dc/dcmitype/StillImage" />
        <dc:title></dc:title>
      </cc:Work>
    </rdf:RDF>
  </metadata>
  <defs
     id="defs16" />
  <sodipodi:namedview
     pagecolor="#ffffff"
     bordercolor="#666666"
     borderopacity="1"
     objecttolerance="10"
     gridtolerance="10"
     guidetolerance="10"
     inkscape:pageopacity="0"
     inkscape:pageshadow="2"
     inkscape:window-width="1137"
     inkscape:window-height="582"
     id="namedview14"
     showgrid="false"
     fit-margin-top="0"
     fit-margin-left="0"
     fit-margin-right="0"
     fit-margin-bottom="0"
     inkscape:zoom="0.24570803"
     inkscape:cx="744.3931"
     inkscape:cy="184.66216"
     inkscape:window-x="62"
     inkscape:window-y="1"
     inkscape:window-maximized="0"
     inkscape:current-layer="svg2" />
  <g
     transform="matrix(1.3333333,0,0,-1.3333333,-0.39330798,394.70732)"
     id="g10">
    <g
       transform="scale(0.1,0.1)"
       id="g12">
      <path
         id="path14"
         style="fill:#5d2590;fill-opacity:1;fill-rule:nonzero;stroke:none"
         d="M 3952.3,164.82 C 4016.49,128.34 4075.76,92.0703 4125.72,39.0781 4110.34,25.4922 4096.37,13.1406 4081.64,0.109375 4031.59,52.6289 3974.58,93.4297 3913.32,128.84 c -13.35,7.711 -23.55,7.281 -36.59,-0.32 C 3816.17,93.1992 3759.41,53.1211 3709.19,0 c -14.18,12.5586 -28.12,24.8984 -44.04,38.9883 49,52.5508 108.54,89.2307 173.68,125.9337 -14.6,6.738 -25.71,13.578 -37.77,17.137 -66.04,19.531 -132.44,37.902 -198.44,57.582 -12.96,3.871 -17.86,-1.743 -25.83,-10.309 -29.08,-31.281 -57.16,-64.371 -90.45,-90.684 -54.22,-42.8472 -117.44,-39.898 -181.55,-25.207 25.06,65.309 88.02,147.719 193.4,150.547 -8.34,3.961 -12.63,6.274 -17.12,8.094 -26.73,10.859 -54.02,20.52 -80.08,32.789 -15.33,7.231 -25,7.418 -37.69,-6.152 -30.21,-32.278 -67.31,-55.84 -108.59,-71.559 -57.55,-21.93 -112.95,-11.051 -167.52,13.078 37.94,72.754 112.69,112.512 214.48,112.633 -38.17,24.758 -73.04,47.379 -109.19,70.828 -56.92,-38.769 -117.18,-72.769 -190.08,-65.898 -38.91,3.679 -74.29,20.078 -109.39,45.32 68.65,60.32 139.17,104.059 234.23,69.309 -31.49,28.949 -62.67,58.261 -94.91,86.359 -3.83,3.34 -13.81,1.383 -20.31,-0.41 -36.49,-10.047 -72.18,-24.367 -109.26,-30.52 -66.87,-11.109 -119.96,19.7 -169.21,65.911 35.8,25.492 73.41,41.82 115.04,50.519 43.18,9.043 81.94,-2.5 120.91,-20.609 -26.44,34.039 -52.48,68.379 -79.85,101.64 -3.07,3.711 -14.2,3 -20.78,1.262 -42.81,-11.312 -85.98,-14.5 -129.77,-7.891 -57.16,8.629 -95.42,44.52 -128.97,88.028 59.99,43.812 150.36,39.902 232.75,-11.91 -13.71,24.793 -25.21,45.113 -36.24,65.679 -9.65,17.973 -14.54,42.512 -29.38,52.481 -13.43,9.031 -37.47,2.082 -56.82,2.57 -84.83,2.172 -151.19,35.231 -190.05,114.051 -1.22,2.48 -2,5.19 -4.02,10.49 38.63,12.83 77.47,12.58 116.27,8.4 40.33,-4.35 72.45,-25.19 101.25,-53.902 -10.16,33.792 -21.63,67.282 -30,101.502 -4.62,18.89 -13,24.18 -32.37,26.61 -117.83,14.72 -168.37,59.42 -197.06,150.41 -0.6,1.88 -0.57,3.97 -1.17,8.62 82.02,1.9 157.18,-8.08 204.95,-93.48 -6.41,48.97 -11.46,91.3 -18.1,133.38 -0.81,5.15 -9.51,10.23 -15.6,13.16 -32.81,15.75 -67.88,27.74 -98.54,46.85 -45.77,28.55 -75.66,91.88 -71.8,143.07 78.48,-11.59 148.23,-34.26 178.46,-119.51 1.95,0.81 3.9,1.63 5.85,2.44 0,29.78 -4.37,60.39 1.06,89.15 7.5,39.7 -5.82,58.28 -41.52,76.32 -62.95,31.81 -103.88,83.56 -106.59,158.38 -0.42,11.62 -0.06,23.28 -0.06,38.01 79.66,-25.82 143.25,-61.9 160.06,-150.38 2.38,11.31 4.61,22.65 7.17,33.92 7.02,30.86 13.04,62.02 21.77,92.39 4.34,15.14 -0.06,21.75 -11.8,30.77 -21.09,16.21 -40.96,34.46 -59.17,53.88 -43.41,46.32 -50.14,102.1 -38.06,161.88 0.41,2.03 1.33,4.02 2.3,5.86 0.62,1.19 1.78,2.1 4.18,4.83 70.74,-38.19 127.26,-85.75 123.84,-177.85 1.81,3.74 3.85,7.4 5.42,11.25 15.92,39.1 31.22,78.48 47.99,117.21 5.2,12.02 3.45,18.38 -4.76,29.03 -23.04,29.85 -46.43,60.31 -63.44,93.71 -20.82,40.89 -13.74,98.28 10,139.81 63.19,-28.5 99.13,-102.46 95.44,-191.65 0.9,3.14 1.14,6.66 2.78,9.33 23.67,38.34 47.91,76.32 70.86,115.07 3.14,5.29 2.17,15.23 -0.57,21.37 -13.43,30.03 -30.74,58.57 -41.74,89.4 -19.22,53.91 -0.08,101.87 30.64,150.4 51.7,-57.68 87.37,-116.67 59.97,-185.74 31.09,27.41 68.51,60.41 104.63,92.27 -55.17,113.66 -41.84,192.57 23.25,248.41 42.86,-67.09 63.28,-135.02 15.22,-208.12 40.68,29.83 81.57,59.38 121.71,89.94 3.57,2.73 3.55,12.11 2.88,18.15 -3.18,28.57 -9.32,56.95 -10.43,85.57 -2.32,59.86 28.77,102.39 77.31,137.49 17.59,-35.7 24.5,-71.92 23.6,-110.28 -0.94,-40.13 -23.98,-69.2 -46.16,-100.09 30.6,16.33 59.88,36.33 92.16,48.05 39.56,14.37 54.58,34.13 51.01,79.06 -5.47,68.74 23.9,124.73 87.47,158.6 4.15,2.22 8.69,3.71 15.24,6.46 18.36,-79.79 11.45,-149.47 -62.26,-200.08 32.01,12.38 64.75,15.9 90.37,42.61 44.72,46.61 106.38,51.4 160.1,18.89 -38.29,-47.89 -103.53,-79.46 -168.43,-52.71 -9.66,3.97 -23.28,3.38 -33.46,0.02 -26.34,-8.69 -51.78,-20.11 -77.23,-33.02 39.82,-1.53 80.25,7.05 116.82,-14.69 34.74,-20.63 59.97,-49.9 80.81,-86.14 -102.79,-35.98 -169.27,13.66 -227.93,91 -49.1,-28.28 -97.84,-56.35 -146.58,-84.41 0.33,-2.73 0.66,-5.46 0.99,-8.19 87.88,36.71 152.56,2.73 208.25,-62.3 -68.43,-43.41 -147.07,-40.49 -242.36,47.69 -43.97,-35.72 -88.41,-71.85 -132.86,-107.97 0.44,-2.46 0.89,-4.9 1.34,-7.35 82,50.8 153.32,29.79 220.5,-26.49 -66.06,-60.33 -145.9,-62.85 -252.97,6.03 -37.53,-43.73 -75.52,-87.99 -113.51,-132.24 1.26,-2.52 2.53,-5.04 3.79,-7.55 73.56,67.21 149.62,58.58 228.34,12.93 -51.86,-64.2 -117.72,-77.75 -192.9,-59.62 -16.35,3.94 -31.85,11.35 -48.2,15.23 -5.5,1.31 -15.63,-1.37 -18.19,-5.56 -26.35,-43.21 -51.57,-87.11 -75.27,-134.62 63.78,72.36 139.52,69.51 222.51,41.74 -33.12,-52.11 -73.46,-89.36 -135.66,-92.16 -30.68,-1.39 -61.6,2.68 -92.43,3.44 -6.45,0.15 -17.28,-1.71 -18.84,-5.58 -18.42,-45.46 -35.45,-91.48 -50.27,-140.22 51.57,79.03 126.08,86.45 211.47,73.88 -21.17,-49.24 -46.76,-91.96 -97.25,-108.21 -36.3,-11.68 -75.33,-15.54 -113.44,-20.56 -12.21,-1.61 -18.93,-2.69 -21.36,-16.29 -8.24,-46.14 -17.68,-92.07 -23.53,-140.73 37.65,88.6 110.61,111.03 196.3,112.74 -8.74,-84.19 -62.79,-149.62 -202.9,-170.38 0,-51.4 0,-103.3 0,-155.18 22.48,95.56 92.72,130.7 181.54,148.84 -2.89,-54.32 -13.73,-102.55 -53.49,-139.55 -31.39,-29.22 -68.4,-49.23 -108.73,-63.55 -5.43,-1.92 -13.88,-8.61 -13.38,-11.97 6.69,-44.87 14.73,-89.52 26.1,-134.74 6.75,97.91 70.94,142.95 151.45,175.07 22.99,-100.88 -21.65,-175.53 -137.52,-238.82 15.66,-43.83 31.52,-88.23 47.37,-132.65 2.07,0.16 4.14,0.328 6.21,0.481 -2.01,42.769 0,84.429 26.54,120.299 25.11,33.93 56.4,60.44 92.97,81.63 32.44,-82.15 23.8,-168.66 -95.91,-265.058 22.51,-38.32 45.27,-77.082 68.04,-115.832 1.97,0.41 3.93,0.832 5.89,1.242 -27.86,95.559 20.4,159.84 86.68,219.878 29.46,-56.069 44.56,-112.222 19.66,-170.241 -15.07,-35.11 -38.97,-66.387 -58.22,-99.778 -3.09,-5.359 -5.88,-15.429 -3.16,-18.89 24.66,-31.481 50.58,-61.969 79.02,-91.621 -13.35,41.09 -21.33,81.332 -7.53,123.308 13.15,40.043 33.53,75.5 61.25,107.461 65.84,-80.64 76.02,-161.211 1.86,-289.461 31.84,-27.109 64.22,-54.668 96.61,-82.226 1.91,0.476 3.83,0.937 5.75,1.418 -57.17,83.242 -30.85,161.09 10.06,239.789 99.5,-82.321 94.28,-182.457 53.62,-290.887 37.84,-22.434 75.13,-44.531 112.4,-66.641 2.11,0.95 4.22,1.899 6.33,2.848 -76.54,73.293 -65.42,157.59 -36.63,247.109 66.63,-40.41 109.88,-93.359 112.12,-171.91 0.94,-32.898 -3.42,-65.929 -4.76,-98.918 -0.21,-5.218 1.45,-14.058 4.57,-15.289 37.03,-14.562 74.51,-27.992 112.54,-39.75 -73.11,77.141 -99.5,164.188 -71.08,242.149 51.41,-21.2 96.91,-49.879 122.42,-101.239 24.51,-49.351 31.58,-103.132 31.47,-158.73 89.94,-17.609 175.6,-44.449 258.35,-80.742 5.94,-2.61 15.36,-0.899 21.87,1.863 77.36,32.797 156.67,59.469 239.22,75.52 14.03,2.718 15.53,9.117 16.6,21.128 2.68,30.04 5.32,60.34 11.6,89.77 16.69,78.148 69.24,123.922 143.53,153.199 12.63,-92.949 9.92,-178.211 -75.67,-239.14 1.72,-1.649 3.45,-3.297 5.17,-4.95 36.04,13.27 72.25,26.141 107.9,40.383 3.8,1.52 6.29,11.008 6.22,16.778 -0.42,39.878 -5.03,80.011 -1.95,119.57 5.43,69.609 50.78,113.07 108.02,150.57 17.28,-43.191 23.33,-85.68 21.9,-129.558 -1.51,-46.34 -23.56,-83.18 -55.23,-115.614 1.29,-1.578 2.58,-3.148 3.86,-4.718 37.34,21.921 74.66,43.839 112.67,66.152 -41.01,108.457 -45.91,208.469 53.12,290.828 22.2,-37.82 36.61,-76.93 42.08,-119.34 5.55,-43.121 -6.09,-82.051 -30.79,-117.89 1.61,-1.168 3.23,-2.34 4.85,-3.5 32.1,27.089 64.2,54.179 96.92,81.8 -57.51,97.7 -80.04,193.328 1.79,289.578 27.91,-32.519 48.06,-67.316 60.78,-106.668 13.15,-40.75 7.79,-80.289 -8.86,-119.429 2.04,-0.942 4.09,-1.903 6.13,-2.852 27.3,32.102 54.59,64.199 82.24,96.711 -74.12,84.211 -110.98,172.93 -50.58,278.64 54.88,-37.968 117.34,-115.511 87.2,-221.109 6.18,6.969 10.06,10.207 12.5,14.289 17.35,29 33.86,58.532 51.82,87.149 8.59,13.691 6.81,20.672 -5.31,32.781 -26.7,26.641 -52.73,54.969 -73.51,86.28 -33.97,51.2 -26.51,107.02 -8.77,165.56 76.75,-48.43 135.14,-104.25 119.51,-204.98 2.12,-0.059 4.24,-0.129 6.36,-0.2 5.78,14.399 11.97,28.649 17.25,43.23 8.85,24.47 16.49,49.41 25.88,73.67 5.09,13.15 0.99,18.59 -10.06,26.84 -31.36,23.45 -63.38,47.04 -90.22,75.26 -34.37,36.17 -45.73,100.93 -32.36,153.73 38.85,-14.11 73.4,-33.94 103.25,-62.42 31.5,-30.06 42.16,-68.7 45.75,-110.58 2.25,-0.09 4.49,-0.18 6.74,-0.27 8.63,45.88 17.26,91.76 26.15,139 -101.16,34.26 -177.98,87.1 -177.68,208.39 43.38,-8.09 81.48,-22.1 116.06,-46.58 36.22,-25.62 48.76,-65.03 65.63,-103.29 0,49.01 0.46,98.01 -0.78,146.98 -0.1,4.53 -10.41,10.54 -17.03,12.87 -33.01,11.61 -67.78,19.21 -99.32,33.83 -54.59,25.31 -77.03,75.01 -90.12,130.74 61.1,5.26 154.5,-10.1 198.5,-107.3 0,6.15 0.91,12.48 -0.16,18.45 -7.11,39.48 -15.01,78.83 -21.88,118.35 -2.4,13.82 -8.93,16.67 -22.65,17.35 -27.93,1.41 -56.3,3.96 -83.39,10.55 -63.06,15.33 -101.61,52.59 -125.4,118.68 40.41,5.98 79.31,6.66 118.61,-3.54 40.93,-10.62 65.75,-40.97 89.83,-72.73 1.68,1.02 3.36,2.02 5.03,3.03 -17.62,46.44 -34.81,93.06 -53.59,139.05 -1.64,4.03 -14.12,6.45 -20.72,5.19 -39.36,-7.48 -78.6,-7.78 -117.51,1.04 -49.33,11.19 -80.78,44.97 -108.04,87.41 39.52,16.29 78.19,20.48 117.83,17.33 42.35,-3.38 71.58,-30.42 100.49,-57.81 1.57,1.05 3.13,2.11 4.69,3.17 -26.64,46.87 -53.29,93.75 -80.69,141.97 -59.4,-24.04 -117.72,-39.36 -178.48,-18.4 -30.47,10.52 -54.7,31.17 -75.91,55.66 68.82,42.01 142.3,61.93 228.07,-8.5 1.41,1.19 2.83,2.39 4.24,3.58 -37.83,44.33 -75.64,88.67 -113.77,133.36 -85.05,-53.84 -167.94,-78.7 -253.39,-8.28 56.71,60.45 121.28,69.64 221.75,35.91 -44.29,36.16 -88.58,72.33 -132.41,108.13 -99.32,-91.41 -177.89,-88.6 -242.58,-48.04 55.97,66.55 121.46,99.48 209.51,62.21 0.46,2.48 0.93,4.96 1.38,7.44 -48.91,28.35 -97.83,56.69 -148.12,85.84 -36.54,-47.8 -75.56,-90.77 -135.22,-100.61 -29.38,-4.84 -60.64,1.78 -95.28,3.41 46.17,85.32 108.9,123.29 201.97,101.65 -0.15,2.43 -0.32,4.86 -0.47,7.3 -30.88,12.22 -61.66,24.69 -92.75,36.34 -3.81,1.43 -9.71,-0.58 -13.89,-2.57 -67.6,-32.14 -133.68,0.89 -174.68,49.63 51.18,31.89 113.74,27.92 158.63,-16.94 26.38,-26.35 58.74,-32.75 92.47,-44.1 -73.1,50.59 -81.46,119.81 -62.1,200.26 55.48,-25.76 92.09,-63.85 99.68,-123.81 3.41,-26.96 1.35,-54.58 2.67,-81.85 0.28,-5.81 2.85,-14.48 7.06,-16.67 45.29,-23.65 91.11,-46.27 141.77,-71.66 -30.63,35.03 -56.57,68.55 -51.98,113.07 3.4,32.91 11.89,65.3 19.02,102.72 48.19,-36.36 81.8,-73.44 81.21,-129.51 -0.35,-32.78 -6.76,-65.47 -9.54,-98.28 -0.53,-6.3 1.04,-15.77 5.29,-19.02 38.55,-29.43 77.91,-57.8 120.17,-87.11 -48.35,73.31 -27.67,140.42 15.59,208.63 35.55,-36.45 62.03,-75.67 56.24,-125.92 -4.2,-36.44 -17.83,-71.75 -26.57,-107.74 -1.54,-6.31 -2.45,-16.52 1.07,-19.72 34.92,-31.72 70.85,-62.35 103.78,-97.02 -16.44,32.39 -23.47,70.13 -5.55,106.11 15.11,30.31 34.54,58.46 53.98,90.74 49.41,-67.13 52.02,-131.38 18.72,-198.16 -7.82,-15.69 -18.33,-30.01 -26.74,-45.43 -2.59,-4.73 -5.14,-12.75 -2.93,-16.31 25.87,-41.76 52.65,-82.96 81.27,-125.53 -19.11,86.43 26.68,141.63 90.07,191.96 22.41,-47.09 33.05,-94.7 11.52,-141.05 -16.28,-35.05 -43.03,-65.2 -64.67,-97.83 -3.67,-5.54 -8.79,-14.03 -6.97,-18.69 17.97,-45.69 37.27,-90.84 58.49,-138 -6.28,92.65 50.23,140.42 124.7,180.27 11.59,-52.29 14.04,-100.15 -13.8,-145.24 -21.43,-34.69 -49.85,-62.63 -83.11,-86.15 -5.31,-3.76 -10.7,-13.67 -9.51,-19.37 9.42,-45.36 20.44,-90.4 32.5,-142.16 12.91,95.56 76.88,132.62 156.17,157.81 3.62,-54.37 -1.46,-105.28 -40.44,-143.08 -27.84,-27 -62.06,-47.77 -94.86,-69.11 -11.16,-7.27 -15.3,-12.43 -13.99,-26.06 3.21,-32.92 3.92,-66.08 5.49,-99.15 0.34,-7.29 0.05,-14.62 2.36,-23.02 32.3,82.33 101.64,103.79 181.52,116.76 -4.78,-55.56 -18.85,-104.45 -63.1,-135.34 -32.31,-22.57 -70.27,-37.45 -106.69,-53.53 -11.57,-5.11 -18.14,-8.94 -19.63,-22.44 -4.39,-39.71 -10.37,-79.26 -16.7,-126.1 47.37,85.36 122.7,95.61 206.39,93.86 -15.47,-53.47 -38.64,-98.74 -87.81,-125.63 -36.88,-20.16 -76.58,-31.37 -118.58,-35.27 -7.29,-0.67 -18.3,-6.17 -20.27,-11.93 -12.87,-37.87 -23.73,-76.4 -37.49,-122.179 63.21,76.049 140.04,69.309 221.22,55.219 -32.4,-70.438 -81.79,-114.098 -157.47,-122.418 -27.15,-2.981 -54.76,-1.5 -82.12,-2.993 -5.83,-0.308 -14.3,-3.05 -16.7,-7.371 -20.04,-36.238 -38.93,-73.097 -57.6,-111.508 33.16,24.95 68.85,41.829 111.41,40.36 40.7,-1.399 79.07,-10.949 118.76,-28.641 -37.35,-50.527 -80.64,-89.879 -144.82,-92.16 -38.21,-1.359 -76.85,5.191 -115.01,10.25 -12.63,1.68 -19.87,1.133 -28.04,-10 -23.23,-31.699 -48.24,-62.098 -72.05,-95.008 38.05,18.457 76.53,30.629 119.56,21.867 41.49,-8.449 78.53,-25.519 115.81,-49.769 -48.49,-47.16 -101.96,-77.617 -169.46,-66.719 -37.06,5.988 -72.76,20.328 -109.17,30.531 -6.05,1.7 -15.27,4.5 -18.56,1.649 -32.63,-28.43 -64.33,-57.942 -96.26,-89.051 94.55,35.461 165.33,-7.16 231.91,-66.707 -77,-60.051 -167.84,-72.422 -297.34,19.227 -35.27,-22.618 -70.66,-45.309 -106.05,-67.989 42.77,2.649 83.29,-2.449 120.25,-25.769 36.16,-22.813 66.49,-51.301 92.12,-88.629 -54.04,-24.371 -107.33,-35.121 -162.99,-16.051 -46.03,15.777 -85.64,42.738 -119.14,77.949 -8.38,8.809 -14.62,9.641 -25.29,4.942 -33.17,-14.614 -66.88,-27.992 -100.79,-43.442 99.04,-3.871 148.39,-70.269 192.28,-148.82 -41.83,-13.32 -81.94,-15.9687 -122.02,-6.129 -66.08,16.238 -111.04,61.688 -149.47,114.328 -9.9,13.551 -17.72,18.821 -35.71,14.961 -74.55,-16.058 -147.46,-36.73 -217.22,-67.84 -3.01,-1.34 -5.87,-3.011 -12.13,-6.25"
         inkscape:connector-curvature="0" />
      <g
         transform="scale(10,10)"
         id="g16">
        <g
           transform="matrix(1,0,0,-1,334.241,120.486)"
           style="font-weight:normal;font-size:107.64199829px;font-family:'Rock Salt';writing-mode:lr-tb;white-space:pre;fill:#5d2590;fill-opacity:1;fill-rule:nonzero;stroke:none"
           id="text20">
          <path
             d="m 20.655911,-8.9351268 37.054496,0 0,8.9351268 -49.8264716,0 0,-8.9351268 q 6.0443506,-6.2545892 16.4511456,-16.7665022 10.459354,-10.564474 13.139892,-13.612929 5.098278,-5.728993 7.095542,-9.670961 2.049823,-3.994527 2.049823,-7.831376 0,-6.254588 -4.415004,-10.196556 -4.362444,-3.941968 -11.405426,-3.941968 -4.993159,0 -10.564474,1.734466 -5.518755,1.734466 -11.8259029,5.255957 l 0,-10.722152 q 6.4122679,-2.575419 11.9835819,-3.889408 5.571314,-1.31399 10.196556,-1.31399 12.193821,0 19.447041,6.09691 7.253221,6.096911 7.253221,16.293467 0,4.83548 -1.839585,9.197925 -1.787026,4.309884 -6.569946,10.196556 -1.31399,1.524228 -8.356972,8.830008 -7.042982,7.25322 -19.867517,20.3405532 z"
             style=""
             id="path3347" />
          <path
             d="m 80.153346,-78.471437 41.679744,0 0,8.935127 -31.956223,0 0,19.236802 q 2.312621,-0.788394 4.625242,-1.156311 2.312621,-0.420476 4.625242,-0.420476 13.139889,0 20.813589,7.200661 7.6737,7.200661 7.6737,19.4996 0,12.666856 -7.88394,19.7098388 -7.88393,6.9904227 -22.232696,6.9904227 -4.940599,0 -10.091437,-0.8409531 -5.098278,-0.84095311 -10.564473,-2.5228593 l 0,-10.6695931 q 4.730361,2.5754194 9.776079,3.836849 5.045719,1.2614297 10.669593,1.2614297 9.092804,0 14.401324,-4.7829207 5.30851,-4.782921 5.30851,-12.982214 0,-8.199293 -5.30851,-12.982213 -5.30852,-4.782921 -14.401324,-4.782921 -4.257325,0 -8.51465,0.946072 -4.204766,0.946072 -8.61977,2.943336 l 0,-39.419677 z"
             style=""
             id="path3349" />
        </g>
        <g
           transform="matrix(1,0,0,-1,338.82811,89.0821)"
           style="font-size:40.72719955px;font-family:Museo;writing-mode:lr-tb;white-space:pre;fill:#5d2590;fill-opacity:1;fill-rule:nonzero;stroke:none"
           id="text24">
          <path
             d="M 13.10509,2.0681781 Q 11.553957,6.0454437 10.082368,7.2585097 8.61078,8.4715757 6.1448753,8.4715757 l -2.9232902,0 0,-3.0624945 2.1477234,0 q 1.511361,0 2.3465867,-0.7159078 Q 8.551121,3.9772656 9.5653237,1.3124976 l 0.6562493,-1.6704515 -9.008507,-21.9147331 3.8778339,0 6.9602151,17.420423 6.960214,-17.420423 3.877834,0 -9.784073,24.3408651 z"
             style=""
             id="path3352" />
          <path
             d="m 46.991393,-12.051115 0,1.78977 -16.823833,0 q 0.238636,3.7784021 2.267041,5.7670349 2.048292,1.9687465 5.68749,1.9687465 2.107951,0 4.076697,-0.5170446 1.988633,-0.5170445 3.937493,-1.5511335 l 0,3.460221 q -1.968746,0.83522578 -4.036924,1.272725 -2.068178,0.43749921 -4.196015,0.43749921 -5.329536,0 -8.45169,-3.10226711 -3.102267,-3.1022672 -3.102267,-8.3920304 0,-5.46874 2.943177,-8.670439 2.963063,-3.221585 7.974417,-3.221585 4.49431,0 7.099419,2.903404 2.624995,2.883517 2.624995,7.855099 z m -3.659084,-1.073861 q -0.03977,-3.002836 -1.690338,-4.792605 -1.630679,-1.78977 -4.335219,-1.78977 -3.062495,0 -4.911923,1.730111 -1.829542,1.73011 -2.107951,4.87215 l 13.045431,-0.01989 z"
             style=""
             id="path3354" />
          <path
             d="m 63.039662,-11.196003 q -4.434651,0 -6.144875,1.014203 -1.710224,1.0142028 -1.710224,3.4602212 0,1.9488601 1.272725,3.1022671 1.292611,1.1335207 3.499994,1.1335207 3.042608,0 4.87215,-2.1477234 1.849428,-2.1676097 1.849428,-5.7471486 l 0,-0.81534 -3.639198,0 z m 7.298283,-1.511361 0,12.707364 -3.659085,0 0,-3.3806757 q -1.252838,2.0284054 -3.122153,3.00283547 -1.869315,0.95454374 -4.573856,0.95454374 -3.420448,0 -5.448853,-1.90908751 -2.00852,-1.9289738 -2.00852,-5.1505589 0,-3.7585161 2.505678,-5.6676031 2.525563,-1.909088 7.517032,-1.909088 l 5.130672,0 0,-0.357954 q 0,-2.525563 -1.670451,-3.89772 -1.650565,-1.392043 -4.653401,-1.392043 -1.909087,0 -3.718743,0.457386 -1.809656,0.457385 -3.480108,1.372156 l 0,-3.380676 q 2.008519,-0.775566 3.897721,-1.153407 1.889201,-0.397726 3.67897,-0.397726 4.832378,0 7.218737,2.505677 2.38636,2.505678 2.38636,7.596577 z"
             style=""
             id="path3356" />
          <path
             d="m 90.880519,-18.852239 q -0.616477,-0.357954 -1.352271,-0.517044 -0.715908,-0.178977 -1.590906,-0.178977 -3.102267,0 -4.772719,2.028405 -1.650565,2.008519 -1.650565,5.786922 l 0,11.732933 -3.678971,0 0,-22.272687 3.678971,0 0,3.460221 q 1.153407,-2.028406 3.002836,-3.002836 1.849428,-0.994316 4.49431,-0.994316 0.37784,0 0.835226,0.05966 0.457385,0.03977 1.014202,0.139204 l 0.01989,3.758516 z"
             style=""
             id="path3358" />
          <path
             d="m 108.95719,-21.616438 0,3.460221 q -1.55114,-0.795453 -3.22159,-1.19318 -1.67045,-0.397727 -3.46022,-0.397727 -2.724426,0 -4.096582,0.835226 -1.352271,0.835226 -1.352271,2.505677 0,1.272725 0.974431,2.00852 0.97443,0.715907 3.917602,1.372156 l 1.25284,0.278409 q 3.89772,0.835226 5.5284,2.366473 1.65057,1.5113608 1.65057,4.2357877 0,3.1022671 -2.46591,4.911923 -2.44602,1.80965581 -6.74146,1.80965581 -1.789772,0 -3.738632,-0.3579539 -1.928974,-0.33806758 -4.076698,-1.03408905 l 0,-3.77840226 q 2.028406,1.0539753 3.997152,1.5909062 1.968747,0.5170445 3.897718,0.5170445 2.58523,0 3.97727,-0.8749984 1.39204,-0.8948848 1.39204,-2.5056773 0,-1.4914746 -1.0142,-2.2869277 -0.99432,-0.7954532 -4.39488,-1.5312473 l -1.272725,-0.2982949 q -3.400562,-0.7159074 -4.911923,-2.1874964 -1.511361,-1.491474 -1.511361,-4.076697 0,-3.14204 2.227269,-4.852264 2.227269,-1.710224 6.32385,-1.710224 2.02841,0 3.81818,0.298295 1.78977,0.298295 3.30113,0.894885 z"
             style=""
             id="path3360" />
        </g>
        <g
           transform="matrix(1,0,0,-1,560.74811,100.5469)"
           style="font-weight:normal;font-size:113.51999664px;font-family:Museo500;writing-mode:lr-tb;white-space:pre;fill:#5d2590;fill-opacity:1;fill-rule:nonzero;stroke:none"
           id="text28">
          <path
             d="m 62.302967,-37.470468 0,37.470468 -10.199062,0 0,-37.13789 q 0,-8.81332 -3.436641,-13.192265 -3.43664,-4.378945 -10.309921,-4.378945 -8.259024,0 -13.025977,5.26582 -4.766953,5.26582 -4.766953,14.356289 l 0,35.086991 -10.254491,0 0,-86.248591 10.254491,0 0,33.812108 q 3.65836,-5.598398 8.591602,-8.369882 4.988671,-2.771485 11.473945,-2.771485 10.697929,0 16.185468,6.651563 5.487539,6.596132 5.487539,19.455819 z"
             style=""
             id="path3363" />
          <path
             d="m 81.703359,-24.499921 0,-37.581327 10.199062,0 0,37.193319 q 0,8.81332 3.436641,13.247695 3.43664,4.3789452 10.309918,4.3789452 8.25903,0 13.02598,-5.2658202 4.82238,-5.26582 4.82238,-14.356289 l 0,-35.19785 10.19906,0 0,62.081248 -10.19906,0 0,-9.533906 q -3.71379,5.653828 -8.64703,8.4253123 -4.87781,2.7160546 -11.36308,2.7160546 -10.697934,0 -16.240902,-6.6515623 -5.542969,-6.6515626 -5.542969,-19.4558196 z"
             style=""
             id="path3365" />
          <path
             d="m 203.1498,-50.163866 q 3.82465,-6.873281 9.1459,-10.143632 5.32125,-3.270352 12.52711,-3.270352 9.7002,0 14.96602,6.817852 5.26582,6.762421 5.26582,19.28953 l 0,37.470468 -10.2545,0 0,-37.13789 q 0,-8.924179 -3.15949,-13.247694 -3.15949,-4.323516 -9.64476,-4.323516 -7.92645,0 -12.52711,5.26582 -4.60067,5.26582 -4.60067,14.356289 l 0,35.086991 -10.25449,0 0,-37.13789 q 0,-8.979609 -3.15949,-13.247694 -3.15949,-4.323516 -9.75563,-4.323516 -7.81558,0 -12.41625,5.32125 -4.60066,5.26582 -4.60066,14.300859 l 0,35.086991 -10.25449,0 0,-62.081248 10.25449,0 0,9.644765 q 3.49207,-5.709257 8.36988,-8.425312 4.87782,-2.716055 11.58481,-2.716055 6.76242,0 11.47394,3.436641 4.76696,3.43664 7.03957,9.977343 z"
             style=""
             id="path3367" />
          <path
             d="m 293.44475,-31.206913 q -12.36082,0 -17.12777,2.826914 -4.76695,2.826914 -4.76695,9.644765 0,5.432109 3.5475,8.647031 3.60292,3.1594923 9.75562,3.1594923 8.48074,0 13.58027,-5.9864063 5.15496,-6.041836 5.15496,-16.019179 l 0,-2.272617 -10.14363,0 z m 20.3427,-4.212656 0,35.419569 -10.19907,0 0,-9.4230466 q -3.49207,5.653828 -8.70246,8.3698826 -5.21039,2.6606249 -12.74882,2.6606249 -9.53391,0 -15.18774,-5.3212499 -5.5984,-5.3766795 -5.5984,-14.356289 0,-10.47621 6.98414,-15.79746 7.03957,-5.32125 20.95242,-5.32125 l 14.30086,0 0,-0.997734 q 0,-7.03957 -4.65609,-10.864219 -4.60066,-3.880078 -12.97055,-3.880078 -5.32125,0 -10.36535,1.274883 -5.0441,1.274883 -9.70019,3.824648 l 0,-9.423046 q 5.5984,-2.161758 10.86422,-3.214922 5.26582,-1.108594 10.25449,-1.108594 13.46941,0 20.12097,6.984141 6.65157,6.98414 6.65157,21.17414 z"
             style=""
             id="path3369" />
          <path
             d="m 386.67748,-37.470468 0,37.470468 -10.19906,0 0,-37.13789 q 0,-8.81332 -3.43664,-13.192265 -3.43664,-4.378945 -10.30993,-4.378945 -8.25902,0 -13.02597,5.26582 -4.76695,5.26582 -4.76695,14.356289 l 0,35.086991 -10.2545,0 0,-62.081248 10.2545,0 0,9.644765 q 3.65835,-5.598398 8.5916,-8.369882 4.98867,-2.771485 11.47394,-2.771485 10.69793,0 16.18547,6.651563 5.48754,6.596132 5.48754,19.455819 z"
             style=""
             id="path3371" />
          <path
             d="m 471.48491,-31.206913 q -12.36082,0 -17.12777,2.826914 -4.76695,2.826914 -4.76695,9.644765 0,5.432109 3.5475,8.647031 3.60293,3.1594923 9.75562,3.1594923 8.48074,0 13.58027,-5.9864063 5.15496,-6.041836 5.15496,-16.019179 l 0,-2.272617 -10.14363,0 z m 20.3427,-4.212656 0,35.419569 -10.19907,0 0,-9.4230466 q -3.49207,5.653828 -8.70246,8.3698826 -5.21039,2.6606249 -12.74882,2.6606249 -9.53391,0 -15.18774,-5.3212499 -5.5984,-5.3766795 -5.5984,-14.356289 0,-10.47621 6.98414,-15.79746 7.03957,-5.32125 20.95243,-5.32125 l 14.30085,0 0,-0.997734 q 0,-7.03957 -4.65609,-10.864219 -4.60066,-3.880078 -12.97055,-3.880078 -5.32125,0 -10.36535,1.274883 -5.0441,1.274883 -9.70019,3.824648 l 0,-9.423046 q 5.5984,-2.161758 10.86422,-3.214922 5.26582,-1.108594 10.25449,-1.108594 13.46941,0 20.12097,6.984141 6.65157,6.98414 6.65157,21.17414 z"
             style=""
             id="path3373" />
          <path
             d="m 522.97909,-9.3121872 0,32.9252332 -10.2545,0 0,-85.694294 10.2545,0 0,9.423046 q 3.21492,-5.542968 8.09273,-8.203593 4.93324,-2.716055 11.75109,-2.716055 11.30766,0 18.34723,8.979609 7.095,8.97961 7.095,23.613047 0,14.633437 -7.095,23.6130458 -7.03957,8.9796091 -18.34723,8.9796091 -6.81785,0 -11.75109,-2.6606249 -4.87781,-2.7160546 -8.09273,-8.2590232 z m 34.69898,-21.6730068 q 0,-11.252227 -4.65609,-17.62664 -4.60067,-6.429844 -12.6934,-6.429844 -8.09274,0 -12.74883,6.429844 -4.60066,6.374413 -4.60066,17.62664 0,11.252226 4.60066,17.682069 4.65609,6.3744143 12.74883,6.3744143 8.09273,0 12.6934,-6.3744143 4.65609,-6.429843 4.65609,-17.682069 z"
             style=""
             id="path3375" />
          <path
             d="m 595.03768,-9.3121872 0,32.9252332 -10.25449,0 0,-85.694294 10.25449,0 0,9.423046 q 3.21492,-5.542968 8.09273,-8.203593 4.93325,-2.716055 11.7511,-2.716055 11.30765,0 18.34722,8.979609 7.095,8.97961 7.095,23.613047 0,14.633437 -7.095,23.6130458 -7.03957,8.9796091 -18.34722,8.9796091 -6.81785,0 -11.7511,-2.6606249 -4.87781,-2.7160546 -8.09273,-8.2590232 z m 34.69898,-21.6730068 q 0,-11.252227 -4.65609,-17.62664 -4.60066,-6.429844 -12.6934,-6.429844 -8.09273,0 -12.74883,6.429844 -4.60066,6.374413 -4.60066,17.62664 0,11.252226 4.60066,17.682069 4.6561,6.3744143 12.74883,6.3744143 8.09274,0 12.6934,-6.3744143 4.65609,-6.429843 4.65609,-17.682069 z"
             style=""
             id="path3377" />
          <path
             d="m 710.33143,-33.59039 0,4.988672 -46.89352,0 q 0.66516,10.53164 6.31899,16.074609 5.70926,5.4875389 15.85289,5.4875389 5.87555,0 11.36308,-1.4411718 5.54297,-1.4411719 10.97508,-4.3235151 l 0,9.6447649 q -5.48754,2.32804681 -11.25222,3.5474999 -5.76469,1.2194531 -11.69567,1.2194531 -14.85515,0 -23.55761,-8.647031 -8.64704,-8.6470309 -8.64704,-23.3913279 0,-15.243163 8.2036,-24.167343 8.25902,-8.979609 22.2273,-8.979609 12.52711,0 19.7884,8.092734 7.31672,8.037305 7.31672,21.894726 z m -10.19906,-2.993203 q -0.11086,-8.369882 -4.71153,-13.358554 -4.54523,-4.988672 -12.08367,-4.988672 -8.53617,0 -13.69113,4.822383 -5.09953,4.822383 -5.87555,13.580273 l 36.36188,-0.05543 z"
             style=""
             id="path3379" />
          <path
             d="m 755.06319,-31.206913 q -12.36082,0 -17.12777,2.826914 -4.76696,2.826914 -4.76696,9.644765 0,5.432109 3.5475,8.647031 3.60293,3.1594923 9.75563,3.1594923 8.48074,0 13.58027,-5.9864063 5.15496,-6.041836 5.15496,-16.019179 l 0,-2.272617 -10.14363,0 z m 20.34269,-4.212656 0,35.419569 -10.19906,0 0,-9.4230466 q -3.49207,5.653828 -8.70246,8.3698826 -5.21039,2.6606249 -12.74883,2.6606249 -9.5339,0 -15.18773,-5.3212499 -5.5984,-5.3766795 -5.5984,-14.356289 0,-10.47621 6.98414,-15.79746 7.03957,-5.32125 20.95242,-5.32125 l 14.30086,0 0,-0.997734 q 0,-7.03957 -4.65609,-10.864219 -4.60067,-3.880078 -12.97055,-3.880078 -5.32125,0 -10.36535,1.274883 -5.0441,1.274883 -9.70019,3.824648 l 0,-9.423046 q 5.59839,-2.161758 10.86421,-3.214922 5.26582,-1.108594 10.2545,-1.108594 13.46941,0 20.12097,6.984141 6.65156,6.98414 6.65156,21.17414 z"
             style=""
             id="path3381" />
          <path
             d="m 796.69091,-86.248591 10.19906,0 0,86.248591 -10.19906,0 0,-86.248591 z"
             style=""
             id="path3383" />
        </g>
      </g>
    </g>
  </g>
</svg>
