<svg xmlns="http://www.w3.org/2000/svg" height="455.787" width="421.853"><g fill="#6243a4"><path d="M373.299 280.687c-.294-.298-.292-.594.002-.89l6.932-6.933c.298-.296.595-.296.891-.001l22.579 22.576c.177.181.354.181.53.002l10.464-10.461c.295-.293.591-.293.888 0l6.044 6.047c.298.293.299.592 0 .888l-18.104 18.105c-.296.296-.593.296-.889.001l-29.337-29.334M269.31 246.33l52.537-52.54a.895.895 0 0 0 0-1.271l-53.174-53.174-53.808-53.81-53.174-53.174a.899.899 0 0 0-1.271 0L107.881 84.9a.897.897 0 0 0 0 1.27l52.539 52.54a.896.896 0 0 1 0 1.27l-52.538 52.539a.902.902 0 0 1-1.272.001l-52.54-52.54a.897.897 0 0 0-1.27 0L.262 192.519a.903.903 0 0 0 0 1.27l53.175 53.176 53.81 53.808 53.174 53.174a.898.898 0 0 0 1.272.001l52.536-52.54a.893.893 0 0 0 0-1.27L161.691 247.6a.9.9 0 0 1 0-1.272l52.537-52.539a.903.903 0 0 1 1.273 0l52.539 52.54c.35.351.919.351 1.27 0M338.61 90.935c-20.806 20.802-54.533 20.802-75.333 0-20.806-20.802-20.806-54.531-.001-75.334 20.801-20.802 54.528-20.802 75.333.002 20.802 20.801 20.802 54.529 0 75.332M183.216 376.413c-.304-.305-.304-.61-.001-.913l7.118-7.116c.303-.304.606-.304.911 0l10.993 10.993c.183.183.366.183.548 0l9.588-9.589c.183-.183.183-.365 0-.547l-10.992-10.994c-.305-.306-.305-.607.002-.912l7.113-7.118c.304-.301.61-.301.913 0l30.107 30.108c.303.304.303.609-.003.914l-7.114 7.116c-.304.302-.61.302-.911.001l-11.45-11.45c-.185-.184-.365-.184-.547 0l-9.592 9.586c-.182.185-.182.368 0 .55l11.45 11.447c.306.306.306.61 0 .915l-7.114 7.114c-.304.305-.61.305-.914 0l-30.105-30.105M260.605 361.447c-1.885 1.885-3.857 3.322-5.909 4.308-2.05.993-4.143 1.5-6.27 1.53-2.129.028-4.263-.448-6.41-1.436-2.143-.989-4.247-2.517-6.317-4.584l-18.566-18.568c-.304-.302-.304-.606 0-.909l7.115-7.117c.305-.304.61-.306.915 0l19.068 19.066c1.549 1.551 3.145 2.356 4.788 2.418 1.644.06 3.114-.564 4.425-1.87 1.37-1.37 2-2.849 1.893-4.449-.108-1.593-.936-3.17-2.486-4.72l-19.068-19.067c-.303-.304-.303-.606.002-.912l7.114-7.116c.305-.302.609-.305.912 0l18.568 18.566c2.068 2.066 3.588 4.178 4.56 6.338.973 2.162 1.445 4.303 1.413 6.434-.03 2.128-.53 4.212-1.505 6.246-.974 2.039-2.388 3.983-4.242 5.842M249.116 310.512c-.305-.303-.305-.607 0-.912l6.75-6.75c.395-.394.807-.502 1.231-.318l23.355 9.03.181-.182-9.213-23.173c-.183-.424-.076-.836.32-1.228l6.659-6.663c.302-.304.609-.304.912 0l30.106 30.107c.306.304.307.609 0 .912l-6.338 6.34c-.307.305-.61.304-.911 0l-15.97-15.966-.225.227 6.614 16.56c.12.365.142.663.068.89-.076.227-.191.42-.344.57l-3.558 3.557c-.333.335-.82.426-1.458.275l-16.56-6.615-.227.228 15.967 15.966c.305.304.302.609 0 .912l-6.342 6.341c-.304.304-.609.303-.91 0l-30.107-30.108M321.065 275.875l-12.544-6.799-.134.137 6.661 12.683zm-25.861-11.452c-.212-.392-.17-.743.137-1.05l7.436-7.432c.303-.304.651-.352 1.048-.137l40.598 19.615c.393.212.44.47.136.776l-7.527 7.525c-.304.303-.653.35-1.05.136l-6.247-3.33-10.083 10.08 3.33 6.25c.214.396.167.747-.135 1.05l-7.482 7.482c-.304.301-.562.257-.773-.136l-19.388-40.83M319.49 240.139c-.305-.306-.305-.608 0-.914l6.706-6.705c.396-.393.805-.5 1.232-.32l27.117 8.005.184-.18-17.564-17.564c-.302-.302-.301-.606.002-.909l6.386-6.387c.302-.304.607-.304.908 0l30.11 30.106c.302.304.302.608 0 .912l-6.706 6.702c-.398.398-.806.504-1.232.322l-26.981-8.052-.273.273 17.518 17.517c.302.306.302.608-.001.912l-6.388 6.387c-.304.304-.608.304-.91.001L319.49 240.14M263.507 426.837l-12.224-6.621-.134.133 6.491 12.355zm-25.202-11.154c-.208-.387-.164-.727.134-1.024l7.244-7.243c.294-.298.638-.34 1.021-.136l39.557 19.113c.386.207.431.462.134.755l-7.334 7.335c-.297.296-.638.34-1.021.132l-6.09-3.244-9.822 9.824 3.245 6.087c.206.386.159.726-.136 1.023l-7.288 7.287c-.294.299-.548.254-.756-.13l-18.888-39.78M288.23 390.147c.015-1.288-.498-2.451-1.534-3.488s-2.192-1.54-3.467-1.512c-1.273.029-2.533.666-3.777 1.912l-4 4c-.177.177-.177.356 0 .53l6.356 6.358c.175.178.356.178.533 0l4-3.999c1.246-1.245 1.876-2.512 1.888-3.801m3.178 32.158c-.296.294-.594.295-.888 0l-29.334-29.334c-.296-.296-.296-.594 0-.89l12.09-12.09c1.836-1.836 3.71-3.207 5.621-4.111 1.912-.903 3.779-1.377 5.6-1.423a12.168 12.168 0 0 1 5.29 1.068c1.702.756 3.282 1.859 4.733 3.311 1.453 1.45 2.554 3.03 3.31 4.732a12.238 12.238 0 0 1 1.067 5.332c-.044 1.856-.51 3.73-1.4 5.624-.888 1.898-2.25 3.764-4.09 5.601l-4.442 4.444c-.179.18-.179.355-.003.532l9.38 9.38c.295.295.295.595 0 .888l-6.934 6.936M315.89 362.317c.014-1.287-.495-2.45-1.535-3.485-1.036-1.037-2.192-1.54-3.466-1.514-1.273.031-2.534.667-3.776 1.912l-4 4.002c-.18.178-.18.355-.002.53l6.356 6.358c.177.177.357.179.536 0l3.998-3.998c1.244-1.249 1.876-2.512 1.888-3.805m3.179 32.16c-.296.296-.596.296-.89 0l-29.334-29.335c-.296-.297-.296-.593 0-.889l12.09-12.09c1.838-1.836 3.71-3.204 5.622-4.11 1.912-.902 3.78-1.377 5.601-1.423a12.163 12.163 0 0 1 5.287 1.067c1.703.758 3.284 1.86 4.733 3.312 1.454 1.451 2.555 3.03 3.314 4.732a12.3 12.3 0 0 1 1.065 5.335c-.043 1.85-.51 3.727-1.399 5.623-.89 1.896-2.253 3.762-4.088 5.6l-4.446 4.444c-.176.179-.176.354 0 .533l9.378 9.377c.296.298.296.595 0 .888l-6.933 6.936M316.741 337.245c-.296-.297-.298-.593 0-.889l18.61-18.61c.294-.294.592-.294.888 0l5.734 5.734c.295.297.296.595 0 .89l-10.964 10.962c-.178.18-.178.357-.001.535l4.577 4.577c.18.18.355.179.534.001l8.786-8.785c.298-.296.592-.296.888 0l5.603 5.599c.293.297.293.594 0 .89l-8.787 8.786c-.177.176-.177.356-.002.532l4.845 4.846c.177.176.357.178.535-.002l10.964-10.964c.296-.296.593-.296.889.001l5.732 5.732c.299.297.299.593 0 .89l-18.607 18.609c-.296.298-.593.296-.89 0l-29.334-29.334M375.887 314.456l-12.222-6.623-.133.134 6.49 12.354zm-25.202-11.155c-.205-.385-.164-.728.134-1.024l7.246-7.244c.295-.297.636-.34 1.022-.134l39.558 19.113c.382.207.428.46.132.753l-7.333 7.336c-.297.296-.639.34-1.021.132l-6.091-3.245-9.824 9.824 3.245 6.088c.208.385.162.727-.132 1.023l-7.289 7.29c-.297.295-.55.25-.755-.133L350.685 303.3"/></g></svg>