<svg xmlns="http://www.w3.org/2000/svg" viewBox="0 0 655.3457 514.91614" height="514.916" width="655.346"><g style="-inkscape-font-specification:Museo500-Regular" font-weight="400" font-size="77.441" font-family="Museo500" fill="#5e2590"><path d="M6.505 494.265h10.016v-24.471c0-2.478.206-4.853.929-6.918 2.168-7.538 8.57-12.907 16.52-12.907 8.364 0 9.913 5.782 9.913 13.113v24.575c0 4.646 1.962 6.608 6.609 6.608H60.3v-8.57h-4.234c-1.445 0-2.271-.723-2.271-2.272v-22.612c0-13.32-5.576-20.032-17.863-20.032-10.43 0-17.14 6.609-19.412 11.668h-.207s.207-1.859.207-4.337v-20.34c0-4.44-1.962-6.403-6.609-6.403H0v8.57h4.233c1.446 0 2.272.723 2.272 2.272v62.056zM66.805 475.473c0 13.836 5.99 20.031 17.76 20.031 10.326 0 17.037-6.815 19.205-11.977h.207s-.103 1.342-.103 2.994v1.962c0 3.717 2.168 5.782 6.608 5.782h9.603v-8.57h-4.234c-1.445 0-2.271-.723-2.271-2.272v-41.405h-10.016v24.472c0 10.325-6.299 19.721-17.037 19.721-8.26 0-9.706-5.782-9.706-13.01v-24.78c0-4.44-1.962-6.403-6.712-6.403H60.3v8.57h4.234c1.445 0 2.271.723 2.271 2.272v22.613zM128.55 494.265h10.017v-23.852c0-2.374.206-4.646.722-6.711 1.962-7.435 7.331-13.836 14.972-13.836 7.95 0 8.983 6.298 8.983 13.113v31.286h10.016v-23.852c0-2.684.31-4.956.826-7.124 1.859-7.125 7.435-13.423 14.662-13.423 7.744 0 9.19 5.782 9.19 13.113v24.678c0 4.646 1.962 6.608 6.608 6.608h9.913v-8.57h-4.234c-1.445 0-2.271-.723-2.271-2.272v-22.612c0-13.32-5.473-20.032-17.244-20.032-8.467 0-15.695 5.576-18.586 11.875h-.206c-1.755-7.848-6.815-11.875-15.695-11.875-8.157 0-15.385 5.886-17.863 11.978h-.206s.103-1.342.103-2.995v-1.961c0-3.82-2.065-5.783-6.609-5.783h-9.602v8.57h4.233c1.446 0 2.272.723 2.272 2.272v41.405zM217.76 479.603c0 10.429 8.777 15.901 17.76 15.901 12.494 0 16.624-10.325 16.624-10.325h.207s-.207 1.342-.207 3.097c0 3.718 1.859 5.99 6.505 5.99h9.397v-8.57h-4.234c-1.445 0-2.272-.724-2.272-2.273v-22.2c0-11.564-4.543-20.444-21.476-20.444-5.06 0-18.07 1.24-18.07 9.81v5.162h9.396v-2.994c0-3.408 6.092-4.027 8.57-4.027 8.157 0 11.565 3.304 11.565 12.494v.516h-2.272c-8.776 0-31.492 1.033-31.492 17.863zm10.12-.516c0-9.603 13.63-10.016 21.167-10.016h2.581v1.755c0 7.744-5.472 16.624-13.94 16.624-6.608 0-9.809-4.13-9.809-8.363zM275.273 494.265h10.016v-24.471c0-2.582.206-4.956.929-7.021 2.065-7.538 8.467-12.804 16.52-12.804 8.364 0 9.81 5.782 9.81 13.113v24.575c0 4.646 1.962 6.608 6.608 6.608h9.913v-8.57h-4.234c-1.445 0-2.271-.723-2.271-2.272v-22.612c0-13.32-5.576-20.032-17.967-20.032-11.358 0-17.553 7.435-19.618 11.978h-.207s.207-1.342.207-2.995v-1.961c0-3.82-2.168-5.783-6.608-5.783h-9.603v8.57H273c1.446 0 2.272.723 2.272 2.272v41.405zM357.566 479.603c0 10.429 8.776 15.901 17.76 15.901 12.493 0 16.624-10.325 16.624-10.325h.206s-.206 1.342-.206 3.097c0 3.718 1.858 5.99 6.505 5.99h9.396v-8.57h-4.234c-1.445 0-2.271-.724-2.271-2.273v-22.2c0-11.564-4.543-20.444-21.477-20.444-5.06 0-18.07 1.24-18.07 9.81v5.162h9.396v-2.994c0-3.408 6.092-4.027 8.57-4.027 8.158 0 11.565 3.304 11.565 12.494v.516h-2.271c-8.777 0-31.493 1.033-31.493 17.863zm10.119-.516c0-9.603 13.63-10.016 21.167-10.016h2.581v1.755c0 7.744-5.472 16.624-13.939 16.624-6.608 0-9.81-4.13-9.81-8.363zM415.077 514.916h10.015v-23.232c0-2.685-.206-4.543-.206-4.543h.206s4.44 8.363 16.005 8.363c13.63 0 23.748-10.738 23.748-27.362 0-16.211-8.983-27.363-23.025-27.363-13.01 0-17.347 9.293-17.347 9.293h-.207s.104-1.239.104-2.788c0-3.304-1.756-5.266-6.402-5.266h-9.396v8.57h4.233c1.446 0 2.272.723 2.272 2.272v62.056zm9.706-46.568c0-13.32 7.33-18.792 15.075-18.792 8.673 0 14.765 7.331 14.765 18.689 0 11.874-6.815 18.69-15.075 18.69-9.706 0-14.765-9.294-14.765-18.587zM473.827 514.916h10.016v-23.232c0-2.685-.207-4.543-.207-4.543h.207s4.44 8.363 16.004 8.363c13.63 0 23.749-10.738 23.749-27.362 0-16.211-8.983-27.363-23.026-27.363-13.01 0-17.347 9.293-17.347 9.293h-.206s.103-1.239.103-2.788c0-3.304-1.755-5.266-6.402-5.266h-9.396v8.57h4.234c1.445 0 2.271.723 2.271 2.272v62.056zm9.706-46.568c0-13.32 7.331-18.792 15.075-18.792 8.674 0 14.766 7.331 14.766 18.689 0 11.874-6.815 18.69-15.075 18.69-9.706 0-14.766-9.294-14.766-18.587zM528.55 468.142c0 15.488 11.255 27.362 27.776 27.362 12.39 0 20.134-7.64 20.134-7.64l-4.336-7.125s-6.299 6.092-15.282 6.092c-9.293 0-17.347-6.299-17.966-17.45h38.1s.31-2.788.31-4.13c0-13.527-7.847-24.472-22.51-24.472-14.868 0-26.226 10.739-26.226 27.363zm10.739-6.092c1.548-8.674 7.744-13.32 15.384-13.32 6.506 0 11.978 4.646 12.288 13.32h-27.672zM582.035 479.603c0 10.429 8.777 15.901 17.76 15.901 12.494 0 16.624-10.325 16.624-10.325h.206s-.206 1.342-.206 3.097c0 3.718 1.858 5.99 6.505 5.99h9.396v-8.57h-4.233c-1.446 0-2.272-.724-2.272-2.273v-22.2c0-11.564-4.543-20.444-21.477-20.444-5.06 0-18.07 1.24-18.07 9.81v5.162h9.397v-2.994c0-3.408 6.092-4.027 8.57-4.027 8.157 0 11.564 3.304 11.564 12.494v.516h-2.271c-8.777 0-31.493 1.033-31.493 17.863zm10.12-.516c0-9.603 13.629-10.016 21.166-10.016h2.582v1.755c0 7.744-5.473 16.624-13.94 16.624-6.608 0-9.809-4.13-9.809-8.363zM638.825 487.657c0 4.646 1.962 6.608 6.608 6.608h9.913v-8.57h-4.234c-1.445 0-2.271-.723-2.271-2.272v-55.447c0-4.647-1.962-6.609-6.609-6.609h-9.912v8.57h4.233c1.446 0 2.272.723 2.272 2.272v55.448z"/></g><path d="M334.622 363.91c8.966 5.097 17.245 10.165 24.224 17.566l-6.158 5.444c-6.992-7.336-14.954-13.036-23.512-17.983-1.865-1.077-3.289-1.017-5.112.046-8.458 4.932-16.388 10.533-23.404 17.952l-6.15-5.447c6.844-7.34 15.161-12.464 24.26-17.59-2.04-.942-3.59-1.897-5.275-2.395-9.227-2.728-18.501-5.294-27.72-8.043-1.812-.54-2.495.243-3.608 1.44-4.063 4.37-7.987 8.992-12.636 12.667-7.575 5.986-16.405 5.574-25.361 3.522 3.501-9.124 12.296-20.636 27.016-21.03-1.164-.554-1.763-.876-2.39-1.131-3.734-1.516-7.548-2.865-11.188-4.581-2.14-1.008-3.492-1.035-5.265.86-4.22 4.51-9.403 7.8-15.168 9.997-8.04 3.064-15.78 1.543-23.401-1.827 5.3-10.162 15.741-15.716 29.961-15.734l-15.253-9.895c-7.95 5.416-16.37 10.167-26.552 9.205-5.436-.513-10.379-2.805-15.282-6.329 9.588-8.427 19.442-14.537 32.72-9.683-4.4-4.044-8.754-8.138-13.258-12.064-.535-.466-1.93-.192-2.838.058-5.096 1.404-10.082 3.404-15.26 4.264-9.344 1.55-16.758-2.752-23.638-9.208 5-3.56 10.254-5.84 16.07-7.058 6.031-1.261 11.446.35 16.89 2.88-3.694-4.754-7.332-9.553-11.156-14.198-.428-.519-1.983-.419-2.902-.176-5.98 1.58-12.01 2.025-18.129 1.102-7.984-1.205-13.328-6.22-18.013-12.296 8.38-6.121 21.002-5.576 32.512 1.664-1.916-3.464-3.522-6.302-5.063-9.176-1.348-2.51-2.032-5.938-4.104-7.332-1.876-1.261-5.233-.289-7.937-.358-11.85-.302-21.122-4.922-26.548-15.932-.17-.347-.28-.724-.562-1.464 5.396-1.794 10.82-1.758 16.242-1.174 5.633.607 10.12 3.518 14.144 7.528-1.42-4.72-3.022-9.397-4.19-14.178-.646-2.639-1.818-3.378-4.522-3.716-16.462-2.058-23.52-8.302-27.528-21.011-.083-.264-.079-.555-.164-1.205 11.458-.266 21.956 1.129 28.63 13.057-.896-6.839-1.6-12.752-2.528-18.63-.113-.72-1.329-1.429-2.18-1.838-4.584-2.201-9.482-3.876-13.765-6.547-6.395-3.986-10.57-12.832-10.03-19.984 10.963 1.619 20.706 4.786 24.929 16.695l.818-.341c0-4.16-.61-8.436.148-12.454 1.047-5.546-.814-8.141-5.8-10.661-8.793-4.444-14.512-11.673-14.89-22.123-.059-1.624-.008-3.253-.008-5.312 11.128 3.607 20.01 8.648 22.36 21.007.332-1.579.642-3.164 1.001-4.737.98-4.311 1.82-8.664 3.039-12.907.608-2.113-.007-3.039-1.647-4.299a69.144 69.144 0 0 1-8.265-7.525c-6.064-6.47-7.004-14.263-5.316-22.615.057-.282.185-.56.32-.818.086-.166.248-.294.584-.674 9.882 5.336 17.778 11.979 17.3 24.846.253-.524.537-1.035.756-1.572 2.225-5.463 4.361-10.964 6.704-16.375.726-1.679.482-2.567-.666-4.053-3.217-4.171-6.485-8.426-8.86-13.092-2.909-5.712-1.92-13.728 1.396-19.531 8.828 3.983 13.847 14.313 13.332 26.772.126-.437.16-.93.39-1.303 3.305-5.354 6.692-10.661 9.898-16.074.436-.739.302-2.128-.08-2.986-1.876-4.194-4.296-8.181-5.832-12.488-2.685-7.532-.01-14.23 4.282-21.009 7.221 8.056 12.204 16.299 8.377 25.947l14.615-12.891c-7.708-15.877-5.846-26.9 3.248-34.699 5.986 9.371 8.838 18.859 2.125 29.072 5.684-4.166 11.396-8.296 17.003-12.565.498-.381.496-1.692.402-2.535-.445-3.99-1.3-7.956-1.457-11.952-.324-8.362 4.019-14.304 10.8-19.208 2.457 4.988 3.421 10.047 3.296 15.404-.13 5.607-3.35 9.668-6.448 13.983 4.276-2.281 8.365-5.073 12.875-6.712 5.525-2.007 7.624-4.768 7.124-11.043-.763-9.604 3.338-17.425 12.22-22.156.58-.309 1.213-.517 2.13-.901 2.564 11.145 1.598 20.879-8.7 27.948 4.472-1.73 9.046-2.221 12.624-5.952 6.247-6.512 14.86-7.18 22.364-2.639-5.349 6.691-14.46 11.102-23.528 7.366-1.348-.556-3.25-.475-4.672-.006-3.68 1.215-7.234 2.81-10.789 4.614 5.563.213 11.21-.984 16.32 2.052 4.85 2.882 8.376 6.972 11.288 12.033-14.36 5.025-23.647-1.908-31.84-12.713l-20.476 11.792.137 1.144c12.276-5.128 21.311-.38 29.091 8.702-9.559 6.066-20.544 5.658-33.856-6.662l-18.559 15.084.188 1.026c11.454-7.097 21.416-4.161 30.802 3.7-9.23 8.428-20.382 8.78-35.338-.841l-15.857 18.472.53 1.055c10.275-9.39 20.902-8.184 31.895-1.807-7.242 8.968-16.44 10.863-26.945 8.328-2.283-.55-4.45-1.585-6.732-2.128-.768-.183-2.184.193-2.541.779-3.68 6.036-7.206 12.168-10.515 18.805 8.91-10.11 19.49-9.71 31.083-5.83-4.627 7.277-10.262 12.48-18.95 12.873-4.288.193-8.605-.376-12.912-.48-.9-.022-2.413.238-2.632.777-2.572 6.35-4.952 12.78-7.022 19.588 7.204-11.039 17.612-12.076 29.541-10.32-2.957 6.879-6.532 12.847-13.587 15.116-5.07 1.632-10.52 2.17-15.846 2.872-1.706.225-2.643.377-2.982 2.275-1.153 6.445-2.472 12.862-3.289 19.66 5.26-12.378 15.453-15.51 27.421-15.75-1.22 11.762-8.77 20.902-28.342 23.802v21.677c3.14-13.35 12.953-18.259 25.358-20.792-.402 7.588-1.917 14.325-7.47 19.495-4.386 4.081-9.555 6.876-15.19 8.876-.757.269-1.938 1.204-1.868 1.673.935 6.265 2.058 12.504 3.646 18.821.944-13.677 9.91-19.969 21.157-24.456 3.21 14.092-3.025 24.52-19.21 33.362 2.186 6.121 4.4 12.325 6.617 18.529l.865-.067c-.279-5.973.001-11.793 3.71-16.804 3.506-4.74 7.877-8.442 12.986-11.404 4.53 11.476 3.324 23.56-13.399 37.027l9.506 16.18.824-.173c-3.894-13.347 2.846-22.328 12.106-30.716 4.116 7.834 6.224 15.676 2.747 23.782-2.104 4.904-5.444 9.274-8.133 13.938-.43.749-.822 2.156-.442 2.64 3.446 4.396 7.067 8.654 11.04 12.797-1.866-5.74-2.98-11.36-1.053-17.225 1.837-5.594 4.683-10.547 8.556-15.011 9.197 11.265 10.619 22.519.259 40.435 4.45 3.786 8.973 7.637 13.496 11.488l.804-.2c-7.987-11.628-4.31-22.503 1.405-33.495 13.899 11.499 13.17 25.487 7.49 40.633l15.702 9.31c.295-.134.59-.266.884-.398-10.692-10.24-9.139-22.014-5.117-34.52 9.308 5.646 15.35 13.042 15.662 24.015.131 4.595-.478 9.21-.665 13.819-.03.726.203 1.962.64 2.134 5.172 2.035 10.407 3.911 15.719 5.554-10.214-10.776-13.899-22.936-9.93-33.826 7.184 2.962 13.54 6.967 17.102 14.142 3.424 6.893 4.412 14.405 4.396 22.173 12.562 2.459 24.53 6.21 36.088 11.279.832.364 2.146.125 3.056-.26 10.806-4.583 21.885-8.308 33.417-10.55 1.96-.381 2.17-1.274 2.319-2.952.373-4.197.744-8.429 1.621-12.54 2.33-10.917 9.67-17.31 20.05-21.401 1.765 12.985 1.385 24.895-10.571 33.407l.722.692c5.035-1.854 10.092-3.652 15.072-5.642.531-.212.88-1.54.87-2.344-.06-5.57-.703-11.177-.272-16.702.757-9.724 7.092-15.796 15.088-21.034 2.414 6.034 3.258 11.97 3.058 18.098-.209 6.473-3.29 11.621-7.713 16.15l.54.659 15.737-9.241c-5.728-15.151-6.413-29.12 7.42-40.626 3.103 5.284 5.115 10.747 5.88 16.672.775 6.023-.852 11.462-4.302 16.467l.677.49 13.539-11.427c-8.034-13.648-11.182-27.006.25-40.451 3.9 4.543 6.715 9.403 8.49 14.9 1.838 5.693 1.09 11.216-1.238 16.683l.858.398 11.488-13.51c-10.355-11.763-15.502-24.156-7.066-38.923 7.666 5.304 16.391 16.136 12.18 30.887.864-.974 1.406-1.424 1.747-1.995 2.425-4.052 4.73-8.177 7.239-12.175 1.2-1.912.953-2.888-.742-4.578-3.729-3.722-7.366-7.68-10.269-12.054-4.745-7.152-3.704-14.949-1.224-23.128 10.72 6.767 18.876 14.564 16.695 28.635l.886.028c.808-2.012 1.674-4.001 2.411-6.039 1.237-3.42 2.304-6.902 3.616-10.292.71-1.836.137-2.596-1.405-3.749-4.382-3.275-8.855-6.57-12.603-10.513-4.804-5.051-6.39-14.098-4.521-21.474 5.428 1.971 10.252 4.742 14.422 8.719 4.402 4.199 5.89 9.597 6.391 15.45l.943.035 3.652-19.416c-14.13-4.786-24.862-12.168-24.82-29.112 6.06 1.131 11.382 3.09 16.213 6.507 5.059 3.58 6.81 9.084 9.167 14.43 0-6.846.065-13.691-.108-20.533-.016-.632-1.455-1.472-2.38-1.797-4.612-1.621-9.468-2.684-13.875-4.727-7.625-3.534-10.76-10.477-12.588-18.261 8.536-.736 21.583 1.41 27.728 14.988 0-.86.13-1.744-.021-2.576-.994-5.516-2.096-11.012-3.056-16.533-.336-1.931-1.248-2.328-3.166-2.424-3.9-.198-7.864-.552-11.648-1.474-8.808-2.142-14.193-7.346-17.517-16.578 5.644-.835 11.079-.931 16.568.494 5.719 1.484 9.187 5.724 12.55 10.159l.702-.421c-2.461-6.49-4.864-13.002-7.485-19.426-.23-.562-1.974-.9-2.896-.724-5.498 1.046-10.979 1.086-16.415-.146-6.89-1.563-11.284-6.282-15.09-12.21 5.52-2.277 10.92-2.861 16.458-2.42 5.915.471 9.999 4.25 14.037 8.075.22-.147.438-.296.656-.444l-11.273-19.83c-8.296 3.357-16.444 5.498-24.93 2.569-4.258-1.47-7.642-4.354-10.605-7.775 9.614-5.868 19.876-8.65 31.86 1.187l.591-.5-15.892-18.628c-11.881 7.52-23.46 10.993-35.396 1.154 7.921-8.442 16.941-9.726 30.976-5.014L423.663 47.75c-13.875 12.768-24.85 12.376-33.887 6.709 7.82-9.296 16.967-13.897 29.267-8.69l.195-1.04c-6.834-3.958-13.667-7.918-20.694-11.989-5.104 6.676-10.554 12.679-18.889 14.054-4.103.676-8.47-.25-13.308-.478 6.45-11.918 15.21-17.221 28.213-14.2-.022-.34-.045-.678-.066-1.018-4.314-1.708-8.614-3.45-12.956-5.078-.532-.198-1.356.082-1.94.36-9.444 4.49-18.674-.125-24.403-6.933 7.15-4.455 15.888-3.9 22.16 2.367 3.685 3.68 8.205 4.576 12.917 6.16-10.212-7.066-11.38-16.736-8.674-27.975 7.75 3.599 12.864 8.919 13.924 17.296.476 3.765.19 7.624.373 11.433.039.812.399 2.022.985 2.33 6.327 3.302 12.728 6.462 19.806 10.009-4.28-4.892-7.903-9.577-7.262-15.793.475-4.598 1.66-9.122 2.658-14.351 6.73 5.079 11.426 10.259 11.344 18.092-.05 4.579-.946 9.145-1.334 13.73-.073.878.146 2.202.74 2.654 5.384 4.112 10.883 8.076 16.787 12.17-6.755-10.24-3.867-19.615 2.176-29.143 4.965 5.09 8.667 10.569 7.857 17.589-.586 5.09-2.49 10.023-3.712 15.05-.214.88-.342 2.307.15 2.755 4.878 4.431 9.897 8.71 14.498 13.552-2.296-4.524-3.28-9.796-.776-14.822 2.111-4.234 4.826-8.166 7.54-12.675 6.903 9.376 7.267 18.353 2.615 27.681-1.093 2.191-2.56 4.192-3.736 6.346-.36.66-.716 1.781-.408 2.278 3.613 5.834 7.353 11.59 11.352 17.536-2.67-12.073 3.728-19.785 12.583-26.816 3.13 6.579 4.616 13.23 1.61 19.703-2.276 4.896-6.012 9.11-9.034 13.667-.514.773-1.23 1.961-.974 2.61 2.51 6.383 5.206 12.691 8.168 19.279-.876-12.944 7.02-19.616 17.42-25.183 1.62 7.304 1.963 13.99-1.928 20.288-2.992 4.847-6.962 8.75-11.608 12.035-.742.524-1.494 1.908-1.329 2.705 1.317 6.338 2.855 12.63 4.54 19.859 1.804-13.348 10.74-18.525 21.815-22.045.506 7.596-.203 14.708-5.648 19.988-3.89 3.772-8.67 6.673-13.252 9.654-1.559 1.015-2.138 1.736-1.952 3.639.446 4.599.546 9.232.765 13.852.048 1.019.007 2.04.328 3.215 4.513-11.5 14.2-14.499 25.359-16.311-.667 7.763-2.634 14.59-8.814 18.907-4.514 3.152-9.817 5.23-14.905 7.477-1.616.715-2.533 1.25-2.741 3.133-.614 5.55-1.45 11.074-2.335 17.618 6.617-11.926 17.143-13.356 28.833-13.112-2.162 7.469-5.398 13.792-12.268 17.549-5.149 2.817-10.697 4.381-16.564 4.927-1.017.094-2.557.862-2.83 1.668-1.799 5.288-3.315 10.67-5.238 17.065 8.831-10.623 19.563-9.683 30.902-7.713-4.526 9.84-11.426 15.938-21.998 17.1-3.792.417-7.649.21-11.47.418-.814.044-1.999.427-2.332 1.031-2.799 5.061-5.44 10.21-8.048 15.576 4.633-3.484 9.618-5.844 15.564-5.639 5.685.198 11.045 1.531 16.59 4.002-5.218 7.058-11.265 12.556-20.232 12.874-5.336.19-10.733-.726-16.065-1.433-1.764-.233-2.776-.157-3.916 1.399-3.247 4.428-6.739 8.674-10.065 13.27 5.314-2.577 10.69-4.278 16.701-3.054 5.796 1.181 10.97 3.565 16.177 6.952-6.773 6.588-14.242 10.842-23.672 9.32-5.177-.836-10.162-2.84-15.249-4.264-.844-.238-2.135-.63-2.592-.231-4.56 3.972-8.987 8.095-13.447 12.44 13.208-4.955 23.095 1 32.395 9.319-10.757 8.388-23.445 10.116-41.535-2.686-4.928 3.159-9.872 6.328-14.814 9.498 5.974-.372 11.634.342 16.798 3.6 5.05 3.184 9.287 7.165 12.868 12.38-7.549 3.404-14.994 4.906-22.769 2.241-6.43-2.204-11.963-5.97-16.641-10.888-1.172-1.23-2.044-1.347-3.534-.69-4.634 2.04-9.344 3.91-14.08 6.067 13.836.54 20.728 9.818 26.86 20.788-5.844 1.862-11.446 2.232-17.045.856-9.23-2.266-15.512-8.616-20.88-15.969-1.383-1.893-2.476-2.63-4.988-2.09-10.415 2.242-20.599 5.131-30.344 9.477-.42.188-.82.42-1.693.872" fill="#5e2590"/><g fill="#5e2590"><g style="-inkscape-font-specification:Rockwell" font-weight="400" font-size="113.515" font-family="Rock Salt"><path d="M276.783 205.178h52.102v12.563h-70.06v-12.563q8.498-8.795 23.131-23.575 14.707-14.855 18.476-19.141 7.169-8.056 9.977-13.598 2.882-5.617 2.882-11.012 0-8.794-6.208-14.337-6.134-5.543-16.037-5.543-7.02 0-14.854 2.44-7.76 2.438-16.628 7.39v-15.077q9.016-3.621 16.85-5.469 7.833-1.847 14.337-1.847 17.145 0 27.344 8.573 10.198 8.572 10.198 22.91 0 6.799-2.586 12.932-2.513 6.06-9.238 14.338-1.848 2.143-11.75 12.415-9.904 10.199-27.936 28.6zM340.049 107.404h58.605v12.564H353.72v27.048q3.252-1.108 6.503-1.626 3.252-.59 6.504-.59 18.476 0 29.265 10.124 10.79 10.124 10.79 27.418 0 17.81-11.085 27.713-11.086 9.83-31.261 9.83-6.947 0-14.19-1.183-7.168-1.182-14.854-3.547v-15.003q6.651 3.622 13.746 5.395 7.095 1.774 15.002 1.774 12.785 0 20.25-6.725 7.464-6.725 7.464-18.254 0-11.53-7.464-18.254-7.465-6.725-20.25-6.725-5.986 0-11.972 1.33-5.912 1.33-12.12 4.138v-55.427z"/></g><g style="-inkscape-font-specification:Museo-300" font-size="44.5" font-family="Museo"><path d="M257.473 266.387l-2.373 4.153s2.61 2.967 7.06 2.967c4.213 0 7.833-2.433 9.672-7.061l11.867-29.31c.415-.95.949-1.187 1.898-1.187h.772v-4.925h-3.442c-2.432 0-3.5.653-4.39 3.026l-6.23 16.91c-.594 1.543-1.01 3.62-1.01 3.62h-.118s-.474-2.077-1.068-3.62l-6.823-16.91c-.95-2.373-1.84-3.026-4.272-3.026h-3.382v4.925h.712c.95 0 1.483.237 1.899 1.186l10.264 23.793-1.364 3.263c-1.128 2.67-2.967 4.332-5.281 4.332-2.551 0-4.39-2.077-4.39-2.136zM287.615 246.035c0 8.9 6.468 15.724 15.96 15.724 7.12 0 11.57-4.391 11.57-4.391l-2.491-4.094s-3.62 3.5-8.781 3.5c-5.34 0-9.968-3.619-10.324-10.027h21.894s.178-1.602.178-2.373c0-7.773-4.51-14.062-12.935-14.062-8.544 0-15.07 6.17-15.07 15.723zm6.17-3.5c.89-4.984 4.45-7.654 8.842-7.654 3.738 0 6.882 2.67 7.06 7.654h-15.901zM320.663 252.621c0 5.993 5.043 9.138 10.205 9.138 7.18 0 9.553-5.934 9.553-5.934h.118s-.118.772-.118 1.78c0 2.136 1.068 3.442 3.738 3.442h5.399v-4.925h-2.433c-.83 0-1.305-.415-1.305-1.305V242.06c0-6.645-2.61-11.748-12.341-11.748-2.908 0-10.384.712-10.384 5.637v2.966h5.4v-1.72c0-1.958 3.5-2.314 4.924-2.314 4.688 0 6.646 1.898 6.646 7.179v.297h-1.306c-5.043 0-18.096.593-18.096 10.264zm5.814-.296c0-5.518 7.832-5.756 12.164-5.756h1.483v1.009c0 4.45-3.145 9.553-8.01 9.553-3.797 0-5.637-2.374-5.637-4.806zM356.559 261.047h5.755v-12.282c0-1.84.178-3.68.712-5.4 1.365-4.45 4.747-7.06 8.425-7.06.95 0 1.72.178 1.72.178v-5.696s-.77-.12-1.542-.12c-4.628 0-8.07 3.442-9.493 7.833h-.119s.119-.89.119-2.077v-1.898c0-2.433-1.246-3.501-3.857-3.501h-5.458v4.925h2.432c.83 0 1.306.415 1.306 1.305v23.793zM373.884 256.478s3.975 5.28 11.985 5.28c6.29 0 11.036-3.44 11.036-8.78 0-10.028-16.376-8.782-16.376-14.478 0-2.373 2.196-3.56 5.578-3.56 1.839 0 4.509.771 4.509 2.551v1.484h5.162v-2.848c0-4.57-6.23-5.815-9.85-5.815-6.11 0-11.154 2.67-11.154 8.425 0 9.672 16.376 9.078 16.376 14.478 0 2.61-2.433 3.856-5.221 3.856-5.518 0-9.078-4.45-9.078-4.45l-2.967 3.857z"/></g></g></svg>