<svg viewBox="6.521 202.156 654.546 145.377" width="654.546" height="145.377" xmlns="http://www.w3.org/2000/svg"><path d="M89.313 315.467c0 1.152-.392 1.985-1.174 2.505-.782.52-1.592.783-2.426.783-.837 0-1.565-.367-2.19-1.095L36.57 259.593l-23.476 21.758v33.335c-.105.94-.47 1.72-1.096 2.347-.626.627-1.357.939-2.19.939-1.045 0-1.854-.312-2.426-.939-.575-.626-.861-1.407-.861-2.347V211.704c0-.94.313-1.721.939-2.348.625-.625 1.408-.94 2.347-.94.94 0 1.722.315 2.348.94.626.627.94 1.408.94 2.348v61.664l67.61-63.385c.626-.627 1.355-.94 2.19-.94s1.566.313 2.193.94c.625.627.938 1.357.938 2.19 0 .838-.313 1.566-.938 2.191l-43.354 40.379 46.796 58.535c.52.731.783 1.462.783 2.189M165.373 247.467c4.799 5.686 7.2 12.91 7.2 21.674v45.7c0 .837-.312 1.566-.939 2.192-.626.627-1.357.939-2.19.939-.94 0-1.698-.312-2.271-.939a3.143 3.143 0 01-.86-2.192v-45.7c0-7.2-1.776-13.04-5.321-17.529-3.548-4.483-8.975-6.729-16.278-6.729-4.486 0-8.896 1.096-13.224 3.287-4.33 2.192-7.852 5.165-10.564 8.92-2.714 3.757-4.07 7.774-4.07 12.051v45.7c0 .837-.313 1.566-.938 2.192-.626.627-1.357.939-2.191.939-.94 0-1.697-.312-2.27-.939a3.136 3.136 0 01-.86-2.192V205.288c0-.834.313-1.565.94-2.192.624-.626 1.353-.94 2.19-.94.939 0 1.695.314 2.27.94.571.627.86 1.358.86 2.192v49.455c2.92-4.59 6.964-8.373 12.13-11.345 5.163-2.975 10.407-4.463 15.727-4.463 8.974 0 15.86 2.846 20.659 8.532" fill="#231f20"/><path d="M242.026 309.547c4.335-2.857 7.735-6.823 10.199-11.899 2.462-5.074 3.696-10.765 3.696-17.073 0-6.304-1.234-11.972-3.696-16.999-2.464-5.024-5.89-8.964-10.274-11.824-4.385-2.856-9.288-4.285-14.706-4.285-5.322 0-10.176 1.43-14.559 4.285-4.387 2.86-7.835 6.824-10.348 11.899-2.512 5.077-3.77 10.717-3.77 16.924 0 6.308 1.258 11.973 3.77 16.999 2.513 5.025 5.936 8.993 10.272 11.898 4.336 2.91 9.213 4.361 14.635 4.361 5.517 0 10.444-1.426 14.781-4.286zm18.403-100.07c.54.594.813 1.283.813 2.071v103.468c0 .788-.296 1.479-.887 2.068-.592.594-1.282.888-2.07.888-.887 0-1.602-.294-2.143-.888a2.955 2.955 0 01-.812-2.068v-14.044c-2.367 5.225-6.112 9.608-11.235 13.157-5.124 3.549-10.84 5.32-17.146 5.32-6.406 0-12.219-1.698-17.442-5.098-5.224-3.4-9.338-8.055-12.342-13.968-3.007-5.912-4.508-12.514-4.508-19.808 0-7.291 1.501-13.892 4.508-19.807 3.004-5.912 7.118-10.541 12.342-13.893 5.223-3.35 11.036-5.024 17.442-5.024 6.108 0 11.774 1.723 16.998 5.172 5.222 3.45 9.016 7.933 11.383 13.45v-48.925c0-.788.27-1.477.812-2.07.541-.59 1.256-.887 2.143-.887.886 0 1.601.297 2.144.887M311.718 250.645c-3.795 1.92-7.147 4.78-10.052 8.571-2.908 3.796-4.855 8.403-5.839 13.822h54.395v-1.331c-.494-5.024-2.094-9.336-4.804-12.935-2.712-3.594-6.06-6.33-10.05-8.201-3.991-1.87-8.155-2.81-12.491-2.81-3.647 0-7.367.96-11.16 2.884zm43.086 50.402c.492.544.74 1.16.74 1.849 0 .69-.198 1.282-.592 1.773-3.252 4.336-7.293 7.886-12.12 10.643-4.83 2.759-10.002 4.138-15.52 4.138-7.391 0-13.946-1.575-19.66-4.73-5.715-3.152-10.175-7.636-13.375-13.45-3.204-5.814-4.806-12.565-4.806-20.251 0-7.881 1.552-14.804 4.656-20.767 3.104-5.96 7.218-10.517 12.343-13.673 5.123-3.152 10.59-4.728 16.407-4.728 5.813 0 11.207 1.253 16.186 3.768 4.973 2.512 9.039 6.281 12.193 11.307 3.154 5.025 4.827 11.234 5.027 18.625 0 .79-.297 1.502-.888 2.141-.59.644-1.281.963-2.07.963h-58.088v1.92c0 6.112 1.23 11.704 3.696 16.776 2.46 5.078 6.108 9.093 10.937 12.047 4.827 2.957 10.643 4.435 17.441 4.435 4.73 0 9.188-1.157 13.377-3.473 4.187-2.313 7.464-5.248 9.831-8.795.687-.886 1.525-1.33 2.51-1.33.69 0 1.28.273 1.775.812M379.34 303.339c0-.69.392-1.33 1.183-1.923a2.412 2.412 0 011.773-.737c.984 0 1.774.395 2.364 1.181 5.715 8.181 13.698 12.27 23.946 12.27 5.222 0 9.805-1.306 13.746-3.919 3.942-2.608 5.912-6.132 5.912-10.567 0-4.532-1.724-7.933-5.173-10.2-3.45-2.264-8.18-4.14-14.19-5.616-7.982-1.97-14.263-4.604-18.846-7.908-4.583-3.3-6.872-7.956-6.872-13.97 0-5.812 2.313-10.615 6.947-14.411 4.63-3.792 10.592-5.688 17.885-5.688 4.04 0 8.056.788 12.047 2.364 3.99 1.577 7.612 4.088 10.864 7.537.688.59 1.036 1.283 1.036 2.071 0 .887-.348 1.677-1.036 2.364-.788.394-1.43.59-1.922.59-.69 0-1.281-.296-1.773-.885-5.125-5.617-11.73-8.425-19.808-8.425-5.224 0-9.632 1.28-13.23 3.841-3.598 2.566-5.393 6.112-5.393 10.643.295 4.239 2.239 7.516 5.838 9.83 3.597 2.315 8.892 4.36 15.889 6.134 5.027 1.282 9.19 2.687 12.49 4.213 3.302 1.528 5.938 3.67 7.909 6.43 1.97 2.758 2.956 6.354 2.956 10.79 0 6.208-2.39 11.112-7.168 14.708-4.782 3.597-11.012 5.394-18.699 5.394-11.233 0-20.448-4.434-27.64-13.305-.69-1.08-1.035-2.016-1.035-2.806M466.992 317.084c-.592.594-1.282.888-2.07.888-.887 0-1.603-.294-2.143-.888a2.961 2.961 0 01-.812-2.068v-70.212c0-.787.293-1.477.885-2.068.592-.591 1.282-.885 2.07-.885.886 0 1.6.294 2.145.885.538.59.81 1.281.81 2.068v70.212c0 .788-.294 1.479-.885 2.068zm-5.84-86.617c-.936-.886-1.402-2.017-1.402-3.398v-1.185c0-1.377.49-2.51 1.477-3.398.984-.887 2.265-1.331 3.843-1.331 1.38 0 2.535.444 3.473 1.33.934.889 1.405 2.022 1.405 3.4v1.184c0 1.38-.47 2.512-1.405 3.398-.938.888-2.143 1.33-3.621 1.33-1.576 0-2.834-.442-3.77-1.33M547.621 309.621c4.582-2.809 8.179-6.725 10.79-11.752 2.61-5.024 3.918-10.79 3.918-17.294 0-6.503-1.308-12.267-3.917-17.294-2.612-5.025-6.21-8.918-10.79-11.677-4.583-2.757-9.733-4.137-15.446-4.137-5.717 0-10.865 1.43-15.447 4.285-4.582 2.86-8.18 6.8-10.79 11.824-2.612 5.027-3.918 10.695-3.918 16.999 0 6.308 1.306 11.973 3.918 16.999 2.61 5.025 6.208 8.993 10.79 11.898 4.582 2.91 9.73 4.361 15.447 4.361 5.713 0 10.863-1.404 15.445-4.212zm19.216-64.52c.54.591.81 1.28.81 2.069v63.56c0 7.486-1.527 13.99-4.58 19.51-3.055 5.519-7.34 9.779-12.859 12.787-5.519 3.004-11.825 4.506-18.919 4.506-3.942 0-7.933-.516-11.974-1.552-4.042-1.033-7.367-2.364-9.976-3.99-2.612-1.626-3.919-3.277-3.919-4.95 0-.793.223-1.43.665-1.924.444-.493 1.06-.738 1.85-.738.592 0 1.477.492 2.66 1.477 1.378 1.382 2.905 2.413 4.582 3.107 4.827 1.969 10.295 2.953 16.407 2.953 9.261 0 16.604-2.859 22.024-8.57 5.419-5.717 8.13-13.255 8.13-22.617v-10.2c-2.66 6.31-6.775 11.04-12.343 14.19-5.568 3.156-11.407 4.73-17.515 4.73-6.703 0-12.787-1.698-18.255-5.098-5.469-3.4-9.756-8.055-12.86-13.968-3.104-5.912-4.656-12.514-4.656-19.808 0-7.291 1.552-13.892 4.655-19.807 3.105-5.912 7.392-10.541 12.861-13.893 5.468-3.35 11.552-5.024 18.255-5.024 6.6 0 12.639 1.748 18.105 5.244 5.47 3.501 9.388 7.712 11.754 12.64V247.17c0-.789.268-1.478.81-2.07.544-.589 1.256-.885 2.144-.885.888 0 1.602.296 2.144.885M654.414 249.608c4.435 5.173 6.651 11.902 6.651 20.178v45.23c0 .788-.296 1.479-.887 2.068-.592.594-1.282.888-2.07.888-.886 0-1.603-.294-2.142-.888a2.95 2.95 0 01-.813-2.068v-44.64c0-6.7-1.75-12.193-5.247-16.478-3.498-4.29-8.796-6.431-15.892-6.431-4.336 0-8.597 1.033-12.785 3.104-4.188 2.07-7.612 4.877-10.272 8.425-2.661 3.547-3.99 7.343-3.99 11.38v44.64c0 .788-.298 1.479-.887 2.068-.594.594-1.283.888-2.07.888-.888 0-1.604-.294-2.145-.888a2.962 2.962 0 01-.813-2.068V247.17c0-.789.298-1.478.888-2.07.592-.589 1.28-.885 2.07-.885.887 0 1.6.296 2.143.885.54.592.813 1.281.813 2.07v9.904c2.858-4.434 6.874-8.079 12.047-10.939 5.173-2.856 10.37-4.284 15.593-4.284 8.77 0 15.374 2.584 19.808 7.757" fill="#7b7979"/></svg>