<svg xmlns="http://www.w3.org/2000/svg" viewBox="0 0 192.93333 113.41333" height="113.413" width="192.933"><defs><linearGradient id="a" gradientTransform="matrix(-48.8803,308.618,308.618,48.8803,515.379,536.838)" gradientUnits="userSpaceOnUse" x2="1"><stop offset="0" stop-color="#666a6f"/><stop offset="1" stop-color="#fff"/></linearGradient><linearGradient id="b" gradientTransform="matrix(-231.47,-215.849,-215.849,231.47,1304.02,805.395)" gradientUnits="userSpaceOnUse" x2="1"><stop offset="0" stop-color="#666a6f"/><stop offset="1" stop-color="#f9f7f8"/></linearGradient><linearGradient id="c" gradientTransform="matrix(320.339,-163.221,-163.221,-320.339,562.613,752.441)" gradientUnits="userSpaceOnUse" x2="1"><stop offset="0" stop-color="#666a6f"/><stop offset="1" stop-color="#fff"/></linearGradient></defs><path d="M46.913 105.767c.059-.011.134-.018.228-.022a5.623 5.623 0 0 1 .572 0c.111.004.197.011.255.022l1.655 6.358 1.847-6.358a4.942 4.942 0 0 1 .556-.03h.242a.98.98 0 0 1 .242.03l1.846 6.27 1.654-6.27a3.48 3.48 0 0 1 .455-.03 4.472 4.472 0 0 1 .498.03l-2.153 7.47a3.186 3.186 0 0 1-.513.044c-.186 0-.356-.015-.513-.043l-1.802-6.182-1.89 6.182a3.183 3.183 0 0 1-.512.043c-.186 0-.357-.015-.513-.043l-2.154-7.471m10.724 0a1.69 1.69 0 0 1 .228-.022 5.6 5.6 0 0 1 .572 0c.11.004.197.011.255.022l1.656 6.358 1.846-6.358a4.936 4.936 0 0 1 .556-.03h.242c.083 0 .163.01.242.03l1.846 6.27 1.655-6.27a3.496 3.496 0 0 1 .455-.03 4.44 4.44 0 0 1 .497.03l-2.153 7.47a3.187 3.187 0 0 1-.513.044c-.186 0-.356-.015-.513-.043l-1.801-6.182-1.89 6.182a3.18 3.18 0 0 1-.513.043c-.186 0-.357-.015-.513-.043l-2.154-7.471m10.723 0c.06-.011.135-.018.228-.022a5.629 5.629 0 0 1 .572 0c.111.004.197.011.255.022l1.656 6.358 1.846-6.358a4.914 4.914 0 0 1 .557-.03h.241a.99.99 0 0 1 .242.03l1.846 6.27 1.655-6.27a3.468 3.468 0 0 1 .455-.03 4.47 4.47 0 0 1 .497.03l-2.153 7.47a3.199 3.199 0 0 1-.513.044c-.186 0-.356-.015-.513-.043l-1.801-6.182-1.89 6.182a3.186 3.186 0 0 1-.513.043c-.185 0-.357-.015-.512-.043l-2.155-7.471m11.12 7.471a4.437 4.437 0 0 1 0-1.246 4.376 4.376 0 0 1 1.245 0 4.345 4.345 0 0 1 0 1.246 4.44 4.44 0 0 1-1.245 0m3.122-7.471c.077-.011.153-.018.226-.022a2.72 2.72 0 0 1 .213-.007 2.868 2.868 0 0 1 .44.029c.018.175.033.386.043.629.01.244.015.464.015.66.088-.185.2-.367.336-.543.138-.175.299-.33.483-.469.186-.136.398-.246.638-.33.24-.081.51-.123.813-.123.283 0 .528.034.733.101a1.691 1.691 0 0 1 .916.718c.102.167.197.352.285.559.107-.158.23-.32.366-.484a2.63 2.63 0 0 1 .47-.448c.175-.13.378-.24.607-.323.23-.081.486-.123.77-.123.869 0 1.496.248 1.881.747.386.498.58 1.21.58 2.138v4.762a4.328 4.328 0 0 1-.718.021 2.61 2.61 0 0 1-.25-.021v-4.425c0-.791-.13-1.377-.388-1.757-.258-.381-.647-.571-1.165-.571-.312 0-.585.063-.82.19a1.74 1.74 0 0 0-.586.513 2.398 2.398 0 0 0-.359.754 3.273 3.273 0 0 0-.124.915v4.38a4.354 4.354 0 0 1-.718.021 2.571 2.571 0 0 1-.249-.02v-4.615c0-.752-.12-1.308-.359-1.671-.239-.36-.584-.542-1.033-.542-.303 0-.58.076-.834.228-.255.15-.474.363-.66.637a3.24 3.24 0 0 0-.433.975 4.714 4.714 0 0 0-.153 1.238v3.75a4.354 4.354 0 0 1-.719.021 2.575 2.575 0 0 1-.247-.021v-7.471m11.953 0a2.54 2.54 0 0 1 .227-.022 2.72 2.72 0 0 1 .213-.007c.078 0 .151.001.219.007.068.004.141.011.22.022.02.175.034.386.044.629.01.244.014.464.014.66.088-.185.2-.367.337-.543a2.395 2.395 0 0 1 1.121-.799c.24-.081.51-.123.813-.123.283 0 .528.034.732.101.206.07.384.166.535.287.151.121.278.266.381.431.103.167.198.352.286.559.107-.158.229-.32.366-.484.137-.168.293-.316.469-.448.175-.13.378-.24.608-.323.229-.081.485-.123.769-.123.87 0 1.496.248 1.882.747.386.498.58 1.21.58 2.138v4.762a4.358 4.358 0 0 1-.718.021 2.579 2.579 0 0 1-.25-.021v-4.425c0-.791-.129-1.377-.388-1.757-.259-.381-.647-.571-1.165-.571-.313 0-.585.063-.82.19s-.43.297-.586.513a2.398 2.398 0 0 0-.36.754 3.273 3.273 0 0 0-.123.915v4.38a4.33 4.33 0 0 1-.718.021 2.61 2.61 0 0 1-.25-.02v-4.615c0-.752-.118-1.308-.358-1.671-.24-.36-.583-.542-1.033-.542-.303 0-.581.076-.835.228a2.08 2.08 0 0 0-.66.637c-.185.273-.33.598-.432.975a4.692 4.692 0 0 0-.153 1.238v3.75a4.348 4.348 0 0 1-.719.021 2.581 2.581 0 0 1-.248-.021v-7.471m11.955 0a2.54 2.54 0 0 1 .226-.022 2.72 2.72 0 0 1 .213-.007 2.868 2.868 0 0 1 .44.029c.019.175.033.382.043.621.01.24.015.457.015.653.196-.36.47-.667.82-.915.352-.25.816-.374 1.392-.374h.154c.054 0 .115.004.183.015a2.362 2.362 0 0 1 0 .922 1.813 1.813 0 0 0-.183-.014h-.14c-.664 0-1.196.21-1.596.629-.401.42-.6 1.12-.6 2.095v3.839a4.345 4.345 0 0 1-.718.021 2.597 2.597 0 0 1-.25-.021v-7.471m4.806-1.833a8.009 8.009 0 0 1-.022-.936c.004-.119.012-.214.022-.294.088-.01.195-.017.322-.022.127-.004.235-.007.323-.007.077 0 .175.003.293.007.116.005.214.013.292.022a6.863 6.863 0 0 1 .022.91 4.303 4.303 0 0 1-.022.32 6.344 6.344 0 0 1-.585.031c-.088 0-.196-.003-.323-.009a3.494 3.494 0 0 1-.322-.022zm.483 2.652h-.938a1.373 1.373 0 0 1-.021-.176 1.42 1.42 0 0 1 .022-.643h1.905v7.47a4.342 4.342 0 0 1-.718.021 2.61 2.61 0 0 1-.25-.02v-6.652m3.588 0h-1.274a1.43 1.43 0 0 1-.022-.19 3.511 3.511 0 0 1 0-.454c.005-.068.012-.126.022-.175h1.274v-1.407l.91-.893h.057v2.3h2.022c.01.049.017.107.022.175a2.882 2.882 0 0 1 0 .454 1.452 1.452 0 0 1-.022.19h-2.022v4.864c0 .245.032.437.095.578a.838.838 0 0 0 .25.33c.102.079.22.13.35.155.133.023.268.036.405.036.34 0 .64-.043.893-.133.068.256.117.528.147.822-.352.107-.762.16-1.231.16-.557 0-1.008-.148-1.356-.447-.346-.297-.52-.783-.52-1.457v-4.908m3.927 6.652a4.357 4.357 0 0 1 0-1.246 4.363 4.363 0 0 1 1.245 0 4.366 4.366 0 0 1 0 1.246 4.443 4.443 0 0 1-1.245 0m8.072-.938c.048.098.095.229.139.396.044.166.076.302.095.41-.244.088-.522.16-.835.218-.312.06-.659.09-1.04.09-1.22 0-2.148-.336-2.783-1.005-.635-.669-.952-1.638-.952-2.907 0-.556.077-1.071.234-1.546.156-.473.386-.886.688-1.238a3.165 3.165 0 0 1 1.136-.828c.454-.2.978-.3 1.575-.3.37 0 .725.028 1.062.08.337.055.602.117.798.184 0 .127-.017.273-.051.44a2.537 2.537 0 0 1-.11.395 4.49 4.49 0 0 0-.74-.176 5.937 5.937 0 0 0-.96-.072c-.439 0-.822.074-1.15.226-.326.151-.6.365-.82.637-.22.273-.383.596-.49.968a4.406 4.406 0 0 0-.162 1.23c0 1.055.252 1.829.755 2.322.503.493 1.184.74 2.044.74a4.683 4.683 0 0 0 1.567-.264m4.485.263c.78 0 1.364-.273 1.749-.819.386-.547.58-1.294.58-2.242s-.194-1.694-.58-2.242c-.385-.547-.968-.82-1.75-.82s-1.365.273-1.75.82c-.387.548-.58 1.294-.58 2.242s.193 1.695.58 2.242c.385.546.968.82 1.75.82zm0 .85c-.558 0-1.047-.1-1.466-.3a2.901 2.901 0 0 1-1.048-.827 3.555 3.555 0 0 1-.622-1.245 5.57 5.57 0 0 1-.205-1.539c0-.547.068-1.06.205-1.539.136-.478.344-.893.622-1.245a2.929 2.929 0 0 1 1.048-.828c.42-.2.908-.3 1.465-.3.556 0 1.042.1 1.458.3.414.2.761.476 1.04.828.278.352.488.767.629 1.245.141.479.212.992.212 1.54 0 .547-.07 1.06-.212 1.538a3.61 3.61 0 0 1-.63 1.245 2.919 2.919 0 0 1-1.04.826c-.415.202-.9.301-1.457.301m5.201-7.646c.077-.011.153-.018.226-.022.073-.006.144-.007.212-.007.079 0 .152.001.22.007.068.004.141.011.22.022.019.175.033.386.044.629.01.244.015.464.015.66.086-.185.2-.367.336-.543a2.4 2.4 0 0 1 1.121-.799c.24-.081.51-.123.813-.123.283 0 .527.034.732.101.206.07.383.166.535.287.15.121.279.266.381.431.103.167.198.352.286.559.106-.158.229-.32.366-.484.136-.168.292-.316.468-.448.176-.13.379-.24.608-.323.23-.081.486-.123.77-.123.869 0 1.496.248 1.882.747.386.498.579 1.21.579 2.138v4.762a4.378 4.378 0 0 1-.717.021 2.566 2.566 0 0 1-.25-.021v-4.425c0-.791-.129-1.377-.389-1.757-.257-.381-.647-.571-1.164-.571-.312 0-.585.063-.82.19s-.43.297-.587.513a2.407 2.407 0 0 0-.358.754 3.248 3.248 0 0 0-.124.915v4.38a4.302 4.302 0 0 1-.717.021 2.566 2.566 0 0 1-.25-.02v-4.615c0-.752-.12-1.308-.359-1.671-.24-.36-.584-.542-1.033-.542-.303 0-.581.076-.835.228a2.07 2.07 0 0 0-.66.637 3.24 3.24 0 0 0-.432.975 4.686 4.686 0 0 0-.153 1.238v3.75a4.302 4.302 0 0 1-.719.021 2.57 2.57 0 0 1-.248-.021v-7.471" fill="#656a6f"/><path d="M2.114 96.598h190.823" fill="none" stroke="#5b2175" stroke-width="1.392" stroke-miterlimit="10"/><path d="M2.114 95.296h190.823" fill="none" stroke="#bcadb9" stroke-width="1.392" stroke-miterlimit="10"/><path d="M159.437 40.696a20.35 20.35 0 0 1-.104-1.602 29.148 29.148 0 0 1-.045-1.602c0-.387.01-.874.045-1.454.016-.586.059-1.068.104-1.457a28.15 28.15 0 0 1 1.598-.11c.63-.024 1.166-.035 1.606-.035.386 0 .871.011 1.45.036a21.51 21.51 0 0 1 1.462.109c.048.389.082.87.107 1.457.02.58.04 1.067.04 1.454 0 .434-.02.972-.04 1.602a23.98 23.98 0 0 1-.107 1.602c-.386.048-.874.083-1.462.106a36.67 36.67 0 0 1-1.45.038c-.44 0-.976-.014-1.606-.038a21.913 21.913 0 0 1-1.598-.106zm2.404 13.17h-4.66a8.307 8.307 0 0 1-.11-.873 14.739 14.739 0 0 1-.034-1.089c0-.389.008-.777.034-1.166.026-.389.065-.704.11-.946h9.462v37.115c-.294.048-.69.083-1.198.108-.512.024-.908.037-1.204.037-.246 0-.629-.013-1.165-.037-.53-.025-.95-.06-1.235-.108v-33.04m13.984-.001h-6.328a5.908 5.908 0 0 1-.105-.944 16.161 16.161 0 0 1 0-2.256c.017-.34.053-.632.105-.874h6.328v-6.985l4.518-4.444h.282v11.429h10.055c.036.242.079.535.101.874.026.34.04.704.04 1.09 0 .39-.014.777-.04 1.166-.022.387-.065.702-.101.944h-10.055v24.162c0 1.214.166 2.171.48 2.873.318.706.73 1.25 1.24 1.64a3.97 3.97 0 0 0 1.743.763c.655.122 1.316.183 1.997.183 1.703 0 3.182-.216 4.444-.654.34 1.261.582 2.619.73 4.074-1.748.534-3.788.8-6.119.8-2.76 0-5.005-.741-6.724-2.22-1.725-1.478-2.59-3.893-2.59-7.243V53.866" fill="#656a6f"/><path d="M1.302 50.126h8.892v5.849h.157c1.631-3.51 5.224-6.786 11.466-6.786 5.775 0 9.747 2.263 11.7 6.942 2.73-4.757 6.713-6.942 12.32-6.942 9.986 0 13.496 7.097 13.496 16.065v22.312h-9.361V66.35c0-4.683-1.402-8.74-6.938-8.74-5.857 0-8.04 4.84-8.04 9.674v20.282h-9.358V65.254c0-4.6-1.87-7.645-6.395-7.645-6.16 0-8.578 4.529-8.578 9.522v20.435H1.302v-37.44m63.598 0h8.893v5.849h.156c1.64-3.51 5.23-6.786 11.467-6.786 5.771 0 9.75 2.263 11.703 6.942 2.724-4.757 6.705-6.942 12.323-6.942 9.983 0 13.495 7.097 13.495 16.065v22.312h-9.364V66.35c0-4.683-1.41-8.74-6.946-8.74-5.842 0-8.033 4.84-8.033 9.674v20.282h-9.356V65.254c0-4.6-1.87-7.645-6.398-7.645-6.164 0-8.579 4.529-8.579 9.522v20.435h-9.36v-37.44m63.601 0h9.355v5.927h.163c2.023-4.29 6.157-6.864 11.075-6.864 1.166 0 2.261.234 3.354.545v9.047c-1.566-.39-3.045-.704-4.529-.704-8.813 0-10.063 7.413-10.063 9.443v20.046h-9.355v-37.44" fill="#5b2175"/><path d="M716.086 777.367c92.363-.629 149.059-36.926 195.051-83.957 3.703-3.652 12.64-12.633 12.64-12.633 21.09-21.601 40.543-44.859 58.059-70.058-8.277 60.719-35.141 102.91-68.188 138.894 0 0-4.32 4.758-7.578 7.543-52.246 46.047-108.644 87.887-201.371 93.442h-27.773c-44.625-2.5-85.403-14.578-116.793-32.817-30.731-17.91-55.91-42.16-83.938-63.785-27.238-20.992-57.652-41.656-90.277-58.055-20.152-10.152-41.199-19.367-62.824-25.847-22.028-6.574-44.797-9.981-67.739-10.246-13.199-.149-26.582.254-39.695 1.488-11.703 1.066-23.32 2.605-34.812 4.949-14.922 3.074-29.864 6.117-44.375 10.653-16.09 5.062-32.094 11.308-47.309 18.609-16.238 7.812-31.5 17.758-45.715 28.859-15.238 11.821-27.754 25.75-39.094 41.285-1.406 1.875-2.851 3.723-4.128 5.672-2.852 4.301 21.386-58.277 67.527-104.461 0 0 6.426-6.597 10.129-10.097 19.898-19.164 44.672-35.754 69.57-47.555 29.965-14.184 62.508-21.656 95.602-22.293 20.75-.383 42.773.481 63.269 4.043 27.071 4.684 53.653 12.16 79.02 22.609 23.41 9.664 46.121 21.176 67.699 34.532a769.755 769.755 0 0 1 34.496 22.558c29.922 20.594 57.164 44.215 85.895 66.285 29.156 22.43 64.929 41.211 142.652 40.383" fill="url(#a)" fill-rule="evenodd" transform="matrix(1.3333333,0,0,-1.3333333,0,113.41333) scale(0.1)"/><path d="M1367.95 679.852c1.81-1.981 3.64-4.012 5.45-6.012 17.88-20.035 35.03-41.129 50.87-62.813.83 21.95-9.31 44.586-18.31 64.164-25 54.418-66.89 98.641-117.88 129.809-14.02 8.621-28.94 16.324-44.07 22.965-13.58 5.969-27.71 10.875-42.12 14.672-16.03 4.234-32.6 6.629-49.2 7.351-35.42 1.543-73.19-1.093-106.97-12.461-29.92-10.086-56.65-27.3-81.443-46.55-3.339-2.567-38.519-32.008-38.629-31.914 16.985-17.071 31.52-36.68 43.586-58.727 3.325 2.789 25.582 20.992 33.396 27.027 11.77 9.035 23.58 18.047 36.22 25.797 28.71 17.543 60.23 26.344 93.83 26.953 43.65.817 91.26-6.172 131.54-23.168 40.38-17.015 74.26-45.129 103.73-77.093" fill="url(#b)" fill-rule="evenodd" transform="matrix(1.3333333,0,0,-1.3333333,0,113.41333) scale(0.1)"/><path d="M919.309 660.594c.492-.492-69.848-42.629-76.489-45.801-29.558-14.035-61.121-24.625-93.832-27.281-69.441-5.676-132.265 15.574-187.558 56.777-3.278 2.469-37.817 31.52-37.903 31.445 23.711 19.356 37.969 30.645 58.059 46.715 0 0 20.793-17.594 49.992-36.457 18.707-12.058 41.156-20.015 63.078-23.89 48.567-8.567 97.641 6.543 139.012 31.625 2.832 1.722 28.391 18.187 30.094 19.25 0 0 29.797-24.547 55.547-52.383" fill="url(#c)" fill-rule="evenodd" transform="matrix(1.3333333,0,0,-1.3333333,0,113.41333) scale(0.1)"/></svg>