<?xml version="1.0" encoding="UTF-8" standalone="no"?>
<svg
   xmlns:dc="http://purl.org/dc/elements/1.1/"
   xmlns:cc="http://creativecommons.org/ns#"
   xmlns:rdf="http://www.w3.org/1999/02/22-rdf-syntax-ns#"
   xmlns:svg="http://www.w3.org/2000/svg"
   xmlns="http://www.w3.org/2000/svg"
   viewBox="0 0 192.93333 113.41333"
   height="113.41333"
   width="192.93333"
   xml:space="preserve"
   id="svg2"
   version="1.1"><metadata
     id="metadata8"><rdf:RDF><cc:Work
         rdf:about=""><dc:format>image/svg+xml</dc:format><dc:type
           rdf:resource="http://purl.org/dc/dcmitype/StillImage" /></cc:Work></rdf:RDF></metadata><defs
     id="defs6"><linearGradient
       id="linearGradient58"
       spreadMethod="pad"
       gradientTransform="matrix(-48.8803,308.618,308.618,48.8803,515.379,536.838)"
       gradientUnits="userSpaceOnUse"
       y2="0"
       x2="1"
       y1="0"
       x1="0"><stop
         id="stop54"
         offset="0"
         style="stop-opacity:1;stop-color:#666a6f" /><stop
         id="stop56"
         offset="1"
         style="stop-opacity:1;stop-color:#ffffff" /></linearGradient><linearGradient
       id="linearGradient66"
       spreadMethod="pad"
       gradientTransform="matrix(-231.47,-215.849,-215.849,231.47,1304.02,805.395)"
       gradientUnits="userSpaceOnUse"
       y2="0"
       x2="1"
       y1="0"
       x1="0"><stop
         id="stop62"
         offset="0"
         style="stop-opacity:1;stop-color:#666a6f" /><stop
         id="stop64"
         offset="1"
         style="stop-opacity:1;stop-color:#f9f7f8" /></linearGradient><linearGradient
       id="linearGradient74"
       spreadMethod="pad"
       gradientTransform="matrix(320.339,-163.221,-163.221,-320.339,562.613,752.441)"
       gradientUnits="userSpaceOnUse"
       y2="0"
       x2="1"
       y1="0"
       x1="0"><stop
         id="stop70"
         offset="0"
         style="stop-opacity:1;stop-color:#666a6f" /><stop
         id="stop72"
         offset="1"
         style="stop-opacity:1;stop-color:#ffffff" /></linearGradient></defs><g
     transform="matrix(1.3333333,0,0,-1.3333333,0,113.41333)"
     id="g10"><g
       transform="scale(0.1)"
       id="g12"><path
         id="path14"
         style="fill:#656a6f;fill-opacity:1;fill-rule:nonzero;stroke:none"
         d="m 351.848,57.3477 c 0.441,0.082 1.007,0.1367 1.707,0.164 0.691,0.043 1.406,0.0547 2.14,0.0547 0.586,0 1.297,-0.0117 2.149,-0.0547 0.836,-0.0273 1.48,-0.082 1.918,-0.164 L 372.176,9.66406 386.023,57.3477 c 0.582,0.082 1.223,0.1367 1.922,0.164 0.696,0.043 1.45,0.0547 2.25,0.0547 0.586,0 1.188,0 1.817,0 0.625,0 1.222,-0.0703 1.812,-0.2187 l 13.844,-47.0196 12.41,47.0196 c 0.442,0.082 0.973,0.1367 1.598,0.164 0.621,0.043 1.222,0.0547 1.816,0.0547 0.582,0 1.242,-0.0117 1.977,-0.0547 0.726,-0.0273 1.32,-0.082 1.754,-0.164 L 411.074,1.31641 c -1.316,-0.21485 -2.601,-0.324222 -3.847,-0.324222 -1.391,0 -2.672,0.109372 -3.848,0.324222 L 389.867,47.6836 375.691,1.31641 c -1.32,-0.21485 -2.597,-0.324222 -3.839,-0.324222 -1.395,0 -2.68,0.109372 -3.848,0.324222 L 351.848,57.3477" /><path
         id="path16"
         style="fill:#656a6f;fill-opacity:1;fill-rule:nonzero;stroke:none"
         d="m 432.277,57.3477 c 0.446,0.082 1.008,0.1367 1.707,0.164 0.696,0.043 1.407,0.0547 2.141,0.0547 0.586,0 1.301,-0.0117 2.148,-0.0547 0.836,-0.0273 1.485,-0.082 1.918,-0.164 L 452.609,9.66406 466.453,57.3477 c 0.582,0.082 1.223,0.1367 1.922,0.164 0.695,0.043 1.449,0.0547 2.25,0.0547 0.586,0 1.191,0 1.816,0 0.625,0 1.223,-0.0703 1.813,-0.2187 l 13.844,-47.0196 12.414,47.0196 c 0.441,0.082 0.968,0.1367 1.593,0.164 0.622,0.043 1.227,0.0547 1.817,0.0547 0.586,0 1.246,-0.0117 1.976,-0.0547 0.731,-0.0273 1.321,-0.082 1.754,-0.164 L 491.504,1.31641 c -1.316,-0.21485 -2.602,-0.324222 -3.848,-0.324222 -1.39,0 -2.668,0.109372 -3.843,0.324222 L 470.301,47.6836 456.121,1.31641 c -1.316,-0.21485 -2.598,-0.324222 -3.84,-0.324222 -1.394,0 -2.676,0.109372 -3.847,0.324222 L 432.277,57.3477" /><path
         id="path18"
         style="fill:#656a6f;fill-opacity:1;fill-rule:nonzero;stroke:none"
         d="m 512.703,57.3477 c 0.442,0.082 1.008,0.1367 1.707,0.164 0.692,0.043 1.406,0.0547 2.141,0.0547 0.582,0 1.297,-0.0117 2.148,-0.0547 0.836,-0.0273 1.481,-0.082 1.914,-0.164 L 533.031,9.66406 546.875,57.3477 c 0.586,0.082 1.223,0.1367 1.926,0.164 0.691,0.043 1.445,0.0547 2.25,0.0547 0.582,0 1.187,0 1.812,0 0.625,0 1.223,-0.0703 1.817,-0.2187 l 13.843,-47.0196 12.411,47.0196 c 0.441,0.082 0.972,0.1367 1.597,0.164 0.617,0.043 1.223,0.0547 1.813,0.0547 0.586,0 1.246,-0.0117 1.98,-0.0547 0.727,-0.0273 1.317,-0.082 1.754,-0.164 L 571.93,1.31641 c -1.321,-0.21485 -2.606,-0.324222 -3.848,-0.324222 -1.394,0 -2.672,0.109372 -3.848,0.324222 L 550.723,47.6836 536.547,1.31641 c -1.32,-0.21485 -2.598,-0.324222 -3.844,-0.324222 -1.39,0 -2.676,0.109372 -3.844,0.324222 L 512.703,57.3477" /><path
         id="path20"
         style="fill:#656a6f;fill-opacity:1;fill-rule:nonzero;stroke:none"
         d="m 596.102,1.31641 c -0.215,1.53906 -0.332,3.07422 -0.332,4.60937 0,1.61719 0.117,3.19531 0.332,4.73052 1.539,0.2187 3.082,0.3281 4.617,0.3281 1.609,0 3.187,-0.1094 4.722,-0.3281 0.219,-1.53521 0.332,-3.07036 0.332,-4.60942 0,-1.61719 -0.113,-3.19141 -0.332,-4.73047 -1.535,-0.21485 -3.078,-0.324222 -4.613,-0.324222 -1.613,0 -3.187,0.109372 -4.726,0.324222" /><path
         id="path22"
         style="fill:#656a6f;fill-opacity:1;fill-rule:nonzero;stroke:none"
         d="m 619.512,57.3477 c 0.582,0.082 1.148,0.1367 1.699,0.164 0.551,0.043 1.082,0.0547 1.598,0.0547 0.582,0 1.132,-0.0117 1.644,-0.0547 0.508,-0.0273 1.059,-0.082 1.649,-0.164 0.144,-1.3164 0.253,-2.8946 0.328,-4.7149 0.074,-1.8359 0.109,-3.4805 0.109,-4.9492 0.66,1.3867 1.5,2.7461 2.527,4.0664 1.028,1.3164 2.239,2.4844 3.622,3.5195 1.394,1.0196 2.984,1.8477 4.785,2.4727 1.797,0.6133 3.828,0.9258 6.097,0.9258 2.121,0 3.957,-0.2578 5.493,-0.7617 1.542,-0.5157 2.875,-1.2383 4.007,-2.1485 1.137,-0.9101 2.09,-1.9961 2.864,-3.2344 0.769,-1.25 1.48,-2.6367 2.14,-4.1875 0.801,1.1836 1.719,2.3946 2.746,3.6289 1.028,1.254 2.196,2.3672 3.516,3.3594 1.316,0.9766 2.84,1.793 4.559,2.418 1.718,0.6133 3.644,0.9258 5.769,0.9258 6.52,0 11.223,-1.8633 14.117,-5.6016 2.895,-3.7383 4.344,-9.0781 4.344,-16.0391 V 1.31641 c -0.441,-0.06641 -1.047,-0.1211 -1.816,-0.16016 -0.766,-0.04297 -1.371,-0.05469 -1.813,-0.05469 -0.367,0 -0.953,0.01172 -1.754,0.05469 -0.808,0.03906 -1.433,0.09375 -1.871,0.16016 V 34.5 c 0,5.9375 -0.973,10.3281 -2.914,13.1836 -1.937,2.8555 -4.852,4.2812 -8.734,4.2812 -2.344,0 -4.391,-0.4765 -6.153,-1.4257 -1.757,-0.9532 -3.218,-2.2305 -4.394,-3.8477 -1.168,-1.6016 -2.067,-3.4922 -2.692,-5.6562 -0.625,-2.1602 -0.933,-4.4414 -0.933,-6.8633 V 1.31641 c -0.442,-0.06641 -1.043,-0.1211 -1.813,-0.16016 -0.769,-0.04297 -1.375,-0.05469 -1.816,-0.05469 -0.367,0 -0.949,0.01172 -1.754,0.05469 -0.809,0.03906 -1.434,0.09375 -1.867,0.16016 V 35.9258 c 0,5.6406 -0.899,9.8125 -2.692,12.5351 -1.793,2.7032 -4.379,4.0625 -7.75,4.0625 -2.269,0 -4.355,-0.5703 -6.257,-1.7109 -1.911,-1.1289 -3.555,-2.7187 -4.95,-4.7734 -1.39,-2.0508 -2.472,-4.4844 -3.242,-7.3125 -0.765,-2.8125 -1.148,-5.9141 -1.148,-9.2852 V 1.31641 C 626.32,1.25 625.715,1.19531 624.949,1.15625 624.18,1.11328 623.574,1.10156 623.133,1.10156 c -0.367,0 -0.949,0.01172 -1.762,0.05469 -0.801,0.03906 -1.426,0.09375 -1.859,0.16016 V 57.3477" /><path
         id="path24"
         style="fill:#656a6f;fill-opacity:1;fill-rule:nonzero;stroke:none"
         d="m 709.164,57.3477 c 0.586,0.082 1.149,0.1367 1.699,0.164 0.551,0.043 1.082,0.0547 1.598,0.0547 0.586,0 1.137,-0.0117 1.644,-0.0547 0.508,-0.0273 1.059,-0.082 1.653,-0.164 0.14,-1.3164 0.25,-2.8946 0.324,-4.7149 0.074,-1.8359 0.109,-3.4805 0.109,-4.9492 0.661,1.3867 1.504,2.7461 2.528,4.0664 1.027,1.3164 2.238,2.4844 3.625,3.5195 1.39,1.0196 2.98,1.8477 4.785,2.4727 1.793,0.6133 3.824,0.9258 6.094,0.9258 2.121,0 3.957,-0.2578 5.492,-0.7617 1.543,-0.5157 2.875,-1.2383 4.012,-2.1485 1.132,-0.9101 2.086,-1.9961 2.859,-3.2344 0.769,-1.25 1.484,-2.6367 2.141,-4.1875 0.804,1.1836 1.718,2.3946 2.746,3.6289 1.027,1.254 2.195,2.3672 3.515,3.3594 1.317,0.9766 2.84,1.793 4.559,2.418 1.719,0.6133 3.644,0.9258 5.769,0.9258 6.52,0 11.223,-1.8633 14.118,-5.6016 2.894,-3.7383 4.343,-9.0781 4.343,-16.0391 V 1.31641 C 782.336,1.25 781.73,1.19531 780.965,1.15625 c -0.77,-0.04297 -1.375,-0.05469 -1.817,-0.05469 -0.367,0 -0.953,0.01172 -1.753,0.05469 -0.809,0.03906 -1.434,0.09375 -1.868,0.16016 V 34.5 c 0,5.9375 -0.972,10.3281 -2.918,13.1836 -1.937,2.8555 -4.851,4.2812 -8.734,4.2812 -2.344,0 -4.391,-0.4765 -6.148,-1.4257 -1.762,-0.9532 -3.223,-2.2305 -4.399,-3.8477 -1.168,-1.6016 -2.066,-3.4922 -2.691,-5.6562 -0.625,-2.1602 -0.93,-4.4414 -0.93,-6.8633 V 1.31641 C 749.266,1.25 748.66,1.19531 747.891,1.15625 747.125,1.11328 746.52,1.10156 746.074,1.10156 c -0.363,0 -0.949,0.01172 -1.75,0.05469 -0.808,0.03906 -1.433,0.09375 -1.871,0.16016 V 35.9258 c 0,5.6406 -0.894,9.8125 -2.691,12.5351 -1.793,2.7032 -4.375,4.0625 -7.746,4.0625 -2.274,0 -4.36,-0.5703 -6.262,-1.7109 -1.91,-1.1289 -3.555,-2.7187 -4.945,-4.7734 -1.395,-2.0508 -2.477,-4.4844 -3.243,-7.3125 -0.769,-2.8125 -1.148,-5.9141 -1.148,-9.2852 V 1.31641 c -0.445,-0.06641 -1.051,-0.1211 -1.816,-0.16016 -0.77,-0.04297 -1.372,-0.05469 -1.817,-0.05469 -0.363,0 -0.949,0.01172 -1.758,0.05469 -0.804,0.03906 -1.429,0.09375 -1.863,0.16016 V 57.3477" /><path
         id="path26"
         style="fill:#656a6f;fill-opacity:1;fill-rule:nonzero;stroke:none"
         d="m 798.824,57.3477 c 0.586,0.082 1.149,0.1367 1.699,0.164 0.551,0.043 1.082,0.0547 1.598,0.0547 0.582,0 1.137,-0.0117 1.645,-0.0547 0.507,-0.0273 1.058,-0.082 1.652,-0.164 0.141,-1.3164 0.25,-2.8672 0.324,-4.6602 0.074,-1.7969 0.11,-3.4258 0.11,-4.8945 1.468,2.7031 3.523,5.0039 6.152,6.8633 2.637,1.875 6.117,2.8007 10.437,2.8007 0.368,0 0.754,0 1.157,0 0.402,0 0.863,-0.0273 1.375,-0.1093 0.215,-1.2344 0.332,-2.418 0.332,-3.5039 0,-1.1836 -0.117,-2.3125 -0.332,-3.4141 -0.586,0.0664 -1.047,0.1094 -1.375,0.1094 -0.332,0 -0.68,0 -1.047,0 -4.981,0 -8.973,-1.5782 -11.977,-4.7188 -3.004,-3.1523 -4.5,-8.3984 -4.5,-15.7109 V 1.31641 c -0.441,-0.06641 -1.043,-0.1211 -1.812,-0.16016 -0.77,-0.04297 -1.371,-0.05469 -1.817,-0.05469 -0.367,0 -0.949,0.01172 -1.757,0.05469 -0.801,0.03906 -1.43,0.09375 -1.864,0.16016 V 57.3477" /><path
         id="path28"
         style="fill:#656a6f;fill-opacity:1;fill-rule:nonzero;stroke:none"
         d="m 834.859,71.0938 c -0.074,0.6484 -0.129,1.4531 -0.164,2.4023 -0.039,0.9531 -0.054,1.7695 -0.054,2.4219 0,0.5859 0.015,1.3164 0.054,2.1992 0.035,0.8867 0.09,1.6055 0.164,2.2031 0.661,0.0703 1.469,0.125 2.418,0.1641 0.953,0.0273 1.762,0.0547 2.422,0.0547 0.582,0 1.317,-0.0274 2.196,-0.0547 0.875,-0.0391 1.609,-0.0938 2.195,-0.1641 0.074,-0.5976 0.129,-1.3164 0.164,-2.2031 0.039,-0.8828 0.059,-1.6133 0.059,-2.1992 0,-0.6524 -0.02,-1.4688 -0.059,-2.4219 -0.035,-0.9492 -0.09,-1.7539 -0.164,-2.4023 -0.586,-0.0821 -1.32,-0.1368 -2.195,-0.1641 -0.879,-0.043 -1.614,-0.0703 -2.196,-0.0703 -0.66,0 -1.469,0.0273 -2.422,0.0703 -0.949,0.0273 -1.757,0.082 -2.418,0.1641 z m 3.629,-19.8907 h -7.035 c -0.074,0.3672 -0.129,0.8047 -0.164,1.3203 -0.039,0.5039 -0.051,1.0625 -0.051,1.6446 0,0.5859 0.012,1.1679 0.051,1.7539 0.035,0.5859 0.09,1.0586 0.164,1.4258 h 14.289 V 1.31641 c -0.441,-0.06641 -1.047,-0.1211 -1.816,-0.16016 -0.77,-0.04297 -1.371,-0.05469 -1.813,-0.05469 -0.367,0 -0.953,0.01172 -1.754,0.05469 -0.808,0.03906 -1.433,0.09375 -1.871,0.16016 V 51.2031" /><path
         id="path30"
         style="fill:#656a6f;fill-opacity:1;fill-rule:nonzero;stroke:none"
         d="m 865.398,51.2031 h -9.558 c -0.074,0.3672 -0.129,0.8438 -0.164,1.4297 -0.039,0.586 -0.051,1.168 -0.051,1.7539 0,0.5821 0.012,1.1406 0.051,1.6446 0.035,0.5156 0.09,0.9492 0.164,1.3164 h 9.558 v 10.5507 l 6.817,6.6993 h 0.433 v -17.25 h 15.165 c 0.074,-0.3672 0.128,-0.8008 0.164,-1.3164 0.039,-0.504 0.058,-1.0625 0.058,-1.6446 0,-0.5859 -0.019,-1.1679 -0.058,-1.7539 -0.036,-0.5859 -0.09,-1.0625 -0.164,-1.4297 H 872.648 V 14.7227 c 0,-1.836 0.239,-3.2774 0.715,-4.336 0.477,-1.06248 1.102,-1.89061 1.867,-2.47654 0.77,-0.58594 1.653,-0.97657 2.637,-1.15625 0.992,-0.17578 2,-0.26953 3.028,-0.26953 2.558,0 4.796,0.32421 6.699,0.99218 0.511,-1.91797 0.879,-3.95703 1.101,-6.16015 -2.636,-0.800785 -5.715,-1.207035 -9.23,-1.207035 -4.18,0 -7.563,1.113285 -10.168,3.355465 -2.594,2.23047 -3.899,5.875 -3.899,10.92966 v 36.8086" /><path
         id="path32"
         style="fill:#656a6f;fill-opacity:1;fill-rule:nonzero;stroke:none"
         d="m 894.848,1.31641 c -0.219,1.53906 -0.336,3.07422 -0.336,4.60937 0,1.61719 0.117,3.19531 0.336,4.73052 1.535,0.2187 3.078,0.3281 4.613,0.3281 1.609,0 3.187,-0.1094 4.723,-0.3281 0.218,-1.53521 0.336,-3.07036 0.336,-4.60942 0,-1.61719 -0.118,-3.19141 -0.336,-4.73047 -1.536,-0.21485 -3.079,-0.324222 -4.614,-0.324222 -1.609,0 -3.187,0.109372 -4.722,0.324222" /><path
         id="path34"
         style="fill:#656a6f;fill-opacity:1;fill-rule:nonzero;stroke:none"
         d="m 955.391,8.34766 c 0.359,-0.73438 0.711,-1.71485 1.039,-2.96485 0.332,-1.25 0.57,-2.26953 0.715,-3.07422 C 955.316,1.64453 953.227,1.10156 950.883,0.667969 948.539,0.21875 945.938,0 943.082,0 c -9.156,0 -16.113,2.51563 -20.871,7.53125 -4.766,5.01565 -7.145,12.28515 -7.145,21.80075 0,4.1758 0.582,8.0352 1.754,11.5977 1.176,3.5469 2.895,6.6445 5.164,9.2851 2.27,2.6368 5.114,4.7032 8.516,6.211 3.406,1.4961 7.34,2.2422 11.813,2.2422 2.781,0 5.437,-0.2032 7.964,-0.5977 2.532,-0.4101 4.52,-0.8711 5.989,-1.375 0,-0.9492 -0.129,-2.0508 -0.387,-3.3008 -0.258,-1.2382 -0.531,-2.2304 -0.82,-2.9648 -1.469,0.5156 -3.321,0.9531 -5.547,1.3203 -2.239,0.3672 -4.637,0.543 -7.199,0.543 -3.297,0 -6.172,-0.5586 -8.625,-1.6992 -2.454,-1.129 -4.504,-2.7344 -6.153,-4.7735 -1.648,-2.0508 -2.875,-4.4687 -3.68,-7.2578 -0.808,-2.7852 -1.21,-5.8594 -1.21,-9.2305 0,-7.9101 1.886,-13.7148 5.66,-17.4101 3.773,-3.69924 8.879,-5.5469 15.328,-5.5469 2.195,0 4.301,0.17578 6.312,0.54297 2.02,0.36719 3.828,0.84375 5.446,1.42969" /><path
         id="path36"
         style="fill:#656a6f;fill-opacity:1;fill-rule:nonzero;stroke:none"
         d="m 989.02,6.375 c 5.859,0 10.234,2.05078 13.12,6.1445 2.9,4.1055 4.35,9.7032 4.35,16.8125 0,7.1094 -1.45,12.711 -4.35,16.8164 -2.886,4.1055 -7.261,6.1446 -13.12,6.1446 -5.868,0 -10.243,-2.0391 -13.133,-6.1446 -2.895,-4.1054 -4.34,-9.707 -4.34,-16.8164 0,-7.1093 1.445,-12.707 4.34,-16.8125 2.89,-4.09372 7.265,-6.1445 13.133,-6.1445 z m 0,-6.375 c -4.18,0 -7.844,0.746094 -10.993,2.25781 -3.144,1.49219 -5.769,3.5586 -7.855,6.19532 -2.086,2.64067 -3.645,5.74997 -4.668,9.33987 -1.027,3.5898 -1.535,7.4336 -1.535,11.539 0,4.1055 0.508,7.9532 1.535,11.543 1.023,3.5898 2.582,6.6992 4.668,9.3398 2.086,2.6368 4.711,4.7032 7.855,6.211 3.149,1.4961 6.813,2.2422 10.993,2.2422 4.171,0 7.816,-0.7461 10.929,-2.2422 3.111,-1.5078 5.711,-3.5742 7.801,-6.211 2.09,-2.6406 3.66,-5.75 4.72,-9.3398 1.06,-3.5898 1.59,-7.4375 1.59,-11.543 0,-4.1054 -0.53,-7.9492 -1.59,-11.539 -1.06,-3.5899 -2.63,-6.6992 -4.72,-9.33987 C 1005.66,5.81641 1003.06,3.75 999.949,2.25781 996.836,0.746094 993.191,0 989.02,0" /><path
         id="path38"
         style="fill:#656a6f;fill-opacity:1;fill-rule:nonzero;stroke:none"
         d="m 1028.02,57.3477 c 0.58,0.082 1.15,0.1367 1.7,0.164 0.55,0.043 1.08,0.0547 1.59,0.0547 0.59,0 1.14,-0.0117 1.65,-0.0547 0.51,-0.0273 1.06,-0.082 1.65,-0.164 0.14,-1.3164 0.25,-2.8946 0.33,-4.7149 0.07,-1.8359 0.11,-3.4805 0.11,-4.9492 0.65,1.3867 1.5,2.7461 2.52,4.0664 1.03,1.3164 2.24,2.4844 3.63,3.5195 1.39,1.0196 2.98,1.8477 4.78,2.4727 1.8,0.6133 3.83,0.9258 6.1,0.9258 2.12,0 3.95,-0.2578 5.49,-0.7617 1.54,-0.5157 2.87,-1.2383 4.01,-2.1485 1.13,-0.9101 2.09,-1.9961 2.86,-3.2344 0.77,-1.25 1.48,-2.6367 2.14,-4.1875 0.8,1.1836 1.72,2.3946 2.75,3.6289 1.02,1.254 2.19,2.3672 3.51,3.3594 1.32,0.9766 2.84,1.793 4.56,2.418 1.72,0.6133 3.64,0.9258 5.77,0.9258 6.52,0 11.22,-1.8633 14.12,-5.6016 2.89,-3.7383 4.34,-9.0781 4.34,-16.0391 V 1.31641 c -0.44,-0.06641 -1.05,-0.1211 -1.81,-0.16016 -0.77,-0.04297 -1.38,-0.05469 -1.82,-0.05469 -0.37,0 -0.95,0.01172 -1.75,0.05469 -0.81,0.03906 -1.44,0.09375 -1.87,0.16016 V 34.5 c 0,5.9375 -0.97,10.3281 -2.92,13.1836 -1.93,2.8555 -4.85,4.2812 -8.73,4.2812 -2.34,0 -4.39,-0.4765 -6.15,-1.4257 -1.76,-0.9532 -3.22,-2.2305 -4.4,-3.8477 -1.17,-1.6016 -2.06,-3.4922 -2.69,-5.6562 -0.63,-2.1602 -0.93,-4.4414 -0.93,-6.8633 V 1.31641 c -0.44,-0.06641 -1.05,-0.1211 -1.82,-0.16016 -0.76,-0.04297 -1.37,-0.05469 -1.81,-0.05469 -0.37,0 -0.95,0.01172 -1.75,0.05469 -0.81,0.03906 -1.44,0.09375 -1.87,0.16016 V 35.9258 c 0,5.6406 -0.9,9.8125 -2.69,12.5351 -1.8,2.7032 -4.38,4.0625 -7.75,4.0625 -2.27,0 -4.36,-0.5703 -6.26,-1.7109 -1.91,-1.1289 -3.56,-2.7187 -4.95,-4.7734 -1.39,-2.0508 -2.47,-4.4844 -3.24,-7.3125 -0.77,-2.8125 -1.15,-5.9141 -1.15,-9.2852 V 1.31641 c -0.44,-0.06641 -1.05,-0.1211 -1.82,-0.16016 -0.76,-0.04297 -1.37,-0.05469 -1.81,-0.05469 -0.37,0 -0.95,0.01172 -1.76,0.05469 -0.8,0.03906 -1.43,0.09375 -1.86,0.16016 V 57.3477" /><path
         id="path40"
         style="fill:none;stroke:#5b2175;stroke-width:10.44309998;stroke-linecap:butt;stroke-linejoin:miter;stroke-miterlimit:10;stroke-dasharray:none;stroke-opacity:1"
         d="M 15.8555,126.113 H 1447.03" /><path
         id="path42"
         style="fill:none;stroke:#bcadb9;stroke-width:10.44309998;stroke-linecap:butt;stroke-linejoin:miter;stroke-miterlimit:10;stroke-dasharray:none;stroke-opacity:1"
         d="M 15.8555,135.883 H 1447.03" /><path
         id="path44"
         style="fill:#656a6f;fill-opacity:1;fill-rule:nonzero;stroke:none"
         d="m 1195.78,545.383 c -0.34,3.277 -0.66,7.277 -0.78,12.012 -0.26,4.722 -0.34,8.757 -0.34,12.015 0,2.903 0.08,6.555 0.34,10.906 0.12,4.395 0.44,8.012 0.78,10.93 3.26,0.34 7.28,0.606 11.98,0.817 4.73,0.183 8.75,0.265 12.05,0.265 2.89,0 6.53,-0.082 10.87,-0.265 4.41,-0.211 8.07,-0.477 10.97,-0.817 0.36,-2.918 0.61,-6.535 0.8,-10.93 0.15,-4.351 0.3,-8.003 0.3,-10.906 0,-3.258 -0.15,-7.293 -0.3,-12.015 -0.19,-4.735 -0.44,-8.735 -0.8,-12.012 -2.9,-0.363 -6.56,-0.629 -10.97,-0.797 -4.34,-0.184 -7.98,-0.289 -10.87,-0.289 -3.3,0 -7.32,0.105 -12.05,0.289 -4.7,0.168 -8.72,0.434 -11.98,0.797 z m 18.03,-98.781 h -34.95 c -0.34,1.82 -0.63,3.992 -0.83,6.554 -0.19,2.535 -0.25,5.266 -0.25,8.164 0,2.914 0.06,5.828 0.25,8.743 0.2,2.917 0.49,5.281 0.83,7.097 h 70.96 V 198.797 c -2.2,-0.363 -5.17,-0.621 -8.98,-0.809 -3.84,-0.183 -6.81,-0.277 -9.03,-0.277 -1.85,0 -4.72,0.094 -8.74,0.277 -3.98,0.188 -7.13,0.446 -9.26,0.809 v 247.805" /><path
         id="path46"
         style="fill:#656a6f;fill-opacity:1;fill-rule:nonzero;stroke:none"
         d="m 1318.69,446.602 h -47.46 c -0.39,1.82 -0.66,4.183 -0.79,7.086 -0.21,2.914 -0.3,5.812 -0.3,8.738 0,2.902 0.09,5.629 0.3,8.179 0.13,2.543 0.4,4.739 0.79,6.555 h 47.46 v 52.387 l 33.88,33.328 h 2.12 V 477.16 h 75.41 c 0.27,-1.816 0.59,-4.012 0.76,-6.555 0.19,-2.55 0.3,-5.277 0.3,-8.179 0,-2.926 -0.11,-5.824 -0.3,-8.738 -0.17,-2.903 -0.49,-5.266 -0.76,-7.086 h -75.41 V 265.387 c 0,-9.102 1.24,-16.282 3.6,-21.547 2.38,-5.289 5.47,-9.375 9.3,-12.293 3.79,-2.926 8.15,-4.832 13.07,-5.727 4.91,-0.914 9.87,-1.371 14.98,-1.371 12.77,0 23.86,1.617 33.33,4.906 2.55,-9.46 4.36,-19.644 5.47,-30.558 -13.11,-4.004 -28.41,-6.004 -45.89,-6.004 -20.7,0 -37.54,5.562 -50.43,16.652 -12.94,11.086 -19.43,29.2 -19.43,54.325 v 182.832" /><path
         id="path48"
         style="fill:#5b2175;fill-opacity:1;fill-rule:nonzero;stroke:none"
         d="M 9.76172,474.652 H 76.457 v -43.863 h 1.1719 c 12.2383,26.324 39.1801,50.895 86.0001,50.895 43.309,0 73.101,-16.973 87.746,-52.067 20.473,35.68 50.352,52.067 92.406,52.067 74.891,0 101.215,-53.227 101.215,-120.489 v -167.34 h -70.207 v 159.118 c 0,35.125 -10.512,65.558 -52.035,65.558 -43.926,0 -60.293,-36.308 -60.293,-72.562 V 193.855 h -70.188 v 167.34 c 0,34.5 -14.023,57.336 -47.968,57.336 -46.2034,0 -64.3362,-33.965 -64.3362,-71.414 V 193.855 H 9.76172 v 280.797" /><path
         id="path50"
         style="fill:#5b2175;fill-opacity:1;fill-rule:nonzero;stroke:none"
         d="m 486.754,474.652 h 66.695 v -43.863 h 1.172 c 12.301,26.324 39.223,50.895 86,50.895 43.285,0 73.125,-16.973 87.77,-52.067 20.429,35.68 50.289,52.067 92.425,52.067 74.868,0 101.215,-53.227 101.215,-120.489 v -167.34 h -70.23 v 159.118 c 0,35.125 -10.574,65.558 -52.098,65.558 -43.816,0 -60.25,-36.308 -60.25,-72.562 V 193.855 h -70.168 v 167.34 c 0,34.5 -14.023,57.336 -47.988,57.336 -46.227,0 -64.336,-33.965 -64.336,-71.414 V 193.855 h -70.207 v 280.797" /><path
         id="path52"
         style="fill:#5b2175;fill-opacity:1;fill-rule:nonzero;stroke:none"
         d="m 963.766,474.652 h 70.164 v -44.449 h 1.22 c 15.17,32.18 46.18,51.481 83.06,51.481 8.75,0 16.96,-1.754 25.16,-4.086 v -67.856 c -11.75,2.926 -22.84,5.278 -33.97,5.278 -66.1,0 -75.47,-55.598 -75.47,-70.817 V 193.855 h -70.164 v 280.797" /><path
         id="path60"
         style="fill:url(#linearGradient58);fill-opacity:1;fill-rule:evenodd;stroke:none"
         d="m 716.086,777.367 c 92.363,-0.629 149.059,-36.926 195.051,-83.957 3.703,-3.652 12.64,-12.633 12.64,-12.633 21.09,-21.601 40.543,-44.859 58.059,-70.058 -8.277,60.719 -35.141,102.91 -68.188,138.894 0,0 -4.32,4.758 -7.578,7.543 -52.246,46.047 -108.644,87.887 -201.371,93.442 -9.234,0 -18.492,0 -27.773,0 -44.625,-2.5 -85.403,-14.578 -116.793,-32.817 -30.731,-17.91 -55.91,-42.16 -83.938,-63.785 -27.238,-20.992 -57.652,-41.656 -90.277,-58.055 -20.152,-10.152 -41.199,-19.367 -62.824,-25.847 -22.028,-6.574 -44.797,-9.981 -67.739,-10.246 -13.199,-0.149 -26.582,0.254 -39.695,1.488 -11.703,1.066 -23.32,2.605 -34.812,4.949 -14.922,3.074 -29.864,6.117 -44.375,10.653 -16.09,5.062 -32.094,11.308 -47.3089,18.609 -16.2383,7.812 -31.5,17.758 -45.7149,28.859 -15.2383,11.821 -27.7539,25.75 -39.09373,41.285 -1.40625,1.875 -2.85156,3.723 -4.128907,5.672 C -2.625,775.664 21.6133,713.086 67.7539,666.902 c 0,0 6.4258,-6.597 10.1289,-10.097 19.8985,-19.164 44.6722,-35.754 69.5702,-47.555 29.965,-14.184 62.508,-21.656 95.602,-22.293 20.75,-0.383 42.773,0.481 63.269,4.043 27.071,4.684 53.653,12.16 79.02,22.609 23.41,9.664 46.121,21.176 67.699,34.532 11.684,7.195 23.219,14.75 34.496,22.558 29.922,20.594 57.164,44.215 85.895,66.285 29.156,22.43 64.929,41.211 142.652,40.383" /><path
         id="path68"
         style="fill:url(#linearGradient66);fill-opacity:1;fill-rule:evenodd;stroke:none"
         d="m 1367.95,679.852 c 1.81,-1.981 3.64,-4.012 5.45,-6.012 17.88,-20.035 35.03,-41.129 50.87,-62.813 0.83,21.95 -9.31,44.586 -18.31,64.164 -25,54.418 -66.89,98.641 -117.88,129.809 -14.02,8.621 -28.94,16.324 -44.07,22.965 -13.58,5.969 -27.71,10.875 -42.12,14.672 -16.03,4.234 -32.6,6.629 -49.2,7.351 -35.42,1.543 -73.19,-1.093 -106.97,-12.461 -29.92,-10.086 -56.65,-27.3 -81.443,-46.55 -3.339,-2.567 -38.519,-32.008 -38.629,-31.914 16.985,-17.071 31.52,-36.68 43.586,-58.727 3.325,2.789 25.582,20.992 33.396,27.027 11.77,9.035 23.58,18.047 36.22,25.797 28.71,17.543 60.23,26.344 93.83,26.953 43.65,0.817 91.26,-6.172 131.54,-23.168 40.38,-17.015 74.26,-45.129 103.73,-77.093" /><path
         id="path76"
         style="fill:url(#linearGradient74);fill-opacity:1;fill-rule:evenodd;stroke:none"
         d="m 919.309,660.594 c 0.492,-0.492 -69.848,-42.629 -76.489,-45.801 -29.558,-14.035 -61.121,-24.625 -93.832,-27.281 -69.441,-5.676 -132.265,15.574 -187.558,56.777 -3.278,2.469 -37.817,31.52 -37.903,31.445 23.711,19.356 37.969,30.645 58.059,46.715 0,0 20.793,-17.594 49.992,-36.457 18.707,-12.058 41.156,-20.015 63.078,-23.89 48.567,-8.567 97.641,6.543 139.012,31.625 2.832,1.722 28.391,18.187 30.094,19.25 0,0 29.797,-24.547 55.547,-52.383" /></g></g></svg>