<svg xmlns="http://www.w3.org/2000/svg" height="151.187" width="945.413"><defs><clipPath id="a"><path d="M847.801 430.359L735.02 525.703H395.59l292.004-246.859c-37.125-15.567-77.887-24.192-120.664-24.192-172.465 0-312.278 139.813-312.278 312.282 0 172.461 139.813 312.273 312.278 312.273 172.465 0 312.277-139.812 312.277-312.273 0-48.985-11.305-95.317-31.406-136.575zM1077.4 236.254l-31.8 26.891c59.89 94.191 92.68 206.964 87.78 326.953-12.8 312.836-276.775 556.072-589.614 543.282C230.926 1120.59-12.312 856.605.484 543.766 13.274 230.926 277.254-12.309 590.094.48 703.66 5.13 808.035 42.898 894.336 104.06l32.508-27.48c59.332 43.632 110.386 97.776 150.556 159.675z"/></clipPath><linearGradient id="b" gradientTransform="scale(7173.33 -7173.33) rotate(-40 -.02 -.027)" gradientUnits="userSpaceOnUse" x2="1"><stop offset="0" stop-color="#1d1f57"/><stop offset=".35" stop-color="#1d1f57"/><stop offset=".65" stop-color="#622189"/><stop offset="1" stop-color="#622189"/></linearGradient><clipPath id="c"><path d="M2883.83 1105.68h-277.79V28.512h277.79z"/></clipPath><linearGradient id="d" gradientTransform="scale(14881.23 -14881.23) rotate(-40 .235 .262)" gradientUnits="userSpaceOnUse" x2="1"><stop offset="0" stop-color="#1d1f57"/><stop offset=".35" stop-color="#1d1f57"/><stop offset=".65" stop-color="#622189"/><stop offset="1" stop-color="#622189"/></linearGradient><clipPath id="e"><path d="M2481.31 1105.68h-277.79V28.512h277.79z"/></clipPath><linearGradient id="f" gradientTransform="scale(14881.23 -14881.23) rotate(-40 .193 .223)" gradientUnits="userSpaceOnUse" x2="1"><stop offset="0" stop-color="#1d1f57"/><stop offset=".35" stop-color="#1d1f57"/><stop offset=".65" stop-color="#622189"/><stop offset="1" stop-color="#622189"/></linearGradient><clipPath id="g"><path d="M1207.93 306.305c-44.46-109.242-115.97-204.535-206.3-277.586v-.207H2078.8v277.793z"/></clipPath><linearGradient id="h" gradientTransform="scale(6506.31 -6506.31) rotate(-40 .205 -.048)" gradientUnits="userSpaceOnUse" x2="1"><stop offset="0" stop-color="#1d1f57"/><stop offset=".35" stop-color="#1d1f57"/><stop offset=".65" stop-color="#622189"/><stop offset="1" stop-color="#622189"/></linearGradient><clipPath id="i"><path d="M1001.63 1105.68v-.54c90.24-72.98 161.7-168.156 206.17-277.261h871v277.801z"/></clipPath><linearGradient id="j" gradientTransform="scale(5696.8 -5696.8) rotate(-40 .012 -.153)" gradientUnits="userSpaceOnUse" x2="1"><stop offset="0" stop-color="#1d1f57"/><stop offset=".35" stop-color="#1d1f57"/><stop offset=".65" stop-color="#622189"/><stop offset="1" stop-color="#622189"/></linearGradient><clipPath id="k"><path d="M1244.89 705.969c9.16-44.918 13.98-91.414 13.98-139.039 0-47.524-4.81-93.926-13.93-138.754h833.86v277.793z"/></clipPath><linearGradient id="l" gradientTransform="scale(6769.62 -6769.62) rotate(-40 .128 -.05)" gradientUnits="userSpaceOnUse" x2="1"><stop offset="0" stop-color="#1d1f57"/><stop offset=".35" stop-color="#1d1f57"/><stop offset=".65" stop-color="#622189"/><stop offset="1" stop-color="#622189"/></linearGradient><clipPath id="m"><path d="M6629.7 306.391v80.539h-265.85v144.66h260.38v80.539h-260.38v135.273h265.85v80.539h-357.34v-521.55zm-700.48 275.242h-125.11v165.769h125.11c51.61 0 89.14-32.839 89.14-82.882 0-50.047-37.53-82.887-89.14-82.887zm186.89-275.242l-127.46 204.871c62.55 10.16 123.55 60.203 123.55 153.258 0 96.175-67.26 163.421-170.47 163.421h-229.11v-521.55h91.49v194.703h90.7l115.73-194.703zm-711.59 0v441.011h157.95v80.539h-407.39v-80.539h157.95V306.391zm-399.6 0v521.55h-91.48V465.906L4646.8 827.941h-93.83v-521.55h91.49v372.203l272.11-372.203zm-612.11 0v80.539h-265.86v144.66h260.38v80.539h-260.38v135.273h265.86v80.539h-357.35v-521.55zm-709.58-9.383c105.56 0 169.68 54.734 209.56 117.293l-78.2 39.875c-25.02-43.785-75.06-75.844-131.36-75.844-103.22 0-179.84 78.977-179.84 188.445 0 109.469 76.62 188.446 179.84 188.446 56.3 0 106.34-32.84 131.36-75.852l78.2 39.887c-39.1 62.551-104 117.289-209.56 117.289-154.04 0-273.68-109.477-273.68-269.77 0-160.297 119.64-269.769 273.68-269.769zM7090.57 28.59H3008.68v1077.16h4081.89z"/></clipPath><linearGradient id="n" gradientTransform="scale(6527.5 -6527.5) rotate(-40 .62 -.135)" gradientUnits="userSpaceOnUse" x2="1"><stop offset="0" stop-color="#1d1f57"/><stop offset=".35" stop-color="#1d1f57"/><stop offset=".65" stop-color="#622189"/><stop offset="1" stop-color="#622189"/></linearGradient></defs><g clip-path="url(#a)" transform="matrix(.13333 0 0 -.13333 0 151.187)"><path d="M847.801 430.359L735.02 525.703H395.59l292.004-246.859c-37.125-15.567-77.887-24.192-120.664-24.192-172.465 0-312.278 139.813-312.278 312.282 0 172.461 139.813 312.273 312.278 312.273 172.465 0 312.277-139.812 312.277-312.273 0-48.985-11.305-95.317-31.406-136.575zM1077.4 236.254l-31.8 26.891c59.89 94.191 92.68 206.964 87.78 326.953-12.8 312.836-276.775 556.072-589.614 543.282C230.926 1120.59-12.312 856.605.484 543.766 13.274 230.926 277.254-12.309 590.094.48 703.66 5.13 808.035 42.898 894.336 104.06l32.508-27.48c59.332 43.632 110.386 97.776 150.556 159.675" fill="url(#b)"/></g><g clip-path="url(#c)" transform="matrix(.13333 0 0 -.13333 0 151.187)"><path d="M2883.83 1105.68h-277.79V28.512h277.79V1105.68" fill="url(#d)"/></g><g clip-path="url(#e)" transform="matrix(.13333 0 0 -.13333 0 151.187)"><path d="M2481.31 1105.68h-277.79V28.512h277.79V1105.68" fill="url(#f)"/></g><g clip-path="url(#g)" transform="matrix(.13333 0 0 -.13333 0 151.187)"><path d="M1207.93 306.305c-44.46-109.242-115.97-204.535-206.3-277.586v-.207H2078.8v277.793h-870.87" fill="url(#h)"/></g><g clip-path="url(#i)" transform="matrix(.13333 0 0 -.13333 0 151.187)"><path d="M1001.63 1105.68v-.54c90.24-72.98 161.7-168.156 206.17-277.261h871v277.801H1001.63" fill="url(#j)"/></g><g clip-path="url(#k)" transform="matrix(.13333 0 0 -.13333 0 151.187)"><path d="M1244.89 705.969c9.16-44.918 13.98-91.414 13.98-139.039 0-47.524-4.81-93.926-13.93-138.754h833.86v277.793h-833.91" fill="url(#l)"/></g><g clip-path="url(#m)" transform="matrix(.13333 0 0 -.13333 0 151.187)"><path d="M6629.7 306.391v80.539h-265.85v144.66h260.38v80.539h-260.38v135.273h265.85v80.539h-357.34v-521.55zm-700.48 275.242h-125.11v165.769h125.11c51.61 0 89.14-32.839 89.14-82.882 0-50.047-37.53-82.887-89.14-82.887zm186.89-275.242l-127.46 204.871c62.55 10.16 123.55 60.203 123.55 153.258 0 96.175-67.26 163.421-170.47 163.421h-229.11v-521.55h91.49v194.703h90.7l115.73-194.703zm-711.59 0v441.011h157.95v80.539h-407.39v-80.539h157.95V306.391zm-399.6 0v521.55h-91.48V465.906L4646.8 827.941h-93.83v-521.55h91.49v372.203l272.11-372.203zm-612.11 0v80.539h-265.86v144.66h260.38v80.539h-260.38v135.273h265.86v80.539h-357.35v-521.55zm-709.58-9.383c105.56 0 169.68 54.734 209.56 117.293l-78.2 39.875c-25.02-43.785-75.06-75.844-131.36-75.844-103.22 0-179.84 78.977-179.84 188.445 0 109.469 76.62 188.446 179.84 188.446 56.3 0 106.34-32.84 131.36-75.852l78.2 39.887c-39.1 62.551-104 117.289-209.56 117.289-154.04 0-273.68-109.477-273.68-269.77 0-160.297 119.64-269.769 273.68-269.769zM7090.57 28.59H3008.68v1077.16h4081.89V28.59" fill="url(#n)"/></g></svg>