<?xml version="1.0" encoding="UTF-8" standalone="no"?>
<svg
   xmlns:dc="http://purl.org/dc/elements/1.1/"
   xmlns:cc="http://creativecommons.org/ns#"
   xmlns:rdf="http://www.w3.org/1999/02/22-rdf-syntax-ns#"
   xmlns:svg="http://www.w3.org/2000/svg"
   xmlns="http://www.w3.org/2000/svg"
   xmlns:sodipodi="http://sodipodi.sourceforge.net/DTD/sodipodi-0.dtd"
   xmlns:inkscape="http://www.inkscape.org/namespaces/inkscape"
   viewBox="0 0 389.75492 134.83618"
   height="134.83618"
   width="389.75491"
   xml:space="preserve"
   id="svg2"
   version="1.1"
   inkscape:version="0.91 r13725"
   sodipodi:docname="ricoh.svg"><sodipodi:namedview
     pagecolor="#ffffff"
     bordercolor="#666666"
     borderopacity="1"
     objecttolerance="10"
     gridtolerance="10"
     guidetolerance="10"
     inkscape:pageopacity="0"
     inkscape:pageshadow="2"
     inkscape:window-width="640"
     inkscape:window-height="480"
     id="namedview27"
     showgrid="false"
     fit-margin-top="0"
     fit-margin-left="0"
     fit-margin-right="0"
     fit-margin-bottom="0"
     inkscape:zoom="0.68026216"
     inkscape:cx="188.95493"
     inkscape:cy="72.53886"
     inkscape:window-x="148"
     inkscape:window-y="5"
     inkscape:window-maximized="0"
     inkscape:current-layer="svg2" /><metadata
     id="metadata8"><rdf:RDF><cc:Work
         rdf:about=""><dc:format>image/svg+xml</dc:format><dc:type
           rdf:resource="http://purl.org/dc/dcmitype/StillImage" /><dc:title></dc:title></cc:Work></rdf:RDF></metadata><defs
     id="defs6" /><g
     transform="matrix(1.3333333,0,0,-1.3333333,-38.898399,161.77066)"
     id="g10"><g
       transform="scale(0.1,0.1)"
       id="g12"><path
         id="path14"
         style="fill:#da1745;fill-opacity:1;fill-rule:nonzero;stroke:none"
         d="m 1394.76,957.5 c 0,-99.656 73.78,-173.23 197.15,-173.23 52.08,0 101.06,8.152 151.82,31.835 l 46.26,-62.902 c -63.95,-33.734 -125.33,-51.488 -219.67,-51.488 -196.8,0 -341.45,94.801 -341.45,255.719 l 0,0.066 c 0,160.91 144.65,255.63 341.45,255.63 94.34,0 148.64,-13.74 215.02,-42.24 l -47.31,-72.4 c -50.32,26.72 -94.04,32.21 -146.12,32.21 -123.37,0 -197.15,-73.47 -197.15,-173.13"
         inkscape:connector-curvature="0" /><path
         id="path16"
         style="fill:#da1745;fill-opacity:1;fill-rule:nonzero;stroke:none"
         d="m 2145.62,781.301 c -104.78,0 -162.63,78.738 -162.63,176.269 0,97.47 57.85,176.26 162.63,176.26 104.8,0 162.74,-78.79 162.74,-176.26 0,-97.531 -57.94,-176.269 -162.74,-176.269 m 0,431.979 c -190.52,0 -327.92,-94.87 -327.92,-255.78 0,-160.984 137.4,-255.785 327.92,-255.785 190.59,0 328.02,94.801 328.02,255.785 0,160.91 -137.43,255.78 -328.02,255.78"
         inkscape:connector-curvature="0" /><path
         id="path18"
         style="fill:#da1745;fill-opacity:1;fill-rule:nonzero;stroke:none"
         d="m 2968.93,920.48 0,-205.816 157.46,0 0,485.776 -157.46,0 0,-185.3 -240.68,0 0,185.3 -157.1,0 0,-485.776 157.1,0 0,205.816 240.68,0"
         inkscape:connector-curvature="0" /><path
         id="path20"
         style="fill:#da1745;fill-opacity:1;fill-rule:nonzero;stroke:none"
         d="m 1133.95,1200.43 -165.825,0 0,-485.766 165.825,0 0,485.766"
         inkscape:connector-curvature="0" /><path
         id="path22"
         style="fill:#da1745;fill-opacity:1;fill-rule:nonzero;stroke:none"
         d="m 492.539,978.047 0,-46.434 C 570.461,871.309 649.922,791.086 708.223,714.664 l 185.625,0 C 829.27,790.52 730.203,880.656 657.219,926.055 c 85.679,3.496 181.109,38.203 181.109,136.535 0,126.08 -134.82,149.26 -271.101,149.26 -111.329,0 -213.907,-5.12 -275.489,-10.19 l 0,-486.996 154.883,0 0,413.666 c 28.524,3.07 59.375,6.53 121.317,6.53 79.73,0 120.089,-26.35 120.089,-72.27 0,-39.27 -16.711,-86.27 -195.488,-84.543"
         inkscape:connector-curvature="0" /><path
         id="path24"
         style="fill:#656263;fill-opacity:1;fill-rule:nonzero;stroke:none"
         d="m 304.246,489.738 39.609,0 0,-198.019 -39.609,0 z m 0,79.203 39.609,0 0,-38.437 -39.609,0 0,38.437"
         inkscape:connector-curvature="0" /><path
         id="path26"
         style="fill:#656263;fill-opacity:1;fill-rule:nonzero;stroke:none"
         d="m 640.32,291.719 0,127.121 c 0,24.14 -7.515,43.949 -35.254,43.949 -32.468,0 -43.945,-32.66 -43.945,-63.16 l 0,-107.91 -39.605,0 0,127.121 c 0,24.14 -7.532,43.949 -35.227,43.949 -32.512,0 -44.375,-32.66 -44.375,-63.16 l 0,-107.91 -39.609,0 0,152.48 c 0,15.051 -0.403,30.461 -1.953,45.539 l 37.214,0 1.196,-34.058 c 13.054,25.308 33.648,38.008 60.554,38.008 31.297,0 51.875,-18.618 57.84,-40.387 9.492,24.57 35.254,40.387 60.625,40.387 43.117,0 62.524,-29.317 62.524,-70.098 l 0,-131.871 -39.985,0"
         inkscape:connector-curvature="0" /><path
         id="path28"
         style="fill:#656263;fill-opacity:1;fill-rule:nonzero;stroke:none"
         d="m 2389.16,316.719 c 29.06,6.89 37.64,36.23 36.4,72.051 0,0 -89.93,7.242 -87.51,-42.598 1.42,-29.242 29.58,-34.613 51.11,-29.453 m 38.79,-25 -1.2,31.301 c -28.34,-52.911 -127.89,-47.321 -127.89,20.98 0,51.469 49.26,72.602 126.7,68.93 0.02,0.269 4.24,37.218 -21.25,48.629 -16.63,7.421 -52.13,6.312 -82.11,-11.411 l -2.38,30.473 c 46.02,19.004 144.56,30.938 144.56,-60.781 l 0,-84.141 c 0,-17.051 0.79,-30.488 2.36,-43.98 l -38.79,0"
         inkscape:connector-curvature="0" /><path
         id="path30"
         style="fill:#656263;fill-opacity:1;fill-rule:nonzero;stroke:none"
         d="m 810.273,316.719 c 29.063,6.89 37.637,36.23 36.399,72.051 0,0 -89.934,7.242 -87.524,-42.598 1.418,-29.242 29.563,-34.613 51.125,-29.453 m 38.79,-25 -1.204,31.301 C 819.52,270.109 719.973,275.699 719.973,344 c 0,51.469 49.226,72.602 126.699,68.93 0.008,0.269 4.246,37.218 -21.262,48.629 -16.633,7.421 -52.117,6.312 -82.097,-11.411 l -2.383,30.473 c 46.004,19.004 144.566,30.938 144.566,-60.781 l 0,-84.141 c 0,-17.051 0.774,-30.488 2.356,-43.98 l -38.789,0"
         inkscape:connector-curvature="0" /><path
         id="path32"
         style="fill:#656263;fill-opacity:1;fill-rule:nonzero;stroke:none"
         d="m 2820.46,463.199 c -40.78,0 -49.89,-38.789 -49.89,-72.07 0,-30.859 9.51,-68.91 49.5,-68.91 38.41,0 50.69,38.851 50.69,68.91 0,31.66 -11.91,72.07 -50.3,72.07 m -76.83,-250.64 2.41,33.652 c 17.39,-9.102 38.4,-14.57 58.97,-14.262 68.5,1.071 64.55,57.91 64.55,94.242 0,0 -19.79,-34.281 -61.38,-34.472 -57.83,-0.18 -80.4,50.332 -80.4,99.781 0,52.68 22.57,102.188 81.2,102.188 27.31,0 49.5,-11.899 62.17,-36.817 l 0,32.867 38.02,0 0,-186.91 c 0,-110.269 -98.08,-111.148 -165.54,-90.269"
         inkscape:connector-curvature="0" /><path
         id="path34"
         style="fill:#656263;fill-opacity:1;fill-rule:nonzero;stroke:none"
         d="m 1020.16,463.199 c -40.797,0 -49.918,-38.789 -49.918,-72.07 0,-30.859 9.516,-68.91 49.528,-68.91 38.4,0 50.68,38.851 50.68,68.91 0,31.66 -11.9,72.07 -50.29,72.07 m -76.84,-250.64 2.383,33.652 c 17.434,-9.102 38.406,-14.57 58.987,-14.262 68.53,1.071 64.55,57.91 64.55,94.242 0,0 -19.78,-34.281 -61.36,-34.472 -57.821,-0.18 -80.4,50.332 -80.4,99.781 0,52.68 22.579,102.188 81.19,102.188 27.31,0 49.5,-11.899 62.19,-36.817 l 0,32.867 37.97,0 0,-186.91 c 0,-110.269 -98.06,-111.148 -165.51,-90.269"
         inkscape:connector-curvature="0" /><path
         id="path36"
         style="fill:#656263;fill-opacity:1;fill-rule:nonzero;stroke:none"
         d="m 1167.39,489.738 39.57,0 0,-198.019 -39.57,0 z m 0,79.203 39.57,0 0,-38.437 -39.57,0 0,38.437"
         inkscape:connector-curvature="0" /><path
         id="path38"
         style="fill:#656263;fill-opacity:1;fill-rule:nonzero;stroke:none"
         d="m 3041.46,466.379 c -33.7,0 -49.53,-36.051 -49.53,-61.399 l 93.88,0 c 0,28.141 -10.7,61.399 -44.35,61.399 m -49.13,-85.93 c 2.31,-69.179 63.89,-77.89 118.79,-51.469 l 2.4,-30.898 c -79.56,-25.781 -161.97,-10.582 -161.97,93.438 0,54.261 34.47,102.168 89.49,102.168 93.33,0 82.76,-113.239 82.76,-113.239 l -131.47,0"
         inkscape:connector-curvature="0" /><path
         id="path40"
         style="fill:#656263;fill-opacity:1;fill-rule:nonzero;stroke:none"
         d="m 1565.97,466.379 c -33.67,0 -49.47,-36.051 -49.47,-61.399 l 93.83,0 c 0,28.141 -10.66,61.399 -44.36,61.399 m -49.1,-85.93 c 2.3,-69.179 63.89,-77.89 118.82,-51.469 l 2.38,-30.898 c -79.58,-25.781 -161.99,-10.582 -161.99,93.438 0,54.261 34.49,102.168 89.5,102.168 93.32,0 82.77,-113.239 82.77,-113.239 l -131.48,0"
         inkscape:connector-curvature="0" /><path
         id="path42"
         style="fill:#656263;fill-opacity:1;fill-rule:nonzero;stroke:none"
         d="m 1697.09,332.531 42.37,0 0,-40.812 -42.37,0 0,40.812"
         inkscape:connector-curvature="0" /><path
         id="path44"
         style="fill:#656263;fill-opacity:1;fill-rule:nonzero;stroke:none"
         d="m 1879.34,391.52 c 0,90.058 86.84,119.082 162.45,93.871 l -2.38,-31.661 c -49.5,23.141 -117.32,8.711 -117.32,-62.21 0,-68.649 64.66,-88.379 117.74,-64.942 l 1.96,-31.289 c -62.68,-21.41 -162.45,-5.019 -162.45,96.231"
         inkscape:connector-curvature="0" /><path
         id="path46"
         style="fill:#656263;fill-opacity:1;fill-rule:nonzero;stroke:none"
         d="m 2191,493.688 c -27.71,0 -49.1,-12.29 -61.38,-36.817 l 0,112.07 -39.58,0 0,-277.211 39.58,0 0,103.7 c 0,30.879 11.88,67.359 48.32,67.359 34.02,0 39.22,-26 39.22,-54.238 l 0,-116.821 39.95,0 0,125.141 c 0,45.16 -18.58,76.817 -66.11,76.817"
         inkscape:connector-curvature="0" /><path
         id="path48"
         style="fill:#656263;fill-opacity:1;fill-rule:nonzero;stroke:none"
         d="m 2645.4,291.719 0,116.832 c 0,27.719 -5.15,54.238 -39.24,54.238 -36.79,0 -48.27,-33.559 -48.27,-64.809 l 0,-106.261 -39.62,0 0,152.48 c 0,15.051 -0.4,30.461 -1.99,45.539 l 37.22,0 1.2,-34.058 c 13.49,24.961 35.63,38.008 64.17,38.008 49.09,0 66.54,-31.29 66.54,-76.817 l 0,-125.152 -40.01,0"
         inkscape:connector-curvature="0" /><path
         id="path50"
         style="fill:#656263;fill-opacity:1;fill-rule:nonzero;stroke:none"
         d="m 1393.7,291.719 0,116.832 c 0,27.719 -5.15,54.238 -39.22,54.238 -36.8,0 -48.29,-33.559 -48.29,-64.809 l 0,-106.261 -39.61,0 0,152.48 c 0,15.051 -0.41,30.461 -2,45.539 l 37.25,0 1.17,-34.058 c 13.49,24.961 35.66,38.008 64.17,38.008 49.1,0 66.51,-31.29 66.51,-76.817 l 0,-125.152 -39.98,0"
         inkscape:connector-curvature="0" /><path
         id="path52"
         style="fill:#656263;fill-opacity:1;fill-rule:nonzero;stroke:none"
         d="m 3172.55,332.539 42.35,0 0,-40.82 -42.35,0 0,40.82"
         inkscape:connector-curvature="0" /></g></g></svg>