<svg xmlns="http://www.w3.org/2000/svg" viewBox="0 0 389.75492 134.83618" height="134.836" width="389.755"><path d="M147.07 34.104c0 13.287 9.837 23.097 26.286 23.097 6.944 0 13.475-1.087 20.243-4.244l6.168 8.387c-8.527 4.497-16.71 6.865-29.29 6.865-26.24 0-45.526-12.64-45.526-34.096v-.009C124.95 12.649 144.238.02 170.478.02c12.578 0 19.818 1.832 28.669 5.632l-6.308 9.653c-6.71-3.562-12.539-4.294-19.483-4.294-16.45 0-26.286 9.796-26.286 23.084M247.184 57.597c-13.97 0-21.684-10.498-21.684-23.502 0-12.996 7.714-23.502 21.684-23.502 13.974 0 21.699 10.506 21.699 23.502 0 13.004-7.725 23.502-21.699 23.502m0-57.597c-25.402 0-43.722 12.65-43.722 34.104 0 21.465 18.32 34.105 43.722 34.105 25.412 0 43.736-12.64 43.736-34.105C290.92 12.649 272.596 0 247.184 0M356.959 39.04v27.442h20.995V1.712h-20.995v24.707h-32.09V1.712h-20.947v64.77h20.946V39.04h32.09M112.295 1.713h-22.11v64.77h22.11V1.712M26.773 31.364v6.192c10.39 8.04 20.985 18.737 28.758 28.926h24.75c-8.61-10.114-21.819-22.132-31.55-28.185 11.424-.466 24.148-5.094 24.148-18.205C72.879 3.282 54.903.191 36.732.191 21.888.19 8.21.873 0 1.549v64.933h20.651V11.327c3.803-.41 7.917-.871 16.176-.871 10.63 0 16.012 3.513 16.012 9.636 0 5.236-2.229 11.503-26.066 11.272" fill="#da1745"/><path d="M1.668 96.472h5.28v26.403h-5.28zm0-10.56h5.28v5.125h-5.28v-5.125M46.478 122.875v-16.95c0-3.218-1.002-5.86-4.7-5.86-4.33 0-5.86 4.355-5.86 8.422v14.388h-5.28v-16.95c0-3.218-1.005-5.86-4.698-5.86-4.335 0-5.917 4.355-5.917 8.422v14.388h-5.28v-20.33c0-2.008-.054-4.062-.261-6.073h4.962l.16 4.541c1.74-3.374 4.486-5.067 8.073-5.067 4.173 0 6.917 2.482 7.712 5.385 1.266-3.276 4.7-5.385 8.083-5.385 5.75 0 8.337 3.909 8.337 9.346v17.583h-5.331M279.656 119.541c3.875-.918 5.019-4.83 4.854-9.606 0 0-11.991-.966-11.668 5.68.189 3.898 3.944 4.614 6.814 3.926m5.172 3.334l-.16-4.174c-3.778 7.055-17.052 6.31-17.052-2.797 0-6.863 6.568-9.68 16.894-9.19.002-.037.565-4.963-2.834-6.485-2.217-.989-6.95-.841-10.948 1.522l-.317-4.063c6.136-2.534 19.275-4.125 19.275 8.104v11.219c0 2.273.105 4.065.314 5.864h-5.172M69.138 119.541c3.875-.918 5.018-4.83 4.853-9.606 0 0-11.991-.966-11.67 5.68.19 3.898 3.942 4.614 6.817 3.926m5.172 3.334l-.16-4.174c-3.78 7.055-17.052 6.31-17.052-2.797 0-6.863 6.563-9.68 16.893-9.19.001-.037.566-4.963-2.835-6.485-2.217-.989-6.949-.841-10.946 1.522l-.318-4.063c6.134-2.534 19.276-4.125 19.276 8.104v11.219c0 2.273.103 4.065.314 5.864H74.31M337.163 100.01c-5.437 0-6.652 5.173-6.652 9.61 0 4.115 1.268 9.188 6.6 9.188 5.121 0 6.759-5.18 6.759-9.188 0-4.221-1.588-9.61-6.707-9.61m-10.244 33.42l.321-4.487c2.319 1.213 5.12 1.942 7.863 1.901 9.133-.143 8.607-7.721 8.607-12.565 0 0-2.64 4.57-8.184 4.596-7.711.024-10.72-6.711-10.72-13.304 0-7.024 3.009-13.625 10.826-13.625 3.642 0 6.6 1.586 8.29 4.909v-4.383h5.069v24.922c0 14.702-13.077 14.82-22.072 12.035M97.123 100.01c-5.44 0-6.656 5.173-6.656 9.61 0 4.115 1.269 9.188 6.604 9.188 5.12 0 6.757-5.18 6.757-9.188 0-4.221-1.586-9.61-6.705-9.61m-10.245 33.42l.317-4.487c2.325 1.213 5.121 1.942 7.865 1.901 9.138-.143 8.607-7.721 8.607-12.565 0 0-2.637 4.57-8.181 4.596-7.71.024-10.72-6.711-10.72-13.304 0-7.024 3.01-13.625 10.825-13.625 3.641 0 6.6 1.586 8.292 4.909v-4.383h5.063v24.922c0 14.702-13.075 14.82-22.068 12.035M116.754 96.472h5.276v26.403h-5.276zm0-10.56h5.276v5.125h-5.276v-5.125M366.63 99.587c-4.494 0-6.604 4.807-6.604 8.186h12.517c0-3.752-1.427-8.186-5.913-8.186m-6.551 11.457c.308 9.224 8.519 10.385 15.839 6.863l.32 4.12c-10.608 3.437-21.596 1.41-21.596-12.459 0-7.235 4.596-13.622 11.932-13.622 12.444 0 11.034 15.098 11.034 15.098h-17.53M169.898 99.587c-4.49 0-6.596 4.807-6.596 8.186h12.51c0-3.752-1.421-8.186-5.914-8.186m-6.547 11.457c.307 9.224 8.519 10.385 15.843 6.863l.317 4.12c-10.61 3.437-21.599 1.41-21.599-12.459 0-7.235 4.599-13.622 11.934-13.622 12.442 0 11.036 15.098 11.036 15.098H163.35M187.38 117.433h5.65v5.442h-5.65v-5.442M211.68 109.568c0-12.008 11.579-15.878 21.66-12.516l-.317 4.221c-6.6-3.085-15.643-1.161-15.643 8.295 0 9.153 8.622 11.784 15.699 8.659l.261 4.172c-8.357 2.854-21.66.669-21.66-12.831M253.235 95.946c-3.695 0-6.547 1.638-8.184 4.909V85.912h-5.277v36.961h5.277v-13.826c0-4.118 1.584-8.982 6.443-8.982 4.536 0 5.229 3.467 5.229 7.232v15.576h5.327v-16.685c0-6.021-2.478-10.242-8.815-10.242M313.822 122.875v-15.578c0-3.696-.687-7.232-5.232-7.232-4.906 0-6.436 4.475-6.436 8.642v14.168h-5.283v-20.33c0-2.008-.053-4.062-.265-6.073h4.962l.16 4.541c1.799-3.328 4.75-5.067 8.556-5.067 6.546 0 8.872 4.172 8.872 10.242v16.687h-5.334M146.928 122.875v-15.578c0-3.696-.686-7.232-5.23-7.232-4.906 0-6.438 4.475-6.438 8.642v14.168h-5.281v-20.33c0-2.008-.055-4.062-.267-6.073h4.967l.156 4.541c1.799-3.328 4.755-5.067 8.556-5.067 6.547 0 8.868 4.172 8.868 10.242v16.687h-5.33M384.108 117.432h5.647v5.443h-5.647v-5.443" fill="#656263"/></svg>