<svg xmlns="http://www.w3.org/2000/svg" height="121.227" width="435.093"><path d="M356.604 20.103l.199.338.728 1.26 1.512-.792c.14-.07.221-.247.246-.468.031-.68-.461-1.605-1.18-1.174-.557.291-.897.494-1.505.836m-1.577.338l-.399-.716c1.047-.664 2.175-1.24 3.259-1.821 1.28-.705 3.085 1.003 2.957 2.537a1.592 1.592 0 01-.259.766l2.616 1.904c-.493.23-.866.428-1.454.683l-2.291-1.674-1.265.677 1.348 2.225c-.52.332-.839.536-1.446.892zm34.577 71.739l2.383 6.8c.462-.161.961-.302 1.43-.506l-2.309-6.77c-.636.214-.927.301-1.504.476m-9.524 6.42l-.559-1.376-.564-1.49-.489 1.49-.481 1.466zm.943-1.376l1.557 3.779c-.51.022-.984.073-1.44.126l-.48-1.222-3.115.086-.358 1.279a15.7 15.7 0 00-1.458-.058l1.344-3.99.958-3.029.046-.096 1.59-.072.08.193zm7.82-79.507l1.61.518c.44.127 1.023-.562 1.023-1.164 0-.284-.097-.54-.481-.625-.598-.229-1.003-.331-1.654-.495l-.332 1.12zm-.987 3.76c-.577-.167-1.003-.237-1.637-.42l1.166-3.986.856-2.84c1.232.306 2.404.705 3.576 1.085.664.206 1.019.956 1.087 1.755.044 1.086-.497 2.266-1.592 2.514l.425 3.212c-.513-.214-.893-.374-1.464-.596l-.372-2.81-1.374-.421zm-21.89 72.326c-.043-.2-.125-.363-.371-.476l-1.806-.664-.406 1.14-.146.417-.01.026 1.644.616c.452.2.886-.202 1.042-.642.054-.12.1-.27.054-.417m1.352 0v.392c-.111.96-.762 1.935-1.818 2.058l.246 3.351a9.269 9.269 0 01-1.566-.496l-.057-3.154-1.416-.605-1.148 2.782c-.467-.153-.93-.302-1.384-.524l1.457-3.387.174-.417 1.184-2.792 3.226 1.244c.718.256 1.047.894 1.102 1.548m20.58-1.018c-2.092.46-3.707.841-5.784 1.164l.193 1.206c.768-.12 1.47-.211 2.281-.315l1.05 5.811 1.54-.29-1.251-5.795c.795-.196 1.524-.397 2.313-.583zm7.869-67.984l1.557-2.999 4.198-1.95c-.442-.318-.919-.54-1.362-.83l-2.892 1.317-.534-3.14c-.606-.286-.967-.412-1.598-.668l.843 4.568-1.557 2.962zm15.75 1.832c-.662-.813-1.762-.69-2.078-.125l-4.888 4.911c-.717.746-.648 1.837.096 2.368 7.379 8.167 10.461 18.336 8.04 30.927-.053.824.467 1.487 1.112 1.673l6.757 1.96c.9.256 1.476-.292 1.667-1.063 3.48-15.5-1.281-30.737-10.707-40.651m7.819 45.325l-6.765-2.308c-.352-.133-1.276-.133-1.76 1.057-5.464 13.103-18.182 22.07-32.908 22.07-14.744 0-27.698-9.174-32.926-22.274a1.369 1.369 0 00-1.7-.853l-6.726 2.308c-.731.263-1.17.912-.787 1.845 6.608 16.866 23.043 28.773 42.139 28.773 19.093 0 35.6-11.989 42.23-28.844.344-.882-.07-1.51-.797-1.774m-83.89-3.612l6.749-1.96c.633-.185 1.152-.848 1.102-1.672-2.421-12.57.656-22.76 8.024-30.927.746-.53.824-1.622.112-2.368l-4.906-4.93c-.475-.546-1.343-.546-2.084.212-9.404 9.895-14.154 25.083-10.668 40.61.193.744.781 1.292 1.672 1.035m67.7-31.42c.02-.3-.167-.681-.588-1.095-5.4-5.715-10.95-8.912-18.56-10.722-.428-.11-.923-.212-1.254.08-.34.273-.437.8-.369 1.59l1.255 17.604c.038.667.34 1.198.785 1.464.487.277 1.072.227 1.679-.066l15.854-7.653c.51-.245 1.088-.515 1.198-1.057 0-.033.02-.078 0-.145m3.205 31.468c.472.307 1.019.675 1.513.505.338-.104.627-.472.812-1.137 2.22-7.527 2.22-13.955 0-21.391-.134-.467-.353-.949-.744-1.122-.394-.144-.893.02-1.604.502l-14.544 9.888c-.561.38-.846.896-.846 1.427s.285 1.049.846 1.419zm-23.65 20.463c.267.212.709.272 1.383.102 7.567-1.813 13.115-5.02 18.523-10.692.323-.375.675-.76.57-1.186-.1-.409-.447-.78-1.185-1.127l-15.86-7.696c-.601-.283-1.188-.283-1.668-.03-.466.293-.75.791-.796 1.488l-1.282 17.556c-.011.574-.079 1.232.316 1.585m-4.8-20.336c6.262 0 11.354-5.082 11.354-11.343s-5.092-11.35-11.354-11.376c-6.259 0-11.346 5.115-11.346 11.376 0 6.26 5.087 11.343 11.346 11.343m-24.944 8.854c0 .3.204.676.589 1.074 5.452 5.734 10.973 8.927 18.559 10.706.482.148.958.221 1.294-.042.346-.256.442-.782.383-1.613 0-.026-1.288-17.603-1.288-17.603-.055-.667-.307-1.176-.772-1.444-.476-.277-1.064-.277-1.696.012l-15.817 7.7c-.551.257-1.152.546-1.234 1.064 0 .035-.018.1-.018.146m-.23-40.17c.068.532.67.801 1.198 1.049l15.837 7.691c.627.302 1.213.302 1.69.054.447-.292.735-.798.774-1.473l1.28-17.567c.07-.847-.05-1.346-.353-1.605-.336-.289-.832-.208-1.308-.119-7.59 1.825-13.122 5.032-18.572 10.716-.442.5-.646.917-.546 1.255m-3.178 8.664c-.518-.336-1.068-.718-1.52-.52-.366.112-.636.497-.828 1.121-2.202 7.555-2.202 13.959 0 21.413.149.486.317.969.758 1.091.362.151.895 0 1.59-.479l14.53-9.899c.54-.362.868-.88.868-1.396 0-.564-.328-1.058-.868-1.438zm-.32-21.991l4.696 5.229c.656.705 1.377.619 2.328-.123 5.929-4.654 13.538-7.406 21.648-7.406 8.12 0 15.733 2.742 21.721 7.406.936.69 1.639.828 2.325.123l4.698-5.23c.53-.577.53-1.374-.487-2.227-7.873-6.129-17.592-9.913-28.276-9.913-10.62 0-20.479 3.784-28.21 9.94-1.011.826-.967 1.623-.443 2.2m85.861 33.342c0 .664-.03 1.336-.104 1.869l-.02.144-.153.078c-2.431 1.448-5.568 2.27-8.718 2.357-.076.397-.417 3.243-.478 3.643 2.938.846 5.784 2.45 7.768 4.502l.08.126v.131c-.152 1.119-.551 2.623-.991 3.598l-.048.153-.144.023c-2.753.793-5.996.763-8.997.02-.143.37-1.254 3.015-1.366 3.4 2.63 1.66 4.956 3.947 6.264 6.385l.067.136-.041.142c-.411.97-1.179 2.376-1.867 3.219l-.073.126h-.174c-2.81.034-5.946-.8-8.688-2.328-.248.33-2.077 2.746-2.326 3.072 2.158 2.222 3.794 5.041 4.46 7.82l.042.144-.081.1c-.627.852-1.78 1.978-2.615 2.655l-.1.084-.206-.04c-2.703-.72-5.559-2.356-7.782-4.503-.328.249-2.597 2.02-2.933 2.27 1.452 2.66 2.335 5.718 2.335 8.481v.386l-.171.093c-.835.675-2.225 1.481-3.217 1.887l-.098.042-.165-.056c-2.436-1.415-4.767-3.727-6.36-6.376-.384.17-3.144 1.35-3.521 1.515.377 1.478.601 3.02.645 4.546 0 1.54-.268 3.082-.645 4.474l-.019.137-.15.081c-.922.385-2.478.77-3.563.96l-.168.022-.095-.116c-2.096-1.993-3.699-4.828-4.543-7.79-.373.027-3.232.415-3.634.5-.051 3.106-.903 6.255-2.383 8.697l-.079.13-.168.022c-.992.147-2.582.147-3.664 0l-.134-.022-.096-.13c-1.43-2.442-2.288-5.591-2.358-8.697-.424-.043-3.437-.473-3.853-.5-.825 2.943-2.445 5.764-4.487 7.78l-.106.104-.171-.025c-1.117-.165-2.585-.595-3.57-1.002l-.118-.058-.05-.126c-.418-1.387-.633-2.944-.633-4.487 0-1.512.215-3.022.599-4.5-.384-.165-2.988-1.221-3.364-1.39-1.61 2.695-3.937 5.036-6.392 6.402l-.132.072-.156-.042c-1.017-.455-2.355-1.223-3.223-1.872l-.104-.106v-.293c0-2.798.85-5.879 2.31-8.572-.323-.252-2.754-2.099-3.087-2.347-2.225 2.144-5.06 3.761-7.801 4.463l-.14.046-.148-.1a18.96 18.96 0 01-2.595-2.619l-.09-.148.038-.144c.73-2.763 2.37-5.581 4.503-7.772-.244-.333-2.082-2.715-2.344-3.072-2.71 1.519-5.875 2.396-8.687 2.325h-.15l-.097-.095c-.656-.871-1.442-2.26-1.865-3.245l-.065-.146.065-.131c1.413-2.477 3.727-4.763 6.365-6.347-.17-.406-1.294-3.067-1.486-3.442-3 .746-6.262.77-9.008 0l-.131-.043-.083-.124c-.369-.926-.777-2.483-.945-3.58l-.032-.171.1-.128c1.997-2.035 4.804-3.647 7.805-4.536-.032-.42-.473-3.446-.514-3.866-3.138-.04-6.288-.849-8.74-2.306l-.124-.082-.01-.168c-.069-.51-.088-1.173-.088-1.848 0-.659.019-1.303.088-1.851l.01-.17.124-.067c2.452-1.446 5.602-2.283 8.74-2.33.062-.412.436-3.354.482-3.751-2.969-.852-5.804-2.478-7.816-4.505l-.084-.1.027-.156c.132-1.132.557-2.644.977-3.583l.047-.137.148-.042c2.712-.797 5.99-.775 9.003-.037.166-.367 1.268-3.02 1.433-3.418-2.66-1.61-4.996-3.9-6.384-6.373l-.07-.157.07-.147c.435-.992 1.221-2.337 1.836-3.18l.103-.128h.168c2.844-.04 5.98.83 8.686 2.329.255-.303 2.098-2.8 2.35-3.132-2.146-2.237-3.77-5.04-4.474-7.819l-.03-.118.06-.124c.688-.862 1.825-1.98 2.658-2.637l.135-.083.124.025c2.796.715 5.613 2.377 7.808 4.512.32-.255 2.519-1.947 2.844-2.195-1.512-2.646-2.356-5.729-2.356-8.471v-.411l.14-.097c.823-.644 2.216-1.445 3.212-1.847l.104-.067.165.072c2.45 1.385 4.752 3.701 6.362 6.354.384-.146 3.244-1.385 3.636-1.544-.374-1.477-.607-3.01-.583-4.526 0-1.578.19-3.08.607-4.466l.02-.174.146-.039c.924-.384 2.46-.8 3.542-.964l.174-.023.126.109c2.037 1.982 3.662 4.82 4.52 7.816.418-.043 3.42-.422 3.821-.494.065-3.083.91-6.231 2.381-8.678l.064-.129.154-.042c1.076-.127 2.662-.127 3.701 0l.137.042.088.129c1.48 2.447 2.339 5.595 2.339 8.65.45.1 3.384.479 3.801.522.879-2.995 2.49-5.811 4.542-7.8l.093-.102.136.041c1.12.124 2.632.54 3.604.962l.119.049.048.167c.418 1.373.622 2.87.622 4.424a20.13 20.13 0 01-.622 4.558c.373.153 3.224 1.347 3.62 1.512 1.584-2.653 3.858-4.952 6.332-6.354l.144-.072.148.067c.98.415 2.353 1.203 3.196 1.867l.124.077v.384c0 2.81-.871 5.881-2.34 8.498.316.248 2.673 2.09 3.026 2.361 2.22-2.156 5.042-3.806 7.82-4.488l.124-.068.123.13c.836.62 1.965 1.793 2.604 2.636l.12.124-.05.143c-.709 2.778-2.382 5.599-4.517 7.807.25.339 2.024 2.675 2.295 3.013 2.767-1.487 5.892-2.34 8.725-2.288h.131l.092.125c.688.88 1.477 2.242 1.861 3.18l.094.18-.094.136c-1.408 2.452-3.721 4.724-6.376 6.344.162.404 1.242 3.068 1.448 3.44 2.975-.75 6.248-.765 8.959 0l.16.033.063.156c.378.942.817 2.471.961 3.596l.024.14-.11.11c-1.991 2.063-4.825 3.676-7.807 4.517.061.412.432 3.32.502 3.732 3.136.068 6.263.906 8.694 2.347l.153.09.02.148c.073.53.104 1.174.104 1.859m-32.015 26.963l2.979 3.211-4.997-1.474c-.415.315-.695.425-1.063.745l4.348 5.846c.373-.288.756-.64 1.103-.935l-2.639-3.518 5.045 1.52c.35-.3.843-.642 1.184-1.067l-5.036-5.322c-.265.29-.576.674-.924.994m-3.453 8.552c0-.43-.11-.817-.313-1.19-.598-1.107-2.011-1.466-3.114-.834-.777.418-1.174 1.207-1.174 2.024.025.37.114.789.334 1.14.063.108.138.224.25.345.69.827 1.912 1.02 2.848.473.258-.127.464-.294.63-.473.344-.417.539-.975.539-1.485m.812-1.792c.304.536.455 1.156.479 1.792 0 .493-.106 1-.311 1.46-.335.667-.83 1.266-1.519 1.662-1.681.982-3.854.396-4.874-1.332a2.14 2.14 0 00-.148-.33c-.206-.46-.304-.967-.348-1.46.044-1.273.664-2.448 1.804-3.107a3.642 3.642 0 014.917 1.315m7.516-9.563l.85 1.341.775 1.352 1.048-1.352.272-.337zm-.813-1.64l7.156 2.352c-.168.213-.299.414-.452.63-.124.16-.275.323-.372.532l-1.252-.45-1.954 2.44.714 1.117c-.292.332-.62.691-.992 1.06l-2.835-4.7-1.047-1.73zm7.925-1.058l-5.255-2.893-.673 1.211 6.307 3.518 2.429-4.353-1.083-.582zm-41.556 15.193l-.521 4.374-2.103-4.797c-.493-.095-.8-.224-1.295-.303l-1.649 7.075c.508.137.999.19 1.523.282l.885-4.346 2.13 4.843c.483.073 1.03.224 1.591.21l.791-7.306c-.413-.024-.905.042-1.352-.032m-.243-79.353l.632 5.862 1.54-.163-.604-5.816 2.33-.144-.09-1.307c-2.6.15-3.672.255-6.244.64l.172 1.24zm7.131 3.195a23.3 23.3 0 012.237.228l-.384-1.499-.482-1.541-.727 1.541zm-1.19 2.438c-.6-.006-.878-.006-1.469-.006l1.784-3.703 1.619-3.361 1.605.165.844 3.196 1.166 4.297c-.539-.099-.958-.18-1.47-.21l-.414-1.348c-1.06-.163-2.019-.215-3.002-.258zM364.3 18.384a2.283 2.283 0 002.452 2.099c1.211-.125 2.116-1.091 2.116-2.308.043-.062 0-.132 0-.21-.106-1.283-1.209-2.18-2.484-2.06-1.214.09-2.128 1.05-2.084 2.27zm-1.31.127v-.336c-.038-1.854 1.384-3.38 3.249-3.528a3.55 3.55 0 013.888 3.241v.287c0 1.85-1.396 3.43-3.295 3.605-1.916.17-3.674-1.275-3.842-3.27m15.04 45.519c3.736 0 6.806-3.07 6.806-6.81 0-3.106-2.16-5.807-5.134-6.551-.036-.305-.118-1.725-.118-1.725h-3.434s-.08 1.542-.108 1.849a6.701 6.701 0 00-4.772 6.428c0 3.74 3.068 6.809 6.76 6.809m-.128 3.386c-5.628 0-10.23-4.62-10.23-10.237 0-5.66 4.602-10.255 10.23-10.255 5.668 0 10.224 4.595 10.224 10.255 0 5.642-4.58 10.237-10.224 10.237M357.75 89.708c.974.53 1.928 1.085 2.996 1.589l.638-1.059a37.444 37.444 0 01-4.105-2.498l-4.075 5.981a82.73 82.73 0 004.546 2.793l.657-1.053-3.287-1.937 1.11-1.56 2.177 1.308.635-1.017c-.7-.384-1.428-.828-2.192-1.294zm-8.147-8.87l-3.35 2.894 1.707-4.96c-.301-.426-.441-.721-.758-1.111l-6.002 4.07c.268.404.596.775.883 1.194l3.607-2.502-1.692 4.997c.292.333.589.836 1.002 1.172l5.552-4.761c-.304-.328-.677-.62-.949-.994m-3.968-5.764l-6.183 3.61c.223.432.462.942.734 1.357l6.193-3.618c-.303-.546-.472-.839-.744-1.349m7.639 11.247l-3.811 4.522-1.188-1.03 3.94-4.392c-.624-.576-1.101-1.099-1.704-1.635l.877-.88c1.5 1.416 2.822 2.515 4.478 3.85l-.76.97c-.604-.471-1.224-.927-1.832-1.405" fill="#f9a70d"/><path d="M272.775 42.663c-3.287.196-6.522 2.075-8.535 3.502v-2.022c0-.684-.555-1.23-1.239-1.23h-4.966c-.684 0-1.239.546-1.239 1.23v30.085c0 .685.555 1.237 1.239 1.237H263c.684 0 1.239-.552 1.239-1.237V53.433c1.121-.932 4.59-3.534 8.723-3.898a1.238 1.238 0 001.125-1.232v-4.409c0-.342-.136-.662-.392-.893a1.178 1.178 0 00-.921-.338M234.02 61.366c-2.92.275-4.308 1.608-4.308 4.178 0 1.581.436 4.249 3.33 4.249 3.437 0 8.105-1.297 8.155-1.311v-7.497zm14.616-8.216v21.585c0 .36-.157.701-.423.933a1.254 1.254 0 01-.985.293c-2.527-.354-3.727-1.146-4.923-2.062-.05.02-5.64 2.276-10.632 2.276-6.013 0-9.462-3.795-9.462-10.429 0-6.475 3.156-9.342 10.9-9.919l8.086-.652v-1.96c0-2.485-1.474-3.913-4.046-3.913-3.543 0-8.596.415-11.291.656a1.23 1.23 0 01-.935-.296 1.242 1.242 0 01-.417-.878l-.161-4.128a1.23 1.23 0 011.038-1.27c2.41-.382 8.411-1.258 12.158-1.258 7.569 0 11.093 3.506 11.093 11.022m-103.29-15.521h-2.72c-3.035 0-4.767.225-5.643.403v12.86c1.452.1 4.244.25 8.004.208 4.849-.05 7.857-2.625 7.857-6.71 0-3.27-1.97-6.761-7.497-6.761m15.645 36.099a1.234 1.234 0 01-1.132 1.737h-5.772c-.485 0-.935-.29-1.125-.737l-7.391-16.629a137.461 137.461 0 01-8.59-.343v16.472c0 .685-.549 1.237-1.233 1.237h-5.159c-.687 0-1.24-.552-1.24-1.237V32.519c0-.63.473-1.16 1.101-1.229 6.621-.747 11.917-.825 13.881-.825.679 0 1.041.005 1.041.005 12.699 0 15.37 7.5 15.37 13.785 0 5.249-2.51 9.04-7.663 11.598zm144.859-30.339a1.218 1.218 0 00-.974-.476h-4.824a1.24 1.24 0 00-1.196.914l-6.469 24.394h-.496l-6.475-24.394a1.236 1.236 0 00-1.196-.914h-4.817a1.25 1.25 0 00-.983.476 1.247 1.247 0 00-.218 1.064l7.125 27.355c.355 1.357 1.61 3.657 4.092 3.657h1.38c-.117.454-.247.946-.383 1.366l-.064.207c-.385 1.26-.968 3.168-4.488 3.168l-6.164-.379a1.174 1.174 0 00-.932.346 1.235 1.235 0 00-.376.942l.152 3.229c.024.543.406 1.005.94 1.139 1.819.45 5.284.974 8.138 1.083.136.01.26.01.392.01 4.649 0 7.802-3.01 9.392-8.933 1.849-6.932 4.158-15.856 5.844-22.372.762-2.934 1.418-5.461 1.893-7.26l.928-3.549c.097-.375.01-.766-.221-1.073M187.252 59.025c0-7.28-1.977-10.11-7.047-10.11-5.252 0-7.114 2.642-7.114 10.11 0 6.77 1.132 10.433 7.114 10.433 5.89 0 7.047-3.824 7.047-10.433m7.564 0c0 11.858-4.507 17.15-14.61 17.15-10.153 0-14.68-5.292-14.68-17.15 0-11.685 4.527-16.897 14.68-16.897 9.966 0 14.61 5.366 14.61 16.897m23.473 11.153l.212 4.091a1.238 1.238 0 01-1.002 1.274c-1.728.32-4.108.708-5.596.708-7.5 0-9.786-2.872-9.786-12.266V49.63h-2.876a1.24 1.24 0 01-1.238-1.24v-4.247c0-.684.554-1.23 1.238-1.23h2.876v-5.048c0-.575.387-1.072.939-1.205l4.968-1.21a1.243 1.243 0 011.532 1.199v6.264h7.568c.687 0 1.233.546 1.233 1.23v4.248c0 .682-.546 1.24-1.233 1.24h-7.568v13.307c0 4.605.161 6.2 3.39 6.2 1.191 0 3.053-.085 4.055-.132.667-.015 1.259.485 1.288 1.172M17.948 120.012c-1.511.506-4.091 1.215-6.377 1.215C3.428 121.227 0 115.564 0 109.195 0 101.85 4.68 97.23 11.388 97.23c2.21 0 4.276.27 6.044 1.046v2.965c-1.953-.91-4.127-1.45-6.008-1.45-4.2 0-8.033 3.068-8.033 8.798 0 6.066 2.653 10.075 8.254 10.075 1.033 0 2.36-.236 3.207-.638v-7.415h-4.31v-2.563h7.406v11.964M23.036 107.51c0-1.247-.11-2.494-.146-3.707h2.985l.11 2.697h.075c.993-2.09 2.578-2.934 5.343-2.934v2.797a6.782 6.782 0 00-1.18-.1c-2.395 0-4.09 1.887-4.09 5.629v9.098h-3.097v-13.48M43.787 111.082c0-3.571-1.217-5.36-3.686-5.36-1.99 0-3.759 1.348-3.832 5.36zm-7.518 2.158c0 3.975 1.694 5.83 5.121 5.83 1.55 0 3.245-.708 4.313-1.415l.148 2.56c-1.476.64-3.392 1.012-5.27 1.012-4.976 0-7.557-3.438-7.557-8.831 0-5.392 2.58-8.83 7.262-8.83 4.239 0 6.597 3.1 6.597 8.156v1.518H36.269M60.04 112.566c-.552-.07-1.325-.07-2.174-.07-3.648 0-5.38 1.585-5.38 3.574 0 1.82 1.032 3 3.17 3 2.69 0 4.384-1.99 4.384-4.348zm-8.991-7.584c1.548-.909 3.464-1.416 5.307-1.416 2.763 0 4.423 1.08 5.012 1.619.811.74 1.621 1.785 1.621 4.212v8.965c0 1.01.074 2.022.148 2.628h-2.801l-.184-2.326h-.074c-.848 1.315-2.396 2.563-5.27 2.563-3.095 0-5.418-1.653-5.418-4.956 0-3.335 2.396-5.794 8.846-5.794h1.804v-.776c0-1.282-.11-2.023-.7-2.763-.625-.775-1.842-1.08-3.132-1.08-1.916 0-3.76.707-4.827 1.786l-.332-2.662M75.67 120.79c-.737.234-1.77.437-2.617.437-2.837 0-4.348-1.045-4.348-4.078v-11.054H65.72v-2.292h2.985v-3.506l3.095-.841v4.347h3.87v2.292H71.8v10.142c0 1.957.553 2.696 1.953 2.696.774 0 1.327-.2 1.917-.436v2.292M90.966 118.563h2.764c3.465 0 4.975-1.987 4.975-4.211 0-2.427-1.473-4.28-4.606-4.28h-3.133zm0-10.919h1.917c3.611 0 5.27-1.515 5.27-4.044 0-2.022-1.326-3.708-4.717-3.708h-2.47zm-3.243-10.177h6.524c4.974 0 7.15 2.494 7.15 5.965 0 2.56-1.66 4.55-4.24 5.224v.066c2.802.372 4.791 2.528 4.791 5.831 0 3.27-2.43 6.437-8.033 6.437h-6.192V97.467M106.263 107.51c0-1.247-.11-2.494-.146-3.707h2.984l.11 2.697h.073c.997-2.09 2.581-2.934 5.345-2.934v2.797a6.757 6.757 0 00-1.178-.1c-2.397 0-4.092 1.887-4.092 5.629v9.098h-3.096v-13.48M117.469 103.803h3.096v17.187h-3.096zm3.242-7.078v3.37h-3.39v-3.37h3.39M133.648 120.79c-.738.234-1.77.437-2.617.437-2.838 0-4.348-1.045-4.348-4.078v-11.054h-2.987v-2.292h2.987v-3.506l3.095-.841v4.347h3.87v2.292h-3.87v10.142c0 1.957.552 2.696 1.954 2.696.773 0 1.326-.2 1.916-.436v2.292M145.995 112.566c-.552-.07-1.327-.07-2.175-.07-3.648 0-5.38 1.585-5.38 3.574 0 1.82 1.032 3 3.168 3 2.692 0 4.387-1.99 4.387-4.348zm-8.992-7.584c1.548-.909 3.464-1.416 5.306-1.416 2.763 0 4.423 1.08 5.012 1.619.811.74 1.622 1.785 1.622 4.212v8.965c0 1.01.073 2.022.148 2.628h-2.802l-.184-2.326h-.074c-.847 1.315-2.395 2.563-5.27 2.563-3.096 0-5.417-1.653-5.417-4.956 0-3.335 2.395-5.794 8.845-5.794h1.806v-.776c0-1.282-.111-2.023-.7-2.763-.627-.775-1.843-1.08-3.134-1.08-1.916 0-3.758.707-4.826 1.786l-.332-2.662M153.627 103.803h3.096v17.187h-3.096zm3.242-7.078v3.37h-3.39v-3.37h3.39M161.513 107.51c0-1.247-.11-2.494-.146-3.707h2.985l.11 2.56h.074c.993-1.953 2.579-2.797 4.753-2.797 3.28 0 5.491 1.719 5.491 5.492v11.932h-3.095v-11.086c0-2.73-1.105-3.912-3.097-3.912-2.43 0-3.979 1.552-3.979 4.652v10.346h-3.096v-13.48M192.004 99.522c-1.732 0-3.021 1.012-3.021 2.529 0 1.212 1.326 3.134 2.358 4.28 2.543-1.45 3.464-2.63 3.464-4.248 0-1.312-.921-2.561-2.801-2.561zm-1.77 10.01c-1.915 1.145-3.426 2.797-3.426 4.954 0 2.393 1.807 4.314 4.717 4.314 1.695 0 3.575-1.112 4.386-2.258zm9.289 11.458l-2.027-2.594c-1.29 1.886-3.797 2.83-6.376 2.83-4.939 0-7.555-2.965-7.555-6.504 0-3.303 1.732-5.46 5.086-7.144-1.143-1.483-2.618-3.437-2.618-5.36 0-3.067 2.471-4.988 5.935-4.988 3.5 0 5.785 2.091 5.785 4.888 0 2.089-1.4 4.245-4.901 6.067l4.753 6.031c.959-1.92 1.402-4.01 1.548-6.437h3.098c-.223 2.966-1.182 6.135-2.876 8.56l3.981 4.65h-3.833M210.75 97.467h3.122v23.523h-3.121V97.467M219.081 107.51c0-1.247-.112-2.494-.146-3.707h2.984l.11 2.697h.074c.994-2.09 2.58-2.934 5.344-2.934v2.797a6.776 6.776 0 00-1.179-.1c-2.396 0-4.09 1.887-4.09 5.629v9.098h-3.097v-13.48M239.83 111.082c0-3.571-1.217-5.36-3.685-5.36-1.989 0-3.758 1.348-3.833 5.36zm-7.518 2.158c0 3.975 1.695 5.83 5.123 5.83 1.549 0 3.242-.708 4.312-1.415l.148 2.56c-1.475.64-3.391 1.012-5.271 1.012-4.975 0-7.553-3.438-7.553-8.831 0-5.392 2.578-8.83 7.258-8.83 4.239 0 6.596 3.1 6.596 8.156v1.518h-10.613M246.65 95.715h2.914v25.275h-2.913V95.715M264.268 112.566c-.553-.07-1.328-.07-2.175-.07-3.649 0-5.38 1.585-5.38 3.574 0 1.82 1.031 3 3.17 3 2.689 0 4.385-1.99 4.385-4.348zm-8.993-7.584c1.549-.909 3.465-1.416 5.308-1.416 2.764 0 4.422 1.08 5.012 1.619.809.74 1.621 1.785 1.621 4.212v8.965c0 1.01.073 2.022.147 2.628h-2.8l-.186-2.326h-.073c-.848 1.315-2.396 2.563-5.27 2.563-3.095 0-5.418-1.653-5.418-4.956 0-3.335 2.396-5.794 8.845-5.794h1.807v-.776c0-1.282-.11-2.023-.701-2.763-.627-.775-1.843-1.08-3.132-1.08-1.916 0-3.759.707-4.828 1.786l-.332-2.662M271.604 107.51c0-1.247-.11-2.494-.148-3.707h2.987l.109 2.56h.075c.993-1.953 2.578-2.797 4.754-2.797 3.279 0 5.49 1.719 5.49 5.492v11.932h-3.095v-11.086c0-2.73-1.107-3.912-3.096-3.912-2.433 0-3.98 1.552-3.98 4.652v10.346h-3.096v-13.48M295.67 105.858c-2.837 0-4.126 2.225-4.126 6.538 0 4.315 1.29 6.537 4.127 6.537 2.838 0 4.126-2.222 4.126-6.537 0-4.313-1.288-6.538-4.126-6.538zm7.226 11.965c0 1.044.108 2.122.147 3.167h-2.987l-.11-2.528h-.073c-.812 1.349-2.21 2.765-4.938 2.765-3.871 0-6.488-2.899-6.488-8.831 0-5.93 2.617-8.83 6.488-8.83 2.136 0 3.538.776 4.792 2.597h.07V95.715h3.099v22.108" fill="#254998"/></svg>