<?xml version="1.0" encoding="utf-8"?>
<svg viewBox="0 0.0020000000949949026 565.9500122070312 174.78500366210938" height="174.78751" width="565.95001" version="1.1" id="svg2" xmlns="http://www.w3.org/2000/svg">
  <defs id="defs6">
    <clipPath id="clipPath18" clipPathUnits="userSpaceOnUse">
      <path id="path20" d="m 0,0 4527.6,0 0,1398 L 0,1398 0,0 Z"/>
    </clipPath>
  </defs>
  <g transform="matrix(1.25,0,0,-1.25,0,174.7875)" id="g10">
    <g transform="scale(0.1,0.1)" id="g12">
      <g id="g14">
        <g clip-path="url(#clipPath18)" id="g16">
          <path id="path22" style="fill:#155196;fill-opacity:1;fill-rule:nonzero;stroke:none" d="m 0,0 4527.6,0 0,1398.28 L 0,1398.28 0,0 Z"/>
          <path id="path24" style="fill:#f9a720;fill-opacity:1;fill-rule:nonzero;stroke:none" d="m 4229.26,1103.39 -29.49,0 0,9.93 70.71,0 0,-9.93 -29.47,0 0,-78.48 -11.75,0 0,78.48"/>
          <path id="path26" style="fill:#f9a720;fill-opacity:1;fill-rule:nonzero;stroke:none" d="m 4268.14,1113.32 16.12,0 27.84,-74.31 28,74.31 16.1,0 0,-88.41 -11.13,0 0,73.57 -0.3,0 -27.59,-73.57 -10.03,0 -27.63,73.57 -0.23,0 0,-73.57 -11.15,0 0,88.41"/>
          <path id="path28" style="fill:#f9a720;fill-opacity:1;fill-rule:nonzero;stroke:none" d="m 2867.95,918.059 c 10.35,0 18.96,8.371 18.96,18.738 l 0,70.773 c 0,10.31 -8.61,18.71 -18.96,18.71 l -67.17,0 0,95.17 c 0,10.39 -8.4,19.02 -18.71,19.02 l -130.91,0 c -10.38,0 -18.74,-8.63 -18.74,-19.02 l 0,-95.17 -29.41,0 0,0 c -10.26,-0.06 -18.81,-8.4 -18.81,-18.71 l 0,-70.773 c 0,-10.332 8.55,-18.625 18.81,-18.738 l 29.41,0 0,-403.274 c 0,-37.414 -3.75,-177.453 193.77,-177.453 l 41.51,0 c 10.35,0 18.96,8.34 18.96,18.668 l 0,66.684 c 0,10.312 -8.61,18.711 -18.96,18.711 -20.38,0 -41.41,8.332 -51.8,19.199 -10.22,10.722 -15.12,28.469 -15.12,54.191 l 0,403.274 67.17,0"/>
          <path id="path30" style="fill:#f9a720;fill-opacity:1;fill-rule:nonzero;stroke:none" d="m 3723.95,1034.84 c -35.84,0 -101.21,-21.2 -131.43,-85.594 l 0,58.104 c 0,10.36 -8.32,18.93 -18.68,18.93 l -133.68,0 c -10.36,0 -18.71,-8.57 -18.71,-18.93 l 0,-651.1 c 0,-10.309 8.35,-18.918 18.71,-18.918 l 141.89,0 c 10.34,0 18.69,8.609 18.69,18.918 l 0.03,0 0,321.219 c 0,66.304 2.02,115.621 6.16,133.961 4.12,18.386 15.14,32.699 33,43.062 17.84,10.223 45.85,15.43 84.02,15.43 10.31,0 18.92,7.828 18.92,18.183 l 0,128.115 c 0,10.23 -8.61,18.62 -18.92,18.62"/>
          <path id="path32" style="fill:#f9a720;fill-opacity:1;fill-rule:nonzero;stroke:none" d="m 1501.74,1073.85 c 7.73,3.97 12.67,5.94 55.58,5.94 10.37,0 19,8.37 19,18.69 l 0,68.2 c 0,10.41 -8.63,18.78 -19,18.78 l -54.12,0 c -46.35,0 -80.59,-3.12 -102.52,-9.29 -22.04,-6.14 -39.1,-15.22 -51.3,-27.1 -12.19,-11.82 -19.81,-25.33 -22.96,-40.42 -3.04,-15.12 -4.63,-37.39 -4.63,-82.37 l -29.39,0 0,0 c -10.27,-0.06 -18.82,-8.4 -18.82,-18.71 l 0,-70.773 c 0,-10.332 8.55,-18.625 18.82,-18.738 l 29.39,0 0,-561.809 c 0,-10.309 8.94,-18.918 19.28,-18.918 l 130.07,0 c 10.34,0 19.01,8.609 19.01,18.918 l 0,561.809 67.17,0 c 10.37,0 19,8.371 19,18.738 l 0,70.773 c 0,10.31 -8.63,18.71 -19,18.71 l -67.17,0 0,13.81 c 0,18.6 3.85,29.82 11.59,33.76"/>
          <path id="path34" style="fill:#f9a720;fill-opacity:1;fill-rule:nonzero;stroke:none" d="m 483.324,583.242 c 0,10.352 -8.379,18.895 -18.652,18.895 l -131.996,0 C 322.359,602.137 314,593.594 314,583.242 m 0,-0.156 0,-86.465 c 0,-148.141 142.777,-169.199 217.605,-169.199 84.836,0 130.536,18.16 168.993,54.129 38.304,35.801 51.195,88.019 51.195,155.109 0,32.488 -5.23,54.559 -15.414,79.539 -7.336,17.707 -31.914,67.481 -125.582,122.883 -66.578,39.285 -101.902,66.516 -113.059,79.906 -12.711,15.258 -17.113,34.453 -17.113,57.309 0,42 27.473,52.23 50.266,52.23 41.113,0 51.918,-36.933 51.918,-58.269 l 0,-49.985 c 0,-10.308 8.375,-18.984 18.695,-18.984 l 133.496,0 c 10.348,0 18.738,8.676 18.738,18.984 l 0,51.586 c -0.375,30.356 -4.25,166.931 -216.804,166.931 -166.297,0 -201.18,-81.638 -209.801,-98.856 -12.367,-23.653 -18.449,-54.946 -18.449,-93.11 0,-36.969 5.765,-59.14 20.129,-80.707 14.773,-22.027 45.664,-56.445 95.382,-87.543 67.907,-42.09 104.442,-64.961 111.352,-69.836 18.641,-12.617 30.902,-24.101 37.402,-35.175 9.656,-16.719 14.492,-38.407 14.492,-64.512 0,-68.262 -38.785,-70.985 -56.66,-70.985 -25.25,0 -47.457,17.325 -47.457,50.528 l 0,94.648"/>
          <path id="path36" style="fill:#f9a720;fill-opacity:1;fill-rule:nonzero;stroke:none" d="m 2277.08,583.242 c 0,10.352 -8.35,18.895 -18.69,18.895 l -131.98,0 c -10.31,0 -18.7,-8.543 -18.7,-18.895 m 0,-0.156 0,-86.465 c 0,-148.141 142.83,-169.199 217.66,-169.199 84.79,0 130.53,18.16 168.95,54.129 38.29,35.801 51.23,88.019 51.23,155.109 0,32.488 -5.24,54.559 -15.45,79.539 -7.35,17.707 -31.91,67.481 -125.61,122.883 -66.58,39.285 -101.84,66.516 -113.03,79.906 -12.7,15.258 -17.07,34.453 -17.07,57.309 0,42 27.45,52.23 50.24,52.23 41.09,0 51.87,-36.933 51.87,-58.269 l 0,-49.985 c 0,-10.308 8.41,-18.984 18.72,-18.984 l 133.5,0 c 10.34,0 18.72,8.676 18.72,18.984 l 0,51.586 c -0.32,30.356 -4.25,166.931 -216.76,166.931 -166.27,0 -201.21,-81.638 -209.77,-98.856 -12.39,-23.653 -18.47,-54.946 -18.47,-93.11 0,-36.969 5.74,-59.14 20.14,-80.707 14.71,-22.027 45.64,-56.445 95.32,-87.543 67.96,-42.09 104.5,-64.961 111.37,-69.836 18.66,-12.617 30.87,-24.101 37.37,-35.175 9.67,-16.719 14.57,-38.407 14.57,-64.512 0,-68.262 -38.81,-70.985 -56.71,-70.985 -25.18,0 -47.42,17.325 -47.42,50.528 l 0,94.648"/>
          <path id="path38" style="fill:#ffffff;fill-opacity:1;fill-rule:nonzero;stroke:none" d="m 1044.32,537.949 0,-70.254 c 0,-15.793 -12.83,-28.703 -28.65,-28.703 -15.822,0 -28.65,12.91 -28.65,28.703 l 0,70.254 c -25.032,11.043 -42.543,35.985 -42.543,65.125 0,39.367 31.89,71.223 71.193,71.223 39.33,0 71.15,-31.856 71.15,-71.223 0,-29.14 -17.45,-54.082 -42.5,-65.125 z m -66.703,283.18 0,66.715 c 0,21.031 17.035,38.219 38.053,38.219 21,0 38.06,-17.188 38.06,-38.219 l 0,-129.016 -228.207,0 c -10.328,0 -18.742,-9.09 -18.742,-19.367 l 0,-261.309 c 0,-38.328 28.039,-151.074 208.889,-151.074 180.86,0 217.85,114.512 217.85,151.074 l 0,409.692 c 0,35.715 -36.99,151.106 -217.85,151.106 -180.85,0 -208.889,-115.391 -208.889,-151.106 l 0,-67.254 m 0,0.539 c 0,-10.316 8.414,-18.941 18.742,-18.941 l 133.356,0 c 10.344,0 18.738,8.625 18.738,18.941"/>
          <path id="path40" style="fill:#f9a720;fill-opacity:1;fill-rule:nonzero;stroke:none" d="m 3965.96,889.367 c 0,20.992 17.04,38.145 38.07,38.145 21.04,0 38.14,-17.153 38.14,-38.145 l 0,-108.109 -76.21,0 0,108.109 z m -11.58,-306.125 0,84.539 248.8,0 c 10.34,0 18.71,8.684 18.71,18.977 l 0,202.609 c 0,35.656 -36.98,151.093 -217.86,151.093 -180.87,0 -220.57,-115.437 -220.57,-151.093 l 0,-306.125 m 0,-0.156 0,-86.465 c 0,-148.141 150.2,-169.199 225.02,-169.199 206.67,0 220.88,142.148 220.88,209.238 l 0,46.074 c 0,10.313 -8.39,18.993 -18.73,18.993 l -133.43,0 c -10.33,0 -18.69,-8.68 -18.69,-18.993 l 0,-73.683 c 0,-68.262 -36.62,-70.985 -54.48,-70.985 -25.26,0 -49.65,17.325 -49.65,50.528 l 0,94.648"/>
          <path id="path42" style="fill:#f9a720;fill-opacity:1;fill-rule:nonzero;stroke:none" d="m 1794.01,889.367 c 0,20.992 17.03,38.145 38.03,38.145 21.07,0 38.19,-17.153 38.19,-38.145 l 0,-108.109 -76.22,0 0,108.109 z m -11.58,-306.125 0,84.539 248.79,0 c 10.33,0 18.74,8.684 18.74,18.977 l 0,202.609 c 0,35.656 -37.02,151.093 -217.92,151.093 -180.85,0 -220.53,-115.437 -220.53,-151.093 l 0,-306.125 m 0,-0.156 0,-86.465 c 0,-148.141 150.18,-169.199 225,-169.199 206.61,0 220.91,142.148 220.91,209.238 l 0,46.074 c 0,10.313 -8.45,18.993 -18.72,18.993 l -133.47,0 c -10.34,0 -18.7,-8.68 -18.7,-18.993 l 0,-73.683 c 0,-68.262 -36.57,-70.985 -54.49,-70.985 -25.17,0 -49.61,17.325 -49.61,50.528 l 0,94.648"/>
          <path id="path44" style="fill:#f9a720;fill-opacity:1;fill-rule:nonzero;stroke:none" d="m 3140.41,440.43 c -21.02,0 -38.09,17.136 -38.09,38.152 l 0,410.785 c 0,20.992 17.07,38.145 38.09,38.145 21.02,0 38.05,-17.153 38.05,-38.145 l 0,-410.785 c 0,-21.016 -17.03,-38.152 -38.05,-38.152 z m 0,600.03 c -180.84,0 -212.07,-115.437 -212.07,-151.093 l 0,-410.785 c 0,-35.75 31.23,-151.16 212.07,-151.16 180.87,0 212.01,115.41 212.01,151.16 l 0,410.785 c 0,35.656 -31.14,151.093 -212.01,151.093"/>
        </g>
      </g>
    </g>
  </g>
</svg>