<svg viewBox="0 0.0020000000949949026 565.9500122070312 174.78500366210938" height="174.788" width="565.95" xmlns="http://www.w3.org/2000/svg"><defs><clipPath id="a"><path d="M0 0h4527.6v1398H0V0z"/></clipPath></defs><g clip-path="url(#a)" transform="matrix(1.25,0,0,-1.25,0,174.7875) scale(0.1,0.1)"><path d="M0 0h4527.6v1398.28H0V0z" fill="#155196"/><path d="M4229.26 1103.39h-29.49v9.93h70.71v-9.93h-29.47v-78.48h-11.75v78.48" fill="#f9a720"/><path d="M4268.14 1113.32h16.12l27.84-74.31 28 74.31h16.1v-88.41h-11.13v73.57h-.3l-27.59-73.57h-10.03l-27.63 73.57h-.23v-73.57h-11.15v88.41M2867.95 918.059c10.35 0 18.96 8.371 18.96 18.738v70.773c0 10.31-8.61 18.71-18.96 18.71h-67.17v95.17c0 10.39-8.4 19.02-18.71 19.02h-130.91c-10.38 0-18.74-8.63-18.74-19.02v-95.17h-29.41c-10.26-.06-18.81-8.4-18.81-18.71v-70.773c0-10.332 8.55-18.625 18.81-18.738h29.41V514.785c0-37.414-3.75-177.453 193.77-177.453h41.51c10.35 0 18.96 8.34 18.96 18.668v66.684c0 10.312-8.61 18.711-18.96 18.711-20.38 0-41.41 8.332-51.8 19.199-10.22 10.722-15.12 28.469-15.12 54.191v403.274h67.17M3723.95 1034.84c-35.84 0-101.21-21.2-131.43-85.594v58.104c0 10.36-8.32 18.93-18.68 18.93h-133.68c-10.36 0-18.71-8.57-18.71-18.93v-651.1c0-10.309 8.35-18.918 18.71-18.918h141.89c10.34 0 18.69 8.609 18.69 18.918h.03v321.219c0 66.304 2.02 115.621 6.16 133.961 4.12 18.386 15.14 32.699 33 43.062 17.84 10.223 45.85 15.43 84.02 15.43 10.31 0 18.92 7.828 18.92 18.183v128.115c0 10.23-8.61 18.62-18.92 18.62M1501.74 1073.85c7.73 3.97 12.67 5.94 55.58 5.94 10.37 0 19 8.37 19 18.69v68.2c0 10.41-8.63 18.78-19 18.78h-54.12c-46.35 0-80.59-3.12-102.52-9.29-22.04-6.14-39.1-15.22-51.3-27.1-12.19-11.82-19.81-25.33-22.96-40.42-3.04-15.12-4.63-37.39-4.63-82.37h-29.39c-10.27-.06-18.82-8.4-18.82-18.71v-70.773c0-10.332 8.55-18.625 18.82-18.738h29.39V356.25c0-10.309 8.94-18.918 19.28-18.918h130.07c10.34 0 19.01 8.609 19.01 18.918v561.809h67.17c10.37 0 19 8.371 19 18.738v70.773c0 10.31-8.63 18.71-19 18.71h-67.17v13.81c0 18.6 3.85 29.82 11.59 33.76M483.324 583.242c0 10.352-8.379 18.895-18.652 18.895H332.676c-10.317 0-18.676-8.543-18.676-18.895m0-.156v-86.465c0-148.141 142.777-169.199 217.605-169.199 84.836 0 130.536 18.16 168.993 54.129 38.304 35.801 51.195 88.019 51.195 155.109 0 32.488-5.23 54.559-15.414 79.539-7.336 17.707-31.914 67.481-125.582 122.883-66.578 39.285-101.902 66.516-113.059 79.906-12.711 15.258-17.113 34.453-17.113 57.309 0 42 27.473 52.23 50.266 52.23 41.113 0 51.918-36.933 51.918-58.269v-49.985c0-10.308 8.375-18.984 18.695-18.984H735c10.348 0 18.738 8.676 18.738 18.984v51.586c-.375 30.356-4.25 166.931-216.804 166.931-166.297 0-201.18-81.638-209.801-98.856-12.367-23.653-18.449-54.946-18.449-93.11 0-36.969 5.765-59.14 20.129-80.707 14.773-22.027 45.664-56.445 95.382-87.543 67.907-42.09 104.442-64.961 111.352-69.836 18.641-12.617 30.902-24.101 37.402-35.175 9.656-16.719 14.492-38.407 14.492-64.512 0-68.262-38.785-70.985-56.66-70.985-25.25 0-47.457 17.325-47.457 50.528v94.648M2277.08 583.242c0 10.352-8.35 18.895-18.69 18.895h-131.98c-10.31 0-18.7-8.543-18.7-18.895m0-.156v-86.465c0-148.141 142.83-169.199 217.66-169.199 84.79 0 130.53 18.16 168.95 54.129 38.29 35.801 51.23 88.019 51.23 155.109 0 32.488-5.24 54.559-15.45 79.539-7.35 17.707-31.91 67.481-125.61 122.883-66.58 39.285-101.84 66.516-113.03 79.906-12.7 15.258-17.07 34.453-17.07 57.309 0 42 27.45 52.23 50.24 52.23 41.09 0 51.87-36.933 51.87-58.269v-49.985c0-10.308 8.41-18.984 18.72-18.984h133.5c10.34 0 18.72 8.676 18.72 18.984v51.586c-.32 30.356-4.25 166.931-216.76 166.931-166.27 0-201.21-81.638-209.77-98.856-12.39-23.653-18.47-54.946-18.47-93.11 0-36.969 5.74-59.14 20.14-80.707 14.71-22.027 45.64-56.445 95.32-87.543 67.96-42.09 104.5-64.961 111.37-69.836 18.66-12.617 30.87-24.101 37.37-35.175 9.67-16.719 14.57-38.407 14.57-64.512 0-68.262-38.81-70.985-56.71-70.985-25.18 0-47.42 17.325-47.42 50.528v94.648" fill="#f9a720"/><path d="M1044.32 537.949v-70.254c0-15.793-12.83-28.703-28.65-28.703-15.822 0-28.65 12.91-28.65 28.703v70.254c-25.032 11.043-42.543 35.985-42.543 65.125 0 39.367 31.89 71.223 71.193 71.223 39.33 0 71.15-31.856 71.15-71.223 0-29.14-17.45-54.082-42.5-65.125zm-66.703 283.18v66.715c0 21.031 17.035 38.219 38.053 38.219 21 0 38.06-17.188 38.06-38.219V758.828H825.523c-10.328 0-18.742-9.09-18.742-19.367V478.152c0-38.328 28.039-151.074 208.889-151.074 180.86 0 217.85 114.512 217.85 151.074v409.692c0 35.715-36.99 151.106-217.85 151.106-180.85 0-208.889-115.391-208.889-151.106V820.59m0 .539c0-10.316 8.414-18.941 18.742-18.941h133.356c10.344 0 18.738 8.625 18.738 18.941" fill="#fff"/><path d="M3965.96 889.367c0 20.992 17.04 38.145 38.07 38.145 21.04 0 38.14-17.153 38.14-38.145V781.258h-76.21v108.109zm-11.58-306.125v84.539h248.8c10.34 0 18.71 8.684 18.71 18.977v202.609c0 35.656-36.98 151.093-217.86 151.093-180.87 0-220.57-115.437-220.57-151.093V583.242m0-.156v-86.465c0-148.141 150.2-169.199 225.02-169.199 206.67 0 220.88 142.148 220.88 209.238v46.074c0 10.313-8.39 18.993-18.73 18.993H4077.2c-10.33 0-18.69-8.68-18.69-18.993v-73.683c0-68.262-36.62-70.985-54.48-70.985-25.26 0-49.65 17.325-49.65 50.528v94.648M1794.01 889.367c0 20.992 17.03 38.145 38.03 38.145 21.07 0 38.19-17.153 38.19-38.145V781.258h-76.22v108.109zm-11.58-306.125v84.539h248.79c10.33 0 18.74 8.684 18.74 18.977v202.609c0 35.656-37.02 151.093-217.92 151.093-180.85 0-220.53-115.437-220.53-151.093V583.242m0-.156v-86.465c0-148.141 150.18-169.199 225-169.199 206.61 0 220.91 142.148 220.91 209.238v46.074c0 10.313-8.45 18.993-18.72 18.993h-133.47c-10.34 0-18.7-8.68-18.7-18.993v-73.683c0-68.262-36.57-70.985-54.49-70.985-25.17 0-49.61 17.325-49.61 50.528v94.648M3140.41 440.43c-21.02 0-38.09 17.136-38.09 38.152v410.785c0 20.992 17.07 38.145 38.09 38.145 21.02 0 38.05-17.153 38.05-38.145V478.582c0-21.016-17.03-38.152-38.05-38.152zm0 600.03c-180.84 0-212.07-115.437-212.07-151.093V478.582c0-35.75 31.23-151.16 212.07-151.16 180.87 0 212.01 115.41 212.01 151.16v410.785c0 35.656-31.14 151.093-212.01 151.093" fill="#f9a720"/></g></svg>