<svg width="2000" height="2000" viewBox="0 0 400 400" xmlns="http://www.w3.org/2000/svg" display="block"><g fill-rule="evenodd"><path d="M188.9 84.004c-1.1.078-3.215.284-4.7.457-1.485.174-3.42.374-4.3.446-.88.071-2.095.249-2.7.395-.605.147-1.955.373-3 .504-1.045.13-2.26.356-2.7.501-.44.145-1.25.322-1.8.394-.55.071-1.765.344-2.7.605-.935.261-2.06.536-2.5.611-.44.075-1.025.249-1.3.387-.275.138-1.04.36-1.7.495-.66.135-1.425.368-1.7.518-.275.15-.995.407-1.6.571-1.517.411-4.017 1.279-4.282 1.488-.12.094-.578.285-1.018.423-.44.138-.935.368-1.1.509-.165.142-.632.32-1.038.395-.406.075-1.031.353-1.389.617-.358.264-.758.48-.889.48-.197 0-2.603 1.166-3.684 1.785-.165.095-.525.273-.8.397-.275.123-.905.493-1.4.821-.495.328-1.215.74-1.6.916-.385.177-.858.461-1.051.633-.194.172-.513.41-.71.53l-1.018.618c-.585.355-1.083.708-2.521 1.786-.727.545-2.191 1.695-2.748 2.158-.302.251-.828.681-1.169.956-1.628 1.311-7.818 7.706-8.883 9.177-.66.911-1.402 1.887-1.65 2.169-.247.282-.45.583-.45.669 0 .086-.117.275-.26.421-.142.145-.606.804-1.03 1.464-.424.66-.982 1.52-1.24 1.911-.259.391-.47.849-.47 1.019 0 .169-.175.466-.389.66-.213.193-.443.601-.51.906-.067.305-.338.847-.601 1.204-.263.357-.535.902-.602 1.211-.068.309-.247.664-.398.789-.151.125-.335.506-.41.847-.075.34-.351 1.022-.613 1.516-.262.493-.477 1.042-.477 1.22 0 .177-.169.639-.377 1.026-.207.386-.487 1.236-.623 1.889-.135.652-.362 1.37-.505 1.594-.142.224-.361.948-.486 1.608-.126.66-.358 1.515-.517 1.9-.159.385-.416 1.51-.572 2.5-.155.99-.373 2.16-.483 2.6-.928 3.697-.823 18.348.16 22.3.205.825.434 2.04.508 2.7.074.66.262 1.507.417 1.881.156.375.42 1.269.586 1.987.167.717.377 1.401.466 1.518.09.118.281.664.424 1.214.143.55.427 1.281.631 1.624.204.343.371.74.371.884 0 .255 1.041 2.598 1.418 3.192.104.165.325.615.491 1 .165.385.388.835.494 1 .106.165.442.74.745 1.277.832 1.472 1.008 1.745 1.757 2.723a57.892 57.892 0 0 1 1.599 2.25c.5.743.977 1.35 1.06 1.35.082 0 .313.276.512.613.77 1.304 7.897 8.079 9.559 9.087.393.238 2.737 1.972 3.166 2.341.62.533 2.277 1.559 2.519 1.559.138 0 .375.123.525.274.151.151.585.432.965.624.379.193.837.479 1.016.636.37.323.873.599 4.354 2.39 1.364.702 2.59 1.276 2.725 1.276.135 0 .351.126.479.28.128.155.476.342.774.417.298.074 1.081.398 1.739.719.658.321 1.351.584 1.538.584.188 0 .396.089.463.197.067.109.635.347 1.262.529.627.182 1.32.442 1.54.577.22.136.836.352 1.369.48.532.127 1.163.36 1.402.517.239.156.927.39 1.53.519.602.129 1.276.349 1.497.489.221.14.942.369 1.602.51.66.14 1.38.366 1.6.5.22.135.94.353 1.6.485.66.132 1.301.322 1.424.421.123.1.978.357 1.9.571 1.919.447 4.992 1.269 5.876 1.573.33.114 1.275.312 2.1.442.825.13 1.599.315 1.719.412.121.097 1.021.35 2 .562.98.213 2.276.518 2.881.677.605.16 1.64.385 2.3.501.66.116 1.785.358 2.5.537 3.383.849 4.618 1.113 6.08 1.301.868.112 1.963.334 2.431.494.469.159 1.592.382 2.495.495.904.113 2.104.34 2.668.503.564.164 1.791.429 2.726.59 2.453.423 4.801.886 7.2 1.42 1.155.258 2.685.53 3.4.606.715.076 1.467.226 1.67.333.204.107 1.239.324 2.3.481 1.062.158 2.213.42 2.558.582.345.161 1.326.391 2.18.51.853.118 1.74.338 1.972.488.231.15 1.042.38 1.803.512.761.131 1.661.398 2 .593.339.195 1.02.42 1.513.499.492.08 1.077.261 1.3.403.222.142.809.364 1.304.493.495.13 1.035.346 1.2.482.165.136.705.361 1.2.501s1.035.366 1.2.502c.165.136.615.367 1 .513.385.146.835.377 1 .513.165.136.615.393 1 .571.832.385 1.901 1.043 2.712 1.669.324.25.8.61 1.059.8.843.621 2.953 2.738 3.087 3.097.071.193.26.35.42.35.16 0 .391.304.514.676.123.372.4.835.616 1.031.215.195.392.459.392.585 0 .127.216.523.48.881s.541.983.615 1.389c.074.406.265.941.425 1.189.16.249.425 1.35.589 2.448.165 1.097.387 2.228.495 2.511.319.84.246 8.337-.094 9.661-.16.621-.388 1.744-.507 2.496s-.339 1.562-.49 1.8c-.151.238-.34.748-.42 1.132-.138.658-1.159 2.747-2.011 4.114-1.433 2.298-1.557 2.459-3.291 4.245-1.452 1.496-3.224 3.003-4.591 3.906-.605.399-1.29.878-1.522 1.063-.487.388-1.376.875-2.728 1.492-.522.239-.95.503-.95.586 0 .083-.247.213-.55.287-.769.19-3.85 1.701-3.85 1.889 0 .582 18.356.772 59.84.621.685-.003 1.684-1.031 1.996-2.054.126-.414.349-.853.496-.975.148-.122.268-.31.268-.418 0-.108.212-.619.471-1.134.258-.515.587-1.291.73-1.724.143-.433.426-1.06.629-1.392.203-.333.369-.741.369-.907.001-.165.226-.724.501-1.24.275-.517.5-1.166.5-1.443 0-.276.174-.843.386-1.259.213-.416.498-1.341.633-2.056.135-.715.362-1.48.504-1.7.141-.22.358-1.075.481-1.9.124-.825.31-1.659.414-1.852.103-.194.323-1.364.487-2.6.165-1.237.392-2.645.505-3.13.598-2.563.709-11.634.181-14.694-.097-.563-.316-2.059-.486-3.324-.17-1.265-.434-2.705-.588-3.2a25.895 25.895 0 0 1-.521-2.1c-.133-.66-.352-1.425-.486-1.7-.134-.275-.359-1.04-.499-1.7-.141-.66-.336-1.3-.434-1.422-.099-.122-.351-.707-.561-1.3-.595-1.679-2.994-6.576-3.516-7.178-.143-.165-.4-.637-.57-1.05-.17-.412-.398-.75-.506-.75-.109 0-.26-.199-.337-.441-.199-.626-1.647-2.706-2.428-3.487-.362-.362-.659-.751-.659-.864 0-.112-.18-.317-.4-.454-.22-.138-.4-.357-.4-.488 0-.13-.206-.401-.457-.601a4.738 4.738 0 0 1-.78-.83c-.441-.637-2.45-2.693-3.99-4.086-.7-.632-1.445-1.307-1.654-1.5-.391-.358-1.66-1.383-2.478-2.002a20.682 20.682 0 0 1-1.023-.847 9.832 9.832 0 0 0-1.234-.9 22.93 22.93 0 0 1-1.099-.7c-1.797-1.257-2.937-2-3.068-2-.085 0-.31-.172-.5-.382-.19-.21-.632-.497-.981-.638-.35-.142-.681-.319-.736-.395-.055-.075-.934-.576-1.953-1.111a118.835 118.835 0 0 1-2.8-1.517c-.521-.299-1.118-.606-1.328-.682-.209-.076-.839-.38-1.4-.676-.56-.297-1.289-.605-1.619-.685-.33-.08-.735-.262-.9-.404-.165-.143-.66-.372-1.1-.51-.44-.138-.935-.366-1.1-.507-.165-.141-.66-.352-1.1-.469a9.774 9.774 0 0 1-1.592-.619c-.436-.223-.931-.408-1.1-.411-.17-.004-.758-.228-1.308-.498-.55-.271-1.117-.493-1.261-.494-.144-.001-.639-.171-1.1-.377-.461-.206-1.334-.489-1.939-.63-.605-.141-1.28-.369-1.5-.507-.22-.138-.94-.356-1.6-.483-.66-.128-1.488-.363-1.84-.523-.352-.16-1.162-.393-1.8-.517-.638-.123-1.256-.298-1.372-.388-.117-.09-.927-.344-1.8-.565-3.039-.767-5.287-1.398-5.637-1.579-.193-.101-.979-.291-1.747-.422-.768-.131-1.494-.32-1.614-.419-.12-.1-.805-.317-1.522-.484-.718-.166-1.631-.438-2.029-.605-.399-.166-1.363-.393-2.144-.504-.78-.11-1.661-.324-1.957-.475-.296-.15-1.168-.38-1.938-.51-.77-.131-1.779-.365-2.242-.521-.463-.155-1.449-.38-2.192-.498-.743-.119-1.457-.304-1.586-.412-.13-.107-1.004-.329-1.944-.493-.939-.164-2.026-.432-2.415-.594-.389-.162-1.362-.387-2.164-.5-.801-.112-1.727-.329-2.057-.481-.33-.153-1.32-.389-2.2-.525-.88-.136-1.825-.36-2.1-.497-.275-.137-1.22-.362-2.1-.5-.88-.137-1.706-.333-1.836-.434-.129-.102-1.04-.349-2.024-.551-.983-.201-1.957-.454-2.164-.561-.207-.106-1.006-.308-1.776-.447s-1.496-.328-1.614-.421c-.117-.092-.837-.309-1.6-.48-.762-.172-1.656-.438-1.986-.592-.33-.154-1.14-.413-1.8-.575-1.314-.323-2.508-.706-4.5-1.443-.715-.264-1.637-.537-2.05-.607-.412-.07-.75-.204-.75-.299 0-.094-.517-.32-1.15-.501-.632-.182-1.375-.448-1.65-.592-1.584-.83-5.574-2.69-5.77-2.69-.126 0-.23-.076-.23-.169 0-.092-.634-.546-1.409-1.009-.775-.462-1.563-.972-1.75-1.134-.188-.161-.981-.825-1.763-1.476-1.945-1.618-4.478-4.741-4.478-5.522 0-.132-.12-.341-.268-.463-.147-.122-.381-.606-.519-1.075-.139-.468-.375-.99-.524-1.158-.149-.168-.47-1.572-.712-3.119l-.441-2.813.424-2.826c.233-1.554.551-3.03.707-3.281.156-.25.391-.904.523-1.452.132-.549.345-1.123.475-1.277.271-.323.96-1.59 1.454-2.676.188-.412.416-.75.506-.75.091 0 .314-.292.496-.65.66-1.295 4.048-4.856 5.757-6.05.315-.22.808-.589 1.097-.821.449-.36 2.217-1.406 4.025-2.381 2.338-1.262 5.8-2.466 9.2-3.201.715-.155 1.93-.42 2.7-.59 4.075-.897 18.178-.914 21.346-.025.58.163 1.899.394 2.931.514s2.041.307 2.242.414c.2.107 1.1.335 1.999.505.899.171 1.826.431 2.058.579.233.147.829.329 1.324.404.495.075 1.219.297 1.608.494a6.955 6.955 0 0 0 1.4.505c.381.081 1.231.407 1.889.725.658.318 1.317.578 1.464.578.147 0 .4.133.562.295.162.162.656.392 1.097.51.44.119.967.382 1.17.585.203.203.648.431.99.506.341.074.62.222.62.327 0 .105.382.37.85.589.468.219 1.435.798 2.15 1.287.715.49 1.601 1.095 1.969 1.345.368.251.857.659 1.086.906.23.248.487.45.573.45.425 0 6.572 6.109 6.572 6.531 0 .146.18.378.4.515.22.138.4.344.4.46 0 .115.266.521.592.902.325.38.595.791.6.911.004.12.183.377.397.571.213.193.445.608.513.921.069.314.287.777.485 1.03.197.252.514.999.705 1.659.19.66.416 1.29.503 1.4.617.786 1.566 8.058 1.598 12.25.014 1.815-2.492 1.65 25.076 1.65 23.257 0 24.283-.015 24.6-.366.407-.45.443-2.029.063-2.794-.147-.297-.384-1.575-.526-2.84-.142-1.265-.373-2.66-.514-3.1-.141-.44-.353-1.549-.472-2.465-.118-.916-.344-1.951-.501-2.3-.158-.349-.389-1.257-.514-2.017s-.343-1.615-.484-1.9c-.14-.285-.371-1.055-.512-1.712-.142-.657-.373-1.377-.514-1.6-.14-.223-.317-.721-.393-1.106-.075-.385-.3-1.06-.499-1.5-.2-.44-.514-1.271-.698-1.848-.185-.576-.41-1.093-.5-1.149-.091-.056-.273-.552-.405-1.103-.132-.551-.314-1.047-.404-1.102-.089-.056-.492-.798-.893-1.65-.402-.851-.858-1.773-1.013-2.048a20.048 20.048 0 0 1-.606-1.2c-.535-1.157-2.511-4.4-2.682-4.4-.087 0-.211-.21-.276-.467-.064-.257-.386-.819-.715-1.25-.328-.431-.734-.963-.9-1.183-.737-.972-2.023-2.62-2.208-2.829a21.557 21.557 0 0 1-.703-.889 13.293 13.293 0 0 0-1.05-1.201c-.303-.298-.55-.597-.55-.665 0-.068-.652-.789-1.45-1.601a182.323 182.323 0 0 1-2.264-2.346c-1.195-1.277-3.613-3.569-3.764-3.569-.072 0-.577-.427-1.122-.95a43.303 43.303 0 0 0-1.708-1.55l-.955-.8c-1.018-.856-2.126-1.7-2.232-1.7-.149 0-1.744-1.217-1.93-1.472-.069-.094-.444-.364-.834-.6a55.005 55.005 0 0 1-1.775-1.145c-.586-.395-1.516-1-2.066-1.345-.55-.345-1.115-.725-1.254-.845-.14-.119-.59-.357-1-.528-.411-.17-.793-.384-.85-.475-.057-.091-.507-.351-1-.579a17.906 17.906 0 0 1-1.796-.997 10.463 10.463 0 0 0-1.835-.909c-.514-.18-1.042-.457-1.174-.616-.132-.159-.341-.289-.465-.29-.125 0-.766-.27-1.426-.599-.66-.329-1.319-.599-1.464-.599-.146-.001-.641-.217-1.1-.481-.46-.265-1.151-.545-1.536-.623-.385-.078-.835-.251-1-.385-.165-.134-.698-.357-1.186-.496-.487-.139-1.072-.371-1.3-.515-.227-.144-.903-.363-1.5-.487-.598-.124-1.185-.307-1.305-.406-.224-.187-2.289-.814-4.409-1.341-.66-.164-1.74-.469-2.4-.677a18.975 18.975 0 0 0-2.53-.566c-.731-.104-1.517-.289-1.747-.411-.229-.123-1.431-.363-2.67-.532-1.239-.17-2.613-.429-3.053-.574-.44-.146-2.15-.372-3.8-.503-1.65-.13-3.382-.319-3.848-.421-2.357-.512-16.223-.756-21.552-.379m17.8.753c1.21.119 3.685.324 5.5.457 1.815.132 3.521.323 3.792.424.27.101 1.504.317 2.742.479 1.237.162 2.593.416 3.013.564.419.148 1.337.336 2.041.418.703.081 1.556.236 1.895.343.339.107 1.427.407 2.417.666 4.745 1.245 6.544 1.786 8.654 2.605.69.268 1.359.487 1.487.487.128 0 .599.171 1.046.38.447.209 1.173.491 1.613.625.44.135.935.359 1.1.497.165.138.525.312.8.387.275.074.995.363 1.6.641 1.059.487 1.391.65 2.15 1.058.193.104 1.115.555 2.05 1.003 1.727.827 4.624 2.397 5.705 3.091.327.21.915.593 1.306.85s.783.468.871.468c.088 0 .415.203.725.45.601.478 1.225.913 2.993 2.088a41.062 41.062 0 0 1 2.2 1.594l1.6 1.254c.646.504 3.41 2.787 3.8 3.139.165.149.806.744 1.425 1.323l2 1.87c2.684 2.507 7.764 8.501 9.899 11.682.332.495.89 1.32 1.24 1.833.35.513.636 1.001.636 1.084 0 .083.125.294.278.467.446.508 4.282 8.19 4.644 9.302.182.558.4 1.104.484 1.214.084.11.296.684.47 1.276.175.591.399 1.176.498 1.3.182.225.787 2.181 1.369 4.424.172.66.435 1.515.585 1.9.15.385.402 1.394.561 2.242.159.849.374 1.704.478 1.9.104.197.295 1.213.425 2.258.129 1.045.363 2.44.52 3.1.522 2.197.901 5.502.679 5.918-.2.373-.774.382-23.867.382-27.109 0-24.21.25-24.386-2.1-.238-3.188-.911-8.877-1.091-9.225-.107-.206-.306-.87-.443-1.475-.137-.605-.36-1.28-.496-1.5-.136-.22-.362-.76-.503-1.2-.141-.44-.37-.935-.51-1.1-.141-.165-.403-.615-.583-1-1.046-2.236-2.832-4.542-5.808-7.5-3.057-3.038-2.932-2.935-8.104-6.642-.274-.197-.814-.52-1.2-.719a49.465 49.465 0 0 1-1.7-.939c-1.203-.696-3.827-1.998-4.044-2.006-.086-.004-.606-.228-1.156-.498-.55-.271-1.137-.493-1.305-.494-.169-.001-.489-.13-.712-.287-.224-.156-.986-.431-1.695-.61-.708-.179-1.57-.455-1.914-.613-.345-.159-1.2-.421-1.9-.584-.701-.162-1.814-.43-2.474-.594-8.071-2.012-23.551-2.453-28.6-.815-.44.142-1.43.371-2.2.507-.77.136-1.625.359-1.9.494-.275.136-.995.36-1.6.499-.605.139-1.325.368-1.6.508-.275.141-1.22.585-2.1.988-.88.403-1.735.819-1.9.923-.165.105-.614.334-.998.509a6.628 6.628 0 0 0-1.266.796c-.312.262-.675.477-.807.477s-.389.157-.571.35c-.183.192-.704.62-1.16.95-1.597 1.156-4.935 4.622-5.863 6.087-.239.378-.593.918-.786 1.2-.194.282-.542.918-.775 1.413-.233.495-.539 1.035-.68 1.2-.141.165-.353.66-.47 1.1a9.774 9.774 0 0 1-.619 1.592c-.223.436-.405.937-.405 1.114 0 .176-.178.99-.395 1.808-.559 2.099-.561 5.846-.005 7.586.22.689.4 1.391.4 1.56 0 .499 1.852 4.309 2.707 5.569 1.235 1.82 3.305 3.845 5.387 5.271.401.275.841.601.978.724.136.123.558.382.938.574.379.193.825.461.99.597.584.481 5.156 2.705 5.56 2.705.105 0 .294.124.42.276.126.152.498.33.828.396.329.065 1.078.346 1.664.624.587.277 1.224.504 1.417.504.193 0 .634.133.981.295 1.183.555 3.841 1.411 7.93 2.555.935.261 1.88.571 2.1.687.22.117.85.277 1.4.356.55.08 1.315.277 1.7.439.385.162 1.465.463 2.4.669 2.31.509 4.05.946 5.6 1.406.715.213 1.896.478 2.625.59.729.111 1.629.328 2 .48.371.153 1.342.388 2.157.524.814.135 1.759.361 2.1.502.34.14 1.256.353 2.036.473s1.725.344 2.1.498c.375.154 1.357.395 2.182.535s1.611.341 1.748.445c.136.105.976.317 1.866.472.89.154 2.129.45 2.752.657.624.207 1.627.442 2.229.522.602.08 1.277.256 1.5.392.223.136 1.057.358 1.854.493.797.135 1.497.322 1.554.415.058.093.801.324 1.651.513.85.19 1.853.473 2.229.63.375.156 1.227.373 1.893.48.666.107 1.31.277 1.432.379.122.101.883.323 1.692.493.809.17 1.57.392 1.693.494.123.102.939.333 1.815.513.876.181 1.695.413 1.82.517.125.104.879.324 1.675.49.796.166 1.687.426 1.979.577.293.151.889.338 1.325.414.436.077.987.261 1.224.41.238.148.868.379 1.4.512.533.133 1.419.451 1.969.706.55.254 1.135.467 1.3.471.165.005.75.23 1.3.5.55.271 1.135.494 1.3.495.165.001.595.182.955.402.36.219.774.399.92.399.146 0 .662.211 1.146.468.485.258 1.241.585 1.68.726.439.142.913.349 1.052.459.139.111 1.06.582 2.047 1.047.987.465 1.908.936 2.047 1.047.139.11.585.308.99.438.405.131.765.304.8.386.035.082.693.497 1.463.922.77.426 1.67.97 2 1.211.33.24.749.489.932.553.183.064.92.528 1.639 1.03.718.502 1.361.913 1.429.913.068 0 .499.293.957.65 1.13.881 3.176 2.504 3.536 2.805l1.1.917c1.091.909 3.679 3.415 5.507 5.333 1.35 1.416 1.985 2.158 2.903 3.395 1.562 2.103 2.354 3.219 2.648 3.731.192.334.574.995.849 1.468s.715 1.252.977 1.731c.262.478.542.915.621.97.079.055.258.46.398.9s.368.935.506 1.1c.138.165.315.525.395.8.079.275.353.95.61 1.5.554 1.189 1.02 2.56 1.429 4.2.165.66.427 1.515.583 1.9 1.006 2.486 2.446 13.561 2.219 17.064-.189 2.909-.929 9.486-1.125 10.001-.098.258-.331 1.451-.517 2.652-.187 1.201-.417 2.279-.512 2.397-.095.117-.315.837-.488 1.6-.172.762-.445 1.67-.605 2.016-.16.347-.291.782-.291.966 0 .185-.217.891-.482 1.57s-.546 1.459-.624 1.734c-.174.614-.972 2.442-1.502 3.44-.215.406-.392.911-.392 1.122 0 .21-.214.697-.476 1.083-.261.385-.58 1.005-.708 1.378-.127.372-.479.966-.781 1.318l-.549.641-28.993.022c-33.179.025-29.829.073-28.743-.41.468-.208.85-.471.85-.586 0-.114.121-.208.268-.208.236 0 1.856-.812 4.419-2.215.434-.237.912-.556 1.065-.708.152-.152.348-.277.435-.277.609 0 5.835-4.773 7.117-6.5.327-.44.648-.845.715-.9.486-.401 2.579-4.3 2.58-4.805.001-.169.136-.498.3-.733 1.54-2.198 2.418-16.529 1.113-18.155-.092-.114-.234-.612-.315-1.107-.181-1.092-1.148-3.558-1.755-4.471a41.236 41.236 0 0 1-.942-1.514 13.512 13.512 0 0 0-1.231-1.681l-1.1-1.26c-.503-.581-3.429-2.939-4.169-3.36a88.23 88.23 0 0 1-1.4-.821c-.989-.592-4.035-2.093-4.249-2.093-.086 0-.471-.167-.854-.371a11.371 11.371 0 0 0-1.497-.63c-.44-.143-.98-.372-1.2-.509-.22-.138-.875-.349-1.456-.469-.58-.121-1.255-.348-1.5-.505-.244-.156-.894-.348-1.444-.425-.55-.077-1.36-.301-1.8-.498-.44-.196-1.385-.458-2.1-.581-.715-.123-1.66-.35-2.1-.504-.44-.155-1.463-.38-2.273-.5-.811-.12-1.652-.314-1.87-.431-.219-.117-1.262-.342-2.318-.501-1.057-.159-2.376-.413-2.93-.566-.555-.152-1.774-.386-2.709-.52s-1.866-.329-2.069-.434c-.202-.104-1.282-.317-2.4-.473-1.117-.156-2.293-.374-2.614-.484-.321-.111-1.491-.337-2.6-.504-1.109-.167-2.467-.431-3.017-.588-1.037-.295-4.353-.946-7.3-1.433-.935-.154-2.016-.405-2.401-.556-.386-.152-1.405-.382-2.264-.513-.858-.13-1.848-.354-2.198-.498-.35-.145-1.132-.329-1.737-.409-.605-.081-1.505-.305-2-.499-.495-.194-1.515-.448-2.267-.565-.751-.117-1.471-.298-1.6-.402-.128-.105-.982-.342-1.897-.527s-1.95-.454-2.3-.597c-.35-.143-1.253-.365-2.008-.494-.754-.128-1.564-.354-1.8-.502-.235-.148-.878-.332-1.428-.409-.55-.077-1.36-.302-1.8-.499-.44-.197-1.289-.461-1.886-.587-.598-.126-1.183-.308-1.301-.406-.118-.098-.889-.358-1.713-.578-1.792-.478-3.71-1.139-4.4-1.514-.275-.15-.815-.338-1.2-.417a5.176 5.176 0 0 1-1.3-.495c-.33-.192-1.026-.463-1.546-.603-.521-.14-1.049-.378-1.175-.529-.125-.151-.373-.275-.551-.275-.177 0-.774-.221-1.325-.491a49.821 49.821 0 0 0-1.703-.796c-.385-.168-.835-.395-1-.504-.165-.11-.615-.335-1-.5-.385-.166-.835-.388-1-.495-.323-.208-.985-.55-2.385-1.232-.487-.238-.982-.513-1.1-.612-.251-.211-1.482-.979-3.315-2.068-1.373-.817-1.561-.948-3.564-2.503-.696-.54-1.438-1.036-1.65-1.104-.212-.067-.386-.193-.386-.279 0-.086-.562-.594-1.25-1.128-1.976-1.535-5.289-4.8-7.192-7.088a336.807 336.807 0 0 0-2.025-2.422 8.26 8.26 0 0 1-.648-.95c-.204-.346-.432-.628-.505-.628-.074 0-.284-.292-.468-.65-.183-.358-.822-1.415-1.419-2.35-.597-.935-1.278-2.128-1.514-2.65-.235-.522-.496-.95-.58-.95-.083 0-.259-.427-.39-.95-.132-.522-.359-1.085-.506-1.25-.147-.165-.421-.84-.609-1.5s-.411-1.29-.494-1.4c-.083-.11-.306-.74-.495-1.4-.188-.66-.417-1.29-.507-1.4-.09-.11-.307-.957-.483-1.882-.175-.925-.395-1.78-.488-1.9-.094-.12-.281-1.073-.415-2.118-.135-1.045-.396-2.53-.579-3.3-.419-1.762-.496-15.313-.096-17 .13-.55.38-2.097.555-3.437.175-1.341.446-2.743.602-3.117.156-.373.345-1.166.42-1.762.076-.596.266-1.399.423-1.784.158-.385.455-1.285.662-2 .488-1.691 1.125-3.487 1.612-4.548.214-.466.389-.904.389-.973 0-.239 3.434-6.986 4.011-7.879.32-.495.663-1.08.764-1.3.101-.22.418-.67.704-1 .286-.33.521-.655.521-.722 0-.068.247-.441.55-.831.303-.389.73-.957.95-1.263 2.116-2.941 6.493-7.509 9.8-10.229a697.19 697.19 0 0 0 2.5-2.064c.83-.695 2.888-2.123 3.565-2.473.349-.18.635-.398.635-.483 0-.086.383-.358.85-.605a40.67 40.67 0 0 0 1.65-.933c.44-.265 1.154-.676 1.587-.913.434-.237.912-.555 1.065-.707.152-.152.438-.277.635-.277.198 0 .592-.183.877-.407a4.764 4.764 0 0 1 1.177-.632c.362-.124.874-.391 1.136-.593.262-.202.576-.368.697-.368s.672-.218 1.223-.484c2.02-.976 3.285-1.516 3.548-1.516.149 0 .627-.183 1.063-.407a9.266 9.266 0 0 1 1.692-.628c.495-.122 1.125-.346 1.4-.499.541-.3 2.365-.857 4.9-1.498.88-.222 1.691-.479 1.802-.571.112-.092.985-.303 1.942-.47.957-.167 1.905-.393 2.108-.501.203-.109 1.344-.343 2.536-.52s2.329-.408 2.527-.514c.198-.106 1.473-.323 2.832-.482 1.36-.159 2.715-.382 3.013-.495.297-.113 2.183-.309 4.19-.435 2.008-.127 4.685-.345 5.95-.486 2.741-.303 13.781-.263 17.1.063M100.695 242.883c-.335.428-.412.694-.291 1 .092.229.269 1.272.394 2.317.125 1.045.35 2.35.499 2.9.15.55.377 1.72.506 2.6.128.88.354 1.87.502 2.2.148.33.376 1.32.507 2.2.131.88.351 1.784.49 2.008.139.224.358.944.487 1.6.129.656.409 1.614.623 2.129.213.515.388 1.145.389 1.4 0 .255.165.733.365 1.063.201.33.428.913.504 1.295.076.383.308 1.058.516 1.5.208.443.523 1.323.701 1.955.178.633.405 1.15.503 1.15.098 0 .239.293.314.65.074.357.298 1.01.497 1.45 1.048 2.321 1.847 4.033 2.006 4.3.099.165.595 1.11 1.103 2.1s1.163 2.218 1.457 2.73c.293.511.732 1.288.974 1.725.243.438.586.851.761.918.594.228 64.074.154 64.502-.075.628-.336.465-.727-.454-1.093-.467-.186-.985-.45-1.15-.587-.165-.137-.705-.363-1.2-.503s-1.035-.369-1.2-.509c-.165-.141-.637-.364-1.05-.496-.412-.133-.75-.318-.75-.412 0-.094-.16-.222-.356-.284-.196-.062-.848-.423-1.45-.803-9.939-6.266-16.478-15.916-18.189-26.844-.209-1.338-.47-2.778-.581-3.2-.11-.422-.262-1.937-.337-3.367-.076-1.43-.218-2.754-.316-2.943-.392-.756-1.114-.776-26.299-.716l-24.521.059-.456.583m50.248.236l.592.118.252 3.711c.139 2.041.371 4.125.517 4.631.146.507.371 1.641.499 2.521.127.88.393 2.005.59 2.5.197.495.421 1.25.497 1.677.076.428.312 1.101.524 1.497.212.396.386.866.386 1.044 0 .359 2.259 4.859 2.652 5.281.136.147.518.736.848 1.309 1.179 2.048 4.978 6.394 7.276 8.324.372.312.927.793 1.233 1.068 1.481 1.332 3.619 2.793 5.707 3.901.669.355 1.434.783 1.7.95.266.167.844.419 1.284.558.44.14.902.392 1.026.562.124.169.574.415 1 .547 1.013.314 2.303.303-33.218.287l-29.191-.014-.443-.415a3.437 3.437 0 0 1-.682-.996c-.132-.319-.31-.58-.395-.58-.084 0-.208-.218-.275-.485-.067-.266-.335-.739-.596-1.05-.261-.311-.538-.856-.615-1.213-.078-.356-.214-.692-.303-.747-.204-.126-2.527-4.836-2.715-5.505-.077-.275-.249-.635-.382-.8-.133-.165-.356-.699-.495-1.186a9.752 9.752 0 0 0-.635-1.597c-.209-.391-.382-.847-.383-1.014-.001-.167-.226-.784-.5-1.373-.274-.588-.498-1.212-.498-1.387 0-.174-.175-.683-.388-1.13-.214-.447-.532-1.437-.706-2.199-.174-.763-.395-1.483-.49-1.6-.095-.118-.325-.934-.511-1.814-.187-.88-.456-1.87-.597-2.2-.142-.33-.316-1.124-.387-1.765-.07-.64-.262-1.484-.425-1.875-.163-.391-.432-1.712-.597-2.936-.166-1.223-.397-2.629-.515-3.124-.457-1.916-.579-3.065-.355-3.335.229-.276 48.359-.417 49.714-.146m-34.992 68.867c-1.273.177-1.389.342-1.422 2.012-.037 1.816.23 2.085 2.248 2.273 4.232.393 173.652.034 173.946-.369.534-.73.299-3.53-.323-3.844-.541-.273-172.5-.344-174.449-.072" fill="#6a7db3"/><path d="M0 200v200h400V0H0v200M206.352 84.001c1.788.109 3.633.281 4.1.382.466.102 2.198.291 3.848.421 1.65.131 3.36.357 3.8.503.44.145 1.814.404 3.053.574 1.239.169 2.441.409 2.67.532.23.122 1.016.307 1.747.411.732.103 1.87.358 2.53.566.66.208 1.74.513 2.4.677 2.12.527 4.185 1.154 4.409 1.341.12.099.707.282 1.305.406.597.124 1.273.343 1.5.487.228.144.813.376 1.3.515.488.139 1.021.362 1.186.496.165.134.615.307 1 .385.385.078 1.076.358 1.536.623.459.264.954.48 1.1.481.145 0 .804.27 1.464.599.66.329 1.301.599 1.426.599.124.001.333.131.465.29.132.159.66.436 1.174.616.514.18 1.34.589 1.835.909.495.32 1.303.768 1.796.997.493.228.943.488 1 .579.057.091.439.305.85.475.41.171.86.409 1 .528.139.12.704.5 1.254.845s1.48.95 2.066 1.345c.587.394 1.385.91 1.775 1.145.39.236.765.506.834.6.186.255 1.781 1.472 1.93 1.472.106 0 1.214.844 2.232 1.7l.955.8c.394.33 1.163 1.028 1.708 1.55.545.523 1.05.95 1.122.95.151 0 2.569 2.292 3.764 3.569.448.478 1.467 1.534 2.264 2.346.798.812 1.45 1.533 1.45 1.601 0 .068.247.367.55.665.303.298.775.838 1.05 1.201.275.363.591.763.703.889.185.209 1.471 1.857 2.208 2.829.166.22.572.752.9 1.183.329.431.651.993.715 1.25.065.257.189.467.276.467.171 0 2.147 3.243 2.682 4.4.178.385.45.925.606 1.2.155.275.611 1.197 1.013 2.048.401.852.804 1.594.893 1.65.09.055.272.551.404 1.102s.314 1.047.405 1.103c.09.056.315.573.5 1.149.184.577.498 1.408.698 1.848.199.44.424 1.115.499 1.5.076.385.253.883.393 1.106.141.223.372.943.514 1.6.141.657.372 1.427.512 1.712.141.285.359 1.14.484 1.9s.356 1.668.514 2.017c.157.349.383 1.384.501 2.3.119.916.331 2.025.472 2.465.141.44.372 1.835.514 3.1.142 1.265.379 2.543.526 2.84.38.765.344 2.344-.063 2.794-.317.351-1.343.366-24.6.366-27.568 0-25.062.165-25.076-1.65-.032-4.192-.981-11.464-1.598-12.25-.087-.11-.313-.74-.503-1.4-.191-.66-.508-1.407-.705-1.659a3.054 3.054 0 0 1-.485-1.03c-.068-.313-.3-.728-.513-.921-.214-.194-.393-.451-.397-.571-.005-.12-.275-.531-.6-.911-.326-.381-.592-.787-.592-.902 0-.116-.18-.322-.4-.46-.22-.137-.4-.369-.4-.515 0-.422-6.147-6.531-6.572-6.531-.086 0-.343-.202-.573-.45-.229-.247-.718-.655-1.086-.906-.368-.25-1.254-.855-1.969-1.345-.715-.489-1.682-1.068-2.15-1.287-.468-.219-.85-.484-.85-.589 0-.105-.279-.253-.62-.327-.342-.075-.787-.303-.99-.506-.203-.203-.73-.466-1.17-.585-.441-.118-.935-.348-1.097-.51-.162-.162-.415-.295-.562-.295-.147 0-.806-.26-1.464-.578-.658-.318-1.508-.644-1.889-.725a6.955 6.955 0 0 1-1.4-.505c-.389-.197-1.113-.419-1.608-.494-.495-.075-1.091-.257-1.324-.404-.232-.148-1.159-.408-2.058-.579-.899-.17-1.799-.398-1.999-.505-.201-.107-1.21-.294-2.242-.414s-2.351-.351-2.931-.514c-3.168-.889-17.271-.872-21.346.025-.77.17-1.985.435-2.7.59-3.4.735-6.862 1.939-9.2 3.201-1.808.975-3.576 2.021-4.025 2.381-.289.232-.782.601-1.097.821-1.709 1.194-5.097 4.755-5.757 6.05-.182.358-.405.65-.496.65-.09 0-.318.338-.506.75-.494 1.086-1.183 2.353-1.454 2.676-.13.154-.343.728-.475 1.277-.132.548-.367 1.202-.523 1.452-.156.251-.474 1.727-.707 3.281l-.424 2.826.441 2.813c.242 1.547.563 2.951.712 3.119.149.168.385.69.524 1.158.138.469.372.953.519 1.075.148.122.268.331.268.463 0 .781 2.533 3.904 4.478 5.522.782.651 1.575 1.315 1.763 1.476.187.162.975.672 1.75 1.134.775.463 1.409.917 1.409 1.009 0 .093.104.169.23.169.196 0 4.186 1.86 5.77 2.69.275.144 1.018.41 1.65.592.633.181 1.15.407 1.15.501 0 .095.338.229.75.299.413.07 1.335.343 2.05.607 1.992.737 3.186 1.12 4.5 1.443.66.162 1.47.421 1.8.575.33.154 1.224.42 1.986.592.763.171 1.483.388 1.6.48.118.093.844.282 1.614.421.77.139 1.569.341 1.776.447.207.107 1.181.36 2.164.561.984.202 1.895.449 2.024.551.13.101.956.297 1.836.434.88.138 1.825.363 2.1.5.275.137 1.22.361 2.1.497.88.136 1.87.372 2.2.525.33.152 1.256.369 2.057.481.802.113 1.775.338 2.164.5.389.162 1.476.43 2.415.594.94.164 1.814.386 1.944.493.129.108.843.293 1.586.412.743.118 1.729.343 2.192.498.463.156 1.472.39 2.242.521.77.13 1.642.36 1.938.51.296.151 1.177.365 1.957.475.781.111 1.745.338 2.144.504.398.167 1.311.439 2.029.605.717.167 1.402.384 1.522.484.12.099.846.288 1.614.419.768.131 1.554.321 1.747.422.35.181 2.598.812 5.637 1.579.873.221 1.683.475 1.8.565.116.09.734.265 1.372.388.638.124 1.448.357 1.8.517.352.16 1.18.395 1.84.523.66.127 1.38.345 1.6.483.22.138.895.366 1.5.507.605.141 1.478.424 1.939.63.461.206.956.376 1.1.377.144.001.711.223 1.261.494.55.27 1.138.494 1.308.498.169.003.664.188 1.1.411a9.774 9.774 0 0 0 1.592.619c.44.117.935.328 1.1.469.165.141.66.369 1.1.507.44.138.935.367 1.1.51.165.142.57.324.9.404.33.08 1.059.388 1.619.685.561.296 1.191.6 1.4.676.21.076.807.383 1.328.682.521.298 1.781.981 2.8 1.517 1.019.535 1.898 1.036 1.953 1.111.055.076.386.253.736.395.349.141.791.428.981.638.19.21.415.382.5.382.131 0 1.271.743 3.068 2 .236.165.731.48 1.099.7.369.22.924.625 1.234.9.31.275.77.656 1.023.847.818.619 2.087 1.644 2.478 2.002.209.193.954.868 1.654 1.5 1.54 1.393 3.549 3.449 3.99 4.086.178.256.528.629.78.83.251.2.457.471.457.601 0 .131.18.35.4.488.22.137.4.342.4.454 0 .113.297.502.659.864.781.781 2.229 2.861 2.428 3.487.077.242.228.441.337.441.108 0 .336.338.506.75.17.413.427.885.57 1.05.522.602 2.921 5.499 3.516 7.178.21.593.462 1.178.561 1.3.098.122.293.762.434 1.422.14.66.365 1.425.499 1.7.134.275.353 1.04.486 1.7.133.66.367 1.605.521 2.1.154.495.418 1.935.588 3.2.17 1.265.389 2.761.486 3.324.528 3.06.417 12.131-.181 14.694-.113.485-.34 1.893-.505 3.13-.164 1.236-.384 2.406-.487 2.6-.104.193-.29 1.027-.414 1.852-.123.825-.34 1.68-.481 1.9-.142.22-.369.985-.504 1.7s-.42 1.64-.633 2.056c-.212.416-.386.983-.386 1.259 0 .277-.225.926-.5 1.443-.275.516-.5 1.075-.501 1.24 0 .166-.166.574-.369.907a8.089 8.089 0 0 0-.629 1.392 15.782 15.782 0 0 1-.73 1.724c-.259.515-.471 1.026-.471 1.134 0 .108-.12.296-.268.418-.147.122-.37.561-.496.975-.312 1.023-1.311 2.051-1.996 2.054-41.484.151-59.84-.039-59.84-.621 0-.188 3.081-1.699 3.85-1.889.303-.074.55-.204.55-.287 0-.083.428-.347.95-.586 1.352-.617 2.241-1.104 2.728-1.492.232-.185.917-.664 1.522-1.063 1.367-.903 3.139-2.41 4.591-3.906 1.734-1.786 1.858-1.947 3.291-4.245.852-1.367 1.873-3.456 2.011-4.114.08-.384.269-.894.42-1.132.151-.238.371-1.048.49-1.8s.347-1.875.507-2.496c.34-1.324.413-8.821.094-9.661-.108-.283-.33-1.414-.495-2.511-.164-1.098-.429-2.199-.589-2.448-.16-.248-.351-.783-.425-1.189-.074-.406-.351-1.031-.615-1.389-.264-.358-.48-.754-.48-.881 0-.126-.177-.39-.392-.585-.216-.196-.493-.659-.616-1.031-.123-.372-.354-.676-.514-.676-.16 0-.349-.157-.42-.35-.134-.359-2.244-2.476-3.087-3.097-.259-.19-.735-.55-1.059-.8-.811-.626-1.88-1.284-2.712-1.669-.385-.178-.835-.435-1-.571-.165-.136-.615-.367-1-.513-.385-.146-.835-.377-1-.513-.165-.136-.705-.362-1.2-.502s-1.035-.365-1.2-.501c-.165-.136-.705-.352-1.2-.482-.495-.129-1.082-.351-1.304-.493-.223-.142-.808-.323-1.3-.403-.493-.079-1.174-.304-1.513-.499-.339-.195-1.239-.462-2-.593-.761-.132-1.572-.362-1.803-.512-.232-.15-1.119-.37-1.972-.488-.854-.119-1.835-.349-2.18-.51-.345-.162-1.496-.424-2.558-.582-1.061-.157-2.096-.374-2.3-.481-.203-.107-.955-.257-1.67-.333-.715-.076-2.245-.348-3.4-.606a150.435 150.435 0 0 0-7.2-1.42c-.935-.161-2.162-.426-2.726-.59-.564-.163-1.764-.39-2.668-.503-.903-.113-2.026-.336-2.495-.495-.468-.16-1.563-.382-2.431-.494-1.462-.188-2.697-.452-6.08-1.301a43.543 43.543 0 0 0-2.5-.537 33.77 33.77 0 0 1-2.3-.501 87.097 87.097 0 0 0-2.881-.677c-.979-.212-1.879-.465-2-.562-.12-.097-.894-.282-1.719-.412-.825-.13-1.77-.328-2.1-.442-.884-.304-3.957-1.126-5.876-1.573-.922-.214-1.777-.471-1.9-.571-.123-.099-.764-.289-1.424-.421-.66-.132-1.38-.35-1.6-.485-.22-.134-.94-.36-1.6-.5-.66-.141-1.381-.37-1.602-.51-.221-.14-.895-.36-1.497-.489-.603-.129-1.291-.363-1.53-.519-.239-.157-.87-.39-1.402-.517-.533-.128-1.149-.344-1.369-.48-.22-.135-.913-.395-1.54-.577-.627-.182-1.195-.42-1.262-.529-.067-.108-.275-.197-.463-.197-.187 0-.88-.263-1.538-.584-.658-.321-1.441-.645-1.739-.719-.298-.075-.646-.262-.774-.417-.128-.154-.344-.28-.479-.28s-1.361-.574-2.725-1.276c-3.481-1.791-3.984-2.067-4.354-2.39-.179-.157-.637-.443-1.016-.636-.38-.192-.814-.473-.965-.624-.15-.151-.387-.274-.525-.274-.242 0-1.899-1.026-2.519-1.559-.429-.369-2.773-2.103-3.166-2.341-1.662-1.008-8.789-7.783-9.559-9.087-.199-.337-.43-.613-.512-.613-.083 0-.56-.607-1.06-1.35a57.892 57.892 0 0 0-1.599-2.25c-.749-.978-.925-1.251-1.757-2.723a40.21 40.21 0 0 0-.745-1.277 9.109 9.109 0 0 1-.494-1 9.793 9.793 0 0 0-.491-1c-.377-.594-1.418-2.937-1.418-3.192 0-.144-.167-.541-.371-.884-.204-.343-.488-1.074-.631-1.624-.143-.55-.334-1.096-.424-1.214-.089-.117-.299-.801-.466-1.518-.166-.718-.43-1.612-.586-1.987-.155-.374-.343-1.221-.417-1.881-.074-.66-.303-1.875-.508-2.7-.983-3.952-1.088-18.603-.16-22.3.11-.44.328-1.61.483-2.6.156-.99.413-2.115.572-2.5.159-.385.391-1.24.517-1.9.125-.66.344-1.384.486-1.608.143-.224.37-.942.505-1.594.136-.653.416-1.503.623-1.889.208-.387.377-.849.377-1.026 0-.178.215-.727.477-1.22.262-.494.538-1.176.613-1.516.075-.341.259-.722.41-.847.151-.125.33-.48.398-.789.067-.309.339-.854.602-1.211.263-.357.534-.899.601-1.204.067-.305.297-.713.51-.906.214-.194.389-.491.389-.66 0-.17.211-.628.47-1.019.258-.391.816-1.251 1.24-1.911.424-.66.888-1.319 1.03-1.464.143-.146.26-.335.26-.421 0-.086.203-.387.45-.669.248-.282.99-1.258 1.65-2.169 1.065-1.471 7.255-7.866 8.883-9.177.341-.275.867-.705 1.169-.956.557-.463 2.021-1.613 2.748-2.158 1.438-1.078 1.936-1.431 2.521-1.786l1.018-.618c.197-.12.516-.358.71-.53.193-.172.666-.456 1.051-.633.385-.176 1.105-.588 1.6-.916.495-.328 1.125-.698 1.4-.821.275-.124.635-.302.8-.397 1.081-.619 3.487-1.785 3.684-1.785.131 0 .531-.216.889-.48s.983-.542 1.389-.617c.406-.075.873-.253 1.038-.395.165-.141.66-.371 1.1-.509.44-.138.898-.329 1.018-.423.265-.209 2.765-1.077 4.282-1.488.605-.164 1.325-.421 1.6-.571.275-.15 1.04-.383 1.7-.518.66-.135 1.425-.357 1.7-.495.275-.138.86-.312 1.3-.387.44-.075 1.565-.35 2.5-.611s2.15-.534 2.7-.605c.55-.072 1.36-.249 1.8-.394.44-.145 1.655-.371 2.7-.501 1.045-.131 2.395-.357 3-.504.605-.146 1.82-.324 2.7-.395.88-.072 2.815-.272 4.3-.446 5.557-.65 15.6-.858 22.152-.46m-55.359 158.397c1.064.287 1.133.475 1.294 3.502.075 1.43.227 2.945.337 3.367.111.422.372 1.862.581 3.2 1.711 10.928 8.25 20.578 18.189 26.844.602.38 1.254.741 1.45.803.196.062.356.19.356.284 0 .094.338.279.75.412.413.132.885.355 1.05.496.165.14.705.369 1.2.509s1.035.366 1.2.503c.165.137.683.401 1.15.587.919.366 1.082.757.454 1.093-.428.229-63.908.303-64.502.075-.175-.067-.518-.48-.761-.918-.242-.437-.681-1.214-.974-1.725a86.608 86.608 0 0 1-1.457-2.73 79.73 79.73 0 0 0-1.103-2.1c-.159-.267-.958-1.979-2.006-4.3-.199-.44-.423-1.093-.497-1.45-.075-.357-.216-.65-.314-.65s-.325-.517-.503-1.15c-.178-.632-.493-1.512-.701-1.955-.208-.442-.44-1.117-.516-1.5a4.781 4.781 0 0 0-.504-1.295c-.2-.33-.365-.808-.365-1.063-.001-.255-.176-.885-.389-1.4-.214-.515-.494-1.473-.623-2.129-.129-.656-.348-1.376-.487-1.6-.139-.224-.359-1.128-.49-2.008-.131-.88-.359-1.87-.507-2.2-.148-.33-.374-1.32-.502-2.2-.129-.88-.356-2.05-.506-2.6-.149-.55-.374-1.855-.499-2.9s-.302-2.088-.394-2.317c-.121-.306-.044-.572.291-1l.456-.583 24.521-.059c17.07-.041 24.764.007 25.321.157m139.407 69.66c.622.314.857 3.114.323 3.844-.294.403-169.714.762-173.946.369-2.018-.188-2.285-.457-2.248-2.273.033-1.67.149-1.835 1.422-2.012 1.949-.272 173.908-.201 174.449.072" fill="#424044"/><path d="M189.6 84.694c-1.265.141-3.942.359-5.95.486-2.007.126-3.893.322-4.19.435-.298.113-1.653.336-3.013.495-1.359.159-2.634.376-2.832.482-.198.106-1.335.337-2.527.514-1.192.177-2.333.411-2.536.52-.203.108-1.151.334-2.108.501-.957.167-1.83.378-1.942.47-.111.092-.922.349-1.802.571-2.535.641-4.359 1.198-4.9 1.498-.275.153-.905.377-1.4.499a9.266 9.266 0 0 0-1.692.628c-.436.224-.914.407-1.063.407-.263 0-1.528.54-3.548 1.516-.551.266-1.102.484-1.223.484s-.435.166-.697.368c-.262.202-.774.469-1.136.593a4.764 4.764 0 0 0-1.177.632c-.285.224-.679.407-.877.407-.197 0-.483.125-.635.277-.153.152-.631.47-1.065.707-.433.237-1.147.648-1.587.913a40.67 40.67 0 0 1-1.65.933c-.467.247-.85.519-.85.605 0 .085-.286.303-.635.483-.677.35-2.735 1.778-3.565 2.473-.275.23-1.4 1.159-2.5 2.064-3.307 2.72-7.684 7.288-9.8 10.229-.22.306-.647.874-.95 1.263-.303.39-.55.763-.55.831 0 .067-.235.392-.521.722-.286.33-.603.78-.704 1-.101.22-.444.805-.764 1.3-.577.893-4.011 7.64-4.011 7.879 0 .069-.175.507-.389.973-.487 1.061-1.124 2.857-1.612 4.548-.207.715-.504 1.615-.662 2-.157.385-.347 1.188-.423 1.784-.075.596-.264 1.389-.42 1.762-.156.374-.427 1.776-.602 3.117-.175 1.34-.425 2.887-.555 3.437-.4 1.687-.323 15.238.096 17 .183.77.444 2.255.579 3.3.134 1.045.321 1.998.415 2.118.093.12.313.975.488 1.9.176.925.393 1.772.483 1.882.09.11.319.74.507 1.4.189.66.412 1.29.495 1.4.083.11.306.74.494 1.4.188.66.462 1.335.609 1.5.147.165.374.728.506 1.25.131.523.307.95.39.95.084 0 .345.428.58.95.236.522.917 1.715 1.514 2.65.597.935 1.236 1.992 1.419 2.35.184.358.394.65.468.65.073 0 .301.282.505.628.203.345.495.772.648.95.154.177 1.065 1.267 2.025 2.422 1.903 2.288 5.216 5.553 7.192 7.088.688.534 1.25 1.042 1.25 1.128 0 .086.174.212.386.279.212.068.954.564 1.65 1.104 2.003 1.555 2.191 1.686 3.564 2.503 1.833 1.089 3.064 1.857 3.315 2.068.118.099.613.374 1.1.612 1.4.682 2.062 1.024 2.385 1.232.165.107.615.329 1 .495.385.165.835.39 1 .5.165.109.615.336 1 .504.385.167 1.151.525 1.703.796.551.27 1.148.491 1.325.491.178 0 .426.124.551.275.126.151.654.389 1.175.529.52.14 1.216.411 1.546.603.33.193.915.415 1.3.495.385.079.925.267 1.2.417.69.375 2.608 1.036 4.4 1.514.824.22 1.595.48 1.713.578.118.098.703.28 1.301.406.597.126 1.446.39 1.886.587.44.197 1.25.422 1.8.499.55.077 1.193.261 1.428.409.236.148 1.046.374 1.8.502.755.129 1.658.351 2.008.494.35.143 1.385.412 2.3.597.915.185 1.769.422 1.897.527.129.104.849.285 1.6.402.752.117 1.772.371 2.267.565.495.194 1.395.418 2 .499.605.08 1.387.264 1.737.409.35.144 1.34.368 2.198.498.859.131 1.878.361 2.264.513.385.151 1.466.402 2.401.556 2.947.487 6.263 1.138 7.3 1.433.55.157 1.908.421 3.017.588 1.109.167 2.279.393 2.6.504.321.11 1.497.328 2.614.484 1.118.156 2.198.369 2.4.473.203.105 1.134.3 2.069.434s2.154.368 2.709.52c.554.153 1.873.407 2.93.566 1.056.159 2.099.384 2.318.501.218.117 1.059.311 1.87.431.81.12 1.833.345 2.273.5.44.154 1.385.381 2.1.504.715.123 1.66.385 2.1.581.44.197 1.25.421 1.8.498.55.077 1.2.269 1.444.425.245.157.92.384 1.5.505.581.12 1.236.331 1.456.469.22.137.76.366 1.2.509.44.143 1.114.427 1.497.63.383.204.768.371.854.371.214 0 3.26 1.501 4.249 2.093.44.264 1.07.633 1.4.821.74.421 3.666 2.779 4.169 3.36l1.1 1.26c.402.458.956 1.215 1.231 1.681.275.466.699 1.148.942 1.514.607.913 1.574 3.379 1.755 4.471.081.495.223.993.315 1.107 1.305 1.626.427 15.957-1.113 18.155-.164.235-.299.564-.3.733-.001.505-2.094 4.404-2.58 4.805-.067.055-.388.46-.715.9-1.282 1.727-6.508 6.5-7.117 6.5-.087 0-.283.125-.435.277-.153.152-.631.471-1.065.708-2.563 1.403-4.183 2.215-4.419 2.215-.147 0-.268.094-.268.208 0 .115-.382.378-.85.586-1.086.483-4.436.435 28.743.41l28.993-.022.549-.641c.302-.352.654-.946.781-1.318.128-.373.447-.993.708-1.378.262-.386.476-.873.476-1.083 0-.211.177-.716.392-1.122.53-.998 1.328-2.826 1.502-3.44.078-.275.359-1.055.624-1.734s.482-1.385.482-1.57c0-.184.131-.619.291-.966.16-.346.433-1.254.605-2.016.173-.763.393-1.483.488-1.6.095-.118.325-1.196.512-2.397.186-1.201.419-2.394.517-2.652.196-.515.936-7.092 1.125-10.001.227-3.503-1.213-14.578-2.219-17.064-.156-.385-.418-1.24-.583-1.9-.409-1.64-.875-3.011-1.429-4.2-.257-.55-.531-1.225-.61-1.5-.08-.275-.257-.635-.395-.8-.138-.165-.366-.66-.506-1.1-.14-.44-.319-.845-.398-.9-.079-.055-.359-.492-.621-.97a92.29 92.29 0 0 0-.977-1.731c-.275-.473-.657-1.134-.849-1.468-.294-.512-1.086-1.628-2.648-3.731-.918-1.237-1.553-1.979-2.903-3.395-1.828-1.918-4.416-4.424-5.507-5.333a446.62 446.62 0 0 1-1.1-.917c-.36-.301-2.406-1.924-3.536-2.805-.458-.357-.889-.65-.957-.65-.068 0-.711-.411-1.429-.913-.719-.502-1.456-.966-1.639-1.03-.183-.064-.602-.313-.932-.553-.33-.241-1.23-.785-2-1.211-.77-.425-1.428-.84-1.463-.922-.035-.082-.395-.255-.8-.386-.405-.13-.851-.328-.99-.438-.139-.111-1.06-.582-2.047-1.047-.987-.465-1.908-.936-2.047-1.047-.139-.11-.613-.317-1.052-.459a12.524 12.524 0 0 1-1.68-.726c-.484-.257-1-.468-1.146-.468-.146 0-.56-.18-.92-.399-.36-.22-.79-.401-.955-.402-.165-.001-.75-.224-1.3-.495-.55-.27-1.135-.495-1.3-.5-.165-.004-.75-.217-1.3-.471a13.383 13.383 0 0 0-1.969-.706c-.532-.133-1.162-.364-1.4-.512-.237-.149-.788-.333-1.224-.41-.436-.076-1.032-.263-1.325-.414-.292-.151-1.183-.411-1.979-.577-.796-.166-1.55-.386-1.675-.49-.125-.104-.944-.336-1.82-.517-.876-.18-1.692-.411-1.815-.513-.123-.102-.884-.324-1.693-.494-.809-.17-1.57-.392-1.692-.493-.122-.102-.766-.272-1.432-.379-.666-.107-1.518-.324-1.893-.48-.376-.157-1.379-.44-2.229-.63-.85-.189-1.593-.42-1.651-.513-.057-.093-.757-.28-1.554-.415-.797-.135-1.631-.357-1.854-.493-.223-.136-.898-.312-1.5-.392a14.743 14.743 0 0 1-2.229-.522c-.623-.207-1.862-.503-2.752-.657-.89-.155-1.73-.367-1.866-.472-.137-.104-.923-.305-1.748-.445s-1.807-.381-2.182-.535c-.375-.154-1.32-.378-2.1-.498s-1.696-.333-2.036-.473c-.341-.141-1.286-.367-2.1-.502-.815-.136-1.786-.371-2.157-.524-.371-.152-1.271-.369-2-.48a23.765 23.765 0 0 1-2.625-.59c-1.55-.46-3.29-.897-5.6-1.406-.935-.206-2.015-.507-2.4-.669-.385-.162-1.15-.359-1.7-.439-.55-.079-1.18-.239-1.4-.356-.22-.116-1.165-.426-2.1-.687-4.089-1.144-6.747-2-7.93-2.555-.347-.162-.788-.295-.981-.295-.193 0-.83-.227-1.417-.504-.586-.278-1.335-.559-1.664-.624-.33-.066-.702-.244-.828-.396-.126-.152-.315-.276-.42-.276-.404 0-4.976-2.224-5.56-2.705-.165-.136-.611-.404-.99-.597-.38-.192-.802-.451-.938-.574a13.653 13.653 0 0 0-.978-.724c-2.082-1.426-4.152-3.451-5.387-5.271-.855-1.26-2.707-5.07-2.707-5.569 0-.169-.18-.871-.4-1.56-.556-1.74-.554-5.487.005-7.586.217-.818.395-1.632.395-1.808 0-.177.182-.678.405-1.114a9.774 9.774 0 0 0 .619-1.592c.117-.44.329-.935.47-1.1.141-.165.447-.705.68-1.2.233-.495.581-1.131.775-1.413.193-.282.547-.822.786-1.2.928-1.465 4.266-4.931 5.863-6.087.456-.33.977-.758 1.16-.95.182-.193.439-.35.571-.35.132 0 .495-.215.807-.477a6.628 6.628 0 0 1 1.266-.796c.384-.175.833-.404.998-.509.165-.104 1.02-.52 1.9-.923.88-.403 1.825-.847 2.1-.988.275-.14.995-.369 1.6-.508.605-.139 1.325-.363 1.6-.499.275-.135 1.13-.358 1.9-.494s1.76-.365 2.2-.507c5.049-1.638 20.529-1.197 28.6.815.66.164 1.773.432 2.474.594.7.163 1.555.425 1.9.584.344.158 1.206.434 1.914.613.709.179 1.471.454 1.695.61.223.157.543.286.712.287.168.001.755.223 1.305.494.55.27 1.07.494 1.156.498.217.008 2.841 1.31 4.044 2.006.55.318 1.315.741 1.7.939.386.199.926.522 1.2.719 5.172 3.707 5.047 3.604 8.104 6.642 2.976 2.958 4.762 5.264 5.808 7.5.18.385.442.835.583 1 .14.165.369.66.51 1.1.141.44.367.98.503 1.2.136.22.359.895.496 1.5s.336 1.269.443 1.475c.18.348.853 6.037 1.091 9.225.176 2.35-2.723 2.1 24.386 2.1 23.093 0 23.667-.009 23.867-.382.222-.416-.157-3.721-.679-5.918-.157-.66-.391-2.055-.52-3.1-.13-1.045-.321-2.061-.425-2.258-.104-.196-.319-1.051-.478-1.9-.159-.848-.411-1.857-.561-2.242-.15-.385-.413-1.24-.585-1.9-.582-2.243-1.187-4.199-1.369-4.424-.099-.124-.323-.709-.498-1.3-.174-.592-.386-1.166-.47-1.276-.084-.11-.302-.656-.484-1.214-.362-1.112-4.198-8.794-4.644-9.302-.153-.173-.278-.384-.278-.467 0-.083-.286-.571-.636-1.084a338.44 338.44 0 0 1-1.24-1.833c-2.135-3.181-7.215-9.175-9.899-11.682l-2-1.87c-.619-.579-1.26-1.174-1.425-1.323-.39-.352-3.154-2.635-3.8-3.139l-1.6-1.254a41.062 41.062 0 0 0-2.2-1.594c-1.768-1.175-2.392-1.61-2.993-2.088-.31-.247-.637-.45-.725-.45-.088 0-.48-.211-.871-.468s-.979-.64-1.306-.85c-1.081-.694-3.978-2.264-5.705-3.091a94.203 94.203 0 0 1-2.05-1.003c-.759-.408-1.091-.571-2.15-1.058-.605-.278-1.325-.567-1.6-.641-.275-.075-.635-.249-.8-.387-.165-.138-.66-.362-1.1-.497a14.808 14.808 0 0 1-1.613-.625c-.447-.209-.918-.38-1.046-.38s-.797-.219-1.487-.487c-2.11-.819-3.909-1.36-8.654-2.605a76.204 76.204 0 0 1-2.417-.666c-.339-.107-1.192-.262-1.895-.343-.704-.082-1.622-.27-2.041-.418-.42-.148-1.776-.402-3.013-.564-1.238-.162-2.472-.378-2.742-.479-.271-.101-1.977-.292-3.792-.424-1.815-.133-4.29-.338-5.5-.457-3.319-.326-14.359-.366-17.1-.063m-88.371 158.571c-.224.27-.102 1.419.355 3.335.118.495.349 1.901.515 3.124.165 1.224.434 2.545.597 2.936.163.391.355 1.235.425 1.875.071.641.245 1.435.387 1.765.141.33.41 1.32.597 2.2.186.88.416 1.696.511 1.814.095.117.316.837.49 1.6.174.762.492 1.752.706 2.199.213.447.388.956.388 1.13 0 .175.224.799.498 1.387.274.589.499 1.206.5 1.373.001.167.174.623.383 1.014.21.392.496 1.11.635 1.597.139.487.362 1.021.495 1.186.133.165.305.525.382.8.188.669 2.511 5.379 2.715 5.505.089.055.225.391.303.747.077.357.354.902.615 1.213.261.311.529.784.596 1.05.067.267.191.485.275.485.085 0 .263.261.395.58.132.319.439.767.682.996l.443.415 29.191.014c35.521.016 34.231.027 33.218-.287-.426-.132-.876-.378-1-.547-.124-.17-.586-.422-1.026-.562-.44-.139-1.018-.391-1.284-.558a37.794 37.794 0 0 0-1.7-.95c-2.088-1.108-4.226-2.569-5.707-3.901a58.119 58.119 0 0 0-1.233-1.068c-2.298-1.93-6.097-6.276-7.276-8.324-.33-.573-.712-1.162-.848-1.309-.393-.422-2.652-4.922-2.652-5.281 0-.178-.174-.648-.386-1.044a6.061 6.061 0 0 1-.524-1.497c-.076-.427-.3-1.182-.497-1.677-.197-.495-.463-1.62-.59-2.5-.128-.88-.353-2.014-.499-2.521-.146-.506-.378-2.59-.517-4.631l-.252-3.711-.592-.118c-1.355-.271-49.485-.13-49.714.146" fill="#fffdff"/></g></svg>