<svg viewBox="37.79499816894531 37.79499816894531 690.4749755859375 161.73599243164062" height="237.325" width="766.064" xmlns="http://www.w3.org/2000/svg"><defs><clipPath id="a"><path d="M0 177.994h574.548V0H0z"/></clipPath></defs><g clip-path="url(#a)" transform="matrix(1.3333333,0,0,-1.3333333,0,237.32533)"><path d="M209.488 73.854c-.597-2.084-1.668-5.719-3.617-9.055-1.979-3.222-4.542-5.605-5.285-6.185l-.127-.107c-1.64-1.489-3.63-2.992-6.39-4.087h29.487a52.816 52.816 0 0 1 1.66 2.281c3.501 5.331 5.525 10.636 6.61 13.484.197.513.361.946.497 1.281l.98 2.388zM152.575 86.896l79.903.217v2.147c0 16.506-2.55 24.72-5.311 31.16-7.344 16.602-20.638 23.193-27.872 25.63-5.24 1.864-11.72 2.977-17.331 2.977-16.028 0-30.922-6.74-40.861-18.491-8.297-9.801-12.331-22.017-12.331-37.35 0-18.075 5.09-30.393 11.596-38.766h33.375c-2.55.804-4.924 1.87-6.96 3.199-3.276 2.209-13.683 10.685-14.208 29.277m28.05 44.296c12.388 0 22.98-8.04 26.355-19.998.512-1.837.904-3.735 1.278-7.341h-54.98c1.985 13.626 10.06 27.339 27.347 27.339M96.323 99.205c-1.513.437-3.08.875-4.647 1.314-1.557.435-3.116.869-4.717 1.33l-9.93 2.405c-12.273 2.885-18.995 5.174-21.62 9.602-1.112 2.065-1.256 3.465-1.256 4.455 0 5.187 4.749 12.906 17.83 12.906 14.397 0 21.624-7.426 23.618-11.802.823-1.837 1.07-3.58 1.269-7.636h23.208l-.262 1.723c-.475 3.16-1.463 9.738-5.673 16.24-3.835 5.74-15.39 19.093-39.79 19.093-9.273 0-26.262-1.901-35.856-14.652-3.794-5.178-5.8-11.42-5.8-18.054 0-10.418 4.357-18.153 13.327-23.648 5.627-3.42 11.604-5.448 24.656-8.36l10.598-2.096c5.31-1.027 14.199-2.746 17.015-7.553l.08-.127c1.042-1.522 1.569-3.693 1.569-6.446 0-2.828-.46-6.5-4.045-9.782-1.385-1.266-3.453-2.655-6.434-3.696h28.842c3.954 7.123 4.172 14.062 4.172 15.44 0 14.284-8.542 23.879-26.154 29.344M57.478 59.939c-3.647 4.011-4.754 8.286-4.992 13.915h-24.14l.153-.927c.564-3.489 1.777-10.9 6.475-18.507h30.954c-3.106 1.053-5.99 2.762-8.45 5.519M371.192 59.939c-3.647 4.011-4.756 8.286-4.992 13.915h-24.14l.153-.927c.564-3.489 1.777-10.9 6.475-18.507h30.954c-3.106 1.053-5.99 2.762-8.45 5.519M465.474 86.896l79.903.217v2.147c0 16.506-2.549 24.72-5.31 31.16-7.344 16.602-20.638 23.193-27.872 25.63-5.24 1.864-11.72 2.977-17.332 2.977-16.028 0-30.922-6.74-40.86-18.491-8.298-9.801-12.332-22.017-12.332-37.35 0-18.075 5.091-30.393 11.596-38.766h33.375c-2.55.804-4.924 1.87-6.96 3.199-3.276 2.209-13.683 10.685-14.208 29.277m28.05 44.296c12.388 0 22.981-8.04 26.355-19.998.512-1.837.904-3.735 1.278-7.341h-54.979c1.984 13.626 10.06 27.339 27.346 27.339M522.388 73.854c-.597-2.084-1.668-5.719-3.617-9.055-1.979-3.222-4.542-5.605-5.285-6.185l-.127-.107c-1.64-1.489-3.63-2.992-6.39-4.087h29.487a52.816 52.816 0 0 1 1.659 2.281c3.502 5.331 5.526 10.636 6.611 13.484.197.513.361.946.497 1.281l.979 2.388zM294.988 149.648c-15.579 0-25.058-8.255-28.367-11.76a32.116 32.116 0 0 1-1.78-1.95v10.438h-21.765V54.42h21.766v45.5c0 4.809 0 8.96 1.834 13.449 1.118 3.072 3.056 6.044 5.579 8.566 5 4.802 10.63 7.039 17.715 7.039 5.75 0 10.53-1.397 14.202-4.151 7.213-5.41 7.068-13.608 7.007-17.107a36.724 36.724 0 0 1-.01-.813V54.42h21.544v48.337l.004 1.902c.022 10.543.046 20.499-6.73 29.9-10.226 14.36-27.616 15.089-30.999 15.089M409.516 99.205c-1.513.437-3.079.875-4.647 1.314-1.557.435-3.116.869-4.717 1.33l-9.93 2.405c-12.273 2.885-18.995 5.174-21.619 9.602-1.113 2.065-1.257 3.465-1.257 4.455 0 5.187 4.75 12.906 17.831 12.906 14.396 0 21.623-7.426 23.617-11.802.823-1.837 1.07-3.58 1.27-7.636h23.207l-.262 1.723c-.475 3.16-1.463 9.738-5.673 16.24-3.835 5.74-15.39 19.093-39.789 19.093-9.274 0-26.263-1.901-35.857-14.652-3.794-5.178-5.799-11.42-5.799-18.054 0-10.418 4.356-18.153 13.326-23.648 5.627-3.42 11.604-5.448 24.656-8.36l10.598-2.096c5.311-1.027 14.2-2.746 17.015-7.553l.081-.127c1.041-1.522 1.568-3.693 1.568-6.446 0-2.828-.459-6.5-4.045-9.782-1.385-1.266-3.453-2.655-6.434-3.696h28.842c3.954 7.123 4.172 14.062 4.172 15.44 0 14.284-8.542 23.879-26.154 29.344" fill="#414142"/><path d="M370.671 59.939c-3.645 4.011-4.754 8.286-4.992 13.915h-24.14l.153-.927c.564-3.489 1.777-10.9 6.475-18.507h30.955c-3.106 1.053-5.99 2.762-8.45 5.519M34.974 29.347h501.482M536.456 28.346H34.974v2h501.482z" fill="#414142"/></g></svg>