<?xml version="1.0" encoding="utf-8"?>
<svg id="svg" version="1.1" width="2000" height="2000" style="display: block;" viewBox="0 0 400 400" xmlns="http://www.w3.org/2000/svg">
  <g id="svgg">
    <path id="path0" d="M188.900 84.004 C 187.800 84.082,185.685 84.288,184.200 84.461 C 182.715 84.635,180.780 84.835,179.900 84.907 C 179.020 84.978,177.805 85.156,177.200 85.302 C 176.595 85.449,175.245 85.675,174.200 85.806 C 173.155 85.936,171.940 86.162,171.500 86.307 C 171.060 86.452,170.250 86.629,169.700 86.701 C 169.150 86.772,167.935 87.045,167.000 87.306 C 166.065 87.567,164.940 87.842,164.500 87.917 C 164.060 87.992,163.475 88.166,163.200 88.304 C 162.925 88.442,162.160 88.664,161.500 88.799 C 160.840 88.934,160.075 89.167,159.800 89.317 C 159.525 89.467,158.805 89.724,158.200 89.888 C 156.683 90.299,154.183 91.167,153.918 91.376 C 153.798 91.470,153.340 91.661,152.900 91.799 C 152.460 91.937,151.965 92.167,151.800 92.308 C 151.635 92.450,151.168 92.628,150.762 92.703 C 150.356 92.778,149.731 93.056,149.373 93.320 C 149.015 93.584,148.615 93.800,148.484 93.800 C 148.287 93.800,145.881 94.966,144.800 95.585 C 144.635 95.680,144.275 95.858,144.000 95.982 C 143.725 96.105,143.095 96.475,142.600 96.803 C 142.105 97.131,141.385 97.543,141.000 97.719 C 140.615 97.896,140.142 98.180,139.949 98.352 C 139.755 98.524,139.436 98.762,139.239 98.882 C 139.042 99.002,138.584 99.280,138.221 99.500 C 137.636 99.855,137.138 100.208,135.700 101.286 C 134.973 101.831,133.509 102.981,132.952 103.444 C 132.650 103.695,132.124 104.125,131.783 104.400 C 130.155 105.711,123.965 112.106,122.900 113.577 C 122.240 114.488,121.498 115.464,121.250 115.746 C 121.003 116.028,120.800 116.329,120.800 116.415 C 120.800 116.501,120.683 116.690,120.540 116.836 C 120.398 116.981,119.934 117.640,119.510 118.300 C 119.086 118.960,118.528 119.820,118.270 120.211 C 118.011 120.602,117.800 121.060,117.800 121.230 C 117.800 121.399,117.625 121.696,117.411 121.890 C 117.198 122.083,116.968 122.491,116.901 122.796 C 116.834 123.101,116.563 123.643,116.300 124.000 C 116.037 124.357,115.765 124.902,115.698 125.211 C 115.630 125.520,115.451 125.875,115.300 126.000 C 115.149 126.125,114.965 126.506,114.890 126.847 C 114.815 127.187,114.539 127.869,114.277 128.363 C 114.015 128.856,113.800 129.405,113.800 129.583 C 113.800 129.760,113.631 130.222,113.423 130.609 C 113.216 130.995,112.936 131.845,112.800 132.498 C 112.665 133.150,112.438 133.868,112.295 134.092 C 112.153 134.316,111.934 135.040,111.809 135.700 C 111.683 136.360,111.451 137.215,111.292 137.600 C 111.133 137.985,110.876 139.110,110.720 140.100 C 110.565 141.090,110.347 142.260,110.237 142.700 C 109.309 146.397,109.414 161.048,110.397 165.000 C 110.602 165.825,110.831 167.040,110.905 167.700 C 110.979 168.360,111.167 169.207,111.322 169.581 C 111.478 169.956,111.742 170.850,111.908 171.568 C 112.075 172.285,112.285 172.969,112.374 173.086 C 112.464 173.204,112.655 173.750,112.798 174.300 C 112.941 174.850,113.225 175.581,113.429 175.924 C 113.633 176.267,113.800 176.664,113.800 176.808 C 113.800 177.063,114.841 179.406,115.218 180.000 C 115.322 180.165,115.543 180.615,115.709 181.000 C 115.874 181.385,116.097 181.835,116.203 182.000 C 116.309 182.165,116.645 182.740,116.948 183.277 C 117.780 184.749,117.956 185.022,118.705 186.000 C 119.084 186.495,119.803 187.508,120.304 188.250 C 120.804 188.993,121.281 189.600,121.364 189.600 C 121.446 189.600,121.677 189.876,121.876 190.213 C 122.646 191.517,129.773 198.292,131.435 199.300 C 131.828 199.538,134.172 201.272,134.601 201.641 C 135.221 202.174,136.878 203.200,137.120 203.200 C 137.258 203.200,137.495 203.323,137.645 203.474 C 137.796 203.625,138.230 203.906,138.610 204.098 C 138.989 204.291,139.447 204.577,139.626 204.734 C 139.996 205.057,140.499 205.333,143.980 207.124 C 145.344 207.826,146.570 208.400,146.705 208.400 C 146.840 208.400,147.056 208.526,147.184 208.680 C 147.312 208.835,147.660 209.022,147.958 209.097 C 148.256 209.171,149.039 209.495,149.697 209.816 C 150.355 210.137,151.048 210.400,151.235 210.400 C 151.423 210.400,151.631 210.489,151.698 210.597 C 151.765 210.706,152.333 210.944,152.960 211.126 C 153.587 211.308,154.280 211.568,154.500 211.703 C 154.720 211.839,155.336 212.055,155.869 212.183 C 156.401 212.310,157.032 212.543,157.271 212.700 C 157.510 212.856,158.198 213.090,158.801 213.219 C 159.403 213.348,160.077 213.568,160.298 213.708 C 160.519 213.848,161.240 214.077,161.900 214.218 C 162.560 214.358,163.280 214.584,163.500 214.718 C 163.720 214.853,164.440 215.071,165.100 215.203 C 165.760 215.335,166.401 215.525,166.524 215.624 C 166.647 215.724,167.502 215.981,168.424 216.195 C 170.343 216.642,173.416 217.464,174.300 217.768 C 174.630 217.882,175.575 218.080,176.400 218.210 C 177.225 218.340,177.999 218.525,178.119 218.622 C 178.240 218.719,179.140 218.972,180.119 219.184 C 181.099 219.397,182.395 219.702,183.000 219.861 C 183.605 220.021,184.640 220.246,185.300 220.362 C 185.960 220.478,187.085 220.720,187.800 220.899 C 191.183 221.748,192.418 222.012,193.880 222.200 C 194.748 222.312,195.843 222.534,196.311 222.694 C 196.780 222.853,197.903 223.076,198.806 223.189 C 199.710 223.302,200.910 223.529,201.474 223.692 C 202.038 223.856,203.265 224.121,204.200 224.282 C 206.653 224.705,209.001 225.168,211.400 225.702 C 212.555 225.960,214.085 226.232,214.800 226.308 C 215.515 226.384,216.267 226.534,216.470 226.641 C 216.674 226.748,217.709 226.965,218.770 227.122 C 219.832 227.280,220.983 227.542,221.328 227.704 C 221.673 227.865,222.654 228.095,223.508 228.214 C 224.361 228.332,225.248 228.552,225.480 228.702 C 225.711 228.852,226.522 229.082,227.283 229.214 C 228.044 229.345,228.944 229.612,229.283 229.807 C 229.622 230.002,230.303 230.227,230.796 230.306 C 231.288 230.386,231.873 230.567,232.096 230.709 C 232.318 230.851,232.905 231.073,233.400 231.202 C 233.895 231.332,234.435 231.548,234.600 231.684 C 234.765 231.820,235.305 232.045,235.800 232.185 C 236.295 232.325,236.835 232.551,237.000 232.687 C 237.165 232.823,237.615 233.054,238.000 233.200 C 238.385 233.346,238.835 233.577,239.000 233.713 C 239.165 233.849,239.615 234.106,240.000 234.284 C 240.832 234.669,241.901 235.327,242.712 235.953 C 243.036 236.203,243.512 236.563,243.771 236.753 C 244.614 237.374,246.724 239.491,246.858 239.850 C 246.929 240.043,247.118 240.200,247.278 240.200 C 247.438 240.200,247.669 240.504,247.792 240.876 C 247.915 241.248,248.192 241.711,248.408 241.907 C 248.623 242.102,248.800 242.366,248.800 242.492 C 248.800 242.619,249.016 243.015,249.280 243.373 C 249.544 243.731,249.821 244.356,249.895 244.762 C 249.969 245.168,250.160 245.703,250.320 245.951 C 250.480 246.200,250.745 247.301,250.909 248.399 C 251.074 249.496,251.296 250.627,251.404 250.910 C 251.723 251.750,251.650 259.247,251.310 260.571 C 251.150 261.192,250.922 262.315,250.803 263.067 C 250.684 263.819,250.464 264.629,250.313 264.867 C 250.162 265.105,249.973 265.615,249.893 265.999 C 249.755 266.657,248.734 268.746,247.882 270.113 C 246.449 272.411,246.325 272.572,244.591 274.358 C 243.139 275.854,241.367 277.361,240.000 278.264 C 239.395 278.663,238.710 279.142,238.478 279.327 C 237.991 279.715,237.102 280.202,235.750 280.819 C 235.228 281.058,234.800 281.322,234.800 281.405 C 234.800 281.488,234.553 281.618,234.250 281.692 C 233.481 281.882,230.400 283.393,230.400 283.581 C 230.400 284.163,248.756 284.353,290.240 284.202 C 290.925 284.199,291.924 283.171,292.236 282.148 C 292.362 281.734,292.585 281.295,292.732 281.173 C 292.880 281.051,293.000 280.863,293.000 280.755 C 293.000 280.647,293.212 280.136,293.471 279.621 C 293.729 279.106,294.058 278.330,294.201 277.897 C 294.344 277.464,294.627 276.837,294.830 276.505 C 295.033 276.172,295.199 275.764,295.199 275.598 C 295.200 275.433,295.425 274.874,295.700 274.358 C 295.975 273.841,296.200 273.192,296.200 272.915 C 296.200 272.639,296.374 272.072,296.586 271.656 C 296.799 271.240,297.084 270.315,297.219 269.600 C 297.354 268.885,297.581 268.120,297.723 267.900 C 297.864 267.680,298.081 266.825,298.204 266.000 C 298.328 265.175,298.514 264.341,298.618 264.148 C 298.721 263.954,298.941 262.784,299.105 261.548 C 299.270 260.311,299.497 258.903,299.610 258.418 C 300.208 255.855,300.319 246.784,299.791 243.724 C 299.694 243.161,299.475 241.665,299.305 240.400 C 299.135 239.135,298.871 237.695,298.717 237.200 C 298.563 236.705,298.329 235.760,298.196 235.100 C 298.063 234.440,297.844 233.675,297.710 233.400 C 297.576 233.125,297.351 232.360,297.211 231.700 C 297.070 231.040,296.875 230.400,296.777 230.278 C 296.678 230.156,296.426 229.571,296.216 228.978 C 295.621 227.299,293.222 222.402,292.700 221.800 C 292.557 221.635,292.300 221.163,292.130 220.750 C 291.960 220.338,291.732 220.000,291.624 220.000 C 291.515 220.000,291.364 219.801,291.287 219.559 C 291.088 218.933,289.640 216.853,288.859 216.072 C 288.497 215.710,288.200 215.321,288.200 215.208 C 288.200 215.096,288.020 214.891,287.800 214.754 C 287.580 214.616,287.400 214.397,287.400 214.266 C 287.400 214.136,287.194 213.865,286.943 213.665 C 286.691 213.464,286.341 213.091,286.163 212.835 C 285.722 212.198,283.713 210.142,282.173 208.749 C 281.473 208.117,280.728 207.442,280.519 207.249 C 280.128 206.891,278.859 205.866,278.041 205.247 C 277.788 205.056,277.328 204.675,277.018 204.400 C 276.708 204.125,276.153 203.720,275.784 203.500 C 275.416 203.280,274.921 202.965,274.685 202.800 C 272.888 201.543,271.748 200.800,271.617 200.800 C 271.532 200.800,271.307 200.628,271.117 200.418 C 270.927 200.208,270.485 199.921,270.136 199.780 C 269.786 199.638,269.455 199.461,269.400 199.385 C 269.345 199.310,268.466 198.809,267.447 198.274 C 266.428 197.738,265.168 197.055,264.647 196.757 C 264.126 196.458,263.529 196.151,263.319 196.075 C 263.110 195.999,262.480 195.695,261.919 195.399 C 261.359 195.102,260.630 194.794,260.300 194.714 C 259.970 194.634,259.565 194.452,259.400 194.310 C 259.235 194.167,258.740 193.938,258.300 193.800 C 257.860 193.662,257.365 193.434,257.200 193.293 C 257.035 193.152,256.540 192.941,256.100 192.824 C 255.660 192.706,254.943 192.428,254.508 192.205 C 254.072 191.982,253.577 191.797,253.408 191.794 C 253.238 191.790,252.650 191.566,252.100 191.296 C 251.550 191.025,250.983 190.803,250.839 190.802 C 250.695 190.801,250.200 190.631,249.739 190.425 C 249.278 190.219,248.405 189.936,247.800 189.795 C 247.195 189.654,246.520 189.426,246.300 189.288 C 246.080 189.150,245.360 188.932,244.700 188.805 C 244.040 188.677,243.212 188.442,242.860 188.282 C 242.508 188.122,241.698 187.889,241.060 187.765 C 240.422 187.642,239.804 187.467,239.688 187.377 C 239.571 187.287,238.761 187.033,237.888 186.812 C 234.849 186.045,232.601 185.414,232.251 185.233 C 232.058 185.132,231.272 184.942,230.504 184.811 C 229.736 184.680,229.010 184.491,228.890 184.392 C 228.770 184.292,228.085 184.075,227.368 183.908 C 226.650 183.742,225.737 183.470,225.339 183.303 C 224.940 183.137,223.976 182.910,223.195 182.799 C 222.415 182.689,221.534 182.475,221.238 182.324 C 220.942 182.174,220.070 181.944,219.300 181.814 C 218.530 181.683,217.521 181.449,217.058 181.293 C 216.595 181.138,215.609 180.913,214.866 180.795 C 214.123 180.676,213.409 180.491,213.280 180.383 C 213.150 180.276,212.276 180.054,211.336 179.890 C 210.397 179.726,209.310 179.458,208.921 179.296 C 208.532 179.134,207.559 178.909,206.757 178.796 C 205.956 178.684,205.030 178.467,204.700 178.315 C 204.370 178.162,203.380 177.926,202.500 177.790 C 201.620 177.654,200.675 177.430,200.400 177.293 C 200.125 177.156,199.180 176.931,198.300 176.793 C 197.420 176.656,196.594 176.460,196.464 176.359 C 196.335 176.257,195.424 176.010,194.440 175.808 C 193.457 175.607,192.483 175.354,192.276 175.247 C 192.069 175.141,191.270 174.939,190.500 174.800 C 189.730 174.661,189.004 174.472,188.886 174.379 C 188.769 174.287,188.049 174.070,187.286 173.899 C 186.524 173.727,185.630 173.461,185.300 173.307 C 184.970 173.153,184.160 172.894,183.500 172.732 C 182.186 172.409,180.992 172.026,179.000 171.289 C 178.285 171.025,177.363 170.752,176.950 170.682 C 176.538 170.612,176.200 170.478,176.200 170.383 C 176.200 170.289,175.683 170.063,175.050 169.882 C 174.418 169.700,173.675 169.434,173.400 169.290 C 171.816 168.460,167.826 166.600,167.630 166.600 C 167.504 166.600,167.400 166.524,167.400 166.431 C 167.400 166.339,166.766 165.885,165.991 165.422 C 165.216 164.960,164.428 164.450,164.241 164.288 C 164.053 164.127,163.260 163.463,162.478 162.812 C 160.533 161.194,158.000 158.071,158.000 157.290 C 158.000 157.158,157.880 156.949,157.732 156.827 C 157.585 156.705,157.351 156.221,157.213 155.752 C 157.074 155.284,156.838 154.762,156.689 154.594 C 156.540 154.426,156.219 153.022,155.977 151.475 L 155.536 148.662 155.960 145.836 C 156.193 144.282,156.511 142.806,156.667 142.555 C 156.823 142.305,157.058 141.651,157.190 141.103 C 157.322 140.554,157.535 139.980,157.665 139.826 C 157.936 139.503,158.625 138.236,159.119 137.150 C 159.307 136.738,159.535 136.400,159.625 136.400 C 159.716 136.400,159.939 136.108,160.121 135.750 C 160.781 134.455,164.169 130.894,165.878 129.700 C 166.193 129.480,166.686 129.111,166.975 128.879 C 167.424 128.519,169.192 127.473,171.000 126.498 C 173.338 125.236,176.800 124.032,180.200 123.297 C 180.915 123.142,182.130 122.877,182.900 122.707 C 186.975 121.810,201.078 121.793,204.246 122.682 C 204.826 122.845,206.145 123.076,207.177 123.196 C 208.209 123.316,209.218 123.503,209.419 123.610 C 209.619 123.717,210.519 123.945,211.418 124.115 C 212.317 124.286,213.244 124.546,213.476 124.694 C 213.709 124.841,214.305 125.023,214.800 125.098 C 215.295 125.173,216.019 125.395,216.408 125.592 C 216.797 125.789,217.427 126.016,217.808 126.097 C 218.189 126.178,219.039 126.504,219.697 126.822 C 220.355 127.140,221.014 127.400,221.161 127.400 C 221.308 127.400,221.561 127.533,221.723 127.695 C 221.885 127.857,222.379 128.087,222.820 128.205 C 223.260 128.324,223.787 128.587,223.990 128.790 C 224.193 128.993,224.638 129.221,224.980 129.296 C 225.321 129.370,225.600 129.518,225.600 129.623 C 225.600 129.728,225.982 129.993,226.450 130.212 C 226.918 130.431,227.885 131.010,228.600 131.499 C 229.315 131.989,230.201 132.594,230.569 132.844 C 230.937 133.095,231.426 133.503,231.655 133.750 C 231.885 133.998,232.142 134.200,232.228 134.200 C 232.653 134.200,238.800 140.309,238.800 140.731 C 238.800 140.877,238.980 141.109,239.200 141.246 C 239.420 141.384,239.600 141.590,239.600 141.706 C 239.600 141.821,239.866 142.227,240.192 142.608 C 240.517 142.988,240.787 143.399,240.792 143.519 C 240.796 143.639,240.975 143.896,241.189 144.090 C 241.402 144.283,241.634 144.698,241.702 145.011 C 241.771 145.325,241.989 145.788,242.187 146.041 C 242.384 146.293,242.701 147.040,242.892 147.700 C 243.082 148.360,243.308 148.990,243.395 149.100 C 244.012 149.886,244.961 157.158,244.993 161.350 C 245.007 163.165,242.501 163.000,270.069 163.000 C 293.326 163.000,294.352 162.985,294.669 162.634 C 295.076 162.184,295.112 160.605,294.732 159.840 C 294.585 159.543,294.348 158.265,294.206 157.000 C 294.064 155.735,293.833 154.340,293.692 153.900 C 293.551 153.460,293.339 152.351,293.220 151.435 C 293.102 150.519,292.876 149.484,292.719 149.135 C 292.561 148.786,292.330 147.878,292.205 147.118 C 292.080 146.358,291.862 145.503,291.721 145.218 C 291.581 144.933,291.350 144.163,291.209 143.506 C 291.067 142.849,290.836 142.129,290.695 141.906 C 290.555 141.683,290.378 141.185,290.302 140.800 C 290.227 140.415,290.002 139.740,289.803 139.300 C 289.603 138.860,289.289 138.029,289.105 137.452 C 288.920 136.876,288.695 136.359,288.605 136.303 C 288.514 136.247,288.332 135.751,288.200 135.200 C 288.068 134.649,287.886 134.153,287.796 134.098 C 287.707 134.042,287.304 133.300,286.903 132.448 C 286.501 131.597,286.045 130.675,285.890 130.400 C 285.734 130.125,285.462 129.585,285.284 129.200 C 284.749 128.043,282.773 124.800,282.602 124.800 C 282.515 124.800,282.391 124.590,282.326 124.333 C 282.262 124.076,281.940 123.514,281.611 123.083 C 281.283 122.652,280.877 122.120,280.711 121.900 C 279.974 120.928,278.688 119.280,278.503 119.071 C 278.391 118.945,278.075 118.545,277.800 118.182 C 277.525 117.819,277.053 117.279,276.750 116.981 C 276.447 116.683,276.200 116.384,276.200 116.316 C 276.200 116.248,275.548 115.527,274.750 114.715 C 273.953 113.903,272.934 112.847,272.486 112.369 C 271.291 111.092,268.873 108.800,268.722 108.800 C 268.650 108.800,268.145 108.373,267.600 107.850 C 267.055 107.328,266.286 106.630,265.892 106.300 C 265.498 105.970,265.068 105.610,264.937 105.500 C 263.919 104.644,262.811 103.800,262.705 103.800 C 262.556 103.800,260.961 102.583,260.775 102.328 C 260.706 102.234,260.331 101.964,259.941 101.728 C 259.551 101.493,258.753 100.977,258.166 100.583 C 257.580 100.188,256.650 99.583,256.100 99.238 C 255.550 98.893,254.985 98.513,254.846 98.393 C 254.706 98.274,254.256 98.036,253.846 97.865 C 253.435 97.695,253.053 97.481,252.996 97.390 C 252.939 97.299,252.489 97.039,251.996 96.811 C 251.503 96.582,250.695 96.134,250.200 95.814 C 249.705 95.494,248.879 95.085,248.365 94.905 C 247.851 94.725,247.323 94.448,247.191 94.289 C 247.059 94.130,246.850 94.000,246.726 93.999 C 246.601 93.999,245.960 93.729,245.300 93.400 C 244.640 93.071,243.981 92.801,243.836 92.801 C 243.690 92.800,243.195 92.584,242.736 92.320 C 242.276 92.055,241.585 91.775,241.200 91.697 C 240.815 91.619,240.365 91.446,240.200 91.312 C 240.035 91.178,239.502 90.955,239.014 90.816 C 238.527 90.677,237.942 90.445,237.714 90.301 C 237.487 90.157,236.811 89.938,236.214 89.814 C 235.616 89.690,235.029 89.507,234.909 89.408 C 234.685 89.221,232.620 88.594,230.500 88.067 C 229.840 87.903,228.760 87.598,228.100 87.390 C 227.440 87.182,226.302 86.927,225.570 86.824 C 224.839 86.720,224.053 86.535,223.823 86.413 C 223.594 86.290,222.392 86.050,221.153 85.881 C 219.914 85.711,218.540 85.452,218.100 85.307 C 217.660 85.161,215.950 84.935,214.300 84.804 C 212.650 84.674,210.918 84.485,210.452 84.383 C 208.095 83.871,194.229 83.627,188.900 84.004 M206.700 84.757 C 207.910 84.876,210.385 85.081,212.200 85.214 C 214.015 85.346,215.721 85.537,215.992 85.638 C 216.262 85.739,217.496 85.955,218.734 86.117 C 219.971 86.279,221.327 86.533,221.747 86.681 C 222.166 86.829,223.084 87.017,223.788 87.099 C 224.491 87.180,225.344 87.335,225.683 87.442 C 226.022 87.549,227.110 87.849,228.100 88.108 C 232.845 89.353,234.644 89.894,236.754 90.713 C 237.444 90.981,238.113 91.200,238.241 91.200 C 238.369 91.200,238.840 91.371,239.287 91.580 C 239.734 91.789,240.460 92.071,240.900 92.205 C 241.340 92.340,241.835 92.564,242.000 92.702 C 242.165 92.840,242.525 93.014,242.800 93.089 C 243.075 93.163,243.795 93.452,244.400 93.730 C 245.459 94.217,245.791 94.380,246.550 94.788 C 246.743 94.892,247.665 95.343,248.600 95.791 C 250.327 96.618,253.224 98.188,254.305 98.882 C 254.632 99.092,255.220 99.475,255.611 99.732 C 256.002 99.989,256.394 100.200,256.482 100.200 C 256.570 100.200,256.897 100.403,257.207 100.650 C 257.808 101.128,258.432 101.563,260.200 102.738 C 260.805 103.139,261.795 103.857,262.400 104.332 C 263.005 104.807,263.725 105.371,264.000 105.586 C 264.646 106.090,267.410 108.373,267.800 108.725 C 267.965 108.874,268.606 109.469,269.225 110.048 C 269.843 110.626,270.743 111.468,271.225 111.918 C 273.909 114.425,278.989 120.419,281.124 123.600 C 281.456 124.095,282.014 124.920,282.364 125.433 C 282.714 125.946,283.000 126.434,283.000 126.517 C 283.000 126.600,283.125 126.811,283.278 126.984 C 283.724 127.492,287.560 135.174,287.922 136.286 C 288.104 136.844,288.322 137.390,288.406 137.500 C 288.490 137.610,288.702 138.184,288.876 138.776 C 289.051 139.367,289.275 139.952,289.374 140.076 C 289.556 140.301,290.161 142.257,290.743 144.500 C 290.915 145.160,291.178 146.015,291.328 146.400 C 291.478 146.785,291.730 147.794,291.889 148.642 C 292.048 149.491,292.263 150.346,292.367 150.542 C 292.471 150.739,292.662 151.755,292.792 152.800 C 292.921 153.845,293.155 155.240,293.312 155.900 C 293.834 158.097,294.213 161.402,293.991 161.818 C 293.791 162.191,293.217 162.200,270.124 162.200 C 243.015 162.200,245.914 162.450,245.738 160.100 C 245.500 156.912,244.827 151.223,244.647 150.875 C 244.540 150.669,244.341 150.005,244.204 149.400 C 244.067 148.795,243.844 148.120,243.708 147.900 C 243.572 147.680,243.346 147.140,243.205 146.700 C 243.064 146.260,242.835 145.765,242.695 145.600 C 242.554 145.435,242.292 144.985,242.112 144.600 C 241.066 142.364,239.280 140.058,236.304 137.100 C 233.247 134.062,233.372 134.165,228.200 130.458 C 227.926 130.261,227.386 129.938,227.000 129.739 C 226.615 129.541,225.850 129.118,225.300 128.800 C 224.097 128.104,221.473 126.802,221.256 126.794 C 221.170 126.790,220.650 126.566,220.100 126.296 C 219.550 126.025,218.963 125.803,218.795 125.802 C 218.626 125.801,218.306 125.672,218.083 125.515 C 217.859 125.359,217.097 125.084,216.388 124.905 C 215.680 124.726,214.818 124.450,214.474 124.292 C 214.129 124.133,213.274 123.871,212.574 123.708 C 211.873 123.546,210.760 123.278,210.100 123.114 C 202.029 121.102,186.549 120.661,181.500 122.299 C 181.060 122.441,180.070 122.670,179.300 122.806 C 178.530 122.942,177.675 123.165,177.400 123.300 C 177.125 123.436,176.405 123.660,175.800 123.799 C 175.195 123.938,174.475 124.167,174.200 124.307 C 173.925 124.448,172.980 124.892,172.100 125.295 C 171.220 125.698,170.365 126.114,170.200 126.218 C 170.035 126.323,169.586 126.552,169.202 126.727 C 168.818 126.902,168.248 127.260,167.936 127.523 C 167.624 127.785,167.261 128.000,167.129 128.000 C 166.997 128.000,166.740 128.157,166.558 128.350 C 166.375 128.542,165.854 128.970,165.398 129.300 C 163.801 130.456,160.463 133.922,159.535 135.387 C 159.296 135.765,158.942 136.305,158.749 136.587 C 158.555 136.869,158.207 137.505,157.974 138.000 C 157.741 138.495,157.435 139.035,157.294 139.200 C 157.153 139.365,156.941 139.860,156.824 140.300 C 156.706 140.740,156.428 141.457,156.205 141.892 C 155.982 142.328,155.800 142.829,155.800 143.006 C 155.800 143.182,155.622 143.996,155.405 144.814 C 154.846 146.913,154.844 150.660,155.400 152.400 C 155.620 153.089,155.800 153.791,155.800 153.960 C 155.800 154.459,157.652 158.269,158.507 159.529 C 159.742 161.349,161.812 163.374,163.894 164.800 C 164.295 165.075,164.735 165.401,164.872 165.524 C 165.008 165.647,165.430 165.906,165.810 166.098 C 166.189 166.291,166.635 166.559,166.800 166.695 C 167.384 167.176,171.956 169.400,172.360 169.400 C 172.465 169.400,172.654 169.524,172.780 169.676 C 172.906 169.828,173.278 170.006,173.608 170.072 C 173.937 170.137,174.686 170.418,175.272 170.696 C 175.859 170.973,176.496 171.200,176.689 171.200 C 176.882 171.200,177.323 171.333,177.670 171.495 C 178.853 172.050,181.511 172.906,185.600 174.050 C 186.535 174.311,187.480 174.621,187.700 174.737 C 187.920 174.854,188.550 175.014,189.100 175.093 C 189.650 175.173,190.415 175.370,190.800 175.532 C 191.185 175.694,192.265 175.995,193.200 176.201 C 195.510 176.710,197.250 177.147,198.800 177.607 C 199.515 177.820,200.696 178.085,201.425 178.197 C 202.154 178.308,203.054 178.525,203.425 178.677 C 203.796 178.830,204.767 179.065,205.582 179.201 C 206.396 179.336,207.341 179.562,207.682 179.703 C 208.022 179.843,208.938 180.056,209.718 180.176 C 210.498 180.296,211.443 180.520,211.818 180.674 C 212.193 180.828,213.175 181.069,214.000 181.209 C 214.825 181.349,215.611 181.550,215.748 181.654 C 215.884 181.759,216.724 181.971,217.614 182.126 C 218.504 182.280,219.743 182.576,220.366 182.783 C 220.990 182.990,221.993 183.225,222.595 183.305 C 223.197 183.385,223.872 183.561,224.095 183.697 C 224.318 183.833,225.152 184.055,225.949 184.190 C 226.746 184.325,227.446 184.512,227.503 184.605 C 227.561 184.698,228.304 184.929,229.154 185.118 C 230.004 185.308,231.007 185.591,231.383 185.748 C 231.758 185.904,232.610 186.121,233.276 186.228 C 233.942 186.335,234.586 186.505,234.708 186.607 C 234.830 186.708,235.591 186.930,236.400 187.100 C 237.209 187.270,237.970 187.492,238.093 187.594 C 238.216 187.696,239.032 187.927,239.908 188.107 C 240.784 188.288,241.603 188.520,241.728 188.624 C 241.853 188.728,242.607 188.948,243.403 189.114 C 244.199 189.280,245.090 189.540,245.382 189.691 C 245.675 189.842,246.271 190.029,246.707 190.105 C 247.143 190.182,247.694 190.366,247.931 190.515 C 248.169 190.663,248.799 190.894,249.331 191.027 C 249.864 191.160,250.750 191.478,251.300 191.733 C 251.850 191.987,252.435 192.200,252.600 192.204 C 252.765 192.209,253.350 192.434,253.900 192.704 C 254.450 192.975,255.035 193.198,255.200 193.199 C 255.365 193.200,255.795 193.381,256.155 193.601 C 256.515 193.820,256.929 194.000,257.075 194.000 C 257.221 194.000,257.737 194.211,258.221 194.468 C 258.706 194.726,259.462 195.053,259.901 195.194 C 260.340 195.336,260.814 195.543,260.953 195.653 C 261.092 195.764,262.013 196.235,263.000 196.700 C 263.987 197.165,264.908 197.636,265.047 197.747 C 265.186 197.857,265.632 198.055,266.037 198.185 C 266.442 198.316,266.802 198.489,266.837 198.571 C 266.872 198.653,267.530 199.068,268.300 199.493 C 269.070 199.919,269.970 200.463,270.300 200.704 C 270.630 200.944,271.049 201.193,271.232 201.257 C 271.415 201.321,272.152 201.785,272.871 202.287 C 273.589 202.789,274.232 203.200,274.300 203.200 C 274.368 203.200,274.799 203.493,275.257 203.850 C 276.387 204.731,278.433 206.354,278.793 206.655 C 278.954 206.790,279.449 207.203,279.893 207.572 C 280.984 208.481,283.572 210.987,285.400 212.905 C 286.750 214.321,287.385 215.063,288.303 216.300 C 289.865 218.403,290.657 219.519,290.951 220.031 C 291.143 220.365,291.525 221.026,291.800 221.499 C 292.075 221.972,292.515 222.751,292.777 223.230 C 293.039 223.708,293.319 224.145,293.398 224.200 C 293.477 224.255,293.656 224.660,293.796 225.100 C 293.936 225.540,294.164 226.035,294.302 226.200 C 294.440 226.365,294.617 226.725,294.697 227.000 C 294.776 227.275,295.050 227.950,295.307 228.500 C 295.861 229.689,296.327 231.060,296.736 232.700 C 296.901 233.360,297.163 234.215,297.319 234.600 C 298.325 237.086,299.765 248.161,299.538 251.664 C 299.349 254.573,298.609 261.150,298.413 261.665 C 298.315 261.923,298.082 263.116,297.896 264.317 C 297.709 265.518,297.479 266.596,297.384 266.714 C 297.289 266.831,297.069 267.551,296.896 268.314 C 296.724 269.076,296.451 269.984,296.291 270.330 C 296.131 270.677,296.000 271.112,296.000 271.296 C 296.000 271.481,295.783 272.187,295.518 272.866 C 295.253 273.545,294.972 274.325,294.894 274.600 C 294.720 275.214,293.922 277.042,293.392 278.040 C 293.177 278.446,293.000 278.951,293.000 279.162 C 293.000 279.372,292.786 279.859,292.524 280.245 C 292.263 280.630,291.944 281.250,291.816 281.623 C 291.689 281.995,291.337 282.589,291.035 282.941 L 290.486 283.582 261.493 283.604 C 228.314 283.629,231.664 283.677,232.750 283.194 C 233.218 282.986,233.600 282.723,233.600 282.608 C 233.600 282.494,233.721 282.400,233.868 282.400 C 234.104 282.400,235.724 281.588,238.287 280.185 C 238.721 279.948,239.199 279.629,239.352 279.477 C 239.504 279.325,239.700 279.200,239.787 279.200 C 240.396 279.200,245.622 274.427,246.904 272.700 C 247.231 272.260,247.552 271.855,247.619 271.800 C 248.105 271.399,250.198 267.500,250.199 266.995 C 250.200 266.826,250.335 266.497,250.499 266.262 C 252.039 264.064,252.917 249.733,251.612 248.107 C 251.520 247.993,251.378 247.495,251.297 247.000 C 251.116 245.908,250.149 243.442,249.542 242.529 C 249.299 242.163,248.875 241.481,248.600 241.015 C 248.325 240.549,247.771 239.792,247.369 239.334 C 246.967 238.875,246.472 238.308,246.269 238.074 C 245.766 237.493,242.840 235.135,242.100 234.714 C 241.770 234.526,241.140 234.157,240.700 233.893 C 239.711 233.301,236.665 231.800,236.451 231.800 C 236.365 231.800,235.980 231.633,235.597 231.429 C 235.214 231.226,234.540 230.942,234.100 230.799 C 233.660 230.656,233.120 230.427,232.900 230.290 C 232.680 230.152,232.025 229.941,231.444 229.821 C 230.864 229.700,230.189 229.473,229.944 229.316 C 229.700 229.160,229.050 228.968,228.500 228.891 C 227.950 228.814,227.140 228.590,226.700 228.393 C 226.260 228.197,225.315 227.935,224.600 227.812 C 223.885 227.689,222.940 227.462,222.500 227.308 C 222.060 227.153,221.037 226.928,220.227 226.808 C 219.416 226.688,218.575 226.494,218.357 226.377 C 218.138 226.260,217.095 226.035,216.039 225.876 C 214.982 225.717,213.663 225.463,213.109 225.310 C 212.554 225.158,211.335 224.924,210.400 224.790 C 209.465 224.656,208.534 224.461,208.331 224.356 C 208.129 224.252,207.049 224.039,205.931 223.883 C 204.814 223.727,203.638 223.509,203.317 223.399 C 202.996 223.288,201.826 223.062,200.717 222.895 C 199.608 222.728,198.250 222.464,197.700 222.307 C 196.663 222.012,193.347 221.361,190.400 220.874 C 189.465 220.720,188.384 220.469,187.999 220.318 C 187.613 220.166,186.594 219.936,185.735 219.805 C 184.877 219.675,183.887 219.451,183.537 219.307 C 183.187 219.162,182.405 218.978,181.800 218.898 C 181.195 218.817,180.295 218.593,179.800 218.399 C 179.305 218.205,178.285 217.951,177.533 217.834 C 176.782 217.717,176.062 217.536,175.933 217.432 C 175.805 217.327,174.951 217.090,174.036 216.905 C 173.121 216.720,172.086 216.451,171.736 216.308 C 171.386 216.165,170.483 215.943,169.728 215.814 C 168.974 215.686,168.164 215.460,167.928 215.312 C 167.693 215.164,167.050 214.980,166.500 214.903 C 165.950 214.826,165.140 214.601,164.700 214.404 C 164.260 214.207,163.411 213.943,162.814 213.817 C 162.216 213.691,161.631 213.509,161.513 213.411 C 161.395 213.313,160.624 213.053,159.800 212.833 C 158.008 212.355,156.090 211.694,155.400 211.319 C 155.125 211.169,154.585 210.981,154.200 210.902 C 153.815 210.822,153.230 210.600,152.900 210.407 C 152.570 210.215,151.874 209.944,151.354 209.804 C 150.833 209.664,150.305 209.426,150.179 209.275 C 150.054 209.124,149.806 209.000,149.628 209.000 C 149.451 209.000,148.854 208.779,148.303 208.509 C 147.751 208.238,146.985 207.880,146.600 207.713 C 146.215 207.545,145.765 207.318,145.600 207.209 C 145.435 207.099,144.985 206.874,144.600 206.709 C 144.215 206.543,143.765 206.321,143.600 206.214 C 143.277 206.006,142.615 205.664,141.215 204.982 C 140.728 204.744,140.233 204.469,140.115 204.370 C 139.864 204.159,138.633 203.391,136.800 202.302 C 135.427 201.485,135.239 201.354,133.236 199.799 C 132.540 199.259,131.798 198.763,131.586 198.695 C 131.374 198.628,131.200 198.502,131.200 198.416 C 131.200 198.330,130.638 197.822,129.950 197.288 C 127.974 195.753,124.661 192.488,122.758 190.200 C 121.798 189.045,120.887 187.955,120.733 187.778 C 120.580 187.600,120.288 187.173,120.085 186.828 C 119.881 186.482,119.653 186.200,119.580 186.200 C 119.506 186.200,119.296 185.908,119.112 185.550 C 118.929 185.192,118.290 184.135,117.693 183.200 C 117.096 182.265,116.415 181.072,116.179 180.550 C 115.944 180.028,115.683 179.600,115.599 179.600 C 115.516 179.600,115.340 179.173,115.209 178.650 C 115.077 178.128,114.850 177.565,114.703 177.400 C 114.556 177.235,114.282 176.560,114.094 175.900 C 113.906 175.240,113.683 174.610,113.600 174.500 C 113.517 174.390,113.294 173.760,113.105 173.100 C 112.917 172.440,112.688 171.810,112.598 171.700 C 112.508 171.590,112.291 170.743,112.115 169.818 C 111.940 168.893,111.720 168.038,111.627 167.918 C 111.533 167.798,111.346 166.845,111.212 165.800 C 111.077 164.755,110.816 163.270,110.633 162.500 C 110.214 160.738,110.137 147.187,110.537 145.500 C 110.667 144.950,110.917 143.403,111.092 142.063 C 111.267 140.722,111.538 139.320,111.694 138.946 C 111.850 138.573,112.039 137.780,112.114 137.184 C 112.190 136.588,112.380 135.785,112.537 135.400 C 112.695 135.015,112.992 134.115,113.199 133.400 C 113.687 131.709,114.324 129.913,114.811 128.852 C 115.025 128.386,115.200 127.948,115.200 127.879 C 115.200 127.640,118.634 120.893,119.211 120.000 C 119.531 119.505,119.874 118.920,119.975 118.700 C 120.076 118.480,120.393 118.030,120.679 117.700 C 120.965 117.370,121.200 117.045,121.200 116.978 C 121.200 116.910,121.447 116.537,121.750 116.147 C 122.053 115.758,122.480 115.190,122.700 114.884 C 124.816 111.943,129.193 107.375,132.500 104.655 C 133.600 103.750,134.725 102.821,135.000 102.591 C 135.830 101.896,137.888 100.468,138.565 100.118 C 138.914 99.938,139.200 99.720,139.200 99.635 C 139.200 99.549,139.583 99.277,140.050 99.030 C 140.518 98.782,141.260 98.363,141.700 98.097 C 142.140 97.832,142.854 97.421,143.287 97.184 C 143.721 96.947,144.199 96.629,144.352 96.477 C 144.504 96.325,144.790 96.200,144.987 96.200 C 145.185 96.200,145.579 96.017,145.864 95.793 C 146.148 95.569,146.678 95.285,147.041 95.161 C 147.403 95.037,147.915 94.770,148.177 94.568 C 148.439 94.366,148.753 94.200,148.874 94.200 C 148.995 94.200,149.546 93.982,150.097 93.716 C 152.117 92.740,153.382 92.200,153.645 92.200 C 153.794 92.200,154.272 92.017,154.708 91.793 C 155.143 91.569,155.905 91.286,156.400 91.165 C 156.895 91.043,157.525 90.819,157.800 90.666 C 158.341 90.366,160.165 89.809,162.700 89.168 C 163.580 88.946,164.391 88.689,164.502 88.597 C 164.614 88.505,165.487 88.294,166.444 88.127 C 167.401 87.960,168.349 87.734,168.552 87.626 C 168.755 87.517,169.896 87.283,171.088 87.106 C 172.280 86.929,173.417 86.698,173.615 86.592 C 173.813 86.486,175.088 86.269,176.447 86.110 C 177.807 85.951,179.162 85.728,179.460 85.615 C 179.757 85.502,181.643 85.306,183.650 85.180 C 185.658 85.053,188.335 84.835,189.600 84.694 C 192.341 84.391,203.381 84.431,206.700 84.757 M100.695 242.883 C 100.360 243.311,100.283 243.577,100.404 243.883 C 100.496 244.112,100.673 245.155,100.798 246.200 C 100.923 247.245,101.148 248.550,101.297 249.100 C 101.447 249.650,101.674 250.820,101.803 251.700 C 101.931 252.580,102.157 253.570,102.305 253.900 C 102.453 254.230,102.681 255.220,102.812 256.100 C 102.943 256.980,103.163 257.884,103.302 258.108 C 103.441 258.332,103.660 259.052,103.789 259.708 C 103.918 260.364,104.198 261.322,104.412 261.837 C 104.625 262.352,104.800 262.982,104.801 263.237 C 104.801 263.492,104.966 263.970,105.166 264.300 C 105.367 264.630,105.594 265.213,105.670 265.595 C 105.746 265.978,105.978 266.653,106.186 267.095 C 106.394 267.538,106.709 268.418,106.887 269.050 C 107.065 269.683,107.292 270.200,107.390 270.200 C 107.488 270.200,107.629 270.493,107.704 270.850 C 107.778 271.207,108.002 271.860,108.201 272.300 C 109.249 274.621,110.048 276.333,110.207 276.600 C 110.306 276.765,110.802 277.710,111.310 278.700 C 111.818 279.690,112.473 280.918,112.767 281.430 C 113.060 281.941,113.499 282.718,113.741 283.155 C 113.984 283.593,114.327 284.006,114.502 284.073 C 115.096 284.301,178.576 284.227,179.004 283.998 C 179.632 283.662,179.469 283.271,178.550 282.905 C 178.083 282.719,177.565 282.455,177.400 282.318 C 177.235 282.181,176.695 281.955,176.200 281.815 C 175.705 281.675,175.165 281.446,175.000 281.306 C 174.835 281.165,174.363 280.942,173.950 280.810 C 173.538 280.677,173.200 280.492,173.200 280.398 C 173.200 280.304,173.040 280.176,172.844 280.114 C 172.648 280.052,171.996 279.691,171.394 279.311 C 161.455 273.045,154.916 263.395,153.205 252.467 C 152.996 251.129,152.735 249.689,152.624 249.267 C 152.514 248.845,152.362 247.330,152.287 245.900 C 152.211 244.470,152.069 243.146,151.971 242.957 C 151.579 242.201,150.857 242.181,125.672 242.241 L 101.151 242.300 100.695 242.883 M150.943 243.119 L 151.535 243.237 151.787 246.948 C 151.926 248.989,152.158 251.073,152.304 251.579 C 152.450 252.086,152.675 253.220,152.803 254.100 C 152.930 254.980,153.196 256.105,153.393 256.600 C 153.590 257.095,153.814 257.850,153.890 258.277 C 153.966 258.705,154.202 259.378,154.414 259.774 C 154.626 260.170,154.800 260.640,154.800 260.818 C 154.800 261.177,157.059 265.677,157.452 266.099 C 157.588 266.246,157.970 266.835,158.300 267.408 C 159.479 269.456,163.278 273.802,165.576 275.732 C 165.948 276.044,166.503 276.525,166.809 276.800 C 168.290 278.132,170.428 279.593,172.516 280.701 C 173.185 281.056,173.950 281.484,174.216 281.651 C 174.482 281.818,175.060 282.070,175.500 282.209 C 175.940 282.349,176.402 282.601,176.526 282.771 C 176.650 282.940,177.100 283.186,177.526 283.318 C 178.539 283.632,179.829 283.621,144.308 283.605 L 115.117 283.591 114.674 283.176 C 114.431 282.947,114.124 282.499,113.992 282.180 C 113.860 281.861,113.682 281.600,113.597 281.600 C 113.513 281.600,113.389 281.382,113.322 281.115 C 113.255 280.849,112.987 280.376,112.726 280.065 C 112.465 279.754,112.188 279.209,112.111 278.852 C 112.033 278.496,111.897 278.160,111.808 278.105 C 111.604 277.979,109.281 273.269,109.093 272.600 C 109.016 272.325,108.844 271.965,108.711 271.800 C 108.578 271.635,108.355 271.101,108.216 270.614 C 108.077 270.127,107.791 269.409,107.581 269.017 C 107.372 268.626,107.199 268.170,107.198 268.003 C 107.197 267.836,106.972 267.219,106.698 266.630 C 106.424 266.042,106.200 265.418,106.200 265.243 C 106.200 265.069,106.025 264.560,105.812 264.113 C 105.598 263.666,105.280 262.676,105.106 261.914 C 104.932 261.151,104.711 260.431,104.616 260.314 C 104.521 260.196,104.291 259.380,104.105 258.500 C 103.918 257.620,103.649 256.630,103.508 256.300 C 103.366 255.970,103.192 255.176,103.121 254.535 C 103.051 253.895,102.859 253.051,102.696 252.660 C 102.533 252.269,102.264 250.948,102.099 249.724 C 101.933 248.501,101.702 247.095,101.584 246.600 C 101.127 244.684,101.005 243.535,101.229 243.265 C 101.458 242.989,149.588 242.848,150.943 243.119 M115.951 311.986 C 114.678 312.163,114.562 312.328,114.529 313.998 C 114.492 315.814,114.759 316.083,116.777 316.271 C 121.009 316.664,290.429 316.305,290.723 315.902 C 291.257 315.172,291.022 312.372,290.400 312.058 C 289.859 311.785,117.900 311.714,115.951 311.986 " stroke="none" fill="#6a7db3" fill-rule="evenodd"/>
    <path id="path1" d="M0.000 200.000 L 0.000 400.000 200.000 400.000 L 400.000 400.000 400.000 200.000 L 400.000 0.000 200.000 0.000 L 0.000 0.000 0.000 200.000 M206.352 84.001 C 208.140 84.110,209.985 84.282,210.452 84.383 C 210.918 84.485,212.650 84.674,214.300 84.804 C 215.950 84.935,217.660 85.161,218.100 85.307 C 218.540 85.452,219.914 85.711,221.153 85.881 C 222.392 86.050,223.594 86.290,223.823 86.413 C 224.053 86.535,224.839 86.720,225.570 86.824 C 226.302 86.927,227.440 87.182,228.100 87.390 C 228.760 87.598,229.840 87.903,230.500 88.067 C 232.620 88.594,234.685 89.221,234.909 89.408 C 235.029 89.507,235.616 89.690,236.214 89.814 C 236.811 89.938,237.487 90.157,237.714 90.301 C 237.942 90.445,238.527 90.677,239.014 90.816 C 239.502 90.955,240.035 91.178,240.200 91.312 C 240.365 91.446,240.815 91.619,241.200 91.697 C 241.585 91.775,242.276 92.055,242.736 92.320 C 243.195 92.584,243.690 92.800,243.836 92.801 C 243.981 92.801,244.640 93.071,245.300 93.400 C 245.960 93.729,246.601 93.999,246.726 93.999 C 246.850 94.000,247.059 94.130,247.191 94.289 C 247.323 94.448,247.851 94.725,248.365 94.905 C 248.879 95.085,249.705 95.494,250.200 95.814 C 250.695 96.134,251.503 96.582,251.996 96.811 C 252.489 97.039,252.939 97.299,252.996 97.390 C 253.053 97.481,253.435 97.695,253.846 97.865 C 254.256 98.036,254.706 98.274,254.846 98.393 C 254.985 98.513,255.550 98.893,256.100 99.238 C 256.650 99.583,257.580 100.188,258.166 100.583 C 258.753 100.977,259.551 101.493,259.941 101.728 C 260.331 101.964,260.706 102.234,260.775 102.328 C 260.961 102.583,262.556 103.800,262.705 103.800 C 262.811 103.800,263.919 104.644,264.937 105.500 C 265.068 105.610,265.498 105.970,265.892 106.300 C 266.286 106.630,267.055 107.328,267.600 107.850 C 268.145 108.373,268.650 108.800,268.722 108.800 C 268.873 108.800,271.291 111.092,272.486 112.369 C 272.934 112.847,273.953 113.903,274.750 114.715 C 275.548 115.527,276.200 116.248,276.200 116.316 C 276.200 116.384,276.447 116.683,276.750 116.981 C 277.053 117.279,277.525 117.819,277.800 118.182 C 278.075 118.545,278.391 118.945,278.503 119.071 C 278.688 119.280,279.974 120.928,280.711 121.900 C 280.877 122.120,281.283 122.652,281.611 123.083 C 281.940 123.514,282.262 124.076,282.326 124.333 C 282.391 124.590,282.515 124.800,282.602 124.800 C 282.773 124.800,284.749 128.043,285.284 129.200 C 285.462 129.585,285.734 130.125,285.890 130.400 C 286.045 130.675,286.501 131.597,286.903 132.448 C 287.304 133.300,287.707 134.042,287.796 134.098 C 287.886 134.153,288.068 134.649,288.200 135.200 C 288.332 135.751,288.514 136.247,288.605 136.303 C 288.695 136.359,288.920 136.876,289.105 137.452 C 289.289 138.029,289.603 138.860,289.803 139.300 C 290.002 139.740,290.227 140.415,290.302 140.800 C 290.378 141.185,290.555 141.683,290.695 141.906 C 290.836 142.129,291.067 142.849,291.209 143.506 C 291.350 144.163,291.581 144.933,291.721 145.218 C 291.862 145.503,292.080 146.358,292.205 147.118 C 292.330 147.878,292.561 148.786,292.719 149.135 C 292.876 149.484,293.102 150.519,293.220 151.435 C 293.339 152.351,293.551 153.460,293.692 153.900 C 293.833 154.340,294.064 155.735,294.206 157.000 C 294.348 158.265,294.585 159.543,294.732 159.840 C 295.112 160.605,295.076 162.184,294.669 162.634 C 294.352 162.985,293.326 163.000,270.069 163.000 C 242.501 163.000,245.007 163.165,244.993 161.350 C 244.961 157.158,244.012 149.886,243.395 149.100 C 243.308 148.990,243.082 148.360,242.892 147.700 C 242.701 147.040,242.384 146.293,242.187 146.041 C 241.989 145.788,241.771 145.325,241.702 145.011 C 241.634 144.698,241.402 144.283,241.189 144.090 C 240.975 143.896,240.796 143.639,240.792 143.519 C 240.787 143.399,240.517 142.988,240.192 142.608 C 239.866 142.227,239.600 141.821,239.600 141.706 C 239.600 141.590,239.420 141.384,239.200 141.246 C 238.980 141.109,238.800 140.877,238.800 140.731 C 238.800 140.309,232.653 134.200,232.228 134.200 C 232.142 134.200,231.885 133.998,231.655 133.750 C 231.426 133.503,230.937 133.095,230.569 132.844 C 230.201 132.594,229.315 131.989,228.600 131.499 C 227.885 131.010,226.918 130.431,226.450 130.212 C 225.982 129.993,225.600 129.728,225.600 129.623 C 225.600 129.518,225.321 129.370,224.980 129.296 C 224.638 129.221,224.193 128.993,223.990 128.790 C 223.787 128.587,223.260 128.324,222.820 128.205 C 222.379 128.087,221.885 127.857,221.723 127.695 C 221.561 127.533,221.308 127.400,221.161 127.400 C 221.014 127.400,220.355 127.140,219.697 126.822 C 219.039 126.504,218.189 126.178,217.808 126.097 C 217.427 126.016,216.797 125.789,216.408 125.592 C 216.019 125.395,215.295 125.173,214.800 125.098 C 214.305 125.023,213.709 124.841,213.476 124.694 C 213.244 124.546,212.317 124.286,211.418 124.115 C 210.519 123.945,209.619 123.717,209.419 123.610 C 209.218 123.503,208.209 123.316,207.177 123.196 C 206.145 123.076,204.826 122.845,204.246 122.682 C 201.078 121.793,186.975 121.810,182.900 122.707 C 182.130 122.877,180.915 123.142,180.200 123.297 C 176.800 124.032,173.338 125.236,171.000 126.498 C 169.192 127.473,167.424 128.519,166.975 128.879 C 166.686 129.111,166.193 129.480,165.878 129.700 C 164.169 130.894,160.781 134.455,160.121 135.750 C 159.939 136.108,159.716 136.400,159.625 136.400 C 159.535 136.400,159.307 136.738,159.119 137.150 C 158.625 138.236,157.936 139.503,157.665 139.826 C 157.535 139.980,157.322 140.554,157.190 141.103 C 157.058 141.651,156.823 142.305,156.667 142.555 C 156.511 142.806,156.193 144.282,155.960 145.836 L 155.536 148.662 155.977 151.475 C 156.219 153.022,156.540 154.426,156.689 154.594 C 156.838 154.762,157.074 155.284,157.213 155.752 C 157.351 156.221,157.585 156.705,157.732 156.827 C 157.880 156.949,158.000 157.158,158.000 157.290 C 158.000 158.071,160.533 161.194,162.478 162.812 C 163.260 163.463,164.053 164.127,164.241 164.288 C 164.428 164.450,165.216 164.960,165.991 165.422 C 166.766 165.885,167.400 166.339,167.400 166.431 C 167.400 166.524,167.504 166.600,167.630 166.600 C 167.826 166.600,171.816 168.460,173.400 169.290 C 173.675 169.434,174.418 169.700,175.050 169.882 C 175.683 170.063,176.200 170.289,176.200 170.383 C 176.200 170.478,176.538 170.612,176.950 170.682 C 177.363 170.752,178.285 171.025,179.000 171.289 C 180.992 172.026,182.186 172.409,183.500 172.732 C 184.160 172.894,184.970 173.153,185.300 173.307 C 185.630 173.461,186.524 173.727,187.286 173.899 C 188.049 174.070,188.769 174.287,188.886 174.379 C 189.004 174.472,189.730 174.661,190.500 174.800 C 191.270 174.939,192.069 175.141,192.276 175.247 C 192.483 175.354,193.457 175.607,194.440 175.808 C 195.424 176.010,196.335 176.257,196.464 176.359 C 196.594 176.460,197.420 176.656,198.300 176.793 C 199.180 176.931,200.125 177.156,200.400 177.293 C 200.675 177.430,201.620 177.654,202.500 177.790 C 203.380 177.926,204.370 178.162,204.700 178.315 C 205.030 178.467,205.956 178.684,206.757 178.796 C 207.559 178.909,208.532 179.134,208.921 179.296 C 209.310 179.458,210.397 179.726,211.336 179.890 C 212.276 180.054,213.150 180.276,213.280 180.383 C 213.409 180.491,214.123 180.676,214.866 180.795 C 215.609 180.913,216.595 181.138,217.058 181.293 C 217.521 181.449,218.530 181.683,219.300 181.814 C 220.070 181.944,220.942 182.174,221.238 182.324 C 221.534 182.475,222.415 182.689,223.195 182.799 C 223.976 182.910,224.940 183.137,225.339 183.303 C 225.737 183.470,226.650 183.742,227.368 183.908 C 228.085 184.075,228.770 184.292,228.890 184.392 C 229.010 184.491,229.736 184.680,230.504 184.811 C 231.272 184.942,232.058 185.132,232.251 185.233 C 232.601 185.414,234.849 186.045,237.888 186.812 C 238.761 187.033,239.571 187.287,239.688 187.377 C 239.804 187.467,240.422 187.642,241.060 187.765 C 241.698 187.889,242.508 188.122,242.860 188.282 C 243.212 188.442,244.040 188.677,244.700 188.805 C 245.360 188.932,246.080 189.150,246.300 189.288 C 246.520 189.426,247.195 189.654,247.800 189.795 C 248.405 189.936,249.278 190.219,249.739 190.425 C 250.200 190.631,250.695 190.801,250.839 190.802 C 250.983 190.803,251.550 191.025,252.100 191.296 C 252.650 191.566,253.238 191.790,253.408 191.794 C 253.577 191.797,254.072 191.982,254.508 192.205 C 254.943 192.428,255.660 192.706,256.100 192.824 C 256.540 192.941,257.035 193.152,257.200 193.293 C 257.365 193.434,257.860 193.662,258.300 193.800 C 258.740 193.938,259.235 194.167,259.400 194.310 C 259.565 194.452,259.970 194.634,260.300 194.714 C 260.630 194.794,261.359 195.102,261.919 195.399 C 262.480 195.695,263.110 195.999,263.319 196.075 C 263.529 196.151,264.126 196.458,264.647 196.757 C 265.168 197.055,266.428 197.738,267.447 198.274 C 268.466 198.809,269.345 199.310,269.400 199.385 C 269.455 199.461,269.786 199.638,270.136 199.780 C 270.485 199.921,270.927 200.208,271.117 200.418 C 271.307 200.628,271.532 200.800,271.617 200.800 C 271.748 200.800,272.888 201.543,274.685 202.800 C 274.921 202.965,275.416 203.280,275.784 203.500 C 276.153 203.720,276.708 204.125,277.018 204.400 C 277.328 204.675,277.788 205.056,278.041 205.247 C 278.859 205.866,280.128 206.891,280.519 207.249 C 280.728 207.442,281.473 208.117,282.173 208.749 C 283.713 210.142,285.722 212.198,286.163 212.835 C 286.341 213.091,286.691 213.464,286.943 213.665 C 287.194 213.865,287.400 214.136,287.400 214.266 C 287.400 214.397,287.580 214.616,287.800 214.754 C 288.020 214.891,288.200 215.096,288.200 215.208 C 288.200 215.321,288.497 215.710,288.859 216.072 C 289.640 216.853,291.088 218.933,291.287 219.559 C 291.364 219.801,291.515 220.000,291.624 220.000 C 291.732 220.000,291.960 220.338,292.130 220.750 C 292.300 221.163,292.557 221.635,292.700 221.800 C 293.222 222.402,295.621 227.299,296.216 228.978 C 296.426 229.571,296.678 230.156,296.777 230.278 C 296.875 230.400,297.070 231.040,297.211 231.700 C 297.351 232.360,297.576 233.125,297.710 233.400 C 297.844 233.675,298.063 234.440,298.196 235.100 C 298.329 235.760,298.563 236.705,298.717 237.200 C 298.871 237.695,299.135 239.135,299.305 240.400 C 299.475 241.665,299.694 243.161,299.791 243.724 C 300.319 246.784,300.208 255.855,299.610 258.418 C 299.497 258.903,299.270 260.311,299.105 261.548 C 298.941 262.784,298.721 263.954,298.618 264.148 C 298.514 264.341,298.328 265.175,298.204 266.000 C 298.081 266.825,297.864 267.680,297.723 267.900 C 297.581 268.120,297.354 268.885,297.219 269.600 C 297.084 270.315,296.799 271.240,296.586 271.656 C 296.374 272.072,296.200 272.639,296.200 272.915 C 296.200 273.192,295.975 273.841,295.700 274.358 C 295.425 274.874,295.200 275.433,295.199 275.598 C 295.199 275.764,295.033 276.172,294.830 276.505 C 294.627 276.837,294.344 277.464,294.201 277.897 C 294.058 278.330,293.729 279.106,293.471 279.621 C 293.212 280.136,293.000 280.647,293.000 280.755 C 293.000 280.863,292.880 281.051,292.732 281.173 C 292.585 281.295,292.362 281.734,292.236 282.148 C 291.924 283.171,290.925 284.199,290.240 284.202 C 248.756 284.353,230.400 284.163,230.400 283.581 C 230.400 283.393,233.481 281.882,234.250 281.692 C 234.553 281.618,234.800 281.488,234.800 281.405 C 234.800 281.322,235.228 281.058,235.750 280.819 C 237.102 280.202,237.991 279.715,238.478 279.327 C 238.710 279.142,239.395 278.663,240.000 278.264 C 241.367 277.361,243.139 275.854,244.591 274.358 C 246.325 272.572,246.449 272.411,247.882 270.113 C 248.734 268.746,249.755 266.657,249.893 265.999 C 249.973 265.615,250.162 265.105,250.313 264.867 C 250.464 264.629,250.684 263.819,250.803 263.067 C 250.922 262.315,251.150 261.192,251.310 260.571 C 251.650 259.247,251.723 251.750,251.404 250.910 C 251.296 250.627,251.074 249.496,250.909 248.399 C 250.745 247.301,250.480 246.200,250.320 245.951 C 250.160 245.703,249.969 245.168,249.895 244.762 C 249.821 244.356,249.544 243.731,249.280 243.373 C 249.016 243.015,248.800 242.619,248.800 242.492 C 248.800 242.366,248.623 242.102,248.408 241.907 C 248.192 241.711,247.915 241.248,247.792 240.876 C 247.669 240.504,247.438 240.200,247.278 240.200 C 247.118 240.200,246.929 240.043,246.858 239.850 C 246.724 239.491,244.614 237.374,243.771 236.753 C 243.512 236.563,243.036 236.203,242.712 235.953 C 241.901 235.327,240.832 234.669,240.000 234.284 C 239.615 234.106,239.165 233.849,239.000 233.713 C 238.835 233.577,238.385 233.346,238.000 233.200 C 237.615 233.054,237.165 232.823,237.000 232.687 C 236.835 232.551,236.295 232.325,235.800 232.185 C 235.305 232.045,234.765 231.820,234.600 231.684 C 234.435 231.548,233.895 231.332,233.400 231.202 C 232.905 231.073,232.318 230.851,232.096 230.709 C 231.873 230.567,231.288 230.386,230.796 230.306 C 230.303 230.227,229.622 230.002,229.283 229.807 C 228.944 229.612,228.044 229.345,227.283 229.214 C 226.522 229.082,225.711 228.852,225.480 228.702 C 225.248 228.552,224.361 228.332,223.508 228.214 C 222.654 228.095,221.673 227.865,221.328 227.704 C 220.983 227.542,219.832 227.280,218.770 227.122 C 217.709 226.965,216.674 226.748,216.470 226.641 C 216.267 226.534,215.515 226.384,214.800 226.308 C 214.085 226.232,212.555 225.960,211.400 225.702 C 209.001 225.168,206.653 224.705,204.200 224.282 C 203.265 224.121,202.038 223.856,201.474 223.692 C 200.910 223.529,199.710 223.302,198.806 223.189 C 197.903 223.076,196.780 222.853,196.311 222.694 C 195.843 222.534,194.748 222.312,193.880 222.200 C 192.418 222.012,191.183 221.748,187.800 220.899 C 187.085 220.720,185.960 220.478,185.300 220.362 C 184.640 220.246,183.605 220.021,183.000 219.861 C 182.395 219.702,181.099 219.397,180.119 219.184 C 179.140 218.972,178.240 218.719,178.119 218.622 C 177.999 218.525,177.225 218.340,176.400 218.210 C 175.575 218.080,174.630 217.882,174.300 217.768 C 173.416 217.464,170.343 216.642,168.424 216.195 C 167.502 215.981,166.647 215.724,166.524 215.624 C 166.401 215.525,165.760 215.335,165.100 215.203 C 164.440 215.071,163.720 214.853,163.500 214.718 C 163.280 214.584,162.560 214.358,161.900 214.218 C 161.240 214.077,160.519 213.848,160.298 213.708 C 160.077 213.568,159.403 213.348,158.801 213.219 C 158.198 213.090,157.510 212.856,157.271 212.700 C 157.032 212.543,156.401 212.310,155.869 212.183 C 155.336 212.055,154.720 211.839,154.500 211.703 C 154.280 211.568,153.587 211.308,152.960 211.126 C 152.333 210.944,151.765 210.706,151.698 210.597 C 151.631 210.489,151.423 210.400,151.235 210.400 C 151.048 210.400,150.355 210.137,149.697 209.816 C 149.039 209.495,148.256 209.171,147.958 209.097 C 147.660 209.022,147.312 208.835,147.184 208.680 C 147.056 208.526,146.840 208.400,146.705 208.400 C 146.570 208.400,145.344 207.826,143.980 207.124 C 140.499 205.333,139.996 205.057,139.626 204.734 C 139.447 204.577,138.989 204.291,138.610 204.098 C 138.230 203.906,137.796 203.625,137.645 203.474 C 137.495 203.323,137.258 203.200,137.120 203.200 C 136.878 203.200,135.221 202.174,134.601 201.641 C 134.172 201.272,131.828 199.538,131.435 199.300 C 129.773 198.292,122.646 191.517,121.876 190.213 C 121.677 189.876,121.446 189.600,121.364 189.600 C 121.281 189.600,120.804 188.993,120.304 188.250 C 119.803 187.508,119.084 186.495,118.705 186.000 C 117.956 185.022,117.780 184.749,116.948 183.277 C 116.645 182.740,116.309 182.165,116.203 182.000 C 116.097 181.835,115.874 181.385,115.709 181.000 C 115.543 180.615,115.322 180.165,115.218 180.000 C 114.841 179.406,113.800 177.063,113.800 176.808 C 113.800 176.664,113.633 176.267,113.429 175.924 C 113.225 175.581,112.941 174.850,112.798 174.300 C 112.655 173.750,112.464 173.204,112.374 173.086 C 112.285 172.969,112.075 172.285,111.908 171.568 C 111.742 170.850,111.478 169.956,111.322 169.581 C 111.167 169.207,110.979 168.360,110.905 167.700 C 110.831 167.040,110.602 165.825,110.397 165.000 C 109.414 161.048,109.309 146.397,110.237 142.700 C 110.347 142.260,110.565 141.090,110.720 140.100 C 110.876 139.110,111.133 137.985,111.292 137.600 C 111.451 137.215,111.683 136.360,111.809 135.700 C 111.934 135.040,112.153 134.316,112.295 134.092 C 112.438 133.868,112.665 133.150,112.800 132.498 C 112.936 131.845,113.216 130.995,113.423 130.609 C 113.631 130.222,113.800 129.760,113.800 129.583 C 113.800 129.405,114.015 128.856,114.277 128.363 C 114.539 127.869,114.815 127.187,114.890 126.847 C 114.965 126.506,115.149 126.125,115.300 126.000 C 115.451 125.875,115.630 125.520,115.698 125.211 C 115.765 124.902,116.037 124.357,116.300 124.000 C 116.563 123.643,116.834 123.101,116.901 122.796 C 116.968 122.491,117.198 122.083,117.411 121.890 C 117.625 121.696,117.800 121.399,117.800 121.230 C 117.800 121.060,118.011 120.602,118.270 120.211 C 118.528 119.820,119.086 118.960,119.510 118.300 C 119.934 117.640,120.398 116.981,120.540 116.836 C 120.683 116.690,120.800 116.501,120.800 116.415 C 120.800 116.329,121.003 116.028,121.250 115.746 C 121.498 115.464,122.240 114.488,122.900 113.577 C 123.965 112.106,130.155 105.711,131.783 104.400 C 132.124 104.125,132.650 103.695,132.952 103.444 C 133.509 102.981,134.973 101.831,135.700 101.286 C 137.138 100.208,137.636 99.855,138.221 99.500 C 138.584 99.280,139.042 99.002,139.239 98.882 C 139.436 98.762,139.755 98.524,139.949 98.352 C 140.142 98.180,140.615 97.896,141.000 97.719 C 141.385 97.543,142.105 97.131,142.600 96.803 C 143.095 96.475,143.725 96.105,144.000 95.982 C 144.275 95.858,144.635 95.680,144.800 95.585 C 145.881 94.966,148.287 93.800,148.484 93.800 C 148.615 93.800,149.015 93.584,149.373 93.320 C 149.731 93.056,150.356 92.778,150.762 92.703 C 151.168 92.628,151.635 92.450,151.800 92.308 C 151.965 92.167,152.460 91.937,152.900 91.799 C 153.340 91.661,153.798 91.470,153.918 91.376 C 154.183 91.167,156.683 90.299,158.200 89.888 C 158.805 89.724,159.525 89.467,159.800 89.317 C 160.075 89.167,160.840 88.934,161.500 88.799 C 162.160 88.664,162.925 88.442,163.200 88.304 C 163.475 88.166,164.060 87.992,164.500 87.917 C 164.940 87.842,166.065 87.567,167.000 87.306 C 167.935 87.045,169.150 86.772,169.700 86.701 C 170.250 86.629,171.060 86.452,171.500 86.307 C 171.940 86.162,173.155 85.936,174.200 85.806 C 175.245 85.675,176.595 85.449,177.200 85.302 C 177.805 85.156,179.020 84.978,179.900 84.907 C 180.780 84.835,182.715 84.635,184.200 84.461 C 189.757 83.811,199.800 83.603,206.352 84.001 M150.993 242.398 C 152.057 242.685,152.126 242.873,152.287 245.900 C 152.362 247.330,152.514 248.845,152.624 249.267 C 152.735 249.689,152.996 251.129,153.205 252.467 C 154.916 263.395,161.455 273.045,171.394 279.311 C 171.996 279.691,172.648 280.052,172.844 280.114 C 173.040 280.176,173.200 280.304,173.200 280.398 C 173.200 280.492,173.538 280.677,173.950 280.810 C 174.363 280.942,174.835 281.165,175.000 281.306 C 175.165 281.446,175.705 281.675,176.200 281.815 C 176.695 281.955,177.235 282.181,177.400 282.318 C 177.565 282.455,178.083 282.719,178.550 282.905 C 179.469 283.271,179.632 283.662,179.004 283.998 C 178.576 284.227,115.096 284.301,114.502 284.073 C 114.327 284.006,113.984 283.593,113.741 283.155 C 113.499 282.718,113.060 281.941,112.767 281.430 C 112.473 280.918,111.818 279.690,111.310 278.700 C 110.802 277.710,110.306 276.765,110.207 276.600 C 110.048 276.333,109.249 274.621,108.201 272.300 C 108.002 271.860,107.778 271.207,107.704 270.850 C 107.629 270.493,107.488 270.200,107.390 270.200 C 107.292 270.200,107.065 269.683,106.887 269.050 C 106.709 268.418,106.394 267.538,106.186 267.095 C 105.978 266.653,105.746 265.978,105.670 265.595 C 105.594 265.213,105.367 264.630,105.166 264.300 C 104.966 263.970,104.801 263.492,104.801 263.237 C 104.800 262.982,104.625 262.352,104.412 261.837 C 104.198 261.322,103.918 260.364,103.789 259.708 C 103.660 259.052,103.441 258.332,103.302 258.108 C 103.163 257.884,102.943 256.980,102.812 256.100 C 102.681 255.220,102.453 254.230,102.305 253.900 C 102.157 253.570,101.931 252.580,101.803 251.700 C 101.674 250.820,101.447 249.650,101.297 249.100 C 101.148 248.550,100.923 247.245,100.798 246.200 C 100.673 245.155,100.496 244.112,100.404 243.883 C 100.283 243.577,100.360 243.311,100.695 242.883 L 101.151 242.300 125.672 242.241 C 142.742 242.200,150.436 242.248,150.993 242.398 M290.400 312.058 C 291.022 312.372,291.257 315.172,290.723 315.902 C 290.429 316.305,121.009 316.664,116.777 316.271 C 114.759 316.083,114.492 315.814,114.529 313.998 C 114.562 312.328,114.678 312.163,115.951 311.986 C 117.900 311.714,289.859 311.785,290.400 312.058 " stroke="none" fill="#424044" fill-rule="evenodd"/>
    <path id="path2" d="M189.600 84.694 C 188.335 84.835,185.658 85.053,183.650 85.180 C 181.643 85.306,179.757 85.502,179.460 85.615 C 179.162 85.728,177.807 85.951,176.447 86.110 C 175.088 86.269,173.813 86.486,173.615 86.592 C 173.417 86.698,172.280 86.929,171.088 87.106 C 169.896 87.283,168.755 87.517,168.552 87.626 C 168.349 87.734,167.401 87.960,166.444 88.127 C 165.487 88.294,164.614 88.505,164.502 88.597 C 164.391 88.689,163.580 88.946,162.700 89.168 C 160.165 89.809,158.341 90.366,157.800 90.666 C 157.525 90.819,156.895 91.043,156.400 91.165 C 155.905 91.286,155.143 91.569,154.708 91.793 C 154.272 92.017,153.794 92.200,153.645 92.200 C 153.382 92.200,152.117 92.740,150.097 93.716 C 149.546 93.982,148.995 94.200,148.874 94.200 C 148.753 94.200,148.439 94.366,148.177 94.568 C 147.915 94.770,147.403 95.037,147.041 95.161 C 146.678 95.285,146.148 95.569,145.864 95.793 C 145.579 96.017,145.185 96.200,144.987 96.200 C 144.790 96.200,144.504 96.325,144.352 96.477 C 144.199 96.629,143.721 96.947,143.287 97.184 C 142.854 97.421,142.140 97.832,141.700 98.097 C 141.260 98.363,140.518 98.782,140.050 99.030 C 139.583 99.277,139.200 99.549,139.200 99.635 C 139.200 99.720,138.914 99.938,138.565 100.118 C 137.888 100.468,135.830 101.896,135.000 102.591 C 134.725 102.821,133.600 103.750,132.500 104.655 C 129.193 107.375,124.816 111.943,122.700 114.884 C 122.480 115.190,122.053 115.758,121.750 116.147 C 121.447 116.537,121.200 116.910,121.200 116.978 C 121.200 117.045,120.965 117.370,120.679 117.700 C 120.393 118.030,120.076 118.480,119.975 118.700 C 119.874 118.920,119.531 119.505,119.211 120.000 C 118.634 120.893,115.200 127.640,115.200 127.879 C 115.200 127.948,115.025 128.386,114.811 128.852 C 114.324 129.913,113.687 131.709,113.199 133.400 C 112.992 134.115,112.695 135.015,112.537 135.400 C 112.380 135.785,112.190 136.588,112.114 137.184 C 112.039 137.780,111.850 138.573,111.694 138.946 C 111.538 139.320,111.267 140.722,111.092 142.063 C 110.917 143.403,110.667 144.950,110.537 145.500 C 110.137 147.187,110.214 160.738,110.633 162.500 C 110.816 163.270,111.077 164.755,111.212 165.800 C 111.346 166.845,111.533 167.798,111.627 167.918 C 111.720 168.038,111.940 168.893,112.115 169.818 C 112.291 170.743,112.508 171.590,112.598 171.700 C 112.688 171.810,112.917 172.440,113.105 173.100 C 113.294 173.760,113.517 174.390,113.600 174.500 C 113.683 174.610,113.906 175.240,114.094 175.900 C 114.282 176.560,114.556 177.235,114.703 177.400 C 114.850 177.565,115.077 178.128,115.209 178.650 C 115.340 179.173,115.516 179.600,115.599 179.600 C 115.683 179.600,115.944 180.028,116.179 180.550 C 116.415 181.072,117.096 182.265,117.693 183.200 C 118.290 184.135,118.929 185.192,119.112 185.550 C 119.296 185.908,119.506 186.200,119.580 186.200 C 119.653 186.200,119.881 186.482,120.085 186.828 C 120.288 187.173,120.580 187.600,120.733 187.778 C 120.887 187.955,121.798 189.045,122.758 190.200 C 124.661 192.488,127.974 195.753,129.950 197.288 C 130.638 197.822,131.200 198.330,131.200 198.416 C 131.200 198.502,131.374 198.628,131.586 198.695 C 131.798 198.763,132.540 199.259,133.236 199.799 C 135.239 201.354,135.427 201.485,136.800 202.302 C 138.633 203.391,139.864 204.159,140.115 204.370 C 140.233 204.469,140.728 204.744,141.215 204.982 C 142.615 205.664,143.277 206.006,143.600 206.214 C 143.765 206.321,144.215 206.543,144.600 206.709 C 144.985 206.874,145.435 207.099,145.600 207.209 C 145.765 207.318,146.215 207.545,146.600 207.713 C 146.985 207.880,147.751 208.238,148.303 208.509 C 148.854 208.779,149.451 209.000,149.628 209.000 C 149.806 209.000,150.054 209.124,150.179 209.275 C 150.305 209.426,150.833 209.664,151.354 209.804 C 151.874 209.944,152.570 210.215,152.900 210.407 C 153.230 210.600,153.815 210.822,154.200 210.902 C 154.585 210.981,155.125 211.169,155.400 211.319 C 156.090 211.694,158.008 212.355,159.800 212.833 C 160.624 213.053,161.395 213.313,161.513 213.411 C 161.631 213.509,162.216 213.691,162.814 213.817 C 163.411 213.943,164.260 214.207,164.700 214.404 C 165.140 214.601,165.950 214.826,166.500 214.903 C 167.050 214.980,167.693 215.164,167.928 215.312 C 168.164 215.460,168.974 215.686,169.728 215.814 C 170.483 215.943,171.386 216.165,171.736 216.308 C 172.086 216.451,173.121 216.720,174.036 216.905 C 174.951 217.090,175.805 217.327,175.933 217.432 C 176.062 217.536,176.782 217.717,177.533 217.834 C 178.285 217.951,179.305 218.205,179.800 218.399 C 180.295 218.593,181.195 218.817,181.800 218.898 C 182.405 218.978,183.187 219.162,183.537 219.307 C 183.887 219.451,184.877 219.675,185.735 219.805 C 186.594 219.936,187.613 220.166,187.999 220.318 C 188.384 220.469,189.465 220.720,190.400 220.874 C 193.347 221.361,196.663 222.012,197.700 222.307 C 198.250 222.464,199.608 222.728,200.717 222.895 C 201.826 223.062,202.996 223.288,203.317 223.399 C 203.638 223.509,204.814 223.727,205.931 223.883 C 207.049 224.039,208.129 224.252,208.331 224.356 C 208.534 224.461,209.465 224.656,210.400 224.790 C 211.335 224.924,212.554 225.158,213.109 225.310 C 213.663 225.463,214.982 225.717,216.039 225.876 C 217.095 226.035,218.138 226.260,218.357 226.377 C 218.575 226.494,219.416 226.688,220.227 226.808 C 221.037 226.928,222.060 227.153,222.500 227.308 C 222.940 227.462,223.885 227.689,224.600 227.812 C 225.315 227.935,226.260 228.197,226.700 228.393 C 227.140 228.590,227.950 228.814,228.500 228.891 C 229.050 228.968,229.700 229.160,229.944 229.316 C 230.189 229.473,230.864 229.700,231.444 229.821 C 232.025 229.941,232.680 230.152,232.900 230.290 C 233.120 230.427,233.660 230.656,234.100 230.799 C 234.540 230.942,235.214 231.226,235.597 231.429 C 235.980 231.633,236.365 231.800,236.451 231.800 C 236.665 231.800,239.711 233.301,240.700 233.893 C 241.140 234.157,241.770 234.526,242.100 234.714 C 242.840 235.135,245.766 237.493,246.269 238.074 C 246.472 238.308,246.967 238.875,247.369 239.334 C 247.771 239.792,248.325 240.549,248.600 241.015 C 248.875 241.481,249.299 242.163,249.542 242.529 C 250.149 243.442,251.116 245.908,251.297 247.000 C 251.378 247.495,251.520 247.993,251.612 248.107 C 252.917 249.733,252.039 264.064,250.499 266.262 C 250.335 266.497,250.200 266.826,250.199 266.995 C 250.198 267.500,248.105 271.399,247.619 271.800 C 247.552 271.855,247.231 272.260,246.904 272.700 C 245.622 274.427,240.396 279.200,239.787 279.200 C 239.700 279.200,239.504 279.325,239.352 279.477 C 239.199 279.629,238.721 279.948,238.287 280.185 C 235.724 281.588,234.104 282.400,233.868 282.400 C 233.721 282.400,233.600 282.494,233.600 282.608 C 233.600 282.723,233.218 282.986,232.750 283.194 C 231.664 283.677,228.314 283.629,261.493 283.604 L 290.486 283.582 291.035 282.941 C 291.337 282.589,291.689 281.995,291.816 281.623 C 291.944 281.250,292.263 280.630,292.524 280.245 C 292.786 279.859,293.000 279.372,293.000 279.162 C 293.000 278.951,293.177 278.446,293.392 278.040 C 293.922 277.042,294.720 275.214,294.894 274.600 C 294.972 274.325,295.253 273.545,295.518 272.866 C 295.783 272.187,296.000 271.481,296.000 271.296 C 296.000 271.112,296.131 270.677,296.291 270.330 C 296.451 269.984,296.724 269.076,296.896 268.314 C 297.069 267.551,297.289 266.831,297.384 266.714 C 297.479 266.596,297.709 265.518,297.896 264.317 C 298.082 263.116,298.315 261.923,298.413 261.665 C 298.609 261.150,299.349 254.573,299.538 251.664 C 299.765 248.161,298.325 237.086,297.319 234.600 C 297.163 234.215,296.901 233.360,296.736 232.700 C 296.327 231.060,295.861 229.689,295.307 228.500 C 295.050 227.950,294.776 227.275,294.697 227.000 C 294.617 226.725,294.440 226.365,294.302 226.200 C 294.164 226.035,293.936 225.540,293.796 225.100 C 293.656 224.660,293.477 224.255,293.398 224.200 C 293.319 224.145,293.039 223.708,292.777 223.230 C 292.515 222.751,292.075 221.972,291.800 221.499 C 291.525 221.026,291.143 220.365,290.951 220.031 C 290.657 219.519,289.865 218.403,288.303 216.300 C 287.385 215.063,286.750 214.321,285.400 212.905 C 283.572 210.987,280.984 208.481,279.893 207.572 C 279.449 207.203,278.954 206.790,278.793 206.655 C 278.433 206.354,276.387 204.731,275.257 203.850 C 274.799 203.493,274.368 203.200,274.300 203.200 C 274.232 203.200,273.589 202.789,272.871 202.287 C 272.152 201.785,271.415 201.321,271.232 201.257 C 271.049 201.193,270.630 200.944,270.300 200.704 C 269.970 200.463,269.070 199.919,268.300 199.493 C 267.530 199.068,266.872 198.653,266.837 198.571 C 266.802 198.489,266.442 198.316,266.037 198.185 C 265.632 198.055,265.186 197.857,265.047 197.747 C 264.908 197.636,263.987 197.165,263.000 196.700 C 262.013 196.235,261.092 195.764,260.953 195.653 C 260.814 195.543,260.340 195.336,259.901 195.194 C 259.462 195.053,258.706 194.726,258.221 194.468 C 257.737 194.211,257.221 194.000,257.075 194.000 C 256.929 194.000,256.515 193.820,256.155 193.601 C 255.795 193.381,255.365 193.200,255.200 193.199 C 255.035 193.198,254.450 192.975,253.900 192.704 C 253.350 192.434,252.765 192.209,252.600 192.204 C 252.435 192.200,251.850 191.987,251.300 191.733 C 250.750 191.478,249.864 191.160,249.331 191.027 C 248.799 190.894,248.169 190.663,247.931 190.515 C 247.694 190.366,247.143 190.182,246.707 190.105 C 246.271 190.029,245.675 189.842,245.382 189.691 C 245.090 189.540,244.199 189.280,243.403 189.114 C 242.607 188.948,241.853 188.728,241.728 188.624 C 241.603 188.520,240.784 188.288,239.908 188.107 C 239.032 187.927,238.216 187.696,238.093 187.594 C 237.970 187.492,237.209 187.270,236.400 187.100 C 235.591 186.930,234.830 186.708,234.708 186.607 C 234.586 186.505,233.942 186.335,233.276 186.228 C 232.610 186.121,231.758 185.904,231.383 185.748 C 231.007 185.591,230.004 185.308,229.154 185.118 C 228.304 184.929,227.561 184.698,227.503 184.605 C 227.446 184.512,226.746 184.325,225.949 184.190 C 225.152 184.055,224.318 183.833,224.095 183.697 C 223.872 183.561,223.197 183.385,222.595 183.305 C 221.993 183.225,220.990 182.990,220.366 182.783 C 219.743 182.576,218.504 182.280,217.614 182.126 C 216.724 181.971,215.884 181.759,215.748 181.654 C 215.611 181.550,214.825 181.349,214.000 181.209 C 213.175 181.069,212.193 180.828,211.818 180.674 C 211.443 180.520,210.498 180.296,209.718 180.176 C 208.938 180.056,208.022 179.843,207.682 179.703 C 207.341 179.562,206.396 179.336,205.582 179.201 C 204.767 179.065,203.796 178.830,203.425 178.677 C 203.054 178.525,202.154 178.308,201.425 178.197 C 200.696 178.085,199.515 177.820,198.800 177.607 C 197.250 177.147,195.510 176.710,193.200 176.201 C 192.265 175.995,191.185 175.694,190.800 175.532 C 190.415 175.370,189.650 175.173,189.100 175.093 C 188.550 175.014,187.920 174.854,187.700 174.737 C 187.480 174.621,186.535 174.311,185.600 174.050 C 181.511 172.906,178.853 172.050,177.670 171.495 C 177.323 171.333,176.882 171.200,176.689 171.200 C 176.496 171.200,175.859 170.973,175.272 170.696 C 174.686 170.418,173.937 170.137,173.608 170.072 C 173.278 170.006,172.906 169.828,172.780 169.676 C 172.654 169.524,172.465 169.400,172.360 169.400 C 171.956 169.400,167.384 167.176,166.800 166.695 C 166.635 166.559,166.189 166.291,165.810 166.098 C 165.430 165.906,165.008 165.647,164.872 165.524 C 164.735 165.401,164.295 165.075,163.894 164.800 C 161.812 163.374,159.742 161.349,158.507 159.529 C 157.652 158.269,155.800 154.459,155.800 153.960 C 155.800 153.791,155.620 153.089,155.400 152.400 C 154.844 150.660,154.846 146.913,155.405 144.814 C 155.622 143.996,155.800 143.182,155.800 143.006 C 155.800 142.829,155.982 142.328,156.205 141.892 C 156.428 141.457,156.706 140.740,156.824 140.300 C 156.941 139.860,157.153 139.365,157.294 139.200 C 157.435 139.035,157.741 138.495,157.974 138.000 C 158.207 137.505,158.555 136.869,158.749 136.587 C 158.942 136.305,159.296 135.765,159.535 135.387 C 160.463 133.922,163.801 130.456,165.398 129.300 C 165.854 128.970,166.375 128.542,166.558 128.350 C 166.740 128.157,166.997 128.000,167.129 128.000 C 167.261 128.000,167.624 127.785,167.936 127.523 C 168.248 127.260,168.818 126.902,169.202 126.727 C 169.586 126.552,170.035 126.323,170.200 126.218 C 170.365 126.114,171.220 125.698,172.100 125.295 C 172.980 124.892,173.925 124.448,174.200 124.307 C 174.475 124.167,175.195 123.938,175.800 123.799 C 176.405 123.660,177.125 123.436,177.400 123.300 C 177.675 123.165,178.530 122.942,179.300 122.806 C 180.070 122.670,181.060 122.441,181.500 122.299 C 186.549 120.661,202.029 121.102,210.100 123.114 C 210.760 123.278,211.873 123.546,212.574 123.708 C 213.274 123.871,214.129 124.133,214.474 124.292 C 214.818 124.450,215.680 124.726,216.388 124.905 C 217.097 125.084,217.859 125.359,218.083 125.515 C 218.306 125.672,218.626 125.801,218.795 125.802 C 218.963 125.803,219.550 126.025,220.100 126.296 C 220.650 126.566,221.170 126.790,221.256 126.794 C 221.473 126.802,224.097 128.104,225.300 128.800 C 225.850 129.118,226.615 129.541,227.000 129.739 C 227.386 129.938,227.926 130.261,228.200 130.458 C 233.372 134.165,233.247 134.062,236.304 137.100 C 239.280 140.058,241.066 142.364,242.112 144.600 C 242.292 144.985,242.554 145.435,242.695 145.600 C 242.835 145.765,243.064 146.260,243.205 146.700 C 243.346 147.140,243.572 147.680,243.708 147.900 C 243.844 148.120,244.067 148.795,244.204 149.400 C 244.341 150.005,244.540 150.669,244.647 150.875 C 244.827 151.223,245.500 156.912,245.738 160.100 C 245.914 162.450,243.015 162.200,270.124 162.200 C 293.217 162.200,293.791 162.191,293.991 161.818 C 294.213 161.402,293.834 158.097,293.312 155.900 C 293.155 155.240,292.921 153.845,292.792 152.800 C 292.662 151.755,292.471 150.739,292.367 150.542 C 292.263 150.346,292.048 149.491,291.889 148.642 C 291.730 147.794,291.478 146.785,291.328 146.400 C 291.178 146.015,290.915 145.160,290.743 144.500 C 290.161 142.257,289.556 140.301,289.374 140.076 C 289.275 139.952,289.051 139.367,288.876 138.776 C 288.702 138.184,288.490 137.610,288.406 137.500 C 288.322 137.390,288.104 136.844,287.922 136.286 C 287.560 135.174,283.724 127.492,283.278 126.984 C 283.125 126.811,283.000 126.600,283.000 126.517 C 283.000 126.434,282.714 125.946,282.364 125.433 C 282.014 124.920,281.456 124.095,281.124 123.600 C 278.989 120.419,273.909 114.425,271.225 111.918 C 270.743 111.468,269.843 110.626,269.225 110.048 C 268.606 109.469,267.965 108.874,267.800 108.725 C 267.410 108.373,264.646 106.090,264.000 105.586 C 263.725 105.371,263.005 104.807,262.400 104.332 C 261.795 103.857,260.805 103.139,260.200 102.738 C 258.432 101.563,257.808 101.128,257.207 100.650 C 256.897 100.403,256.570 100.200,256.482 100.200 C 256.394 100.200,256.002 99.989,255.611 99.732 C 255.220 99.475,254.632 99.092,254.305 98.882 C 253.224 98.188,250.327 96.618,248.600 95.791 C 247.665 95.343,246.743 94.892,246.550 94.788 C 245.791 94.380,245.459 94.217,244.400 93.730 C 243.795 93.452,243.075 93.163,242.800 93.089 C 242.525 93.014,242.165 92.840,242.000 92.702 C 241.835 92.564,241.340 92.340,240.900 92.205 C 240.460 92.071,239.734 91.789,239.287 91.580 C 238.840 91.371,238.369 91.200,238.241 91.200 C 238.113 91.200,237.444 90.981,236.754 90.713 C 234.644 89.894,232.845 89.353,228.100 88.108 C 227.110 87.849,226.022 87.549,225.683 87.442 C 225.344 87.335,224.491 87.180,223.788 87.099 C 223.084 87.017,222.166 86.829,221.747 86.681 C 221.327 86.533,219.971 86.279,218.734 86.117 C 217.496 85.955,216.262 85.739,215.992 85.638 C 215.721 85.537,214.015 85.346,212.200 85.214 C 210.385 85.081,207.910 84.876,206.700 84.757 C 203.381 84.431,192.341 84.391,189.600 84.694 M101.229 243.265 C 101.005 243.535,101.127 244.684,101.584 246.600 C 101.702 247.095,101.933 248.501,102.099 249.724 C 102.264 250.948,102.533 252.269,102.696 252.660 C 102.859 253.051,103.051 253.895,103.121 254.535 C 103.192 255.176,103.366 255.970,103.508 256.300 C 103.649 256.630,103.918 257.620,104.105 258.500 C 104.291 259.380,104.521 260.196,104.616 260.314 C 104.711 260.431,104.932 261.151,105.106 261.914 C 105.280 262.676,105.598 263.666,105.812 264.113 C 106.025 264.560,106.200 265.069,106.200 265.243 C 106.200 265.418,106.424 266.042,106.698 266.630 C 106.972 267.219,107.197 267.836,107.198 268.003 C 107.199 268.170,107.372 268.626,107.581 269.017 C 107.791 269.409,108.077 270.127,108.216 270.614 C 108.355 271.101,108.578 271.635,108.711 271.800 C 108.844 271.965,109.016 272.325,109.093 272.600 C 109.281 273.269,111.604 277.979,111.808 278.105 C 111.897 278.160,112.033 278.496,112.111 278.852 C 112.188 279.209,112.465 279.754,112.726 280.065 C 112.987 280.376,113.255 280.849,113.322 281.115 C 113.389 281.382,113.513 281.600,113.597 281.600 C 113.682 281.600,113.860 281.861,113.992 282.180 C 114.124 282.499,114.431 282.947,114.674 283.176 L 115.117 283.591 144.308 283.605 C 179.829 283.621,178.539 283.632,177.526 283.318 C 177.100 283.186,176.650 282.940,176.526 282.771 C 176.402 282.601,175.940 282.349,175.500 282.209 C 175.060 282.070,174.482 281.818,174.216 281.651 C 173.950 281.484,173.185 281.056,172.516 280.701 C 170.428 279.593,168.290 278.132,166.809 276.800 C 166.503 276.525,165.948 276.044,165.576 275.732 C 163.278 273.802,159.479 269.456,158.300 267.408 C 157.970 266.835,157.588 266.246,157.452 266.099 C 157.059 265.677,154.800 261.177,154.800 260.818 C 154.800 260.640,154.626 260.170,154.414 259.774 C 154.202 259.378,153.966 258.705,153.890 258.277 C 153.814 257.850,153.590 257.095,153.393 256.600 C 153.196 256.105,152.930 254.980,152.803 254.100 C 152.675 253.220,152.450 252.086,152.304 251.579 C 152.158 251.073,151.926 248.989,151.787 246.948 L 151.535 243.237 150.943 243.119 C 149.588 242.848,101.458 242.989,101.229 243.265 " stroke="none" fill="#fffdff" fill-rule="evenodd"/>
  </g>
</svg>