<?xml version="1.0" encoding="UTF-8" standalone="no"?>
<svg
   xmlns:dc="http://purl.org/dc/elements/1.1/"
   xmlns:cc="http://creativecommons.org/ns#"
   xmlns:rdf="http://www.w3.org/1999/02/22-rdf-syntax-ns#"
   xmlns:svg="http://www.w3.org/2000/svg"
   xmlns="http://www.w3.org/2000/svg"
   viewBox="0 0 510.82501 219.96249"
   height="219.96249"
   width="510.82501"
   xml:space="preserve"
   version="1.1"
   id="svg2"><metadata
     id="metadata8"><rdf:RDF><cc:Work
         rdf:about=""><dc:format>image/svg+xml</dc:format><dc:type
           rdf:resource="http://purl.org/dc/dcmitype/StillImage" /></cc:Work></rdf:RDF></metadata><defs
     id="defs6"><clipPath
       id="clipPath18"
       clipPathUnits="userSpaceOnUse"><path
         id="path20"
         d="m 0,0 4086.61,0 0,1759.69 L 0,1759.69 0,0 Z" /></clipPath><clipPath
       id="clipPath28"
       clipPathUnits="userSpaceOnUse"><path
         id="path30"
         d="M 0,1759.69 0,0 l 4086.61,0 0,1759.69 -4086.61,0 z" /></clipPath><clipPath
       id="clipPath38"
       clipPathUnits="userSpaceOnUse"><path
         id="path40"
         d="m 0,0 4086.61,0 0,1759.69 L 0,1759.69 0,0 Z" /></clipPath></defs><g
     transform="matrix(1.25,0,0,-1.25,0,219.9625)"
     id="g10"><g
       transform="scale(0.1,0.1)"
       id="g12"><g
         id="g14"><g
           clip-path="url(#clipPath18)"
           id="g16"><path
             id="path22"
             style="fill:#73c82c;fill-opacity:1;fill-rule:nonzero;stroke:none"
             d="m 2043.29,0 c 485.76,0 879.84,393.98 879.84,879.75 0,486.05 -394.08,879.94 -879.84,879.94 -485.75,0 -879.85,-393.89 -879.85,-879.94 C 1163.44,393.98 1557.54,0 2043.29,0" /></g></g><g
         id="g24"><g
           clip-path="url(#clipPath28)"
           id="g26"><path
             id="path32"
             style="fill:#003328;fill-opacity:1;fill-rule:nonzero;stroke:none"
             d="m 0.00390625,538.73 4086.59999375,0 0,682.219 -4086.59999375,0 0,-682.219 z" /></g></g><g
         id="g34"><g
           clip-path="url(#clipPath38)"
           id="g36"><path
             id="path42"
             style="fill:#ffffff;fill-opacity:1;fill-rule:nonzero;stroke:none"
             d="m 398.516,759.84 c -109.953,0 -124.653,12.621 -147.774,12.621 -6.48,0 -10.398,-3.09 -10.398,-9.965 l -22.934,0 0,81.641 22.934,0 c 0,-48.223 63.57,-59.844 150.168,-59.844 74.445,0 118.722,12.48 118.722,35.312 0,17.618 -10.078,26.094 -51.851,28.809 l -132.969,8.457 c -71.812,4.277 -110.391,20.387 -110.391,64.91 0,54.149 67.641,78.047 166.641,78.047 89.656,0 112.566,-13.047 125.508,-13.047 6.695,0 10.391,3.399 10.391,10.176 l 22.929,0 0,-76.945 -22.929,0 c 0,42.734 -58.532,55.265 -132.309,55.265 -88.133,0 -121.024,-13.058 -121.024,-33.8 0,-16.426 20.946,-24.434 57.555,-26.61 l 139.125,-8.898 c 69.492,-4.832 102.692,-25.313 102.692,-67.946 0,-54.492 -66.086,-78.183 -164.086,-78.183" /><path
             id="path44"
             style="fill:#ffffff;fill-opacity:1;fill-rule:nonzero;stroke:none"
             d="m 945.625,879.66 c 0,-35.074 -11.598,-60.191 -35.383,-75.64 -23.558,-15.118 -48.894,-22.715 -91.867,-22.715 -42.637,0 -68.078,7.597 -91.652,22.715 -23.809,15.449 -35.395,40.566 -35.395,75.64 0,35.207 11.586,60.41 35.395,75.656 23.574,15.137 49.015,22.911 91.652,22.911 42.973,0 68.309,-7.774 91.867,-22.911 23.785,-15.246 35.383,-40.449 35.383,-75.656 m 75.885,0 c 0,23.028 -9.09,46.926 -27.194,64.785 -18.41,18.301 -44.074,32.246 -76.191,42.668 -32.758,10.301 -63.902,12.715 -99.75,12.715 -35.078,0 -66.539,-2.414 -99.098,-12.715 -32.328,-10.422 -57.429,-24.367 -76.191,-42.668 -17.988,-17.859 -27.301,-41.757 -27.301,-64.785 0,-22.574 9.313,-46.695 27.301,-64.781 18.762,-18.106 43.863,-32.125 76.191,-42.539 32.559,-10.078 64.02,-12.5 99.098,-12.5 35.848,0 66.992,2.422 99.75,12.5 32.117,10.414 57.781,24.433 76.191,42.539 18.104,18.086 27.194,42.207 27.194,64.781" /><path
             id="path46"
             style="fill:#ffffff;fill-opacity:1;fill-rule:nonzero;stroke:none"
             d="m 1482.37,973.84 c -52.52,0 -59.65,-16.238 -59.65,-39.988 l 0,-81.278 c 0,-58.398 -35.2,-92.734 -155.22,-92.734 -133.63,0 -166.84,31.348 -166.84,83.75 l 0,110.191 c 0,6.907 -0.87,12.5 -4.17,15.344 -3.61,3.719 -10.51,4.715 -24.88,4.715 l -35.64,0 0,20.5 192.83,0 0,-20.5 -33.97,0 c -14.13,0 -20.94,-0.996 -24.37,-4.715 -3.07,-2.844 -3.9,-8.437 -3.9,-15.344 l 0,-95.035 c 0,-52.07 24.2,-73.027 108.28,-73.027 79.38,0 120.27,16.992 120.27,69.707 l 0,78.426 c 0,23.75 -7.12,39.988 -58.65,39.988 l -8.67,0 0,20.5 163.67,0 0,-20.5 -9.09,0" /><path
             id="path48"
             style="fill:#ffffff;fill-opacity:1;fill-rule:nonzero;stroke:none"
             d="m 1885.24,907.297 c -8.79,54.277 -34.75,67.09 -81.88,67.09 l -10.53,0 c -29.06,0 -35.1,-2.078 -38.37,-4.93 -3.84,-2.941 -4.29,-8.215 -4.29,-15.012 l 0,-148.55 c 0,-7.129 0.87,-12.5 4.29,-15.567 3.51,-3.633 10.63,-4.609 25.52,-4.609 l 39.82,0 0,-20.391 -204.7,0 0,20.391 39.81,0 c 14.69,0 21.82,0.976 25.34,4.609 3.39,3.067 4.28,8.438 4.28,15.567 l 0,148.55 c 0,6.797 -0.89,12.071 -4.43,15.012 -3.37,2.852 -9.28,4.93 -38.45,4.93 l -10.43,0 c -47.23,0 -73.22,-12.813 -81.87,-67.09 l -22.28,0 0,87.051 380.42,0 0,-87.051 -22.25,0" /><path
             id="path50"
             style="fill:#ffffff;fill-opacity:1;fill-rule:nonzero;stroke:none"
             d="m 2230.14,765.328 0,20.391 36.92,0 c 14.68,0 22.01,0.996 25.62,4.609 3.11,3.067 3.99,8.438 3.99,15.567 l 0,67.097 -209.26,0 0,-67.097 c 0,-7.129 1.05,-12.5 4.14,-15.567 3.61,-3.613 10.84,-4.609 25.53,-4.609 l 36.95,0 0,-20.391 -198.73,0 0,20.391 36.63,0 c 14.89,0 22.23,0.996 25.65,4.609 3.29,3.067 4.4,8.438 4.4,15.567 l 0,147.886 c 0,6.914 -1.11,12.492 -4.4,15.344 -3.42,3.73 -10.76,4.715 -25.65,4.715 l -36.63,0 0,20.5 198.73,0 0,-20.5 -36.95,0 c -14.69,0 -21.92,-0.985 -25.53,-4.715 -3.09,-2.852 -4.14,-8.43 -4.14,-15.344 l 0,-56.679 209.26,0 0,56.679 c 0,6.914 -0.88,12.492 -3.99,15.344 -3.61,3.73 -10.94,4.715 -25.62,4.715 l -36.92,0 0,20.5 198.87,0 0,-20.5 -36.66,0 c -15,0 -22.05,-0.985 -25.67,-4.715 -3.26,-2.852 -4.14,-8.43 -4.14,-15.344 l 0,-147.886 c 0,-7.129 0.88,-12.5 4.14,-15.567 3.62,-3.613 10.67,-4.609 25.67,-4.609 l 36.66,0 0,-20.391 -198.87,0" /><path
             id="path52"
             style="fill:#ffffff;fill-opacity:1;fill-rule:nonzero;stroke:none"
             d="m 2500.69,765.328 0,20.391 36.81,0 c 14.73,0 21.8,0.996 25.43,4.609 3.52,3.067 4.44,8.438 4.44,15.567 l 0,147.886 c 0,6.914 -0.92,12.492 -4.44,15.344 -3.63,3.73 -10.7,4.715 -25.43,4.715 l -36.81,0 0,20.5 373.16,0 0,-77.297 -21.44,0 c -9.22,54.25 -48.4,55.812 -111.74,55.812 l -75.2,0 c -14.53,0 -24.45,-1.632 -28.53,-4.835 -3.01,-3.407 -3.91,-8.653 -3.91,-15.352 l 0,-58.398 46.02,0 c 45.19,0 67.81,4.14 69.72,41.203 l 21.04,0 0,-106.121 -21.04,0 c -1.91,39.265 -24.53,44.605 -69.72,44.605 l -46.02,0 0,-67.203 c 0,-6.68 0.9,-12.168 3.91,-15.117 3.63,-3.731 14,-4.922 28.53,-4.922 l 77.93,0 c 82.66,0 117.41,13.574 122.89,63.906 l 21.16,0 0,-85.293 -386.76,0" /><path
             id="path54"
             style="fill:#ffffff;fill-opacity:1;fill-rule:nonzero;stroke:none"
             d="m 3263.31,930.219 c 0,-24.035 -15.53,-45.383 -116.72,-45.383 l -55.8,0 0,68.289 c 0,6.898 0.88,12.395 4.2,15.551 3.82,3.074 10.66,4.734 25.33,4.734 l 50.08,0 c 63.67,0 92.91,-10.105 92.91,-43.191 m 114.59,-164.891 0,20.391 -11.14,0 c -28.88,0 -46.27,5.273 -61.09,26.64 l -20.25,29.063 c -13.85,20.391 -28.74,27.723 -41.59,30.914 62.82,10.957 94.05,33.644 94.05,60.164 0,50.227 -76.96,61.848 -145.24,61.848 l -234.3,0 0,-20.516 36.96,0 c 14.69,0 22.05,-0.988 25.68,-4.707 3.26,-2.852 4.18,-8.437 4.18,-15.344 l 0,-147.886 c 0,-7.129 -0.92,-12.5 -4.18,-15.567 -3.63,-3.633 -10.99,-4.609 -25.68,-4.609 l -36.96,0 0,-20.391 198.91,0 0,20.391 -36.93,0 c -14.67,0 -21.82,0.976 -25.33,4.609 -3.32,3.067 -4.2,8.438 -4.2,15.567 l 0,57.871 73.1,0 c 25.24,0 34.16,-5.469 42.27,-18.067 l 32.52,-48.164 c 16.01,-24.219 36.38,-32.207 69.39,-32.207 l 69.83,0" /><path
             id="path56"
             style="fill:#ffffff;fill-opacity:1;fill-rule:nonzero;stroke:none"
             d="m 3863.54,973.84 c -52.68,0 -59.53,-16.238 -59.53,-39.988 l 0,-174.012 -31.47,0 -263.65,187.488 0,-121.492 c 0,-23.691 7.35,-40.117 59.42,-40.117 l 9.35,0 0,-20.391 -163.49,0 0,20.391 8.65,0 c 52.73,0 59.86,16.426 59.86,40.117 l 0,133.328 c -10.16,7.117 -25.62,14.676 -51.85,14.676 l -16.66,0 0,20.5 124.55,0 239.29,-168.504 0,108.016 c 0,23.75 -7.77,39.988 -59.84,39.988 l -9.32,0 0,20.5 163.69,0 0,-20.5 -9,0" /><path
             id="path58"
             style="fill:#56a527;fill-opacity:1;fill-rule:nonzero;stroke:none"
             d="m 2854.5,538.711 -1622.42,0 c 12.09,-28.711 25.74,-56.582 40.7,-83.652 l 1541.01,0 c 14.96,27.07 28.62,54.941 40.71,83.652" /></g></g></g></g></svg>