<svg xmlns="http://www.w3.org/2000/svg" viewBox="0 0 510.82501 219.96249" height="219.962" width="510.825"><defs><clipPath id="a"><path d="M0 0h4086.61v1759.69H0V0z"/></clipPath><clipPath id="b"><path d="M0 1759.69V0h4086.61v1759.69H0z"/></clipPath><clipPath id="c"><path d="M0 0h4086.61v1759.69H0V0z"/></clipPath></defs><g clip-path="url(#a)" transform="matrix(1.25,0,0,-1.25,0,219.9625) scale(0.1,0.1)"><path d="M2043.29 0c485.76 0 879.84 393.98 879.84 879.75 0 486.05-394.08 879.94-879.84 879.94-485.75 0-879.85-393.89-879.85-879.94C1163.44 393.98 1557.54 0 2043.29 0" fill="#73c82c"/></g><g clip-path="url(#b)" transform="matrix(1.25,0,0,-1.25,0,219.9625) scale(0.1,0.1)"><path d="M.004 538.73h4086.6v682.219H.004V538.73z" fill="#003328"/></g><g clip-path="url(#c)" transform="matrix(1.25,0,0,-1.25,0,219.9625) scale(0.1,0.1)"><path d="M398.516 759.84c-109.953 0-124.653 12.621-147.774 12.621-6.48 0-10.398-3.09-10.398-9.965H217.41v81.641h22.934c0-48.223 63.57-59.844 150.168-59.844 74.445 0 118.722 12.48 118.722 35.312 0 17.618-10.078 26.094-51.851 28.809l-132.969 8.457c-71.812 4.277-110.391 20.387-110.391 64.91 0 54.149 67.641 78.047 166.641 78.047 89.656 0 112.566-13.047 125.508-13.047 6.695 0 10.391 3.399 10.391 10.176h22.929v-76.945h-22.929c0 42.734-58.532 55.265-132.309 55.265-88.133 0-121.024-13.058-121.024-33.8 0-16.426 20.946-24.434 57.555-26.61l139.125-8.898c69.492-4.832 102.692-25.313 102.692-67.946 0-54.492-66.086-78.183-164.086-78.183m547.109 119.82c0-35.074-11.598-60.191-35.383-75.64-23.558-15.118-48.894-22.715-91.867-22.715-42.637 0-68.078 7.597-91.652 22.715-23.809 15.449-35.395 40.566-35.395 75.64 0 35.207 11.586 60.41 35.395 75.656 23.574 15.137 49.015 22.911 91.652 22.911 42.973 0 68.309-7.774 91.867-22.911 23.785-15.246 35.383-40.449 35.383-75.656m75.885 0c0 23.028-9.09 46.926-27.194 64.785-18.41 18.301-44.074 32.246-76.191 42.668-32.758 10.301-63.902 12.715-99.75 12.715-35.078 0-66.539-2.414-99.098-12.715-32.328-10.422-57.429-24.367-76.191-42.668-17.988-17.859-27.301-41.757-27.301-64.785 0-22.574 9.313-46.695 27.301-64.781 18.762-18.106 43.863-32.125 76.191-42.539 32.559-10.078 64.02-12.5 99.098-12.5 35.848 0 66.992 2.422 99.75 12.5 32.117 10.414 57.781 24.433 76.191 42.539 18.104 18.086 27.194 42.207 27.194 64.781m460.86 94.18c-52.52 0-59.65-16.238-59.65-39.988v-81.278c0-58.398-35.2-92.734-155.22-92.734-133.63 0-166.84 31.348-166.84 83.75v110.191c0 6.907-.87 12.5-4.17 15.344-3.61 3.719-10.51 4.715-24.88 4.715h-35.64v20.5h192.83v-20.5h-33.97c-14.13 0-20.94-.996-24.37-4.715-3.07-2.844-3.9-8.437-3.9-15.344v-95.035c0-52.07 24.2-73.027 108.28-73.027 79.38 0 120.27 16.992 120.27 69.707v78.426c0 23.75-7.12 39.988-58.65 39.988h-8.67v20.5h163.67v-20.5h-9.09m402.87-66.543c-8.79 54.277-34.75 67.09-81.88 67.09h-10.53c-29.06 0-35.1-2.078-38.37-4.93-3.84-2.941-4.29-8.215-4.29-15.012v-148.55c0-7.129.87-12.5 4.29-15.567 3.51-3.633 10.63-4.609 25.52-4.609h39.82v-20.391h-204.7v20.391h39.81c14.69 0 21.82.976 25.34 4.609 3.39 3.067 4.28 8.438 4.28 15.567v148.55c0 6.797-.89 12.071-4.43 15.012-3.37 2.852-9.28 4.93-38.45 4.93h-10.43c-47.23 0-73.22-12.813-81.87-67.09h-22.28v87.051h380.42v-87.051h-22.25m344.9-141.969v20.391h36.92c14.68 0 22.01.996 25.62 4.609 3.11 3.067 3.99 8.438 3.99 15.567v67.097h-209.26v-67.097c0-7.129 1.05-12.5 4.14-15.567 3.61-3.613 10.84-4.609 25.53-4.609h36.95v-20.391H1955.3v20.391h36.63c14.89 0 22.23.996 25.65 4.609 3.29 3.067 4.4 8.438 4.4 15.567v147.886c0 6.914-1.11 12.492-4.4 15.344-3.42 3.73-10.76 4.715-25.65 4.715h-36.63v20.5h198.73v-20.5h-36.95c-14.69 0-21.92-.985-25.53-4.715-3.09-2.852-4.14-8.43-4.14-15.344v-56.679h209.26v56.679c0 6.914-.88 12.492-3.99 15.344-3.61 3.73-10.94 4.715-25.62 4.715h-36.92v20.5h198.87v-20.5h-36.66c-15 0-22.05-.985-25.67-4.715-3.26-2.852-4.14-8.43-4.14-15.344V805.895c0-7.129.88-12.5 4.14-15.567 3.62-3.613 10.67-4.609 25.67-4.609h36.66v-20.391h-198.87m270.55 0v20.391h36.81c14.73 0 21.8.996 25.43 4.609 3.52 3.067 4.44 8.438 4.44 15.567v147.886c0 6.914-.92 12.492-4.44 15.344-3.63 3.73-10.7 4.715-25.43 4.715h-36.81v20.5h373.16v-77.297h-21.44c-9.22 54.25-48.4 55.812-111.74 55.812h-75.2c-14.53 0-24.45-1.632-28.53-4.835-3.01-3.407-3.91-8.653-3.91-15.352V894.27h46.02c45.19 0 67.81 4.14 69.72 41.203h21.04V829.352h-21.04c-1.91 39.265-24.53 44.605-69.72 44.605h-46.02v-67.203c0-6.68.9-12.168 3.91-15.117 3.63-3.731 14-4.922 28.53-4.922h77.93c82.66 0 117.41 13.574 122.89 63.906h21.16v-85.293h-386.76m762.62 164.891c0-24.035-15.53-45.383-116.72-45.383h-55.8v68.289c0 6.898.88 12.395 4.2 15.551 3.82 3.074 10.66 4.734 25.33 4.734h50.08c63.67 0 92.91-10.105 92.91-43.191m114.59-164.891v20.391h-11.14c-28.88 0-46.27 5.273-61.09 26.64l-20.25 29.063c-13.85 20.391-28.74 27.723-41.59 30.914 62.82 10.957 94.05 33.644 94.05 60.164 0 50.227-76.96 61.848-145.24 61.848h-234.3v-20.516h36.96c14.69 0 22.05-.988 25.68-4.707 3.26-2.852 4.18-8.437 4.18-15.344V805.895c0-7.129-.92-12.5-4.18-15.567-3.63-3.633-10.99-4.609-25.68-4.609h-36.96v-20.391h198.91v20.391h-36.93c-14.67 0-21.82.976-25.33 4.609-3.32 3.067-4.2 8.438-4.2 15.567v57.871h73.1c25.24 0 34.16-5.469 42.27-18.067l32.52-48.164c16.01-24.219 36.38-32.207 69.39-32.207h69.83m485.64 208.512c-52.68 0-59.53-16.238-59.53-39.988V759.84h-31.47l-263.65 187.488V825.836c0-23.691 7.35-40.117 59.42-40.117h9.35v-20.391h-163.49v20.391h8.65c52.73 0 59.86 16.426 59.86 40.117v133.328c-10.16 7.117-25.62 14.676-51.85 14.676h-16.66v20.5h124.55l239.29-168.504v108.016c0 23.75-7.77 39.988-59.84 39.988h-9.32v20.5h163.69v-20.5h-9" fill="#fff"/><path d="M2854.5 538.711H1232.08c12.09-28.711 25.74-56.582 40.7-83.652h1541.01c14.96 27.07 28.62 54.941 40.71 83.652" fill="#56a527"/></g></svg>