<svg viewBox="-0.27900001406669617 0.004999999888241291 367.8080139160156 397.9549865722656" height="397.96" width="367.533" xmlns="http://www.w3.org/2000/svg"><g fill="#231f20"><path d="M17.801 140.37c0 13.977 6.38 20.965 19.14 20.965h48.307c11.544 0 17.318 7.29 17.318 21.874v130.339c0 9.721-2.318 18.23-6.95 25.521-4.635 7.292-12.343 11.242-23.128 11.85H24.181c-6.686-.608-12.458-4.407-17.318-11.394C2 332.537-.279 324.791.027 316.282V239.72h15.951v64.257c0 10.027 1.214 17.623 3.646 22.787 2.428 5.164 8.05 7.748 16.862 7.748h22.33c8.962 0 15.57-2.735 19.825-8.203 4.25-5.469 6.38-12.761 6.38-21.876l-.684-102.994c.456-14.279-5.924-21.571-19.14-21.876H24.18c-15.8 0-23.698-10.33-23.698-30.99V37.375c0-9.72 2.314-18.23 6.95-25.52C12.065 4.563 19.773.615 30.56.005H78.87c8.506.61 14.733 4.407 18.684 11.394 3.95 6.989 5.772 14.736 5.47 23.242v76.562H87.07V46.945c0-10.025-1.217-17.62-3.646-22.786-2.43-5.163-8.053-7.747-16.861-7.747H35.119c-5.47 0-9.685 2.733-12.647 8.203-2.962 5.469-4.443 12.76-4.443 21.874l-.228 79.298v14.582M119.064.917h102.993v16.406h-44.661v333.596h-16.405V17.323h-41.927V.917M236.277 350.919V.917h16.635l-.685 180.47L318.764.917h20.508l-53.548 141.276 56.055 208.726h-20.28l-47.396-180.47-21.876 53.776.685 126.694h-16.635M353.261 10.847h2.326c1.14 0 1.924-.139 2.364-.504.362-.327.638-.778.638-1.37 0-.381-.117-.674-.354-.953-.164-.277-.484-.52-.823-.641-.361-.14-1.005-.191-1.984-.191h-2.167zm-1.961 6.936V5.489h4.087c1.442 0 2.525.12 3.164.311.582.277 1.104.641 1.525 1.25.36.537.541 1.109.541 1.785 0 .901-.262 1.665-.962 2.324-.62.676-1.464 1.057-2.464 1.144.398.156.76.382 1 .624.5.505 1.086 1.318 1.805 2.445l1.52 2.41h-2.404l-1.119-1.94c-.802-1.529-1.524-2.446-2.086-2.88-.32-.242-.842-.4-1.563-.4h-1.083v5.22zm4.93-15.85c-1.586 0-3.149.434-4.649 1.232-1.505.847-2.688 2.011-3.53 3.538-.882 1.526-1.3 3.102-1.3 4.75 0 1.648.418 3.227 1.281 4.768.82 1.511 2.024 2.672 3.487 3.487a9.404 9.404 0 0 0 4.71 1.248c1.642 0 3.164-.4 4.688-1.248 1.482-.815 2.626-1.976 3.508-3.487a9.964 9.964 0 0 0 1.2-4.768c0-1.648-.38-3.224-1.2-4.75a9.653 9.653 0 0 0-3.589-3.538c-1.504-.798-3.023-1.232-4.607-1.232zm0-1.872c1.882 0 3.766.504 5.567 1.472 1.766.972 3.148 2.36 4.191 4.199 1.044 1.855 1.541 3.779 1.541 5.721 0 1.979-.497 3.867-1.541 5.723a10.175 10.175 0 0 1-4.15 4.179c-1.782 1.005-3.647 1.508-5.609 1.508-1.942 0-3.848-.503-5.65-1.508-1.807-.988-3.167-2.41-4.172-4.179-1.036-1.856-1.542-3.744-1.542-5.723 0-1.942.544-3.866 1.563-5.721a10.47 10.47 0 0 1 4.17-4.199c1.86-.968 3.746-1.472 5.631-1.472M22.256 397.31H3.669v-27.087h4.759V393.2h13.828v4.108M64.73 383.685c0 6.303 3.212 10.291 8.295 10.291 4.962 0 8.134-4.028 8.134-10.25 0-6.183-3.212-10.168-8.215-10.168-5.002 0-8.215 3.985-8.215 10.127zm21.228.082c0 8.458-5.245 14.193-13.014 14.193-7.767 0-13.014-5.693-13.014-14.193s5.247-14.195 13.055-14.195c7.686 0 12.973 5.776 12.973 14.195M148.747 397.31h-4.92l-8.744-13.829c-.164-.284-.611-.976-1.303-2.073-.65-1.099-1.098-1.79-1.3-2.156a37.404 37.404 0 0 1-1.505-2.847c.121 1.463.161 1.992.203 3.335v2.48c.04 1.261.04 2.115.04 2.481l.04 12.608h-4.554v-27.086h4.962l8.825 14.112c2.074 3.294 2.969 4.841 3.945 6.833-.041-1.341-.081-1.628-.123-3.335l-.04-2.522-.041-2.683-.04-12.405h4.555v27.086M195.633 393.324h5.206c3.661 0 5.288-.692 6.712-2.766 1.178-1.707 1.788-4.025 1.788-6.994 0-6.141-2.887-9.315-8.418-9.315h-5.288zm5.614-23.101c1.14 0 2.969.164 4.026.325 1.708.326 3.416 1.18 4.839 2.44 2.604 2.319 3.987 5.98 3.987 10.33 0 2.035-.326 4.393-.855 6.06-.61 1.913-1.585 3.54-2.968 4.922-2.237 2.236-4.556 3.01-8.785 3.01h-10.574v-27.087h10.33M258.383 383.685c0 6.303 3.212 10.291 8.294 10.291 4.964 0 8.136-4.028 8.136-10.25 0-6.183-3.213-10.168-8.216-10.168-5.002 0-8.214 3.985-8.214 10.127zm21.228.082c0 8.458-5.246 14.193-13.014 14.193-7.768 0-13.014-5.693-13.014-14.193s5.246-14.195 13.056-14.195c7.685 0 12.972 5.776 12.972 14.195M342.4 397.31h-4.92l-8.745-13.829c-.162-.284-.61-.976-1.3-2.073-.652-1.099-1.099-1.79-1.302-2.156a37.169 37.169 0 0 1-1.505-2.847c.123 1.463.161 1.992.204 3.335v2.48c.04 1.261.04 2.115.04 2.481l.04 12.608h-4.555v-27.086h4.963l8.824 14.112c2.076 3.294 2.97 4.841 3.945 6.833-.04-1.341-.081-1.628-.122-3.335l-.039-2.522-.041-2.683-.042-12.405h4.555v27.086"/></g></svg>