<svg xmlns="http://www.w3.org/2000/svg" viewBox="0 0 956.70001 116.325" height="116.325" width="956.7"><defs><clipPath id="a"><path d="M0 930.637V0h7653.61v930.637H0z"/></clipPath></defs><g clip-path="url(#a)" transform="matrix(1.25,0,0,-1.25,0,116.325) scale(0.1,0.1)"><path d="M7476.97 907.145L7059.93 12.742h176.62l417.06 894.403h-176.64" fill="#ef2797"/><path d="M635.551 907.145V753.813H404.02V12.766H231.531v741.047H0v153.332h635.551M4137.34 208.613c42.13-38.332 119.76-68.066 182.36-68.066 44.73 0 79.24 21.699 79.24 52.383 0 93.261-300.26 60.039-300.26 259.355 0 118.828 114.99 192.934 237.65 192.934 80.48 0 168.65-30.656 209.54-62.61l-58.07-125.015c-31.95 23.004-93.98 47.062-138.69 47.062-45.98 0-84.32-17.859-84.32-49.82 0-80.481 300.24-48.555 300.24-263.176C4565.03 72.82 4458.63 0 4318.43 0c-85.6 0-176.29 29.395-249.14 83.059l68.05 125.554m539.28 698.532h172.49V166.094h347.08V12.766h-519.57v894.379m801.37-894.379H5311.9v619.679h166.09V12.765zm-83.05 917.871c57.11 0 103.29-43.758 103.29-100.856 0-57.109-46.18-100.855-103.29-100.855-57.09 0-103.28 43.746-103.28 100.855 0 57.098 46.19 100.856 103.28 100.856M2249.6 12.793v619.668h159.71v-49.852c48.57 43.446 107.33 62.61 167.39 62.61 84.32 0 159.71-38.332 208.25-97.114 49.85 52.395 127.77 97.114 219.77 97.114 131.63 0 279.82-86.836 279.82-304.086V12.793h-166.12V347.52c0 99.636-49.26 144.378-123.92 144.378-71.56 0-127.79-49.828-149.5-81.769 2.56-20.449 5.12-43.438 5.12-68.996V12.793h-166.1V347.52c0 109.226-58.12 144.378-123.94 144.378-70.26 0-121.37-47.269-144.38-76.656V12.793h-166.1m-300.96 402.449c-34.5 45.985-89.45 76.664-153.32 76.664-97.12 0-159.71-80.488-159.71-169.914 0-97.129 70.26-168.652 163.53-168.652 62.62 0 117.55 30.637 149.5 76.64v185.262zm166.09-402.449h-159.72v49.805C1903.91 19.18 1845.15 0 1782.53 0c-161.65 0-313.03 124.617-313.03 321.992 0 182.676 135.44 323.227 304.1 323.227 70.27 0 132.87-22.989 181.41-62.61v49.852h159.72V12.793m3497.5 0v619.668h159.71v-49.852c47.26 38.332 106.04 62.61 175.03 62.61 109.36 0 278.55-68.981 278.55-309.172V12.793h-166.1v328.34c0 107.734-54.39 150.765-130.3 150.765-70.31 0-127.79-44.71-150.78-76.656V12.793h-166.11M1086 645.219c-65.93 0-122.5-22.172-168.645-57.586v319.512H751.262V12.793h166.093v402.441c22.989 31.954 80.481 76.653 150.775 76.653 75.92 0 130.32-43.02 130.32-150.754V12.793h166.1v323.254c0 240.191-169.2 309.172-278.55 309.172m2470.21-251.852c17.63 72.86 70.58 117.688 137.88 117.688 72.55 0 123-53.653 128.12-117.688h-266zm432.28-65.015c0 172.503-118.34 316.867-294.4 316.867-183.99 0-303.35-150.789-303.35-323.227C3390.74 127.781 3530 0 3715.28 0c95.82 0 194.21 39.59 254.26 111.152l-94.56 94.543c-29.38-31.933-85.61-71.574-155.87-71.574-85.24 0-153.58 56.231-166.12 138.477h431.67c2.54 22.539 3.83 39.16 3.83 55.754m2981.02 304.109H6761.4l-239.6-262.41v537.101h-166.09V12.793h166.09v282.91l239.6-282.91h206.32l-282.88 321.953 284.67 297.715" fill="#383f46"/></g></svg>