<?xml version="1.0" encoding="UTF-8" standalone="no"?>
<svg
   xmlns:dc="http://purl.org/dc/elements/1.1/"
   xmlns:cc="http://creativecommons.org/ns#"
   xmlns:rdf="http://www.w3.org/1999/02/22-rdf-syntax-ns#"
   xmlns:svg="http://www.w3.org/2000/svg"
   xmlns="http://www.w3.org/2000/svg"
   viewBox="0 0 956.70001 116.325"
   height="116.325"
   width="956.70001"
   xml:space="preserve"
   version="1.1"
   id="svg2"><metadata
     id="metadata8"><rdf:RDF><cc:Work
         rdf:about=""><dc:format>image/svg+xml</dc:format><dc:type
           rdf:resource="http://purl.org/dc/dcmitype/StillImage" /></cc:Work></rdf:RDF></metadata><defs
     id="defs6"><clipPath
       id="clipPath18"
       clipPathUnits="userSpaceOnUse"><path
         id="path20"
         d="M 0,930.637 0,0 l 7653.61,0 0,930.637 -7653.61,0 z" /></clipPath></defs><g
     transform="matrix(1.25,0,0,-1.25,0,116.325)"
     id="g10"><g
       transform="scale(0.1,0.1)"
       id="g12"><g
         id="g14"><g
           clip-path="url(#clipPath18)"
           id="g16"><path
             id="path22"
             style="fill:#ef2797;fill-opacity:1;fill-rule:nonzero;stroke:none"
             d="m 7476.97,907.145 -417.04,-894.4028 176.62,0 417.06,894.4028 -176.64,0" /><path
             id="path24"
             style="fill:#383f46;fill-opacity:1;fill-rule:nonzero;stroke:none"
             d="m 635.551,907.145 0,-153.332 -231.531,0 0,-741.0474 -172.489,0 0,741.0474 -231.531,0 0,153.332 635.551,0" /><path
             id="path26"
             style="fill:#383f46;fill-opacity:1;fill-rule:nonzero;stroke:none"
             d="m 4137.34,208.613 c 42.13,-38.332 119.76,-68.066 182.36,-68.066 44.73,0 79.24,21.699 79.24,52.383 0,93.261 -300.26,60.039 -300.26,259.355 0,118.828 114.99,192.934 237.65,192.934 80.48,0 168.65,-30.656 209.54,-62.61 L 4487.8,457.594 c -31.95,23.004 -93.98,47.062 -138.69,47.062 -45.98,0 -84.32,-17.859 -84.32,-49.82 0,-80.481 300.24,-48.555 300.24,-263.176 C 4565.03,72.8203 4458.63,0 4318.43,0 c -85.6,0 -176.29,29.3945 -249.14,83.0586 l 68.05,125.5544" /><path
             id="path28"
             style="fill:#383f46;fill-opacity:1;fill-rule:nonzero;stroke:none"
             d="m 4676.62,907.145 172.49,0 0,-741.051 347.08,0 0,-153.3284 -519.57,0 0,894.3794" /><path
             id="path30"
             style="fill:#383f46;fill-opacity:1;fill-rule:nonzero;stroke:none"
             d="m 5477.99,12.7656 -166.09,0 0,619.6794 166.09,0 0,-619.6794 z m -83.05,917.8714 c 57.11,0 103.29,-43.758 103.29,-100.856 0,-57.109 -46.18,-100.855 -103.29,-100.855 -57.09,0 -103.28,43.746 -103.28,100.855 0,57.098 46.19,100.856 103.28,100.856" /><path
             id="path32"
             style="fill:#383f46;fill-opacity:1;fill-rule:nonzero;stroke:none"
             d="m 2249.6,12.793 0,619.668 159.71,0 0,-49.852 c 48.57,43.446 107.33,62.61 167.39,62.61 84.32,0 159.71,-38.332 208.25,-97.114 49.85,52.395 127.77,97.114 219.77,97.114 131.63,0 279.82,-86.836 279.82,-304.086 l 0,-328.34 -166.12,0 0,334.727 c 0,99.636 -49.26,144.378 -123.92,144.378 -71.56,0 -127.79,-49.828 -149.5,-81.769 2.56,-20.449 5.12,-43.438 5.12,-68.996 l 0,-328.34 -166.1,0 0,334.727 c 0,109.226 -58.12,144.378 -123.94,144.378 -70.26,0 -121.37,-47.269 -144.38,-76.656 l 0,-402.449 -166.1,0" /><path
             id="path34"
             style="fill:#383f46;fill-opacity:1;fill-rule:nonzero;stroke:none"
             d="m 1948.64,415.242 c -34.5,45.985 -89.45,76.664 -153.32,76.664 -97.12,0 -159.71,-80.488 -159.71,-169.914 0,-97.129 70.26,-168.652 163.53,-168.652 62.62,0 117.55,30.637 149.5,76.64 l 0,185.262 z m 166.09,-402.449 -159.72,0 0,49.8047 C 1903.91,19.1797 1845.15,0 1782.53,0 1620.88,0 1469.5,124.617 1469.5,321.992 c 0,182.676 135.44,323.227 304.1,323.227 70.27,0 132.87,-22.989 181.41,-62.61 l 0,49.852 159.72,0 0,-619.668" /><path
             id="path36"
             style="fill:#383f46;fill-opacity:1;fill-rule:nonzero;stroke:none"
             d="m 5612.23,12.793 0,619.668 159.71,0 0,-49.852 c 47.26,38.332 106.04,62.61 175.03,62.61 109.36,0 278.55,-68.981 278.55,-309.172 l 0,-323.254 -166.1,0 0,328.34 c 0,107.734 -54.39,150.765 -130.3,150.765 -70.31,0 -127.79,-44.71 -150.78,-76.656 l 0,-402.449 -166.11,0" /><path
             id="path38"
             style="fill:#383f46;fill-opacity:1;fill-rule:nonzero;stroke:none"
             d="m 1086,645.219 c -65.93,0 -122.5,-22.172 -168.645,-57.586 l 0,319.512 -166.093,0 0,-894.352 166.093,0 0,402.441 c 22.989,31.954 80.481,76.653 150.775,76.653 75.92,0 130.32,-43.02 130.32,-150.754 l 0,-328.34 166.1,0 0,323.254 c 0,240.191 -169.2,309.172 -278.55,309.172" /><path
             id="path40"
             style="fill:#383f46;fill-opacity:1;fill-rule:nonzero;stroke:none"
             d="m 3556.21,393.367 c 17.63,72.86 70.58,117.688 137.88,117.688 72.55,0 123,-53.653 128.12,-117.688 l -266,0 z m 432.28,-65.015 c 0,172.503 -118.34,316.867 -294.4,316.867 -183.99,0 -303.35,-150.789 -303.35,-323.227 C 3390.74,127.781 3530,0 3715.28,0 c 95.82,0 194.21,39.5898 254.26,111.152 l -94.56,94.543 c -29.38,-31.933 -85.61,-71.574 -155.87,-71.574 -85.24,0 -153.58,56.231 -166.12,138.477 l 431.67,0 c 2.54,22.539 3.83,39.16 3.83,55.754" /><path
             id="path42"
             style="fill:#383f46;fill-opacity:1;fill-rule:nonzero;stroke:none"
             d="m 6969.51,632.461 -208.11,0 -239.6,-262.41 0,537.101 -166.09,0 0,-894.359 166.09,0 0,282.91 239.6,-282.91 206.32,0 -282.88,321.953 284.67,297.715" /></g></g></g></g></svg>