<svg xmlns="http://www.w3.org/2000/svg" viewBox="0 0 657.83752 201.55" height="201.55" width="657.838"><defs><clipPath id="a"><path d="M0 0h5262.69v1612H0V0z"/></clipPath></defs><g clip-path="url(#a)" transform="matrix(1.25,0,0,-1.25,0,201.55) scale(0.1,0.1)"><path d="M993.609 1612.36c-445.296 0-806.254-360.93-806.254-806.13C187.355 360.969 548.313 0 993.609 0c445.201 0 806.131 360.969 806.131 806.23 0 445.2-360.93 806.13-806.131 806.13zm520.281-806.13c0-287.242-233.05-520.171-520.281-520.171-287.324 0-520.148 232.929-520.148 520.171 0 287.22 232.824 520.09 520.148 520.09 287.231 0 520.281-232.87 520.281-520.09" fill="#ee2722"/><path d="M1984.25 968.992V642.871H0v326.121h1984.25" fill="#263d96"/><path d="M231.902 746.242c-13.586-16.875-33.972-27.441-58.894-27.441-25.172 0-45.309 10.32-59.399 27.676-10.828 13.347-15.855 28.945-15.855 51.601v91.863h32.715v-92.109c0-28.699 16.617-47.566 42.285-47.566 26.426 0 42.535 18.867 42.535 47.566v92.109h32.723v-90.859c0-23.144-4.278-38.25-16.11-52.84m163.594-24.172l-89.598 115.782V722.07h-32.722v167.871h32.722l89.598-116.277v116.277h32.723V722.07h-32.723m110.242 139.438h-18.879V751.516h16.11c39.011 0 64.683 21.906 64.683 55.371 0 33.73-23.406 54.621-61.914 54.621zm-4.777-139.438h-46.82v167.871h57.386c58.141 0 89.352-38.242 89.352-81.796 0-45.047-32.973-86.075-99.918-86.075m120.301 0v167.871h104.203v-29.199H653.98v-34.98h58.895v-29.453H653.98v-44.286h77.774V722.07H621.262m179.711 139.438h-18.629v-44.043h15.601c19.141 0 30.45 8.543 30.45 23.152 0 13.086-10.313 20.891-27.422 20.891zm42.781-139.438l-46.316 66.953h-15.094V722.07h-32.727v167.871h54.371c34.473 0 57.129-18.113 57.129-49.07 0-20.644-11.582-37.004-31.707-44.308l52.86-74.493h-38.516m128.156-3.269c-52.609 0-91.347 36.738-91.347 87.332 0 49.336 38.738 87.09 90.839 87.09 19.637 0 39.518-5.282 58.408-14.864v-34.218c-15.86 11.328-35.997 19.132-56.122 19.132-36.516 0-59.922-26.183-59.922-57.89 0-32.219 23.925-57.383 58.906-57.383 8.808 0 17.117.75 25.926 3.77v35.988h-27.442v28.707h60.154v-80.047c-19.88-11.828-37.751-17.617-59.4-17.617m135.92 142.707h-18.64v-44.043h15.62c19.13 0 30.46 8.543 30.46 23.152 0 13.086-10.32 20.891-27.44 20.891zm42.79-139.438l-46.32 66.953h-15.11V722.07h-32.7v167.871h54.35c34.49 0 57.14-18.113 57.14-49.07 0-20.644-11.58-37.004-31.72-44.308l52.87-74.493h-38.51m124.87 138.926c-31.45 0-54.86-23.906-54.86-55.105 0-30.969 23.41-54.875 54.86-54.875 31.47 0 54.89 23.906 54.89 54.875 0 31.199-23.42 55.105-54.89 55.105zm0-142.195c-48.32 0-88.09 36.496-88.09 87.332 0 50.586 40.03 87.09 88.09 87.09 48.08 0 88.1-36.504 88.1-87.332 0-50.594-40.02-87.09-88.1-87.09m241.89 27.441c-13.6-16.875-33.99-27.441-58.91-27.441-25.15 0-45.29 10.32-59.39 27.676-10.82 13.347-15.85 28.945-15.85 51.601v91.863h32.7v-92.109c0-28.699 16.61-47.566 42.3-47.566 26.42 0 42.54 18.867 42.54 47.566v92.109h32.71v-90.859c0-23.144-4.28-38.25-16.1-52.84m163.58-24.172l-89.6 115.782V722.07h-32.72v167.871h32.72l89.6-116.277v116.277h32.73V722.07h-32.73m110.25 139.438h-18.88V751.516h16.11c39.02 0 64.68 21.906 64.68 55.371 0 33.73-23.41 54.621-61.91 54.621zm-4.79-139.438h-46.82v167.871h57.4c58.14 0 89.34-38.242 89.34-81.796 0-45.047-32.97-86.075-99.92-86.075" fill="#fff"/><path d="M2446.95 1156.97V900.93h-75.9v256.04h-87.37v67.2h250.49v-67.2h-87.22m200.09 6.64v-75.99h26.27c13.86-.08 25.07 3.51 33.24 11.16 8.33 7.58 12.42 16.96 12.42 28.19-.14 10.42-3.95 19.06-11.61 26.13-7.6 7-17.96 10.51-31.16 10.51h-29.16zm94.63-262.68l-79.92 122.17h-14.71V900.93h-75.89v323.24h109.94c36.16 0 64.13-8.79 84.01-26.34 19.98-17.43 29.76-41.39 29.76-71.87 0-20.41-5.04-37.89-15.17-52.84-10.19-15-24.9-26.14-43.95-33.92l92.12-138.27h-86.19m256.45 234.52l-36.05-110.24h72.72l-36.67 110.24zm77.79-234.52l-19.35 58.726h-115.21l-18.95-58.726h-82.27l119.17 323.24h76.95L3159 900.93h-83.09m334.79 0l-141.88 200.16V900.93h-76.05v323.24h76.44l144.2-202.45v202.45h75.88V900.93h-78.59m119.41 64.156l57.09 34.309c11.35-26.122 29.24-39.317 53.93-39.317 13.06 0 23.57 2.969 31.29 8.758 7.69 5.945 11.6 13.664 11.72 23.168 0 8.376-2.95 15.636-8.91 21.706-6.06 6-22.44 15.19-49.22 27.33-31.23 13.85-52.56 28.17-63.93 43.01-11.38 14.73-17.05 32.7-17.05 54 0 26 10.12 47.97 30.24 65.72 20.04 17.9 45.6 26.79 76.56 26.79 44.92 0 77.38-17.62 97.66-52.86l-52.74-33.98c-9.9 16.91-25 25.28-44.92 25.28-10.06 0-18.36-2.43-24.69-7.68-6.27-5.06-9.37-11.53-9.37-19.51 0-8.05 3.18-14.84 9.9-20.53 6.6-5.68 20.96-13.65 43.03-23.94 32.85-15.2 55.96-30.67 69.33-45.99 13.42-15.39 20.14-34.72 20.14-57.881 0-28.574-11.6-52.34-34.57-70.758-23.03-18.543-51.46-27.762-85.37-27.762-49.67 0-86.33 23.254-110.12 70.137m348.71 197.034v-93.37h24.03c18.3-.13 32.05 3.85 41.44 11.95 9.36 8.12 14.04 19.61 14.04 34.46 0 15.32-4.68 26.92-14.04 34.97-9.39 8.05-23.14 11.99-41.44 11.99h-24.03zm0-155.4V900.93h-75.88v323.24h108.09c38.95 0 69.36-9.69 91-29.18 21.75-19.33 32.61-45.6 32.61-78.73 0-33.78-11.56-60.36-34.55-80.14-23.06-19.7-53.71-29.46-92.11-29.4h-29.16m358.46-43.751c27.46 0 50.29 9.504 68.77 28.59 18.4 18.921 27.54 42.741 27.54 71.171 0 28.4-9.14 52.08-27.54 71.03-18.48 19-41.31 28.36-68.77 28.36-27.46 0-50.35-9.49-68.61-28.58-18.25-19.08-27.46-42.68-27.46-70.81 0-28.17 9.21-51.93 27.57-71.07 18.4-19.125 41.18-28.691 68.5-28.691zm0-68.02c-48.95 0-89.73 16.098-122.6 48.434-32.89 32.328-49.37 72.137-49.37 119.347-.12 47.2 16.23 86.93 49.26 119.25 32.98 32.23 73.76 48.45 122.71 48.58 48.83 0 89.88-16.08 123.01-48.31 33.01-32.12 49.51-72.05 49.51-119.52-.14-47.64-16.66-87.445-49.51-119.609-33.01-32.074-73.91-48.172-123.01-48.172m291.54 268.661v-75.99h26.14c13.92-.08 24.94 3.51 33.28 11.16 8.16 7.58 12.54 16.96 12.54 28.19-.37 10.42-4.12 19.06-11.64 26.13-7.64 7-18.07 10.51-31.33 10.51h-28.99zm94.57-262.68l-80.04 122.17h-14.53V900.93h-75.9v323.24h109.91c36.11 0 64.2-8.79 84-26.34 19.84-17.43 29.81-41.39 29.81-71.87 0-20.41-5.14-37.89-15.24-52.84-10.21-15-24.88-26.14-43.92-33.92l92.05-138.27h-86.14m264.05 256.04V900.93h-76.02v256.04h-87.26v67.2h250.5v-67.2h-87.22M2359.08 646.242v-55.211h101.97v-65.39h-101.97V387.879h-75.87v323.187h204.38v-64.824h-128.51m326.53-196.383c27.45 0 50.35 9.582 68.72 28.653 18.24 18.906 27.55 42.777 27.55 71.258 0 28.421-9.31 52.011-27.55 70.933-18.37 18.945-41.27 28.379-68.72 28.379-27.44 0-50.34-9.559-68.7-28.594-18.27-19.047-27.43-42.668-27.43-70.718 0-28.239 9.29-51.918 27.58-70.989 18.47-19.23 41.23-28.922 68.55-28.922zm0-68.007c-48.9 0-89.79 16.058-122.66 48.476-32.87 32.332-49.38 72.133-49.38 119.442-.13 47.121 16.26 86.832 49.24 119.175 33.01 32.219 73.9 48.43 122.8 48.594 48.83 0 89.81-16.121 122.83-48.328 33.12-32.078 49.61-72.07 49.61-119.441-.14-47.739-16.75-87.508-49.61-119.75-32.88-32.11-73.86-48.168-122.83-48.168m291.49 268.695v-75.899h26.14c13.92-.136 24.99 3.543 33.25 11.032 8.44 7.621 12.41 17 12.41 28.238-.13 10.281-3.97 19.082-11.47 26.121-7.65 7.012-18.11 10.508-31.3 10.508h-29.03zm94.65-262.668l-80.14 122.16h-14.51v-122.16h-76.03v323.187h110.11c36 0 63.97-8.75 84-26.144 19.82-17.578 29.75-41.531 29.75-72.012 0-20.398-5.17-37.949-15.17-52.832-10.24-15-24.97-26.207-43.99-33.937l92.01-138.262h-86.03m221.45 0v323.187h75.9V455.41h124.18v-67.531H3293.2m398.18 61.98c27.46 0 50.28 9.582 68.63 28.653 18.46 18.906 27.6 42.777 27.6 71.258 0 28.421-9.14 52.011-27.6 70.933-18.35 18.945-41.17 28.379-68.63 28.379-27.44 0-50.43-9.559-68.69-28.594-18.3-19.047-27.38-42.668-27.38-70.718 0-28.239 9.24-51.918 27.5-70.989 18.4-19.23 41.27-28.922 68.57-28.922zm0-68.007c-48.96 0-89.8 16.058-122.67 48.476-33.01 32.332-49.36 72.133-49.36 119.442-.12 47.121 16.21 86.832 49.22 119.175 33.01 32.219 73.85 48.43 122.81 48.594 48.85 0 89.83-16.121 122.91-48.328 32.95-32.078 49.44-72.07 49.44-119.441-.12-47.739-16.68-87.508-49.44-119.75-32.97-32.11-73.94-48.168-122.91-48.168m432.83 6.027L3982.32 588.18V387.879h-75.86v323.187h76.39l144.06-202.406v202.406h75.9V387.879h-78.6m208.01 260.277V450.891h20.84c35.18 0 62.64 8.66 82.36 26.031 19.85 17.269 29.79 41.398 29.79 72.308-.16 31.84-10.18 56.149-29.79 73.34-19.86 16.953-47.18 25.586-82.36 25.586h-20.84zm-75.97-260.277v323.187h104.14c55.03 0 98.84-14.257 131.58-42.929 32.75-28.614 49.12-67.489 49.12-116.446 0-52.089-16.37-92.402-49.24-120.921-32.73-28.559-78.18-42.891-136.19-42.891h-99.41m489.21 61.98c27.43 0 50.36 9.582 68.83 28.653 18.28 18.906 27.58 42.777 27.58 71.258 0 28.421-9.3 52.011-27.58 70.933-18.47 18.945-41.4 28.379-68.83 28.379-27.4 0-50.23-9.559-68.57-28.594-18.28-19.047-27.46-42.668-27.46-70.718 0-28.239 9.18-51.918 27.6-70.989 18.32-19.23 41.11-28.922 68.43-28.922zm0-68.007c-48.84 0-89.7 16.058-122.67 48.476-32.87 32.332-49.26 72.133-49.26 119.442-.25 47.121 16.25 86.832 49.1 119.175 33.13 32.219 73.99 48.43 122.83 48.594 48.95 0 89.95-16.121 122.93-48.328 33.01-32.078 49.65-72.07 49.65-119.441-.17-47.739-16.79-87.508-49.65-119.75-32.87-32.11-73.84-48.168-122.93-48.168m438.64 6.027L5042.2 588.18V387.879h-75.9v323.187h76.45l144.04-202.406v202.406h75.9V387.879h-78.59" fill="#263d96"/></g></svg>