<?xml version="1.0" encoding="UTF-8" standalone="no"?>
<svg
   xmlns:dc="http://purl.org/dc/elements/1.1/"
   xmlns:cc="http://creativecommons.org/ns#"
   xmlns:rdf="http://www.w3.org/1999/02/22-rdf-syntax-ns#"
   xmlns:svg="http://www.w3.org/2000/svg"
   xmlns="http://www.w3.org/2000/svg"
   viewBox="0 0 657.83752 201.55"
   height="201.55"
   width="657.83752"
   xml:space="preserve"
   version="1.1"
   id="svg2"><metadata
     id="metadata8"><rdf:RDF><cc:Work
         rdf:about=""><dc:format>image/svg+xml</dc:format><dc:type
           rdf:resource="http://purl.org/dc/dcmitype/StillImage" /></cc:Work></rdf:RDF></metadata><defs
     id="defs6"><clipPath
       id="clipPath18"
       clipPathUnits="userSpaceOnUse"><path
         id="path20"
         d="m 0,0 5262.69,0 0,1612 L 0,1612 0,0 Z" /></clipPath></defs><g
     transform="matrix(1.25,0,0,-1.25,0,201.55)"
     id="g10"><g
       transform="scale(0.1,0.1)"
       id="g12"><g
         id="g14"><g
           clip-path="url(#clipPath18)"
           id="g16"><path
             id="path22"
             style="fill:#ee2722;fill-opacity:1;fill-rule:nonzero;stroke:none"
             d="M 993.609,1612.36 C 548.313,1612.36 187.355,1251.43 187.355,806.23 187.355,360.969 548.313,0 993.609,0 c 445.201,0 806.131,360.969 806.131,806.23 0,445.2 -360.93,806.13 -806.131,806.13 z M 1513.89,806.23 c 0,-287.242 -233.05,-520.171 -520.281,-520.171 -287.324,0 -520.148,232.929 -520.148,520.171 0,287.22 232.824,520.09 520.148,520.09 287.231,0 520.281,-232.87 520.281,-520.09" /><path
             id="path24"
             style="fill:#263d96;fill-opacity:1;fill-rule:nonzero;stroke:none"
             d="m 1984.25,968.992 0,-326.121 -1984.25,0 0,326.121 1984.25,0 0,0" /><path
             id="path26"
             style="fill:#ffffff;fill-opacity:1;fill-rule:nonzero;stroke:none"
             d="m 231.902,746.242 c -13.586,-16.875 -33.972,-27.441 -58.894,-27.441 -25.172,0 -45.309,10.32 -59.399,27.676 -10.828,13.347 -15.8551,28.945 -15.8551,51.601 l 0,91.863 32.7151,0 0,-92.109 c 0,-28.699 16.617,-47.566 42.285,-47.566 26.426,0 42.535,18.867 42.535,47.566 l 0,92.109 32.723,0 0,-90.859 c 0,-23.144 -4.278,-38.25 -16.11,-52.84" /><path
             id="path28"
             style="fill:#ffffff;fill-opacity:1;fill-rule:nonzero;stroke:none"
             d="m 395.496,722.07 -89.598,115.782 0,-115.782 -32.722,0 0,167.871 32.722,0 89.598,-116.277 0,116.277 32.723,0 0,-167.871 -32.723,0" /><path
             id="path30"
             style="fill:#ffffff;fill-opacity:1;fill-rule:nonzero;stroke:none"
             d="m 505.738,861.508 -18.879,0 0,-109.992 16.11,0 c 39.011,0 64.683,21.906 64.683,55.371 0,33.73 -23.406,54.621 -61.914,54.621 z m -4.777,-139.438 -46.82,0 0,167.871 57.386,0 c 58.141,0 89.352,-38.242 89.352,-81.796 0,-45.047 -32.973,-86.075 -99.918,-86.075" /><path
             id="path32"
             style="fill:#ffffff;fill-opacity:1;fill-rule:nonzero;stroke:none"
             d="m 621.262,722.07 0,167.871 104.203,0 0,-29.199 -71.485,0 0,-34.98 58.895,0 0,-29.453 -58.895,0 0,-44.286 77.774,0 0,-29.953 -110.492,0" /><path
             id="path34"
             style="fill:#ffffff;fill-opacity:1;fill-rule:nonzero;stroke:none"
             d="m 800.973,861.508 -18.629,0 0,-44.043 15.601,0 c 19.141,0 30.45,8.543 30.45,23.152 0,13.086 -10.313,20.891 -27.422,20.891 z m 42.781,-139.438 -46.316,66.953 -15.094,0 0,-66.953 -32.727,0 0,167.871 54.371,0 c 34.473,0 57.129,-18.113 57.129,-49.07 0,-20.644 -11.582,-37.004 -31.707,-44.308 l 52.86,-74.493 -38.516,0" /><path
             id="path36"
             style="fill:#ffffff;fill-opacity:1;fill-rule:nonzero;stroke:none"
             d="m 971.91,718.801 c -52.609,0 -91.347,36.738 -91.347,87.332 0,49.336 38.738,87.09 90.839,87.09 19.637,0 39.518,-5.282 58.408,-14.864 l 0,-34.218 c -15.86,11.328 -35.997,19.132 -56.122,19.132 -36.516,0 -59.922,-26.183 -59.922,-57.89 0,-32.219 23.925,-57.383 58.906,-57.383 8.808,0 17.117,0.75 25.926,3.77 l 0,35.988 -27.442,0 0,28.707 60.154,0 0,-80.047 c -19.88,-11.828 -37.751,-17.617 -59.4,-17.617" /><path
             id="path38"
             style="fill:#ffffff;fill-opacity:1;fill-rule:nonzero;stroke:none"
             d="m 1107.83,861.508 -18.64,0 0,-44.043 15.62,0 c 19.13,0 30.46,8.543 30.46,23.152 0,13.086 -10.32,20.891 -27.44,20.891 z m 42.79,-139.438 -46.32,66.953 -15.11,0 0,-66.953 -32.7,0 0,167.871 54.35,0 c 34.49,0 57.14,-18.113 57.14,-49.07 0,-20.644 -11.58,-37.004 -31.72,-44.308 l 52.87,-74.493 -38.51,0" /><path
             id="path40"
             style="fill:#ffffff;fill-opacity:1;fill-rule:nonzero;stroke:none"
             d="m 1275.49,860.996 c -31.45,0 -54.86,-23.906 -54.86,-55.105 0,-30.969 23.41,-54.875 54.86,-54.875 31.47,0 54.89,23.906 54.89,54.875 0,31.199 -23.42,55.105 -54.89,55.105 z m 0,-142.195 c -48.32,0 -88.09,36.496 -88.09,87.332 0,50.586 40.03,87.09 88.09,87.09 48.08,0 88.1,-36.504 88.1,-87.332 0,-50.594 -40.02,-87.09 -88.1,-87.09" /><path
             id="path42"
             style="fill:#ffffff;fill-opacity:1;fill-rule:nonzero;stroke:none"
             d="m 1517.38,746.242 c -13.6,-16.875 -33.99,-27.441 -58.91,-27.441 -25.15,0 -45.29,10.32 -59.39,27.676 -10.82,13.347 -15.85,28.945 -15.85,51.601 l 0,91.863 32.7,0 0,-92.109 c 0,-28.699 16.61,-47.566 42.3,-47.566 26.42,0 42.54,18.867 42.54,47.566 l 0,92.109 32.71,0 0,-90.859 c 0,-23.144 -4.28,-38.25 -16.1,-52.84" /><path
             id="path44"
             style="fill:#ffffff;fill-opacity:1;fill-rule:nonzero;stroke:none"
             d="m 1680.96,722.07 -89.6,115.782 0,-115.782 -32.72,0 0,167.871 32.72,0 89.6,-116.277 0,116.277 32.73,0 0,-167.871 -32.73,0" /><path
             id="path46"
             style="fill:#ffffff;fill-opacity:1;fill-rule:nonzero;stroke:none"
             d="m 1791.21,861.508 -18.88,0 0,-109.992 16.11,0 c 39.02,0 64.68,21.906 64.68,55.371 0,33.73 -23.41,54.621 -61.91,54.621 z m -4.79,-139.438 -46.82,0 0,167.871 57.4,0 c 58.14,0 89.34,-38.242 89.34,-81.796 0,-45.047 -32.97,-86.075 -99.92,-86.075" /><path
             id="path48"
             style="fill:#263d96;fill-opacity:1;fill-rule:nonzero;stroke:none"
             d="m 2446.95,1156.97 0,-256.04 -75.9,0 0,256.04 -87.37,0 0,67.2 250.49,0 0,-67.2 -87.22,0" /><path
             id="path50"
             style="fill:#263d96;fill-opacity:1;fill-rule:nonzero;stroke:none"
             d="m 2647.04,1163.61 0,-75.99 26.27,0 c 13.86,-0.08 25.07,3.51 33.24,11.16 8.33,7.58 12.42,16.96 12.42,28.19 -0.14,10.42 -3.95,19.06 -11.61,26.13 -7.6,7 -17.96,10.51 -31.16,10.51 l -29.16,0 z m 94.63,-262.68 -79.92,122.17 -14.71,0 0,-122.17 -75.89,0 0,323.24 109.94,0 c 36.16,0 64.13,-8.79 84.01,-26.34 19.98,-17.43 29.76,-41.39 29.76,-71.87 0,-20.41 -5.04,-37.89 -15.17,-52.84 -10.19,-15 -24.9,-26.14 -43.95,-33.92 l 92.12,-138.27 -86.19,0" /><path
             id="path52"
             style="fill:#263d96;fill-opacity:1;fill-rule:nonzero;stroke:none"
             d="m 2998.12,1135.45 -36.05,-110.24 72.72,0 -36.67,110.24 z m 77.79,-234.52 -19.35,58.726 -115.21,0 -18.95,-58.726 -82.27,0 119.17,323.24 76.95,0 122.75,-323.24 -83.09,0" /><path
             id="path54"
             style="fill:#263d96;fill-opacity:1;fill-rule:nonzero;stroke:none"
             d="m 3410.7,900.93 -141.88,200.16 0,-200.16 -76.05,0 0,323.24 76.44,0 144.2,-202.45 0,202.45 75.88,0 0,-323.24 -78.59,0" /><path
             id="path56"
             style="fill:#263d96;fill-opacity:1;fill-rule:nonzero;stroke:none"
             d="m 3530.11,965.086 57.09,34.309 c 11.35,-26.122 29.24,-39.317 53.93,-39.317 13.06,0 23.57,2.969 31.29,8.758 7.69,5.945 11.6,13.664 11.72,23.168 0,8.376 -2.95,15.636 -8.91,21.706 -6.06,6 -22.44,15.19 -49.22,27.33 -31.23,13.85 -52.56,28.17 -63.93,43.01 -11.38,14.73 -17.05,32.7 -17.05,54 0,26 10.12,47.97 30.24,65.72 20.04,17.9 45.6,26.79 76.56,26.79 44.92,0 77.38,-17.62 97.66,-52.86 l -52.74,-33.98 c -9.9,16.91 -25,25.28 -44.92,25.28 -10.06,0 -18.36,-2.43 -24.69,-7.68 -6.27,-5.06 -9.37,-11.53 -9.37,-19.51 0,-8.05 3.18,-14.84 9.9,-20.53 6.6,-5.68 20.96,-13.65 43.03,-23.94 32.85,-15.2 55.96,-30.67 69.33,-45.99 13.42,-15.39 20.14,-34.72 20.14,-57.881 0,-28.574 -11.6,-52.34 -34.57,-70.758 -23.03,-18.543 -51.46,-27.762 -85.37,-27.762 -49.67,0 -86.33,23.254 -110.12,70.137" /><path
             id="path58"
             style="fill:#263d96;fill-opacity:1;fill-rule:nonzero;stroke:none"
             d="m 3878.82,1162.12 0,-93.37 24.03,0 c 18.3,-0.13 32.05,3.85 41.44,11.95 9.36,8.12 14.04,19.61 14.04,34.46 0,15.32 -4.68,26.92 -14.04,34.97 -9.39,8.05 -23.14,11.99 -41.44,11.99 l -24.03,0 z m 0,-155.4 0,-105.79 -75.88,0 0,323.24 108.09,0 c 38.95,0 69.36,-9.69 91,-29.18 21.75,-19.33 32.61,-45.6 32.61,-78.73 0,-33.78 -11.56,-60.36 -34.55,-80.14 -23.06,-19.7 -53.71,-29.46 -92.11,-29.4 l -29.16,0" /><path
             id="path60"
             style="fill:#263d96;fill-opacity:1;fill-rule:nonzero;stroke:none"
             d="m 4237.28,962.969 c 27.46,0 50.29,9.504 68.77,28.59 18.4,18.921 27.54,42.741 27.54,71.171 0,28.4 -9.14,52.08 -27.54,71.03 -18.48,19 -41.31,28.36 -68.77,28.36 -27.46,0 -50.35,-9.49 -68.61,-28.58 -18.25,-19.08 -27.46,-42.68 -27.46,-70.81 0,-28.17 9.21,-51.93 27.57,-71.07 18.4,-19.125 41.18,-28.691 68.5,-28.691 z m 0,-68.02 c -48.95,0 -89.73,16.098 -122.6,48.434 -32.89,32.328 -49.37,72.137 -49.37,119.347 -0.12,47.2 16.23,86.93 49.26,119.25 32.98,32.23 73.76,48.45 122.71,48.58 48.83,0 89.88,-16.08 123.01,-48.31 33.01,-32.12 49.51,-72.05 49.51,-119.52 -0.14,-47.64 -16.66,-87.445 -49.51,-119.609 -33.01,-32.074 -73.91,-48.172 -123.01,-48.172" /><path
             id="path62"
             style="fill:#263d96;fill-opacity:1;fill-rule:nonzero;stroke:none"
             d="m 4528.82,1163.61 0,-75.99 26.14,0 c 13.92,-0.08 24.94,3.51 33.28,11.16 8.16,7.58 12.54,16.96 12.54,28.19 -0.37,10.42 -4.12,19.06 -11.64,26.13 -7.64,7 -18.07,10.51 -31.33,10.51 l -28.99,0 z m 94.57,-262.68 -80.04,122.17 -14.53,0 0,-122.17 -75.9,0 0,323.24 109.91,0 c 36.11,0 64.2,-8.79 84,-26.34 19.84,-17.43 29.81,-41.39 29.81,-71.87 0,-20.41 -5.14,-37.89 -15.24,-52.84 -10.21,-15 -24.88,-26.14 -43.92,-33.92 l 92.05,-138.27 -86.14,0" /><path
             id="path64"
             style="fill:#263d96;fill-opacity:1;fill-rule:nonzero;stroke:none"
             d="m 4887.44,1156.97 0,-256.04 -76.02,0 0,256.04 -87.26,0 0,67.2 250.5,0 0,-67.2 -87.22,0" /><path
             id="path66"
             style="fill:#263d96;fill-opacity:1;fill-rule:nonzero;stroke:none"
             d="m 2359.08,646.242 0,-55.211 101.97,0 0,-65.39 -101.97,0 0,-137.762 -75.87,0 0,323.187 204.38,0 0,-64.824 -128.51,0" /><path
             id="path68"
             style="fill:#263d96;fill-opacity:1;fill-rule:nonzero;stroke:none"
             d="m 2685.61,449.859 c 27.45,0 50.35,9.582 68.72,28.653 18.24,18.906 27.55,42.777 27.55,71.258 0,28.421 -9.31,52.011 -27.55,70.933 -18.37,18.945 -41.27,28.379 -68.72,28.379 -27.44,0 -50.34,-9.559 -68.7,-28.594 -18.27,-19.047 -27.43,-42.668 -27.43,-70.718 0,-28.239 9.29,-51.918 27.58,-70.989 18.47,-19.23 41.23,-28.922 68.55,-28.922 z m 0,-68.007 c -48.9,0 -89.79,16.058 -122.66,48.476 -32.87,32.332 -49.38,72.133 -49.38,119.442 -0.13,47.121 16.26,86.832 49.24,119.175 33.01,32.219 73.9,48.43 122.8,48.594 48.83,0 89.81,-16.121 122.83,-48.328 33.12,-32.078 49.61,-72.07 49.61,-119.441 -0.14,-47.739 -16.75,-87.508 -49.61,-119.75 -32.88,-32.11 -73.86,-48.168 -122.83,-48.168" /><path
             id="path70"
             style="fill:#263d96;fill-opacity:1;fill-rule:nonzero;stroke:none"
             d="m 2977.1,650.547 0,-75.899 26.14,0 c 13.92,-0.136 24.99,3.543 33.25,11.032 8.44,7.621 12.41,17 12.41,28.238 -0.13,10.281 -3.97,19.082 -11.47,26.121 -7.65,7.012 -18.11,10.508 -31.3,10.508 l -29.03,0 z m 94.65,-262.668 -80.14,122.16 -14.51,0 0,-122.16 -76.03,0 0,323.187 110.11,0 c 36,0 63.97,-8.75 84,-26.144 19.82,-17.578 29.75,-41.531 29.75,-72.012 0,-20.398 -5.17,-37.949 -15.17,-52.832 -10.24,-15 -24.97,-26.207 -43.99,-33.937 l 92.01,-138.262 -86.03,0" /><path
             id="path72"
             style="fill:#263d96;fill-opacity:1;fill-rule:nonzero;stroke:none"
             d="m 3293.2,387.879 0,323.187 75.9,0 0,-255.656 124.18,0 0,-67.531 -200.08,0" /><path
             id="path74"
             style="fill:#263d96;fill-opacity:1;fill-rule:nonzero;stroke:none"
             d="m 3691.38,449.859 c 27.46,0 50.28,9.582 68.63,28.653 18.46,18.906 27.6,42.777 27.6,71.258 0,28.421 -9.14,52.011 -27.6,70.933 -18.35,18.945 -41.17,28.379 -68.63,28.379 -27.44,0 -50.43,-9.559 -68.69,-28.594 -18.3,-19.047 -27.38,-42.668 -27.38,-70.718 0,-28.239 9.24,-51.918 27.5,-70.989 18.4,-19.23 41.27,-28.922 68.57,-28.922 z m 0,-68.007 c -48.96,0 -89.8,16.058 -122.67,48.476 -33.01,32.332 -49.36,72.133 -49.36,119.442 -0.12,47.121 16.21,86.832 49.22,119.175 33.01,32.219 73.85,48.43 122.81,48.594 48.85,0 89.83,-16.121 122.91,-48.328 32.95,-32.078 49.44,-72.07 49.44,-119.441 -0.12,-47.739 -16.68,-87.508 -49.44,-119.75 -32.97,-32.11 -73.94,-48.168 -122.91,-48.168" /><path
             id="path76"
             style="fill:#263d96;fill-opacity:1;fill-rule:nonzero;stroke:none"
             d="m 4124.21,387.879 -141.89,200.301 0,-200.301 -75.86,0 0,323.187 76.39,0 144.06,-202.406 0,202.406 75.9,0 0,-323.187 -78.6,0" /><path
             id="path78"
             style="fill:#263d96;fill-opacity:1;fill-rule:nonzero;stroke:none"
             d="m 4332.22,648.156 0,-197.265 20.84,0 c 35.18,0 62.64,8.66 82.36,26.031 19.85,17.269 29.79,41.398 29.79,72.308 -0.16,31.84 -10.18,56.149 -29.79,73.34 -19.86,16.953 -47.18,25.586 -82.36,25.586 l -20.84,0 z m -75.97,-260.277 0,323.187 104.14,0 c 55.03,0 98.84,-14.257 131.58,-42.929 32.75,-28.614 49.12,-67.489 49.12,-116.446 0,-52.089 -16.37,-92.402 -49.24,-120.921 -32.73,-28.559 -78.18,-42.891 -136.19,-42.891 l -99.41,0" /><path
             id="path80"
             style="fill:#263d96;fill-opacity:1;fill-rule:nonzero;stroke:none"
             d="m 4745.46,449.859 c 27.43,0 50.36,9.582 68.83,28.653 18.28,18.906 27.58,42.777 27.58,71.258 0,28.421 -9.3,52.011 -27.58,70.933 -18.47,18.945 -41.4,28.379 -68.83,28.379 -27.4,0 -50.23,-9.559 -68.57,-28.594 -18.28,-19.047 -27.46,-42.668 -27.46,-70.718 0,-28.239 9.18,-51.918 27.6,-70.989 18.32,-19.23 41.11,-28.922 68.43,-28.922 z m 0,-68.007 c -48.84,0 -89.7,16.058 -122.67,48.476 -32.87,32.332 -49.26,72.133 -49.26,119.442 -0.25,47.121 16.25,86.832 49.1,119.175 33.13,32.219 73.99,48.43 122.83,48.594 48.95,0 89.95,-16.121 122.93,-48.328 33.01,-32.078 49.65,-72.07 49.65,-119.441 -0.17,-47.739 -16.79,-87.508 -49.65,-119.75 -32.87,-32.11 -73.84,-48.168 -122.93,-48.168" /><path
             id="path82"
             style="fill:#263d96;fill-opacity:1;fill-rule:nonzero;stroke:none"
             d="m 5184.1,387.879 -141.9,200.301 0,-200.301 -75.9,0 0,323.187 76.45,0 144.04,-202.406 0,202.406 75.9,0 0,-323.187 -78.59,0" /></g></g></g></g></svg>