<?xml version="1.0" encoding="utf-8"?>
<svg viewBox="0 0 256 256" xmlns="http://www.w3.org/2000/svg">
  <path d="m256 48.622c-9.411 4.1824-19.539 7.0036-30.166 8.2662 10.85-6.4945 19.17-16.782 23.094-29.054-10.149 6.0217-21.384 10.391-33.352 12.75-9.58-10.204-23.23-16.584-38.34-16.584-29.002 0-52.517 23.51-52.517 52.512 0 4.1097 0.46249 8.1155 1.3615 11.965-43.646-2.192-82.351-23.094-108.26-54.865-4.521 7.7518-7.1089 16.771-7.1089 26.404 0 18.216 9.2707 34.291 23.364 43.705-8.6056-0.27536-16.707-2.6393-23.79-6.5724-0.0052 0.21822-0.0052 0.44162-0.0052 0.66503 0 25.438 18.105 46.656 42.134 51.488-4.4067 1.195-9.0473 1.8392-13.839 1.8392-3.3882 0-6.6776-0.32732-9.8839-0.94559 6.688 20.86 26.082 36.047 49.061 36.468-17.97 14.09-40.612 22.48-65.223 22.48-4.2352 0-8.4185-0.24-12.529-0.73 23.25 14.9 50.854 23.59 80.511 23.59 96.609 0 149.43-80.01 149.43-149.4 0-2.2757-0.0468-4.5461-0.1455-6.801 10.27-7.392 19.17-16.646 26.21-27.177z" style="fill: rgb(141, 141, 141);"/>
</svg>