<?xml version="1.0" encoding="UTF-8" standalone="no"?>
<svg
   xmlns:dc="http://purl.org/dc/elements/1.1/"
   xmlns:cc="http://creativecommons.org/ns#"
   xmlns:rdf="http://www.w3.org/1999/02/22-rdf-syntax-ns#"
   xmlns:svg="http://www.w3.org/2000/svg"
   xmlns="http://www.w3.org/2000/svg"
   viewBox="0 0 91.25 108.4125"
   height="108.4125"
   width="91.25"
   xml:space="preserve"
   version="1.1"
   id="svg2"><metadata
     id="metadata8"><rdf:RDF><cc:Work
         rdf:about=""><dc:format>image/svg+xml</dc:format><dc:type
           rdf:resource="http://purl.org/dc/dcmitype/StillImage" /></cc:Work></rdf:RDF></metadata><defs
     id="defs6"><clipPath
       id="clipPath20"
       clipPathUnits="userSpaceOnUse"><path
         id="path22"
         d="M 365,5.44922 C 386.145,14.6484 570.266,95.4336 628.203,142.93 691.527,194.844 725,269.438 725,358.586 l 0,423.805 c -100.02,53.023 -221.133,79.894 -360,79.894 -138.867,0 -259.98,-26.871 -360,-79.894 L 5,358.586 C 5,269.438 38.4727,194.844 101.797,142.93 159.734,95.4336 343.855,14.6484 365,5.44922 Z" /></clipPath><radialGradient
       id="radialGradient24"
       spreadMethod="pad"
       gradientTransform="matrix(0,-1196.08,-598.04,0,115,714.291)"
       gradientUnits="userSpaceOnUse"
       r="1"
       cy="0"
       cx="0"
       fy="0"
       fx="0"><stop
         id="stop26"
         offset="0"
         style="stop-opacity:1;stop-color:#ffdc00" /><stop
         id="stop28"
         offset="0.35"
         style="stop-opacity:1;stop-color:#ffbe00" /><stop
         id="stop30"
         offset="1"
         style="stop-opacity:1;stop-color:#c86e14" /></radialGradient><clipPath
       id="clipPath40"
       clipPathUnits="userSpaceOnUse"><path
         id="path42"
         d="m 504.426,505.395 c 0.086,-33.317 9.363,-58.243 61.019,-88.54 27.539,-16.179 38.649,-26.859 39.11,-46.523 0.543,-21.84 -14.578,-34.996 -37.551,-34.894 -19.977,0.148 -43.879,11.234 -59.871,25.484 l 0,-57.664 c 19.621,-11.711 44.097,-19.449 68.851,-19.449 61.887,0 89.489,43.746 90.692,83.789 1.195,36.539 -8.918,64.175 -61.242,94.937 -23.364,13.695 -41.813,22.699 -41.196,45.492 0.606,22.278 19.098,30.082 36.836,29.926 21.891,-0.203 43.059,-12.344 56.11,-25.742 l 0,54.469 c -11.012,8.461 -34.332,21.39 -68.731,20.336 -41.203,-1.196 -84.305,-31.004 -84.027,-81.621 M 352.613,339.633 c 4.489,-1.672 11.844,-3.778 20.332,-3.778 36.047,0 53.254,33.075 53.254,101.547 0,70.161 -15.047,99.184 -51.402,99.184 -8.488,0 -17.098,-2 -22.184,-4.512 l 0,-192.441 z m 0,-51.192 c 6.266,-1.843 15.336,-3.558 28.184,-3.558 69.531,0 109.422,62.613 109.422,154.109 0,91.313 -41.078,148.024 -115.84,148.024 -34.16,0 -61.715,-7.618 -84.422,-22.27 l 0,-408.191 62.656,0 0,131.886 z M 70.0469,383.805 c 0,-66.367 31.4301,-99.996 93.3981,-99.996 38.332,0 70.446,8.902 94.371,25.152 l 0,271.719 -62.523,0 0,-236.075 c -6.816,-4.679 -16.918,-7.652 -29.629,-7.652 -28.715,0 -33.012,26.293 -33.012,44.07 l 0,199.657 -62.6051,0 0,-196.875 M 38.082,600.996 C 192.711,742.82 379.758,780.32 554.23,780.32 c 47.047,0 93.231,-2.715 137.688,-6.847 l 0,-414.903 c 0,-79.703 -28.906,-144.101 -84.738,-190.093 C 557.328,127.43 406.957,60.0625 365,41.5859 322.484,60.3438 171.742,128.555 122.754,168.477 67.2813,213.676 38.082,279.613 38.082,358.57 l 0,242.426 z" /></clipPath><radialGradient
       id="radialGradient44"
       spreadMethod="pad"
       gradientTransform="matrix(0,-1186.83,-593.417,0,115.33,713.337)"
       gradientUnits="userSpaceOnUse"
       r="1"
       cy="0"
       cx="0"
       fy="0"
       fx="0"><stop
         id="stop46"
         offset="0"
         style="stop-opacity:1;stop-color:#5c3333" /><stop
         id="stop48"
         offset="0.35"
         style="stop-opacity:1;stop-color:#471a1a" /><stop
         id="stop50"
         offset="0.85"
         style="stop-opacity:1;stop-color:#330000" /><stop
         id="stop52"
         offset="1"
         style="stop-opacity:1;stop-color:#330000" /></radialGradient><clipPath
       id="clipPath60"
       clipPathUnits="userSpaceOnUse"><path
         id="path62"
         d="m 38.082,358.57 c 0,-78.957 29.1993,-144.894 84.672,-190.093 C 171.742,128.555 322.484,60.3438 365,41.5859 l 0,4.918 C 329.711,62.1133 175.18,131.559 125.598,171.965 71.2891,216.215 42.582,280.746 42.582,358.57 l -4.5,0 z" /></clipPath><linearGradient
       id="linearGradient64"
       spreadMethod="pad"
       gradientTransform="matrix(-327.56,316.321,316.321,327.56,339.377,15.0511)"
       gradientUnits="userSpaceOnUse"
       y2="0"
       x2="1"
       y1="0"
       x1="0"><stop
         id="stop66"
         offset="0"
         style="stop-opacity:1;stop-color:#b76e11" /><stop
         id="stop68"
         offset="0.00455729"
         style="stop-opacity:1;stop-color:#b76e11" /><stop
         id="stop70"
         offset="0.20455422"
         style="stop-opacity:1;stop-color:#cc7b16" /><stop
         id="stop72"
         offset="1"
         style="stop-opacity:1;stop-color:#cc7b16" /></linearGradient><clipPath
       id="clipPath80"
       clipPathUnits="userSpaceOnUse"><path
         id="path82"
         d="m 365,41.5859 c 41.957,18.4766 192.328,85.8441 242.18,126.8911 55.832,45.992 84.738,110.39 84.738,190.093 l -4.5,0 c 0,-78.41 -27.961,-141.199 -83.102,-186.621 C 556.352,132.457 411.379,66.9648 365,46.5039 l 0,-4.918 z" /></clipPath><linearGradient
       id="linearGradient84"
       spreadMethod="pad"
       gradientTransform="matrix(327.56,316.321,316.321,-327.56,390.586,15.0901)"
       gradientUnits="userSpaceOnUse"
       y2="0"
       x2="1"
       y1="0"
       x1="0"><stop
         id="stop86"
         offset="0"
         style="stop-opacity:1;stop-color:#ffc20e" /><stop
         id="stop88"
         offset="1"
         style="stop-opacity:1;stop-color:#d99814" /></linearGradient><clipPath
       id="clipPath96"
       clipPathUnits="userSpaceOnUse"><path
         id="path98"
         d="m 687.418,769.371 c -47.844,4.34 -91.449,6.453 -133.188,6.453 -213.777,0 -381.164,-57.84 -511.648,-176.808 l -4.5,1.98 C 192.711,742.82 379.758,780.32 554.23,780.32 c 47.047,0 93.231,-2.715 137.688,-6.847 l -4.5,-4.102 z" /></clipPath><linearGradient
       id="linearGradient100"
       spreadMethod="pad"
       gradientTransform="matrix(636.689,221.719,221.719,-636.689,38.3448,600.241)"
       gradientUnits="userSpaceOnUse"
       y2="0"
       x2="1"
       y1="0"
       x1="0"><stop
         id="stop102"
         offset="0"
         style="stop-opacity:1;stop-color:#e49f15" /><stop
         id="stop104"
         offset="0.975"
         style="stop-opacity:1;stop-color:#8f4a02" /><stop
         id="stop106"
         offset="1"
         style="stop-opacity:1;stop-color:#8f4a02" /></linearGradient><clipPath
       id="clipPath114"
       clipPathUnits="userSpaceOnUse"><path
         id="path116"
         d="m 372.945,335.855 c 36.047,0 53.254,33.075 53.254,101.547 l -4.5,0 c 0,-55.343 -10.902,-97.047 -48.754,-97.047 l 0,-4.5 z" /></clipPath><linearGradient
       id="linearGradient118"
       spreadMethod="pad"
       gradientTransform="matrix(51.5129,102.422,102.422,-51.5129,383.008,330.795)"
       gradientUnits="userSpaceOnUse"
       y2="0"
       x2="1"
       y1="0"
       x1="0"><stop
         id="stop120"
         offset="0"
         style="stop-opacity:1;stop-color:#ffcb05" /><stop
         id="stop122"
         offset="0.05"
         style="stop-opacity:1;stop-color:#ffcb05" /><stop
         id="stop124"
         offset="0.95"
         style="stop-opacity:1;stop-color:#b76e11" /><stop
         id="stop126"
         offset="1"
         style="stop-opacity:1;stop-color:#b76e11" /></linearGradient><clipPath
       id="clipPath134"
       clipPathUnits="userSpaceOnUse"><path
         id="path136"
         d="m 372.945,340.355 c -6.172,0 -11.683,1.204 -15.832,2.493 l -4.5,-3.215 c 4.489,-1.672 11.844,-3.778 20.332,-3.778 l 0,4.5 z" /></clipPath><linearGradient
       id="linearGradient138"
       spreadMethod="pad"
       gradientTransform="matrix(-20.4848,2.51522,2.51522,20.4848,373.226,338.146)"
       gradientUnits="userSpaceOnUse"
       y2="0"
       x2="1"
       y1="0"
       x1="0"><stop
         id="stop140"
         offset="0"
         style="stop-opacity:1;stop-color:#ffcb05" /><stop
         id="stop142"
         offset="0.05"
         style="stop-opacity:1;stop-color:#ffcb05" /><stop
         id="stop144"
         offset="0.95"
         style="stop-opacity:1;stop-color:#f0af13" /><stop
         id="stop146"
         offset="1"
         style="stop-opacity:1;stop-color:#f0af13" /></linearGradient><clipPath
       id="clipPath154"
       clipPathUnits="userSpaceOnUse"><path
         id="path156"
         d="m 357.113,529.102 c 4.367,1.613 10.871,2.984 17.684,2.984 l 0,4.5 c -8.488,0 -17.098,-2 -22.184,-4.512 l 4.5,-2.972 z" /></clipPath><linearGradient
       id="linearGradient158"
       spreadMethod="pad"
       gradientTransform="matrix(21.8609,5.7351,5.7351,-21.8609,353.243,529.68)"
       gradientUnits="userSpaceOnUse"
       y2="0"
       x2="1"
       y1="0"
       x1="0"><stop
         id="stop160"
         offset="0"
         style="stop-opacity:1;stop-color:#a25c0a" /><stop
         id="stop162"
         offset="0.05"
         style="stop-opacity:1;stop-color:#a25c0a" /><stop
         id="stop164"
         offset="0.95"
         style="stop-opacity:1;stop-color:#8f4a02" /><stop
         id="stop166"
         offset="1"
         style="stop-opacity:1;stop-color:#8f4a02" /></linearGradient><clipPath
       id="clipPath174"
       clipPathUnits="userSpaceOnUse"><path
         id="path176"
         d="m 421.699,437.402 c 0,60.172 -9.969,94.684 -46.902,94.684 l 0,4.5 c 36.355,0 51.402,-29.023 51.402,-99.184 l -4.5,0 z" /></clipPath><linearGradient
       id="linearGradient178"
       spreadMethod="pad"
       gradientTransform="matrix(-50.5409,99.6216,99.6216,50.5409,434.926,441.828)"
       gradientUnits="userSpaceOnUse"
       y2="0"
       x2="1"
       y1="0"
       x1="0"><stop
         id="stop180"
         offset="0"
         style="stop-opacity:1;stop-color:#b76e11" /><stop
         id="stop182"
         offset="0.05"
         style="stop-opacity:1;stop-color:#b76e11" /><stop
         id="stop184"
         offset="0.95"
         style="stop-opacity:1;stop-color:#8f4a02" /><stop
         id="stop186"
         offset="1"
         style="stop-opacity:1;stop-color:#8f4a02" /></linearGradient><clipPath
       id="clipPath194"
       clipPathUnits="userSpaceOnUse"><path
         id="path196"
         d="m 499.922,505.375 c -0.274,51.488 42.855,84.816 88.398,86.145 l 0.133,-4.504 C 547.25,585.82 504.148,556.012 504.426,505.395 l -4.504,-0.02 z" /></clipPath><linearGradient
       id="linearGradient198"
       spreadMethod="pad"
       gradientTransform="matrix(-91.5156,-82.6907,-82.6907,91.5156,583.126,597.267)"
       gradientUnits="userSpaceOnUse"
       y2="0"
       x2="1"
       y1="0"
       x1="0"><stop
         id="stop200"
         offset="0"
         style="stop-opacity:1;stop-color:#ffcb05" /><stop
         id="stop202"
         offset="0.05"
         style="stop-opacity:1;stop-color:#ffcb05" /><stop
         id="stop204"
         offset="0.95"
         style="stop-opacity:1;stop-color:#d78817" /><stop
         id="stop206"
         offset="1"
         style="stop-opacity:1;stop-color:#d78817" /></linearGradient><clipPath
       id="clipPath214"
       clipPathUnits="userSpaceOnUse"><path
         id="path216"
         d="m 601.074,537.953 c -17.738,0.156 -36.23,-7.648 -36.836,-29.926 l 4.496,-0.121 c 0.168,6.02 2.946,25.551 31.727,25.551 l 0.613,4.496 z" /></clipPath><linearGradient
       id="linearGradient218"
       spreadMethod="pad"
       gradientTransform="matrix(35.7992,31.1198,31.1198,-35.7992,562.467,510.064)"
       gradientUnits="userSpaceOnUse"
       y2="0"
       x2="1"
       y1="0"
       x1="0"><stop
         id="stop220"
         offset="0"
         style="stop-opacity:1;stop-color:#ad680e" /><stop
         id="stop222"
         offset="0.05"
         style="stop-opacity:1;stop-color:#ad680e" /><stop
         id="stop224"
         offset="0.95"
         style="stop-opacity:1;stop-color:#8f4a02" /><stop
         id="stop226"
         offset="1"
         style="stop-opacity:1;stop-color:#8f4a02" /></linearGradient><clipPath
       id="clipPath234"
       clipPathUnits="userSpaceOnUse"><path
         id="path236"
         d="m 657.184,512.211 c -13.051,13.398 -34.219,25.539 -56.11,25.742 l -0.613,-4.496 c 25.891,0 48.016,-16.84 61.219,-32.32 l -4.496,11.074 z" /></clipPath><linearGradient
       id="linearGradient238"
       spreadMethod="pad"
       gradientTransform="matrix(-62.7614,32.6715,32.6715,62.7614,664.487,506.529)"
       gradientUnits="userSpaceOnUse"
       y2="0"
       x2="1"
       y1="0"
       x1="0"><stop
         id="stop240"
         offset="0"
         style="stop-opacity:1;stop-color:#d89016" /><stop
         id="stop242"
         offset="0.95"
         style="stop-opacity:1;stop-color:#8f4a02" /><stop
         id="stop244"
         offset="1"
         style="stop-opacity:1;stop-color:#8f4a02" /></linearGradient><clipPath
       id="clipPath252"
       clipPathUnits="userSpaceOnUse"><path
         id="path254"
         d="m 661.68,568.895 -4.496,-2.215 c -11.012,8.461 -34.332,21.39 -68.731,20.336 l -0.133,4.504 c 38.145,1.156 63.575,-14.7 73.36,-22.625 z" /></clipPath><linearGradient
       id="linearGradient256"
       spreadMethod="pad"
       gradientTransform="matrix(73.0459,-23.5932,-23.5932,-73.0459,588.779,592.933)"
       gradientUnits="userSpaceOnUse"
       y2="0"
       x2="1"
       y1="0"
       x1="0"><stop
         id="stop258"
         offset="0"
         style="stop-opacity:1;stop-color:#ffcb05" /><stop
         id="stop260"
         offset="0.05"
         style="stop-opacity:1;stop-color:#ffcb05" /><stop
         id="stop262"
         offset="0.95"
         style="stop-opacity:1;stop-color:#ed9d19" /><stop
         id="stop264"
         offset="1"
         style="stop-opacity:1;stop-color:#ed9d19" /></linearGradient><clipPath
       id="clipPath272"
       clipPathUnits="userSpaceOnUse"><path
         id="path274"
         d="m 666.676,367.598 c -1.203,-40.043 -28.805,-83.789 -90.692,-83.789 l 0,-4.504 c 56.77,0 93.68,37.808 95.188,88.144 l -4.496,0.149 z" /></clipPath><linearGradient
       id="linearGradient276"
       spreadMethod="pad"
       gradientTransform="matrix(-92.6513,-90.7309,-90.7309,92.6513,677.94,360.54)"
       gradientUnits="userSpaceOnUse"
       y2="0"
       x2="1"
       y1="0"
       x1="0"><stop
         id="stop278"
         offset="0"
         style="stop-opacity:1;stop-color:#995606" /><stop
         id="stop280"
         offset="0.05"
         style="stop-opacity:1;stop-color:#995606" /><stop
         id="stop282"
         offset="0.95"
         style="stop-opacity:1;stop-color:#8f4a02" /><stop
         id="stop284"
         offset="1"
         style="stop-opacity:1;stop-color:#8f4a02" /></linearGradient><clipPath
       id="clipPath292"
       clipPathUnits="userSpaceOnUse"><path
         id="path294"
         d="m 507.133,303.258 c 19.621,-11.711 44.097,-19.449 68.851,-19.449 l 0,-4.504 c -26.89,0 -50.933,8.019 -73.347,21.398 l 4.496,2.555 z" /></clipPath><linearGradient
       id="linearGradient296"
       spreadMethod="pad"
       gradientTransform="matrix(73.4106,-21.1889,-21.1889,-73.4106,502.457,300.081)"
       gradientUnits="userSpaceOnUse"
       y2="0"
       x2="1"
       y1="0"
       x1="0"><stop
         id="stop298"
         offset="0"
         style="stop-opacity:1;stop-color:#a25c0a" /><stop
         id="stop300"
         offset="0.95"
         style="stop-opacity:1;stop-color:#8f4a02" /><stop
         id="stop302"
         offset="1"
         style="stop-opacity:1;stop-color:#8f4a02" /></linearGradient><clipPath
       id="clipPath310"
       clipPathUnits="userSpaceOnUse"><path
         id="path312"
         d="m 567.004,335.438 c -19.977,0.148 -43.879,11.234 -59.871,25.484 l -4.496,10.035 c 16.34,-16.508 42.113,-30.855 64.398,-31.016 l -0.031,-4.503 z" /></clipPath><linearGradient
       id="linearGradient314"
       spreadMethod="pad"
       gradientTransform="matrix(-66.0441,32.0693,32.0693,66.0441,566.338,334.066)"
       gradientUnits="userSpaceOnUse"
       y2="0"
       x2="1"
       y1="0"
       x1="0"><stop
         id="stop316"
         offset="0"
         style="stop-opacity:1;stop-color:#ffc20e" /><stop
         id="stop318"
         offset="0.05"
         style="stop-opacity:1;stop-color:#ffc20e" /><stop
         id="stop320"
         offset="1"
         style="stop-opacity:1;stop-color:#f0af13" /></linearGradient><clipPath
       id="clipPath328"
       clipPathUnits="userSpaceOnUse"><path
         id="path330"
         d="m 604.555,370.332 c 0.543,-21.84 -14.578,-34.996 -37.551,-34.894 l 0.031,4.503 c 19.551,-0.14 33.516,10.297 33.024,30.282 l 4.496,0.109 z" /></clipPath><linearGradient
       id="linearGradient332"
       spreadMethod="pad"
       gradientTransform="matrix(37.7335,34.6978,34.6978,-37.7335,569.916,332.273)"
       gradientUnits="userSpaceOnUse"
       y2="0"
       x2="1"
       y1="0"
       x1="0"><stop
         id="stop334"
         offset="0"
         style="stop-opacity:1;stop-color:#ffcb05" /><stop
         id="stop336"
         offset="0.05"
         style="stop-opacity:1;stop-color:#ffcb05" /><stop
         id="stop338"
         offset="0.95"
         style="stop-opacity:1;stop-color:#d99814" /><stop
         id="stop340"
         offset="1"
         style="stop-opacity:1;stop-color:#d99814" /></linearGradient><clipPath
       id="clipPath348"
       clipPathUnits="userSpaceOnUse"><path
         id="path350"
         d="m 600.059,370.223 c -0.391,16.578 -8.668,26.168 -36.895,42.754 -52.766,30.949 -63.144,57.316 -63.242,92.398 l 4.504,0.02 c 0.086,-33.317 9.363,-58.243 61.019,-88.54 27.539,-16.179 38.649,-26.859 39.11,-46.523 l -4.496,-0.109 z" /></clipPath><linearGradient
       id="linearGradient352"
       spreadMethod="pad"
       gradientTransform="matrix(97.3659,-140.091,-140.091,-97.3659,499.028,504.753)"
       gradientUnits="userSpaceOnUse"
       y2="0"
       x2="1"
       y1="0"
       x1="0"><stop
         id="stop354"
         offset="0"
         style="stop-opacity:1;stop-color:#d78817" /><stop
         id="stop356"
         offset="0.4"
         style="stop-opacity:1;stop-color:#a25c0a" /><stop
         id="stop358"
         offset="0.6"
         style="stop-opacity:1;stop-color:#a25c0a" /><stop
         id="stop360"
         offset="1"
         style="stop-opacity:1;stop-color:#d99814" /></linearGradient><clipPath
       id="clipPath368"
       clipPathUnits="userSpaceOnUse"><path
         id="path370"
         d="m 607.711,466.418 c 54.496,-32.039 64.687,-61.617 63.461,-98.969 l -4.496,0.149 c 1.195,36.539 -8.918,64.175 -61.242,94.937 -23.364,13.695 -41.813,22.699 -41.196,45.492 l 4.496,-0.121 c -0.554,-20.75 16.864,-28.066 38.977,-41.488" /></clipPath><linearGradient
       id="linearGradient372"
       spreadMethod="pad"
       gradientTransform="matrix(104.298,-142.506,-142.506,-104.298,571.69,513.484)"
       gradientUnits="userSpaceOnUse"
       y2="0"
       x2="1"
       y1="0"
       x1="0"><stop
         id="stop374"
         offset="0"
         style="stop-opacity:1;stop-color:#ad680e" /><stop
         id="stop376"
         offset="0.4"
         style="stop-opacity:1;stop-color:#f1b80e" /><stop
         id="stop378"
         offset="0.6"
         style="stop-opacity:1;stop-color:#f1b80e" /><stop
         id="stop380"
         offset="0.95"
         style="stop-opacity:1;stop-color:#995606" /><stop
         id="stop382"
         offset="1"
         style="stop-opacity:1;stop-color:#995606" /></linearGradient><clipPath
       id="clipPath392"
       clipPathUnits="userSpaceOnUse"><path
         id="path394"
         d="m 380.797,280.383 c -8.664,0 -16.602,0.765 -23.684,2.285 l -4.5,5.773 c 6.266,-1.843 15.336,-3.558 28.184,-3.558 l 0,-4.5 z" /></clipPath><linearGradient
       id="linearGradient396"
       spreadMethod="pad"
       gradientTransform="matrix(28.7414,-4.44941,-4.44941,-28.7414,352.28,286.28)"
       gradientUnits="userSpaceOnUse"
       y2="0"
       x2="1"
       y1="0"
       x1="0"><stop
         id="stop398"
         offset="0"
         style="stop-opacity:1;stop-color:#985006" /><stop
         id="stop400"
         offset="0.05"
         style="stop-opacity:1;stop-color:#985006" /><stop
         id="stop402"
         offset="0.95"
         style="stop-opacity:1;stop-color:#8f4a02" /><stop
         id="stop404"
         offset="1"
         style="stop-opacity:1;stop-color:#8f4a02" /></linearGradient><clipPath
       id="clipPath412"
       clipPathUnits="userSpaceOnUse"><path
         id="path414"
         d="m 494.719,438.992 c 0,-81.512 -33.203,-158.609 -113.922,-158.609 l 0,4.5 c 69.531,0 109.422,62.613 109.422,154.109 l 4.5,0 z" /></clipPath><linearGradient
       id="linearGradient416"
       spreadMethod="pad"
       gradientTransform="matrix(-113.68,-158.787,-158.787,113.68,510.514,427.687)"
       gradientUnits="userSpaceOnUse"
       y2="0"
       x2="1"
       y1="0"
       x1="0"><stop
         id="stop418"
         offset="0"
         style="stop-opacity:1;stop-color:#a25c0a" /><stop
         id="stop420"
         offset="0.05"
         style="stop-opacity:1;stop-color:#a25c0a" /><stop
         id="stop422"
         offset="0.95"
         style="stop-opacity:1;stop-color:#8f4a02" /><stop
         id="stop424"
         offset="1"
         style="stop-opacity:1;stop-color:#8f4a02" /></linearGradient><clipPath
       id="clipPath432"
       clipPathUnits="userSpaceOnUse"><path
         id="path434"
         d="m 285.453,567.195 c 24.024,16.379 54.211,24.325 88.926,24.325 l 0,-4.504 c -34.16,0 -61.715,-7.618 -84.422,-22.27 l -4.504,2.449 z" /></clipPath><linearGradient
       id="linearGradient436"
       spreadMethod="pad"
       gradientTransform="matrix(-89.2449,-23.0803,-23.0803,89.2449,374.187,592.262)"
       gradientUnits="userSpaceOnUse"
       y2="0"
       x2="1"
       y1="0"
       x1="0"><stop
         id="stop438"
         offset="0"
         style="stop-opacity:1;stop-color:#ffdd00" /><stop
         id="stop440"
         offset="0.05"
         style="stop-opacity:1;stop-color:#ffdd00" /><stop
         id="stop442"
         offset="0.95"
         style="stop-opacity:1;stop-color:#eea616" /><stop
         id="stop444"
         offset="1"
         style="stop-opacity:1;stop-color:#eea616" /></linearGradient><clipPath
       id="clipPath452"
       clipPathUnits="userSpaceOnUse"><path
         id="path454"
         d="m 374.379,591.52 c 86.551,0 120.34,-71.754 120.34,-152.528 l -4.5,0 c 0,91.313 -41.078,148.024 -115.84,148.024 l 0,4.504 z" /></clipPath><linearGradient
       id="linearGradient456"
       spreadMethod="pad"
       gradientTransform="matrix(119.878,-152.886,-152.886,-119.878,390.826,604.415)"
       gradientUnits="userSpaceOnUse"
       y2="0"
       x2="1"
       y1="0"
       x1="0"><stop
         id="stop458"
         offset="0"
         style="stop-opacity:1;stop-color:#ffdd00" /><stop
         id="stop460"
         offset="0.0530496"
         style="stop-opacity:1;stop-color:#ffdd00" /><stop
         id="stop462"
         offset="0.95"
         style="stop-opacity:1;stop-color:#a25c0a" /><stop
         id="stop464"
         offset="1"
         style="stop-opacity:1;stop-color:#a25c0a" /></linearGradient><clipPath
       id="clipPath488"
       clipPathUnits="userSpaceOnUse"><path
         id="path490"
         d="m 163.445,279.305 c -66.8083,0 -97.8981,38.207 -97.8981,104.5 l 4.5,0 c 0,-66.367 31.4301,-99.996 93.3981,-99.996 l 0,-4.504 z" /></clipPath><linearGradient
       id="linearGradient492"
       spreadMethod="pad"
       gradientTransform="matrix(97.4722,-104.893,-104.893,-97.4722,54.0675,373.135)"
       gradientUnits="userSpaceOnUse"
       y2="0"
       x2="1"
       y1="0"
       x1="0"><stop
         id="stop494"
         offset="0"
         style="stop-opacity:1;stop-color:#d89016" /><stop
         id="stop496"
         offset="0.05"
         style="stop-opacity:1;stop-color:#d89016" /><stop
         id="stop498"
         offset="0.95"
         style="stop-opacity:1;stop-color:#8f4a02" /><stop
         id="stop500"
         offset="1"
         style="stop-opacity:1;stop-color:#8f4a02" /></linearGradient><clipPath
       id="clipPath508"
       clipPathUnits="userSpaceOnUse"><path
         id="path510"
         d="M 262.313,306.578 C 235.77,288.547 203.434,279.305 163.445,279.305 l 0,4.504 c 38.332,0 70.446,8.902 94.371,25.152 l 4.497,-2.383 z" /></clipPath><linearGradient
       id="linearGradient512"
       spreadMethod="pad"
       gradientTransform="matrix(-99.2808,-25.6758,-25.6758,99.2808,262.97,304.049)"
       gradientUnits="userSpaceOnUse"
       y2="0"
       x2="1"
       y1="0"
       x1="0"><stop
         id="stop514"
         offset="0"
         style="stop-opacity:1;stop-color:#a25c0a" /><stop
         id="stop516"
         offset="0.05"
         style="stop-opacity:1;stop-color:#a25c0a" /><stop
         id="stop518"
         offset="0.95"
         style="stop-opacity:1;stop-color:#8f4a02" /><stop
         id="stop520"
         offset="1"
         style="stop-opacity:1;stop-color:#8f4a02" /></linearGradient><clipPath
       id="clipPath528"
       clipPathUnits="userSpaceOnUse"><path
         id="path530"
         d="m 165.664,341.453 c 9.957,0 18.766,1.988 25.125,5.637 l 4.504,-2.485 c -6.816,-4.679 -16.918,-7.652 -29.629,-7.652 l 0,4.5 z" /></clipPath><linearGradient
       id="linearGradient532"
       spreadMethod="pad"
       gradientTransform="matrix(29.7153,7.29877,7.29877,-29.7153,165.387,338.074)"
       gradientUnits="userSpaceOnUse"
       y2="0"
       x2="1"
       y1="0"
       x1="0"><stop
         id="stop534"
         offset="0"
         style="stop-opacity:1;stop-color:#ffd400" /><stop
         id="stop536"
         offset="0.05"
         style="stop-opacity:1;stop-color:#ffd400" /><stop
         id="stop538"
         offset="0.95"
         style="stop-opacity:1;stop-color:#ffc20e" /><stop
         id="stop540"
         offset="1"
         style="stop-opacity:1;stop-color:#ffc20e" /></linearGradient><clipPath
       id="clipPath548"
       clipPathUnits="userSpaceOnUse"><path
         id="path550"
         d="m 165.664,336.953 c -28.715,0 -33.012,26.293 -33.012,44.07 l 4.5,0 c 0,-21.785 6.426,-39.57 28.512,-39.57 l 0,-4.5 z" /></clipPath><linearGradient
       id="linearGradient552"
       spreadMethod="pad"
       gradientTransform="matrix(-32.5181,44.4304,44.4304,32.5181,161.526,333.926)"
       gradientUnits="userSpaceOnUse"
       y2="0"
       x2="1"
       y1="0"
       x1="0"><stop
         id="stop554"
         offset="0"
         style="stop-opacity:1;stop-color:#ffd400" /><stop
         id="stop556"
         offset="0.05"
         style="stop-opacity:1;stop-color:#ffd400" /><stop
         id="stop558"
         offset="0.95"
         style="stop-opacity:1;stop-color:#cc7b16" /><stop
         id="stop560"
         offset="1"
         style="stop-opacity:1;stop-color:#cc7b16" /></linearGradient><clipPath
       id="clipPath574"
       clipPathUnits="userSpaceOnUse"><path
         id="path576"
         d="m 352.617,339.633 c 4.485,-1.672 11.84,-3.774 20.328,-3.774 36.047,0 53.254,33.075 53.254,101.543 0,70.164 -15.047,99.184 -51.402,99.184 -8.488,0 -17.098,-2 -22.18,-4.512 l 0,-192.441 z m 0,-51.192 0,-131.886 -62.66,0 0,408.191 c 22.707,14.656 50.262,22.274 84.422,22.274 74.762,0 115.84,-56.715 115.84,-148.028 0,-91.496 -39.891,-154.109 -109.422,-154.109 -12.848,0 -21.918,1.719 -28.18,3.558 z m -94.801,292.239 -62.523,0 0,-236.075 c -6.816,-4.679 -16.918,-7.652 -29.629,-7.652 -28.715,0 -33.008,26.301 -33.008,44.07 l 0,199.657 -62.6091,0 0,-196.875 c 0,-66.367 31.4301,-99.996 93.3981,-99.996 38.332,0 70.446,8.906 94.371,25.156 l 0,271.715 z M 604.555,370.332 c -0.461,19.668 -11.571,30.344 -39.11,46.523 -51.656,30.297 -60.933,55.223 -61.019,88.54 -0.278,50.617 42.824,80.425 84.027,81.625 34.399,1.05 57.719,-11.879 68.731,-20.34 l 0,-54.469 c -13.051,13.402 -34.219,25.539 -56.11,25.742 -17.738,0.156 -36.23,-7.648 -36.836,-29.926 -0.617,-22.793 17.832,-31.797 41.2,-45.492 52.32,-30.758 62.433,-58.398 61.238,-94.937 -1.196,-40.043 -28.805,-83.789 -90.692,-83.789 -24.754,0 -49.23,7.738 -68.843,19.449 l 0,57.664 c 15.984,-14.25 39.886,-25.336 59.863,-25.484 22.976,-0.102 38.094,13.054 37.551,34.894 z" /></clipPath><radialGradient
       id="radialGradient578"
       spreadMethod="pad"
       gradientTransform="matrix(0,-1193.75,-716.25,0,115,713.53)"
       gradientUnits="userSpaceOnUse"
       r="1"
       cy="0"
       cx="0"
       fy="0"
       fx="0"><stop
         id="stop580"
         offset="0"
         style="stop-opacity:1;stop-color:#ffdc00" /><stop
         id="stop582"
         offset="0.35"
         style="stop-opacity:1;stop-color:#ffbe00" /><stop
         id="stop584"
         offset="1"
         style="stop-opacity:1;stop-color:#c86e14" /></radialGradient></defs><g
     transform="matrix(1.25,0,0,-1.25,0,108.4125)"
     id="g10"><g
       transform="scale(0.1,0.1)"
       id="g12"><path
         id="path14"
         style="fill:#330000;fill-opacity:1;fill-rule:nonzero;stroke:none"
         d="M 365,0 C 339.547,11.0938 156.469,91.6445 98.6289,139.063 34.1055,191.953 0,267.859 0,358.586 l 0,426.812 c 104.516,55.098 223.926,81.887 365,81.887 141.074,0 260.484,-26.789 365,-81.887 l 0,-426.812 C 730,267.867 695.895,191.957 631.371,139.063 573.531,91.6445 390.453,11.0938 365,0" /><g
         id="g16"><g
           clip-path="url(#clipPath20)"
           id="g18"><path
             id="path32"
             style="fill:url(#radialGradient24);fill-opacity:1;fill-rule:nonzero;stroke:none"
             d="M 365,5.44922 C 386.145,14.6484 570.266,95.4336 628.203,142.93 691.527,194.844 725,269.438 725,358.586 l 0,423.805 c -100.02,53.023 -221.133,79.894 -360,79.894 -138.867,0 -259.98,-26.871 -360,-79.894 L 5,358.586 C 5,269.438 38.4727,194.844 101.797,142.93 159.734,95.4336 343.855,14.6484 365,5.44922" /></g></g><path
         id="path34"
         style="fill:#c86e14;fill-opacity:1;fill-rule:nonzero;stroke:none"
         d="m 605.488,65.8945 c -16.644,0 -30.195,-13.6367 -30.195,-30.2851 0,-16.6563 13.551,-30.17971 30.195,-30.17971 16.746,0 30.266,13.52341 30.266,30.17971 0,16.6484 -13.52,30.2851 -30.266,30.2851 m 24.95,-30.2851 c 0,-13.6836 -11.141,-24.8477 -24.926,-24.8477 -13.719,0 -24.887,11.1641 -24.887,24.8477 0,13.7226 11.168,24.9531 24.887,24.9531 13.785,0 24.926,-11.2305 24.926,-24.9531 m -25.965,13.1211 c 5.632,0 6.371,-2.7696 6.371,-5.168 0,-3.457 -1.481,-5.7695 -8.586,-5.7695 l -0.817,0 0,10.9375 3.032,0 z m -9.672,5.3672 0,-36.7696 6.64,0 0,15.3438 0.942,0 c 0.492,-0.7422 9.984,-15.3438 9.984,-15.3438 l 8.039,0 c 0,0 -10.086,14.7461 -11.066,16.1914 4.859,1.1524 8.137,4.6797 8.137,9.7774 0,5.2187 -3.219,10.8008 -12.239,10.8008 l -10.437,0" /><g
         id="g36"><g
           clip-path="url(#clipPath40)"
           id="g38"><path
             id="path54"
             style="fill:url(#radialGradient44);fill-opacity:1;fill-rule:nonzero;stroke:none"
             d="m 504.426,505.395 c 0.086,-33.317 9.363,-58.243 61.019,-88.54 27.539,-16.179 38.649,-26.859 39.11,-46.523 0.543,-21.84 -14.578,-34.996 -37.551,-34.894 -19.977,0.148 -43.879,11.234 -59.871,25.484 l 0,-57.664 c 19.621,-11.711 44.097,-19.449 68.851,-19.449 61.887,0 89.489,43.746 90.692,83.789 1.195,36.539 -8.918,64.175 -61.242,94.937 -23.364,13.695 -41.813,22.699 -41.196,45.492 0.606,22.278 19.098,30.082 36.836,29.926 21.891,-0.203 43.059,-12.344 56.11,-25.742 l 0,54.469 c -11.012,8.461 -34.332,21.39 -68.731,20.336 -41.203,-1.196 -84.305,-31.004 -84.027,-81.621 M 352.613,339.633 c 4.489,-1.672 11.844,-3.778 20.332,-3.778 36.047,0 53.254,33.075 53.254,101.547 0,70.161 -15.047,99.184 -51.402,99.184 -8.488,0 -17.098,-2 -22.184,-4.512 l 0,-192.441 z m 0,-51.192 c 6.266,-1.843 15.336,-3.558 28.184,-3.558 69.531,0 109.422,62.613 109.422,154.109 0,91.313 -41.078,148.024 -115.84,148.024 -34.16,0 -61.715,-7.618 -84.422,-22.27 l 0,-408.191 62.656,0 0,131.886 z M 70.0469,383.805 c 0,-66.367 31.4301,-99.996 93.3981,-99.996 38.332,0 70.446,8.902 94.371,25.152 l 0,271.719 -62.523,0 0,-236.075 c -6.816,-4.679 -16.918,-7.652 -29.629,-7.652 -28.715,0 -33.012,26.293 -33.012,44.07 l 0,199.657 -62.6051,0 0,-196.875 M 38.082,600.996 C 192.711,742.82 379.758,780.32 554.23,780.32 c 47.047,0 93.231,-2.715 137.688,-6.847 l 0,-414.903 c 0,-79.703 -28.906,-144.101 -84.738,-190.093 C 557.328,127.43 406.957,60.0625 365,41.5859 322.484,60.3438 171.742,128.555 122.754,168.477 67.2813,213.676 38.082,279.613 38.082,358.57 l 0,242.426" /></g></g><g
         id="g56"><g
           clip-path="url(#clipPath60)"
           id="g58"><path
             id="path74"
             style="fill:url(#linearGradient64);fill-opacity:1;fill-rule:nonzero;stroke:none"
             d="m 38.082,358.57 c 0,-78.957 29.1993,-144.894 84.672,-190.093 C 171.742,128.555 322.484,60.3438 365,41.5859 l 0,4.918 C 329.711,62.1133 175.18,131.559 125.598,171.965 71.2891,216.215 42.582,280.746 42.582,358.57 l -4.5,0" /></g></g><g
         id="g76"><g
           clip-path="url(#clipPath80)"
           id="g78"><path
             id="path90"
             style="fill:url(#linearGradient84);fill-opacity:1;fill-rule:nonzero;stroke:none"
             d="m 365,41.5859 c 41.957,18.4766 192.328,85.8441 242.18,126.8911 55.832,45.992 84.738,110.39 84.738,190.093 l -4.5,0 c 0,-78.41 -27.961,-141.199 -83.102,-186.621 C 556.352,132.457 411.379,66.9648 365,46.5039 l 0,-4.918" /></g></g><g
         id="g92"><g
           clip-path="url(#clipPath96)"
           id="g94"><path
             id="path108"
             style="fill:url(#linearGradient100);fill-opacity:1;fill-rule:nonzero;stroke:none"
             d="m 687.418,769.371 c -47.844,4.34 -91.449,6.453 -133.188,6.453 -213.777,0 -381.164,-57.84 -511.648,-176.808 l -4.5,1.98 C 192.711,742.82 379.758,780.32 554.23,780.32 c 47.047,0 93.231,-2.715 137.688,-6.847 l -4.5,-4.102" /></g></g><g
         id="g110"><g
           clip-path="url(#clipPath114)"
           id="g112"><path
             id="path128"
             style="fill:url(#linearGradient118);fill-opacity:1;fill-rule:nonzero;stroke:none"
             d="m 372.945,335.855 c 36.047,0 53.254,33.075 53.254,101.547 l -4.5,0 c 0,-55.343 -10.902,-97.047 -48.754,-97.047 l 0,-4.5" /></g></g><g
         id="g130"><g
           clip-path="url(#clipPath134)"
           id="g132"><path
             id="path148"
             style="fill:url(#linearGradient138);fill-opacity:1;fill-rule:nonzero;stroke:none"
             d="m 372.945,340.355 c -6.172,0 -11.683,1.204 -15.832,2.493 l -4.5,-3.215 c 4.489,-1.672 11.844,-3.778 20.332,-3.778 l 0,4.5" /></g></g><g
         id="g150"><g
           clip-path="url(#clipPath154)"
           id="g152"><path
             id="path168"
             style="fill:url(#linearGradient158);fill-opacity:1;fill-rule:nonzero;stroke:none"
             d="m 357.113,529.102 c 4.367,1.613 10.871,2.984 17.684,2.984 l 0,4.5 c -8.488,0 -17.098,-2 -22.184,-4.512 l 4.5,-2.972" /></g></g><g
         id="g170"><g
           clip-path="url(#clipPath174)"
           id="g172"><path
             id="path188"
             style="fill:url(#linearGradient178);fill-opacity:1;fill-rule:nonzero;stroke:none"
             d="m 421.699,437.402 c 0,60.172 -9.969,94.684 -46.902,94.684 l 0,4.5 c 36.355,0 51.402,-29.023 51.402,-99.184 l -4.5,0" /></g></g><g
         id="g190"><g
           clip-path="url(#clipPath194)"
           id="g192"><path
             id="path208"
             style="fill:url(#linearGradient198);fill-opacity:1;fill-rule:nonzero;stroke:none"
             d="m 499.922,505.375 c -0.274,51.488 42.855,84.816 88.398,86.145 l 0.133,-4.504 C 547.25,585.82 504.148,556.012 504.426,505.395 l -4.504,-0.02" /></g></g><g
         id="g210"><g
           clip-path="url(#clipPath214)"
           id="g212"><path
             id="path228"
             style="fill:url(#linearGradient218);fill-opacity:1;fill-rule:nonzero;stroke:none"
             d="m 601.074,537.953 c -17.738,0.156 -36.23,-7.648 -36.836,-29.926 l 4.496,-0.121 c 0.168,6.02 2.946,25.551 31.727,25.551 l 0.613,4.496" /></g></g><g
         id="g230"><g
           clip-path="url(#clipPath234)"
           id="g232"><path
             id="path246"
             style="fill:url(#linearGradient238);fill-opacity:1;fill-rule:nonzero;stroke:none"
             d="m 657.184,512.211 c -13.051,13.398 -34.219,25.539 -56.11,25.742 l -0.613,-4.496 c 25.891,0 48.016,-16.84 61.219,-32.32 l -4.496,11.074" /></g></g><g
         id="g248"><g
           clip-path="url(#clipPath252)"
           id="g250"><path
             id="path266"
             style="fill:url(#linearGradient256);fill-opacity:1;fill-rule:nonzero;stroke:none"
             d="m 661.68,568.895 -4.496,-2.215 c -11.012,8.461 -34.332,21.39 -68.731,20.336 l -0.133,4.504 c 38.145,1.156 63.575,-14.7 73.36,-22.625" /></g></g><g
         id="g268"><g
           clip-path="url(#clipPath272)"
           id="g270"><path
             id="path286"
             style="fill:url(#linearGradient276);fill-opacity:1;fill-rule:nonzero;stroke:none"
             d="m 666.676,367.598 c -1.203,-40.043 -28.805,-83.789 -90.692,-83.789 l 0,-4.504 c 56.77,0 93.68,37.808 95.188,88.144 l -4.496,0.149" /></g></g><g
         id="g288"><g
           clip-path="url(#clipPath292)"
           id="g290"><path
             id="path304"
             style="fill:url(#linearGradient296);fill-opacity:1;fill-rule:nonzero;stroke:none"
             d="m 507.133,303.258 c 19.621,-11.711 44.097,-19.449 68.851,-19.449 l 0,-4.504 c -26.89,0 -50.933,8.019 -73.347,21.398 l 4.496,2.555" /></g></g><g
         id="g306"><g
           clip-path="url(#clipPath310)"
           id="g308"><path
             id="path322"
             style="fill:url(#linearGradient314);fill-opacity:1;fill-rule:nonzero;stroke:none"
             d="m 567.004,335.438 c -19.977,0.148 -43.879,11.234 -59.871,25.484 l -4.496,10.035 c 16.34,-16.508 42.113,-30.855 64.398,-31.016 l -0.031,-4.503" /></g></g><g
         id="g324"><g
           clip-path="url(#clipPath328)"
           id="g326"><path
             id="path342"
             style="fill:url(#linearGradient332);fill-opacity:1;fill-rule:nonzero;stroke:none"
             d="m 604.555,370.332 c 0.543,-21.84 -14.578,-34.996 -37.551,-34.894 l 0.031,4.503 c 19.551,-0.14 33.516,10.297 33.024,30.282 l 4.496,0.109" /></g></g><g
         id="g344"><g
           clip-path="url(#clipPath348)"
           id="g346"><path
             id="path362"
             style="fill:url(#linearGradient352);fill-opacity:1;fill-rule:nonzero;stroke:none"
             d="m 600.059,370.223 c -0.391,16.578 -8.668,26.168 -36.895,42.754 -52.766,30.949 -63.144,57.316 -63.242,92.398 l 4.504,0.02 c 0.086,-33.317 9.363,-58.243 61.019,-88.54 27.539,-16.179 38.649,-26.859 39.11,-46.523 l -4.496,-0.109" /></g></g><g
         id="g364"><g
           clip-path="url(#clipPath368)"
           id="g366"><path
             id="path384"
             style="fill:url(#linearGradient372);fill-opacity:1;fill-rule:nonzero;stroke:none"
             d="m 607.711,466.418 c 54.496,-32.039 64.687,-61.617 63.461,-98.969 l -4.496,0.149 c 1.195,36.539 -8.918,64.175 -61.242,94.937 -23.364,13.695 -41.813,22.699 -41.196,45.492 l 4.496,-0.121 c -0.554,-20.75 16.864,-28.066 38.977,-41.488" /></g></g><path
         id="path386"
         style="fill:#8f4a02;fill-opacity:1;fill-rule:nonzero;stroke:none"
         d="m 352.613,156.555 -62.656,0 -4.504,-4.5 71.66,0 -4.5,4.5" /><g
         id="g388"><g
           clip-path="url(#clipPath392)"
           id="g390"><path
             id="path406"
             style="fill:url(#linearGradient396);fill-opacity:1;fill-rule:nonzero;stroke:none"
             d="m 380.797,280.383 c -8.664,0 -16.602,0.765 -23.684,2.285 l -4.5,5.773 c 6.266,-1.843 15.336,-3.558 28.184,-3.558 l 0,-4.5" /></g></g><g
         id="g408"><g
           clip-path="url(#clipPath412)"
           id="g410"><path
             id="path426"
             style="fill:url(#linearGradient416);fill-opacity:1;fill-rule:nonzero;stroke:none"
             d="m 494.719,438.992 c 0,-81.512 -33.203,-158.609 -113.922,-158.609 l 0,4.5 c 69.531,0 109.422,62.613 109.422,154.109 l 4.5,0" /></g></g><g
         id="g428"><g
           clip-path="url(#clipPath432)"
           id="g430"><path
             id="path446"
             style="fill:url(#linearGradient436);fill-opacity:1;fill-rule:nonzero;stroke:none"
             d="m 285.453,567.195 c 24.024,16.379 54.211,24.325 88.926,24.325 l 0,-4.504 c -34.16,0 -61.715,-7.618 -84.422,-22.27 l -4.504,2.449" /></g></g><g
         id="g448"><g
           clip-path="url(#clipPath452)"
           id="g450"><path
             id="path466"
             style="fill:url(#linearGradient456);fill-opacity:1;fill-rule:nonzero;stroke:none"
             d="m 374.379,591.52 c 86.551,0 120.34,-71.754 120.34,-152.528 l -4.5,0 c 0,91.313 -41.078,148.024 -115.84,148.024 l 0,4.504" /></g></g><path
         id="path468"
         style="fill:#fdb913;fill-opacity:1;fill-rule:nonzero;stroke:none"
         d="m 257.816,580.68 -62.523,0 -4.504,4.5 71.524,0 -4.497,-4.5 z m -125.164,0 -62.6051,0 -4.5,4.5 71.6051,0 -4.5,-4.5" /><path
         id="path470"
         style="fill:#cc7b16;fill-opacity:1;fill-rule:nonzero;stroke:none"
         d="m 38.082,358.57 0,242.426 4.5,-1.98 0,-240.446 -4.5,0" /><path
         id="path472"
         style="fill:#a25c0a;fill-opacity:1;fill-rule:nonzero;stroke:none"
         d="m 661.68,501.137 0,67.758 -4.496,-2.215 0,-54.469 4.496,-11.074" /><path
         id="path474"
         style="fill:#cc7b16;fill-opacity:1;fill-rule:nonzero;stroke:none"
         d="m 137.152,381.023 0,204.157 -4.5,-4.5 0,-199.657 4.5,0" /><path
         id="path476"
         style="fill:#d99814;fill-opacity:1;fill-rule:nonzero;stroke:none"
         d="m 687.418,358.57 0,410.801 4.5,4.102 0,-414.903 -4.5,0" /><path
         id="path478"
         style="fill:#b76e11;fill-opacity:1;fill-rule:nonzero;stroke:none"
         d="m 502.637,370.957 0,-70.254 4.496,2.555 0,57.664 -4.496,10.035" /><path
         id="path480"
         style="fill:#d89016;fill-opacity:1;fill-rule:nonzero;stroke:none"
         d="m 195.293,344.605 0,236.075 -4.504,4.5 0,-238.09 4.504,-2.485" /><path
         id="path482"
         style="fill:#d89016;fill-opacity:1;fill-rule:nonzero;stroke:none"
         d="m 70.0469,383.805 0,196.875 -4.5,4.5 0,-201.375 4.5,0" /><g
         id="g484"><g
           clip-path="url(#clipPath488)"
           id="g486"><path
             id="path502"
             style="fill:url(#linearGradient492);fill-opacity:1;fill-rule:nonzero;stroke:none"
             d="m 163.445,279.305 c -66.8083,0 -97.8981,38.207 -97.8981,104.5 l 4.5,0 c 0,-66.367 31.4301,-99.996 93.3981,-99.996 l 0,-4.504" /></g></g><g
         id="g504"><g
           clip-path="url(#clipPath508)"
           id="g506"><path
             id="path522"
             style="fill:url(#linearGradient512);fill-opacity:1;fill-rule:nonzero;stroke:none"
             d="M 262.313,306.578 C 235.77,288.547 203.434,279.305 163.445,279.305 l 0,4.504 c 38.332,0 70.446,8.902 94.371,25.152 l 4.497,-2.383" /></g></g><g
         id="g524"><g
           clip-path="url(#clipPath528)"
           id="g526"><path
             id="path542"
             style="fill:url(#linearGradient532);fill-opacity:1;fill-rule:nonzero;stroke:none"
             d="m 165.664,341.453 c 9.957,0 18.766,1.988 25.125,5.637 l 4.504,-2.485 c -6.816,-4.679 -16.918,-7.652 -29.629,-7.652 l 0,4.5" /></g></g><g
         id="g544"><g
           clip-path="url(#clipPath548)"
           id="g546"><path
             id="path562"
             style="fill:url(#linearGradient552);fill-opacity:1;fill-rule:nonzero;stroke:none"
             d="m 165.664,336.953 c -28.715,0 -33.012,26.293 -33.012,44.07 l 4.5,0 c 0,-21.785 6.426,-39.57 28.512,-39.57 l 0,-4.5" /></g></g><path
         id="path564"
         style="fill:#cc7b16;fill-opacity:1;fill-rule:nonzero;stroke:none"
         d="m 285.453,567.195 0,-415.14 4.504,4.5 0,408.191 -4.504,2.449" /><path
         id="path566"
         style="fill:#b76e11;fill-opacity:1;fill-rule:nonzero;stroke:none"
         d="m 357.113,282.668 0,-130.613 -4.5,4.5 0,131.886 4.5,-5.773 z m 0,60.18 0,186.254 -4.5,2.972 0,-192.441 4.5,3.215" /><path
         id="path568"
         style="fill:#c27514;fill-opacity:1;fill-rule:nonzero;stroke:none"
         d="m 262.313,306.578 0,278.602 -4.497,-4.5 0,-271.719 4.497,-2.383" /><g
         id="g570"><g
           clip-path="url(#clipPath574)"
           id="g572"><path
             id="path586"
             style="fill:url(#radialGradient578);fill-opacity:1;fill-rule:nonzero;stroke:none"
             d="m 352.617,339.633 c 4.485,-1.672 11.84,-3.774 20.328,-3.774 36.047,0 53.254,33.075 53.254,101.543 0,70.164 -15.047,99.184 -51.402,99.184 -8.488,0 -17.098,-2 -22.18,-4.512 l 0,-192.441 z m 0,-51.192 0,-131.886 -62.66,0 0,408.191 c 22.707,14.656 50.262,22.274 84.422,22.274 74.762,0 115.84,-56.715 115.84,-148.028 0,-91.496 -39.891,-154.109 -109.422,-154.109 -12.848,0 -21.918,1.719 -28.18,3.558 z m -94.801,292.239 -62.523,0 0,-236.075 c -6.816,-4.679 -16.918,-7.652 -29.629,-7.652 -28.715,0 -33.008,26.301 -33.008,44.07 l 0,199.657 -62.6091,0 0,-196.875 c 0,-66.367 31.4301,-99.996 93.3981,-99.996 38.332,0 70.446,8.906 94.371,25.156 l 0,271.715 z M 604.555,370.332 c -0.461,19.668 -11.571,30.344 -39.11,46.523 -51.656,30.297 -60.933,55.223 -61.019,88.54 -0.278,50.617 42.824,80.425 84.027,81.625 34.399,1.05 57.719,-11.879 68.731,-20.34 l 0,-54.469 c -13.051,13.402 -34.219,25.539 -56.11,25.742 -17.738,0.156 -36.23,-7.648 -36.836,-29.926 -0.617,-22.793 17.832,-31.797 41.2,-45.492 52.32,-30.758 62.433,-58.398 61.238,-94.937 -1.196,-40.043 -28.805,-83.789 -90.692,-83.789 -24.754,0 -49.23,7.738 -68.843,19.449 l 0,57.664 c 15.984,-14.25 39.886,-25.336 59.863,-25.484 22.976,-0.102 38.094,13.054 37.551,34.894" /></g></g></g></g></svg>