<svg xmlns="http://www.w3.org/2000/svg" viewBox="0 0 91.25 108.4125" height="108.412" width="91.25"><defs><clipPath id="a"><path d="M365 5.45c21.145 9.198 205.266 89.984 263.203 137.48C691.527 194.844 725 269.438 725 358.586v423.805c-100.02 53.023-221.133 79.894-360 79.894S105.02 835.414 5 782.391V358.586c0-89.148 33.473-163.742 96.797-215.656C159.734 95.434 343.855 14.648 365 5.45z"/></clipPath><radialGradient id="b" spreadMethod="pad" gradientTransform="matrix(0 -1196.08 -598.04 0 115 714.291)" gradientUnits="userSpaceOnUse" r="1" cy="0" cx="0" fy="0" fx="0"><stop offset="0" stop-color="#ffdc00"/><stop offset=".35" stop-color="#ffbe00"/><stop offset="1" stop-color="#c86e14"/></radialGradient><clipPath id="c"><path d="M504.426 505.395c.086-33.317 9.363-58.243 61.019-88.54 27.539-16.179 38.649-26.859 39.11-46.523.543-21.84-14.578-34.996-37.551-34.894-19.977.148-43.879 11.234-59.871 25.484v-57.664c19.621-11.711 44.097-19.449 68.851-19.449 61.887 0 89.489 43.746 90.692 83.789 1.195 36.539-8.918 64.175-61.242 94.937-23.364 13.695-41.813 22.699-41.196 45.492.606 22.278 19.098 30.082 36.836 29.926 21.891-.203 43.059-12.344 56.11-25.742v54.469c-11.012 8.461-34.332 21.39-68.731 20.336-41.203-1.196-84.305-31.004-84.027-81.621M352.613 339.633c4.489-1.672 11.844-3.778 20.332-3.778 36.047 0 53.254 33.075 53.254 101.547 0 70.161-15.047 99.184-51.402 99.184-8.488 0-17.098-2-22.184-4.512V339.633zm0-51.192c6.266-1.843 15.336-3.558 28.184-3.558 69.531 0 109.422 62.613 109.422 154.109 0 91.313-41.078 148.024-115.84 148.024-34.16 0-61.715-7.618-84.422-22.27V156.555h62.656v131.886zM70.047 383.805c0-66.367 31.43-99.996 93.398-99.996 38.332 0 70.446 8.902 94.371 25.152V580.68h-62.523V344.605c-6.816-4.679-16.918-7.652-29.629-7.652-28.715 0-33.012 26.293-33.012 44.07V580.68H70.047V383.805M38.082 600.996C192.711 742.82 379.758 780.32 554.23 780.32c47.047 0 93.231-2.715 137.688-6.847V358.57c0-79.703-28.906-144.101-84.738-190.093C557.328 127.43 406.957 60.062 365 41.586c-42.516 18.758-193.258 86.969-242.246 126.891-55.473 45.199-84.672 111.136-84.672 190.093v242.426z"/></clipPath><radialGradient id="d" spreadMethod="pad" gradientTransform="scale(593.417 1186.83) rotate(-90 .398 .203)" gradientUnits="userSpaceOnUse" r="1" cy="0" cx="0" fy="0" fx="0"><stop offset="0" stop-color="#5c3333"/><stop offset=".35" stop-color="#471a1a"/><stop offset=".85" stop-color="#300"/><stop offset="1" stop-color="#300"/></radialGradient><clipPath id="e"><path d="M38.082 358.57c0-78.957 29.2-144.894 84.672-190.093C171.742 128.555 322.484 60.344 365 41.586v4.918c-35.289 15.61-189.82 85.055-239.402 125.461-54.309 44.25-83.016 108.781-83.016 186.605h-4.5z"/></clipPath><linearGradient id="f" gradientTransform="scale(-455.362 455.362) rotate(44 -.414 -.906)" gradientUnits="userSpaceOnUse" x2="1"><stop offset="0" stop-color="#b76e11"/><stop offset=".005" stop-color="#b76e11"/><stop offset=".205" stop-color="#cc7b16"/><stop offset="1" stop-color="#cc7b16"/></linearGradient><clipPath id="g"><path d="M365 41.586c41.957 18.477 192.328 85.844 242.18 126.891 55.832 45.992 84.738 110.39 84.738 190.093h-4.5c0-78.41-27.961-141.199-83.102-186.621C556.352 132.457 411.379 66.965 365 46.504v-4.918z"/></clipPath><linearGradient id="h" gradientTransform="scale(455.362 -455.362) rotate(-44 .388 -1.078)" gradientUnits="userSpaceOnUse" x2="1"><stop offset="0" stop-color="#ffc20e"/><stop offset="1" stop-color="#d99814"/></linearGradient><clipPath id="i"><path d="M687.418 769.371c-47.844 4.34-91.449 6.453-133.188 6.453-213.777 0-381.164-57.84-511.648-176.808l-4.5 1.98C192.711 742.82 379.758 780.32 554.23 780.32c47.047 0 93.231-2.715 137.688-6.847l-4.5-4.102z"/></clipPath><linearGradient id="j" gradientTransform="scale(674.19 -674.19) rotate(-19.2 -2.603 -.613)" gradientUnits="userSpaceOnUse" x2="1"><stop offset="0" stop-color="#e49f15"/><stop offset=".975" stop-color="#8f4a02"/><stop offset="1" stop-color="#8f4a02"/></linearGradient><clipPath id="k"><path d="M372.945 335.855c36.047 0 53.254 33.075 53.254 101.547h-4.5c0-55.343-10.902-97.047-48.754-97.047v-4.5z"/></clipPath><linearGradient id="l" gradientTransform="scale(114.6466 -114.6466) rotate(-63.3 -.67 -4.153)" gradientUnits="userSpaceOnUse" x2="1"><stop offset="0" stop-color="#ffcb05"/><stop offset=".05" stop-color="#ffcb05"/><stop offset=".95" stop-color="#b76e11"/><stop offset="1" stop-color="#b76e11"/></linearGradient><clipPath id="m"><path d="M372.945 340.355c-6.172 0-11.683 1.204-15.832 2.493l-4.5-3.215c4.489-1.672 11.844-3.778 20.332-3.778v4.5z"/></clipPath><linearGradient id="n" gradientTransform="scale(-20.63864 20.63864) rotate(7 -142.98 -139.642)" gradientUnits="userSpaceOnUse" x2="1"><stop offset="0" stop-color="#ffcb05"/><stop offset=".05" stop-color="#ffcb05"/><stop offset=".95" stop-color="#f0af13"/><stop offset="1" stop-color="#f0af13"/></linearGradient><clipPath id="o"><path d="M357.113 529.102c4.367 1.613 10.871 2.984 17.684 2.984v4.5c-8.488 0-17.098-2-22.184-4.512l4.5-2.972z"/></clipPath><linearGradient id="p" gradientTransform="scale(22.6007 -22.6007) rotate(-14.7 -83.031 -72.303)" gradientUnits="userSpaceOnUse" x2="1"><stop offset="0" stop-color="#a25c0a"/><stop offset=".05" stop-color="#a25c0a"/><stop offset=".95" stop-color="#8f4a02"/><stop offset="1" stop-color="#8f4a02"/></linearGradient><clipPath id="q"><path d="M421.699 437.402c0 60.172-9.969 94.684-46.902 94.684v4.5c36.355 0 51.402-29.023 51.402-99.184h-4.5z"/></clipPath><linearGradient id="r" gradientTransform="scale(-111.7088 111.7088) rotate(63.1 -5.168 -1.193)" gradientUnits="userSpaceOnUse" x2="1"><stop offset="0" stop-color="#b76e11"/><stop offset=".05" stop-color="#b76e11"/><stop offset=".95" stop-color="#8f4a02"/><stop offset="1" stop-color="#8f4a02"/></linearGradient><clipPath id="s"><path d="M499.922 505.375c-.274 51.488 42.855 84.816 88.398 86.145l.133-4.504c-41.203-1.196-84.305-31.004-84.027-81.621l-4.504-.02z"/></clipPath><linearGradient id="t" gradientTransform="scale(-123.3404 123.3404) rotate(-42.1 3.927 8.563)" gradientUnits="userSpaceOnUse" x2="1"><stop offset="0" stop-color="#ffcb05"/><stop offset=".05" stop-color="#ffcb05"/><stop offset=".95" stop-color="#d78817"/><stop offset="1" stop-color="#d78817"/></linearGradient><clipPath id="u"><path d="M601.074 537.953c-17.738.156-36.23-7.648-36.836-29.926l4.496-.121c.168 6.02 2.946 25.551 31.727 25.551l.613 4.496z"/></clipPath><linearGradient id="v" gradientTransform="scale(47.4344 -47.4344) rotate(-41 -8.451 -21.234)" gradientUnits="userSpaceOnUse" x2="1"><stop offset="0" stop-color="#ad680e"/><stop offset=".05" stop-color="#ad680e"/><stop offset=".95" stop-color="#8f4a02"/><stop offset="1" stop-color="#8f4a02"/></linearGradient><clipPath id="w"><path d="M657.184 512.211c-13.051 13.398-34.219 25.539-56.11 25.742l-.613-4.496c25.891 0 48.016-16.84 61.219-32.32l-4.496 11.074z"/></clipPath><linearGradient id="x" gradientTransform="scale(-70.756 70.756) rotate(27.5 -19.323 -15.61)" gradientUnits="userSpaceOnUse" x2="1"><stop offset="0" stop-color="#d89016"/><stop offset=".95" stop-color="#8f4a02"/><stop offset="1" stop-color="#8f4a02"/></linearGradient><clipPath id="y"><path d="M661.68 568.895l-4.496-2.215c-11.012 8.461-34.332 21.39-68.731 20.336l-.133 4.504c38.145 1.156 63.575-14.7 73.36-22.625z"/></clipPath><linearGradient id="z" gradientTransform="scale(76.7616 -76.7616) rotate(17.9 28.358 20.49)" gradientUnits="userSpaceOnUse" x2="1"><stop offset="0" stop-color="#ffcb05"/><stop offset=".05" stop-color="#ffcb05"/><stop offset=".95" stop-color="#ed9d19"/><stop offset="1" stop-color="#ed9d19"/></linearGradient><clipPath id="A"><path d="M666.676 367.598c-1.203-40.043-28.805-83.789-90.692-83.789v-4.504c56.77 0 93.68 37.808 95.188 88.144l-4.496.149z"/></clipPath><linearGradient id="B" gradientTransform="scale(-129.678 129.678) rotate(-44.4 .792 7.795)" gradientUnits="userSpaceOnUse" x2="1"><stop offset="0" stop-color="#995606"/><stop offset=".05" stop-color="#995606"/><stop offset=".95" stop-color="#8f4a02"/><stop offset="1" stop-color="#8f4a02"/></linearGradient><clipPath id="C"><path d="M507.133 303.258c19.621-11.711 44.097-19.449 68.851-19.449v-4.504c-26.89 0-50.933 8.019-73.347 21.398l4.496 2.555z"/></clipPath><linearGradient id="D" gradientTransform="scale(76.4074 -76.4074) rotate(16.1 17.172 21.284)" gradientUnits="userSpaceOnUse" x2="1"><stop offset="0" stop-color="#a25c0a"/><stop offset=".95" stop-color="#8f4a02"/><stop offset="1" stop-color="#8f4a02"/></linearGradient><clipPath id="E"><path d="M567.004 335.438c-19.977.148-43.879 11.234-59.871 25.484l-4.496 10.035c16.34-16.508 42.113-30.855 64.398-31.016l-.031-4.503z"/></clipPath><linearGradient id="F" gradientTransform="scale(-73.4184 73.4184) rotate(25.9 -13.75 -14.498)" gradientUnits="userSpaceOnUse" x2="1"><stop offset="0" stop-color="#ffc20e"/><stop offset=".05" stop-color="#ffc20e"/><stop offset="1" stop-color="#f0af13"/></linearGradient><clipPath id="G"><path d="M604.555 370.332c.543-21.84-14.578-34.996-37.551-34.894l.031 4.503c19.551-.14 33.516 10.297 33.024 30.282l4.496.109z"/></clipPath><linearGradient id="H" gradientTransform="scale(51.2616 -51.2616) rotate(-42.6 -2.754 -17.499)" gradientUnits="userSpaceOnUse" x2="1"><stop offset="0" stop-color="#ffcb05"/><stop offset=".05" stop-color="#ffcb05"/><stop offset=".95" stop-color="#d99814"/><stop offset="1" stop-color="#d99814"/></linearGradient><clipPath id="I"><path d="M600.059 370.223c-.391 16.578-8.668 26.168-36.895 42.754-52.766 30.949-63.144 57.316-63.242 92.398l4.504.02c.086-33.317 9.363-58.243 61.019-88.54 27.539-16.179 38.649-26.859 39.11-46.523l-4.496-.109z"/></clipPath><linearGradient id="J" gradientTransform="scale(170.6037 -170.6037) rotate(55.2 4.292 1.318)" gradientUnits="userSpaceOnUse" x2="1"><stop offset="0" stop-color="#d78817"/><stop offset=".4" stop-color="#a25c0a"/><stop offset=".6" stop-color="#a25c0a"/><stop offset="1" stop-color="#d99814"/></linearGradient><clipPath id="K"><path d="M607.711 466.418c54.496-32.039 64.687-61.617 63.461-98.969l-4.496.149c1.195 36.539-8.918 64.175-61.242 94.937-23.364 13.695-41.813 22.699-41.196 45.492l4.496-.121c-.554-20.75 16.864-28.066 38.977-41.488"/></clipPath><linearGradient id="L" gradientTransform="scale(176.596 -176.596) rotate(53.8 4.484 1.737)" gradientUnits="userSpaceOnUse" x2="1"><stop offset="0" stop-color="#ad680e"/><stop offset=".4" stop-color="#f1b80e"/><stop offset=".6" stop-color="#f1b80e"/><stop offset=".95" stop-color="#995606"/><stop offset="1" stop-color="#995606"/></linearGradient><clipPath id="M"><path d="M380.797 280.383c-8.664 0-16.602.765-23.684 2.285l-4.5 5.773c6.266-1.843 15.336-3.558 28.184-3.558v-4.5z"/></clipPath><linearGradient id="N" gradientTransform="scale(29.08376 -29.08376) rotate(8.8 70.019 73.787)" gradientUnits="userSpaceOnUse" x2="1"><stop offset="0" stop-color="#985006"/><stop offset=".05" stop-color="#985006"/><stop offset=".95" stop-color="#8f4a02"/><stop offset="1" stop-color="#8f4a02"/></linearGradient><clipPath id="O"><path d="M494.719 438.992c0-81.512-33.203-158.609-113.922-158.609v4.5c69.531 0 109.422 62.613 109.422 154.109h4.5z"/></clipPath><linearGradient id="P" gradientTransform="scale(-195.286 195.286) rotate(-54.4 .824 3.638)" gradientUnits="userSpaceOnUse" x2="1"><stop offset="0" stop-color="#a25c0a"/><stop offset=".05" stop-color="#a25c0a"/><stop offset=".95" stop-color="#8f4a02"/><stop offset="1" stop-color="#8f4a02"/></linearGradient><clipPath id="Q"><path d="M285.453 567.195c24.024 16.379 54.211 24.325 88.926 24.325v-4.504c-34.16 0-61.715-7.618-84.422-22.27l-4.504 2.449z"/></clipPath><linearGradient id="R" gradientTransform="scale(-92.181 92.181) rotate(-14.5 23.223 19.167)" gradientUnits="userSpaceOnUse" x2="1"><stop offset="0" stop-color="#fd0"/><stop offset=".05" stop-color="#fd0"/><stop offset=".95" stop-color="#eea616"/><stop offset="1" stop-color="#eea616"/></linearGradient><clipPath id="S"><path d="M374.379 591.52c86.551 0 120.34-71.754 120.34-152.528h-4.5c0 91.313-41.078 148.024-115.84 148.024v4.504z"/></clipPath><linearGradient id="T" gradientTransform="scale(194.28 -194.28) rotate(51.9 4.202 .511)" gradientUnits="userSpaceOnUse" x2="1"><stop offset="0" stop-color="#fd0"/><stop offset=".053" stop-color="#fd0"/><stop offset=".95" stop-color="#a25c0a"/><stop offset="1" stop-color="#a25c0a"/></linearGradient><clipPath id="U"><path d="M163.445 279.305c-66.808 0-97.898 38.207-97.898 104.5h4.5c0-66.367 31.43-99.996 93.398-99.996v-4.504z"/></clipPath><linearGradient id="V" gradientTransform="scale(143.19 -143.19) rotate(47.1 3.178 -.87)" gradientUnits="userSpaceOnUse" x2="1"><stop offset="0" stop-color="#d89016"/><stop offset=".05" stop-color="#d89016"/><stop offset=".95" stop-color="#8f4a02"/><stop offset="1" stop-color="#8f4a02"/></linearGradient><clipPath id="W"><path d="M262.313 306.578c-26.543-18.031-58.879-27.273-98.868-27.273v4.504c38.332 0 70.446 8.902 94.371 25.152l4.497-2.383z"/></clipPath><linearGradient id="X" gradientTransform="scale(-102.5472 102.5472) rotate(-14.5 10.371 11.561)" gradientUnits="userSpaceOnUse" x2="1"><stop offset="0" stop-color="#a25c0a"/><stop offset=".05" stop-color="#a25c0a"/><stop offset=".95" stop-color="#8f4a02"/><stop offset="1" stop-color="#8f4a02"/></linearGradient><clipPath id="Y"><path d="M165.664 341.453c9.957 0 18.766 1.988 25.125 5.637l4.504-2.485c-6.816-4.679-16.918-7.652-29.629-7.652v4.5z"/></clipPath><linearGradient id="Z" gradientTransform="scale(30.59855 -30.59855) rotate(-13.8 -42.948 -27.857)" gradientUnits="userSpaceOnUse" x2="1"><stop offset="0" stop-color="#ffd400"/><stop offset=".05" stop-color="#ffd400"/><stop offset=".95" stop-color="#ffc20e"/><stop offset="1" stop-color="#ffc20e"/></linearGradient><clipPath id="aa"><path d="M165.664 336.953c-28.715 0-33.012 26.293-33.012 44.07h4.5c0-21.785 6.426-39.57 28.512-39.57v-4.5z"/></clipPath><linearGradient id="ab" gradientTransform="scale(-55.059 55.059) rotate(53.8 -7.444 .141)" gradientUnits="userSpaceOnUse" x2="1"><stop offset="0" stop-color="#ffd400"/><stop offset=".05" stop-color="#ffd400"/><stop offset=".95" stop-color="#cc7b16"/><stop offset="1" stop-color="#cc7b16"/></linearGradient><clipPath id="ac"><path d="M352.617 339.633c4.485-1.672 11.84-3.774 20.328-3.774 36.047 0 53.254 33.075 53.254 101.543 0 70.164-15.047 99.184-51.402 99.184-8.488 0-17.098-2-22.18-4.512V339.633zm0-51.192V156.555h-62.66v408.191c22.707 14.656 50.262 22.274 84.422 22.274 74.762 0 115.84-56.715 115.84-148.028 0-91.496-39.891-154.109-109.422-154.109-12.848 0-21.918 1.719-28.18 3.558zM257.816 580.68h-62.523V344.605c-6.816-4.679-16.918-7.652-29.629-7.652-28.715 0-33.008 26.301-33.008 44.07V580.68h-62.61V383.805c0-66.367 31.431-99.996 93.399-99.996 38.332 0 70.446 8.906 94.371 25.156V580.68zm346.739-210.348c-.461 19.668-11.571 30.344-39.11 46.523-51.656 30.297-60.933 55.223-61.019 88.54-.278 50.617 42.824 80.425 84.027 81.625 34.399 1.05 57.719-11.879 68.731-20.34v-54.469c-13.051 13.402-34.219 25.539-56.11 25.742-17.738.156-36.23-7.648-36.836-29.926-.617-22.793 17.832-31.797 41.2-45.492 52.32-30.758 62.433-58.398 61.238-94.937-1.196-40.043-28.805-83.789-90.692-83.789-24.754 0-49.23 7.738-68.843 19.449v57.664c15.984-14.25 39.886-25.336 59.863-25.484 22.976-.102 38.094 13.054 37.551 34.894z"/></clipPath><radialGradient id="ad" spreadMethod="pad" gradientTransform="matrix(0 -1193.75 -716.25 0 115 713.53)" gradientUnits="userSpaceOnUse" r="1" cy="0" cx="0" fy="0" fx="0"><stop offset="0" stop-color="#ffdc00"/><stop offset=".35" stop-color="#ffbe00"/><stop offset="1" stop-color="#c86e14"/></radialGradient></defs><path d="M45.625 108.412c-3.182-1.386-26.066-11.455-33.296-17.382C4.263 84.418 0 74.93 0 63.59V10.237C13.065 3.35 27.99.002 45.625.002c17.634 0 32.56 3.348 45.625 10.236v53.351c0 11.34-4.263 20.829-12.329 27.44-7.23 5.928-30.114 15.997-33.296 17.384" fill="#300"/><g clip-path="url(#a)" transform="matrix(.13 0 0 -.13 0 108.412)"><path d="M365 5.45c21.145 9.198 205.266 89.984 263.203 137.48C691.527 194.844 725 269.438 725 358.586v423.805c-100.02 53.023-221.133 79.894-360 79.894S105.02 835.414 5 782.391V358.586c0-89.148 33.473-163.742 96.797-215.656C159.734 95.434 343.855 14.648 365 5.45" fill="url(#b)"/></g><path d="M75.686 100.176c-2.08 0-3.774 1.704-3.774 3.785a3.777 3.777 0 0 0 3.774 3.773 3.776 3.776 0 0 0 3.783-3.773 3.788 3.788 0 0 0-3.783-3.785m3.119 3.785a3.114 3.114 0 0 1-6.227 0 3.122 3.122 0 0 1 3.111-3.119 3.12 3.12 0 0 1 3.116 3.12m-3.246-1.64c.704 0 .796.345.796.645 0 .432-.185.721-1.073.721h-.102v-1.367h.38zm-1.209-.672v4.596h.83v-1.917h.118l1.248 1.917h1.005l-1.384-2.023c.608-.144 1.018-.585 1.018-1.223 0-.652-.403-1.35-1.53-1.35H74.35" fill="#c86e14"/><g clip-path="url(#c)" transform="matrix(.13 0 0 -.13 0 108.412)"><path d="M504.426 505.395c.086-33.317 9.363-58.243 61.019-88.54 27.539-16.179 38.649-26.859 39.11-46.523.543-21.84-14.578-34.996-37.551-34.894-19.977.148-43.879 11.234-59.871 25.484v-57.664c19.621-11.711 44.097-19.449 68.851-19.449 61.887 0 89.489 43.746 90.692 83.789 1.195 36.539-8.918 64.175-61.242 94.937-23.364 13.695-41.813 22.699-41.196 45.492.606 22.278 19.098 30.082 36.836 29.926 21.891-.203 43.059-12.344 56.11-25.742v54.469c-11.012 8.461-34.332 21.39-68.731 20.336-41.203-1.196-84.305-31.004-84.027-81.621M352.613 339.633c4.489-1.672 11.844-3.778 20.332-3.778 36.047 0 53.254 33.075 53.254 101.547 0 70.161-15.047 99.184-51.402 99.184-8.488 0-17.098-2-22.184-4.512V339.633zm0-51.192c6.266-1.843 15.336-3.558 28.184-3.558 69.531 0 109.422 62.613 109.422 154.109 0 91.313-41.078 148.024-115.84 148.024-34.16 0-61.715-7.618-84.422-22.27V156.555h62.656v131.886zM70.047 383.805c0-66.367 31.43-99.996 93.398-99.996 38.332 0 70.446 8.902 94.371 25.152V580.68h-62.523V344.605c-6.816-4.679-16.918-7.652-29.629-7.652-28.715 0-33.012 26.293-33.012 44.07V580.68H70.047V383.805M38.082 600.996C192.711 742.82 379.758 780.32 554.23 780.32c47.047 0 93.231-2.715 137.688-6.847V358.57c0-79.703-28.906-144.101-84.738-190.093C557.328 127.43 406.957 60.062 365 41.586c-42.516 18.758-193.258 86.969-242.246 126.891-55.473 45.199-84.672 111.136-84.672 190.093v242.426" fill="url(#d)"/></g><g clip-path="url(#e)" transform="matrix(.13 0 0 -.13 0 108.412)"><path d="M38.082 358.57c0-78.957 29.2-144.894 84.672-190.093C171.742 128.555 322.484 60.344 365 41.586v4.918c-35.289 15.61-189.82 85.055-239.402 125.461-54.309 44.25-83.016 108.781-83.016 186.605h-4.5" fill="url(#f)"/></g><g clip-path="url(#g)" transform="matrix(.13 0 0 -.13 0 108.412)"><path d="M365 41.586c41.957 18.477 192.328 85.844 242.18 126.891 55.832 45.992 84.738 110.39 84.738 190.093h-4.5c0-78.41-27.961-141.199-83.102-186.621C556.352 132.457 411.379 66.965 365 46.504v-4.918" fill="url(#h)"/></g><g clip-path="url(#i)" transform="matrix(.13 0 0 -.13 0 108.412)"><path d="M687.418 769.371c-47.844 4.34-91.449 6.453-133.188 6.453-213.777 0-381.164-57.84-511.648-176.808l-4.5 1.98C192.711 742.82 379.758 780.32 554.23 780.32c47.047 0 93.231-2.715 137.688-6.847l-4.5-4.102" fill="url(#j)"/></g><g clip-path="url(#k)" transform="matrix(.13 0 0 -.13 0 108.412)"><path d="M372.945 335.855c36.047 0 53.254 33.075 53.254 101.547h-4.5c0-55.343-10.902-97.047-48.754-97.047v-4.5" fill="url(#l)"/></g><g clip-path="url(#m)" transform="matrix(.13 0 0 -.13 0 108.412)"><path d="M372.945 340.355c-6.172 0-11.683 1.204-15.832 2.493l-4.5-3.215c4.489-1.672 11.844-3.778 20.332-3.778v4.5" fill="url(#n)"/></g><g clip-path="url(#o)" transform="matrix(.13 0 0 -.13 0 108.412)"><path d="M357.113 529.102c4.367 1.613 10.871 2.984 17.684 2.984v4.5c-8.488 0-17.098-2-22.184-4.512l4.5-2.972" fill="url(#p)"/></g><g clip-path="url(#q)" transform="matrix(.13 0 0 -.13 0 108.412)"><path d="M421.699 437.402c0 60.172-9.969 94.684-46.902 94.684v4.5c36.355 0 51.402-29.023 51.402-99.184h-4.5" fill="url(#r)"/></g><g clip-path="url(#s)" transform="matrix(.13 0 0 -.13 0 108.412)"><path d="M499.922 505.375c-.274 51.488 42.855 84.816 88.398 86.145l.133-4.504c-41.203-1.196-84.305-31.004-84.027-81.621l-4.504-.02" fill="url(#t)"/></g><g clip-path="url(#u)" transform="matrix(.13 0 0 -.13 0 108.412)"><path d="M601.074 537.953c-17.738.156-36.23-7.648-36.836-29.926l4.496-.121c.168 6.02 2.946 25.551 31.727 25.551l.613 4.496" fill="url(#v)"/></g><g clip-path="url(#w)" transform="matrix(.13 0 0 -.13 0 108.412)"><path d="M657.184 512.211c-13.051 13.398-34.219 25.539-56.11 25.742l-.613-4.496c25.891 0 48.016-16.84 61.219-32.32l-4.496 11.074" fill="url(#x)"/></g><g clip-path="url(#y)" transform="matrix(.13 0 0 -.13 0 108.412)"><path d="M661.68 568.895l-4.496-2.215c-11.012 8.461-34.332 21.39-68.731 20.336l-.133 4.504c38.145 1.156 63.575-14.7 73.36-22.625" fill="url(#z)"/></g><g clip-path="url(#A)" transform="matrix(.13 0 0 -.13 0 108.412)"><path d="M666.676 367.598c-1.203-40.043-28.805-83.789-90.692-83.789v-4.504c56.77 0 93.68 37.808 95.188 88.144l-4.496.149" fill="url(#B)"/></g><g clip-path="url(#C)" transform="matrix(.13 0 0 -.13 0 108.412)"><path d="M507.133 303.258c19.621-11.711 44.097-19.449 68.851-19.449v-4.504c-26.89 0-50.933 8.019-73.347 21.398l4.496 2.555" fill="url(#D)"/></g><g clip-path="url(#E)" transform="matrix(.13 0 0 -.13 0 108.412)"><path d="M567.004 335.438c-19.977.148-43.879 11.234-59.871 25.484l-4.496 10.035c16.34-16.508 42.113-30.855 64.398-31.016l-.031-4.503" fill="url(#F)"/></g><g clip-path="url(#G)" transform="matrix(.13 0 0 -.13 0 108.412)"><path d="M604.555 370.332c.543-21.84-14.578-34.996-37.551-34.894l.031 4.503c19.551-.14 33.516 10.297 33.024 30.282l4.496.109" fill="url(#H)"/></g><g clip-path="url(#I)" transform="matrix(.13 0 0 -.13 0 108.412)"><path d="M600.059 370.223c-.391 16.578-8.668 26.168-36.895 42.754-52.766 30.949-63.144 57.316-63.242 92.398l4.504.02c.086-33.317 9.363-58.243 61.019-88.54 27.539-16.179 38.649-26.859 39.11-46.523l-4.496-.109" fill="url(#J)"/></g><g clip-path="url(#K)" transform="matrix(.13 0 0 -.13 0 108.412)"><path d="M607.711 466.418c54.496-32.039 64.687-61.617 63.461-98.969l-4.496.149c1.195 36.539-8.918 64.175-61.242 94.937-23.364 13.695-41.813 22.699-41.196 45.492l4.496-.121c-.554-20.75 16.864-28.066 38.977-41.488" fill="url(#L)"/></g><path d="M44.077 88.843h-7.832l-.563.563h8.957l-.562-.563" fill="#8f4a02"/><g clip-path="url(#M)" transform="matrix(.13 0 0 -.13 0 108.412)"><path d="M380.797 280.383c-8.664 0-16.602.765-23.684 2.285l-4.5 5.773c6.266-1.843 15.336-3.558 28.184-3.558v-4.5" fill="url(#N)"/></g><g clip-path="url(#O)" transform="matrix(.13 0 0 -.13 0 108.412)"><path d="M494.719 438.992c0-81.512-33.203-158.609-113.922-158.609v4.5c69.531 0 109.422 62.613 109.422 154.109h4.5" fill="url(#P)"/></g><g clip-path="url(#Q)" transform="matrix(.13 0 0 -.13 0 108.412)"><path d="M285.453 567.195c24.024 16.379 54.211 24.325 88.926 24.325v-4.504c-34.16 0-61.715-7.618-84.422-22.27l-4.504 2.449" fill="url(#R)"/></g><g clip-path="url(#S)" transform="matrix(.13 0 0 -.13 0 108.412)"><path d="M374.379 591.52c86.551 0 120.34-71.754 120.34-152.528h-4.5c0 91.313-41.078 148.024-115.84 148.024v4.504" fill="url(#T)"/></g><path d="M32.227 35.828h-7.815l-.563-.563h8.94l-.562.563zm-15.646 0H8.756l-.563-.563h8.951l-.563.563" fill="#fdb913"/><path d="M4.76 63.591V33.288l.563.247v30.056H4.76" fill="#cc7b16"/><path d="M82.71 45.77V37.3l-.562.277v6.81l.562 1.383" fill="#a25c0a"/><path d="M17.144 60.785v-25.52l-.563.562v24.958h.563" fill="#cc7b16"/><path d="M85.927 63.591v-51.35l.563-.513v51.863h-.563" fill="#d99814"/><path d="M62.83 62.043v8.782l.562-.32v-7.208l-.562-1.254" fill="#b76e11"/><path d="M24.412 65.337v-29.51l-.563-.562v29.761l.563.31M8.756 60.437v-24.61l-.563-.562v25.172h.563" fill="#d89016"/><g clip-path="url(#U)" transform="matrix(.13 0 0 -.13 0 108.412)"><path d="M163.445 279.305c-66.808 0-97.898 38.207-97.898 104.5h4.5c0-66.367 31.43-99.996 93.398-99.996v-4.504" fill="url(#V)"/></g><g clip-path="url(#W)" transform="matrix(.13 0 0 -.13 0 108.412)"><path d="M262.313 306.578c-26.543-18.031-58.879-27.273-98.868-27.273v4.504c38.332 0 70.446 8.902 94.371 25.152l4.497-2.383" fill="url(#X)"/></g><g clip-path="url(#Y)" transform="matrix(.13 0 0 -.13 0 108.412)"><path d="M165.664 341.453c9.957 0 18.766 1.988 25.125 5.637l4.504-2.485c-6.816-4.679-16.918-7.652-29.629-7.652v4.5" fill="url(#Z)"/></g><g clip-path="url(#aa)" transform="matrix(.13 0 0 -.13 0 108.412)"><path d="M165.664 336.953c-28.715 0-33.012 26.293-33.012 44.07h4.5c0-21.785 6.426-39.57 28.512-39.57v-4.5" fill="url(#ab)"/></g><path d="M35.682 37.513v51.893l.563-.563V37.82l-.563-.306" fill="#cc7b16"/><path d="M44.64 73.079v16.327l-.563-.563V72.357l.562.722zm0-7.522V42.275l-.563-.372v24.055l.562-.401" fill="#b76e11"/><path d="M32.79 70.09V35.265l-.563.563v33.964l.562.298" fill="#c27514"/><g clip-path="url(#ac)" transform="matrix(.13 0 0 -.13 0 108.412)"><path d="M352.617 339.633c4.485-1.672 11.84-3.774 20.328-3.774 36.047 0 53.254 33.075 53.254 101.543 0 70.164-15.047 99.184-51.402 99.184-8.488 0-17.098-2-22.18-4.512V339.633zm0-51.192V156.555h-62.66v408.191c22.707 14.656 50.262 22.274 84.422 22.274 74.762 0 115.84-56.715 115.84-148.028 0-91.496-39.891-154.109-109.422-154.109-12.848 0-21.918 1.719-28.18 3.558zM257.816 580.68h-62.523V344.605c-6.816-4.679-16.918-7.652-29.629-7.652-28.715 0-33.008 26.301-33.008 44.07V580.68h-62.61V383.805c0-66.367 31.431-99.996 93.399-99.996 38.332 0 70.446 8.906 94.371 25.156V580.68zm346.739-210.348c-.461 19.668-11.571 30.344-39.11 46.523-51.656 30.297-60.933 55.223-61.019 88.54-.278 50.617 42.824 80.425 84.027 81.625 34.399 1.05 57.719-11.879 68.731-20.34v-54.469c-13.051 13.402-34.219 25.539-56.11 25.742-17.738.156-36.23-7.648-36.836-29.926-.617-22.793 17.832-31.797 41.2-45.492 52.32-30.758 62.433-58.398 61.238-94.937-1.196-40.043-28.805-83.789-90.692-83.789-24.754 0-49.23 7.738-68.843 19.449v57.664c15.984-14.25 39.886-25.336 59.863-25.484 22.976-.102 38.094 13.054 37.551 34.894" fill="url(#ad)"/></g></svg>