<?xml version="1.0" encoding="UTF-8" standalone="no"?>
<svg
   xmlns:dc="http://purl.org/dc/elements/1.1/"
   xmlns:cc="http://creativecommons.org/ns#"
   xmlns:rdf="http://www.w3.org/1999/02/22-rdf-syntax-ns#"
   xmlns:svg="http://www.w3.org/2000/svg"
   xmlns="http://www.w3.org/2000/svg"
   viewBox="0 0 507.79999 609.90002"
   height="609.90002"
   width="507.79999"
   xml:space="preserve"
   version="1.1"
   id="svg2"><metadata
     id="metadata8"><rdf:RDF><cc:Work
         rdf:about=""><dc:format>image/svg+xml</dc:format><dc:type
           rdf:resource="http://purl.org/dc/dcmitype/StillImage" /></cc:Work></rdf:RDF></metadata><defs
     id="defs6"><clipPath
       id="clipPath18"
       clipPathUnits="userSpaceOnUse"><path
         id="path20"
         d="m 2031.23,55.8984 c 0,0 -1984.2573,891.5706 -1984.2573,1991.3816 0,5.76 0.1718,11.49 0.2187,17.24 l -0.2226,0 0,2629.31 c 0,0 911.9022,130 1981.7912,130 1069.89,0 1986.71,-130 1986.71,-130 l 0,-2629.31 -0.21,0 c 0.05,-5.75 0.21,-11.48 0.21,-17.24 C 4015.47,947.469 2031.23,55.8984 2031.23,55.8984 M 2028.96,4627.1 c -981.6,0 -1818.245,-119.26 -1818.245,-119.26 l 0,-2412.35 0.207,0 c -0.047,-5.27 -0.203,-10.53 -0.203,-15.82 0,-1009.04 1820.511,-1827.041 1820.511,-1827.041 0,0 3.03,1.371 8.79,4.012 135.92,62.668 1811.71,854.899 1811.71,1823.029 0,5.29 -0.15,10.55 -0.19,15.82 l 0.19,0 0,2412.35 -0.01,0 c -0.47,0.06 -841.45,119.26 -1822.76,119.26 m 2.27,-4060.198 c 0,0 -3.79,1.7 -10.93,5 C 1880.57,636.66 441.738,1323.86 441.738,2162.09 c 0,4.61 0.133,9.2 0.176,13.8 l -0.18,0 0,2106.22 c 0,0 730.476,104.13 1587.516,104.13 857.03,0 1591.46,-104.13 1591.46,-104.13 l 0,-2106.22 -0.18,0 c 0.04,-4.6 0.18,-9.19 0.18,-13.8 0,-881.01 -1589.48,-1595.188 -1589.48,-1595.188" /></clipPath><linearGradient
       id="linearGradient22"
       spreadMethod="pad"
       gradientTransform="matrix(3968.51,0,0,-3968.51,46.9678,2439.87)"
       gradientUnits="userSpaceOnUse"
       y2="0"
       x2="1"
       y1="0"
       x1="0"><stop
         id="stop24"
         offset="0"
         style="stop-opacity:1;stop-color:#2d3691" /><stop
         id="stop26"
         offset="0.582822"
         style="stop-opacity:1;stop-color:#0c0f2a" /><stop
         id="stop28"
         offset="1"
         style="stop-opacity:1;stop-color:#0c0f2a" /></linearGradient><clipPath
       id="clipPath36"
       clipPathUnits="userSpaceOnUse"><path
         id="path38"
         d="m 2031.23,252.629 c 0,0 -1820.511,818.001 -1820.511,1827.041 0,5.29 0.156,10.55 0.203,15.82 l -0.207,0 0,2412.35 c 0,0 836.645,119.26 1818.245,119.26 981.31,0 1822.29,-119.2 1822.76,-119.26 l 0.01,0 0,-2412.35 -0.19,0 c 0.04,-5.27 0.19,-10.53 0.19,-15.82 0,-968.13 -1675.79,-1760.361 -1811.71,-1823.029 -5.76,-2.641 -8.79,-4.012 -8.79,-4.012 m -1.98,4133.611 c -857.04,0 -1587.516,-104.13 -1587.516,-104.13 l 0,-2106.22 0.18,0 c -0.043,-4.6 -0.176,-9.19 -0.176,-13.8 0,-838.23 1438.832,-1525.43 1578.562,-1590.188 7.14,-3.3 10.93,-5 10.93,-5 0,0 1589.48,714.178 1589.48,1595.188 0,4.61 -0.14,9.2 -0.18,13.8 l 0.18,0 0,2106.22 c 0,0 -734.43,104.13 -1591.46,104.13" /></clipPath><linearGradient
       id="linearGradient40"
       spreadMethod="pad"
       gradientTransform="matrix(3968.51,0,0,-3968.51,46.9678,2439.87)"
       gradientUnits="userSpaceOnUse"
       y2="0"
       x2="1"
       y1="0"
       x1="0"><stop
         id="stop42"
         offset="0"
         style="stop-opacity:1;stop-color:#212666" /><stop
         id="stop44"
         offset="0.582822"
         style="stop-opacity:1;stop-color:#090b1e" /><stop
         id="stop46"
         offset="1"
         style="stop-opacity:1;stop-color:#090b1e" /></linearGradient><clipPath
       id="clipPath54"
       clipPathUnits="userSpaceOnUse"><path
         id="path56"
         d="m 2728.28,3105.54 c -37.25,-8.04 -103.25,-8.49 -149.39,-8.8 -27.31,-0.19 -51.52,-0.36 -69.08,-1.71 101.52,197.08 208.72,398.35 317.98,563.49 29.42,-6.96 48.91,-13.46 52.05,-14.53 1.15,-0.44 3.63,-1.41 7.28,-2.76 -139.46,-181.61 -157.68,-432.82 -158.84,-535.69 z m 1.07,-659.01 c -23.07,-141.38 -104.56,-182.78 -108.02,-184.47 l -36.36,-26.66 c 43.76,50.53 61.25,110.23 52.83,180.33 -10.78,89.93 -98.43,165.89 -191.39,165.9 -29.26,0.01 -57.14,-7.38 -82.87,-21.96 -43,-24.34 -65.35,-66.86 -67.75,-71.63 l -32.82,-64.99 69.08,23.01 c 0.11,0.04 20.32,6.55 42.75,6.55 19.11,0 32.96,-4.55 41.14,-13.51 12.37,-13.54 12.94,-38.49 11.26,-57.03 -2.49,-27.35 -35.5,-102.7 -287.62,-211.42 -87.08,-37.56 -174.12,-67.67 -229.82,-85.75 6.43,18.91 11.83,39.23 12.89,56.33 1.28,20.51 0.57,40.57 -2.09,59.86 l 8.48,5.66 c 62.51,41.68 171.77,155.7 224.82,234.63 89.38,132.88 189.51,328.55 295.53,535.83 18.2,4.8 39.24,6.91 67.69,6.91 14.4,0 29.5,-0.51 45.49,-1.05 17.96,-0.6 36.53,-1.23 56.39,-1.23 37.03,0 78.01,2.07 115.71,14.34 8.5,-92.59 18.59,-403.16 -5.32,-549.65 z m -908.98,-86.08 c -72.4,34.71 -144.44,52.32 -214.12,52.32 -68.38,0 -135.13,-17.2 -198.04,-50.56 143.31,187.7 249.8,425.29 272.5,477.71 84.33,194.85 137.4,300.32 169.56,357.19 4.84,-68.09 19.5,-173.3 59.48,-317.21 69.49,-250.18 16.61,-455.66 -30.63,-571.35 -16.61,23.26 -36.9,41.43 -58.75,51.9 z m 311.58,784.16 c 46.16,-56.58 166.02,-105.27 179.55,-110.63 l 44.19,-17.55 c -17.47,-29.3 -34.88,-58.23 -52.18,-86.62 -49.1,-80.57 -93.82,-150.16 -126.74,-200.29 -2.71,99.94 -17.47,260.35 -75.23,427.44 -9.99,28.89 -17.71,58.59 -23.62,88.18 10.12,-33.61 27.24,-67.68 54.03,-100.53 z m 358.04,486.08 c 47.27,31.08 109.29,46.84 184.33,46.84 21.35,0 43.58,-1.29 66.45,-3.84 -55.99,-90.93 -124.95,-210.32 -197.4,-335.74 -57.18,-99.01 -115.79,-200.45 -173.86,-298.28 l -20.81,36.92 c -0.46,0.81 -48.13,87.2 -53.71,198.6 -7.33,146.01 58.28,265.62 195,355.5 z m 1058.36,300.11 c 34.09,21.59 193.75,133.13 130.23,293.09 -20.03,50.44 -80.62,78.46 -146.93,81.98 -5.43,0.29 -10.99,0.43 -16.52,0.43 -315.43,0 -667.22,-473.76 -685.01,-498.01 -11.04,-14.4 -23.77,-32.44 -38.65,-54.85 -29,3.18 -57.79,6.73 -87.5,10.79 -21.89,2.99 -57.18,6.55 -101,6.55 -129.38,0 -364.71,-32.65 -487.07,-251.32 -12.07,-21.58 -51.25,-98.9 -50.33,-191.54 -13.04,127.03 1.04,233.64 1.25,235.16 l 8.55,62.54 -53.89,-32.84 c -6.62,-4.04 -163.99,-103.73 -335.99,-533.7 -59,-147.49 -133.95,-268.62 -189.41,-347.68 1.51,40.51 -1.88,84.96 -10.22,132.52 -10.36,59 -27.86,245.01 -32.43,315.04 -7.21,110.66 39.07,190.53 57.75,217.89 32.44,1.15 109.65,4.73 148.51,13.37 74.49,16.55 128.43,50.84 160.3,101.91 45.9,73.55 27.24,154.13 26.42,157.52 l -12.01,49.85 c 0,0 -95.62,-105.61 -326.15,-138.16 -28.57,-4.03 -58,-8.96 -86.52,-13.82 C 864.762,3452.43 727.734,3354.17 645.863,3295.46 364.215,3093.43 369.781,2898.73 398.168,2800.65 c 46.52,-160.73 202.168,-264.29 325.77,-271.57 14.992,-0.87 29.769,-1.32 43.917,-1.32 117.719,0 205.676,30.29 261.415,90.04 65.21,69.89 60.18,153.83 59.93,157.37 l -3.47,50.07 -42.45,-26.77 c -0.48,-0.29 -58.585,-35.64 -145.76,-35.64 -7.68,0 -15.469,0.28 -23.157,0.81 -104.875,7.43 -177.347,43.69 -215.394,107.8 -49.028,82.6 -28.078,192.29 -11,229.65 112.953,247.01 391.901,298.86 606.011,298.86 48.66,0 92.32,-2.79 127.11,-6.13 -5.81,-5.31 -11.46,-11.12 -16.74,-17.47 -26.9,-32.28 -93.8,-122.27 -133.73,-260.23 -28.6,-98.75 -11.11,-239.08 7.41,-387.64 6.29,-50.51 12.8,-102.74 17.79,-155.1 18.56,-194.9 -85.29,-445.73 -93.49,-459.38 -99.27,-165.1 -146.33,-361.3 -139.56,-494.13 10.07,-197.79 67.04,-352.62 169.33,-460.18 95.12,-100.01 226.09,-152.87 378.76,-152.87 87.78,0 180.7,17.32 276.19,51.49 153.7,54.99 275.66,166.39 352.7,322.15 57.82,116.91 70.08,216.84 70.58,221.03 l 4.71,40.06 -39.73,-7.02 c -5.56,-0.97 -34.18,-8.04 -52.02,-50.81 -14.71,-35.34 -151.67,-345.12 -430.24,-345.12 -14.45,0 -29.28,0.83 -44.07,2.46 -185.57,20.5 -311.5,111.76 -374.31,271.26 -43.64,110.81 -53.93,252.43 -28.98,398.75 21.5,126.06 67.81,242.68 120.87,304.35 49.72,57.79 108.24,89.62 164.78,89.62 42.77,0 81.33,-18.04 103.15,-48.25 70.97,-98.3 13.38,-179.55 -5.54,-206.24 l -1.22,-1.71 c -36.67,-51.96 -154.66,-173.16 -154.66,-173.16 0.09,0.04 -4.98,-13.23 0.95,-11.38 31.43,9.79 139.83,50.43 186.87,70.8 96.2,41.66 225.06,69.77 349.68,96.96 141.96,30.98 288.75,63.01 395.85,116.33 13.15,6.54 25.32,13.39 36.95,20.41 131.06,10.93 425.95,148.41 471.69,327.82 43.11,169.14 1.26,469.09 -32.37,710.09 -7.25,51.92 -14.08,100.97 -19.42,144.28 -14.52,117.77 5.98,205.28 60.93,260.45 50.72,-12.55 96.26,-18.91 135.59,-18.91 139.32,0 166.99,81.2 171.08,129.6 l 3.67,95.95 c 0,0 -75.57,-81.74 -281.16,-78.59 -38.18,0.59 -80.46,1.69 -126.17,5.03 65.09,89.36 125.13,156.01 182.73,202.98 102.68,83.74 228.92,133.73 337.7,133.73 41.11,0 76.12,-7.54 96.05,-20.68 38.52,-25.42 39.02,-71.24 39.02,-73.18 l 0.07,-56.92 c 0,0 2.18,-1.81 5.57,0.35 z" /></clipPath><linearGradient
       id="linearGradient58"
       spreadMethod="pad"
       gradientTransform="matrix(-3308.08,-2.892e-4,-2.892e-4,3308.08,3693.36,2656.56)"
       gradientUnits="userSpaceOnUse"
       y2="0"
       x2="1"
       y1="0"
       x1="0"><stop
         id="stop60"
         offset="0"
         style="stop-opacity:1;stop-color:#2d3691" /><stop
         id="stop62"
         offset="0.582822"
         style="stop-opacity:1;stop-color:#0c0f2a" /><stop
         id="stop64"
         offset="1"
         style="stop-opacity:1;stop-color:#0c0f2a" /></linearGradient><clipPath
       id="clipPath72"
       clipPathUnits="userSpaceOnUse"><path
         id="path74"
         d="m 2890.2,3672.16 c 0,0 18.86,-7.48 47.93,-16.62 -2.75,-3.02 -5.61,-6.2 -8.55,-9.63 -149.1,-173.08 -172.88,-434.74 -171.3,-562.31 -52.53,-23.74 -205.87,-13.22 -254.15,-19.27 -20.36,-2.54 -36.41,-6.53 -49.33,-10.74 113.76,221.95 235,453.72 359.43,638.67 45.95,-9.57 75.97,-20.1 75.97,-20.1 z m 688.15,318.64 c 103.18,70.7 128.37,285.17 -48.3,285.11 -308.87,-0.11 -675.93,-485.63 -675.93,-485.63 -13.56,-17.64 -29.62,-40.95 -47.63,-68.61 -33.16,3.44 -68.45,7.62 -106.58,12.83 -58.63,8.01 -403.61,45.94 -557.83,-229.69 -37.36,-66.78 -88.58,-216.56 13.12,-341.23 42.56,-52.18 167.36,-101.72 167.36,-101.72 0,0 -203.44,360.92 150.94,593.89 96.99,63.77 227.98,56.76 317.04,41.04 -114.1,-180.06 -295.86,-510.84 -461.41,-782.59 -101.76,-166.98 -183.74,-285.46 -183.74,-285.46 0,0 19.67,252.63 -72.21,518.43 -67.16,194.28 -36.09,419.99 -36.09,419.99 0,0 -153.48,-93.58 -323.75,-519.22 -105,-262.5 -263.59,-448.73 -273.44,-458.59 -9.85,-9.85 49.22,62.34 16.41,249.39 -10.79,61.47 -28.33,249.43 -32.81,318.26 -9.85,150.94 72.18,249.37 72.18,249.37 0,0 110.86,2.76 157.5,13.13 206.72,45.94 164.06,223.13 164.06,223.13 0,0 -44.06,-67.86 -390.46,-124.68 -538.714,-88.38 -678.346,-185.86 -763.428,-246.87 -475.778,-341.26 -160.778,-698.92 62.347,-712.04 349.811,-20.57 333.581,214.05 333.581,214.05 0,0 -74.979,-47.28 -187.03,-39.37 -324.844,22.97 -286.004,304.52 -251.562,379.84 194.699,425.79 849.852,298.6 849.852,298.6 0,0 -50.33,-15.62 -83.14,-55 -32.81,-39.38 -91.87,-124.68 -127.96,-249.37 -36.11,-124.69 6.56,-324.84 26.24,-531.57 19.69,-206.74 -68.91,-377.34 -68.91,-377.34 0,0 53.46,51.31 91.88,91.87 177.19,187.04 317.31,498.22 344.53,561.09 190.31,439.69 226.41,436.41 226.41,436.41 0,0 -15.97,-130.2 59.06,-400.32 65.63,-236.24 29.53,-459.34 -45.94,-623.43 -3.66,-7.95 -7.95,-15.64 -12.56,-23.02 -16.88,48.28 -47.09,79.63 -72.74,91.91 -479.06,229.71 -770.61,-399.28 -754.68,-711.99 26.24,-515.16 383.53,-678.201 784.21,-534.85 357.66,127.97 403.59,518.44 403.59,518.44 0,0 -17.13,-3.03 -29.55,-32.81 -22.11,-53.13 -178.9,-397.01 -505.29,-360.94 -593.91,65.61 -476.21,821.12 -301.87,1023.75 121.4,141.1 262.22,112.44 314.99,39.36 85.31,-118.15 11.23,-217.6 -6.56,-242.81 -39.38,-55.79 -118.13,-121.41 -118.13,-121.41 0,0 57.72,27.75 114.85,52.5 318.28,137.83 938.44,121.41 899.04,449.53 -11.34,94.53 -131.23,177.19 -229.68,121.41 -36.34,-20.57 -55.77,-59.05 -55.77,-59.05 0,0 147.66,49.2 134.52,-95.17 -15.83,-173.97 -599.36,-342.03 -599.36,-342.03 0,0 32.53,66.34 34.99,105.78 1.66,26.6 -0.43,50.64 -5.09,72.07 7.8,5.21 16.05,10.72 24.78,16.54 59.06,39.38 165.93,151.08 216.56,226.41 89.99,133.79 191.15,332.22 299.5,544.06 54.72,18.94 115.56,9.66 190.5,9.66 53.87,0 102.82,4.97 141.07,28.67 0.65,-8.71 1.4,-16.02 2.21,-21.32 9.83,-65.62 22.96,-416.72 -3.28,-577.5 -26.23,-160.78 -124.7,-206.7 -124.7,-206.7 0,0 269.07,101.68 311.73,269.05 50.91,199.74 -22.97,603.75 -52.5,843.28 -22.26,180.6 39.41,260.44 82.35,297.26 105.98,-28.36 273.98,-51.82 285.14,80.08 3.77,44.46 3.77,44.46 3.77,44.46 0,0 -30.33,-88.19 -432.4,-50.08 72.17,104.28 145.31,191.93 218.63,251.71 188.89,154.04 396.97,162.5 469.23,114.84 53.44,-35.27 52.5,-98.43 52.5,-98.43 0,0 -0.63,-0.66 5.64,3.64 z" /></clipPath><linearGradient
       id="linearGradient76"
       spreadMethod="pad"
       gradientTransform="matrix(3244.24,0,0,-3244.24,415.088,2656.37)"
       gradientUnits="userSpaceOnUse"
       y2="0"
       x2="1"
       y1="0"
       x1="0"><stop
         id="stop78"
         offset="0"
         style="stop-opacity:1;stop-color:#d18a0b" /><stop
         id="stop80"
         offset="0.202454"
         style="stop-opacity:1;stop-color:#fddd10" /><stop
         id="stop82"
         offset="0.435583"
         style="stop-opacity:1;stop-color:#ffffff" /><stop
         id="stop84"
         offset="0.748466"
         style="stop-opacity:1;stop-color:#fddd10" /><stop
         id="stop86"
         offset="0.97546"
         style="stop-opacity:1;stop-color:#ffffff" /><stop
         id="stop88"
         offset="1"
         style="stop-opacity:1;stop-color:#ffffff" /></linearGradient><clipPath
       id="clipPath110"
       clipPathUnits="userSpaceOnUse"><path
         id="path112"
         d="m 3763.68,2152.15 -0.2,0 c 0.05,-5.02 0.2,-10.02 0.2,-15.05 0,-960.24 -1732.45,-1738.67 -1732.45,-1738.67 0,0 -1732.457,778.43 -1732.457,1738.67 0,5.03 0.149,10.03 0.192,15.05 l -0.195,0 0,2295.65 c 0,0 796.18,113.5 1730.3,113.5 934.12,0 1734.61,-113.5 1734.61,-113.5 l 0,-2295.65 z m 251.79,2541.68 c 0,0 -916.82,130 -1986.71,130 -1069.889,0 -1981.7912,-130 -1981.7912,-130 l 0,-2629.31 0.2226,0 c -0.0469,-5.75 -0.2187,-11.48 -0.2187,-17.24 C 46.9727,947.469 2031.23,55.8984 2031.23,55.8984 c 0,0 1984.24,891.5706 1984.24,1991.3816 0,5.76 -0.16,11.49 -0.21,17.24 l 0.21,0 0,2629.31 z" /></clipPath><linearGradient
       id="linearGradient114"
       spreadMethod="pad"
       gradientTransform="matrix(3968.51,0,0,-3968.51,46.9678,2439.87)"
       gradientUnits="userSpaceOnUse"
       y2="0"
       x2="1"
       y1="0"
       x1="0"><stop
         id="stop116"
         offset="0"
         style="stop-opacity:1;stop-color:#d18a0b" /><stop
         id="stop118"
         offset="0.202454"
         style="stop-opacity:1;stop-color:#fddd10" /><stop
         id="stop120"
         offset="0.435583"
         style="stop-opacity:1;stop-color:#ffffff" /><stop
         id="stop122"
         offset="0.748466"
         style="stop-opacity:1;stop-color:#fddd10" /><stop
         id="stop124"
         offset="0.97546"
         style="stop-opacity:1;stop-color:#ffffff" /><stop
         id="stop126"
         offset="1"
         style="stop-opacity:1;stop-color:#ffffff" /></linearGradient></defs><g
     transform="matrix(1.25,0,0,-1.25,0,609.9)"
     id="g10"><g
       transform="scale(0.1,0.1)"
       id="g12"><g
         id="g14"><g
           clip-path="url(#clipPath18)"
           id="g16"><path
             id="path30"
             style="fill:url(#linearGradient22);fill-opacity:1;fill-rule:nonzero;stroke:none"
             d="m 2031.23,55.8984 c 0,0 -1984.2573,891.5706 -1984.2573,1991.3816 0,5.76 0.1718,11.49 0.2187,17.24 l -0.2226,0 0,2629.31 c 0,0 911.9022,130 1981.7912,130 1069.89,0 1986.71,-130 1986.71,-130 l 0,-2629.31 -0.21,0 c 0.05,-5.75 0.21,-11.48 0.21,-17.24 C 4015.47,947.469 2031.23,55.8984 2031.23,55.8984 M 2028.96,4627.1 c -981.6,0 -1818.245,-119.26 -1818.245,-119.26 l 0,-2412.35 0.207,0 c -0.047,-5.27 -0.203,-10.53 -0.203,-15.82 0,-1009.04 1820.511,-1827.041 1820.511,-1827.041 0,0 3.03,1.371 8.79,4.012 135.92,62.668 1811.71,854.899 1811.71,1823.029 0,5.29 -0.15,10.55 -0.19,15.82 l 0.19,0 0,2412.35 -0.01,0 c -0.47,0.06 -841.45,119.26 -1822.76,119.26 m 2.27,-4060.198 c 0,0 -3.79,1.7 -10.93,5 C 1880.57,636.66 441.738,1323.86 441.738,2162.09 c 0,4.61 0.133,9.2 0.176,13.8 l -0.18,0 0,2106.22 c 0,0 730.476,104.13 1587.516,104.13 857.03,0 1591.46,-104.13 1591.46,-104.13 l 0,-2106.22 -0.18,0 c 0.04,-4.6 0.18,-9.19 0.18,-13.8 0,-881.01 -1589.48,-1595.188 -1589.48,-1595.188" /></g></g><g
         id="g32"><g
           clip-path="url(#clipPath36)"
           id="g34"><path
             id="path48"
             style="fill:url(#linearGradient40);fill-opacity:1;fill-rule:nonzero;stroke:none"
             d="m 2031.23,252.629 c 0,0 -1820.511,818.001 -1820.511,1827.041 0,5.29 0.156,10.55 0.203,15.82 l -0.207,0 0,2412.35 c 0,0 836.645,119.26 1818.245,119.26 981.31,0 1822.29,-119.2 1822.76,-119.26 l 0.01,0 0,-2412.35 -0.19,0 c 0.04,-5.27 0.19,-10.53 0.19,-15.82 0,-968.13 -1675.79,-1760.361 -1811.71,-1823.029 -5.76,-2.641 -8.79,-4.012 -8.79,-4.012 m -1.98,4133.611 c -857.04,0 -1587.516,-104.13 -1587.516,-104.13 l 0,-2106.22 0.18,0 c -0.043,-4.6 -0.176,-9.19 -0.176,-13.8 0,-838.23 1438.832,-1525.43 1578.562,-1590.188 7.14,-3.3 10.93,-5 10.93,-5 0,0 1589.48,714.178 1589.48,1595.188 0,4.61 -0.14,9.2 -0.18,13.8 l 0.18,0 0,2106.22 c 0,0 -734.43,104.13 -1591.46,104.13" /></g></g><g
         id="g50"><g
           clip-path="url(#clipPath54)"
           id="g52"><path
             id="path66"
             style="fill:url(#linearGradient58);fill-opacity:1;fill-rule:nonzero;stroke:none"
             d="m 2728.28,3105.54 c -37.25,-8.04 -103.25,-8.49 -149.39,-8.8 -27.31,-0.19 -51.52,-0.36 -69.08,-1.71 101.52,197.08 208.72,398.35 317.98,563.49 29.42,-6.96 48.91,-13.46 52.05,-14.53 1.15,-0.44 3.63,-1.41 7.28,-2.76 -139.46,-181.61 -157.68,-432.82 -158.84,-535.69 z m 1.07,-659.01 c -23.07,-141.38 -104.56,-182.78 -108.02,-184.47 l -36.36,-26.66 c 43.76,50.53 61.25,110.23 52.83,180.33 -10.78,89.93 -98.43,165.89 -191.39,165.9 -29.26,0.01 -57.14,-7.38 -82.87,-21.96 -43,-24.34 -65.35,-66.86 -67.75,-71.63 l -32.82,-64.99 69.08,23.01 c 0.11,0.04 20.32,6.55 42.75,6.55 19.11,0 32.96,-4.55 41.14,-13.51 12.37,-13.54 12.94,-38.49 11.26,-57.03 -2.49,-27.35 -35.5,-102.7 -287.62,-211.42 -87.08,-37.56 -174.12,-67.67 -229.82,-85.75 6.43,18.91 11.83,39.23 12.89,56.33 1.28,20.51 0.57,40.57 -2.09,59.86 l 8.48,5.66 c 62.51,41.68 171.77,155.7 224.82,234.63 89.38,132.88 189.51,328.55 295.53,535.83 18.2,4.8 39.24,6.91 67.69,6.91 14.4,0 29.5,-0.51 45.49,-1.05 17.96,-0.6 36.53,-1.23 56.39,-1.23 37.03,0 78.01,2.07 115.71,14.34 8.5,-92.59 18.59,-403.16 -5.32,-549.65 z m -908.98,-86.08 c -72.4,34.71 -144.44,52.32 -214.12,52.32 -68.38,0 -135.13,-17.2 -198.04,-50.56 143.31,187.7 249.8,425.29 272.5,477.71 84.33,194.85 137.4,300.32 169.56,357.19 4.84,-68.09 19.5,-173.3 59.48,-317.21 69.49,-250.18 16.61,-455.66 -30.63,-571.35 -16.61,23.26 -36.9,41.43 -58.75,51.9 z m 311.58,784.16 c 46.16,-56.58 166.02,-105.27 179.55,-110.63 l 44.19,-17.55 c -17.47,-29.3 -34.88,-58.23 -52.18,-86.62 -49.1,-80.57 -93.82,-150.16 -126.74,-200.29 -2.71,99.94 -17.47,260.35 -75.23,427.44 -9.99,28.89 -17.71,58.59 -23.62,88.18 10.12,-33.61 27.24,-67.68 54.03,-100.53 z m 358.04,486.08 c 47.27,31.08 109.29,46.84 184.33,46.84 21.35,0 43.58,-1.29 66.45,-3.84 -55.99,-90.93 -124.95,-210.32 -197.4,-335.74 -57.18,-99.01 -115.79,-200.45 -173.86,-298.28 l -20.81,36.92 c -0.46,0.81 -48.13,87.2 -53.71,198.6 -7.33,146.01 58.28,265.62 195,355.5 z m 1058.36,300.11 c 34.09,21.59 193.75,133.13 130.23,293.09 -20.03,50.44 -80.62,78.46 -146.93,81.98 -5.43,0.29 -10.99,0.43 -16.52,0.43 -315.43,0 -667.22,-473.76 -685.01,-498.01 -11.04,-14.4 -23.77,-32.44 -38.65,-54.85 -29,3.18 -57.79,6.73 -87.5,10.79 -21.89,2.99 -57.18,6.55 -101,6.55 -129.38,0 -364.71,-32.65 -487.07,-251.32 -12.07,-21.58 -51.25,-98.9 -50.33,-191.54 -13.04,127.03 1.04,233.64 1.25,235.16 l 8.55,62.54 -53.89,-32.84 c -6.62,-4.04 -163.99,-103.73 -335.99,-533.7 -59,-147.49 -133.95,-268.62 -189.41,-347.68 1.51,40.51 -1.88,84.96 -10.22,132.52 -10.36,59 -27.86,245.01 -32.43,315.04 -7.21,110.66 39.07,190.53 57.75,217.89 32.44,1.15 109.65,4.73 148.51,13.37 74.49,16.55 128.43,50.84 160.3,101.91 45.9,73.55 27.24,154.13 26.42,157.52 l -12.01,49.85 c 0,0 -95.62,-105.61 -326.15,-138.16 -28.57,-4.03 -58,-8.96 -86.52,-13.82 C 864.762,3452.43 727.734,3354.17 645.863,3295.46 364.215,3093.43 369.781,2898.73 398.168,2800.65 c 46.52,-160.73 202.168,-264.29 325.77,-271.57 14.992,-0.87 29.769,-1.32 43.917,-1.32 117.719,0 205.676,30.29 261.415,90.04 65.21,69.89 60.18,153.83 59.93,157.37 l -3.47,50.07 -42.45,-26.77 c -0.48,-0.29 -58.585,-35.64 -145.76,-35.64 -7.68,0 -15.469,0.28 -23.157,0.81 -104.875,7.43 -177.347,43.69 -215.394,107.8 -49.028,82.6 -28.078,192.29 -11,229.65 112.953,247.01 391.901,298.86 606.011,298.86 48.66,0 92.32,-2.79 127.11,-6.13 -5.81,-5.31 -11.46,-11.12 -16.74,-17.47 -26.9,-32.28 -93.8,-122.27 -133.73,-260.23 -28.6,-98.75 -11.11,-239.08 7.41,-387.64 6.29,-50.51 12.8,-102.74 17.79,-155.1 18.56,-194.9 -85.29,-445.73 -93.49,-459.38 -99.27,-165.1 -146.33,-361.3 -139.56,-494.13 10.07,-197.79 67.04,-352.62 169.33,-460.18 95.12,-100.01 226.09,-152.87 378.76,-152.87 87.78,0 180.7,17.32 276.19,51.49 153.7,54.99 275.66,166.39 352.7,322.15 57.82,116.91 70.08,216.84 70.58,221.03 l 4.71,40.06 -39.73,-7.02 c -5.56,-0.97 -34.18,-8.04 -52.02,-50.81 -14.71,-35.34 -151.67,-345.12 -430.24,-345.12 -14.45,0 -29.28,0.83 -44.07,2.46 -185.57,20.5 -311.5,111.76 -374.31,271.26 -43.64,110.81 -53.93,252.43 -28.98,398.75 21.5,126.06 67.81,242.68 120.87,304.35 49.72,57.79 108.24,89.62 164.78,89.62 42.77,0 81.33,-18.04 103.15,-48.25 70.97,-98.3 13.38,-179.55 -5.54,-206.24 l -1.22,-1.71 c -36.67,-51.96 -154.66,-173.16 -154.66,-173.16 0.09,0.04 -4.98,-13.23 0.95,-11.38 31.43,9.79 139.83,50.43 186.87,70.8 96.2,41.66 225.06,69.77 349.68,96.96 141.96,30.98 288.75,63.01 395.85,116.33 13.15,6.54 25.32,13.39 36.95,20.41 131.06,10.93 425.95,148.41 471.69,327.82 43.11,169.14 1.26,469.09 -32.37,710.09 -7.25,51.92 -14.08,100.97 -19.42,144.28 -14.52,117.77 5.98,205.28 60.93,260.45 50.72,-12.55 96.26,-18.91 135.59,-18.91 139.32,0 166.99,81.2 171.08,129.6 l 3.67,95.95 c 0,0 -75.57,-81.74 -281.16,-78.59 -38.18,0.59 -80.46,1.69 -126.17,5.03 65.09,89.36 125.13,156.01 182.73,202.98 102.68,83.74 228.92,133.73 337.7,133.73 41.11,0 76.12,-7.54 96.05,-20.68 38.52,-25.42 39.02,-71.24 39.02,-73.18 l 0.07,-56.92 c 0,0 2.18,-1.81 5.57,0.35" /></g></g><g
         id="g68"><g
           clip-path="url(#clipPath72)"
           id="g70"><path
             id="path90"
             style="fill:url(#linearGradient76);fill-opacity:1;fill-rule:nonzero;stroke:none"
             d="m 2890.2,3672.16 c 0,0 18.86,-7.48 47.93,-16.62 -2.75,-3.02 -5.61,-6.2 -8.55,-9.63 -149.1,-173.08 -172.88,-434.74 -171.3,-562.31 -52.53,-23.74 -205.87,-13.22 -254.15,-19.27 -20.36,-2.54 -36.41,-6.53 -49.33,-10.74 113.76,221.95 235,453.72 359.43,638.67 45.95,-9.57 75.97,-20.1 75.97,-20.1 z m 688.15,318.64 c 103.18,70.7 128.37,285.17 -48.3,285.11 -308.87,-0.11 -675.93,-485.63 -675.93,-485.63 -13.56,-17.64 -29.62,-40.95 -47.63,-68.61 -33.16,3.44 -68.45,7.62 -106.58,12.83 -58.63,8.01 -403.61,45.94 -557.83,-229.69 -37.36,-66.78 -88.58,-216.56 13.12,-341.23 42.56,-52.18 167.36,-101.72 167.36,-101.72 0,0 -203.44,360.92 150.94,593.89 96.99,63.77 227.98,56.76 317.04,41.04 -114.1,-180.06 -295.86,-510.84 -461.41,-782.59 -101.76,-166.98 -183.74,-285.46 -183.74,-285.46 0,0 19.67,252.63 -72.21,518.43 -67.16,194.28 -36.09,419.99 -36.09,419.99 0,0 -153.48,-93.58 -323.75,-519.22 -105,-262.5 -263.59,-448.73 -273.44,-458.59 -9.85,-9.85 49.22,62.34 16.41,249.39 -10.79,61.47 -28.33,249.43 -32.81,318.26 -9.85,150.94 72.18,249.37 72.18,249.37 0,0 110.86,2.76 157.5,13.13 206.72,45.94 164.06,223.13 164.06,223.13 0,0 -44.06,-67.86 -390.46,-124.68 -538.714,-88.38 -678.346,-185.86 -763.428,-246.87 -475.778,-341.26 -160.778,-698.92 62.347,-712.04 349.811,-20.57 333.581,214.05 333.581,214.05 0,0 -74.979,-47.28 -187.03,-39.37 -324.844,22.97 -286.004,304.52 -251.562,379.84 194.699,425.79 849.852,298.6 849.852,298.6 0,0 -50.33,-15.62 -83.14,-55 -32.81,-39.38 -91.87,-124.68 -127.96,-249.37 -36.11,-124.69 6.56,-324.84 26.24,-531.57 19.69,-206.74 -68.91,-377.34 -68.91,-377.34 0,0 53.46,51.31 91.88,91.87 177.19,187.04 317.31,498.22 344.53,561.09 190.31,439.69 226.41,436.41 226.41,436.41 0,0 -15.97,-130.2 59.06,-400.32 65.63,-236.24 29.53,-459.34 -45.94,-623.43 -3.66,-7.95 -7.95,-15.64 -12.56,-23.02 -16.88,48.28 -47.09,79.63 -72.74,91.91 -479.06,229.71 -770.61,-399.28 -754.68,-711.99 26.24,-515.16 383.53,-678.201 784.21,-534.85 357.66,127.97 403.59,518.44 403.59,518.44 0,0 -17.13,-3.03 -29.55,-32.81 -22.11,-53.13 -178.9,-397.01 -505.29,-360.94 -593.91,65.61 -476.21,821.12 -301.87,1023.75 121.4,141.1 262.22,112.44 314.99,39.36 85.31,-118.15 11.23,-217.6 -6.56,-242.81 -39.38,-55.79 -118.13,-121.41 -118.13,-121.41 0,0 57.72,27.75 114.85,52.5 318.28,137.83 938.44,121.41 899.04,449.53 -11.34,94.53 -131.23,177.19 -229.68,121.41 -36.34,-20.57 -55.77,-59.05 -55.77,-59.05 0,0 147.66,49.2 134.52,-95.17 -15.83,-173.97 -599.36,-342.03 -599.36,-342.03 0,0 32.53,66.34 34.99,105.78 1.66,26.6 -0.43,50.64 -5.09,72.07 7.8,5.21 16.05,10.72 24.78,16.54 59.06,39.38 165.93,151.08 216.56,226.41 89.99,133.79 191.15,332.22 299.5,544.06 54.72,18.94 115.56,9.66 190.5,9.66 53.87,0 102.82,4.97 141.07,28.67 0.65,-8.71 1.4,-16.02 2.21,-21.32 9.83,-65.62 22.96,-416.72 -3.28,-577.5 -26.23,-160.78 -124.7,-206.7 -124.7,-206.7 0,0 269.07,101.68 311.73,269.05 50.91,199.74 -22.97,603.75 -52.5,843.28 -22.26,180.6 39.41,260.44 82.35,297.26 105.98,-28.36 273.98,-51.82 285.14,80.08 3.77,44.46 3.77,44.46 3.77,44.46 0,0 -30.33,-88.19 -432.4,-50.08 72.17,104.28 145.31,191.93 218.63,251.71 188.89,154.04 396.97,162.5 469.23,114.84 53.44,-35.27 52.5,-98.43 52.5,-98.43 0,0 -0.63,-0.66 5.64,3.64" /></g></g><path
         id="path92"
         style="fill:#a27121;fill-opacity:1;fill-rule:nonzero;stroke:none"
         d="m 2890.2,3672.16 -1.84,-4.65 c 0.08,-0.04 19.04,-7.55 48.27,-16.74 l 1.5,4.77 -3.7,3.37 c -2.77,-3.04 -5.66,-6.27 -8.64,-9.74 l 0.01,0 c -146.07,-169.76 -172.52,-422.12 -172.59,-554.01 0,-3.99 0.02,-7.87 0.07,-11.63 l 5,0.07 -2.06,4.55 c -12.2,-5.54 -31.31,-9.36 -53.57,-11.76 -33.42,-3.63 -74.02,-4.28 -110.78,-4.56 -36.82,-0.3 -69.61,-0.21 -88.37,-2.54 -20.66,-2.58 -37.05,-6.64 -50.25,-10.95 l 1.55,-4.75 4.45,-2.28 c 113.74,221.92 234.93,453.56 359.13,638.16 l -4.15,2.79 -1.02,-4.9 c 22.83,-4.75 41.7,-9.74 54.85,-13.54 6.57,-1.9 11.71,-3.51 15.2,-4.63 3.49,-1.12 5.28,-1.75 5.28,-1.75 l 1.66,4.72 -1.84,-4.65 1.84,4.65 1.66,4.71 c -0.16,0.06 -30.37,10.66 -76.61,20.28 -1.99,0.42 -4.03,-0.41 -5.17,-2.1 -124.66,-185.3 -245.95,-417.19 -359.73,-639.18 -0.92,-1.8 -0.67,-3.99 0.65,-5.52 1.31,-1.54 3.43,-2.14 5.35,-1.51 12.64,4.12 28.36,8.03 48.4,10.53 23.34,2.95 73.96,1.88 124.97,2.96 25.54,0.55 51.26,1.65 74.01,4.12 22.78,2.5 42.53,6.26 56.61,12.59 1.81,0.82 2.96,2.63 2.94,4.62 -0.05,3.72 -0.07,7.55 -0.07,11.5 -0.08,130.65 26.77,381.23 170.16,547.49 l 0.01,0.01 c 2.9,3.37 5.71,6.52 8.45,9.52 1.14,1.26 1.57,3.02 1.13,4.67 -0.45,1.64 -1.7,2.95 -3.33,3.46 -14.46,4.55 -26.38,8.68 -34.67,11.67 -4.15,1.49 -7.39,2.7 -9.58,3.54 -2.2,0.83 -3.33,1.28 -3.34,1.28 l -0.18,0.07 -1.66,-4.71 z m 688.15,318.64 2.83,-4.12 c 51.08,35.14 83.05,103.2 83.14,165.36 0.01,33.77 -9.57,66.05 -31.42,89.96 -21.84,23.93 -55.77,38.95 -102.77,38.91 l -0.09,0 0.01,0 c -78.55,-0.05 -160.14,-30.82 -238.44,-76.61 -234.8,-137.42 -441.26,-410.79 -441.48,-411 l 0.02,0.03 c -13.68,-17.81 -29.8,-41.2 -47.85,-68.94 l 4.19,-2.72 0.52,4.97 c -33.12,3.44 -68.35,7.62 -106.43,12.82 -15.55,2.12 -50.99,6.32 -97.61,6.32 -65.36,0 -152.75,-8.23 -238.36,-42.15 -85.59,-33.89 -169.45,-93.67 -226.89,-196.38 -21.37,-38.23 -47.13,-102.87 -47.16,-175.1 -0.02,-55.89 15.59,-116.38 60.77,-171.73 22.29,-27.22 64.43,-52.61 101.21,-71.71 36.76,-19.03 68.08,-31.46 68.18,-31.5 1.96,-0.78 4.22,-0.23 5.61,1.36 1.39,1.59 1.63,3.9 0.59,5.74 l -0.61,1.12 c -6.2,11.4 -56.91,109.14 -56.87,231.1 0.13,113.34 43.21,247.36 206.81,355.05 58.74,38.64 130.67,50.96 198.07,50.95 41.66,0 81.54,-4.69 115.35,-10.66 l 0.87,4.92 -4.22,2.68 c -114.26,-180.32 -295.98,-511.04 -461.46,-782.67 -50.85,-83.43 -96.75,-154.75 -129.94,-205.2 -16.59,-25.23 -30.01,-45.24 -39.27,-58.94 -9.27,-13.7 -14.36,-21.05 -14.37,-21.07 l 4.11,-2.85 4.99,-0.39 c 0,0.11 1.78,22.95 1.78,62.07 -0.01,91.35 -9.66,271.49 -74.25,458.38 -34.61,100.09 -43,209.01 -42.99,290.5 0,37.7 1.78,69.54 3.57,91.93 0.89,11.19 1.78,20.03 2.45,26.05 0.67,6.02 1.11,9.19 1.11,9.2 0.26,1.91 -0.6,3.81 -2.22,4.86 -1.61,1.06 -3.69,1.09 -5.34,0.09 -1.12,-0.68 -155.25,-95.29 -325.79,-521.64 -52.33,-130.82 -118.06,-242.72 -171.92,-323.1 -26.92,-40.19 -50.88,-72.51 -68.71,-95.37 -8.91,-11.43 -16.29,-20.49 -21.73,-26.99 -5.41,-6.47 -9.03,-10.51 -9.98,-11.45 l 0.01,0 -0.29,-0.28 0.02,-0.03 -0.01,0.03 -0.01,0 0.02,-0.03 -0.01,0.03 2.37,-3.17 -1.83,3.51 -0.54,-0.34 2.37,-3.17 -1.83,3.51 2.21,-4.25 0,4.78 c -1.36,-0.04 -1.86,-0.39 -2.21,-0.53 l 2.21,-4.25 0,4.78 0,-4.94 4.09,2.77 c -0.82,1.39 -2.94,2.29 -4.09,2.17 l 0,-4.94 4.09,2.77 -4.03,-2.74 4.88,0 c -0.03,0.5 0,1.41 -0.85,2.74 l -4.03,-2.74 4.88,0 -3.94,0 3.75,-1.27 c 0,0.09 0.14,0.16 0.19,1.27 l -3.94,0 3.75,-1.27 0.01,0.02 c 0.14,0.36 0.81,1.79 1.73,3.74 6.55,13.99 26.03,58.74 26,139.95 0,30.82 -2.78,66.9 -10.1,108.6 -10.7,60.94 -28.28,249.14 -32.74,317.73 -0.55,8.43 -0.81,16.7 -0.81,24.79 -0.01,67.43 18.01,122.77 36.03,161.25 9,19.24 18.01,34.25 24.74,44.42 3.36,5.09 6.16,8.96 8.1,11.55 0.97,1.3 1.72,2.27 2.23,2.91 l 0.74,0.92 -3.84,3.2 0.13,-4.99 c 0.03,0 27.79,0.69 61.43,2.68 33.67,2 73.06,5.25 97.02,10.56 74.14,16.43 117.45,49.93 141.8,86.53 24.37,36.59 29.82,75.85 29.82,103.8 0,23.09 -3.71,38.57 -3.78,38.85 -0.46,1.93 -2.05,3.42 -4.01,3.76 -1.97,0.33 -3.96,-0.54 -5.04,-2.21 l 0.12,-0.08 -0.12,0.09 0,-0.01 0.12,-0.08 -0.12,0.09 c -0.69,-0.99 -13.58,-17.94 -68.33,-41.45 -54.74,-23.51 -151.23,-53.55 -318.75,-81.03 C 1156.4,3478.66 986.5,3432.13 873.172,3388.92 759.879,3345.75 703.031,3305.7 660.438,3275.14 477.668,3144.11 410.07,3009.68 410.09,2892.51 l 0,0 c 0.004,-94.53 43.941,-177.11 105.137,-236.97 61.238,-59.87 139.742,-97.31 210.179,-101.5 14.782,-0.87 28.918,-1.28 42.449,-1.28 140.583,-0.08 215.403,45.25 254.395,95.31 38.99,50.01 42.13,103.78 42.14,120.25 0,3.21 -0.12,5.01 -0.12,5.12 -0.13,1.75 -1.17,3.32 -2.73,4.11 -1.56,0.8 -3.45,0.71 -4.93,-0.23 l -0.65,-0.39 c -6.89,-4.15 -67.956,-39.12 -158.44,-39.1 -8.075,0 -16.387,0.28 -24.918,0.88 -109.813,7.81 -176.696,45.14 -216.52,93.45 -39.82,48.33 -52.75,108.28 -52.75,161.89 -0.027,49.95 11.32,94.36 21.902,117.43 60.34,131.9 165.106,210.09 281.223,255.57 116.083,45.46 243.383,57.91 347.533,57.9 62.22,0 116.17,-4.43 154.54,-8.86 19.19,-2.22 34.48,-4.43 44.96,-6.09 5.24,-0.83 9.27,-1.52 11.99,-2 2.73,-0.48 4.1,-0.75 4.1,-0.75 l 0.96,4.91 -1.49,4.78 c -0.4,-0.19 -51.43,-15.84 -85.49,-56.58 -33.18,-39.82 -92.58,-125.67 -128.92,-251.18 -10.29,-35.55 -14.23,-76.76 -14.24,-122.23 0.02,-117.05 26.16,-262.55 40.31,-411.2 1.95,-20.51 2.83,-40.66 2.83,-60.33 0,-88.5 -17.82,-167.16 -35.65,-223.65 -8.92,-28.24 -17.83,-50.93 -24.5,-66.55 -3.34,-7.8 -6.11,-13.84 -8.05,-17.91 -0.97,-2.03 -1.72,-3.58 -2.24,-4.61 -0.51,-1.03 -0.76,-1.51 -0.76,-1.52 -1.13,-2.17 -0.52,-4.84 1.44,-6.3 1.95,-1.47 4.69,-1.3 6.45,0.39 0.03,0.03 53.5,51.34 92.05,92.05 178.06,188.04 318.11,499.42 345.49,562.54 93.7,216.5 149.98,325.47 182.81,380.07 16.39,27.3 26.95,41 33.18,47.64 3.1,3.32 5.12,4.85 6.1,5.45 l 0.53,0.3 0.13,0.06 -0.95,2.53 0,-2.66 0.95,0.13 -0.95,2.53 0,-2.66 0,4.79 -0.54,-4.75 0.54,-0.04 0,4.79 -0.54,-4.75 0.56,4.96 -4.96,0.61 c -0.03,-0.2 -1.46,-12.01 -1.46,-35.69 -0.01,-55.62 7.92,-176.71 60.66,-366.58 23.7,-85.29 34.06,-168.85 34.06,-248.5 0,-139.81 -31.94,-267.61 -79.72,-371.5 -3.55,-7.71 -7.74,-15.22 -12.26,-22.46 l 4.24,-2.65 4.72,1.65 c -17.32,49.4 -48.13,81.7 -75.3,94.77 -71.93,34.49 -139.88,49.87 -203.33,49.87 -87.87,0.01 -166.94,-29.51 -235.83,-77.86 -103.34,-72.54 -184.02,-187.29 -239.01,-309.37 -54.98,-122.11 -84.27,-251.55 -84.29,-354.09 0,-8.63 0.21,-17.07 0.63,-25.31 10.13,-199.17 69.62,-346.59 162.47,-444.23 92.84,-97.65 218.85,-145.12 360.66,-145.09 84.73,0 175.14,16.89 267.75,50.03 180.36,64.52 282.19,195.34 338.72,309.7 56.57,114.39 68.11,212.5 68.16,212.86 0.18,1.58 -0.38,3.13 -1.54,4.22 -1.15,1.09 -2.73,1.56 -4.3,1.29 -0.63,-0.11 -5.73,-1.16 -12.29,-6.2 -6.57,-5.03 -14.51,-14.03 -21,-29.62 -10.37,-24.93 -51.12,-115.4 -125.62,-199.33 -74.57,-83.97 -182.45,-161.17 -327.7,-161.17 -15.19,0 -30.79,0.84 -46.81,2.61 -166.1,18.41 -275.29,90.74 -343.56,189.75 -68.24,99.02 -95.32,225.18 -95.31,350.82 0,97.36 16.25,194.35 41.96,277.9 25.68,83.53 60.9,153.64 98.28,197.05 61.52,71.45 127.39,98.29 183.73,98.31 53.59,0.01 98.73,-24.4 123.41,-58.62 29.37,-40.71 39.29,-78.7 39.31,-112.15 0.02,-61.87 -34.33,-108.52 -45.9,-124.85 -19.32,-27.39 -48.7,-57.63 -73.19,-80.88 -12.24,-11.63 -23.27,-21.54 -31.23,-28.53 -3.98,-3.49 -7.19,-6.26 -9.41,-8.15 -2.21,-1.89 -3.41,-2.89 -3.41,-2.89 -1.94,-1.61 -2.37,-4.43 -1.01,-6.55 1.36,-2.11 4.1,-2.89 6.37,-1.8 0.01,0.01 3.6,1.73 9.89,4.71 18.88,8.96 62.03,29.19 104.79,47.71 153.22,66.41 378.38,97.06 565.46,148.28 93.56,25.65 177.7,56.43 238.92,99.97 30.6,21.78 55.48,46.8 72.72,76.03 17.24,29.22 26.76,62.63 26.74,100.72 0,9.61 -0.6,19.51 -1.82,29.72 -4.6,38.14 -26,73.98 -56.25,100.4 -30.27,26.39 -69.53,43.46 -110.32,43.48 -23.6,0 -47.69,-5.77 -70.55,-18.72 -37.94,-21.59 -57.5,-60.77 -57.76,-61.14 -0.91,-1.81 -0.64,-3.99 0.68,-5.52 1.32,-1.54 3.45,-2.12 5.36,-1.48 l 0.99,0.31 c 4.74,1.47 26.02,7.53 49.66,7.52 18.44,0.01 38.08,-3.69 52.76,-15.29 14.63,-11.59 25.28,-31.12 25.35,-65.55 0,-5.31 -0.26,-10.96 -0.8,-16.97 -1.84,-20.37 -12.11,-41.16 -29.18,-61.92 -29.84,-36.33 -80.28,-72.1 -139.08,-104.89 -88.21,-49.24 -195.16,-92.01 -279.99,-122.41 -42.42,-15.21 -79.32,-27.33 -105.6,-35.64 -13.14,-4.16 -23.62,-7.37 -30.82,-9.53 -7.2,-2.17 -11.08,-3.29 -11.09,-3.29 l 1.38,-4.8 4.49,-2.2 c 0.04,0.07 8.22,16.76 16.74,38.47 8.5,21.77 17.41,48.37 18.75,69.2 0.39,6.2 0.57,12.28 0.57,18.22 0,19.94 -2.1,38.36 -5.76,55.22 l -4.89,-1.06 2.78,-4.16 c 7.8,5.22 16.05,10.72 24.78,16.54 30.12,20.11 71.66,57.99 112.27,100.42 40.59,42.44 80.08,89.31 105.66,127.36 90.27,134.23 191.44,332.72 299.8,544.57 l -4.45,2.28 1.64,-4.73 c 26.83,9.3 55.43,11.67 86.98,11.67 30.91,0 64.59,-2.27 101.88,-2.28 54.13,0.03 104.02,4.89 143.71,29.42 l -2.64,4.25 -4.98,-0.36 c 0.65,-8.8 1.41,-16.2 2.25,-21.71 l 0,0.01 c 2.71,-18.04 5.76,-59.23 8.08,-112.3 2.34,-53.1 3.98,-118.23 3.98,-184.72 0.01,-102.98 -3.96,-209.32 -15.33,-278.93 -12.98,-79.48 -43.68,-130.2 -71,-161.14 -13.67,-15.47 -26.5,-25.98 -35.86,-32.6 -4.68,-3.31 -8.49,-5.64 -11.11,-7.14 -1.31,-0.75 -2.31,-1.29 -2.98,-1.63 l -0.74,-0.37 -0.19,-0.1 c -2.43,-1.13 -3.54,-3.99 -2.49,-6.47 1.04,-2.47 3.86,-3.68 6.37,-2.73 0.2,0.07 67.71,25.58 140.79,72.22 72.99,46.68 151.97,114.34 174.02,200.26 12.6,49.49 17.58,110.87 17.59,178.99 -0.02,210.4 -47.7,485.35 -69.98,666.14 -3.22,26.11 -4.66,50.07 -4.66,72.05 0.11,128.99 49.49,189.96 85.31,220.8 l -3.26,3.8 -1.29,-4.83 c 42.94,-11.48 96.01,-22.21 145.24,-22.22 36.49,0.02 70.98,5.86 97.69,22.27 26.75,16.36 45.14,43.79 48.48,84.44 3.77,44.46 3.77,44.42 3.77,44.46 0.22,2.51 -1.48,4.8 -3.95,5.32 -2.46,0.52 -4.94,-0.89 -5.76,-3.27 l 1.56,-0.54 -1.53,0.62 -0.03,-0.08 1.56,-0.54 -1.53,0.62 c -0.18,-0.36 -5.8,-14.2 -39.6,-28.31 -33.78,-14.06 -95.66,-28.04 -207.06,-28.03 -49.7,0 -109.26,2.77 -180.57,9.53 l -0.47,-4.98 4.11,-2.84 c 72.01,104.06 144.94,191.38 217.68,250.68 124.68,101.7 257.77,139.37 353.5,139.35 48.22,0.04 86.92,-9.65 109.82,-24.81 l 0,0 c 24.65,-16.28 37.18,-38.72 43.62,-57.8 6.43,-19.05 6.64,-34.59 6.63,-36.25 l 0,-0.17 c -0.01,-1.34 0.5,-2.61 1.44,-3.56 0.94,-0.95 2.2,-1.48 3.54,-1.48 1.33,-0.01 2.6,0.51 3.55,1.45 0.94,0.94 1.47,2.21 1.47,3.55 -0.02,1.74 -0.84,2.85 -1.31,3.37 -1,1.01 -1.4,1.04 -1.7,1.21 l -0.8,0.27 -0.47,0.09 -0.1,0.02 -0.62,0.04 c -0.99,-0.02 -1.44,-0.22 -1.78,-0.33 -1.13,-0.49 -1.09,-0.62 -1.31,-0.74 l -0.57,-0.53 -0.54,-0.68 c -0.18,-0.41 -0.7,-0.77 -0.82,-2.75 -0.08,-0.96 0.52,-2.94 1.94,-3.96 1.37,-1.01 2.48,-1.03 3.07,-1.05 l 1.51,0.23 c 0.9,0.31 0.98,0.43 1.33,0.61 0.84,0.48 2.2,1.36 5.64,3.72 l -2.83,4.12 -2.82,4.13 c -2.38,-1.63 -3.74,-2.54 -4.45,-2.98 l -0.55,-0.34 1.38,-2.51 -1.15,2.62 -0.23,-0.11 1.38,-2.51 -1.15,2.62 1.84,-4.17 -1.36,4.35 -0.48,-0.18 1.84,-4.17 -1.36,4.35 1.46,-4.69 0,4.91 -1.46,-0.22 1.46,-4.69 0,4.91 0,-4.99 3.05,3.95 c -1.36,1.01 -2.47,1.02 -3.05,1.04 l 0,-4.99 3.05,3.95 -3.05,-3.95 4.99,0 c 0.08,0.95 -0.52,2.93 -1.94,3.95 l -3.05,-3.95 4.99,0 -4.98,0 4.38,-2.37 c 0.18,0.4 0.55,0.92 0.6,2.37 l -4.98,0 4.38,-2.37 -4.33,2.34 3.69,-3.26 0.64,0.92 -4.33,2.34 3.69,-3.26 -3.69,3.26 3.42,-3.55 0.27,0.29 -3.69,3.26 3.42,-3.55 -3.46,3.59 3.18,-3.84 0.28,0.25 -3.46,3.59 3.18,-3.84 -3.19,3.85 2.77,-4.16 0.42,0.31 -3.19,3.85 2.77,-4.16 -0.59,-0.33 -2.18,4.5 0,-5 c 1.46,0.05 1.82,0.37 2.18,0.5 l -2.18,4.5 0,-5 0,5 -0.62,-4.96 -0.15,0.01 -0.3,0.06 -0.56,0.16 -0.92,0.43 -1.14,0.92 3.69,3.38 -5,0 c 0.02,-1.75 0.83,-2.86 1.31,-3.38 l 3.69,3.38 -5,0 c 0,-2.75 2.23,-4.99 4.98,-5 2.74,-0.02 5,2.21 5.02,4.95 l 0,0.26 c -0.01,2.38 -0.24,18.91 -7.15,39.45 -6.9,20.5 -20.63,45.15 -47.6,62.95 l 0,0 c -25.53,16.78 -65.77,26.43 -115.32,26.46 -98.26,-0.01 -233.32,-38.47 -359.82,-141.6 -73.9,-60.27 -147.25,-148.24 -219.58,-252.74 -1.01,-1.46 -1.17,-3.35 -0.43,-4.95 0.75,-1.61 2.3,-2.71 4.07,-2.87 71.57,-6.79 131.43,-9.58 181.51,-9.58 115.85,0.01 179.31,14.92 214.26,30.24 34.92,15.26 41.39,31.34 41.83,32.77 l -4.73,1.62 -4.98,0.43 c 0,-0.01 0,-0.01 -0.47,-5.56 -0.47,-5.56 -1.42,-16.68 -3.3,-38.91 -3.33,-38.12 -19.57,-61.76 -43.76,-76.77 -24.24,-14.96 -57.01,-20.8 -92.45,-20.78 -47.79,-0.01 -100.22,10.52 -142.65,21.88 -1.6,0.43 -3.29,0.04 -4.55,-1.04 -37.57,-32.07 -88.91,-96.82 -88.8,-228.39 0,-22.42 1.47,-46.79 4.74,-73.27 22.34,-181.15 69.91,-455.89 69.9,-664.92 0,-67.62 -4.99,-128.33 -17.28,-176.52 -20.63,-81.44 -97.51,-148.3 -169.71,-194.3 -36.06,-23.02 -70.85,-40.87 -96.59,-52.95 -12.88,-6.04 -23.49,-10.64 -30.87,-13.72 -3.69,-1.54 -6.57,-2.7 -8.53,-3.48 -1.95,-0.77 -2.95,-1.15 -2.95,-1.15 l 1.76,-4.68 2.12,-4.53 c 0.46,0.22 25.67,12.05 54.14,44.28 28.47,32.21 60.12,84.84 73.37,166.15 11.54,70.74 15.47,177.26 15.47,280.54 0,66.66 -1.64,131.91 -3.99,185.16 -2.35,53.29 -5.36,94.41 -8.18,113.34 l -0.01,0.02 c -0.77,5.08 -1.52,12.3 -2.16,20.93 -0.13,1.75 -1.15,3.29 -2.72,4.09 -1.56,0.8 -3.41,0.72 -4.9,-0.21 -36.82,-22.86 -84.84,-27.95 -138.44,-27.92 -36.89,0 -70.48,2.27 -101.88,2.28 -32.02,-0.01 -61.81,-2.37 -90.25,-12.22 -1.23,-0.42 -2.23,-1.29 -2.82,-2.44 -108.34,-211.83 -209.49,-410.2 -299.2,-543.55 -25.05,-37.29 -64.31,-83.93 -104.59,-126.02 -40.24,-42.1 -81.66,-79.75 -110.59,-99.02 -8.73,-5.82 -16.98,-11.33 -24.79,-16.54 -1.7,-1.15 -2.54,-3.22 -2.1,-5.22 3.51,-16.16 5.53,-33.86 5.53,-53.1 0,-5.73 -0.18,-11.6 -0.55,-17.6 -1.12,-18.6 -9.71,-44.9 -18.08,-66.17 -4.18,-10.65 -8.29,-20.11 -11.35,-26.88 -1.53,-3.39 -2.8,-6.11 -3.68,-7.98 -0.89,-1.87 -1.37,-2.86 -1.37,-2.86 -0.87,-1.78 -0.62,-3.9 0.65,-5.42 1.27,-1.51 3.32,-2.13 5.22,-1.59 0.11,0.04 146.12,42.08 294.34,105.99 74.11,31.97 148.78,69.38 206.19,109.93 28.7,20.29 53.11,41.36 71,63.1 17.86,21.73 29.3,44.24 31.41,67.36 0.58,6.3 0.85,12.25 0.85,17.88 0.08,36.41 -11.78,59.79 -29.17,73.41 -17.35,13.62 -39.27,17.41 -58.94,17.43 -28.91,-0.03 -53.52,-8.26 -53.81,-8.34 l 1.58,-4.75 4.47,-2.25 0.18,0.36 c 2.01,3.93 21.02,38.26 53.58,56.59 21.35,12.09 43.63,17.41 65.62,17.42 37.95,0.01 75.09,-16 103.74,-41.02 28.67,-25 48.7,-58.89 52.9,-94.06 1.18,-9.83 1.75,-19.33 1.75,-28.52 -0.01,-36.44 -9,-67.89 -25.36,-95.64 -28.58,-48.53 -80.14,-85.83 -146.09,-116.02 -98.88,-45.3 -229.65,-74.44 -361.02,-103.1 -131.39,-28.7 -263.38,-56.92 -365.35,-101.06 -57.25,-24.8 -115,-52.57 -115.03,-52.58 l 2.17,-4.51 3.2,-3.84 c 0.14,0.16 78.95,65.69 119.01,122.36 11.54,16.4 47.7,65.04 47.73,130.62 0.02,35.46 -10.69,75.79 -41.2,118 -26.75,37.04 -74.89,62.76 -131.52,62.77 -59.59,0.02 -128.37,-28.59 -191.31,-101.79 -38.74,-45.07 -74.24,-116.14 -100.26,-200.63 -25.99,-84.49 -42.4,-182.36 -42.4,-280.84 0.01,-127.03 27.3,-255.16 97.07,-356.5 69.75,-101.35 182.22,-175.46 350.7,-194.01 16.38,-1.81 32.35,-2.67 47.91,-2.67 149.02,0 259.6,79.34 335.18,164.54 75.64,85.24 116.72,176.56 127.37,202.12 5.93,14.19 12.76,21.6 17.86,25.53 2.56,1.96 4.7,3.05 6.12,3.65 l 1.57,0.56 0.3,0.08 0.02,0 -0.58,2.91 0.51,-2.92 0.07,0.01 -0.58,2.91 0.51,-2.92 -0.87,4.92 -4.96,0.59 c 0,-0.01 -0.17,-1.44 -0.59,-4.28 -3.11,-21.31 -19.95,-119.32 -77.59,-226.64 -57.68,-107.36 -155.9,-223.91 -322.14,-283.4 -91.68,-32.8 -180.99,-49.44 -264.38,-49.44 -139.64,0.03 -262.59,46.51 -353.41,141.98 -90.81,95.49 -149.67,240.35 -159.74,437.85 -0.41,8.06 -0.61,16.33 -0.61,24.8 -0.05,134.25 51.53,317.77 146.18,467.08 47.3,74.68 105.34,140.82 172.87,188.19 67.54,47.38 144.48,76.04 230.08,76.05 61.82,-0.01 128.24,-14.96 199.01,-48.89 24.13,-11.5 53.74,-41.9 70.18,-89.05 0.63,-1.82 2.24,-3.11 4.16,-3.32 1.92,-0.22 3.77,0.68 4.8,2.32 4.7,7.52 9.1,15.4 12.86,23.58 48.38,105.18 80.64,234.34 80.64,375.68 0,80.52 -10.48,164.98 -34.42,251.18 -52.52,189.06 -60.3,309.23 -60.3,363.9 0,11.64 0.35,20.31 0.7,26.04 0.17,2.87 0.35,5 0.48,6.41 0.13,1.4 0.2,2.02 0.2,2.03 0.17,1.32 -0.21,2.65 -1.03,3.7 -0.83,1.05 -2.04,1.72 -3.37,1.87 l -0.58,0.03 c -1.4,-0.01 -2.97,-0.48 -4.99,-1.73 -6.89,-4.45 -21.7,-18.87 -56.15,-79.8 -34.33,-60.91 -87.76,-168.25 -169.84,-357.89 -27.07,-62.63 -167.25,-373.62 -343.57,-559.64 -19.14,-20.21 -42.08,-43.15 -60.23,-61.02 -9.07,-8.94 -16.94,-16.61 -22.55,-22.05 -5.6,-5.44 -8.92,-8.63 -8.93,-8.63 l 3.46,-3.61 4.44,-2.31 c 0.18,0.4 72.29,139.16 72.33,318.85 0,19.97 -0.89,40.44 -2.88,61.28 -14.22,149.14 -40.28,294.63 -40.26,410.25 0,44.89 3.93,85.24 13.84,119.44 35.85,123.87 94.56,208.63 127,247.56 15.8,18.98 36.06,32.44 52.37,41.06 8.15,4.31 15.31,7.42 20.4,9.45 2.54,1.01 4.57,1.75 5.95,2.23 l 1.57,0.54 0.49,0.15 c 2.19,0.69 3.63,2.76 3.51,5.05 -0.13,2.29 -1.79,4.2 -4.04,4.64 -0.21,0.04 -92.12,17.88 -217.5,17.88 -104.94,-0.01 -233.35,-12.48 -351.177,-58.58 -117.79,-46.07 -225.129,-126.08 -286.672,-260.73 -11.328,-24.84 -22.778,-70.08 -22.809,-121.59 0,-55.14 13.27,-117.52 55.031,-168.25 41.754,-50.75 111.828,-89.21 223.535,-97.06 8.77,-0.62 17.317,-0.91 25.622,-0.91 99.308,0.02 163.95,40.75 164.42,41.03 l -2.66,4.23 -4.99,-0.34 0.05,-1.07 c 0.03,-0.75 0.05,-1.89 0.05,-3.36 0.02,-15.25 -3.03,-66.76 -40.02,-114.1 -36.987,-47.29 -107.936,-91.38 -246.515,-91.46 -13.324,0 -27.269,0.41 -41.863,1.27 -67.351,3.91 -144.152,40.27 -203.773,98.65 -59.664,58.39 -102.137,138.49 -102.129,229.83 0.012,113.09 65.004,244.49 246.176,374.5 42.484,30.46 97.996,69.66 210.468,112.57 112.442,42.88 281.716,89.28 550.856,133.43 173.48,28.47 271.46,59.7 326.35,84.02 54.85,24.31 66.74,41.74 67.49,42.88 l -4.19,2.72 -4.86,-1.17 0.13,-0.59 c 0.64,-2.94 3.37,-16.65 3.37,-35.92 0.01,-26.7 -5.24,-63.91 -28.14,-98.25 -22.92,-34.33 -63.46,-66.23 -135.65,-82.32 -22.67,-5.05 -62.03,-8.37 -95.44,-10.34 -16.73,-0.99 -32.01,-1.66 -43.11,-2.08 -11.09,-0.42 -17.96,-0.59 -17.98,-0.59 -1.45,-0.03 -2.79,-0.68 -3.72,-1.79 -0.36,-0.48 -74.11,-88.97 -74.16,-227.46 0,-8.3 0.26,-16.79 0.83,-25.44 4.51,-69.09 22.01,-256.8 32.87,-318.81 7.22,-41.15 9.95,-76.65 9.95,-106.87 0,-47.73 -6.81,-82.27 -13.57,-105.1 -3.38,-11.42 -6.74,-19.9 -9.26,-25.68 -1.26,-2.89 -2.3,-5.1 -3.06,-6.71 l -0.95,-2.05 -0.36,-0.94 c -0.11,-0.41 -0.31,-0.7 -0.35,-1.96 0.02,-0.56 0.01,-1.52 0.88,-2.87 0.84,-1.43 3,-2.34 4.18,-2.22 1.86,0.09 2.32,0.59 2.76,0.79 1.06,0.71 1.26,1.02 1.84,1.55 l 0,0.01 c 1.51,1.52 5.01,5.46 10.56,12.09 38.64,46.15 171.79,217.73 263.99,448.17 84.99,212.46 165.71,341.84 225.03,418.01 29.65,38.09 53.96,62.87 70.79,78.09 8.41,7.61 14.95,12.83 19.35,16.13 2.2,1.64 3.87,2.81 4.97,3.56 l 1.22,0.8 0.35,0.22 -2.61,4.27 -4.95,0.68 c -0.02,-0.16 -7.22,-52.5 -7.22,-128.54 0.01,-82.18 8.38,-192.04 43.54,-293.77 64.07,-185.3 73.71,-364.46 73.7,-455.11 0,-19.41 -0.44,-34.76 -0.88,-45.24 -0.22,-5.24 -0.44,-9.27 -0.6,-11.98 -0.17,-2.71 -0.27,-4.07 -0.27,-4.07 -0.18,-2.26 1.17,-4.34 3.31,-5.1 2.13,-0.76 4.49,0 5.78,1.87 0.04,0.05 82.06,118.6 183.9,285.69 165.62,271.88 347.42,602.72 461.37,782.53 0.89,1.41 1.02,3.16 0.35,4.69 -0.68,1.53 -2.06,2.62 -3.71,2.91 -34.25,6.04 -74.68,10.81 -117.09,10.81 -68.56,-0.01 -142.44,-12.44 -203.57,-52.6 -166.34,-109.21 -211.43,-247.55 -211.31,-363.4 0.05,-133.04 58.57,-236.72 58.77,-237.13 l 4.35,2.46 1.85,4.64 c -0.01,0.01 -1.9,0.76 -5.37,2.2 -12.13,5.06 -43.17,18.46 -75.7,36.23 -32.51,17.7 -66.54,39.99 -84.27,61.81 -43.57,53.45 -58.48,111.33 -58.51,165.41 -0.03,69.8 25.14,133.17 45.89,170.22 56.23,100.46 137.88,158.67 221.84,191.97 83.94,33.27 170.15,41.45 234.68,41.44 46.03,0 80.99,-4.14 96.26,-6.23 38.19,-5.22 73.53,-9.4 106.74,-12.86 1.87,-0.19 3.68,0.67 4.71,2.25 17.96,27.6 33.98,50.83 47.4,68.29 l 0.02,0.03 c 0.01,0.01 1.41,1.87 4.16,5.4 20.62,26.53 116.02,146.37 242.22,259.4 126.13,113.12 283.27,218.98 425.58,218.85 l 0.07,0 c 44.96,-0.04 75.62,-14.09 95.39,-35.66 19.76,-21.6 28.8,-51.26 28.8,-83.21 0.1,-58.79 -31,-124.5 -78.79,-157.11 l 2.82,-4.13" /><path
         id="path94"
         style="fill:#d18a0b;fill-opacity:1;fill-rule:nonzero;stroke:none"
         d="m 3800.32,2146.07 -0.2,0 c 0.05,-5.13 0.2,-10.24 0.2,-15.37 0,-980.55 -1769.09,-1775.438 -1769.09,-1775.438 0,0 -1769.097,794.888 -1769.097,1775.438 0,5.13 0.152,10.24 0.195,15.37 l -0.199,0 0,2344.2 c 0,0 813.021,115.91 1766.901,115.91 953.87,0 1771.29,-115.91 1771.29,-115.91 l 0,-2344.2 z m 257.12,2595.43 c 0,0 -936.21,132.75 -2028.73,132.75 C 936.191,4874.25 5,4741.5 5,4741.5 l 0,-2684.92 0.23047,0 C 5.17969,2050.71 5.00391,2044.86 5.00391,2038.98 5.00391,915.91 2031.23,5.48047 2031.23,5.48047 c 0,0 2026.21,910.42953 2026.21,2033.49953 0,5.88 -0.17,11.73 -0.22,17.6 l 0.22,0 0,2684.92" /><path
         id="path96"
         style="fill:#fff880;fill-opacity:1;fill-rule:nonzero;stroke:none"
         d="m 262.129,4490.27 c 0,0 813.021,115.91 1766.901,115.91 953.87,0 1771.29,-115.91 1771.29,-115.91 l 257.12,251.23 c 0,0 -936.21,132.75 -2028.73,132.75 C 936.191,4874.25 5,4741.5 5,4741.5 l 257.129,-251.23" /><path
         id="path98"
         style="fill:#fff426;fill-opacity:1;fill-rule:nonzero;stroke:none"
         d="m 5,4741.5 0,-2684.92 0.23047,0 C 5.17969,2050.71 5.00391,2044.86 5.00391,2038.98 5.00391,915.91 2031.23,5.48047 2031.23,5.48047 l 0,349.78153 c 0,0 -1769.097,794.888 -1769.097,1775.438 0,5.13 0.152,10.24 0.195,15.37 l -0.199,0 0,2344.2 L 5,4741.5" /><path
         id="path100"
         style="fill:#fddd10;fill-opacity:1;fill-rule:nonzero;stroke:none"
         d="m 3727.04,2158.23 -0.2,0 c 0.05,-4.91 0.2,-9.8 0.2,-14.72 0,-939.94 -1695.81,-1701.908 -1695.81,-1701.908 0,0 -4.05,1.82 -11.65,5.347 -149.09,69.09 -1684.166,802.251 -1684.166,1696.561 0,4.92 0.145,9.81 0.188,14.72 l -0.192,0 0,2247.11 c 0,0 779.34,111.1 1693.71,111.1 914.36,0 1697.92,-111.1 1697.92,-111.1 l 0,-2247.11 z m 246.47,2487.93 -0.01,0 c -0.52,0.07 -897.73,127.25 -1944.69,127.25 -1047.255,0 -1939.8764,-127.25 -1939.8764,-127.25 l 0,-2573.7 0.2227,0 c -0.0508,-5.63 -0.2149,-11.24 -0.2149,-16.88 0,-1076.541 1942.2886,-1949.26 1942.2886,-1949.26 0,0 3.24,1.461 9.37,4.289 145.02,66.852 1932.91,912.091 1932.91,1944.971 0,5.64 -0.17,11.25 -0.21,16.88 l 0.21,0 0,2573.7" /><path
         id="path102"
         style="fill:#deae07;fill-opacity:1;fill-rule:nonzero;stroke:none"
         d="m 2031.23,106.32 c 0,0 3.24,1.461 9.37,4.289 145.02,66.852 1932.91,912.091 1932.91,1944.971 0,5.64 -0.17,11.25 -0.21,16.88 l 0.21,0 0,2573.7 -0.01,0 -246.46,-240.82 0,-2247.11 -0.2,0 c 0.05,-4.91 0.2,-9.8 0.2,-14.72 0,-939.94 -1695.81,-1701.908 -1695.81,-1701.908 l 0,-335.282" /><path
         id="path104"
         style="fill:#5a3114;fill-opacity:1;fill-rule:nonzero;stroke:none"
         d="m 3727.04,2143.51 -5,0 c 0.01,-233.43 -105.34,-456.29 -263.92,-659.39 -237.81,-304.62 -595.13,-564.28 -892.95,-747.6 -148.91,-91.668 -282.94,-164.278 -379.73,-213.95 -48.39,-24.84 -87.48,-43.949 -114.45,-56.851 -13.49,-6.438 -23.95,-11.34 -31.04,-14.617 -7.08,-3.282 -10.76,-4.93 -10.77,-4.942 l 2.05,-4.558 2.04,4.558 c -0.01,0.012 -4,1.809 -11.59,5.32 -74.36,34.45 -495.16,234.918 -897.08,538.282 -200.955,151.668 -397.174,329.058 -542.995,524.078 -145.847,195.05 -241.203,407.57 -241.191,629.67 0,4.82 0.141,9.7 0.188,14.68 l 0.043,5.04 -0.235,0 0,2242.11 -5,0 0.707,-4.95 c 0.035,0 12.141,1.73 35.219,4.77 161.535,21.24 858.054,106.28 1657.784,106.28 456.98,0 881.32,-27.77 1191.4,-55.53 155.03,-13.88 281.51,-27.77 369.21,-38.18 43.85,-5.2 78.01,-9.54 101.2,-12.57 23.19,-3.04 35.37,-4.77 35.4,-4.77 l 0.71,4.95 -5,0 0,-2247.11 5,0 0,5 -5.25,0 0.05,-5.05 c 0.05,-4.97 0.2,-9.85 0.2,-14.67 l 10,0 c 0,5.02 -0.15,9.93 -0.2,14.77 l -5,-0.05 0,-5 5.2,0 0,2256.45 -4.3,0.61 c -0.14,0.01 -783.86,111.14 -1698.62,111.15 C 1114.36,4521.43 334.844,4410.3 334.703,4410.29 l -4.293,-0.61 0,-2256.45 5.192,0 0,5 -5,0.05 c -0.043,-4.85 -0.188,-9.75 -0.188,-14.77 0.012,-225.05 96.543,-439.55 243.184,-635.65 C 1013.59,919.66 1905.37,494.461 2017.47,442.41 c 7.63,-3.539 11.69,-5.359 11.71,-5.371 l 2.05,-0.918 2.04,0.918 c 0.19,0.09 424.36,190.672 848.8,498.992 212.22,154.179 424.52,337.779 583.94,541.939 159.38,204.14 266.01,429 266.03,665.54 l -5,0 z m 330.4,2597.99 0.7,4.95 c -0.14,0.02 -936.52,132.8 -2029.43,132.8 C 935.797,4879.25 4.43359,4746.47 4.29297,4746.45 L 0,4745.84 0,2051.58 l 5.23047,0 0,5 -5.000001,0.05 c -0.046875,-5.8 -0.22656275,-11.67 -0.22656275,-17.65 l 0,0 C 0.0234375,1756.66 127.301,1488.18 317.66,1244.37 888.832,513.082 2028.88,1.14844 2029.18,0.921875 L 2031.23,0 l 2.04,0.921875 c 0.19,0.089845 506.96,227.777125 1014,596.109125 253.52,184.18 507.12,403.509 697.51,647.339 190.36,243.81 317.64,512.29 317.66,794.61 0,5.97 -0.17,11.84 -0.22,17.65 l -5,-0.05 0,-5 5.22,0 0,2694.26 -4.3,0.61 -0.7,-4.95 -5,0 0,-2684.92 5,0 0,5 -5.26,0 0.04,-5.04 c 0.05,-5.93 0.22,-11.78 0.22,-17.56 0.01,-279.21 -125.99,-545.69 -315.54,-788.45 C 3452.62,886.398 3025.61,576.102 2669.71,357.031 2491.76,247.48 2331.6,160.719 2215.93,101.352 2158.1,71.6719 2111.39,48.832 2079.16,33.4219 c -16.12,-7.7031 -28.63,-13.5508 -37.1,-17.4727 -8.47,-3.9179 -12.87,-5.8984 -12.88,-5.9101 l 2.05,-4.55863 2.04,4.55863 c -0.02,0.0117 -7.87,3.5429 -22.68,10.4726 C 1899.47,72.4805 1398.85,314.91 926.293,675.68 690.02,856.039 460.781,1065.99 290.766,1296.32 120.723,1526.66 9.99219,1777.21 10.0039,2038.98 c 0,5.78 0.1758,11.62 0.2266,17.56 l 0.039,5.04 -0.2695,0 0,2679.92 -5,0 0.70703,-4.95 c 0.03906,0.01 14.51177,2.07 42.08987,5.7 193.0391,25.39 1025.3031,127 1980.9131,127 546.05,0 1053.1,-33.18 1423.61,-66.36 185.25,-16.58 336.37,-33.17 441.17,-45.61 52.4,-6.22 93.22,-11.4 120.94,-15.03 27.71,-3.63 42.26,-5.7 42.3,-5.7 l 0.71,4.95 -5,0 5,0" /><g
         id="g106"><g
           clip-path="url(#clipPath110)"
           id="g108"><path
             id="path128"
             style="fill:url(#linearGradient114);fill-opacity:1;fill-rule:nonzero;stroke:none"
             d="m 3763.68,2152.15 -0.2,0 c 0.05,-5.02 0.2,-10.02 0.2,-15.05 0,-960.24 -1732.45,-1738.67 -1732.45,-1738.67 0,0 -1732.457,778.43 -1732.457,1738.67 0,5.03 0.149,10.03 0.192,15.05 l -0.195,0 0,2295.65 c 0,0 796.18,113.5 1730.3,113.5 934.12,0 1734.61,-113.5 1734.61,-113.5 l 0,-2295.65 z m 251.79,2541.68 c 0,0 -916.82,130 -1986.71,130 -1069.889,0 -1981.7912,-130 -1981.7912,-130 l 0,-2629.31 0.2226,0 c -0.0469,-5.75 -0.2187,-11.48 -0.2187,-17.24 C 46.9727,947.469 2031.23,55.8984 2031.23,55.8984 c 0,0 1984.24,891.5706 1984.24,1991.3816 0,5.76 -0.16,11.49 -0.21,17.24 l 0.21,0 0,2629.31" /></g></g><path
         id="path130"
         style="fill:#a27121;fill-opacity:1;fill-rule:nonzero;stroke:none"
         d="m 3763.68,2152.15 0,5 -5.25,0 0.05,-5.05 c 0.05,-5.08 0.2,-10.07 0.2,-15 0.01,-238.5 -107.63,-466.2 -269.64,-673.69 -242.97,-311.22 -608.02,-576.5 -912.28,-763.781 -152.13,-93.66 -289.06,-167.828 -387.94,-218.578 -49.44,-25.379 -89.37,-44.903 -116.93,-58.082 -13.78,-6.578 -24.46,-11.578 -31.7,-14.93 -7.24,-3.348 -11,-5.039 -11.01,-5.051 l 2.05,-4.558 2.04,4.558 c -0.01,0.012 -6.72,3.024 -19.38,8.953 -94.98,44.418 -522.99,251.688 -926.96,560.09 C 884.949,1126.22 688.992,1305.7 543.688,1502.54 398.355,1699.41 303.762,1913.5 303.773,2137.1 c 0,4.93 0.149,9.92 0.192,15.01 l 0.043,5.04 -0.238,0 0,2290.65 -5,0 0.707,-4.94 c 0.035,0 12.406,1.77 35.98,4.86 165.027,21.71 876.603,108.59 1693.613,108.58 466.86,0 900.37,-28.36 1217.15,-56.73 158.39,-14.18 287.6,-28.36 377.2,-39 44.79,-5.31 79.69,-9.75 103.39,-12.85 23.69,-3.09 36.13,-4.86 36.16,-4.86 l 0.71,4.94 -5,0 0,-2295.65 5,0 0,5 0,-5 5,0 0,2299.99 -4.3,0.61 c -0.14,0.02 -800.8,113.55 -1735.31,113.55 -934.51,0 -1730.867,-113.53 -1731.007,-113.55 l -4.293,-0.61 0,-2304.99 5.195,0 0,5 -5,0.04 c -0.043,-4.95 -0.192,-9.96 -0.192,-15.09 0.02,-241.61 108.934,-471.31 271.754,-679.85 C 1054.08,831.781 2028.88,394.09 2029.18,393.871 l 2.05,-0.922 2.04,0.922 c 0.19,0.09 433.52,194.777 867.12,509.758 216.8,157.501 433.68,345.071 596.53,553.621 162.82,208.54 271.74,438.24 271.76,679.85 0,5.13 -0.15,10.14 -0.2,15.1 l -5,-0.05 0,-5 5.2,0 0,5 -5,0 z m 251.79,2541.68 0.71,4.95 c -0.15,0.02 -917.14,130.05 -1987.42,130.05 C 958.477,4828.83 46.4023,4698.8 46.2617,4698.78 l -4.2929,-0.61 0,-2638.65 5.2226,0 0,5 -5,0.05 c -0.0469,-5.68 -0.2187,-11.43 -0.2187,-17.29 l 0,0 C 41.9883,1770.77 166.645,1507.84 353.07,1269.07 912.438,552.891 2028.88,51.5703 2029.18,51.3398 l 2.05,-0.9179 2.04,0.9179 c 0.19,0.0899 496.47,223.0702 993.02,583.7812 248.27,180.367 496.63,395.159 683.09,633.949 186.42,238.77 311.08,501.7 311.09,778.21 0,5.86 -0.16,11.6 -0.21,17.29 l -5,-0.05 0,-5 5.21,0 0,2638.65 -4.29,0.61 -0.71,-4.95 -5,0 0,-2629.31 5,0 0,5 -5.25,0 0.04,-5.04 c 0.05,-5.82 0.21,-11.54 0.21,-17.2 0.02,-273.4 -123.36,-534.34 -308.98,-772.06 C 3423.11,918.648 3004.96,614.789 2656.43,400.25 2482.17,292.98 2325.33,208.012 2212.06,149.879 2155.43,120.809 2109.69,98.4492 2078.12,83.3594 2062.33,75.8086 2050.09,70.082 2041.8,66.2422 c -8.3,-3.832 -12.61,-5.7734 -12.62,-5.7813 l 2.05,-4.5625 2.04,4.5625 c -0.02,0.0079 -7.7,3.461 -22.21,10.25 C 1902.25,121.609 1412,359.02 949.242,712.301 717.867,888.922 493.383,1094.52 326.898,1320.06 160.387,1545.62 51.9609,1790.96 51.9727,2047.28 c 0,5.66 0.1679,11.38 0.2187,17.2 l 0.043,5.04 -0.2656,0 0,2624.31 -5,0 0.7031,-4.95 c 0.0429,0.01 14.2148,2.03 41.2226,5.58 189.0355,24.87 1004.0655,124.37 1939.8655,124.37 534.74,0 1031.29,-32.49 1394.12,-64.98 181.41,-16.24 329.41,-32.49 432.03,-44.67 51.32,-6.09 91.29,-11.17 118.43,-14.72 27.14,-3.55 41.39,-5.57 41.43,-5.58 l 0.7,4.95 -5,0 5,0" /></g></g></svg>