<svg xmlns="http://www.w3.org/2000/svg" viewBox="0 0 507.79999 609.90002" height="609.9" width="507.8"><defs><clipPath id="a"><path d="M2031.23 55.898S46.973 947.47 46.973 2047.28c0 5.76.172 11.49.218 17.24h-.222v2629.31s911.902 130 1981.791 130c1069.89 0 1986.71-130 1986.71-130V2064.52h-.21c.05-5.75.21-11.48.21-17.24 0-1099.811-1984.24-1991.382-1984.24-1991.382m-2.27 4571.202c-981.6 0-1818.245-119.26-1818.245-119.26V2095.49h.207c-.047-5.27-.203-10.53-.203-15.82 0-1009.04 1820.511-1827.041 1820.511-1827.041s3.03 1.371 8.79 4.012c135.92 62.668 1811.71 854.899 1811.71 1823.029 0 5.29-.15 10.55-.19 15.82h.19v2412.35h-.01c-.47.06-841.45 119.26-1822.76 119.26m2.27-4060.198s-3.79 1.7-10.93 5C1880.57 636.66 441.738 1323.86 441.738 2162.09c0 4.61.133 9.2.176 13.8h-.18v2106.22s730.476 104.13 1587.516 104.13c857.03 0 1591.46-104.13 1591.46-104.13V2175.89h-.18c.04-4.6.18-9.19.18-13.8 0-881.01-1589.48-1595.188-1589.48-1595.188"/></clipPath><linearGradient id="b" gradientTransform="matrix(3968.51 0 0 -3968.51 46.968 2439.87)" gradientUnits="userSpaceOnUse" x2="1"><stop offset="0" stop-color="#2d3691"/><stop offset=".583" stop-color="#0c0f2a"/><stop offset="1" stop-color="#0c0f2a"/></linearGradient><clipPath id="c"><path d="M2031.23 252.629S210.719 1070.63 210.719 2079.67c0 5.29.156 10.55.203 15.82h-.207v2412.35S1047.36 4627.1 2028.96 4627.1c981.31 0 1822.29-119.2 1822.76-119.26h.01V2095.49h-.19c.04-5.27.19-10.53.19-15.82 0-968.13-1675.79-1760.361-1811.71-1823.029-5.76-2.641-8.79-4.012-8.79-4.012m-1.98 4133.611c-857.04 0-1587.516-104.13-1587.516-104.13V2175.89h.18c-.043-4.6-.176-9.19-.176-13.8 0-838.23 1438.832-1525.43 1578.562-1590.188 7.14-3.3 10.93-5 10.93-5S3620.71 1281.08 3620.71 2162.09c0 4.61-.14 9.2-.18 13.8h.18v2106.22s-734.43 104.13-1591.46 104.13"/></clipPath><linearGradient id="d" gradientTransform="matrix(3968.51 0 0 -3968.51 46.968 2439.87)" gradientUnits="userSpaceOnUse" x2="1"><stop offset="0" stop-color="#212666"/><stop offset=".583" stop-color="#090b1e"/><stop offset="1" stop-color="#090b1e"/></linearGradient><clipPath id="e"><path d="M2728.28 3105.54c-37.25-8.04-103.25-8.49-149.39-8.8-27.31-.19-51.52-.36-69.08-1.71 101.52 197.08 208.72 398.35 317.98 563.49 29.42-6.96 48.91-13.46 52.05-14.53 1.15-.44 3.63-1.41 7.28-2.76-139.46-181.61-157.68-432.82-158.84-535.69zm1.07-659.01c-23.07-141.38-104.56-182.78-108.02-184.47l-36.36-26.66c43.76 50.53 61.25 110.23 52.83 180.33-10.78 89.93-98.43 165.89-191.39 165.9-29.26.01-57.14-7.38-82.87-21.96-43-24.34-65.35-66.86-67.75-71.63l-32.82-64.99 69.08 23.01c.11.04 20.32 6.55 42.75 6.55 19.11 0 32.96-4.55 41.14-13.51 12.37-13.54 12.94-38.49 11.26-57.03-2.49-27.35-35.5-102.7-287.62-211.42-87.08-37.56-174.12-67.67-229.82-85.75 6.43 18.91 11.83 39.23 12.89 56.33 1.28 20.51.57 40.57-2.09 59.86l8.48 5.66c62.51 41.68 171.77 155.7 224.82 234.63 89.38 132.88 189.51 328.55 295.53 535.83 18.2 4.8 39.24 6.91 67.69 6.91 14.4 0 29.5-.51 45.49-1.05 17.96-.6 36.53-1.23 56.39-1.23 37.03 0 78.01 2.07 115.71 14.34 8.5-92.59 18.59-403.16-5.32-549.65zm-908.98-86.08c-72.4 34.71-144.44 52.32-214.12 52.32-68.38 0-135.13-17.2-198.04-50.56 143.31 187.7 249.8 425.29 272.5 477.71 84.33 194.85 137.4 300.32 169.56 357.19 4.84-68.09 19.5-173.3 59.48-317.21 69.49-250.18 16.61-455.66-30.63-571.35-16.61 23.26-36.9 41.43-58.75 51.9zm311.58 784.16c46.16-56.58 166.02-105.27 179.55-110.63l44.19-17.55c-17.47-29.3-34.88-58.23-52.18-86.62a7106.001 7106.001 0 0 0-126.74-200.29c-2.71 99.94-17.47 260.35-75.23 427.44-9.99 28.89-17.71 58.59-23.62 88.18 10.12-33.61 27.24-67.68 54.03-100.53zm358.04 486.08c47.27 31.08 109.29 46.84 184.33 46.84 21.35 0 43.58-1.29 66.45-3.84-55.99-90.93-124.95-210.32-197.4-335.74-57.18-99.01-115.79-200.45-173.86-298.28l-20.81 36.92c-.46.81-48.13 87.2-53.71 198.6-7.33 146.01 58.28 265.62 195 355.5zm1058.36 300.11c34.09 21.59 193.75 133.13 130.23 293.09-20.03 50.44-80.62 78.46-146.93 81.98-5.43.29-10.99.43-16.52.43-315.43 0-667.22-473.76-685.01-498.01-11.04-14.4-23.77-32.44-38.65-54.85-29 3.18-57.79 6.73-87.5 10.79-21.89 2.99-57.18 6.55-101 6.55-129.38 0-364.71-32.65-487.07-251.32-12.07-21.58-51.25-98.9-50.33-191.54-13.04 127.03 1.04 233.64 1.25 235.16l8.55 62.54-53.89-32.84c-6.62-4.04-163.99-103.73-335.99-533.7-59-147.49-133.95-268.62-189.41-347.68 1.51 40.51-1.88 84.96-10.22 132.52-10.36 59-27.86 245.01-32.43 315.04-7.21 110.66 39.07 190.53 57.75 217.89 32.44 1.15 109.65 4.73 148.51 13.37 74.49 16.55 128.43 50.84 160.3 101.91 45.9 73.55 27.24 154.13 26.42 157.52l-12.01 49.85s-95.62-105.61-326.15-138.16c-28.57-4.03-58-8.96-86.52-13.82-556.968-95.09-693.996-193.35-775.867-252.06-281.648-202.03-276.082-396.73-247.695-494.81 46.52-160.73 202.168-264.29 325.77-271.57 14.992-.87 29.769-1.32 43.917-1.32 117.719 0 205.676 30.29 261.415 90.04 65.21 69.89 60.18 153.83 59.93 157.37l-3.47 50.07-42.45-26.77c-.48-.29-58.585-35.64-145.76-35.64-7.68 0-15.469.28-23.157.81-104.875 7.43-177.347 43.69-215.394 107.8-49.028 82.6-28.078 192.29-11 229.65 112.953 247.01 391.901 298.86 606.011 298.86 48.66 0 92.32-2.79 127.11-6.13-5.81-5.31-11.46-11.12-16.74-17.47-26.9-32.28-93.8-122.27-133.73-260.23-28.6-98.75-11.11-239.08 7.41-387.64 6.29-50.51 12.8-102.74 17.79-155.1 18.56-194.9-85.29-445.73-93.49-459.38-99.27-165.1-146.33-361.3-139.56-494.13 10.07-197.79 67.04-352.62 169.33-460.18 95.12-100.01 226.09-152.87 378.76-152.87 87.78 0 180.7 17.32 276.19 51.49 153.7 54.99 275.66 166.39 352.7 322.15 57.82 116.91 70.08 216.84 70.58 221.03l4.71 40.06-39.73-7.02c-5.56-.97-34.18-8.04-52.02-50.81-14.71-35.34-151.67-345.12-430.24-345.12-14.45 0-29.28.83-44.07 2.46-185.57 20.5-311.5 111.76-374.31 271.26-43.64 110.81-53.93 252.43-28.98 398.75 21.5 126.06 67.81 242.68 120.87 304.35 49.72 57.79 108.24 89.62 164.78 89.62 42.77 0 81.33-18.04 103.15-48.25 70.97-98.3 13.38-179.55-5.54-206.24l-1.22-1.71c-36.67-51.96-154.66-173.16-154.66-173.16.09.04-4.98-13.23.95-11.38 31.43 9.79 139.83 50.43 186.87 70.8 96.2 41.66 225.06 69.77 349.68 96.96 141.96 30.98 288.75 63.01 395.85 116.33 13.15 6.54 25.32 13.39 36.95 20.41 131.06 10.93 425.95 148.41 471.69 327.82 43.11 169.14 1.26 469.09-32.37 710.09-7.25 51.92-14.08 100.97-19.42 144.28-14.52 117.77 5.98 205.28 60.93 260.45 50.72-12.55 96.26-18.91 135.59-18.91 139.32 0 166.99 81.2 171.08 129.6l3.67 95.95s-75.57-81.74-281.16-78.59c-38.18.59-80.46 1.69-126.17 5.03 65.09 89.36 125.13 156.01 182.73 202.98 102.68 83.74 228.92 133.73 337.7 133.73 41.11 0 76.12-7.54 96.05-20.68 38.52-25.42 39.02-71.24 39.02-73.18l.07-56.92s2.18-1.81 5.57.35z"/></clipPath><linearGradient id="f" gradientTransform="translate(3693.36 2656.56) scale(-3308.08 3308.08)" gradientUnits="userSpaceOnUse" x2="1"><stop offset="0" stop-color="#2d3691"/><stop offset=".583" stop-color="#0c0f2a"/><stop offset="1" stop-color="#0c0f2a"/></linearGradient><clipPath id="g"><path d="M2890.2 3672.16s18.86-7.48 47.93-16.62c-2.75-3.02-5.61-6.2-8.55-9.63-149.1-173.08-172.88-434.74-171.3-562.31-52.53-23.74-205.87-13.22-254.15-19.27-20.36-2.54-36.41-6.53-49.33-10.74 113.76 221.95 235 453.72 359.43 638.67 45.95-9.57 75.97-20.1 75.97-20.1zm688.15 318.64c103.18 70.7 128.37 285.17-48.3 285.11-308.87-.11-675.93-485.63-675.93-485.63-13.56-17.64-29.62-40.95-47.63-68.61-33.16 3.44-68.45 7.62-106.58 12.83-58.63 8.01-403.61 45.94-557.83-229.69-37.36-66.78-88.58-216.56 13.12-341.23 42.56-52.18 167.36-101.72 167.36-101.72s-203.44 360.92 150.94 593.89c96.99 63.77 227.98 56.76 317.04 41.04-114.1-180.06-295.86-510.84-461.41-782.59-101.76-166.98-183.74-285.46-183.74-285.46s19.67 252.63-72.21 518.43c-67.16 194.28-36.09 419.99-36.09 419.99s-153.48-93.58-323.75-519.22c-105-262.5-263.59-448.73-273.44-458.59-9.85-9.85 49.22 62.34 16.41 249.39-10.79 61.47-28.33 249.43-32.81 318.26-9.85 150.94 72.18 249.37 72.18 249.37s110.86 2.76 157.5 13.13c206.72 45.94 164.06 223.13 164.06 223.13s-44.06-67.86-390.46-124.68c-538.714-88.38-678.346-185.86-763.428-246.87-475.778-341.26-160.778-698.92 62.347-712.04 349.811-20.57 333.581 214.05 333.581 214.05s-74.979-47.28-187.03-39.37c-324.844 22.97-286.004 304.52-251.562 379.84 194.699 425.79 849.852 298.6 849.852 298.6s-50.33-15.62-83.14-55-91.87-124.68-127.96-249.37c-36.11-124.69 6.56-324.84 26.24-531.57 19.69-206.74-68.91-377.34-68.91-377.34s53.46 51.31 91.88 91.87c177.19 187.04 317.31 498.22 344.53 561.09 190.31 439.69 226.41 436.41 226.41 436.41s-15.97-130.2 59.06-400.32c65.63-236.24 29.53-459.34-45.94-623.43-3.66-7.95-7.95-15.64-12.56-23.02-16.88 48.28-47.09 79.63-72.74 91.91-479.06 229.71-770.61-399.28-754.68-711.99 26.24-515.16 383.53-678.201 784.21-534.85 357.66 127.97 403.59 518.44 403.59 518.44s-17.13-3.03-29.55-32.81c-22.11-53.13-178.9-397.01-505.29-360.94-593.91 65.61-476.21 821.12-301.87 1023.75 121.4 141.1 262.22 112.44 314.99 39.36 85.31-118.15 11.23-217.6-6.56-242.81-39.38-55.79-118.13-121.41-118.13-121.41s57.72 27.75 114.85 52.5c318.28 137.83 938.44 121.41 899.04 449.53-11.34 94.53-131.23 177.19-229.68 121.41-36.34-20.57-55.77-59.05-55.77-59.05s147.66 49.2 134.52-95.17c-15.83-173.97-599.36-342.03-599.36-342.03s32.53 66.34 34.99 105.78c1.66 26.6-.43 50.64-5.09 72.07 7.8 5.21 16.05 10.72 24.78 16.54 59.06 39.38 165.93 151.08 216.56 226.41 89.99 133.79 191.15 332.22 299.5 544.06 54.72 18.94 115.56 9.66 190.5 9.66 53.87 0 102.82 4.97 141.07 28.67.65-8.71 1.4-16.02 2.21-21.32 9.83-65.62 22.96-416.72-3.28-577.5-26.23-160.78-124.7-206.7-124.7-206.7s269.07 101.68 311.73 269.05c50.91 199.74-22.97 603.75-52.5 843.28-22.26 180.6 39.41 260.44 82.35 297.26 105.98-28.36 273.98-51.82 285.14 80.08l3.77 44.46s-30.33-88.19-432.4-50.08c72.17 104.28 145.31 191.93 218.63 251.71 188.89 154.04 396.97 162.5 469.23 114.84 53.44-35.27 52.5-98.43 52.5-98.43s-.63-.66 5.64 3.64z"/></clipPath><linearGradient id="h" gradientTransform="matrix(3244.24 0 0 -3244.24 415.088 2656.37)" gradientUnits="userSpaceOnUse" x2="1"><stop offset="0" stop-color="#d18a0b"/><stop offset=".202" stop-color="#fddd10"/><stop offset=".436" stop-color="#fff"/><stop offset=".748" stop-color="#fddd10"/><stop offset=".975" stop-color="#fff"/><stop offset="1" stop-color="#fff"/></linearGradient><clipPath id="i"><path d="M3763.68 2152.15h-.2c.05-5.02.2-10.02.2-15.05 0-960.24-1732.45-1738.67-1732.45-1738.67S298.773 1176.86 298.773 2137.1c0 5.03.149 10.03.192 15.05h-.195V4447.8s796.18 113.5 1730.3 113.5 1734.61-113.5 1734.61-113.5V2152.15zm251.79 2541.68s-916.82 130-1986.71 130c-1069.889 0-1981.791-130-1981.791-130V2064.52h.222c-.047-5.75-.218-11.48-.218-17.24C46.973 947.469 2031.23 55.898 2031.23 55.898S4015.47 947.47 4015.47 2047.28c0 5.76-.16 11.49-.21 17.24h.21v2629.31z"/></clipPath><linearGradient id="j" gradientTransform="matrix(3968.51 0 0 -3968.51 46.968 2439.87)" gradientUnits="userSpaceOnUse" x2="1"><stop offset="0" stop-color="#d18a0b"/><stop offset=".202" stop-color="#fddd10"/><stop offset=".436" stop-color="#fff"/><stop offset=".748" stop-color="#fddd10"/><stop offset=".975" stop-color="#fff"/><stop offset="1" stop-color="#fff"/></linearGradient></defs><g clip-path="url(#a)" transform="matrix(.13 0 0 -.13 0 609.9)"><path d="M2031.23 55.898S46.973 947.47 46.973 2047.28c0 5.76.172 11.49.218 17.24h-.222v2629.31s911.902 130 1981.791 130c1069.89 0 1986.71-130 1986.71-130V2064.52h-.21c.05-5.75.21-11.48.21-17.24 0-1099.811-1984.24-1991.382-1984.24-1991.382m-2.27 4571.202c-981.6 0-1818.245-119.26-1818.245-119.26V2095.49h.207c-.047-5.27-.203-10.53-.203-15.82 0-1009.04 1820.511-1827.041 1820.511-1827.041s3.03 1.371 8.79 4.012c135.92 62.668 1811.71 854.899 1811.71 1823.029 0 5.29-.15 10.55-.19 15.82h.19v2412.35h-.01c-.47.06-841.45 119.26-1822.76 119.26m2.27-4060.198s-3.79 1.7-10.93 5C1880.57 636.66 441.738 1323.86 441.738 2162.09c0 4.61.133 9.2.176 13.8h-.18v2106.22s730.476 104.13 1587.516 104.13c857.03 0 1591.46-104.13 1591.46-104.13V2175.89h-.18c.04-4.6.18-9.19.18-13.8 0-881.01-1589.48-1595.188-1589.48-1595.188" fill="url(#b)"/></g><g clip-path="url(#c)" transform="matrix(.13 0 0 -.13 0 609.9)"><path d="M2031.23 252.629S210.719 1070.63 210.719 2079.67c0 5.29.156 10.55.203 15.82h-.207v2412.35S1047.36 4627.1 2028.96 4627.1c981.31 0 1822.29-119.2 1822.76-119.26h.01V2095.49h-.19c.04-5.27.19-10.53.19-15.82 0-968.13-1675.79-1760.361-1811.71-1823.029-5.76-2.641-8.79-4.012-8.79-4.012m-1.98 4133.611c-857.04 0-1587.516-104.13-1587.516-104.13V2175.89h.18c-.043-4.6-.176-9.19-.176-13.8 0-838.23 1438.832-1525.43 1578.562-1590.188 7.14-3.3 10.93-5 10.93-5S3620.71 1281.08 3620.71 2162.09c0 4.61-.14 9.2-.18 13.8h.18v2106.22s-734.43 104.13-1591.46 104.13" fill="url(#d)"/></g><g clip-path="url(#e)" transform="matrix(.13 0 0 -.13 0 609.9)"><path d="M2728.28 3105.54c-37.25-8.04-103.25-8.49-149.39-8.8-27.31-.19-51.52-.36-69.08-1.71 101.52 197.08 208.72 398.35 317.98 563.49 29.42-6.96 48.91-13.46 52.05-14.53 1.15-.44 3.63-1.41 7.28-2.76-139.46-181.61-157.68-432.82-158.84-535.69zm1.07-659.01c-23.07-141.38-104.56-182.78-108.02-184.47l-36.36-26.66c43.76 50.53 61.25 110.23 52.83 180.33-10.78 89.93-98.43 165.89-191.39 165.9-29.26.01-57.14-7.38-82.87-21.96-43-24.34-65.35-66.86-67.75-71.63l-32.82-64.99 69.08 23.01c.11.04 20.32 6.55 42.75 6.55 19.11 0 32.96-4.55 41.14-13.51 12.37-13.54 12.94-38.49 11.26-57.03-2.49-27.35-35.5-102.7-287.62-211.42-87.08-37.56-174.12-67.67-229.82-85.75 6.43 18.91 11.83 39.23 12.89 56.33 1.28 20.51.57 40.57-2.09 59.86l8.48 5.66c62.51 41.68 171.77 155.7 224.82 234.63 89.38 132.88 189.51 328.55 295.53 535.83 18.2 4.8 39.24 6.91 67.69 6.91 14.4 0 29.5-.51 45.49-1.05 17.96-.6 36.53-1.23 56.39-1.23 37.03 0 78.01 2.07 115.71 14.34 8.5-92.59 18.59-403.16-5.32-549.65zm-908.98-86.08c-72.4 34.71-144.44 52.32-214.12 52.32-68.38 0-135.13-17.2-198.04-50.56 143.31 187.7 249.8 425.29 272.5 477.71 84.33 194.85 137.4 300.32 169.56 357.19 4.84-68.09 19.5-173.3 59.48-317.21 69.49-250.18 16.61-455.66-30.63-571.35-16.61 23.26-36.9 41.43-58.75 51.9zm311.58 784.16c46.16-56.58 166.02-105.27 179.55-110.63l44.19-17.55c-17.47-29.3-34.88-58.23-52.18-86.62a7106.001 7106.001 0 0 0-126.74-200.29c-2.71 99.94-17.47 260.35-75.23 427.44-9.99 28.89-17.71 58.59-23.62 88.18 10.12-33.61 27.24-67.68 54.03-100.53zm358.04 486.08c47.27 31.08 109.29 46.84 184.33 46.84 21.35 0 43.58-1.29 66.45-3.84-55.99-90.93-124.95-210.32-197.4-335.74-57.18-99.01-115.79-200.45-173.86-298.28l-20.81 36.92c-.46.81-48.13 87.2-53.71 198.6-7.33 146.01 58.28 265.62 195 355.5zm1058.36 300.11c34.09 21.59 193.75 133.13 130.23 293.09-20.03 50.44-80.62 78.46-146.93 81.98-5.43.29-10.99.43-16.52.43-315.43 0-667.22-473.76-685.01-498.01-11.04-14.4-23.77-32.44-38.65-54.85-29 3.18-57.79 6.73-87.5 10.79-21.89 2.99-57.18 6.55-101 6.55-129.38 0-364.71-32.65-487.07-251.32-12.07-21.58-51.25-98.9-50.33-191.54-13.04 127.03 1.04 233.64 1.25 235.16l8.55 62.54-53.89-32.84c-6.62-4.04-163.99-103.73-335.99-533.7-59-147.49-133.95-268.62-189.41-347.68 1.51 40.51-1.88 84.96-10.22 132.52-10.36 59-27.86 245.01-32.43 315.04-7.21 110.66 39.07 190.53 57.75 217.89 32.44 1.15 109.65 4.73 148.51 13.37 74.49 16.55 128.43 50.84 160.3 101.91 45.9 73.55 27.24 154.13 26.42 157.52l-12.01 49.85s-95.62-105.61-326.15-138.16c-28.57-4.03-58-8.96-86.52-13.82-556.968-95.09-693.996-193.35-775.867-252.06-281.648-202.03-276.082-396.73-247.695-494.81 46.52-160.73 202.168-264.29 325.77-271.57 14.992-.87 29.769-1.32 43.917-1.32 117.719 0 205.676 30.29 261.415 90.04 65.21 69.89 60.18 153.83 59.93 157.37l-3.47 50.07-42.45-26.77c-.48-.29-58.585-35.64-145.76-35.64-7.68 0-15.469.28-23.157.81-104.875 7.43-177.347 43.69-215.394 107.8-49.028 82.6-28.078 192.29-11 229.65 112.953 247.01 391.901 298.86 606.011 298.86 48.66 0 92.32-2.79 127.11-6.13-5.81-5.31-11.46-11.12-16.74-17.47-26.9-32.28-93.8-122.27-133.73-260.23-28.6-98.75-11.11-239.08 7.41-387.64 6.29-50.51 12.8-102.74 17.79-155.1 18.56-194.9-85.29-445.73-93.49-459.38-99.27-165.1-146.33-361.3-139.56-494.13 10.07-197.79 67.04-352.62 169.33-460.18 95.12-100.01 226.09-152.87 378.76-152.87 87.78 0 180.7 17.32 276.19 51.49 153.7 54.99 275.66 166.39 352.7 322.15 57.82 116.91 70.08 216.84 70.58 221.03l4.71 40.06-39.73-7.02c-5.56-.97-34.18-8.04-52.02-50.81-14.71-35.34-151.67-345.12-430.24-345.12-14.45 0-29.28.83-44.07 2.46-185.57 20.5-311.5 111.76-374.31 271.26-43.64 110.81-53.93 252.43-28.98 398.75 21.5 126.06 67.81 242.68 120.87 304.35 49.72 57.79 108.24 89.62 164.78 89.62 42.77 0 81.33-18.04 103.15-48.25 70.97-98.3 13.38-179.55-5.54-206.24l-1.22-1.71c-36.67-51.96-154.66-173.16-154.66-173.16.09.04-4.98-13.23.95-11.38 31.43 9.79 139.83 50.43 186.87 70.8 96.2 41.66 225.06 69.77 349.68 96.96 141.96 30.98 288.75 63.01 395.85 116.33 13.15 6.54 25.32 13.39 36.95 20.41 131.06 10.93 425.95 148.41 471.69 327.82 43.11 169.14 1.26 469.09-32.37 710.09-7.25 51.92-14.08 100.97-19.42 144.28-14.52 117.77 5.98 205.28 60.93 260.45 50.72-12.55 96.26-18.91 135.59-18.91 139.32 0 166.99 81.2 171.08 129.6l3.67 95.95s-75.57-81.74-281.16-78.59c-38.18.59-80.46 1.69-126.17 5.03 65.09 89.36 125.13 156.01 182.73 202.98 102.68 83.74 228.92 133.73 337.7 133.73 41.11 0 76.12-7.54 96.05-20.68 38.52-25.42 39.02-71.24 39.02-73.18l.07-56.92s2.18-1.81 5.57.35" fill="url(#f)"/></g><g clip-path="url(#g)" transform="matrix(.13 0 0 -.13 0 609.9)"><path d="M2890.2 3672.16s18.86-7.48 47.93-16.62c-2.75-3.02-5.61-6.2-8.55-9.63-149.1-173.08-172.88-434.74-171.3-562.31-52.53-23.74-205.87-13.22-254.15-19.27-20.36-2.54-36.41-6.53-49.33-10.74 113.76 221.95 235 453.72 359.43 638.67 45.95-9.57 75.97-20.1 75.97-20.1zm688.15 318.64c103.18 70.7 128.37 285.17-48.3 285.11-308.87-.11-675.93-485.63-675.93-485.63-13.56-17.64-29.62-40.95-47.63-68.61-33.16 3.44-68.45 7.62-106.58 12.83-58.63 8.01-403.61 45.94-557.83-229.69-37.36-66.78-88.58-216.56 13.12-341.23 42.56-52.18 167.36-101.72 167.36-101.72s-203.44 360.92 150.94 593.89c96.99 63.77 227.98 56.76 317.04 41.04-114.1-180.06-295.86-510.84-461.41-782.59-101.76-166.98-183.74-285.46-183.74-285.46s19.67 252.63-72.21 518.43c-67.16 194.28-36.09 419.99-36.09 419.99s-153.48-93.58-323.75-519.22c-105-262.5-263.59-448.73-273.44-458.59-9.85-9.85 49.22 62.34 16.41 249.39-10.79 61.47-28.33 249.43-32.81 318.26-9.85 150.94 72.18 249.37 72.18 249.37s110.86 2.76 157.5 13.13c206.72 45.94 164.06 223.13 164.06 223.13s-44.06-67.86-390.46-124.68c-538.714-88.38-678.346-185.86-763.428-246.87-475.778-341.26-160.778-698.92 62.347-712.04 349.811-20.57 333.581 214.05 333.581 214.05s-74.979-47.28-187.03-39.37c-324.844 22.97-286.004 304.52-251.562 379.84 194.699 425.79 849.852 298.6 849.852 298.6s-50.33-15.62-83.14-55-91.87-124.68-127.96-249.37c-36.11-124.69 6.56-324.84 26.24-531.57 19.69-206.74-68.91-377.34-68.91-377.34s53.46 51.31 91.88 91.87c177.19 187.04 317.31 498.22 344.53 561.09 190.31 439.69 226.41 436.41 226.41 436.41s-15.97-130.2 59.06-400.32c65.63-236.24 29.53-459.34-45.94-623.43-3.66-7.95-7.95-15.64-12.56-23.02-16.88 48.28-47.09 79.63-72.74 91.91-479.06 229.71-770.61-399.28-754.68-711.99 26.24-515.16 383.53-678.201 784.21-534.85 357.66 127.97 403.59 518.44 403.59 518.44s-17.13-3.03-29.55-32.81c-22.11-53.13-178.9-397.01-505.29-360.94-593.91 65.61-476.21 821.12-301.87 1023.75 121.4 141.1 262.22 112.44 314.99 39.36 85.31-118.15 11.23-217.6-6.56-242.81-39.38-55.79-118.13-121.41-118.13-121.41s57.72 27.75 114.85 52.5c318.28 137.83 938.44 121.41 899.04 449.53-11.34 94.53-131.23 177.19-229.68 121.41-36.34-20.57-55.77-59.05-55.77-59.05s147.66 49.2 134.52-95.17c-15.83-173.97-599.36-342.03-599.36-342.03s32.53 66.34 34.99 105.78c1.66 26.6-.43 50.64-5.09 72.07 7.8 5.21 16.05 10.72 24.78 16.54 59.06 39.38 165.93 151.08 216.56 226.41 89.99 133.79 191.15 332.22 299.5 544.06 54.72 18.94 115.56 9.66 190.5 9.66 53.87 0 102.82 4.97 141.07 28.67.65-8.71 1.4-16.02 2.21-21.32 9.83-65.62 22.96-416.72-3.28-577.5-26.23-160.78-124.7-206.7-124.7-206.7s269.07 101.68 311.73 269.05c50.91 199.74-22.97 603.75-52.5 843.28-22.26 180.6 39.41 260.44 82.35 297.26 105.98-28.36 273.98-51.82 285.14 80.08l3.77 44.46s-30.33-88.19-432.4-50.08c72.17 104.28 145.31 191.93 218.63 251.71 188.89 154.04 396.97 162.5 469.23 114.84 53.44-35.27 52.5-98.43 52.5-98.43s-.63-.66 5.64 3.64" fill="url(#h)"/></g><path d="M361.275 150.88l-.23.581c.01.005 2.38.944 6.034 2.093l.187-.596-.462-.422c-.346.38-.708.784-1.08 1.218h.001c-18.259 21.22-21.565 52.765-21.574 69.251 0 .499.003.984.009 1.454l.625-.009-.258-.569c-1.524.693-3.913 1.17-6.696 1.47-4.177.454-9.252.535-13.847.57-4.603.038-8.701.027-11.046.318-2.583.322-4.632.83-6.282 1.369l.194.593.556.285c14.218-27.74 29.366-56.695 44.891-79.77l-.518-.348-.128.612a93.639 93.639 0 0 1 6.856 1.693c.822.237 1.464.438 1.9.578.437.14.66.219.66.219l.208-.59-.23.581.23-.581.207-.589c-.02-.007-3.796-1.332-9.576-2.535a.624.624 0 0 0-.646.263c-15.583 23.162-30.744 52.149-44.966 79.897a.623.623 0 0 0 .75.879c1.58-.515 3.545-1.004 6.05-1.316 2.917-.369 9.245-.235 15.621-.37 3.192-.069 6.407-.206 9.251-.515 2.848-.313 5.316-.783 7.076-1.574a.626.626 0 0 0 .368-.577 107.19 107.19 0 0 1-.009-1.438c-.01-16.331 3.346-47.654 21.27-68.436l.001-.001c.363-.422.714-.815 1.057-1.19a.626.626 0 0 0-.275-1.016 111.917 111.917 0 0 1-4.334-1.46 60.964 60.964 0 0 1-1.198-.442c-.275-.104-.416-.16-.417-.16l-.023-.009-.207.589zm86.019-39.83l.354.515c6.384-4.393 10.38-12.9 10.392-20.67.001-4.221-1.196-8.256-3.928-11.245-2.73-2.991-6.97-4.869-12.846-4.864h-.011.001c-9.819.006-20.017 3.853-29.805 9.576-29.35 17.178-55.157 51.35-55.185 51.376l.003-.004c-1.71 2.226-3.725 5.15-5.982 8.617l.524.34.065-.621c-4.14-.43-8.544-.952-13.304-1.602-1.943-.265-6.373-.79-12.2-.79-8.17 0-19.095 1.028-29.796 5.268-10.699 4.237-21.181 11.709-28.361 24.548-2.671 4.779-5.891 12.859-5.895 21.887-.003 6.987 1.949 14.548 7.596 21.467 2.786 3.402 8.054 6.576 12.651 8.963 4.595 2.379 8.51 3.933 8.523 3.938a.627.627 0 0 0 .775-.888l-.076-.14c-.775-1.425-7.114-13.642-7.109-28.887.016-14.168 5.401-30.92 25.851-44.381 7.343-4.83 16.334-6.37 24.759-6.37 5.207 0 10.193.587 14.419 1.333l.109-.615-.528-.335c-14.283 22.54-36.998 63.88-57.682 97.834a890.456 890.456 0 0 1-16.243 25.65 698.352 698.352 0 0 1-4.909 7.368c-1.159 1.712-1.795 2.63-1.796 2.633l.514.357.624.048c0-.013.222-2.868.222-7.758-.001-11.42-1.207-33.937-9.281-57.298-4.326-12.511-5.375-26.126-5.374-36.313 0-4.712.223-8.692.446-11.49.112-1.4.223-2.505.307-3.257.083-.752.138-1.149.138-1.15a.624.624 0 0 0-.945-.619c-.14.085-19.406 11.912-40.723 65.205-6.542 16.353-14.758 30.34-21.49 40.388-3.365 5.024-6.36 9.064-8.59 11.921a126.484 126.484 0 0 1-2.715 3.374c-.677.809-1.13 1.314-1.248 1.431h.001l-.036.035.003.004-.002-.004h-.001l.003.004-.002-.004.297.396-.23-.439-.067.043.297.396-.23-.439.277.532v-.598c-.17.005-.232.049-.276.066l.276.532v-.598.618l.511-.347c-.102-.173-.367-.286-.511-.27v.617l.511-.347-.504.343h.61c-.003-.063 0-.176-.106-.343l-.503.343h.61-.493l.469.159c0-.012.017-.02.024-.159h-.493l.469.159.001-.003c.018-.045.101-.224.216-.467.819-1.749 3.254-7.343 3.25-17.494 0-3.853-.347-8.363-1.262-13.575-1.338-7.617-3.535-31.142-4.093-39.716a47.6 47.6 0 0 1-.101-3.099c-.001-8.429 2.251-15.346 4.504-20.156a43.599 43.599 0 0 1 3.092-5.553 29.695 29.695 0 0 1 1.292-1.807l.092-.115-.48-.4.016.623c.004 0 3.474-.086 7.679-.335 4.209-.25 9.133-.656 12.128-1.32 9.267-2.053 14.68-6.24 17.725-10.816 3.046-4.574 3.727-9.481 3.727-12.975 0-2.886-.464-4.821-.472-4.856a.627.627 0 0 0-.502-.47.628.628 0 0 0-.63.276l.015.01-.015-.011v.001l.015.01-.015-.011c-.086.124-1.697 2.243-8.541 5.181-6.842 2.939-18.904 6.694-39.844 10.129-33.696 5.528-54.934 11.344-69.1 16.745-14.161 5.396-21.267 10.403-26.591 14.223-22.847 16.378-31.296 33.182-31.294 47.828 0 11.817 5.493 22.139 13.142 29.622 7.655 7.483 17.468 12.163 26.273 12.687 1.847.109 3.614.16 5.306.16 17.573.01 26.925-5.656 31.8-11.914 4.873-6.251 5.265-12.972 5.267-15.031 0-.401-.015-.626-.015-.64a.623.623 0 0 0-.958-.485l-.081.049c-.861.519-8.495 4.89-19.805 4.887-1.01 0-2.048-.035-3.115-.11-13.726-.976-22.087-5.642-27.065-11.681-4.977-6.041-6.594-13.535-6.594-20.236-.003-6.244 1.415-11.795 2.738-14.679 7.543-16.487 20.638-26.261 35.153-31.946 14.51-5.683 30.423-7.239 43.442-7.238 7.777 0 14.521.554 19.317 1.108 2.399.277 4.31.554 5.62.761a86.54 86.54 0 0 1 2.011.344l.12-.614-.186-.597c-.05.023-6.429 1.98-10.686 7.072-4.148 4.978-11.573 15.709-16.115 31.398-1.286 4.443-1.779 9.595-1.78 15.278.002 14.632 3.27 32.819 5.039 51.4.243 2.564.353 5.083.353 7.542 0 11.062-2.227 20.895-4.456 27.956a91.59 91.59 0 0 1-3.062 8.319c-.418.975-.764 1.73-1.007 2.238-.12.254-.215.448-.28.577l-.095.19a.623.623 0 0 0 .987.738c.003-.003 6.687-6.417 11.506-11.506 22.257-23.505 39.764-62.427 43.186-70.317 11.713-27.063 18.748-40.684 22.851-47.51 2.05-3.412 3.37-5.124 4.148-5.954.387-.415.64-.606.762-.681l.067-.038.016-.007-.119-.317v.333l.119-.016-.119-.317v.333-.599l-.067.594.067.005v-.599l-.067.594.07-.62-.62-.076c-.004.025-.183 1.5-.183 4.46-.001 6.953.99 22.09 7.583 45.823a115.857 115.857 0 0 1 4.257 31.063c0 17.476-3.992 33.451-9.965 46.437a25.366 25.366 0 0 1-1.532 2.808l.53.331.59-.206c-2.165-6.175-6.017-10.213-9.413-11.846-8.991-4.312-17.485-6.234-25.416-6.234-10.984-.001-20.868 3.689-29.479 9.732-12.917 9.068-23.002 23.412-29.876 38.672-6.873 15.263-10.534 31.443-10.536 44.26 0 1.08.026 2.135.078 3.165 1.267 24.896 8.703 43.323 20.31 55.528 11.604 12.207 27.355 18.14 45.082 18.137 10.591 0 21.892-2.112 33.468-6.254 22.545-8.065 35.274-24.418 42.34-38.713 7.072-14.298 8.514-26.562 8.52-26.607a.623.623 0 0 0-.73-.689c-.078.014-.716.145-1.536.775-.821.629-1.814 1.754-2.625 3.703-1.296 3.116-6.39 14.425-15.702 24.916-9.321 10.496-22.806 20.146-40.963 20.146-1.899 0-3.849-.105-5.851-.326-20.762-2.301-34.411-11.343-42.945-23.719-8.53-12.377-11.915-28.147-11.914-43.852 0-12.17 2.032-24.294 5.245-34.738 3.21-10.441 7.613-19.205 12.285-24.631 7.69-8.931 15.924-12.286 22.967-12.289 6.698-.001 12.34 3.05 15.426 7.328 3.671 5.088 4.911 9.837 4.914 14.018.002 7.734-4.292 13.565-5.738 15.607-2.415 3.423-6.088 7.203-9.149 10.11a136.615 136.615 0 0 1-5.08 4.585c-.276.236-.426.36-.426.36a.626.626 0 0 0-.126.82c.17.263.512.36.796.225.001-.002.45-.217 1.236-.59 2.36-1.12 7.754-3.648 13.099-5.963 19.152-8.301 47.297-12.132 70.682-18.535 11.695-3.206 22.213-7.054 29.865-12.496 3.826-2.723 6.936-5.85 9.09-9.504 2.155-3.652 3.345-7.829 3.343-12.59 0-1.201-.075-2.439-.228-3.715-.575-4.767-3.25-9.247-7.03-12.55-3.785-3.299-8.692-5.432-13.79-5.435-2.95 0-5.962.721-8.82 2.34-4.742 2.699-7.187 7.596-7.22 7.643a.626.626 0 0 0 .755.875l.124-.04c.593-.183 3.253-.94 6.208-.94 2.305 0 4.76.462 6.595 1.912 1.828 1.449 3.16 3.89 3.168 8.194 0 .664-.032 1.37-.1 2.121-.23 2.546-1.513 5.145-3.647 7.74-3.73 4.541-10.035 9.013-17.385 13.111-11.026 6.155-24.395 11.502-34.999 15.302a370.829 370.829 0 0 1-13.2 4.455 272.108 272.108 0 0 1-5.239 1.602l.173.6.561.275a70.71 70.71 0 0 0 2.093-4.809c1.062-2.721 2.176-6.046 2.343-8.65a36.28 36.28 0 0 0 .072-2.277c0-2.493-.263-4.795-.72-6.903l-.612.133.348.52c.975-.653 2.006-1.34 3.097-2.068 3.765-2.513 8.958-7.248 14.034-12.552 5.074-5.305 10.01-11.164 13.208-15.92 11.283-16.779 23.93-41.59 37.475-68.071l-.557-.285.205.59c3.354-1.162 6.93-1.458 10.873-1.458 3.864 0 8.074.284 12.735.285 6.766-.004 13.002-.611 17.964-3.677l-.33-.532-.623.045c.081 1.1.176 2.025.281 2.714v-.001c.34 2.255.72 7.404 1.01 14.037.293 6.638.498 14.779.498 23.09.001 12.873-.495 26.165-1.916 34.867-1.623 9.935-5.46 16.275-8.875 20.142-1.709 1.934-3.313 3.248-4.483 4.075a17.36 17.36 0 0 1-1.389.893 8.888 8.888 0 0 1-.372.203l-.093.047-.023.012a.624.624 0 0 0 .485 1.15c.025-.009 8.463-3.197 17.598-9.027 9.124-5.835 18.997-14.293 21.753-25.033 1.575-6.186 2.197-13.859 2.199-22.374-.003-26.3-5.963-60.668-8.748-83.267-.402-3.264-.582-6.259-.582-9.006.013-16.124 6.186-23.745 10.663-27.6l-.407-.475-.161.603c5.367 1.435 12.001 2.777 18.155 2.778 4.561-.003 8.872-.733 12.211-2.784 3.344-2.045 5.642-5.474 6.06-10.555l.471-5.557a.625.625 0 0 0-1.214-.257l.195.068-.19-.078-.005.01.195.068-.19-.078c-.023.045-.726 1.775-4.95 3.539-4.223 1.758-11.958 3.505-25.883 3.504-6.213 0-13.658-.346-22.572-1.191l-.058.622.513.355c9.002-13.007 18.118-23.922 27.21-31.335 15.585-12.712 32.222-17.421 44.188-17.419 6.027-.005 10.865 1.207 13.727 3.102 3.082 2.035 4.648 4.84 5.453 7.225.804 2.38.83 4.323.829 4.53v.022a.622.622 0 0 0 .622.63.623.623 0 0 0 .464-1.046c-.125-.126-.175-.13-.213-.151l-.1-.034-.058-.011-.013-.003-.077-.005c-.124.003-.18.028-.223.041-.141.062-.136.078-.164.093l-.07.066-.068.085c-.023.051-.088.096-.103.344-.01.12.065.367.243.495.171.126.31.129.383.131l.19-.029c.112-.038.122-.053.165-.076.105-.06.275-.17.705-.465l-.353-.515-.353-.516c-.297.204-.467.317-.556.372l-.069.043.173.314-.144-.328-.029.014.173.314-.144-.328.23.521-.17-.543-.06.022.23.521-.17-.543.182.586v-.614l-.182.028.182.586v-.614.624l.382-.494c-.17-.126-.309-.127-.382-.13v.624l.382-.494-.382.494h.624a.636.636 0 0 0-.242-.494l-.382.494h.624-.622l.547.296c.023-.05.069-.115.075-.296h-.622l.547.296-.541-.292.461.407.08-.115-.541-.292.461.407-.461-.407.427.443.034-.036-.461-.407.427.443-.432-.448.397.48.035-.032-.432-.448.397.48-.398-.482.346.52.052-.038-.398-.482.346.52-.074.042-.272-.563v.625c.182-.006.227-.046.272-.062l-.272-.563v.625-.625l-.078.62-.019-.001-.037-.008-.07-.02-.115-.053-.143-.115.462-.423h-.625a.623.623 0 0 0 .163.423l.462-.423h-.625a.626.626 0 0 0 1.25.006v-.032c-.002-.298-.03-2.364-.894-4.931-.863-2.563-2.579-5.644-5.95-7.87-3.191-2.097-8.221-3.303-14.415-3.307-12.283.002-29.165 4.809-44.978 17.7-9.237 7.534-18.406 18.53-27.447 31.593a.624.624 0 0 0 .455.977c8.946.849 16.429 1.198 22.689 1.198 14.481-.001 22.413-1.865 26.782-3.78 4.365-1.908 5.174-3.918 5.229-4.096l-.591-.203-.623-.054-.059.695-.412 4.864c-.416 4.765-2.446 7.72-5.47 9.596-3.03 1.87-7.126 2.6-11.556 2.598-5.974.001-12.528-1.315-17.832-2.735a.623.623 0 0 0-.568.13c-4.697 4.009-11.114 12.102-11.1 28.549 0 2.802.183 5.848.592 9.158 2.793 22.644 8.739 56.987 8.738 83.115 0 8.453-.624 16.042-2.16 22.065-2.579 10.18-12.189 18.538-21.214 24.288-4.508 2.877-8.856 5.109-12.074 6.619a99.01 99.01 0 0 1-3.859 1.715 68.79 68.79 0 0 1-1.066.435c-.244.096-.369.143-.369.143l.22.585.265.566c.058-.027 3.21-1.506 6.768-5.534 3.559-4.027 7.515-10.605 9.171-20.77 1.443-8.842 1.934-22.157 1.934-35.067 0-8.332-.205-16.489-.499-23.145-.294-6.661-.67-11.801-1.022-14.167l-.002-.003a36.786 36.786 0 0 1-.27-2.616.623.623 0 0 0-.952-.485c-4.603 2.857-10.605 3.494-17.305 3.49-4.611 0-8.81-.284-12.735-.285-4.003.001-7.726.296-11.281 1.528a.62.62 0 0 0-.353.305c-13.542 26.478-26.186 51.275-37.4 67.943-3.131 4.661-8.039 10.491-13.074 15.753-5.03 5.262-10.207 9.969-13.823 12.377l-3.099 2.068a.627.627 0 0 0-.263.652c.44 2.02.692 4.233.692 6.638 0 .716-.023 1.45-.069 2.2-.14 2.325-1.214 5.612-2.26 8.271a73.512 73.512 0 0 1-1.879 4.357l-.171.358a.626.626 0 0 0 .734.876c.013-.005 18.265-5.26 36.792-13.249 9.264-3.996 18.598-8.672 25.774-13.74 3.587-2.537 6.639-5.17 8.875-7.888 2.232-2.716 3.662-5.53 3.926-8.42.073-.788.106-1.531.106-2.235.01-4.551-1.472-7.474-3.646-9.176-2.169-1.703-4.909-2.177-7.367-2.18-3.614.005-6.69 1.033-6.727 1.043l.198.594.559.281.022-.045c.251-.491 2.628-4.782 6.698-7.073a16.487 16.487 0 0 1 8.202-2.178c4.744-.001 9.386 2 12.968 5.128 3.583 3.125 6.087 7.36 6.612 11.757.148 1.229.219 2.416.219 3.565-.001 4.555-1.125 8.486-3.17 11.955-3.573 6.066-10.018 10.729-18.261 14.502-12.36 5.663-28.707 9.306-45.128 12.888-16.424 3.587-32.922 7.115-45.669 12.633-7.156 3.1-14.375 6.57-14.378 6.572l.271.564.4.48c.017-.02 9.869-8.211 14.876-15.295 1.443-2.05 5.963-8.13 5.966-16.328.003-4.432-1.336-9.473-5.15-14.75-3.343-4.63-9.36-7.845-16.44-7.846-7.448-.002-16.046 3.574-23.913 12.724-4.843 5.634-9.28 14.517-12.533 25.079-3.249 10.56-5.3 22.795-5.3 35.105.001 15.878 3.413 31.895 12.134 44.562 8.719 12.669 22.777 21.933 43.837 24.251 2.048.227 4.044.334 5.99.334 18.627 0 32.45-9.917 41.897-20.567 9.455-10.655 14.59-22.07 15.921-25.265.741-1.774 1.595-2.7 2.232-3.192.32-.245.588-.381.765-.456l.197-.07.037-.01h.003l-.073-.364.064.365.009-.001-.073-.364.064.365-.109-.615-.62-.073s-.021.18-.074.535c-.388 2.663-2.493 14.915-9.698 28.33-7.21 13.42-19.488 27.988-40.268 35.425-11.46 4.1-22.624 6.18-33.047 6.18-17.455-.004-32.824-5.814-44.177-17.748-11.35-11.936-18.708-30.044-19.967-54.731a61.06 61.06 0 0 1-.076-3.1c-.007-16.781 6.441-39.721 18.272-58.385 5.913-9.335 13.168-17.603 21.609-23.524 8.442-5.922 18.06-9.505 28.76-9.506 7.727.001 16.03 1.87 24.876 6.111 3.016 1.438 6.718 5.237 8.773 11.131a.62.62 0 0 0 .52.415.623.623 0 0 0 .6-.29 26.364 26.364 0 0 0 1.607-2.947c6.048-13.148 10.08-29.293 10.08-46.96 0-10.065-1.31-20.623-4.302-31.398-6.565-23.632-7.538-38.653-7.538-45.487 0-1.455.044-2.539.088-3.255.021-.359.043-.625.06-.801.016-.175.025-.253.025-.254a.623.623 0 0 0-.55-.696l-.073-.004c-.175.001-.371.06-.624.216-.86.556-2.712 2.359-7.018 9.975-4.292 7.614-10.97 21.031-21.23 44.736-3.384 7.829-20.907 46.703-42.947 69.955-2.392 2.527-5.26 5.394-7.528 7.628a489.844 489.844 0 0 1-3.935 3.835l.432.451.555.289c.023-.05 9.036-17.395 9.041-39.856 0-2.497-.11-5.055-.36-7.66-1.777-18.643-5.035-36.83-5.032-51.282 0-5.611.491-10.655 1.73-14.93 4.481-15.483 11.82-26.078 15.875-30.945 1.975-2.372 4.507-4.055 6.546-5.132a26.512 26.512 0 0 1 2.55-1.181c.318-.127.571-.22.744-.28l.196-.067.061-.018a.627.627 0 0 0-.066-1.212c-.026-.005-11.515-2.235-27.187-2.235-13.118.002-29.169 1.56-43.897 7.323-14.724 5.759-28.142 15.76-35.834 32.591-1.416 3.105-2.848 8.76-2.852 15.199 0 6.892 1.66 14.69 6.88 21.031 5.219 6.344 13.978 11.151 27.941 12.133 1.096.077 2.165.113 3.203.113 12.413-.002 20.494-5.093 20.552-5.128l-.332-.53-.624.043.006.134c.004.094.007.236.007.42.002 1.906-.379 8.345-5.003 14.263-4.623 5.91-13.492 11.422-30.814 11.432-1.666 0-3.409-.051-5.233-.159-8.419-.488-18.019-5.033-25.472-12.331-7.458-7.299-12.767-17.311-12.766-28.729.002-14.136 8.126-30.561 30.772-46.812 5.31-3.808 12.25-8.708 26.309-14.071 14.055-5.36 35.214-11.16 68.857-16.68 21.685-3.558 33.932-7.462 40.793-10.502 6.857-3.038 8.343-5.217 8.437-5.36l-.524-.34-.608.147.017.073c.08.368.421 2.082.421 4.49.001 3.338-.655 7.989-3.518 12.282-2.865 4.29-7.932 8.278-16.956 10.29-2.834.63-7.754 1.046-11.93 1.292a257.942 257.942 0 0 1-7.636.334.62.62 0 0 0-.465.224c-.045.06-9.264 11.12-9.27 28.432 0 1.038.032 2.099.104 3.18.563 8.636 2.751 32.1 4.108 39.851.903 5.144 1.244 9.582 1.244 13.359 0 5.966-.851 10.284-1.696 13.138a27.484 27.484 0 0 1-1.158 3.21 29.17 29.17 0 0 1-.382.838l-.119.256-.045.118c-.014.051-.039.088-.044.245.003.07.002.19.11.359.105.179.375.292.523.277.232-.011.29-.074.345-.099.132-.088.157-.127.23-.193v-.001c.189-.19.626-.683 1.32-1.512 4.83-5.769 21.474-27.216 32.999-56.021 10.623-26.558 20.713-42.73 28.128-52.251 3.707-4.762 6.745-7.859 8.85-9.762a34.53 34.53 0 0 1 2.418-2.016c.275-.205.484-.351.621-.445l.153-.1.043-.027-.326-.534-.619-.085c-.002.02-.902 6.562-.902 16.067.001 10.273 1.047 24.005 5.442 36.722 8.01 23.162 9.214 45.557 9.213 56.888 0 2.427-.055 4.345-.11 5.655a87.728 87.728 0 0 1-.075 1.498c-.021.339-.034.509-.034.509a.622.622 0 0 0 .414.637c.266.095.561 0 .722-.234.005-.006 10.258-14.825 22.988-35.71 20.702-33.986 43.427-75.34 57.671-97.817a.626.626 0 0 0-.42-.95c-4.281-.755-9.335-1.351-14.636-1.351-8.57.001-17.805 1.555-25.446 6.575-20.793 13.651-26.429 30.943-26.414 45.425.006 16.63 7.321 29.59 7.346 29.641l.544-.308.231-.58c-.001 0-.237-.095-.671-.275-1.516-.632-5.396-2.307-9.463-4.528-4.063-2.213-8.317-4.999-10.533-7.727-5.447-6.68-7.31-13.916-7.314-20.676-.004-8.725 3.142-16.646 5.736-21.277 7.029-12.558 17.235-19.834 27.73-23.997 10.493-4.158 21.269-5.18 29.335-5.18 5.754 0 10.124.518 12.033.78 4.773.652 9.191 1.174 13.342 1.607a.625.625 0 0 0 .589-.282c2.245-3.45 4.247-6.353 5.925-8.536l.002-.004c.002 0 .177-.233.52-.675 2.578-3.316 14.503-18.296 30.278-32.425 15.766-14.14 35.409-27.372 53.197-27.356h.01c5.62.005 9.452 1.761 11.923 4.458 2.47 2.7 3.6 6.407 3.6 10.401.012 7.349-3.875 15.562-9.849 19.639l.353.516" fill="#a27121"/><path d="M475.04 341.641h-.025c.006.641.025 1.28.025 1.921 0 122.57-221.136 221.93-221.136 221.93s-221.137-99.36-221.137-221.93c0-.64.019-1.28.024-1.92h-.025V48.615S134.394 34.128 253.63 34.128c119.234 0 221.411 14.488 221.411 14.488v293.025zm32.14-324.429S390.154.62 253.589.62.625 17.212.625 17.212v335.615h.029c-.007.734-.029 1.465-.029 2.2 0 140.384 253.279 254.188 253.279 254.188S507.18 495.41 507.18 355.027c0-.734-.021-1.466-.028-2.2h.028V17.214" fill="#d18a0b"/><path d="M32.766 48.616S134.394 34.127 253.63 34.127c119.234 0 221.411 14.49 221.411 14.49l32.14-31.405S390.154.62 253.589.62.625 17.212.625 17.212l32.141 31.404" fill="#fff880"/><path d="M.625 17.212v335.615h.029c-.007.734-.029 1.465-.029 2.2 0 140.384 253.279 254.188 253.279 254.188v-43.723s-221.137-99.36-221.137-221.93c0-.64.019-1.28.024-1.92h-.025V48.615L.625 17.212" fill="#fff426"/><path d="M465.88 340.121h-.025c.006.614.025 1.225.025 1.84 0 117.493-211.976 212.739-211.976 212.739s-.506-.228-1.456-.669C233.81 545.395 41.927 453.75 41.927 341.961c0-.615.018-1.226.023-1.84h-.024V59.233s97.418-13.888 211.714-13.888c114.295 0 212.24 13.888 212.24 13.888V340.12zM496.689 29.13h-.002c-.065-.009-112.216-15.906-243.086-15.906-130.907 0-242.484 15.906-242.484 15.906v321.712h.028c-.007.704-.027 1.405-.027 2.11 0 134.568 242.786 243.658 242.786 243.658s.405-.183 1.171-.536c18.127-8.357 241.614-114.011 241.614-243.121 0-.705-.022-1.407-.027-2.11h.027V29.13" fill="#fddd10"/><path d="M253.904 596.61s.405-.183 1.171-.536c18.128-8.357 241.614-114.011 241.614-243.121 0-.705-.021-1.407-.026-2.11h.026V29.13h-.001L465.88 59.233V340.12h-.025c.006.614.025 1.225.025 1.84 0 117.493-211.976 212.739-211.976 212.739v41.91" fill="#deae07"/><path d="M465.88 341.961h-.625c.001 29.179-13.168 57.036-32.99 82.424-29.726 38.077-74.391 70.535-111.619 93.45a710.312 710.312 0 0 1-47.466 26.744 573.277 573.277 0 0 1-14.306 7.106 359.373 359.373 0 0 1-3.88 1.827c-.885.41-1.345.616-1.346.618l.256.57.255-.57c-.001-.002-.5-.226-1.449-.665-9.295-4.306-61.895-29.365-112.135-67.285-25.12-18.959-49.647-41.133-67.874-65.51-18.231-24.381-30.15-50.946-30.15-78.709 0-.602.018-1.212.024-1.835l.006-.63h-.03V59.232h-.625l.089.62c.004 0 1.517-.217 4.402-.597C66.609 56.6 153.674 45.97 253.64 45.97c57.123 0 110.165 3.471 148.925 6.941 19.379 1.735 35.189 3.471 46.151 4.773 5.482.65 9.752 1.192 12.65 1.571 2.899.38 4.422.596 4.425.596l.089-.619h-.625v280.89h.625v-.626h-.656l.006.631c.006.622.025 1.232.025 1.834h1.25c0-.627-.019-1.241-.025-1.846l-.625.006v.625h.65V58.69l-.537-.076c-.018-.002-97.983-13.893-212.328-13.894-114.345.001-211.784 13.892-211.802 13.894l-.537.076v282.056h.65v-.625l-.626-.006c-.005.606-.023 1.219-.023 1.846.001 28.131 12.068 54.944 30.398 79.456C126.699 494.942 238.17 548.092 252.184 554.6c.954.442 1.461.67 1.464.671l.256.115.255-.115c.024-.011 53.045-23.834 106.1-62.374 26.527-19.272 53.065-42.222 72.992-67.742 19.923-25.518 33.251-53.625 33.254-83.193h-.625zm41.3-324.749l.087-.618c-.017-.003-117.065-16.6-253.678-16.6C116.975-.006.554 16.59.537 16.594L0 16.67v336.782h.654v-.625l-.625-.006c-.006.725-.029 1.459-.029 2.206.003 35.29 15.913 68.85 39.708 99.327 71.396 91.41 213.902 155.402 213.94 155.43l.256.116.255-.115c.024-.011 63.37-28.472 126.75-74.514 31.69-23.022 63.39-50.438 87.189-80.917 23.794-30.476 39.704-64.036 39.707-99.326 0-.747-.021-1.48-.028-2.207l-.625.006v.625h.653V16.67l-.538-.076-.087.618h-.625v335.615h.625v-.625h-.658l.005.63c.007.742.028 1.473.028 2.195.001 34.902-15.749 68.212-39.443 98.557-35.535 45.516-88.91 84.303-133.398 111.687a848.868 848.868 0 0 1-56.723 31.96 683.257 683.257 0 0 1-17.096 8.491 423.734 423.734 0 0 1-4.638 2.184c-1.058.49-1.608.738-1.61.74l.257.569.255-.57c-.003-.001-.984-.443-2.835-1.309-13.89-6.496-76.468-36.8-135.537-81.896-29.535-22.545-58.19-48.789-79.441-77.58C15.09 419.067 1.249 387.749 1.25 355.027c0-.722.022-1.452.029-2.195l.005-.63H1.25V17.212H.625l.088.62c.005-.002 1.814-.26 5.262-.713 24.13-3.174 128.163-15.875 247.614-15.875 68.256 0 131.637 4.147 177.951 8.295 23.156 2.072 42.046 4.146 55.146 5.701 6.55.777 11.653 1.425 15.118 1.879 3.464.453 5.282.712 5.287.712l.089-.619h-.625.625" fill="#5a3114"/><g clip-path="url(#i)" transform="matrix(.13 0 0 -.13 0 609.9)"><path d="M3763.68 2152.15h-.2c.05-5.02.2-10.02.2-15.05 0-960.24-1732.45-1738.67-1732.45-1738.67S298.773 1176.86 298.773 2137.1c0 5.03.149 10.03.192 15.05h-.195V4447.8s796.18 113.5 1730.3 113.5 1734.61-113.5 1734.61-113.5V2152.15zm251.79 2541.68s-916.82 130-1986.71 130c-1069.889 0-1981.791-130-1981.791-130V2064.52h.222c-.047-5.75-.218-11.48-.218-17.24C46.973 947.469 2031.23 55.898 2031.23 55.898S4015.47 947.47 4015.47 2047.28c0 5.76-.16 11.49-.21 17.24h.21v2629.31" fill="url(#j)"/></g><path d="M470.46 340.881v-.625h-.656l.006.631c.006.635.025 1.26.025 1.875.001 29.813-13.454 58.275-33.705 84.212-30.371 38.902-76.002 72.062-114.035 95.472a725.452 725.452 0 0 1-48.492 27.323 583.258 583.258 0 0 1-14.617 7.26 378.393 378.393 0 0 1-3.962 1.866c-.905.419-1.375.63-1.376.632l.256.57.255-.57c-.001-.002-.84-.378-2.423-1.12-11.872-5.552-65.373-31.46-115.87-70.01-25.247-19.274-49.742-41.71-67.905-66.314-18.167-24.61-29.99-51.37-29.99-79.32 0-.617.02-1.24.025-1.877l.005-.63h-.03V53.925h-.625l.089.618c.004 0 1.55-.222 4.497-.608 20.629-2.714 109.576-13.574 211.702-13.572 58.357 0 112.546 3.545 152.144 7.09 19.798 1.773 35.95 3.546 47.15 4.876 5.598.664 9.96 1.219 12.923 1.606 2.961.386 4.516.608 4.52.608l.089-.618h-.625v286.956h.625v-.625.625h.625V53.383l-.537-.077c-.018-.002-100.1-14.193-216.914-14.193S37.275 53.303 37.258 53.306l-.537.077v288.123h.65v-.625l-.625-.005c-.006.619-.024 1.245-.024 1.887.002 30.2 13.616 58.913 33.969 84.98C131.76 505.928 253.61 560.64 253.648 560.667l.256.115.255-.115c.024-.011 54.19-24.347 108.39-63.72 27.1-19.687 54.21-43.134 74.566-69.202 20.352-26.068 33.968-54.78 33.97-84.982 0-.64-.019-1.267-.025-1.887l-.625.006v.625h.65v-.625h-.625zm31.474-317.71l.088-.619c-.018-.002-114.642-16.256-248.427-16.256S5.8 22.55 5.783 22.553l-.537.076V352.46H5.9v-.625l-.625-.006c-.006.71-.027 1.429-.027 2.161.002 34.564 15.584 67.43 38.887 97.276 69.92 89.523 209.476 152.188 209.514 152.217l.256.114.255-.114c.024-.012 62.059-27.884 124.127-72.973 31.034-22.546 62.079-49.395 85.386-79.244 23.303-29.846 38.885-62.712 38.887-97.276 0-.733-.02-1.45-.026-2.161l-.625.006v.625h.65V22.629l-.535-.077-.09.62h-.624v328.663h.625v-.625h-.656l.005.63c.006.728.026 1.442.026 2.15.002 34.175-15.42 66.792-38.623 96.507-34.797 44.572-87.066 82.554-130.632 109.372a831.609 831.609 0 0 1-55.546 31.296 664.081 664.081 0 0 1-16.743 8.315 410.84 410.84 0 0 1-4.54 2.14c-1.038.479-1.576.721-1.577.722l.256.57.255-.57c-.003 0-.963-.432-2.776-1.28-13.602-6.363-74.883-36.04-132.728-80.2-28.922-22.077-56.982-47.777-77.793-75.97C20.048 416.697 6.495 386.03 6.497 353.99c0-.708.02-1.423.027-2.15l.005-.63h-.033V23.171h-.625l.088.619a502.24 502.24 0 0 1 5.153-.698C34.742 19.984 136.62 7.546 253.595 7.546c66.843 0 128.911 4.061 174.265 8.123 22.676 2.03 41.176 4.061 54.004 5.583 6.415.762 11.411 1.397 14.804 1.84 3.392.444 5.173.697 5.178.698l.088-.619h-.625.625" fill="#a27121"/></svg>