<?xml version="1.0" encoding="UTF-8" standalone="no"?>
<svg
   xmlns:dc="http://purl.org/dc/elements/1.1/"
   xmlns:cc="http://creativecommons.org/ns#"
   xmlns:rdf="http://www.w3.org/1999/02/22-rdf-syntax-ns#"
   xmlns:svg="http://www.w3.org/2000/svg"
   xmlns="http://www.w3.org/2000/svg"
   viewBox="0 0 230.39999 41.400002"
   height="41.400002"
   width="230.39999"
   xml:space="preserve"
   id="svg2"
   version="1.1"><metadata
     id="metadata8"><rdf:RDF><cc:Work
         rdf:about=""><dc:format>image/svg+xml</dc:format><dc:type
           rdf:resource="http://purl.org/dc/dcmitype/StillImage" /></cc:Work></rdf:RDF></metadata><defs
     id="defs6" /><g
     transform="matrix(1.3333333,0,0,-1.3333333,0,41.4)"
     id="g10"><g
       transform="scale(0.1)"
       id="g12"><path
         id="path14"
         style="fill:#231f20;fill-opacity:1;fill-rule:nonzero;stroke:none"
         d="m 1613.32,211.59 c -0.5,-7.211 -6.68,-13.07 -13.9,-13.07 -7.31,0 -12.88,5.933 -12.41,13.199 0.44,7.281 6.7,13.113 13.96,13.113 7.29,0 12.82,-5.926 12.35,-13.242" /><path
         id="path16"
         style="fill:#231f20;fill-opacity:1;fill-rule:nonzero;stroke:none"
         d="m 1728,165.512 c 0.08,-5.614 -3.15,-12.489 -9.14,-19.106 l -26.78,-11.66 c 6.31,10.879 8.24,17.5 8.19,20.703 -0.04,3.477 -1.73,4.918 -3.98,4.918 -6.63,0 -38.33,-9.648 -83.08,-112.8982 l -28.41,-4.2852 -2.08,1.4141 50.76,111.2773 c 2.28,5.008 1.02,6.383 -4.21,8.664 25.18,5.801 29.02,6.711 29.02,6.711 0.84,0.184 1.6,0.277 2.32,0.277 4.65,0 6.52,-3.714 4.28,-8.855 l -14.85,-33.766 c 20.08,30.305 44.58,46.348 64.81,46.348 8.08,0 13.08,-3.352 13.15,-9.742" /><path
         id="path18"
         style="fill:#231f20;fill-opacity:1;fill-rule:nonzero;stroke:none"
         d="m 1592.29,162.469 c 0,0 -15.66,-34.121 -46.38,-101.5042 -1.36,-3.0273 -2.78,-7.8984 2.67,-7.8984 7.82,0 19.48,3.7969 33.76,15.3125 l -8.18,-12.0312 c -3.68,-2.8829 -21.6,-14.1016 -45.76,-14.1016 -13.16,0 -17.61,8.4375 -12.3,20.1055 15.85,34.7265 28.54,61.4964 43.05,91.8364 2.78,5.8 1.84,6.835 -3.26,9.269 l 28.74,7.039 c 1.39,0.34 2.62,0.512 3.7,0.512 5.15,0 6.13,-3.82 3.96,-8.539" /><path
         id="path20"
         style="fill:#231f20;fill-opacity:1;fill-rule:nonzero;stroke:none"
         d="m 1257.44,246.055 c -24.85,-13.735 -40.82,-40.633 -52.81,-65.563 -14.02,-29.121 -24.69,-60.707 -42.69,-87.6209 -16.27,-24.3086 -36.89,-38.0273 -64.11,-51.4063 l 5.06,9.543 c 12.25,6.5 24.7,27.9375 32,43.1914 10.03,21.0818 21.62,50.1558 33.89,77.1058 15.65,34.398 33.91,67.449 75.38,76.777 7.51,1.688 15.89,3.188 26.12,4.285 -4.61,-1.969 -10.4,-4.941 -12.84,-6.312" /><path
         id="path22"
         style="fill:#231f20;fill-opacity:1;fill-rule:nonzero;stroke:none"
         d="m 1316.33,234.418 c 0,-31.031 -20.58,-52.059 -53.07,-66.277 18.11,-10.504 29.49,-30.946 29.49,-51.356 C 1292.75,42.5078 1213.8,0 1123.71,0 c -46.1,0 -99.47,13.7969 -99.47,47.8906 0,22.3907 22,35.5547 49.65,37.4805 l 0.06,-0.6563 c -14.78,-4.375 -25.93,-17.4492 -25.93,-32.3437 0,-26.543 33.5,-43.34766 78.67,-43.34766 63.83,0 132.72,32.48046 132.72,101.34756 0,28.426 -16.25,46.063 -32.47,49.047 l -1.37,3.062 c 33.13,6.598 60,31.227 60,64.5 0,41.145 -31.26,59.961 -73.94,59.961 -52.97,0 -112,-33.75 -112,-88.367 0,-26.359 14.03,-48.664 43.32,-63.996 h -27.99 c -19.13,13.801 -28.1,35.387 -28.1,56.125 0,65.82 70.77,106.195 138.21,106.195 46.46,0 91.26,-18.914 91.26,-62.48" /><path
         id="path24"
         style="fill:#231f20;fill-opacity:1;fill-rule:nonzero;stroke:none"
         d="m 910.875,130.047 c 15.965,19.074 38.621,42.488 63.523,42.488 8.907,0 18.567,-2.375 18.567,-14.019 0,-6.547 -2.5,-13.008 -4.992,-18.703 -10.215,-23.407 -24.657,-46.8052 -34.539,-70.3599 -1.457,-3.4375 -3.555,-8.2422 -3.555,-11.9922 0,-2.7656 1.531,-4.207 5.008,-4.207 8.508,0 19.367,5.457 32.715,15.3867 l -9.266,-12.8125 c -14.277,-8.6406 -28.457,-13.582 -42.141,-13.582 -8.535,0 -16.375,3.9844 -16.375,12.9961 0,11.2031 12.871,35.5117 18.301,46.3088 4.824,9.57 25.781,47.597 25.781,55.262 0,2.605 -1.211,4.023 -3.672,4.023 -4.113,0 -8.476,-2.379 -11.261,-4.07 -27.469,-16.571 -52.977,-58.7972 -68.621,-92.0902 0,0 -3.184,-6.3164 -8.129,-17.207 l -27.699,-3.711 -2.176,1.3985 c 13.48,33.2421 30.234,63.2817 43.851,94.9487 3.625,8.43 5.52,14.083 5.52,17.321 0,1.957 -0.774,3.41 -3.203,3.41 -4.219,0 -9.551,-2.914 -12.598,-4.82 C 844.867,136.453 815.281,79.2461 800.113,46.4453 l -28.633,-3.9062 -2.222,1.3554 c 4.519,9.7383 41.781,88.6135 50.512,109.5705 2.273,5.449 1.367,7.605 -3.911,9.82 6.059,1.406 12.215,3.07 18.196,4.57 5.91,1.485 11.89,2.868 14.246,2.868 2.715,0 5.23,-1.5 5.23,-4.75 0,-2.274 -4.293,-12.438 -8.613,-22.321 -2.668,-6.035 -5.438,-12.129 -7.48,-16.672 14.828,19.387 37.91,45.555 63.093,45.555 8.809,0 19.699,-1.699 19.699,-13.902 0,-8.887 -5.421,-20.461 -9.355,-28.586" /><path
         id="path26"
         style="fill:#231f20;fill-opacity:1;fill-rule:nonzero;stroke:none"
         d="m 659.863,211.59 c -0.468,-7.211 -6.664,-13.07 -13.918,-13.07 -7.289,0 -12.843,5.953 -12.382,13.199 0.468,7.281 6.687,13.113 13.937,13.113 7.301,0 12.832,-5.926 12.363,-13.242" /><path
         id="path28"
         style="fill:#231f20;fill-opacity:1;fill-rule:nonzero;stroke:none"
         d="m 636.223,162.469 c 0,0 -15.641,-34.121 -46.395,-101.5042 -1.39,-3.0273 -2.773,-7.8984 2.695,-7.8984 6.497,0 19.465,3.7383 33.762,15.3125 L 618.086,56.3086 C 614.438,53.4063 596.5,42.2461 572.348,42.2461 c -13.192,0 -17.637,8.418 -12.289,20.1055 15.578,34.1797 28.261,60.9574 43.015,91.8364 2.781,5.8 1.848,6.835 -3.25,9.269 l 28.766,7.039 c 1.371,0.34 2.609,0.512 3.691,0.512 5.153,0 6.098,-3.82 3.942,-8.539" /><path
         id="path30"
         style="fill:#231f20;fill-opacity:1;fill-rule:nonzero;stroke:none"
         d="m 597.566,240.047 c 0,0 -15.671,-34.094 -81.769,-179.1798 -1.387,-3.0274 -2.789,-7.9375 2.703,-7.9375 7.656,0 19.48,3.75 33.684,15.293 L 544.07,56.1992 c -3.66,-2.8906 -21.281,-13.9531 -45.461,-13.9531 -13.183,0 -17.629,8.418 -12.285,20.1055 15.574,34.1797 63.617,138.6684 78.387,169.5394 2.789,5.8 1.848,6.824 -3.285,9.261 l 28.496,6.93 c 1.355,0.356 2.601,0.527 3.668,0.527 5.16,0 6.117,-3.836 3.976,-8.562" /><path
         id="path32"
         style="fill:#231f20;fill-opacity:1;fill-rule:nonzero;stroke:none"
         d="m 1410.15,240.047 c 0,0 -15.64,-34.094 -81.76,-179.1798 -1.39,-3.0274 -2.79,-7.9375 2.69,-7.9375 7.67,0 19.51,3.75 33.7,15.293 l -8.11,-12.0235 c -3.67,-2.8906 -21.29,-13.9531 -45.47,-13.9531 -13.18,0 -17.62,8.418 -12.29,20.1055 15.59,34.1797 63.64,138.6684 78.41,169.5394 2.77,5.8 1.83,6.824 -3.3,9.261 l 28.49,6.93 c 1.37,0.356 2.59,0.527 3.69,0.527 5.15,0 6.12,-3.836 3.95,-8.562" /><path
         id="path34"
         style="fill:#231f20;fill-opacity:1;fill-rule:nonzero;stroke:none"
         d="m 438.48,211.59 c -0.468,-7.211 -6.687,-13.07 -13.933,-13.07 -7.274,0 -12.844,5.953 -12.375,13.199 0.461,7.281 6.683,13.113 13.926,13.113 7.297,0 12.851,-5.926 12.382,-13.242" /><path
         id="path36"
         style="fill:#231f20;fill-opacity:1;fill-rule:nonzero;stroke:none"
         d="m 524.773,240.047 c 0,0 -15.652,-34.094 -81.777,-179.1798 -1.391,-3.0274 -2.746,-7.9375 2.719,-7.9375 7.578,0 19.465,3.7422 33.754,15.3125 L 471.27,56.1797 c -3.649,-2.8867 -21.282,-13.9336 -45.446,-13.9336 -13.156,0 -17.633,8.418 -12.293,20.1055 15.59,34.1797 63.641,138.6684 78.407,169.5394 2.769,5.82 1.832,6.824 -3.301,9.261 l 28.488,6.93 c 1.375,0.356 2.602,0.527 3.68,0.527 5.172,0 6.125,-3.828 3.968,-8.562" /><path
         id="path38"
         style="fill:#231f20;fill-opacity:1;fill-rule:nonzero;stroke:none"
         d="m 414.84,162.469 c 0,0 -15.664,-34.121 -46.418,-101.5042 -1.375,-3.0273 -2.762,-7.8984 2.715,-7.8984 7.183,0 19.453,3.7188 33.707,15.2734 l -8.145,-12.0312 c -3.668,-2.9023 -21.594,-14.0625 -45.758,-14.0625 -13.168,0 -17.628,8.418 -12.289,20.1055 15.582,34.1601 28.25,60.9294 43.032,91.8364 2.789,5.8 1.839,6.835 -3.27,9.269 l 28.781,7.039 c 1.375,0.34 2.59,0.512 3.68,0.512 5.148,0 6.117,-3.82 3.965,-8.539" /><path
         id="path40"
         style="fill:#231f20;fill-opacity:1;fill-rule:nonzero;stroke:none"
         d="M 523.59,296.363 C 473.992,297.48 440.105,280.691 412.305,253.922 382.73,225.438 361.82,186.957 340.844,152.035 309.086,99.1211 270.277,41.2578 231.797,27.6563 225.316,25.3828 218.383,24.1016 211.5,24.1016 c -4.469,0 -8.824,0.0859 -13.348,1.0273 l -0.382,0.8164 c 9.054,14.3945 13.585,32.4805 18.113,48.3125 10.433,36.4842 15.152,70.6132 25.996,109.1012 C 227.066,161.414 205.32,129.766 181.965,98.8477 156.43,65.0586 128.645,36.2578 103.082,27.9609 95.7773,25.5938 87.2422,24.1016 79.6406,24.1016 c -4.9062,0 -9.6562,0.164 -15.1718,1.082 l -0.3868,0.957 c 29.5391,45.1485 84.898,147.1644 84.898,195.9724 0,30.367 -15.425,53.703 -50.2456,53.703 -49.2227,0 -88.0899,-36.316 -88.0899,-82.726 0,-24.059 13.4571,-49.293 41.4375,-61.098 H 24.1563 C 7.35938,145.527 0,167.098 0,185.691 c 0,58.707 49.0234,98.977 108.887,98.977 40.332,0 69.429,-22.242 69.429,-61.582 0,-54.711 -48.336,-143.3985 -78.6988,-189.7774 38.8128,10.625 85.2268,87.5704 107.3628,120.5864 26.094,38.921 52.723,78.707 92.645,104.863 v -8.172 c -4.648,-2.445 -7.16,-5.688 -9.723,-9.691 -6.605,-10.204 -12.738,-31.239 -17.894,-53.141 -5.145,-21.848 -9.27,-44.336 -11.914,-57.238 -6.485,-31.6488 -14.531,-69.8129 -33,-97.4027 6.312,1.4648 11.656,4.6875 17.363,8.293 33.664,21.5156 62.148,83.0277 83.516,117.4767 45.461,73.312 102.789,144.457 195.957,151.176 5.316,0.375 10.675,0.375 19.367,0.468 L 523.59,296.363" /><path
         id="path42"
         style="fill:#231f20;fill-opacity:1;fill-rule:nonzero;stroke:none"
         d="m 1482.01,148.738 6.65,13.36 c -2.49,1.074 -5.75,1.906 -9.22,1.906 -14.84,0 -28.53,-11.516 -38.81,-24.426 -8.16,-10.254 -38.4,-56.6483 -38.4,-78.0741 0,-4.4453 1.35,-6.6133 5.91,-6.6133 15.4,0 40.36,26.6211 73.87,93.8474 m -32.07,-68.0544 c -16.4,-23.4102 -34.22,-39.3555 -56.7,-39.3555 -13.44,0 -20.86,7.293 -20.86,19.1875 0,19.5625 20.02,55.4224 34.4,73.9964 15.03,19.441 37.07,35.39 65.2,35.39 6.29,0 13.84,-0.839 19.64,-3.648 l 30.42,6.926 c 0,0 -26.87,-54.664 -41.9,-90.7112 -3.02,-7.2266 -6.89,-16.9024 -6.89,-23.7305 0,-3.6094 1.27,-6.1797 6.85,-6.1797 7.84,0 17.17,4.2266 29.93,13.5273 l -7.91,-11.4687 c -11.43,-7.3125 -25.48,-12.7539 -39.17,-12.7813 -14.4,0 -18.78,8.0547 -18.78,16.6602 0.01,6.4648 2.69,14.5195 5.77,22.1875" /><path
         id="path44"
         style="fill:#231f20;fill-opacity:1;fill-rule:nonzero;stroke:none"
         d="m 744.141,148.738 6.644,13.36 c -2.508,1.074 -5.758,1.906 -9.222,1.906 -14.852,0 -28.532,-11.516 -38.821,-24.426 -8.148,-10.254 -38.402,-56.6483 -38.402,-78.0741 0,-4.4453 1.363,-6.6133 5.918,-6.6133 15.418,0 40.363,26.6211 73.883,93.8474 M 712.043,80.6836 C 695.66,57.2734 677.844,41.3281 655.355,41.3281 c -13.457,0 -20.863,7.293 -20.863,19.1875 0,19.5625 20.024,55.4224 34.399,73.9964 15.031,19.441 37.082,35.39 65.203,35.39 6.301,0 13.855,-0.839 19.66,-3.648 l 30.41,6.926 c 0,0 -26.855,-54.664 -41.898,-90.7112 -3.024,-7.2266 -6.911,-16.9024 -6.911,-23.7305 0,-3.6094 1.29,-6.1797 6.868,-6.1797 7.851,0 17.164,4.207 29.91,13.5156 l -7.891,-11.4844 c -11.437,-7.3046 -25.48,-12.7265 -39.152,-12.7539 -14.422,0 -18.801,8.0547 -18.801,16.6602 0.012,6.4648 2.695,14.5195 5.754,22.1875" /></g></g></svg>