<svg xmlns="http://www.w3.org/2000/svg" viewBox="0 0 230.39999 41.400002" height="41.4" width="230.4"><g fill="#231f20"><path d="M215.11 13.188c-.067.961-.891 1.743-1.854 1.743a1.636 1.636 0 0 1-1.655-1.76 1.884 1.884 0 0 1 1.862-1.749c.972 0 1.709.79 1.646 1.766m15.291 6.144c.01.748-.42 1.665-1.219 2.547l-3.57 1.555c.841-1.45 1.098-2.333 1.092-2.76-.006-.464-.231-.656-.531-.656-.884 0-5.11 1.286-11.077 15.053l-3.788.571-.278-.188 6.768-14.837c.304-.668.136-.851-.561-1.156 3.357-.773 3.87-.894 3.87-.894.111-.025.213-.037.309-.037.62 0 .869.495.57 1.18l-1.98 4.503c2.678-4.041 5.944-6.18 8.642-6.18 1.077 0 1.744.447 1.753 1.299m-18.095.405s-2.088 4.55-6.184 13.534c-.181.404-.37 1.053.356 1.053 1.043 0 2.598-.506 4.502-2.041l-1.091 1.604c-.49.384-2.88 1.88-6.101 1.88-1.755 0-2.348-1.125-1.64-2.68 2.113-4.63 3.805-8.2 5.74-12.245.37-.774.245-.912-.435-1.236l3.832-.939c.185-.045.35-.068.493-.068.687 0 .818.51.528 1.138M167.659 8.593c-3.314 1.831-5.443 5.417-7.042 8.741-1.869 3.883-3.292 8.095-5.692 11.683-2.169 3.241-4.918 5.07-8.548 6.854l.675-1.272c1.633-.867 3.293-3.725 4.267-5.759 1.337-2.81 2.882-6.687 4.518-10.28 2.087-4.587 4.522-8.994 10.051-10.238a30.285 30.285 0 0 1 3.483-.57c-.615.262-1.387.658-1.712.84"/><path d="M175.51 10.144c0 4.138-2.743 6.941-7.075 8.837 2.414 1.4 3.932 4.126 3.932 6.848 0 9.903-10.527 15.571-22.539 15.571-6.147 0-13.263-1.84-13.263-6.385 0-2.986 2.934-4.741 6.62-4.998l.008.088c-1.97.583-3.457 2.326-3.457 4.312 0 3.54 4.467 5.78 10.49 5.78 8.51 0 17.695-4.33 17.695-13.513 0-3.79-2.166-6.142-4.329-6.54l-.183-.408c4.418-.88 8-4.164 8-8.6 0-5.486-4.168-7.995-9.858-7.995-7.063 0-14.934 4.5-14.934 11.782 0 3.515 1.871 6.489 5.776 8.533h-3.732c-2.55-1.84-3.746-4.718-3.746-7.483 0-8.776 9.436-14.16 18.428-14.16 6.194 0 12.168 2.522 12.168 8.331M121.45 24.06c2.129-2.543 5.15-5.665 8.47-5.665 1.187 0 2.475.317 2.475 1.87 0 .872-.333 1.734-.665 2.493-1.362 3.121-3.288 6.241-4.605 9.382-.195.458-.474 1.099-.474 1.599 0 .368.204.56.667.56 1.135 0 2.583-.727 4.362-2.051l-1.235 1.708c-1.904 1.152-3.794 1.811-5.619 1.811-1.138 0-2.183-.531-2.183-1.733 0-1.493 1.716-4.735 2.44-6.174.643-1.276 3.437-6.346 3.437-7.368 0-.348-.161-.537-.49-.537-.548 0-1.13.317-1.5.543-3.663 2.21-7.064 7.84-9.15 12.279 0 0-.425.842-1.084 2.294l-3.693.495-.29-.187c1.797-4.432 4.03-8.437 5.846-12.66.484-1.124.736-1.877.736-2.31 0-.26-.103-.454-.427-.454-.562 0-1.273.389-1.68.643-4.14 2.608-8.084 10.236-10.106 14.61l-3.818.52-.296-.18c.602-1.299 5.57-11.816 6.735-14.61.303-.727.182-1.014-.522-1.31.808-.187 1.629-.409 2.426-.609.788-.198 1.586-.382 1.9-.382.362 0 .697.2.697.633 0 .303-.572 1.659-1.148 2.976-.356.805-.725 1.618-.998 2.223 1.977-2.585 5.055-6.074 8.413-6.074 1.174 0 2.626.227 2.626 1.854 0 1.185-.722 2.728-1.247 3.811M87.982 13.188a1.884 1.884 0 0 1-1.856 1.743 1.637 1.637 0 0 1-1.65-1.76 1.884 1.884 0 0 1 1.857-1.749c.974 0 1.711.79 1.649 1.766m-3.152 6.549s-2.086 4.55-6.186 13.534c-.186.404-.37 1.053.36 1.053.865 0 2.594-.498 4.5-2.041l-1.093 1.61c-.486.386-2.878 1.874-6.098 1.874-1.759 0-2.352-1.122-1.638-2.68a698.657 698.657 0 0 1 5.735-12.245c.37-.774.246-.912-.433-1.236l3.835-.939c.183-.045.348-.068.492-.068.687 0 .813.51.526 1.138M79.675 9.394s-2.089 4.546-10.902 23.89c-.185.404-.372 1.059.36 1.059 1.021 0 2.598-.5 4.492-2.04l-1.082 1.604c-.488.385-2.838 1.86-6.062 1.86-1.758 0-2.35-1.122-1.638-2.68 2.077-4.558 8.482-18.49 10.452-22.606.372-.773.246-.91-.438-1.235l3.8-.924c.18-.047.346-.07.488-.07.688 0 .816.512.53 1.142m108.345 0s-2.085 4.546-10.901 23.89c-.186.404-.372 1.059.358 1.059 1.023 0 2.602-.5 4.494-2.04l-1.082 1.604c-.489.385-2.838 1.86-6.062 1.86-1.758 0-2.35-1.122-1.639-2.68 2.079-4.558 8.485-18.49 10.455-22.606.369-.773.244-.91-.44-1.235L187 8.322c.183-.047.346-.07.492-.07.687 0 .816.512.527 1.142M58.464 13.188a1.886 1.886 0 0 1-1.858 1.743c-.97 0-1.712-.794-1.65-1.76a1.883 1.883 0 0 1 1.857-1.749c.973 0 1.714.79 1.651 1.766M69.97 9.394s-2.087 4.546-10.904 23.89c-.185.404-.366 1.059.363 1.059 1.01 0 2.595-.5 4.5-2.042l-1.093 1.608c-.487.385-2.838 1.858-6.06 1.858-1.754 0-2.35-1.122-1.639-2.68 2.08-4.558 8.486-18.49 10.455-22.606.369-.776.244-.91-.44-1.235l3.798-.924c.183-.047.347-.07.49-.07.69 0 .817.51.53 1.142M55.312 19.737s-2.089 4.55-6.19 13.534c-.182.404-.367 1.053.363 1.053.958 0 2.594-.495 4.494-2.036l-1.086 1.604c-.489.387-2.879 1.875-6.1 1.875-1.757 0-2.351-1.122-1.64-2.68a696.594 696.594 0 0 1 5.738-12.245c.372-.774.245-.912-.436-1.236l3.838-.939a2.06 2.06 0 0 1 .49-.068c.687 0 .816.51.529 1.138"/><path d="M69.812 1.885c-6.613-.149-11.131 2.09-14.838 5.659-3.943 3.798-6.731 8.928-9.528 13.585-4.235 7.055-9.41 14.77-14.54 16.583a8.231 8.231 0 0 1-2.706.474c-.596 0-1.177-.011-1.78-.137l-.05-.108c1.207-1.92 1.81-4.331 2.414-6.442 1.391-4.865 2.02-9.415 3.467-14.547-1.976 2.926-4.875 7.146-7.989 11.268-3.405 4.506-7.11 8.346-10.518 9.452-.974.315-2.112.514-3.125.514-.654 0-1.288-.021-2.023-.144l-.052-.127c3.939-6.02 11.32-19.622 11.32-26.13 0-4.049-2.057-7.16-6.7-7.16-6.562 0-11.745 4.842-11.745 11.03 0 3.208 1.795 6.572 5.525 8.146H3.221C.98 21.996 0 19.121 0 16.641 0 8.814 6.536 3.444 14.518 3.444c5.378 0 9.257 2.966 9.257 8.211 0 7.295-6.444 19.12-10.493 25.304 5.175-1.417 11.364-11.676 14.315-16.078 3.48-5.19 7.03-10.495 12.353-13.982v1.09c-.62.326-.955.758-1.296 1.292-.881 1.36-1.699 4.165-2.386 7.085-.686 2.913-1.236 5.912-1.589 7.632-.864 4.22-1.937 9.308-4.4 12.987.842-.195 1.554-.625 2.315-1.106 4.489-2.869 8.287-11.07 11.136-15.663C49.79 10.44 57.435.955 69.857.059c.71-.05 1.424-.05 2.583-.063l-2.628 1.889m127.789 19.683l.887-1.781a3.172 3.172 0 0 0-1.23-.254c-1.978 0-3.803 1.535-5.174 3.257-1.088 1.367-5.12 7.553-5.12 10.41 0 .592.18.881.788.881 2.053 0 5.381-3.55 9.85-12.513m-4.277 9.074c-2.186 3.122-4.562 5.248-7.56 5.248-1.792 0-2.781-.973-2.781-2.559 0-2.608 2.67-7.39 4.587-9.866 2.004-2.592 4.942-4.719 8.693-4.719.839 0 1.845.112 2.619.487l4.056-.924s-3.583 7.289-5.587 12.095c-.403.964-.919 2.254-.919 3.164 0 .481.17.824.914.824 1.045 0 2.289-.563 3.99-1.803l-1.054 1.529c-1.524.975-3.398 1.7-5.223 1.704-1.92 0-2.504-1.074-2.504-2.221.001-.862.359-1.936.77-2.959m-94.107-9.074l.886-1.781a3.186 3.186 0 0 0-1.23-.254c-1.98 0-3.804 1.535-5.176 3.257-1.086 1.367-5.12 7.553-5.12 10.41 0 .592.181.881.789.881 2.055 0 5.381-3.55 9.85-12.513m-4.279 9.074c-2.184 3.122-4.56 5.248-7.558 5.248-1.795 0-2.782-.973-2.782-2.559 0-2.608 2.67-7.39 4.586-9.866 2.005-2.592 4.945-4.719 8.694-4.719.84 0 1.848.112 2.622.487l4.054-.924s-3.58 7.289-5.586 12.095c-.403.964-.922 2.254-.922 3.164 0 .481.172.824.916.824 1.047 0 2.289-.56 3.988-1.802l-1.052 1.531c-1.525.974-3.397 1.697-5.22 1.7-1.923 0-2.507-1.073-2.507-2.22.001-.862.36-1.936.767-2.959"/></g></svg>