<svg viewBox="238.66600036621094 231.33399963378906 558.9869995117188 205.61399841308594" width="558.987" height="205.614" xmlns="http://www.w3.org/2000/svg"><defs><clipPath id="a"><path d="M0 612.288h858.898V0H0v612.288z"/></clipPath></defs><g clip-path="url(#a)" transform="matrix(1.25, 0, 0, -1.25, 0, 765.3599853515626)"><path d="M312.546 408.853l5.706-21.938c1.242-4.817 2.41-9.276 3.21-13.737h.267c.977 4.368 2.409 9.015 3.837 13.737l7.044 21.938h6.603l6.683-21.577c1.608-5.178 2.856-9.73 3.838-14.098h.26c.716 4.368 1.874 8.92 3.306 14.005l6.147 21.67h7.766L353.3 365.69h-7.138l-6.603 20.6c-1.51 4.817-2.761 9.103-3.828 14.178h-.175c-1.072-5.17-2.415-9.631-3.928-14.263l-6.96-20.515h-7.133l-13.015 43.162h8.026zm62.512-11.683c0 4.463-.095 8.12-.366 11.682h6.964l.436-7.134h.185c2.139 4.101 7.134 8.12 14.268 8.12 5.977 0 15.255-3.57 15.255-18.375V365.69h-7.846v24.88c0 6.96-2.585 12.751-10 12.751-5.17 0-9.177-3.657-10.51-8.023-.365-.979-.536-2.317-.536-3.662V365.69h-7.85v31.48zm60.278-23.09c1.518-.271 3.837-.271 6.062-.271 14.268-.095 22.744 7.758 22.744 23 .09 13.294-7.58 20.87-21.316 20.87-3.472 0-5.972-.267-7.49-.615V374.08zm-10.972 50.912c4.82.809 10.972 1.257 17.485 1.257 11.237 0 18.997-2.322 24.528-6.966 5.796-4.721 9.353-11.855 9.353-22.113 0-10.698-3.652-18.732-9.353-23.9-5.977-5.437-15.526-8.206-27.204-8.206-6.417 0-11.237.362-14.81.805v59.123zm58.499-15.874h11.062v-43.427h-11.062v43.427zm11.689 12.131c0-3.299-2.41-5.889-6.248-5.889-3.657 0-6.061 2.59-6.061 5.889 0 3.387 2.499 5.972 6.152 5.972 3.747 0 6.066-2.585 6.157-5.972m8.912-26.131c0 5.892-.085 10.08-.356 14h9.539l.36-8.29h.356c2.14 6.149 7.219 9.274 11.864 9.274 1.067 0 1.693-.09 2.58-.265v-10.345c-.887.173-1.869.35-3.207.35-5.26 0-8.832-3.386-9.814-8.288-.17-.985-.346-2.142-.346-3.39v-22.473h-10.976v29.427zm55.554-3.116c.09 4.008-1.688 10.606-9.003 10.606-6.778 0-9.63-6.152-10.075-10.606h19.078zm-19.078-7.675c.266-7.848 6.423-11.24 13.372-11.24 5.085 0 8.742.722 12.043 1.964l1.608-7.58c-3.742-1.517-8.917-2.76-15.165-2.76-14.087 0-22.388 8.737-22.388 22.028 0 12.034 7.314 23.363 21.232 23.363 14.177 0 18.72-11.592 18.72-21.133 0-2.054-.174-3.655-.35-4.642H539.94zm67.943-17.299c-2.32-1.075-6.859-2.317-12.304-2.317-13.547 0-22.384 8.737-22.384 22.203 0 13.021 8.928 23.188 24.172 23.188 4.013 0 8.116-.894 10.606-2.049l-1.959-8.21c-1.784.808-4.373 1.7-8.286 1.7-8.386 0-13.38-6.15-13.29-14.095 0-8.91 5.795-14 13.29-14 3.828 0 6.502.804 8.642 1.693l1.513-8.113zm19.804 53.239v-11.15h10.436v-8.2h-10.436v-19.175c0-5.263 1.423-8.028 5.62-8.028 2.045 0 3.027.185 4.279.538l.176-8.384c-1.598-.62-4.454-1.157-7.931-1.157-4.012 0-7.41 1.422-9.458 3.654-2.314 2.498-3.387 6.421-3.387 12.134v20.418h-6.247v8.2h6.247v8.03l10.7 3.12z" fill="#231f20"/><path d="M427.876 336.165l-6.292 8.211 27.67 6.891-12.145-27.138-6.358 8.294m-149.892 16.903c-5.601.043-11.893 2.364-18.707 6.25-6.808 3.915-14.037 9.488-20.906 16.411-4.413 4.467-8.256 9.066-11.462 13.595l6.358 4.501c2.94-4.168 6.522-8.454 10.645-12.615 6.403-6.462 13.146-11.64 19.243-15.137 6.057-3.522 11.558-5.263 14.829-5.22 1.914.015 2.82.473 3.28.937.513.506.993 1.458 1.008 3.432.045 3.251-1.638 8.622-5.045 14.593-3.386 5.987-8.426 12.65-14.774 19.06-6.442 6.51-13.271 11.776-19.428 15.352-6.132 3.592-11.692 5.388-14.943 5.341-1.84-.018-2.701-.456-3.147-.895-.481-.473-.972-1.422-.982-3.4-.005-1.83.486-4.37 1.564-7.285l-7.325-2.67c-1.272 3.522-2.02 6.828-2.03 9.954-.004 3.251.888 6.548 3.303 8.933 2.324 2.307 5.49 3.163 8.617 3.145 5.635-.047 11.968-2.432 18.846-6.394 6.859-3.983 14.148-9.637 21.057-16.6 6.793-6.867 12.223-14.01 16.02-20.703 3.768-6.724 6.007-12.91 6.053-18.43.014-3.27-.902-6.564-3.317-8.962-2.344-2.32-5.546-3.193-8.702-3.193h-.055z" fill="#4c7d86"/><path d="M209.9 277.997c-12.214 9.456-18.967 22.745-18.947 36.897 0 1.165.04 2.332.135 3.502 1.312 16.908 8.938 31.902 17.148 43.913 8.182 11.986 17.124 21.157 21.077 25.876 5.611 6.605 21.091 22.832 35.835 31.056 4.949 2.707 9.854 4.628 14.779 4.666 3.306.03 6.738-1.037 9.388-3.45 2.901-2.602 3.963-6.301 3.923-9.64-.06-6.168-2.861-12.287-5.461-17.217-2.63-4.876-5.22-8.411-5.28-8.504l-6.292 4.597s.125.167.38.533c.256.366.631.91 1.072 1.586a78.134 78.134 0 0 1 3.262 5.48c2.394 4.357 4.599 9.943 4.534 13.525-.026 1.989-.471 3.03-1.368 3.859-1.112.99-2.295 1.413-4.158 1.44-2.711.033-6.709-1.282-11.017-3.694-4.313-2.38-8.968-5.754-13.391-9.418-8.862-7.32-16.888-15.831-20.249-19.84-4.319-5.117-12.826-13.851-20.616-25.243-7.78-11.378-14.669-25.235-15.806-40.13a40.1 40.1 0 0 1-.115-2.897c.03-11.673 5.405-22.522 15.946-30.75 10.546-8.198 26.367-13.637 46.957-13.637 20.069-.005 44.627 5.178 72.947 17.878 70.949 31.824 95.728 51.498 98.228 53.562.175.143.215.18.215.18l5.095-5.891c-.381-.324-24.172-20.788-100.361-54.955-29.127-13.063-54.717-18.551-76.124-18.551-21.943 0-39.507 5.779-51.736 15.267m7.344 123.503l12.4-7.243 1.162 14.28-13.562-7.036z" fill="#4c7d86"/></g></svg>