<?xml version="1.0" encoding="utf-8"?>
<svg viewBox="238.66600036621094 231.33399963378906 558.9869995117188 205.61399841308594" width="558.9869995117188" height="205.61399841308594" xmlns="http://www.w3.org/2000/svg">
  <defs>
    <clipPath id="clipPath16" clipPathUnits="userSpaceOnUse">
      <path id="path18" d="m 0,612.288 858.898,0 L 858.898,0 0,0 0,612.288 Z"/>
    </clipPath>
  </defs>
  <g transform="matrix(1.25, 0, 0, -1.25, 0, 765.3599853515626)" id="g10">
    <g id="g12">
      <g clip-path="url(#clipPath16)" id="g14">
        <g transform="translate(312.5458,408.8525)" id="g20">
          <path id="path22" style="fill:#231f20;fill-opacity:1;fill-rule:nonzero;stroke:none" d="m 0,0 5.706,-21.938 c 1.242,-4.817 2.41,-9.276 3.211,-13.737 l 0.266,0 c 0.977,4.368 2.409,9.015 3.837,13.737 L 20.064,0 26.667,0 33.35,-21.577 c 1.608,-5.178 2.856,-9.73 3.838,-14.098 l 0.26,0 c 0.716,4.368 1.874,8.92 3.306,14.005 L 46.901,0 l 7.766,0 -13.913,-43.162 -7.138,0 -6.603,20.6 c -1.509,4.817 -2.761,9.103 -3.828,14.178 l -0.175,0 c -1.072,-5.17 -2.415,-9.631 -3.928,-14.263 l -6.959,-20.515 -7.134,0 L -8.026,0 0,0 Z"/>
        </g>
        <g transform="translate(375.0578,397.1693)" id="g24">
          <path id="path26" style="fill:#231f20;fill-opacity:1;fill-rule:nonzero;stroke:none" d="m 0,0 c 0,4.464 -0.095,8.121 -0.366,11.683 l 6.964,0 0.436,-7.134 0.185,0 c 2.139,4.101 7.134,8.119 14.268,8.119 5.977,0 15.255,-3.57 15.255,-18.374 l 0,-25.773 -7.846,0 0,24.879 c 0,6.961 -2.585,12.752 -9.999,12.752 -5.17,0 -9.178,-3.657 -10.51,-8.023 C 8.021,-2.85 7.85,-4.188 7.85,-5.533 l 0,-25.946 -7.85,0 L 0,0 Z"/>
        </g>
        <g transform="translate(435.3356,374.0796)" id="g28">
          <path id="path30" style="fill:#231f20;fill-opacity:1;fill-rule:nonzero;stroke:none" d="m 0,0 c 1.518,-0.271 3.837,-0.271 6.062,-0.271 14.268,-0.095 22.744,7.758 22.744,23 C 28.896,36.023 21.227,43.6 7.49,43.6 4.018,43.6 1.518,43.332 0,42.984 L 0,0 Z m -10.972,50.912 c 4.82,0.809 10.972,1.257 17.485,1.257 11.237,0 18.997,-2.322 24.528,-6.966 5.796,-4.721 9.353,-11.855 9.353,-22.113 0,-10.698 -3.652,-18.732 -9.353,-23.9 -5.977,-5.437 -15.526,-8.206 -27.204,-8.206 -6.417,0 -11.237,0.362 -14.809,0.805 l 0,59.123 z"/>
        </g>
        <path id="path32" style="fill:#231f20;fill-opacity:1;fill-rule:nonzero;stroke:none" d="m 482.863,409.118 11.062,0 0,-43.427 -11.062,0 0,43.427 z m 11.689,12.131 c 0,-3.299 -2.41,-5.889 -6.248,-5.889 -3.657,0 -6.061,2.59 -6.061,5.889 0,3.387 2.499,5.972 6.152,5.972 3.747,0 6.066,-2.585 6.157,-5.972"/>
        <g transform="translate(503.464,395.1179)" id="g34">
          <path id="path36" style="fill:#231f20;fill-opacity:1;fill-rule:nonzero;stroke:none" d="m 0,0 c 0,5.892 -0.085,10.08 -0.356,14 l 9.539,0 0.36,-8.289 0.356,0 c 2.14,6.148 7.219,9.273 11.864,9.273 1.067,0 1.693,-0.089 2.58,-0.265 l 0,-10.345 c -0.887,0.173 -1.869,0.35 -3.207,0.35 -5.26,0 -8.832,-3.386 -9.814,-8.288 -0.17,-0.985 -0.346,-2.142 -0.346,-3.389 l 0,-22.474 L 0,-29.427 0,0 Z"/>
        </g>
        <g transform="translate(559.0176,392.0019)" id="g38">
          <path id="path40" style="fill:#231f20;fill-opacity:1;fill-rule:nonzero;stroke:none" d="M 0,0 C 0.09,4.008 -1.688,10.606 -9.003,10.606 -15.781,10.606 -18.632,4.454 -19.078,0 L 0,0 Z m -19.078,-7.675 c 0.266,-7.848 6.423,-11.239 13.372,-11.239 5.085,0 8.742,0.721 12.043,1.963 l 1.608,-7.579 c -3.742,-1.518 -8.917,-2.761 -15.165,-2.761 -14.087,0 -22.388,8.737 -22.388,22.028 0,12.034 7.314,23.363 21.232,23.363 14.177,0 18.721,-11.592 18.721,-21.133 0,-2.054 -0.175,-3.655 -0.351,-4.642 l -29.072,0 z"/>
        </g>
        <g transform="translate(607.8832,367.0284)" id="g42">
          <path id="path44" style="fill:#231f20;fill-opacity:1;fill-rule:nonzero;stroke:none" d="m 0,0 c -2.32,-1.075 -6.859,-2.317 -12.304,-2.317 -13.547,0 -22.384,8.737 -22.384,22.203 0,13.021 8.928,23.188 24.172,23.188 4.013,0 8.116,-0.894 10.606,-2.049 l -1.959,-8.211 c -1.784,0.809 -4.373,1.701 -8.286,1.701 -8.386,0 -13.381,-6.15 -13.291,-14.095 0,-8.91 5.796,-14 13.291,-14 3.828,0 6.502,0.804 8.642,1.693 L 0,0 Z"/>
        </g>
        <g transform="translate(627.6866,420.2673)" id="g46">
          <path id="path48" style="fill:#231f20;fill-opacity:1;fill-rule:nonzero;stroke:none" d="m 0,0 0,-11.15 10.436,0 0,-8.2 -10.436,0 0,-19.175 c 0,-5.263 1.423,-8.028 5.621,-8.028 2.044,0 3.026,0.185 4.278,0.538 l 0.176,-8.384 c -1.598,-0.621 -4.454,-1.157 -7.931,-1.157 -4.012,0 -7.409,1.422 -9.458,3.654 -2.314,2.498 -3.387,6.421 -3.387,12.134 l 0,20.418 -6.247,0 0,8.2 6.247,0 0,8.029 L 0,0 Z"/>
        </g>
        <g transform="translate(427.8761,336.1651)" id="g50">
          <path id="path52" style="fill:#4c7d86;fill-opacity:1;fill-rule:nonzero;stroke:none" d="M 0,0 -6.292,8.211 21.377,15.102 9.233,-12.036 2.875,-3.742"/>
        </g>
        <g transform="translate(280.8586,349.3262)" id="g54">
          <path id="path56" style="fill:#4c7d86;fill-opacity:1;fill-rule:nonzero;stroke:none" d="m 0,0 c -5.601,0.043 -11.893,2.364 -18.707,6.249 -6.808,3.916 -14.037,9.489 -20.906,16.412 -4.413,4.467 -8.256,9.066 -11.462,13.595 l 6.358,4.501 c 2.94,-4.168 6.522,-8.454 10.645,-12.615 6.403,-6.462 13.146,-11.64 19.243,-15.137 C -8.772,9.483 -3.271,7.742 0,7.785 1.914,7.8 2.82,8.258 3.281,8.722 c 0.512,0.506 0.992,1.458 1.007,3.432 0.045,3.251 -1.638,8.622 -5.045,14.593 -3.386,5.987 -8.426,12.65 -14.774,19.06 -6.442,6.51 -13.271,11.776 -19.428,15.352 -6.132,3.592 -11.692,5.388 -14.943,5.341 -1.839,-0.018 -2.701,-0.456 -3.147,-0.895 -0.481,-0.473 -0.972,-1.422 -0.982,-3.401 -0.005,-1.829 0.486,-4.369 1.564,-7.284 l -7.325,-2.671 c -1.272,3.523 -2.019,6.829 -2.029,9.955 -0.005,3.251 0.887,6.548 3.302,8.933 2.324,2.307 5.49,3.163 8.617,3.145 5.635,-0.047 11.968,-2.432 18.846,-6.394 6.859,-3.983 14.148,-9.637 21.057,-16.601 C -3.206,44.421 2.224,37.278 6.022,30.585 9.789,23.861 12.028,17.674 12.074,12.154 12.088,8.885 11.172,5.591 8.757,3.193 6.413,0.872 3.211,0 0.055,0 L 0,0 Z"/>
        </g>
        <g transform="translate(209.9,277.9967)" id="g58">
          <path id="path60" style="fill:#4c7d86;fill-opacity:1;fill-rule:nonzero;stroke:none" d="m 0,0 c -12.214,9.456 -18.967,22.745 -18.947,36.897 0,1.165 0.04,2.332 0.135,3.502 1.312,16.908 8.938,31.902 17.148,43.913 8.182,11.986 17.124,21.157 21.077,25.876 5.611,6.605 21.091,22.832 35.835,31.056 4.949,2.707 9.854,4.628 14.779,4.666 3.306,0.03 6.738,-1.037 9.388,-3.449 2.901,-2.603 3.963,-6.302 3.923,-9.641 -0.06,-6.168 -2.861,-12.287 -5.461,-17.217 -2.63,-4.876 -5.22,-8.411 -5.28,-8.504 l -6.292,4.597 c 0,0 0.125,0.167 0.38,0.533 0.256,0.366 0.631,0.91 1.072,1.586 0.887,1.365 2.084,3.291 3.262,5.481 2.394,4.356 4.599,9.942 4.534,13.524 -0.026,1.989 -0.471,3.03 -1.368,3.859 -1.112,0.99 -2.295,1.413 -4.158,1.441 -2.711,0.032 -6.709,-1.283 -11.017,-3.695 -4.313,-2.38 -8.968,-5.754 -13.391,-9.418 C 36.757,117.688 28.731,109.176 25.37,105.168 21.051,100.05 12.544,91.316 4.754,79.924 -3.026,68.546 -9.915,54.689 -11.052,39.795 c -0.07,-0.967 -0.115,-1.931 -0.115,-2.898 0.03,-11.673 5.405,-22.522 15.946,-30.75 10.546,-8.198 26.367,-13.637 46.957,-13.637 20.069,-0.005 44.627,5.178 72.947,17.878 70.949,31.824 95.728,51.498 98.228,53.562 0.175,0.143 0.215,0.18 0.215,0.18 l 5.095,-5.891 C 227.84,57.915 204.049,37.451 127.86,3.284 98.733,-9.779 73.143,-15.267 51.736,-15.267 29.793,-15.267 12.229,-9.488 0,0"/>
        </g>
        <g transform="translate(217.2442,401.5006)" id="g62">
          <path id="path64" style="fill:#4c7d86;fill-opacity:1;fill-rule:nonzero;stroke:none" d="M 0,0 12.399,-7.244 13.562,7.036 0,0 Z"/>
        </g>
      </g>
    </g>
  </g>
</svg>