<?xml version="1.0" encoding="UTF-8" standalone="no"?>
<svg
   xmlns:dc="http://purl.org/dc/elements/1.1/"
   xmlns:cc="http://creativecommons.org/ns#"
   xmlns:rdf="http://www.w3.org/1999/02/22-rdf-syntax-ns#"
   xmlns:svg="http://www.w3.org/2000/svg"
   xmlns="http://www.w3.org/2000/svg"
   xmlns:sodipodi="http://sodipodi.sourceforge.net/DTD/sodipodi-0.dtd"
   xmlns:inkscape="http://www.inkscape.org/namespaces/inkscape"
   viewBox="-0.0020000001 0.016000001 876.42419 467.08295"
   width="876.42419"
   height="467.08295"
   id="svg2"
   version="1.1"
   inkscape:version="0.91 r13725"
   sodipodi:docname="hol.svg">
  <metadata
     id="metadata105">
    <rdf:RDF>
      <cc:Work
         rdf:about="">
        <dc:format>image/svg+xml</dc:format>
        <dc:type
           rdf:resource="http://purl.org/dc/dcmitype/StillImage" />
        <dc:title></dc:title>
      </cc:Work>
    </rdf:RDF>
  </metadata>
  <sodipodi:namedview
     pagecolor="#ffffff"
     bordercolor="#666666"
     borderopacity="1"
     objecttolerance="10"
     gridtolerance="10"
     guidetolerance="10"
     inkscape:pageopacity="0"
     inkscape:pageshadow="2"
     inkscape:window-width="1225"
     inkscape:window-height="708"
     id="namedview103"
     showgrid="false"
     fit-margin-top="0"
     fit-margin-left="0"
     fit-margin-right="0"
     fit-margin-bottom="0"
     inkscape:zoom="0.44212225"
     inkscape:cx="290.52769"
     inkscape:cy="543.7489"
     inkscape:window-x="87"
     inkscape:window-y="0"
     inkscape:window-maximized="0"
     inkscape:current-layer="svg2" />
  <defs
     id="defs4">
    <clipPath
       id="a">
      <path
         d="m 2265.73,3429.25 c -37.64,29.42 -72.98,1.67 -84.63,-8.11 -4.94,7.53 -39.65,61.06 -85.34,28.41 -41.19,-29.42 32.62,-157.4 65.92,-169.07 l 3.4,-1.59 c 32.45,1.47 143.22,117.08 100.65,150.36 z"
         id="path7"
         inkscape:connector-curvature="0" />
    </clipPath>
  </defs>
  <path
     d="m 528.18937,423.28638 c 5.97737,1.20039 13.47124,8.14762 14.98534,13.89488 1.51649,5.74685 9.00864,12.69579 14.98602,13.89617"
     id="path9"
     inkscape:connector-curvature="0"
     style="fill:none;stroke:#ef2f2c;stroke-width:1.69425988" />
  <path
     d="m 520.31597,438.38413 c 5.53048,1.40169 11.5542,8.37607 12.04684,13.95091 0.49185,5.57355 6.51666,12.54815 12.04576,13.9507"
     id="path11"
     inkscape:connector-curvature="0"
     style="fill:none;stroke:#a4262c;stroke-width:1.704898" />
  <path
     d="m 522.73479,433.83653 c 5.47619,1.05477 11.63425,7.49654 12.3176,12.88611 0.68229,5.38933 6.84003,11.83213 12.31622,12.8869"
     id="path13"
     inkscape:connector-curvature="0"
     style="fill:none;stroke:#ef2f2c;stroke-width:1.69945753" />
  <path
     d="m 525.72136,428.87744 c 5.90903,0.99418 12.55154,7.7872 13.28775,13.58791 0.73382,5.79783 7.37838,12.59143 13.28639,13.58532"
     id="path15"
     inkscape:connector-curvature="0"
     style="fill:none;stroke:#a4262c;stroke-width:1.87219167" />
  <path
     d="m 536.2157,416.45686 c 5.56585,0.0369 12.2544,5.32965 13.37608,10.5851 1.12339,5.25705 7.80955,10.55017 13.37574,10.58611"
     id="path17"
     inkscape:connector-curvature="0"
     style="fill:none;stroke:#ef2f2c;stroke-width:1.82424355" />
  <path
     d="m 538.60606,411.10668 c 5.49238,-0.31655 12.13259,4.65881 13.27735,9.94734 1.14629,5.29021 7.78554,10.2652 13.27888,9.94902"
     id="path19"
     inkscape:connector-curvature="0"
     style="fill:none;stroke:#a4262c;stroke-width:1.91285574" />
  <path
     d="m 532.51531,420.21172 c 5.99682,0.37597 12.81597,6.48677 13.63754,12.22032 0.82234,5.73482 7.64042,11.84539 13.63724,12.22137"
     id="path21"
     inkscape:connector-curvature="0"
     style="fill:none;stroke:#a4262c;stroke-width:1.95525348" />
  <path
     d="m 298.43016,167.9011 c -28.3747,-13.0946 -50.9733,-36.932 -65.624,-64.1666 -3.0347,-5.6427 -28.5267,24.7666 -15.976,36.5026 28.7733,26.904 66.9413,42.7267 107.5627,43.396 4.1466,0.068 8.2946,0.02 12.44,-0.088 -8.048,-3.024 -33.2587,-13.2693 -38.4027,-15.644"
     id="path23"
     inkscape:connector-curvature="0"
     style="fill:#a4262c" />
  <path
     d="m 127.88486,149.3638 c 0,0 -8.452,-67.2893 12.316,-82.6427 20.772,-15.3506 41.5386,-6.32 47.86,3.612 6.3226,9.9347 17.16,27.9107 3.6133,88.9094 0,0 -53.532,22.1893 -63.7893,-9.8787"
     id="path25"
     inkscape:connector-curvature="0"
     style="fill:#25285b" />
  <path
     d="m 111.81016,145.8771 c 8.592,1.6294 42.6533,8.5427 48.1907,16.76 0,0 31.1746,-19.6893 46.584,-17.1226 l 34.244,8.444 c 0,0 34.2453,102.6106 53.936,275.24 0,0 1.7106,9.9666 -81.332,15.1026 0,0 -38.5254,-0.856 -43.6627,6.848 l -15.4093,0 c 0,0 -20.548,-11.1266 -44.5174,-6.848 -23.970597,4.2787 -75.336397,-2.5666 -79.617597,-9.4173 -4.2822,-6.8507 19.6883,-167.8 19.6883,-167.8 0,0 5.304,-109.4373 36.8147,-114.676 13.783997,-2.2933 23.825297,-6.7693 25.081297,-6.5307"
     id="path27"
     inkscape:connector-curvature="0"
     style="fill:#25285b" />
  <path
     d="m 112.29946,148.6238 c 6.5907,1.2653 13.1307,2.7307 19.6347,4.3787 8.128,2.0586 21.0973,4.528 26.7987,11.3693 0.6346,0.7587 1.9213,1.3893 2.86,0.8013 12.4866,-7.816 31.8453,-20.2746 47.0773,-16.52 7.7013,1.8987 15.4013,3.7987 23.1013,5.6974 2.9387,0.724 5.8774,1.448 8.816,2.1746 1.8174,0.448 -2.4373,-3.9306 -1.5786,-1.2853 7.9946,24.64 14.1493,49.9307 19.9853,75.1493 13.7427,59.384 23.7387,119.6227 31.2693,180.0894 0.6507,5.2133 2.2507,14.7186 2.136,17.7986 0.0187,-0.4853 0.1854,-0.5386 -0.1866,-0.0773 -1.6214,2.0067 -5.2107,2.9453 -7.4894,3.708 -19.9666,6.7013 -42.5333,7.5173 -63.3173,9.0547 -16.3893,1.2093 -34.604,-1.268 -50.06,5.2293 -3.32,1.3973 -1.8053,2.2133 -5.3947,2.2133 l -11.6493,0 c -1.748,0 -5.0427,-2.1613 -6.7533,-2.82 -5.9067,-2.2666 -12.128,-3.5746 -18.368,-4.4826 -12.6654,-1.844 -25.3747,1.6493 -38.069397,1.7813 -13.02,0.1333 -26.116,-1.2213 -38.9493,-3.332 -3.4907,-0.5733 -19.5805,-2.8947 -19.9967,-5.836 -0.639,-4.5413 0.1635,-9.576 0.512,-14.108 4.2558,-55.4347 15.7807,-110.0587 20.618,-165.376 2.004,-22.9453 5.2467,-46.1013 12.1427,-68.1307 2.9427,-9.3933 6.848,-19.0106 13.732,-26.228 4.4267,-4.644 10.4693,-4.9893 16.408,-6.3093 5.691997,-1.2653 11.518697,-4.3747 17.301297,-4.948 2.9347,-0.2907 0.5014,-5.7373 -2.1386,-5.476 -8.6347,0.8547 -19.383997,4.6267 -27.647997,7.2027 -5.708,1.78 -9.84,6.8973 -12.9947,11.6826 -9.6107,14.5907 -13.1747,33.508 -16.2813,50.3814 -3.7854,20.548 -4.4707,41.3453 -7.4867,61.944 -5.0683,34.6133 -9.9324,69.264 -14.1933,103.988 -1.8766,15.296 -3.811,30.6573 -4.6443,46.052 -0.4797,8.856 0.0844,13.4133 9.1765,16.7333 19.745,7.2133 43.689,8.004 64.450997,7 15.322,-0.7387 28.768,-2.952 43.869,1.7907 7.138,2.2413 10.037,3.98 17.564,3.98 2.61,0 5.698,0.4666 8.285,-0.008 2.521,-0.46 5.568,-3.416 8.473,-4.1974 9.754,-2.6226 20.526,-2.6106 30.561,-2.6693 21.668,-0.128 43.962,-2.5387 65.245,-6.684 6.469,-1.2613 16.288,-2.5933 21.094,-7.8293 0.514,-0.5587 0.954,-1.5 0.917,-2.2814 -0.752,-16.5973 -4.008,-33.4733 -6.285,-49.924 -7.74,-55.956 -17.968,-111.6333 -31.314,-166.5306 -4.19,-17.22 -8.728,-34.3667 -13.826,-51.3414 -3.074,-10.228 -3.846,-10.84 -14.916,-13.5693 -8.718,-2.1507 -17.752,-5.3693 -26.702,-6.2987 -11.691,-1.212 -25.028,6.2547 -35.004,11.444 -3.577,1.8614 -7.087,3.8747 -10.517,5.996 2.08,-1.2853 1.277,-0.888 -1.576,-2.8733 -2.036,-1.4147 -4.435,-2.4133 -6.678,-3.4147 -12.179,-5.4266 -25.969,-8.0786 -38.993,-10.5813 -3.232,-0.6213 -1.547,5.0067 0.977,5.492"
     id="path29"
     inkscape:connector-curvature="0"
     style="fill:#ffffff" />
  <path
     d="m 159.86346,451.8931 -1.1506,-305.7866 4.8506,-0.0787 1.152,305.788 -4.852,0.0773"
     id="path31"
     inkscape:connector-curvature="0"
     style="fill:#ffffff" />
  <path
     d="m 232.04746,141.6918 c 7.9974,0 3.8867,-7.4547 -2.2506,-7.4547 -7.9974,0 -3.8867,7.4547 2.2506,7.4547"
     id="path33"
     inkscape:connector-curvature="0"
     style="fill:#231f20" />
  <path
     d="m 254.17146,165.5651 c -0.104,0.009 -26.4546,1.796 -24.016,37.7534 2.444,36.028 28.0894,175.1026 28.0894,175.1026 0,0 36.0786,4.192 60.9813,-17.164 l -46.404,-175.652 c 0,0 -2.6667,-15.2746 -18.6507,-20.04"
     id="path35"
     inkscape:connector-curvature="0"
     style="fill:#25285b" />
  <path
     d="m 255.25016,164.0838 c -42.164,3.5587 -23.628,68.3987 -19.612,93.96 6.332,40.304 13.428,80.5013 20.8213,120.6213 0.1867,1.0054 1.5,1.164 2.3107,1.2507 22.5093,2.4253 46.6867,-3.9053 64.2947,-18.1227 0.2333,-0.2093 0.348,-0.468 0.348,-0.78 -9.3547,-35.3973 -18.7054,-70.796 -28.056,-106.1933 -5.288,-20.016 -10.5747,-40.0347 -15.8627,-60.0493 -3.5827,-13.556 -7.2613,-25.0334 -22.0973,-30.4267 -1.736,-0.6307 -7.1774,1.3053 -4.0507,2.4427 13.1813,4.7906 16.4973,14.5386 19.6187,26.3586 3.5506,13.4374 7.1013,26.8747 10.6493,40.3094 9.3707,35.472 18.7413,70.94 28.112,106.4106 1.3467,5.1014 2.696,10.2014 4.0427,15.3054 1.644,6.2266 2.78,5.2386 -3.2374,9.548 -11.7133,8.388 -26.6346,11.596 -40.7613,12.4346 -3.4533,0.2054 -6.928,0.124 -10.376,-0.1133 -2.416,-0.164 1.2827,2.4813 0.8013,-0.136 -6.1653,-33.5867 -12.0733,-67.2267 -17.62,-100.92 -3.5146,-21.3627 -7.0306,-42.7707 -9.4386,-64.292 -1.7654,-15.772 -1.0067,-42.8413 20.356,-44.644 3.5773,-0.3027 3.3386,-3.2667 -0.2427,-2.964"
     id="path37"
     inkscape:connector-curvature="0"
     style="fill:#ffffff" />
  <path
     d="m 234.75016,123.4585 0,0.9066 c 0,1.2454 -0.044,23.9587 0.2387,23.9587 0.2826,0 0.2386,-22.7133 0.2386,-23.9587 l 0,-2.7613 c 0,-1.2453 0.044,-23.9587 -0.2386,-23.9587 -0.2827,0 -0.2387,22.7134 -0.2387,23.9587 l 0,0.2587 c 0,1.2453 -0.044,23.9586 0.2387,23.9586 0.2826,0 0.2386,-22.7133 0.2386,-23.9586 l 0,-0.2587 c 0,-1.2453 0.044,-23.9587 -0.2386,-23.9587 -0.2827,0 -0.2387,22.7134 -0.2387,23.9587 l 0,2.7613 c 0,1.2454 -0.044,23.9587 0.2387,23.9587 0.2826,0 0.2386,-22.7133 0.2386,-23.9587 l 0,-0.9066 c 0,-1.244 0.044,-23.9587 -0.2386,-23.9587 -0.2827,0 -0.2387,22.7147 -0.2387,23.9587 m 125.3747,74.452 c 5.1893,-24.492 20.468,-67.5174 20.468,-67.5174 l 1.2746,-5.3626"
     id="path39"
     inkscape:connector-curvature="0"
     style="fill:#231f20" />
  <path
     d="m 360.12486,197.9105 c 5.1893,-24.492 20.468,-67.5174 20.468,-67.5174 l 1.2746,-5.3626"
     id="path41"
     inkscape:connector-curvature="0"
     style="fill:none;stroke:#ffffff;stroke-width:2.39580011" />
  <path
     d="m 142.84746,234.1158 c 3.4534,0 6.2547,-2.8 6.2547,-6.2533 0,-3.4547 -2.8013,-6.2547 -6.2547,-6.2547 -3.4546,0 -6.2546,2.8 -6.2546,6.2547 0,3.4533 2.8,6.2533 6.2546,6.2533 m 37.9707,0 c 3.4547,0 6.2547,-2.8 6.2547,-6.2533 0,-3.4547 -2.8,-6.2547 -6.2547,-6.2547 -3.4533,0 -6.2533,2.8 -6.2533,6.2547 0,3.4533 2.8,6.2533 6.2533,6.2533 m -38.5053,30.568 c 3.4546,0 6.2546,-2.8013 6.2546,-6.2547 0,-3.4546 -2.8,-6.2546 -6.2546,-6.2546 -3.4534,0 -6.2547,2.8 -6.2547,6.2546 0,3.4534 2.8013,6.2547 6.2547,6.2547 m 37.972,0 c 3.4546,0 6.2546,-2.8013 6.2546,-6.2547 0,-3.4546 -2.8,-6.2546 -6.2546,-6.2546 -3.4547,0 -6.2547,2.8 -6.2547,6.2546 0,3.4534 2.8,6.2547 6.2547,6.2547"
     id="path43"
     inkscape:connector-curvature="0"
     style="fill:#ffffff" />
  <g
     transform="matrix(1.33333,0,0,1.33333,409.17817,378.21681)"
     style="font-weight:500;font-size:85.1957016px;font-family:Futura;white-space:pre;fill:#ed212a"
     id="text45">
    <path
       d="m 4.4927421,-32.405982 q 0,-13.561425 9.9422719,-23.2957 9.900672,-9.734274 23.794893,-9.734274 13.727823,0 23.545297,9.817473 9.859072,9.817473 9.859072,23.586896 0,13.852621 -9.900672,23.5036969 -9.942272,9.6926751 -24.00289,9.6926751 -12.43824,0 -22.338912,-8.611089 Q 4.4927421,-16.972581 4.4927421,-32.405982 Z m 9.7758739,0.124798 q 0,10.649463 7.155108,17.513374 7.113508,6.8639119 16.431788,6.8639119 10.10867,0 17.05578,-6.9887099 6.94711,-7.071909 6.94711,-17.222178 0,-10.275067 -6.863911,-17.222178 -6.822312,-6.98871 -16.889382,-6.98871 -10.025471,0 -16.930982,6.98871 -6.905511,6.905511 -6.905511,17.05578 z"
       id="path3434"
       inkscape:connector-curvature="0" />
    <path
       d="m 83.906121,0 0,-68.597516 46.840999,49.004169 0,-44.636225 9.69267,0 0,68.1399216 -46.840994,-48.8793696 0,44.96902 -9.692675,0 z"
       id="path3436"
       inkscape:connector-curvature="0" />
    <path
       d="m 155.78999,0 0,-64.229572 13.47822,0 q 9.69268,0 15.30861,1.913575 6.03192,1.871976 10.94065,6.364718 9.94228,9.068683 9.94228,23.836493 0,14.809409 -10.35827,23.9612911 -5.19993,4.575941 -10.89906,6.364718 Q 178.87769,0 169.10181,0 l -13.31182,0 z m 9.69267,-9.1102825 4.36795,0 q 6.53111,0 10.85746,-1.3727825 4.32634,-1.455981 7.82069,-4.61754 7.15511,-6.531116 7.15511,-17.014181 0,-10.566264 -7.07191,-17.138979 -6.36471,-5.865524 -18.76135,-5.865524 l -4.36795,0 0,46.0090065 z"
       id="path3438"
       inkscape:connector-curvature="0" />
    <path
       d="m 214.48684,-32.405982 q 0,-13.561425 9.94227,-23.2957 9.90067,-9.734274 23.79489,-9.734274 13.72782,0 23.5453,9.817473 9.85907,9.817473 9.85907,23.586896 0,13.852621 -9.90067,23.5036969 -9.94227,9.6926751 -24.00289,9.6926751 -12.43824,0 -22.33891,-8.611089 -10.89906,-9.526277 -10.89906,-24.959678 z m 9.77587,0.124798 q 0,10.649463 7.15511,17.513374 7.11351,6.8639119 16.43179,6.8639119 10.10867,0 17.05578,-6.9887099 6.94711,-7.071909 6.94711,-17.222178 0,-10.275067 -6.86391,-17.222178 -6.82232,-6.98871 -16.88939,-6.98871 -10.02547,0 -16.93098,6.98871 -6.90551,6.905511 -6.90551,17.05578 z"
       id="path3440"
       inkscape:connector-curvature="0" />
    <path
       d="m 293.90022,0 0,-68.597516 46.84099,49.004169 0,-44.636225 9.69268,0 0,68.1399216 -46.841,-48.8793696 0,44.96902 -9.69267,0 z"
       id="path3442"
       inkscape:connector-curvature="0" />
  </g>
  <g
     transform="matrix(1.33333,0,0,1.33333,427.93717,260.10679)"
     style="font-weight:500;font-size:71.26509857px;font-family:Futura;white-space:pre;fill:#25285b"
     id="text49">
    <path
       d="m 9.0821244,-53.727203 13.9885596,35.910928 14.614913,-38.520734 13.988559,38.520734 14.858495,-35.910928 8.803745,0 L 51.326182,3.4101463 37.51161,-34.658222 23.105481,3.4449437 0.27837929,-53.727203 l 8.80374511,0 z"
       id="path3445"
       inkscape:connector-curvature="0" />
    <path
       d="M 100.21655,-22.896697 116.84971,0 l -9.91726,0 -15.345662,-21.991964 -1.461491,0 0,21.991964 -8.107797,0 0,-53.727203 9.499693,0 q 10.648007,0 15.380457,4.001702 5.21961,4.454069 5.21961,11.761525 0,5.706776 -3.27096,9.81287 -3.27095,4.106095 -8.62975,5.254409 z m -10.091253,-6.159142 2.575008,0 q 11.517945,0 11.517945,-8.803745 0,-8.246986 -11.204768,-8.246986 l -2.888185,0 0,17.050731 z"
       id="path3447"
       inkscape:connector-curvature="0" />
    <path
       d="m 156.44917,-13.049029 -23.00109,0 L 127.46292,0 118.72877,0 145.314,-57.102552 170.95969,0 l -8.87334,0 -5.63718,-13.049029 z m -3.30576,-7.620633 -7.9686,-18.268641 -8.35138,18.268641 16.31998,0 z"
       id="path3449"
       inkscape:connector-curvature="0" />
    <path
       d="m 185.74858,-21.817977 0,21.817977 -8.1078,0 0,-53.727203 9.18652,0 q 6.7507,0 10.19564,0.93953 3.47974,0.93953 6.12435,3.549336 4.62805,4.523663 4.62805,11.413551 0,7.377051 -4.94123,11.69193 -4.94123,4.314879 -13.32741,4.314879 l -3.75812,0 z m 0,-7.516241 3.02738,0 q 11.16996,0 11.16996,-8.59496 0,-8.316582 -11.51794,-8.316582 l -2.6794,0 0,16.911542 z"
       id="path3451"
       inkscape:connector-curvature="0" />
    <path
       d="m 246.15689,-53.727203 0,32.361592 q 0,6.924685 2.26183,10.126047 3.37535,4.6280558 9.4997,4.6280558 6.15914,0 9.53449,-4.6280558 2.26183,-3.09697 2.26183,-10.126047 l 0,-32.361592 8.10779,0 0,34.588627 q 0,8.490568 -5.2892,13.9885591 -5.95036,6.12434442 -14.61491,6.12434442 -8.66456,0 -14.58012,-6.12434442 -5.28921,-5.4979911 -5.28921,-13.9885591 l 0,-34.588627 8.1078,0 z"
       id="path3453"
       inkscape:connector-curvature="0" />
    <path
       d="m 298.77057,-21.817977 0,21.817977 -8.1078,0 0,-53.727203 9.18652,0 q 6.7507,0 10.19564,0.93953 3.47974,0.93953 6.12434,3.549336 4.62806,4.523663 4.62806,11.413551 0,7.377051 -4.94123,11.69193 -4.94124,4.314879 -13.32741,4.314879 l -3.75812,0 z m 0,-7.516241 3.02737,0 q 11.16997,0 11.16997,-8.59496 0,-8.316582 -11.51794,-8.316582 l -2.6794,0 0,16.911542 z"
       id="path3455"
       inkscape:connector-curvature="0" />
  </g>
  <path
     d="m 269.20086,179.9198 c -0.4214,-6.2907 -4.3334,-13.504 -7.016,-18.8893 -2.0227,-4.0587 -7.9627,-18.1747 -13.4854,-19.0907 -30.448,-5.0573 -92.0413,-1.688 -91.9213,-1.7853 -15.152,0.5506 -30.3307,0.728 -45.48,0.5306 -9.4453,-0.1226 -19.343997,-0.0813 -29.283997,-0.4653 -1.864,-0.072 -3.1693,2.2467 -3.9853,5.7333 -3.472,7.7627 -10.6894,24.4894 -9.6707,27.24 0.852,2.2987 20.332,5.284 22.8893,5.8347 0.044,0.016 0.0907,0.0173 0.136,0.0267 41.170697,8.8213 83.334697,2.916 125.233397,2.28 2.584,-0.4494 37.628,-2.2227 52.584,-1.4147"
     id="path53"
     inkscape:connector-curvature="0"
     style="fill:#ed212a" />
  <path
     d="m 216.06346,199.0598 c -5.452,-4.26 -10.5693,-0.2427 -12.2586,1.1747 -0.716,-1.0907 -5.7427,-8.8427 -12.36,-4.1147 -5.9667,4.2627 4.724,22.7987 9.548,24.4893 l 0.492,0.2294 c 4.7,-0.2134 20.744,-16.9587 14.5786,-21.7787"
     id="path55"
     inkscape:connector-curvature="0"
     style="fill:#ffffff" />
  <path
     stroke-miterlimit="10"
     d="m 216.06346,199.0598 c -5.452,-4.26 -10.5693,-0.2427 -12.2586,1.1747 -0.716,-1.0907 -5.7427,-8.8427 -12.36,-4.1147 -5.9667,4.2627 4.724,22.7987 9.548,24.4893 l 0.492,0.2294 c 4.7,-0.2134 20.744,-16.9587 14.5786,-21.7787 z"
     id="path57"
     inkscape:connector-curvature="0"
     style="fill:none;stroke:#ffffff;stroke-width:6.77580023;stroke-miterlimit:10" />
  <path
     d="m 216.06346,199.0598 c -5.452,-4.26 -10.5693,-0.2427 -12.2586,1.1747 -0.716,-1.0907 -5.7427,-8.8427 -12.36,-4.1147 -5.9667,4.2627 4.724,22.7987 9.548,24.4893 l 0.492,0.2294 c 4.7,-0.2134 20.744,-16.9587 14.5786,-21.7787"
     id="path59"
     inkscape:connector-curvature="0"
     style="fill:#25285b" />
  <path
     stroke-miterlimit="10"
     d="m 216.06346,199.0598 c -5.452,-4.26 -10.5693,-0.2427 -12.2586,1.1747 -0.716,-1.0907 -5.7427,-8.8427 -12.36,-4.1147 -5.9667,4.2627 4.724,22.7987 9.548,24.4893 l 0.492,0.2294 c 4.7,-0.2134 20.744,-16.9587 14.5786,-21.7787 z"
     id="path61"
     inkscape:connector-curvature="0"
     style="fill:none;stroke:#25285b;stroke-width:1.20079994;stroke-miterlimit:10" />
  <g
     clip-path="url(#a)"
     transform="matrix(0.13333,0,0,-0.13333,-87.22984,656.99681)"
     id="g63">
    <path
       d="m 2018.47,3510.38 c 123.71,-21.81 247.41,-43.62 371.12,-65.44 -13.68,-77.58 -27.36,-155.16 -41.04,-232.75 -123.91,21.85 -247.84,43.7 -371.75,65.55 13.57,76.95 27.14,153.9 40.7,230.84 0.1,0.91 0.21,1.82 0.97,1.8 z m 134.49,-98.67 c 1.9,-1.69 3.7,-4.39 6.45,-4.42 4.35,24.65 8.69,49.31 13.04,73.96 -40.67,6.74 -82.74,15.47 -122.54,20.96 33.83,-29.61 69.99,-61.13 103.05,-90.5 z m 28.72,65.95 c -5.36,-30.4 -10.72,-60.79 -16.08,-91.19 l -161.97,28.56 c -1.91,-10.84 -3.82,-21.68 -5.73,-32.51 53.99,-9.52 107.98,-19.04 161.96,-28.56 -5.47,-31.04 -10.94,-62.07 -16.41,-93.11 10.2,-1.8 20.41,-3.59 30.61,-5.39 5.82,30.53 10.24,63.06 16.94,92.34 53.77,-9.48 107.55,-18.96 161.32,-28.44 1.92,10.84 3.83,21.68 5.74,32.52 -53.7,9.9 -109.4,18.41 -161.86,29.19 5.48,31.04 10.95,62.07 16.42,93.1 l -29.97,5.28 c -0.76,0.03 -0.87,-0.88 -0.97,-1.79 z m 39.87,-5.06 c -5.8,-24.18 -9.32,-51.61 -14.25,-77.04 41.45,15.72 89.11,34.42 131.32,51.14 2.64,1.05 7.77,1.93 6.63,4.08 -41.24,7.28 -82.47,14.55 -123.7,21.82 z m 140.92,-24.85 c -51.25,-20.19 -102.75,-40.04 -153.97,-60.29 15.8,-4.88 22.78,0.25 33.69,4.58 39.34,15.58 76.58,29.87 114.31,44.27 6.14,2.34 13.23,4.59 18.09,9.3 -4.04,0.71 -8.08,1.43 -12.12,2.14 z m -344.67,47.63 c 30.82,-26.43 62.58,-54.26 93.44,-81.57 8.12,-7.18 13.79,-14.73 27.88,-13.47 -40.33,34.74 -80.24,69.77 -119.52,105.24 l -1.8,-10.2 z m -12.93,-73.34 c 35.36,-5.79 72.12,-13.59 106.6,-18.13 -32.43,27.22 -63.41,55.46 -95.13,83.18 -3.82,-21.68 -7.65,-43.36 -11.47,-65.05 z m 363.53,-0.32 c -33.47,-13.65 -71.02,-26 -103.74,-40.23 -1.37,-0.58 -4.95,-0.71 -4.5,-3.14 33.16,-5.85 66.31,-11.7 99.47,-17.54 3.17,20.48 8.35,42.36 10.27,61.96 -0.16,-0.84 -1.22,-0.38 -1.5,-1.05 z m -33.85,-169.58 c 1.44,-1.26 2.7,-4.34 5.29,-3.56 3.75,21.26 7.5,42.51 11.25,63.76 -35.36,5.8 -72.12,13.6 -106.6,18.14 29.69,-25.32 61.29,-53.11 90.06,-78.34 z m -337.58,121.33 c -4.44,-18.94 -8.6,-42.53 -10.91,-61.85 33.49,14.53 71.8,26.74 105.24,41.27 1.33,0.58 5,0.76 4.5,3.16 -32.95,5.8 -65.89,11.61 -98.83,17.42 z m 133.68,-24.88 c -37.13,-13.14 -75.65,-29.11 -112.19,-43.34 -12.66,-4.94 -25.54,-9.28 -36.98,-15.84 4.47,-0.78 8.93,-1.57 13.39,-2.36 50.65,20.26 101.85,39.73 152.58,59.89 -4.71,1.09 -13.95,2.65 -16.8,1.65 z m 147.11,-68.03 c 17.34,-15.28 36.11,-30.2 52.48,-45.41 1.85,-1.72 3.1,-5.33 6.34,-5.07 0.49,2.77 0.98,5.53 1.47,8.3 -30.08,27.12 -62.37,54.8 -93.34,82.2 -8.11,7.18 -13.78,14.73 -27.86,13.46 20.6,-16.95 40.51,-35.49 60.91,-53.48 z m -200.37,30.73 c -19.87,-7.88 -40.48,-16.27 -59.41,-23.71 -2.71,-1.06 -7.94,-1.3 -6.53,-3.45 41.24,-7.27 82.47,-14.54 123.71,-21.81 4.46,25.29 8.91,50.58 13.38,75.88 -0.06,0.52 0.2,1.26 -0.41,1.38 -22.01,-9.93 -47.02,-18.89 -70.74,-28.29 z m 106.23,-57.52 c 40.46,-6.69 82.32,-15.39 121.9,-20.84 -36.8,31.43 -72.7,63.49 -108.74,95.45 -4.39,-24.87 -8.77,-49.74 -13.16,-74.61"
       id="path65"
       inkscape:connector-curvature="0"
       style="fill:#ffffff" />
    <path
       d="m 2049.91,3502.21 c 39.8,-5.49 81.87,-14.22 122.54,-20.96 -4.35,-24.65 -8.69,-49.31 -13.04,-73.96 -2.75,0.03 -4.55,2.73 -6.45,4.42 -33.06,29.37 -69.22,60.89 -103.05,90.5 m 295.34,-51.43 c 1.14,-2.15 -3.99,-3.03 -6.63,-4.08 -42.21,-16.72 -89.87,-35.42 -131.32,-51.14 4.93,25.43 8.45,52.86 14.25,77.04 41.23,-7.27 82.46,-14.54 123.7,-21.82"
       id="path67"
       inkscape:connector-curvature="0"
       style="fill:#25285b" />
    <path
       d="m 2374.59,3445.61 c -4.86,-4.71 -11.95,-6.96 -18.09,-9.3 -37.73,-14.4 -74.97,-28.69 -114.31,-44.27 -10.91,-4.33 -17.89,-9.46 -33.69,-4.58 51.22,20.25 102.72,40.1 153.97,60.29 4.04,-0.71 8.08,-1.43 12.12,-2.14 m -354.99,59.97 c 39.28,-35.47 79.19,-70.5 119.52,-105.24 -14.09,-1.26 -19.76,6.29 -27.88,13.47 -30.86,27.31 -62.62,55.14 -93.44,81.57 l 1.8,10.2"
       id="path69"
       inkscape:connector-curvature="0"
       style="fill:#ed212a" />
    <path
       d="m 2016.34,3487.09 c 31.72,-27.72 62.7,-55.96 95.13,-83.18 -34.48,4.54 -71.24,12.34 -106.6,18.13 3.82,21.69 7.65,43.37 11.47,65.05 m 353.56,-64.32 c -1.92,-19.6 -7.1,-41.48 -10.27,-61.96 -33.16,5.84 -66.31,11.69 -99.47,17.54 -0.45,2.43 3.13,2.56 4.5,3.14 32.72,14.23 70.27,26.58 103.74,40.23 0.28,0.67 1.34,0.21 1.5,1.05 m -125.41,-92.29 c 34.48,-4.54 71.24,-12.34 106.6,-18.14 -3.75,-21.25 -7.5,-42.5 -11.25,-63.76 -2.59,-0.78 -3.85,2.3 -5.29,3.56 -28.77,25.23 -60.37,53.02 -90.06,78.34 m -148.69,25.57 c 0.5,-2.4 -3.17,-2.58 -4.5,-3.16 -33.44,-14.53 -71.75,-26.74 -105.24,-41.27 2.31,19.32 6.47,42.91 10.91,61.85 32.94,-5.81 65.88,-11.62 98.83,-17.42"
       id="path71"
       inkscape:connector-curvature="0"
       style="fill:#25285b" />
    <path
       d="m 2147.45,3346.94 c -50.73,-20.16 -101.93,-39.63 -152.58,-59.89 -4.46,0.79 -8.92,1.58 -13.39,2.36 11.44,6.56 24.32,10.9 36.98,15.84 36.54,14.23 75.06,30.2 112.19,43.34 2.85,1 12.09,-0.56 16.8,-1.65 m 69.4,-12.9 c 14.08,1.27 19.75,-6.28 27.86,-13.46 30.97,-27.4 63.26,-55.08 93.34,-82.2 -0.49,-2.77 -0.98,-5.53 -1.47,-8.3 -3.24,-0.26 -4.49,3.35 -6.34,5.07 -16.37,15.21 -35.14,30.13 -52.48,45.41 -20.4,17.99 -40.31,36.53 -60.91,53.48"
       id="path73"
       inkscape:connector-curvature="0"
       style="fill:#ed212a" />
    <path
       d="m 2148.13,3339.58 c 0.61,-0.12 0.35,-0.86 0.41,-1.38 -4.47,-25.3 -8.92,-50.59 -13.38,-75.88 -41.24,7.27 -82.47,14.54 -123.71,21.81 -1.41,2.15 3.82,2.39 6.53,3.45 18.93,7.44 39.54,15.83 59.41,23.71 23.72,9.4 48.73,18.36 70.74,28.29 m 48.65,-11.2 c 36.04,-31.96 71.94,-64.02 108.74,-95.45 -39.58,5.45 -81.44,14.15 -121.9,20.84 4.39,24.87 8.77,49.74 13.16,74.61"
       id="path75"
       inkscape:connector-curvature="0"
       style="fill:#25285b" />
    <path
       d="m 2207.36,3379.11 -12.33,2.17 16.79,95.24 12.33,-2.18 -16.79,-95.23 m -40.82,7.2 -12.33,2.17 16.79,95.24 12.34,-2.18 -16.8,-95.23"
       id="path77"
       inkscape:connector-curvature="0"
       style="fill:#ffffff" />
    <path
       d="m 2364.52,3350.52 -169.22,29.84 2.18,12.33 169.21,-29.84 -2.17,-12.33 m -7.82,-44.32 -169.21,29.84 2.17,12.32 169.22,-29.83 -2.18,-12.33 m -198.34,34.97 -169.21,29.84 2.17,12.33 169.22,-29.84 -2.18,-12.33 m 6.87,44.49 -169.21,29.84 2.17,12.33 169.22,-29.84 -2.18,-12.33"
       id="path79"
       inkscape:connector-curvature="0"
       style="fill:#ffffff" />
    <path
       d="m 2182.65,3479.45 29.97,-5.28 c -5.47,-31.03 -10.94,-62.06 -16.42,-93.1 52.46,-10.78 108.16,-19.29 161.86,-29.19 -1.91,-10.84 -3.82,-21.68 -5.74,-32.52 -53.77,9.48 -107.55,18.96 -161.32,28.44 -6.7,-29.28 -11.12,-61.81 -16.94,-92.34 -10.2,1.8 -20.41,3.59 -30.61,5.39 5.47,31.04 10.94,62.07 16.41,93.11 -53.98,9.52 -107.97,19.04 -161.96,28.56 1.91,10.83 3.82,21.67 5.73,32.51 l 161.97,-28.56 c 5.36,30.4 10.72,60.79 16.08,91.19 0.1,0.91 0.21,1.82 0.97,1.79"
       id="path81"
       inkscape:connector-curvature="0"
       style="fill:#ed212a" />
  </g>
  <path
     stroke-miterlimit="10"
     d="m 214.85996,199.7748 c -5.0186,-3.9225 -9.7304,-0.2226 -11.2837,1.0814 -0.658,-1.004 -5.286,-8.141 -11.378,-3.788 -5.492,3.9227 4.349,20.9862 8.789,22.5422 l 0.454,0.212 c 4.327,-0.196 19.096,-15.6103 13.42,-20.0475 z"
     id="path83"
     inkscape:connector-curvature="0"
     style="fill:none;stroke:#25285b;stroke-width:1.20079994;stroke-miterlimit:10" />
  <path
     d="m 415.61896,156.3746 c 1.9652,-1.036 3.9252,-2.0866 5.853,-3.2172 21.3676,-12.5237 44.1337,-40.3283 50.2282,-51.82 6.096,-11.493 12.9024,-29.7073 12.9024,-29.7073 0,0 -0.7453,-0.108 -2.0786,-0.1293 -6.3332,0.4373 -17.7823,5.8118 -17.7823,5.8118 -28.4833,13.4144 -41.5976,46.9482 -49.1227,79.062"
     id="path85"
     inkscape:connector-curvature="0"
     style="fill:#a4262c" />
  <path
     d="m 542.06916,410.991 c -61.5412,-19.533 -102.6188,-5.48 -123.6796,3.3052 -5.936,2.4773 -13.4944,5.464 -13.7117,5.5425 -13.677,6.371 -31.6685,12.813 -50.1574,13.926 1.3906,0.658 51.3734,21.079 70.6076,17.443 7.126,-1.347 14.912,-3.505 23.135,-6.836 40.303,-16.323 70.555,-5.684 73.022,-4.763 l 20.783,-28.619"
     id="path87"
     inkscape:connector-curvature="0"
     style="fill:#a4262c" />
  <path
     d="m 475.62276,68.6208 c 0.0667,-0.0186 -39.115,-6.3238 -52.8294,-2.332 -12.6543,3.6827 -22.3154,15.3237 -29.5685,25.6648 -13.9437,19.8902 -23.1248,43.403 -30.246,67.1276 -14.357,6.36 -29.8712,10.633 -45.9908,12.7584 8.863,3.6626 17.719,7.0585 26.742,9.6744 4.482,-0.3733 8.955,-0.82 13.401,-1.4346 -0.807,3.0972 -1.6,6.1905 -2.37,9.2504 -8.385,33.3685 -13.288,67.761 -16.944,101.9188 -4.9,45.7602 -5.824,96.3616 14.795,138.594 14.749,-0.6228 29.464,-4.9693 41.853,-10.0012 l -3.296,-9.0944 c -9.136,-30.9686 -9.453,-64.6398 -7.275,-96.6723 2.269,-33.392 20.108,-127.039 24.014,-140.41 0.644,-3.419 1.346,-6.956 2.117,-10.563 7.149,-33.855 19.743,-71.244 49.426,-87.569 0.503,-0.207 1.193,-0.532 2.12,-1.007 8.057,-4.119 14.379,-4.996 16.707,-5.183 0.629,-0.051 0.183,-0.196 0.183,-0.196 l -2.843,-0.528"
     id="path89"
     inkscape:connector-curvature="0"
     style="fill:#ed212a" />
  <path
     d="m 143.42176,184.2566 -0.001,0 c -20.342,0 -36.983,-1.5346 -52.370697,-4.832 -0.0506,-0.007 -0.1133,-0.0185 -0.1786,-0.036 -0.462,-0.096 -1.402,-0.2625 -2.65,-0.4825 -17.074,-3.02 -20.525,-4.4506 -21.166,-6.1812 -0.33,-0.885 -1.326,-3.574 9.651,-28.132 1.053,-4.405 2.792,-6.638 5.169,-6.638 l 0.136,0.003 c 7.109,0.275 14.238,0.331 21.131997,0.386 2.736,0.022 5.444,0.044 8.116,0.078 3.984,0.054 7.968,0.079 11.955,0.079 11.094,0 22.35,-0.204 33.458,-0.608 l 0.982,-0.036 0.001,0.004 c 0.276,-0.01 0.61,-0.025 1.001,-0.042 5.477,-0.232 22.148,-0.936 40.623,-0.936 21.657,0 38.336,0.947 49.579,2.815 5.088,0.844 9.65,9.667 13.529,17.871 0.365,0.773 0.677,1.435 0.929,1.939 l 0.774,1.544 c 2.664,5.292 5.977,11.876 6.378,17.85 l 0.1,1.503 -1.503,-0.081 c -2.531,-0.136 -5.804,-0.207 -9.729,-0.207 -16.791,0 -40.547,1.255 -42.554,1.604 l -0.207,0.02 c -11.026,0.167 -22.266,0.71 -33.134,1.235 -13.129,0.632 -26.707,1.287 -40.025,1.287 z m -51.861397,-7.4465 0.0747,0.0134 c 15.171997,3.2506 31.635997,4.7665 51.784997,4.7665 13.254,0 26.799,-0.6533 39.899,-1.2853 10.858,-0.523 22.086,-1.066 33.127,-1.235 2.986,-0.439 26.628,-1.626 42.895,-1.626 3.209,0 5.993,0.046 8.305,0.137 -0.768,-5.074 -3.609,-10.72 -5.933,-15.336 l -0.78,-1.555 c -0.259,-0.516 -0.579,-1.195 -0.954,-1.989 -2.22,-4.695 -7.419,-15.692 -11.555,-16.379 -11.099,-1.844 -27.633,-2.779 -49.143,-2.779 -18.419,0 -35.047,0.704 -40.51,0.933 -1.163,0.049 -1.859,0.078 -2.018,0.078 l -0.067,0 c -11.113,0.402 -22.374,0.606 -33.473,0.606 -3.999,0 -7.996,-0.026 -11.991,-0.079 -2.668,-0.035 -5.372,-0.056 -8.103,-0.078 -6.914997,-0.055 -14.064997,-0.112 -21.215997,-0.388 -0.727,0 -1.823,1.233 -2.635,4.705 l -0.082,0.241 c -7.488,16.741 -9.8708,24.47 -9.656,26.123 1.2305,1.016 7.6703,2.558 19.15,4.589 1.332,0.236 2.328,0.413 2.788,0.512 l 0.085,0.018"
     id="path91"
     inkscape:connector-curvature="0"
     style="fill:#ffffff" />
  <path
     d="m 119.16096,144.4936 c -8.521,-33.1792 -17.6075,-92.3417 23.5835,-106.9106 14.4156,-5.0946 30.1445,-2.776 43.223,4.6945 10.2436,5.8492 13.5422,14.5476 16.8408,25.186 7.983,25.7594 2.752,53.3814 -2.771,80.4994 -4.301,21.113 28.026,30.102 32.343,8.915 6.984,-34.286 12.459,-68.135 1.584,-102.1 -12.976,-40.523 -52.423,-58.961 -93.362,-51.348 -69.345997,12.895 -67.411997,96.914 -53.783997,149.98 5.377,20.938 37.723997,12.049 32.342997,-8.915"
     id="path93"
     inkscape:connector-curvature="0"
     style="fill:#25285b" />
  <path
     d="m 119.16096,144.4936 c -8.521,-33.1792 -17.6075,-92.3417 23.5835,-106.9106 14.4156,-5.0946 30.1445,-2.776 43.223,4.6945 10.2436,5.8492 13.5422,14.5476 16.8408,25.186 7.983,25.7594 2.752,53.3814 -2.771,80.4994 -4.301,21.113 28.026,30.102 32.343,8.915 6.984,-34.286 12.459,-68.135 1.584,-102.1 -12.976,-40.523 -52.423,-58.961 -93.362,-51.348 -69.345997,12.895 -67.411997,96.914 -53.783997,149.98 5.377,20.938 37.723997,12.049 32.342997,-8.915"
     id="path95"
     inkscape:connector-curvature="0"
     style="fill:#25285b" />
  <path
     d="m 218.48386,171.4823 c -6.1132,0 -12.281,-2.9 -16.0943,-7.5705 -3.5426,-4.3332 -4.8452,-9.9038 -3.6692,-15.6823 5.1292,-25.1847 10.9424,-53.7293 2.8252,-79.91 -3.3185,-10.7184 -6.413,-18.7342 -16.0702,-24.2487 -13.185,-7.5318 -28.662,-9.2598 -41.8936,-4.58 -39.507,13.977 -31.0726,71.8916 -22.5288,105.1695 1.8813,7.325 -0.548,12.501 -2.9146,15.5543 -3.6546,4.7118 -9.8118,7.637 -16.0703,7.637 l -0.003,0 c -8.355997,-0.003 -14.859997,-5.1144 -16.972997,-13.3462 -4.696,-18.2902 -18.01,-81.122 7.862,-121.681 10.683997,-16.7502 26.678997,-27.21 47.543997,-31.09 6.1301,-1.1384 12.3111,-1.7184 18.3711,-1.7184 36.979,0 66.633,20.8782 77.3927,54.488 11.0182,34.41 5.5583,68.5437 -1.5388,103.3948 -1.708,8.3798 -7.93,13.5837 -16.24,13.5837 z m -59.38,-138.2312 c 9.6172,0 19.353,2.6586 28.1608,7.6878 10.7824,6.158 14.277,15.171 17.729,26.314 8.389,27.062 2.477,56.088 -2.736,81.696 -1.228,6.023 0.9132,10.22 2.924,12.683 3.1464,3.852 8.2437,6.245 13.3022,6.245 6.5918,0 11.341,-3.997 12.7023,-10.695 7.0012,-34.366 12.393,-67.994 1.6413,-101.577 -10.265,-32.062 -38.6043,-51.98 -73.958,-51.98 -5.8386,0 -11.7998,0.559 -17.713,1.659 -19.8408,3.689 -35.035,13.609 -45.160197,29.484 -25.09,39.335 -12.014,100.908 -7.409,118.844 1.71,6.661 6.747,10.637 13.478997,10.637 l 0.003,0 c 5.168,0 10.235,-2.391 13.221,-6.243 1.872,-2.415 3.79,-6.536 2.27,-12.445 -8.849,-34.474 -17.393,-94.535 24.821,-109.467 5.329,-1.884 10.956,-2.84 16.725,-2.84"
     id="path97"
     inkscape:connector-curvature="0"
     style="fill:#ffffff" />
  <path
     d="m 73.828763,169.773 c -0.1013,-0.032 -25.39,-7.6425 -35.778,26.8686 -10.4032,34.5792 -35.3980003,173.769 -35.3980003,173.769 0,0 32.2867003,16.633 63.1136003,5.416 l 18.4555,-180.7318 c 0,0 2.8853,-15.2356 -10.393,-25.322"
     id="path99"
     inkscape:connector-curvature="0"
     style="fill:#25285b" />
  <path
     d="m 73.422163,167.7064 c -40.218,-11.4997 -45.868,59.2305 -50.9198,83.766 -8.055,39.1082 -15.4184003,78.366 -22.47970034,117.6623 -0.241,1.338 1.33900004,2.566 2.35200004,3.074 19.8058003,9.957 43.9308003,12.653 65.0290003,5.796 0.464,-0.151 0.9346,-0.331 0.9933,-0.903 3.7185,-36.423 7.437,-72.842 11.1584,-109.266 2.1026,-20.596 4.2052,-41.19 6.309,-61.787 1.4654,-14.371 1.808,-26.569 -10.4503,-37.17 -2.226,-1.926 -6.214,-0.847 -3.172,1.782 13.973,12.087 8.55,30.998 6.909,47.072 -2.667,26.103 -5.333,52.206 -7.997,78.311 -2.304,22.549 -4.607,45.097 -6.909,67.646 -0.283,2.772 -0.567,5.542 -0.848,8.313 -0.426,4.171 -2.899,2.853 -7.32,3.968 -17.004,4.284 -37.576,0.466 -53.1470003,-7.364 0.784,1.024 1.567,2.049 2.351,3.074 6.1160003,-34.034 12.5310003,-68.018 19.2930003,-101.93 4.236,-21.23 8.486,-42.505 13.815,-63.493 4.062,-16.013 14.743,-40.459 35.843,-34.423 3.781,1.08 1.526,-3.464 -0.812,-4.133"
     id="path101"
     inkscape:connector-curvature="0"
     style="fill:#ffffff" />
</svg>
