<svg xmlns="http://www.w3.org/2000/svg" viewBox="-0.0020000001 0.016000001 876.42419 467.08295" width="876.424" height="467.083"><defs><clipPath id="a"><path d="M2265.73 3429.25c-37.64 29.42-72.98 1.67-84.63-8.11-4.94 7.53-39.65 61.06-85.34 28.41-41.19-29.42 32.62-157.4 65.92-169.07l3.4-1.59c32.45 1.47 143.22 117.08 100.65 150.36z"/></clipPath></defs><path d="M528.19 423.286c5.977 1.2 13.47 8.148 14.985 13.895 1.516 5.747 9.008 12.696 14.986 13.896" fill="none" stroke="#ef2f2c" stroke-width="1.694"/><path d="M520.316 438.384c5.53 1.402 11.554 8.376 12.047 13.951.492 5.574 6.516 12.548 12.046 13.95" fill="none" stroke="#a4262c" stroke-width="1.705"/><path d="M522.735 433.837c5.476 1.054 11.634 7.496 12.317 12.886.683 5.389 6.84 11.832 12.317 12.887" fill="none" stroke="#ef2f2c" stroke-width="1.699"/><path d="M525.721 428.877c5.91.995 12.552 7.788 13.288 13.588.734 5.798 7.378 12.592 13.286 13.586" fill="none" stroke="#a4262c" stroke-width="1.872"/><path d="M536.216 416.457c5.566.037 12.254 5.33 13.376 10.585 1.123 5.257 7.81 10.55 13.376 10.586" fill="none" stroke="#ef2f2c" stroke-width="1.824"/><path d="M538.606 411.107c5.492-.317 12.133 4.658 13.277 9.947 1.147 5.29 7.786 10.265 13.28 9.949" fill="none" stroke="#a4262c" stroke-width="1.913"/><path d="M532.515 420.212c5.997.376 12.816 6.486 13.638 12.22.822 5.735 7.64 11.845 13.637 12.221" fill="none" stroke="#a4262c" stroke-width="1.955"/><path d="M298.43 167.901c-28.375-13.094-50.973-36.932-65.624-64.166-3.035-5.643-28.527 24.766-15.976 36.502 28.773 26.904 66.941 42.727 107.563 43.396 4.146.068 8.294.02 12.44-.088-8.048-3.024-33.259-13.27-38.403-15.644" fill="#a4262c"/><path d="M127.885 149.364s-8.452-67.29 12.316-82.643c20.772-15.35 41.538-6.32 47.86 3.612 6.322 9.935 17.16 27.91 3.613 88.91 0 0-53.532 22.189-63.79-9.88" fill="#25285b"/><path d="M111.81 145.877c8.592 1.63 42.653 8.543 48.19 16.76 0 0 31.175-19.69 46.585-17.122l34.244 8.444s34.245 102.61 53.936 275.24c0 0 1.71 9.966-81.332 15.102 0 0-38.526-.856-43.663 6.848h-15.41s-20.547-11.127-44.517-6.848c-23.97 4.279-75.336-2.567-79.617-9.417-4.282-6.85 19.688-167.8 19.688-167.8s5.304-109.438 36.815-114.676c13.784-2.294 23.825-6.77 25.081-6.53" fill="#25285b"/><path d="M112.3 148.624c6.59 1.265 13.13 2.73 19.634 4.378 8.128 2.06 21.097 4.528 26.799 11.37.634.758 1.921 1.39 2.86.801 12.486-7.816 31.845-20.274 47.077-16.52l23.101 5.698c2.94.723 5.878 1.447 8.816 2.174 1.818.448-2.437-3.93-1.578-1.285 7.994 24.64 14.15 49.93 19.985 75.15 13.743 59.383 23.739 119.622 31.27 180.089.65 5.213 2.25 14.718 2.135 17.798.02-.485.186-.538-.186-.077-1.622 2.007-5.21 2.945-7.49 3.708-19.966 6.701-42.533 7.517-63.317 9.055-16.39 1.209-34.604-1.268-50.06 5.229-3.32 1.397-1.805 2.213-5.395 2.213h-11.649c-1.748 0-5.043-2.161-6.753-2.82-5.907-2.266-12.128-3.574-18.368-4.482-12.666-1.844-25.375 1.649-38.07 1.78-13.02.134-26.116-1.22-38.949-3.331-3.49-.573-19.58-2.895-19.997-5.836-.639-4.541.164-9.576.512-14.108 4.256-55.435 15.781-110.059 20.618-165.376 2.004-22.945 5.247-46.101 12.143-68.13 2.943-9.394 6.848-19.011 13.732-26.229 4.427-4.644 10.47-4.99 16.408-6.31 5.692-1.264 11.519-4.374 17.301-4.947 2.935-.29.502-5.737-2.138-5.476-8.635.855-19.384 4.627-27.648 7.203-5.708 1.78-9.84 6.897-12.995 11.682-9.61 14.59-13.175 33.508-16.281 50.382-3.786 20.548-4.47 41.345-7.487 61.944-5.068 34.613-9.932 69.264-14.193 103.988-1.877 15.296-3.811 30.657-4.644 46.052-.48 8.856.084 13.413 9.176 16.733 19.745 7.213 43.69 8.004 64.451 7 15.322-.739 28.768-2.952 43.87 1.79 7.137 2.242 10.036 3.98 17.563 3.98 2.61 0 5.698.467 8.285-.007 2.521-.46 5.568-3.416 8.473-4.198 9.754-2.622 20.526-2.61 30.561-2.67 21.668-.127 43.962-2.538 65.245-6.683 6.47-1.261 16.288-2.593 21.094-7.83.514-.558.954-1.5.917-2.28-.752-16.598-4.008-33.474-6.285-49.925-7.74-55.956-17.968-111.633-31.314-166.53-4.19-17.22-8.728-34.367-13.826-51.342-3.074-10.228-3.846-10.84-14.916-13.57-8.718-2.15-17.752-5.368-26.702-6.298-11.69-1.212-25.028 6.255-35.004 11.444a163.669 163.669 0 0 0-10.517 5.996c2.08-1.285 1.277-.888-1.576-2.873-2.036-1.415-4.435-2.413-6.678-3.415-12.179-5.426-25.969-8.078-38.993-10.581-3.232-.621-1.547 5.007.977 5.492" fill="#fff"/><path d="M159.863 451.893l-1.15-305.786 4.85-.08 1.152 305.789-4.852.077" fill="#fff"/><path d="M232.047 141.692c7.998 0 3.887-7.455-2.25-7.455-7.998 0-3.887 7.455 2.25 7.455" fill="#231f20"/><path d="M254.171 165.565c-.104.01-26.454 1.796-24.016 37.754 2.444 36.028 28.09 175.102 28.09 175.102s36.078 4.192 60.981-17.164l-46.404-175.652s-2.667-15.274-18.65-20.04" fill="#25285b"/><path d="M255.25 164.084c-42.164 3.558-23.628 68.398-19.612 93.96 6.332 40.304 13.428 80.501 20.821 120.621.187 1.005 1.5 1.164 2.311 1.25 22.51 2.426 46.687-3.905 64.295-18.122.233-.21.348-.468.348-.78-9.355-35.397-18.706-70.796-28.056-106.193l-15.863-60.05c-3.583-13.555-7.261-25.033-22.097-30.426-1.736-.63-7.178 1.305-4.05 2.443 13.18 4.79 16.496 14.538 19.618 26.358l10.65 40.31 28.111 106.41c1.347 5.101 2.696 10.201 4.043 15.305 1.644 6.227 2.78 5.24-3.238 9.548-11.713 8.388-26.634 11.596-40.76 12.435-3.454.205-6.929.124-10.377-.113-2.416-.164 1.283 2.481.801-.136-6.165-33.587-12.073-67.227-17.62-100.92-3.514-21.363-7.03-42.77-9.438-64.292-1.766-15.772-1.007-42.842 20.356-44.644 3.577-.303 3.338-3.267-.243-2.964" fill="#fff"/><path d="M234.75 123.459v.906c0 1.246-.044 23.959.239 23.959.282 0 .238-22.714.238-23.959v-2.761c0-1.245.044-23.959-.238-23.959-.283 0-.239 22.714-.239 23.959v.259c0 1.245-.044 23.958.239 23.958.282 0 .238-22.713.238-23.958v-.26c0-1.245.044-23.958-.238-23.958-.283 0-.239 22.713-.239 23.959v2.761c0 1.245-.044 23.959.239 23.959.282 0 .238-22.714.238-23.959v-.907c0-1.244.044-23.958-.238-23.958-.283 0-.239 22.714-.239 23.958m125.375 74.452c5.19-24.492 20.468-67.517 20.468-67.517l1.274-5.362" fill="#231f20"/><path d="M360.125 197.91c5.19-24.491 20.468-67.517 20.468-67.517l1.274-5.362" fill="none" stroke="#fff" stroke-width="2.396"/><path d="M142.847 234.116a6.255 6.255 0 1 0 0-12.51 6.255 6.255 0 0 0 0 12.51m37.971 0a6.254 6.254 0 1 0 .002-12.508 6.254 6.254 0 0 0-.002 12.508m-38.505 30.568a6.255 6.255 0 1 0-.001-12.51 6.255 6.255 0 0 0 0 12.51m37.973 0a6.255 6.255 0 1 0-.001-12.51 6.255 6.255 0 0 0 0 12.51" fill="#fff"/><path d="M415.168 335.009q0-18.082 13.257-31.06 13.2-12.98 31.726-12.98 18.304 0 31.394 13.09 13.145 13.09 13.145 31.45 0 18.47-13.2 31.337-13.257 12.924-32.004 12.924-16.585 0-29.785-11.482-14.533-12.701-14.533-33.28zm13.035.166q0 14.2 9.54 23.351 9.485 9.152 21.91 9.152 13.477 0 22.74-9.318 9.263-9.43 9.263-22.963 0-13.7-9.152-22.963-9.096-9.318-22.52-9.318-13.366 0-22.574 9.318-9.207 9.208-9.207 22.741zm92.85 43.042v-91.463l62.454 65.338v-59.514h12.924v90.853l-62.455-65.173v59.959h-12.923zm95.845 0v-85.64h17.97q12.924 0 20.412 2.552 8.043 2.496 14.587 8.486 13.257 12.092 13.257 31.782 0 19.746-13.811 31.949-6.933 6.1-14.532 8.486-7.1 2.385-20.134 2.385h-17.75zm12.923-12.147h5.824q8.708 0 14.477-1.83 5.768-1.942 10.427-6.157 9.54-8.708 9.54-22.686 0-14.088-9.429-22.852-8.486-7.82-25.015-7.82h-5.824v61.345zm65.339-31.061q0-18.082 13.256-31.06 13.201-12.98 31.727-12.98 18.303 0 31.393 13.09 13.146 13.09 13.146 31.45 0 18.47-13.201 31.337-13.256 12.924-32.004 12.924-16.584 0-29.785-11.482-14.532-12.701-14.532-33.28zm13.034.166q0 14.2 9.54 23.351 9.485 9.152 21.91 9.152 13.478 0 22.74-9.318 9.263-9.43 9.263-22.963 0-13.7-9.152-22.963-9.096-9.318-22.519-9.318-13.367 0-22.574 9.318-9.208 9.208-9.208 22.741zm92.85 43.042v-91.463l62.455 65.338v-59.514h12.923v90.853l-62.454-65.173v59.959h-12.924z" font-weight="500" font-size="85.196" font-family="Futura" white-space="pre" fill="#ed212a"/><path d="M440.047 188.47l18.651 47.882 19.487-51.361 18.65 51.36 19.812-47.88h11.738l-32.013 76.183-18.42-50.758-19.208 50.804-30.436-76.23h11.739zm121.512 41.108l22.177 30.529h-13.223l-20.46-29.323h-1.95v29.323h-10.81V188.47h12.667q14.197 0 20.507 5.335 6.96 5.939 6.96 15.682 0 7.61-4.362 13.084-4.361 5.475-11.506 7.006zm-13.455-8.212h3.433q15.357 0 15.357-11.739 0-10.995-14.94-10.995h-3.85v22.734zm88.432 21.342h-30.669l-7.98 17.399h-11.645l35.447-76.137 34.194 76.137h-11.831l-7.516-17.399zm-4.408-10.16l-10.625-24.359-11.135 24.358h21.76zm43.473-1.532v29.09h-10.81v-71.635h12.249q9 0 13.594 1.252 4.64 1.253 8.166 4.733 6.17 6.031 6.17 15.218 0 9.836-6.588 15.59-6.588 5.752-17.77 5.752h-5.01zm0-10.021h4.037q14.893 0 14.893-11.46 0-11.09-15.357-11.09H675.6v22.55zm80.545-32.525v43.15q0 9.232 3.015 13.5 4.5 6.171 12.667 6.171 8.212 0 12.712-6.17 3.016-4.13 3.016-13.502v-43.148h10.81v46.118q0 11.32-7.052 18.651-7.934 8.166-19.486 8.166-11.553 0-19.44-8.166-7.053-7.33-7.053-18.651V188.47h10.81zm70.151 42.546v29.09h-10.81v-71.635h12.248q9.001 0 13.594 1.252 4.64 1.253 8.166 4.733 6.17 6.031 6.17 15.218 0 9.836-6.587 15.59-6.589 5.752-17.77 5.752h-5.011zm0-10.021h4.036q14.894 0 14.894-11.46 0-11.09-15.358-11.09h-3.572v22.55z" font-weight="500" font-size="71.265" font-family="Futura" white-space="pre" fill="#25285b"/><path d="M269.2 179.92c-.42-6.29-4.333-13.504-7.015-18.89-2.023-4.058-7.963-18.174-13.486-19.09-30.448-5.057-92.04-1.688-91.92-1.785a922.16 922.16 0 0 1-45.48.53c-9.446-.122-19.345-.081-29.285-.465-1.864-.072-3.17 2.246-3.985 5.733-3.472 7.763-10.69 24.49-9.67 27.24.851 2.299 20.331 5.284 22.888 5.835.044.016.091.017.136.027 41.171 8.82 83.335 2.916 125.234 2.28 2.584-.45 37.628-2.223 52.584-1.415" fill="#ed212a"/><path d="M216.063 199.06c-5.452-4.26-10.569-.243-12.258 1.174-.716-1.09-5.743-8.842-12.36-4.114-5.967 4.262 4.724 22.798 9.548 24.49l.492.228c4.7-.213 20.744-16.958 14.578-21.778" fill="#fff"/><path stroke-miterlimit="10" d="M216.063 199.06c-5.452-4.26-10.569-.243-12.258 1.174-.716-1.09-5.743-8.842-12.36-4.114-5.967 4.262 4.724 22.798 9.548 24.49l.492.228c4.7-.213 20.744-16.958 14.578-21.778z" fill="none" stroke="#fff" stroke-width="6.776"/><path d="M216.063 199.06c-5.452-4.26-10.569-.243-12.258 1.174-.716-1.09-5.743-8.842-12.36-4.114-5.967 4.262 4.724 22.798 9.548 24.49l.492.228c4.7-.213 20.744-16.958 14.578-21.778" fill="#25285b"/><path stroke-miterlimit="10" d="M216.063 199.06c-5.452-4.26-10.569-.243-12.258 1.174-.716-1.09-5.743-8.842-12.36-4.114-5.967 4.262 4.724 22.798 9.548 24.49l.492.228c4.7-.213 20.744-16.958 14.578-21.778z" fill="none" stroke="#25285b" stroke-width="1.201"/><g clip-path="url(#a)" transform="matrix(0.13333,0,0,-0.13333,-87.22984,656.99681)"><path d="M2018.47 3510.38c123.71-21.81 247.41-43.62 371.12-65.44-13.68-77.58-27.36-155.16-41.04-232.75-123.91 21.85-247.84 43.7-371.75 65.55 13.57 76.95 27.14 153.9 40.7 230.84.1.91.21 1.82.97 1.8zm134.49-98.67c1.9-1.69 3.7-4.39 6.45-4.42 4.35 24.65 8.69 49.31 13.04 73.96-40.67 6.74-82.74 15.47-122.54 20.96 33.83-29.61 69.99-61.13 103.05-90.5zm28.72 65.95l-16.08-91.19-161.97 28.56c-1.91-10.84-3.82-21.68-5.73-32.51 53.99-9.52 107.98-19.04 161.96-28.56l-16.41-93.11c10.2-1.8 20.41-3.59 30.61-5.39 5.82 30.53 10.24 63.06 16.94 92.34l161.32-28.44c1.92 10.84 3.83 21.68 5.74 32.52-53.7 9.9-109.4 18.41-161.86 29.19 5.48 31.04 10.95 62.07 16.42 93.1l-29.97 5.28c-.76.03-.87-.88-.97-1.79zm39.87-5.06c-5.8-24.18-9.32-51.61-14.25-77.04 41.45 15.72 89.11 34.42 131.32 51.14 2.64 1.05 7.77 1.93 6.63 4.08-41.24 7.28-82.47 14.55-123.7 21.82zm140.92-24.85c-51.25-20.19-102.75-40.04-153.97-60.29 15.8-4.88 22.78.25 33.69 4.58 39.34 15.58 76.58 29.87 114.31 44.27 6.14 2.34 13.23 4.59 18.09 9.3-4.04.71-8.08 1.43-12.12 2.14zm-344.67 47.63c30.82-26.43 62.58-54.26 93.44-81.57 8.12-7.18 13.79-14.73 27.88-13.47-40.33 34.74-80.24 69.77-119.52 105.24l-1.8-10.2zm-12.93-73.34c35.36-5.79 72.12-13.59 106.6-18.13-32.43 27.22-63.41 55.46-95.13 83.18-3.82-21.68-7.65-43.36-11.47-65.05zm363.53-.32c-33.47-13.65-71.02-26-103.74-40.23-1.37-.58-4.95-.71-4.5-3.14 33.16-5.85 66.31-11.7 99.47-17.54 3.17 20.48 8.35 42.36 10.27 61.96-.16-.84-1.22-.38-1.5-1.05zm-33.85-169.58c1.44-1.26 2.7-4.34 5.29-3.56 3.75 21.26 7.5 42.51 11.25 63.76-35.36 5.8-72.12 13.6-106.6 18.14 29.69-25.32 61.29-53.11 90.06-78.34zm-337.58 121.33c-4.44-18.94-8.6-42.53-10.91-61.85 33.49 14.53 71.8 26.74 105.24 41.27 1.33.58 5 .76 4.5 3.16-32.95 5.8-65.89 11.61-98.83 17.42zm133.68-24.88c-37.13-13.14-75.65-29.11-112.19-43.34-12.66-4.94-25.54-9.28-36.98-15.84 4.47-.78 8.93-1.57 13.39-2.36 50.65 20.26 101.85 39.73 152.58 59.89-4.71 1.09-13.95 2.65-16.8 1.65zm147.11-68.03c17.34-15.28 36.11-30.2 52.48-45.41 1.85-1.72 3.1-5.33 6.34-5.07l1.47 8.3c-30.08 27.12-62.37 54.8-93.34 82.2-8.11 7.18-13.78 14.73-27.86 13.46 20.6-16.95 40.51-35.49 60.91-53.48zm-200.37 30.73c-19.87-7.88-40.48-16.27-59.41-23.71-2.71-1.06-7.94-1.3-6.53-3.45l123.71-21.81c4.46 25.29 8.91 50.58 13.38 75.88-.06.52.2 1.26-.41 1.38-22.01-9.93-47.02-18.89-70.74-28.29zm106.23-57.52c40.46-6.69 82.32-15.39 121.9-20.84-36.8 31.43-72.7 63.49-108.74 95.45-4.39-24.87-8.77-49.74-13.16-74.61" fill="#fff"/><path d="M2049.91 3502.21c39.8-5.49 81.87-14.22 122.54-20.96-4.35-24.65-8.69-49.31-13.04-73.96-2.75.03-4.55 2.73-6.45 4.42-33.06 29.37-69.22 60.89-103.05 90.5m295.34-51.43c1.14-2.15-3.99-3.03-6.63-4.08-42.21-16.72-89.87-35.42-131.32-51.14 4.93 25.43 8.45 52.86 14.25 77.04 41.23-7.27 82.46-14.54 123.7-21.82" fill="#25285b"/><path d="M2374.59 3445.61c-4.86-4.71-11.95-6.96-18.09-9.3-37.73-14.4-74.97-28.69-114.31-44.27-10.91-4.33-17.89-9.46-33.69-4.58 51.22 20.25 102.72 40.1 153.97 60.29 4.04-.71 8.08-1.43 12.12-2.14m-354.99 59.97c39.28-35.47 79.19-70.5 119.52-105.24-14.09-1.26-19.76 6.29-27.88 13.47-30.86 27.31-62.62 55.14-93.44 81.57l1.8 10.2" fill="#ed212a"/><path d="M2016.34 3487.09c31.72-27.72 62.7-55.96 95.13-83.18-34.48 4.54-71.24 12.34-106.6 18.13 3.82 21.69 7.65 43.37 11.47 65.05m353.56-64.32c-1.92-19.6-7.1-41.48-10.27-61.96-33.16 5.84-66.31 11.69-99.47 17.54-.45 2.43 3.13 2.56 4.5 3.14 32.72 14.23 70.27 26.58 103.74 40.23.28.67 1.34.21 1.5 1.05m-125.41-92.29c34.48-4.54 71.24-12.34 106.6-18.14-3.75-21.25-7.5-42.5-11.25-63.76-2.59-.78-3.85 2.3-5.29 3.56-28.77 25.23-60.37 53.02-90.06 78.34m-148.69 25.57c.5-2.4-3.17-2.58-4.5-3.16-33.44-14.53-71.75-26.74-105.24-41.27 2.31 19.32 6.47 42.91 10.91 61.85 32.94-5.81 65.88-11.62 98.83-17.42" fill="#25285b"/><path d="M2147.45 3346.94c-50.73-20.16-101.93-39.63-152.58-59.89-4.46.79-8.92 1.58-13.39 2.36 11.44 6.56 24.32 10.9 36.98 15.84 36.54 14.23 75.06 30.2 112.19 43.34 2.85 1 12.09-.56 16.8-1.65m69.4-12.9c14.08 1.27 19.75-6.28 27.86-13.46 30.97-27.4 63.26-55.08 93.34-82.2l-1.47-8.3c-3.24-.26-4.49 3.35-6.34 5.07-16.37 15.21-35.14 30.13-52.48 45.41-20.4 17.99-40.31 36.53-60.91 53.48" fill="#ed212a"/><path d="M2148.13 3339.58c.61-.12.35-.86.41-1.38-4.47-25.3-8.92-50.59-13.38-75.88l-123.71 21.81c-1.41 2.15 3.82 2.39 6.53 3.45 18.93 7.44 39.54 15.83 59.41 23.71 23.72 9.4 48.73 18.36 70.74 28.29m48.65-11.2c36.04-31.96 71.94-64.02 108.74-95.45-39.58 5.45-81.44 14.15-121.9 20.84 4.39 24.87 8.77 49.74 13.16 74.61" fill="#25285b"/><path d="M2207.36 3379.11l-12.33 2.17 16.79 95.24 12.33-2.18-16.79-95.23m-40.82 7.2l-12.33 2.17 16.79 95.24 12.34-2.18-16.8-95.23" fill="#fff"/><path d="M2364.52 3350.52l-169.22 29.84 2.18 12.33 169.21-29.84-2.17-12.33m-7.82-44.32l-169.21 29.84 2.17 12.32 169.22-29.83-2.18-12.33m-198.34 34.97l-169.21 29.84 2.17 12.33 169.22-29.84-2.18-12.33m6.87 44.49l-169.21 29.84 2.17 12.33 169.22-29.84-2.18-12.33" fill="#fff"/><path d="M2182.65 3479.45l29.97-5.28c-5.47-31.03-10.94-62.06-16.42-93.1 52.46-10.78 108.16-19.29 161.86-29.19-1.91-10.84-3.82-21.68-5.74-32.52L2191 3347.8c-6.7-29.28-11.12-61.81-16.94-92.34-10.2 1.8-20.41 3.59-30.61 5.39l16.41 93.11c-53.98 9.52-107.97 19.04-161.96 28.56 1.91 10.83 3.82 21.67 5.73 32.51l161.97-28.56 16.08 91.19c.1.91.21 1.82.97 1.79" fill="#ed212a"/></g><path stroke-miterlimit="10" d="M214.86 199.775c-5.019-3.923-9.73-.223-11.284 1.081-.658-1.004-5.286-8.14-11.378-3.788-5.492 3.923 4.35 20.986 8.79 22.542l.453.212c4.327-.196 19.096-15.61 13.42-20.047z" fill="none" stroke="#25285b" stroke-width="1.201"/><path d="M415.619 156.375c1.965-1.036 3.925-2.087 5.853-3.218 21.368-12.523 44.134-40.328 50.228-51.82 6.096-11.493 12.903-29.707 12.903-29.707s-.746-.108-2.079-.13c-6.333.438-17.782 5.813-17.782 5.813-28.484 13.414-41.598 46.948-49.123 79.062M542.07 410.991c-61.542-19.533-102.62-5.48-123.68 3.305a812.64 812.64 0 0 1-13.712 5.543c-13.677 6.37-31.669 12.813-50.158 13.926 1.391.658 51.374 21.079 70.608 17.443 7.126-1.347 14.912-3.505 23.135-6.836 40.303-16.323 70.555-5.684 73.022-4.763l20.783-28.62" fill="#a4262c"/><path d="M475.623 68.62c.066-.018-39.115-6.323-52.83-2.331-12.654 3.683-22.315 15.324-29.568 25.665-13.944 19.89-23.125 43.403-30.246 67.127-14.357 6.36-29.871 10.633-45.99 12.759 8.862 3.662 17.718 7.058 26.741 9.674 4.482-.373 8.955-.82 13.401-1.435-.807 3.098-1.6 6.19-2.37 9.25-8.385 33.37-13.288 67.762-16.944 101.92-4.9 45.76-5.824 96.361 14.795 138.594 14.75-.623 29.464-4.97 41.853-10.002l-3.296-9.094c-9.136-30.969-9.453-64.64-7.275-96.672 2.27-33.392 20.108-127.04 24.014-140.41a441.647 441.647 0 0 1 2.117-10.563c7.15-33.855 19.743-71.244 49.426-87.57.503-.206 1.193-.531 2.12-1.006 8.057-4.12 14.38-4.996 16.707-5.183.63-.051.183-.196.183-.196l-2.843-.528" fill="#ed212a"/><path d="M143.422 184.257h-.001c-20.342 0-36.983-1.535-52.37-4.832a1.492 1.492 0 0 1-.18-.036 121.39 121.39 0 0 0-2.65-.483c-17.074-3.02-20.525-4.45-21.166-6.181-.33-.885-1.326-3.574 9.651-28.132 1.053-4.405 2.792-6.638 5.17-6.638l.135.003c7.11.275 14.238.33 21.132.386 2.736.022 5.444.044 8.116.078 3.984.054 7.968.079 11.955.079 11.094 0 22.35-.204 33.458-.608l.982-.036.001.004c.276-.01.61-.025 1.001-.042 5.477-.232 22.148-.936 40.623-.936 21.657 0 38.336.947 49.58 2.815 5.087.844 9.65 9.667 13.528 17.87.365.774.677 1.436.93 1.94l.773 1.544c2.664 5.292 5.977 11.876 6.378 17.85l.1 1.503-1.503-.081c-2.53-.136-5.804-.207-9.729-.207-16.79 0-40.547 1.255-42.554 1.604l-.207.02c-11.026.167-22.266.71-33.134 1.235-13.129.632-26.707 1.287-40.025 1.287zM91.56 176.81l.075.013c15.172 3.251 31.636 4.767 51.785 4.767 13.254 0 26.8-.653 39.9-1.285 10.857-.523 22.085-1.066 33.126-1.235 2.986-.44 26.628-1.626 42.895-1.626a216 216 0 0 1 8.305.137c-.768-5.074-3.609-10.72-5.933-15.336l-.78-1.555c-.259-.516-.579-1.195-.954-1.99-2.22-4.694-7.419-15.691-11.555-16.378-11.099-1.844-27.633-2.78-49.143-2.78-18.419 0-35.047.705-40.51.934-1.163.049-1.859.078-2.018.078h-.067a930.174 930.174 0 0 1-33.473.606c-3.999 0-7.996-.026-11.99-.08-2.669-.034-5.373-.055-8.104-.077-6.915-.055-14.065-.112-21.216-.388-.727 0-1.823 1.233-2.635 4.705l-.082.24c-7.488 16.742-9.87 24.47-9.656 26.124 1.23 1.016 7.67 2.558 19.15 4.589 1.332.236 2.328.413 2.788.512l.085.018" fill="#fff"/><path d="M119.161 144.494c-8.521-33.18-17.608-92.342 23.583-106.911 14.416-5.095 30.145-2.776 43.223 4.694 10.244 5.85 13.543 14.548 16.841 25.186 7.983 25.76 2.752 53.382-2.77 80.5-4.302 21.113 28.025 30.102 32.342 8.915 6.984-34.286 12.46-68.135 1.584-102.1-12.976-40.523-52.423-58.961-93.362-51.348-69.346 12.895-67.412 96.914-53.784 149.98 5.377 20.938 37.724 12.049 32.343-8.915" fill="#25285b"/><path d="M119.161 144.494c-8.521-33.18-17.608-92.342 23.583-106.911 14.416-5.095 30.145-2.776 43.223 4.694 10.244 5.85 13.543 14.548 16.841 25.186 7.983 25.76 2.752 53.382-2.77 80.5-4.302 21.113 28.025 30.102 32.342 8.915 6.984-34.286 12.46-68.135 1.584-102.1-12.976-40.523-52.423-58.961-93.362-51.348-69.346 12.895-67.412 96.914-53.784 149.98 5.377 20.938 37.724 12.049 32.343-8.915" fill="#25285b"/><path d="M218.484 171.482c-6.113 0-12.281-2.9-16.094-7.57-3.543-4.333-4.846-9.904-3.67-15.683 5.13-25.184 10.943-53.729 2.826-79.91-3.319-10.718-6.413-18.734-16.07-24.248-13.186-7.532-28.663-9.26-41.894-4.58-39.507 13.977-31.073 71.891-22.529 105.17 1.881 7.324-.548 12.5-2.915 15.554-3.654 4.711-9.811 7.637-16.07 7.637h-.003c-8.356-.003-14.86-5.115-16.973-13.347-4.696-18.29-18.01-81.122 7.862-121.68 10.684-16.75 26.68-27.21 47.544-31.09 6.13-1.14 12.312-1.72 18.372-1.72 36.98 0 66.633 20.878 77.393 54.488 11.018 34.41 5.558 68.544-1.539 103.395-1.708 8.38-7.93 13.584-16.24 13.584zm-59.38-138.23c9.617 0 19.353 2.658 28.16 7.687 10.783 6.158 14.278 15.17 17.73 26.314 8.389 27.062 2.477 56.088-2.736 81.696-1.228 6.023.913 10.22 2.924 12.683 3.146 3.852 8.243 6.245 13.302 6.245 6.592 0 11.34-3.997 12.702-10.695 7.001-34.366 12.393-67.994 1.641-101.577-10.265-32.062-38.604-51.98-73.958-51.98-5.838 0-11.8.559-17.713 1.659-19.84 3.689-35.035 13.609-45.16 29.484-25.09 39.335-12.014 100.908-7.409 118.844 1.71 6.66 6.747 10.637 13.48 10.637h.002c5.168 0 10.235-2.391 13.221-6.243 1.872-2.415 3.79-6.536 2.27-12.445-8.849-34.474-17.393-94.535 24.821-109.467 5.33-1.884 10.956-2.84 16.725-2.84" fill="#fff"/><path d="M73.829 169.773c-.102-.032-25.39-7.643-35.778 26.869C27.648 231.22 2.653 370.41 2.653 370.41s32.286 16.633 63.113 5.416l18.456-180.732s2.885-15.236-10.393-25.322" fill="#25285b"/><path d="M73.422 167.706c-40.218-11.5-45.868 59.23-50.92 83.766-8.055 39.109-15.418 78.366-22.48 117.663-.24 1.338 1.34 2.566 2.353 3.074 19.805 9.957 43.93 12.653 65.029 5.796.464-.151.934-.331.993-.903 3.718-36.423 7.437-72.842 11.158-109.266l6.31-61.787c1.465-14.371 1.807-26.57-10.45-37.17-2.227-1.926-6.215-.847-3.173 1.782 13.973 12.087 8.55 30.998 6.91 47.072-2.668 26.103-5.334 52.206-7.998 78.31a774628.19 774628.19 0 0 0-6.909 67.647c-.283 2.772-.567 5.542-.848 8.313-.426 4.17-2.899 2.853-7.32 3.968-17.004 4.284-37.576.466-53.147-7.364l2.351 3.074a5456.789 5456.789 0 0 1 19.293-101.93c4.236-21.23 8.486-42.505 13.815-63.493 4.062-16.013 14.743-40.46 35.843-34.423 3.781 1.08 1.526-3.464-.812-4.133" fill="#fff"/></svg>