<svg height="19.35" width="72.403" xmlns="http://www.w3.org/2000/svg"><path d="M38.356 4.642c.484-.07 1.526-.014 2.068-.011.647.002 1.257.092 1.795.289.995.366 1.687 1.131 2.08 2.065.888 2.105.69 5.069-.679 6.532-1.355 1.45-3.23 1.17-5.015 1.204-.335.007-.255.083-.255-.798V8.756c0-1.034-.043-3.222.006-4.114zm-4.69 14.192c.985.058 2.15.003 3.155.003 2.808 0 5.897.21 8.348-1.03 2.781-1.407 4.338-4.097 4.352-8.158.007-1.991-.401-3.606-1.229-5.032-.755-1.301-1.805-2.407-3.154-3.098C43.523.694 41.999.521 39.913.5 38.874.489 37.83.498 36.788.498c-1.007 0-2.123-.045-3.125.006l.003 18.33m-15.929-8.643c-.209-1.65.566-3.23 1.318-4.088 3.214-3.664 9.087-1.611 9.527 3.044a5.416 5.416 0 01-1.309 4.094c-3.007 3.451-8.9 1.966-9.536-3.05zm15.1-.35l.001-.32c0-5.149-4.335-9.525-9.697-9.521-4.326.004-7.435 2.711-8.792 5.67-1.674 3.655-.875 7.935 1.933 10.808a9.685 9.685 0 0010.77 2.058c3.352-1.45 5.785-4.926 5.785-8.695m22.485 4.86c-.024-.391-.049-2.87.013-3.121l5.504-.008c-.006-.569.041-3.856-.02-4.112l-5.502-.01-.01-2.804c.03-.059-.07-.076.327-.065l2.488.002c.883 0 1.985.057 2.837-.006l.012-4.023-10.287-.01c-.065.261-.02 8.6-.02 9.105v6.857c0 .666-.06 1.67.016 2.294l10.294.006-.003-4.051c-1.58-.027-3.337 0-4.954 0l-.63-.008c-.103-.037-.001.062-.065-.046m-49.857-2.15l.003 6.251 4.687-.006c.039-.96.004-1.992.004-2.96l.007-3.694c.02-.123 4.106-8.841 4.466-9.634.162-.358.315-.675.476-1.02.072-.149.448-.924.459-1.008L10.545.468 7.817 7.755c-.057-.05-.008.031-.074-.087l-.3-.817C7.184 6.14 5.134.561 5.062.473L0 .468c.027.131.257.582.33.737l3.861 8.227c.237.507.464.98.703 1.5.12.257.227.48.348.737.185.396.223.343.223.882m56.863 6.283l10.075-.007-.009-4.074c-.674-.006-5.194.061-5.434-.037-.054-.487-.007-1.263-.007-1.782 0-1.13.04-12.179-.02-12.387-.099-.041-4.341-.067-4.615-.011-.062.65-.007 1.603-.007 2.286 0 1.379-.04 15.675.017 16.012" fill="#87ce26"/></svg>