<svg viewBox="0 0 72.403 28.411" width="724.03" height="284.11" xmlns="http://www.w3.org/2000/svg"><g fill-rule="evenodd"><path d="M10.799 23.676c1.03-.229 1.67.563 1.8 1.439.355 2.43-2.716 2.887-3.001.627-.132-1.045.298-1.866 1.2-2.066zm3.241 2.052c.186-1.811-.99-3.147-2.6-3.283-1.793-.152-3.18 1.023-3.287 2.643-.122 1.85.93 3.182 2.618 3.311 1.864.143 3.099-1.004 3.27-2.671m18.427-1.995c.527-.151 1.388.02 1.777.267 1.13.718 1.066 3.604-1.785 3.117zm3.846 2.154c.137-.809-.062-1.664-.496-2.217-.998-1.274-2.804-1.276-4.348-1.124-.38.038-.36-.056-.355.342v4.85c0 .533-.06.527.156.548.589.06 1.383.097 1.98.072 1.609-.07 2.791-.857 3.063-2.471" fill="#87ce26"/><path d="M61.082 23.75c.263-.125.762-.072 1.016.04.622.278.556 1.148-.017 1.43-.232.116-.714.175-1.005.093zm1.889 2.329c.114-.1.205-.15.32-.254.561-.507.8-1.272.558-2.03-.488-1.526-2.623-1.389-4.128-1.213l.005 5.73 1.348-.015.007-1.87.709.008.981 1.876 1.51-.002c-.037-.154-.546-.935-.663-1.125-.123-.203-.603-.94-.647-1.105M22.496 23.74c.431-.117 1.003-.04 1.252.2.316.308.25.864-.04 1.14-.36.342-1.175.313-1.217.19-.02-.053-.012-1.417.005-1.53zm1.894 2.339c.114-.1.207-.147.32-.251.89-.822.805-2.104.13-2.724-.395-.362-.934-.545-1.615-.605-.483-.044-1.617-.005-2.081.09l.003 5.72 1.337.002.005-1.88h.717l.984 1.88h1.51c-.04-.167-.538-.92-.66-1.13-.135-.233-.599-.912-.65-1.102m-9.325-3.551c-.067.523-.009 1.51-.009 2.083 0 .608-.049 1.444.055 2.007.217 1.189 1.034 1.79 2.388 1.788 1.314-.002 2.18-.615 2.4-1.776.071-.371.118-3.791.04-4.108l-1.308.003c-.045.203-.016 2.474-.016 2.884 0 .75.024 1.777-1.117 1.769-1.044-.008-1.095-.846-1.095-1.8 0-.453.026-2.596-.01-2.856l-1.328.006m43.481 4.581l-2.323-.021c-.038-.16-.035-.957-.004-1.137h2.107v-1.142l-2.111-.013c-.023-.185-.033-.87.009-1.039l2.303-.013-.005-1.21-3.645-.007.004 5.784 3.661-.004.004-1.198" fill="#080908"/><path d="M38.774 27.093c-.114-.125-.063-1.026-.04-1.142.239-.08 1.72-.028 2.105-.032l.002-1.1-2.083-.008c-.075-.149-.062-.877-.022-1.056.243-.083 1.908-.017 2.327-.036.015-.188.027-1.04-.017-1.199l-3.639.01.006 5.78 3.654-.003-.003-1.218-2.29.004" fill="#87ce26"/><path d="M48.658 22.531c.036.144.578 1.24.69 1.478l1.391 2.947c.107.24.245.521.347.735.121.253.262.667.404.665.147-.001.184-.212.237-.321l.522-1.103c.204-.443 2.011-4.168 2.065-4.407h-1.452c-.09.025-.327.668-.367.761l-.946 2.245c-.044.072-.016.032-.06.071l-1.306-3.077-1.525.006m18.934 5.779c.054-.554.01-1.363.008-1.944-.002-.456.04-.422.235-.748.266-.446 1.73-2.913 1.776-3.093h-1.443c-.164.04-1.036 2.02-1.244 2.184l-1.161-2.184h-1.527c.041.175 1.522 2.642 1.79 3.112.184.324.226.272.223.729-.001.58-.045 1.384.008 1.943h1.335" fill="#080908"/><path d="M2.792 22.53l1.787 3.108c.176.306.221.275.221.728 0 .612-.036 1.348.007 1.945l1.333-.007c.06-.514.01-1.387.01-1.938-.002-.449.034-.403.24-.748.255-.433 1.74-2.944 1.767-3.087-.31-.01-1.264-.059-1.484.021-.111.117-.5.901-.602 1.092-.124.234-.474.969-.594 1.053l-.868-1.612c-.065-.124-.224-.457-.296-.535-.208-.07-1.218-.027-1.521-.02m39.458 5.777c.417.013 3.498.039 3.668-.02l-.003-1.202-2.313-.008V22.55c-.162-.04-1.16-.032-1.359-.01l.006 5.768" fill="#87ce26"/><path d="M46.756 28.311l1.269-.002c.037-.174.048-5.389.012-5.765h-1.292c-.037.36-.028 5.595.011 5.767" fill="#080908"/><path d="M38.356 4.642c.484-.07 1.526-.014 2.068-.011.647.002 1.257.092 1.795.289.995.366 1.687 1.131 2.08 2.065.888 2.105.69 5.069-.679 6.532-1.355 1.45-3.23 1.17-5.015 1.204-.335.007-.255.083-.255-.798V8.756c0-1.034-.043-3.222.006-4.114zm-4.69 14.192c.985.058 2.15.003 3.155.003 2.808 0 5.897.21 8.348-1.03 2.781-1.407 4.338-4.097 4.352-8.158.007-1.991-.401-3.606-1.229-5.032-.755-1.301-1.805-2.407-3.154-3.098C43.523.694 41.999.521 39.913.5 38.874.489 37.83.498 36.788.498c-1.007 0-2.123-.045-3.125.006l.003 18.33m-15.929-8.643c-.209-1.65.566-3.23 1.318-4.088 3.214-3.664 9.087-1.611 9.527 3.044a5.416 5.416 0 01-1.309 4.094c-3.007 3.451-8.9 1.966-9.536-3.05zm15.1-.35l.001-.32c0-5.149-4.335-9.525-9.697-9.521-4.326.004-7.435 2.711-8.792 5.67-1.674 3.655-.875 7.935 1.933 10.808a9.685 9.685 0 0010.77 2.058c3.352-1.45 5.785-4.926 5.785-8.695m22.485 4.86c-.024-.391-.049-2.87.013-3.121l5.504-.008c-.006-.569.041-3.856-.02-4.112l-5.502-.01-.01-2.804c.03-.059-.07-.076.327-.065l2.488.002c.883 0 1.985.057 2.837-.006l.012-4.023-10.287-.01c-.065.261-.02 8.6-.02 9.105v6.857c0 .666-.06 1.67.016 2.294l10.294.006-.003-4.051c-1.58-.027-3.337 0-4.954 0l-.63-.008c-.103-.037-.001.062-.065-.046m-49.857-2.15l.003 6.251 4.687-.006c.039-.96.004-1.992.004-2.96l.007-3.694c.02-.123 4.106-8.841 4.466-9.634.162-.358.315-.675.476-1.02.072-.149.448-.924.459-1.008L10.545.468 7.817 7.755c-.057-.05-.008.031-.074-.087l-.3-.817C7.184 6.14 5.134.561 5.062.473L0 .468c.027.131.257.582.33.737l3.861 8.227c.237.507.464.98.703 1.5.12.257.227.48.348.737.185.396.223.343.223.882m56.863 6.283l10.075-.007-.009-4.074c-.674-.006-5.194.061-5.434-.037-.054-.487-.007-1.263-.007-1.782 0-1.13.04-12.179-.02-12.387-.099-.041-4.341-.067-4.615-.011-.062.65-.007 1.603-.007 2.286 0 1.379-.04 15.675.017 16.012" fill="#87ce26"/></g></svg>